<?xml version="1.0" encoding="utf-8"?>
<!-- Generator: Adobe Illustrator 23.0.1, SVG Export Plug-In . SVG Version: 6.00 Build 0)  -->
<svg version="1.1" id="Livello_1" xmlns="http://www.w3.org/2000/svg" xmlns:xlink="http://www.w3.org/1999/xlink" x="0px" y="0px"
	 width="240.399px" height="18.698px" viewBox="0 0 240.399 18.698" enable-background="new 0 0 240.399 18.698"
	 xml:space="preserve">
<g>
	<g>
		<polygon points="4.901,0.589 0.755,17.071 15.831,17.071 19.978,0.589 		"/>
		<polygon fill="#090909" points="0.377,17.365 4.671,0.295 35.603,0.295 31.312,17.365 		"/>
		<path fill="#FFFFFF" d="M4.9,0.589h30.326l-4.144,16.482H0.756L4.9,0.589z M4.441,0L4.329,0.445L0.184,16.927L0,17.66h0.756
			h30.327h0.459l0.112-0.445l4.143-16.481L35.981,0H4.441z"/>
		<polygon fill="#FF0000" points="20.046,0.589 19.73,0.589 15.583,17.071 31.082,17.071 35.225,0.589 		"/>
		<path fill="#FFFFFF" d="M31.916,9.528c-0.128,0.673-0.269,1.06-0.491,1.506c-0.416,0.83-1.254,1.284-2.435,1.442
			c-0.463,0.059-1.081,0.041-1.081,0.041l2.469,3.507h-3.663l-3.428-4.881c0,0,2.986-0.009,3.295-0.009
			c0.716,0,1.66-0.209,1.924-0.701c0.079-0.147,0.195-0.401,0.198-0.666c0.002-0.332-0.319-0.611-0.866-0.611
			c-0.548,0-5.372-0.005-5.372-0.005l-1.699,6.778h-3.465l2.176-8.445c0,0,8.215-0.002,9.923-0.002
			C31.258,7.483,32.129,8.419,31.916,9.528"/>
		<path fill="#FFFFFF" d="M16.073,10.977l-5.707,0.004l-0.537,1.602h2.837l-0.463,1.548H7.632c-0.997,0-1.415-0.243-1.314-0.944
			c0.113-0.795,0.41-1.467,0.679-2.204c0.55-1.49,1.345-1.868,4.65-1.868c1.754,0,4.95,0.001,4.95,0.001L17.12,7.44
			c0,0-4.718-0.002-5.946-0.002c-4.844,0-6.502,0.567-7.429,2.936c-0.312,0.805-0.783,2.289-0.992,3.51
			c-0.248,1.441,0.866,2.004,2.053,2.044c1.639,0.055,9.87,0.028,9.87,0.028L16.073,10.977z"/>
	</g>
	<g>
		<path fill="#090909" d="M107.9,8.743h-4.592c-1.397,0-3.125,0.282-4.238,1.929c-0.699,1.031-2.662,4.884-2.662,4.884h3.25
			l0.991-1.909h4.243l0.044,1.909h3.113L107.9,8.743z M101.27,12.447c0,0,0.555-1.125,0.885-1.565
			c0.585-0.785,1.303-0.929,1.994-0.935c0.441-0.008,0.66-0.008,0.66-0.008l0.068,2.508H101.27z"/>
		<path fill="#090909" d="M62.658,8.738c-1.511-0.086-3.272-0.076-4.466-0.002c-2.029,0.131-3.369,0.587-3.903,2.331
			c-0.203,0.68-0.446,1.747-0.568,2.48c-0.265,1.607,0.633,1.947,1.712,2.012c1.632,0.094,3.891,0.114,5.559,0.048
			c1.583-0.062,2.85-0.526,3.336-2.03c0.266-0.82,0.437-1.509,0.601-2.503C65.127,9.907,64.56,8.846,62.658,8.738 M59.669,14.352
			c-0.609,0.046-1.281,0.044-1.757,0.007c-0.407-0.039-1.121-0.144-1.037-0.941c0.06-0.554,0.369-1.914,0.58-2.517
			c0.234-0.649,0.749-0.917,1.516-0.959c0.558-0.028,1.087-0.029,1.556-0.004c1.018,0.061,1.407,0.432,1.248,1.229
			c-0.175,0.904-0.323,1.485-0.563,2.148C60.941,14.041,60.305,14.305,59.669,14.352"/>
		<path fill="#090909" d="M84.641,8.738c-1.506-0.086-3.269-0.076-4.464-0.002c-2.028,0.131-3.367,0.587-3.9,2.331
			c-0.206,0.68-0.448,1.747-0.567,2.48c-0.266,1.607,0.629,1.947,1.708,2.012c1.63,0.094,3.893,0.114,5.565,0.048
			c1.576-0.062,2.844-0.526,3.329-2.03c0.27-0.82,0.436-1.509,0.602-2.503C87.11,9.907,86.547,8.846,84.641,8.738 M81.654,14.352
			c-0.611,0.046-1.278,0.044-1.759,0.007c-0.407-0.039-1.111-0.144-1.031-0.941c0.054-0.554,0.368-1.914,0.581-2.517
			c0.231-0.649,0.745-0.917,1.517-0.959c0.553-0.028,1.081-0.029,1.548-0.004c1.022,0.061,1.407,0.432,1.251,1.229
			c-0.176,0.904-0.319,1.485-0.572,2.148C82.932,14.041,82.295,14.305,81.654,14.352"/>
		<polygon fill="#090909" points="46.389,8.965 44.777,15.566 48.181,15.566 49.787,8.965 54.323,8.965 54.713,7.277 42.355,7.277 
			41.945,8.965 		"/>
		<polygon fill="#090909" points="91.703,10.059 90.349,15.605 93.205,15.605 94.561,10.059 98.372,10.059 98.699,8.636 
			88.318,8.636 87.973,10.059 		"/>
		<polygon fill="#090909" points="68.83,13.004 68.246,15.607 71.06,15.607 71.7,13.004 76.887,8.624 74.13,8.617 70.342,11.625 
			67.617,8.617 65.058,8.624 		"/>
	</g>
	<g>
		<path fill="#090909" d="M194.91,15.557c-1.227,0-1.542-0.318-1.462-1.177c0.028-0.27,0.074-0.649,0.231-1.104
			c0.312-0.898,1.523-1.38,3.051-1.38h3.164c0,0,0.317-0.855-0.785-0.855H194.8l0.235-1.125h5.362c1.97,0,2.624,1.085,2.358,2.38
			c-0.193,0.949-0.711,3.26-0.711,3.26H194.91z M196.488,14.412h2.894l0.313-1.479h-2.15c-0.92,0-1.362,0.188-1.502,0.644
			c-0.054,0.175-0.082,0.269-0.1,0.415C195.911,14.226,195.97,14.412,196.488,14.412"/>
		<path fill="#090909" d="M206.883,15.563c-2.514,0-2.761-1.258-2.532-2.331c0.074-0.354,0.116-0.494,0.298-1.115
			c0.459-1.617,1.497-2.198,3.93-2.198h5.339l-0.241,1.091h-4.032c-1.385,0-1.901,0.66-2.063,1.162
			c-0.137,0.427-0.206,0.722-0.244,0.987c-0.107,0.788,0.205,1.275,1.275,1.275h4.368l-0.258,1.129H206.883z"/>
		<polygon fill="#090909" points="216.37,7.347 219.348,7.347 219.041,8.812 216.064,8.812 		"/>
		<polygon fill="#090909" points="217.598,15.555 218.798,9.915 215.881,9.915 214.688,15.555 		"/>
		<path fill="#090909" d="M229.359,12.28c-0.23,1.083-0.71,3.278-0.71,3.278h-2.893c0,0,0.409-1.805,0.597-2.727
			c0.272-1.332,0.064-1.666-1.603-1.666h-1.105l-0.931,4.393h-2.927l1.193-5.626h5.194C228.5,9.931,229.755,10.392,229.359,12.28"/>
		<path fill="#090909" d="M230.033,18.698l0.836-1.475h2.417c2.673,0,3.014-1.562,3.014-1.562h-4.069
			c-0.989,0-1.817-0.318-1.592-1.684c0.1-0.603,0.182-1.084,0.436-1.88c0.426-1.299,1.847-2.178,4.501-2.178
			c2.829,0,4.823,0.019,4.823,0.019s-0.54,3.13-1.103,5.272c-0.729,2.744-2.511,3.488-5.913,3.488H230.033z M236.52,14.444
			l0.701-3.293c0,0-0.546,0.007-0.974,0.016c-1.141,0.025-2.201,0.318-2.526,1.493c-0.121,0.425-0.172,0.69-0.214,0.999
			c-0.067,0.496,0.338,0.785,1.095,0.785H236.52z"/>
		<path fill="#FF0000" d="M193.255,9.412c-0.126,0.64-0.255,1.011-0.47,1.434c-0.396,0.793-1.193,1.224-2.32,1.372
			c-0.44,0.058-1.033,0.041-1.033,0.041l2.354,3.34h-3.489l-3.263-4.65c0,0,2.847-0.008,3.135-0.008
			c0.687,0,1.582-0.198,1.833-0.668c0.077-0.139,0.186-0.384,0.186-0.638c0.011-0.312-0.302-0.578-0.82-0.578
			c-0.527,0-5.116-0.004-5.116-0.004l-1.623,6.455h-3.297l2.064-8.041h9.459C192.626,7.468,193.451,8.354,193.255,9.412"/>
	</g>
	<g>
		<path fill="#090909" d="M137.429,8.928h-4.476c-1.358,0-3.039,0.272-4.122,1.877c-0.683,1.001-2.597,4.754-2.597,4.754h3.167
			l0.963-1.86h4.136l0.039,1.86h3.034L137.429,8.928 M130.973,12.529c0,0,0.54-1.089,0.858-1.52
			c0.572-0.768,1.266-0.905,1.948-0.913c0.424-0.006,0.639-0.006,0.639-0.006l0.06,2.438H130.973z"/>
		<path fill="#090909" d="M149.909,15.559l0.218-1.165h-5.957c0,0,5.769-3.905,6.507-4.349c0.063-0.307,0.179-0.902,0.228-1.133
			h-10.69l-0.155,1.133h5.931l-6.621,4.349l-0.207,1.165H149.909z"/>
		<path fill="#090909" d="M160.472,8.918c-1.468-0.082-3.339-0.073-4.499,0c-1.98,0.127-3.282,0.571-3.796,2.269
			c-0.204,0.663-0.445,1.699-0.558,2.417c-0.262,1.561,0.611,1.893,1.661,1.958c1.592,0.092,3.951,0.108,5.574,0.044
			c1.537-0.057,2.77-0.511,3.244-1.978c0.259-0.796,0.425-1.464,0.587-2.434C162.877,10.06,162.327,9.025,160.472,8.918
			 M157.563,14.387c-0.593,0.045-1.403,0.043-1.863,0.008c-0.401-0.037-1.094-0.139-1.011-0.921
			c0.057-0.534,0.361-1.857,0.567-2.444c0.216-0.636,0.725-0.897,1.471-0.933c0.546-0.029,1.215-0.032,1.668-0.003
			c0.995,0.058,1.369,0.416,1.218,1.195c-0.173,0.876-0.317,1.446-0.554,2.094C158.805,14.087,158.185,14.342,157.563,14.387"/>
		<path fill="#090909" d="M172.572,8.918c-1.468-0.082-3.341-0.073-4.506,0c-1.974,0.127-3.278,0.571-3.794,2.269
			c-0.202,0.663-0.44,1.699-0.557,2.417c-0.258,1.561,0.615,1.893,1.668,1.958c1.581,0.092,3.945,0.108,5.568,0.044
			c1.537-0.057,2.775-0.511,3.247-1.978c0.26-0.796,0.422-1.464,0.584-2.434C174.976,10.06,174.424,9.025,172.572,8.918
			 M169.662,14.387c-0.593,0.045-1.403,0.043-1.872,0.008c-0.395-0.037-1.083-0.139-1.004-0.921
			c0.055-0.534,0.358-1.857,0.565-2.444c0.228-0.636,0.725-0.897,1.478-0.933c0.537-0.029,1.211-0.032,1.665-0.003
			c0.992,0.058,1.369,0.416,1.217,1.195c-0.175,0.876-0.312,1.446-0.55,2.094C170.9,14.087,170.284,14.342,169.662,14.387"/>
		<path fill="#090909" d="M125.886,10.817l-5.449,0.004l-0.515,1.53h2.707l-0.441,1.478h-4.366c-0.952,0-1.353-0.23-1.261-0.901
			c0.111-0.76,0.397-1.404,0.655-2.105c0.528-1.422,1.285-1.785,4.444-1.785c1.67,0,4.724,0.004,4.724,0.004l0.503-1.607h-5.683
			c-4.624,0-6.21,0.542-7.094,2.803c-0.3,0.77-0.749,2.187-0.949,3.356c-0.234,1.374,0.829,1.912,1.961,1.95
			c1.561,0.056,9.43,0.027,9.43,0.027L125.886,10.817z"/>
	</g>
</g>
</svg>
