<?xml version="1.0" encoding="UTF-8" standalone="no"?>
<!-- Created with Inkscape (http://www.inkscape.org/) -->
<svg
   xmlns:dc="http://purl.org/dc/elements/1.1/"
   xmlns:cc="http://creativecommons.org/ns#"
   xmlns:rdf="http://www.w3.org/1999/02/22-rdf-syntax-ns#"
   xmlns:svg="http://www.w3.org/2000/svg"
   xmlns="http://www.w3.org/2000/svg"
   xmlns:xlink="http://www.w3.org/1999/xlink"
   xmlns:sodipodi="http://sodipodi.sourceforge.net/DTD/sodipodi-0.dtd"
   xmlns:inkscape="http://www.inkscape.org/namespaces/inkscape"
   width="1254.986"
   height="672.37732"
   id="svg2383"
   sodipodi:version="0.32"
   inkscape:version="0.46"
   sodipodi:docname="Daytona International Speedway.svg"
   inkscape:output_extension="org.inkscape.output.svg.inkscape"
   version="1.0"
   inkscape:export-filename="D:\Images\Race Tracks\Daytona International Speedway.png"
   inkscape:export-xdpi="200"
   inkscape:export-ydpi="200">
  <defs
     id="defs2385">
    <pattern
       patternUnits="userSpaceOnUse"
       width="18.181098"
       height="18.137641"
       patternTransform="matrix(0.1737876,0,0,0.1737876,763.47719,1693.9071)"
       id="pattern4912">
      <g
         id="g4907"
         transform="translate(-1025.5348,-1215.2814)">
        <rect
           style="opacity:1;fill:#000000;fill-opacity:1;stroke:none;stroke-width:0.5;stroke-linecap:round;stroke-linejoin:round;stroke-miterlimit:4;stroke-dasharray:none;stroke-dashoffset:0;stroke-opacity:1"
           id="rect4899"
           width="18.172573"
           height="18.095789"
           x="1025.5348"
           y="1215.2814" />
        <rect
           style="opacity:1;fill:#ffffff;fill-opacity:1;stroke:none;stroke-width:0.5;stroke-linecap:round;stroke-linejoin:round;stroke-miterlimit:4;stroke-dasharray:none;stroke-dashoffset:0;stroke-opacity:1"
           id="rect4903"
           width="9.0746527"
           height="9.0746527"
           x="1025.5348"
           y="1215.2814" />
        <rect
           style="opacity:1;fill:#ffffff;fill-opacity:1;stroke:none;stroke-width:0.5;stroke-linecap:round;stroke-linejoin:round;stroke-miterlimit:4;stroke-dasharray:none;stroke-dashoffset:0;stroke-opacity:1"
           id="rect4905"
           width="9.0746527"
           height="9.0746527"
           x="1034.6412"
           y="1224.3444" />
      </g>
    </pattern>
    <pattern
       inkscape:collect="always"
       xlink:href="#pattern4912"
       id="pattern4166"
       patternTransform="matrix(0.4562459,0,0,0.4562459,-1346.318,-1561.9598)" />
    <inkscape:perspective
       sodipodi:type="inkscape:persp3d"
       inkscape:vp_x="0 : 526.18109 : 1"
       inkscape:vp_y="0 : 1000 : 0"
       inkscape:vp_z="744.09448 : 526.18109 : 1"
       inkscape:persp3d-origin="372.04724 : 350.78739 : 1"
       id="perspective2391" />
    <inkscape:perspective
       id="perspective2457"
       inkscape:persp3d-origin="372.04724 : 350.78739 : 1"
       inkscape:vp_z="744.09448 : 526.18109 : 1"
       inkscape:vp_y="0 : 1000 : 0"
       inkscape:vp_x="0 : 526.18109 : 1"
       sodipodi:type="inkscape:persp3d" />
  </defs>
  <sodipodi:namedview
     id="base"
     pagecolor="#ffffff"
     bordercolor="#ffffff"
     borderopacity="0.0"
     inkscape:pageopacity="0.0"
     inkscape:pageshadow="0"
     inkscape:zoom="1.2269897"
     inkscape:cx="613.23042"
     inkscape:cy="336.18865"
     inkscape:document-units="px"
     inkscape:current-layer="layer1"
     showgrid="false"
     inkscape:window-width="1677"
     inkscape:window-height="1031"
     inkscape:window-x="1276"
     inkscape:window-y="-4" />
  <metadata
     id="metadata2388">
    <rdf:RDF>
      <cc:Work
         rdf:about="">
        <dc:format>image/svg+xml</dc:format>
        <dc:type
           rdf:resource="http://purl.org/dc/dcmitype/StillImage" />
        <cc:license
           rdf:resource="http://creativecommons.org/licenses/publicdomain/" />
        <dc:title>Track Map of Daytona International Speedway</dc:title>
        <dc:date>7-5-2008</dc:date>
        <dc:creator>
          <cc:Agent>
            <dc:title>Will Pittenger</dc:title>
          </cc:Agent>
        </dc:creator>
        <dc:rights>
          <cc:Agent>
            <dc:title />
          </cc:Agent>
        </dc:rights>
        <dc:publisher>
          <cc:Agent>
            <dc:title>Will Pittenger</dc:title>
          </cc:Agent>
        </dc:publisher>
        <dc:subject>
          <rdf:Bag>
            <rdf:li>Racing</rdf:li>
            <rdf:li>Rolex</rdf:li>
            <rdf:li />
            <rdf:li>Speedway</rdf:li>
            <rdf:li>NASCAR</rdf:li>
          </rdf:Bag>
        </dc:subject>
        <dc:description>Created with Inkscape based on data from Google Earth</dc:description>
      </cc:Work>
      <cc:License
         rdf:about="http://creativecommons.org/licenses/publicdomain/">
        <cc:permits
           rdf:resource="http://creativecommons.org/ns#Reproduction" />
        <cc:permits
           rdf:resource="http://creativecommons.org/ns#Distribution" />
        <cc:permits
           rdf:resource="http://creativecommons.org/ns#DerivativeWorks" />
      </cc:License>
    </rdf:RDF>
  </metadata>
  <g
     inkscape:label="Layer 1"
     inkscape:groupmode="layer"
     id="layer1"
     transform="translate(-586.22587,-976.27039)">
    <path
       style="fill:#000000;fill-opacity:1;fill-rule:evenodd;stroke:#ffffff;stroke-width:0.75;stroke-linecap:round;stroke-linejoin:round;stroke-miterlimit:4;stroke-dasharray:none;stroke-opacity:1"
       d="M 1573.59,977.08459 C 1571.8293,977.06685 1570.0593,977.07234 1568.3079,977.06739 C 1337.0995,976.41387 1105.828,976.48384 874.614,977.52786 C 854.70311,977.61774 834.6209,978.23703 814.69483,980.48867 C 796.94754,982.49409 778.28098,984.46685 760.75426,990.48282 C 738.1396,998.24551 716.12872,1009.1542 695.68547,1021.3417 C 679.61338,1030.9233 663.03938,1042.0515 650.31217,1056.4902 C 634.12429,1074.8545 620.30565,1096.5944 609.80936,1118.6843 C 600.32542,1138.6436 594.39178,1160.7346 590.56407,1182.2316 C 587.00994,1202.1923 585.44386,1223.3753 587.55325,1243.7132 C 589.74299,1264.8259 596.03709,1285.8186 603.29157,1305.4324 C 609.92452,1323.3657 618.41214,1341.4711 629.58338,1357.2773 C 641.10999,1373.5863 654.81028,1390.1314 671.65428,1401.9521 C 699.37236,1421.4044 730.65558,1436.9164 761.81501,1450.2941 C 872.58927,1497.8526 984.71834,1552.4323 1101.4422,1584.6763 C 1142.1595,1595.924 1171.3691,1601.9722 1213.1687,1598.8699 C 1228.2471,1597.7509 1247.5547,1598.4866 1263.6035,1596.5538 C 1285.9444,1593.8635 1308.2624,1588.9661 1329.8462,1582.7234 C 1357.2503,1574.7973 1383.9126,1564.4723 1410.2758,1554.1878 C 1503.8273,1517.6921 1598.0053,1481.8768 1690.2537,1442.1377 C 1710.0939,1433.5908 1729.429,1422.5986 1746.3638,1409.2153 C 1764.2697,1395.0644 1780.1063,1377.6778 1794.1564,1360.0833 C 1803.0927,1348.8925 1808.9851,1335.7905 1814.7404,1323.57 C 1822.0863,1307.9722 1829.7621,1291.789 1834.4589,1274.6922 C 1838.5118,1259.9394 1840.1286,1244.3892 1840.569,1229.3418 C 1841.1257,1210.3326 1841.1167,1190.4935 1837.5044,1171.3896 C 1834.1162,1153.4712 1827.4142,1135.9531 1819.7739,1119.6934 C 1811.4753,1102.0328 1801.6765,1084.1737 1789.2751,1068.7289 C 1777.1441,1053.6209 1762.5461,1039.4208 1746.3937,1028.4131 C 1726.2793,1014.7052 1703.7639,1002.9982 1680.774,994.74612 C 1658.1394,986.62164 1633.9599,983.3072 1610.825,979.67978 C 1598.4304,977.73639 1585.9149,977.20882 1573.59,977.08459 z M 1578.6601,987.19332 C 1589.02,987.40943 1599.2989,987.99167 1609.2734,989.55562 C 1632.532,993.2024 1656.1198,996.5011 1677.4195,1004.1465 C 1699.5257,1012.0814 1721.3451,1023.4263 1740.7816,1036.6721 C 1755.9368,1047.0003 1769.8927,1060.5667 1781.4854,1075.0043 C 1793.1399,1089.5189 1802.6354,1106.6835 1810.7451,1123.9421 C 1818.1616,1139.7255 1824.5199,1156.5237 1827.682,1173.2463 C 1831.0583,1191.1019 1831.123,1210.2762 1830.5725,1229.0693 C 1830.1473,1243.594 1828.5504,1258.376 1824.7934,1272.0511 C 1820.4077,1288.0157 1813.0492,1303.7177 1805.7027,1319.3169 C 1799.9079,1331.621 1794.2284,1343.987 1786.348,1353.8554 C 1772.5824,1371.0938 1757.2108,1387.9086 1740.1836,1401.365 C 1724.0642,1414.104 1705.4305,1424.7128 1686.2893,1432.9587 C 1623.5183,1459.9994 1559.7743,1485.2218 1495.8763,1510.1323 C 1470.0804,1519.8684 1444.4293,1529.922 1417.6877,1531.6823 C 1285.9873,1540.3517 1151.6723,1532.4673 1018.6277,1531.8314 C 1011.1996,1531.7959 1003.6299,1531.7615 996.73053,1529.6834 C 955.07773,1517.1385 913.98173,1501.9439 872.57992,1487.9414 C 836.83743,1472.2928 801.25907,1456.3663 765.75848,1441.125 C 734.94712,1427.8967 704.28752,1412.645 677.42074,1393.7902 C 662.09827,1383.0371 648.93923,1367.359 637.73758,1351.5098 C 627.2693,1336.6982 619.10726,1319.3529 612.67882,1301.9725 C 605.57992,1282.7796 599.57078,1262.5327 597.51416,1242.7034 C 595.53047,1223.5778 596.97824,1203.2137 600.40473,1183.97 C 604.12524,1163.0749 609.89653,1141.8041 618.84636,1122.9689 C 628.97255,1101.6579 642.33524,1080.6612 657.79962,1063.1176 C 669.35439,1050.0092 685.06133,1039.2949 700.78767,1029.9195 C 720.76636,1018.009 742.24281,1007.4365 764.02467,999.9599 C 780.10845,994.43912 798.01859,992.46068 815.79831,990.45155 C 835.1816,988.26123 854.92137,987.61998 874.65389,987.5309 C 1105.8401,986.48702 1337.0979,986.41566 1568.2854,987.06913 C 1571.7504,987.07892 1575.2068,987.12129 1578.6601,987.19332 z M 895.15988,1497.7617 C 928.73057,1509.4003 962.23784,1521.3931 996.15865,1531.6094 C 1003.4383,1533.8018 1011.1945,1533.796 1018.6169,1533.8316 C 1151.5891,1534.4673 1285.9653,1542.3351 1417.8337,1533.6545 C 1428.6829,1532.9404 1439.329,1530.8919 1449.833,1528.0754 C 1435.4385,1533.6674 1421.0413,1539.2488 1406.6585,1544.8598 C 1380.3083,1555.1393 1353.9133,1565.3704 1327.0783,1573.1319 C 1305.9241,1579.2504 1284.1018,1584.0076 1262.4057,1586.6202 C 1247.6433,1588.3979 1228.4335,1587.6968 1212.4409,1588.8837 C 1171.9194,1591.891 1144.5434,1586.2111 1104.114,1575.0428 C 1033.2883,1555.4778 963.87231,1527.482 895.15988,1497.7617 z"
       id="path2463" />
    <g
       id="g3291"
       transform="matrix(0.9997794,2.1004779e-2,-2.1004779e-2,0.9997794,52.011395,-13.225276)">
      <path
         transform="matrix(0.7948846,0,0,0.7948846,1179.3185,467.46007)"
         d="M 711.76781,1080.1322 A 18.370956,18.370956 0 1 1 675.02589,1080.1322 A 18.370956,18.370956 0 1 1 711.76781,1080.1322 z"
         sodipodi:ry="18.370956"
         sodipodi:rx="18.370956"
         sodipodi:cy="1080.1322"
         sodipodi:cx="693.39685"
         id="path3289"
         style="opacity:1;fill:#ffffff;fill-opacity:1;fill-rule:nonzero;stroke:#151515;stroke-width:0.75;stroke-linecap:round;stroke-linejoin:round;stroke-miterlimit:4;stroke-dasharray:none;stroke-dashoffset:0;stroke-opacity:1"
         sodipodi:type="arc" />
      <text
         id="text3246"
         y="1336.853"
         x="1722.5671"
         style="font-size:32px;font-style:normal;font-weight:normal;fill:#000000;fill-opacity:1;stroke:none;stroke-width:1px;stroke-linecap:butt;stroke-linejoin:miter;stroke-opacity:1;font-family:Times New Roman"
         xml:space="preserve"><tspan
           y="1336.853"
           x="1722.5671"
           id="tspan3248"
           sodipodi:role="line">1</tspan></text>
    </g>
    <g
       id="g3298"
       transform="matrix(0.9997794,2.1004779e-2,-2.1004779e-2,0.9997794,27.488642,-25.174546)">
      <path
         transform="matrix(0.7948846,0,0,0.7948846,1155.3709,183.30978)"
         d="M 711.76781,1080.1322 A 18.370956,18.370956 0 1 1 675.02589,1080.1322 A 18.370956,18.370956 0 1 1 711.76781,1080.1322 z"
         sodipodi:ry="18.370956"
         sodipodi:rx="18.370956"
         sodipodi:cy="1080.1322"
         sodipodi:cx="693.39685"
         id="path3296"
         style="opacity:1;fill:#ffffff;fill-opacity:1;fill-rule:nonzero;stroke:#151515;stroke-width:0.75;stroke-linecap:round;stroke-linejoin:round;stroke-miterlimit:4;stroke-dasharray:none;stroke-dashoffset:0;stroke-opacity:1"
         sodipodi:type="arc" />
      <text
         id="text3250"
         y="1052.7028"
         x="1698.8617"
         style="font-size:32px;font-style:normal;font-weight:normal;fill:#000000;fill-opacity:1;stroke:none;stroke-width:1px;stroke-linecap:butt;stroke-linejoin:miter;stroke-opacity:1;font-family:Times New Roman"
         xml:space="preserve"><tspan
           y="1052.7028"
           x="1698.8617"
           id="tspan3252"
           sodipodi:role="line">2</tspan></text>
    </g>
    <g
       id="g3264"
       transform="matrix(0.9997794,2.1004779e-2,-2.1004779e-2,0.9997794,27.488642,-25.174546)">
      <path
         transform="matrix(0.7948846,0,0,0.7948846,138.38128,217.70665)"
         d="M 711.76781,1080.1322 A 18.370956,18.370956 0 1 1 675.02589,1080.1322 A 18.370956,18.370956 0 1 1 711.76781,1080.1322 z"
         sodipodi:ry="18.370956"
         sodipodi:rx="18.370956"
         sodipodi:cy="1080.1322"
         sodipodi:cx="693.39685"
         id="path3262"
         style="opacity:1;fill:#ffffff;fill-opacity:1;fill-rule:nonzero;stroke:#151515;stroke-width:0.75;stroke-linecap:round;stroke-linejoin:round;stroke-miterlimit:4;stroke-dasharray:none;stroke-dashoffset:0;stroke-opacity:1"
         sodipodi:type="arc" />
      <text
         id="text3254"
         y="1086.9121"
         x="682.23145"
         style="font-size:32px;font-style:normal;font-weight:normal;fill:#000000;fill-opacity:1;stroke:none;stroke-width:1px;stroke-linecap:butt;stroke-linejoin:miter;stroke-opacity:1;font-family:Times New Roman"
         xml:space="preserve"><tspan
           y="1086.9121"
           x="682.23145"
           id="tspan3256"
           sodipodi:role="line">3</tspan></text>
    </g>
    <g
       id="g3284"
       transform="matrix(0.9997794,2.1004779e-2,-2.1004779e-2,0.9997794,28.773176,4.3904348)">
      <path
         transform="matrix(0.7948846,0,0,0.7948846,106.83015,452.07973)"
         d="M 711.76781,1080.1322 A 18.370956,18.370956 0 1 1 675.02589,1080.1322 A 18.370956,18.370956 0 1 1 711.76781,1080.1322 z"
         sodipodi:ry="18.370956"
         sodipodi:rx="18.370956"
         sodipodi:cy="1080.1322"
         sodipodi:cx="693.39685"
         id="path3282"
         style="opacity:1;fill:#ffffff;fill-opacity:1;fill-rule:nonzero;stroke:#151515;stroke-width:0.75;stroke-linecap:round;stroke-linejoin:round;stroke-miterlimit:4;stroke-dasharray:none;stroke-dashoffset:0;stroke-opacity:1"
         sodipodi:type="arc" />
      <text
         id="text3258"
         y="1321.4727"
         x="650.3053"
         style="font-size:32px;font-style:normal;font-weight:normal;fill:#000000;fill-opacity:1;stroke:none;stroke-width:1px;stroke-linecap:butt;stroke-linejoin:miter;stroke-opacity:1;font-family:Times New Roman"
         xml:space="preserve"><tspan
           y="1321.4727"
           x="650.3053"
           id="tspan3260"
           sodipodi:role="line">4</tspan></text>
    </g>
    <text
       xml:space="preserve"
       style="font-size:32px;font-style:normal;font-variant:normal;font-weight:bold;font-stretch:normal;text-align:start;line-height:125%;writing-mode:lr-tb;text-anchor:start;fill:#000000;fill-opacity:1;stroke:#ffffff;stroke-width:0.75;stroke-linecap:butt;stroke-linejoin:miter;stroke-miterlimit:4;stroke-dasharray:none;stroke-opacity:1;font-family:Times New Roman;-inkscape-font-specification:Times New Roman Bold"
       x="1056.4648"
       y="1024.736"
       id="text3303"
       sodipodi:linespacing="125%"><tspan
         sodipodi:role="line"
         x="1056.4648"
         y="1024.736"
         id="tspan3307">&quot;Back stretch&quot;</tspan></text>
    <path
       transform="translate(-14.288266,25.401362)"
       style="font-size:32px;font-style:normal;font-variant:normal;font-weight:bold;font-stretch:normal;text-align:start;line-height:125%;writing-mode:lr-tb;text-anchor:start;fill:#000000;fill-opacity:1;stroke:#ffffff;stroke-width:0.75;stroke-linecap:butt;stroke-linejoin:miter;stroke-miterlimit:4;stroke-opacity:1;font-family:Times New Roman;-inkscape-font-specification:Times New Roman Bold"
       d="M 1136.8858,1608.6514 L 1136.1222,1608.5953 L 1134.9419,1602.4769 C 1134.7913,1601.6825 1134.7378,1600.9892 1134.7813,1600.397 C 1134.8285,1599.7529 1135.0947,1599.2215 1135.5798,1598.8028 C 1136.0649,1598.384 1136.6243,1598.1979 1137.258,1598.2444 C 1137.9852,1598.2978 1138.534,1598.5757 1138.9045,1599.0781 C 1139.275,1599.5806 1139.44,1600.1071 1139.3996,1600.6577 C 1139.3652,1601.1252 1139.1876,1601.8381 1138.8666,1602.7963 L 1136.8858,1608.6514 z M 1144.4124,1609.2038 L 1143.6332,1609.1466 L 1142.4986,1603.0472 C 1142.3163,1602.1147 1142.2435,1601.3991 1142.2801,1600.9005 C 1142.3244,1600.2979 1142.5944,1599.7851 1143.0903,1599.3619 C 1143.5861,1598.9387 1144.1561,1598.7508 1144.8002,1598.798 C 1145.5378,1598.8522 1146.0834,1599.1377 1146.4372,1599.6546 C 1146.7909,1600.1714 1146.9491,1600.6844 1146.9118,1601.1934 C 1146.885,1601.5571 1146.697,1602.2692 1146.3476,1603.3297 L 1144.4124,1609.2038 z M 1158.1318,1601.3035 L 1157.6866,1609.9953 L 1158.2952,1610.0264 C 1159.2314,1610.0744 1160.0032,1609.9731 1160.6106,1609.7226 C 1161.218,1609.4721 1161.7441,1609.0245 1162.1892,1608.3797 C 1162.6342,1607.735 1162.9482,1606.8488 1163.1311,1605.7213 L 1163.6772,1605.7493 L 1163.1329,1616.376 L 1162.5868,1616.348 C 1162.492,1614.3301 1162.0214,1612.9787 1161.1751,1612.2939 C 1160.3288,1611.6091 1159.3491,1611.2382 1158.236,1611.1812 L 1157.6274,1611.15 L 1157.2957,1617.6259 C 1157.2403,1618.7078 1157.2655,1619.3871 1157.3713,1619.6637 C 1157.4771,1619.9403 1157.699,1620.1889 1158.0371,1620.4096 C 1158.3752,1620.6303 1158.8408,1620.7559 1159.4338,1620.7863 L 1160.136,1620.8222 L 1160.1064,1621.3996 L 1149.0428,1620.8329 L 1149.0723,1620.2555 L 1149.7745,1620.2915 C 1150.3883,1620.3229 1150.8881,1620.239 1151.2738,1620.0397 C 1151.5517,1619.908 1151.7725,1619.6689 1151.9363,1619.3227 C 1152.0635,1619.0789 1152.1543,1618.4264 1152.2087,1617.3653 L 1152.9216,1603.4461 C 1152.977,1602.3642 1152.9544,1601.685 1152.8539,1601.4087 C 1152.7533,1601.1324 1152.5339,1600.8838 1152.1958,1600.6631 C 1151.8577,1600.4424 1151.3922,1600.3169 1150.7992,1600.2865 L 1150.097,1600.2505 L 1150.1266,1599.6731 L 1167.9782,1600.5875 L 1167.6673,1606.6577 L 1167.0275,1606.6249 C 1166.9548,1605.1923 1166.637,1604.1173 1166.074,1603.4 C 1165.511,1602.6828 1164.6697,1602.1547 1163.5502,1601.8157 C 1162.934,1601.6277 1161.7832,1601.4906 1160.098,1601.4042 L 1158.1318,1601.3035 z M 1175.4613,1607.3926 L 1175.357,1610.7035 C 1176.3728,1609.2244 1177.2529,1608.249 1177.9973,1607.7774 C 1178.7417,1607.3058 1179.4523,1607.0807 1180.129,1607.102 C 1180.7121,1607.1204 1181.1723,1607.3147 1181.5098,1607.6848 C 1181.8473,1608.055 1182.0056,1608.5681 1181.985,1609.224 C 1181.963,1609.9216 1181.7768,1610.4577 1181.4263,1610.8322 C 1181.0757,1611.2068 1180.661,1611.3865 1180.1821,1611.3714 C 1179.6303,1611.354 1179.1569,1611.162 1178.762,1610.7952 C 1178.3671,1610.4284 1178.1339,1610.223 1178.0623,1610.1791 C 1177.9602,1610.1133 1177.8414,1610.0783 1177.7061,1610.074 C 1177.4042,1610.0645 1177.1142,1610.1701 1176.8363,1610.3906 C 1176.3983,1610.7311 1176.0596,1611.2259 1175.8203,1611.8749 C 1175.4553,1612.8744 1175.2536,1613.9831 1175.2153,1615.2013 L 1175.1095,1618.559 L 1175.0975,1619.434 C 1175.0788,1620.0275 1175.1033,1620.4087 1175.1709,1620.5775 C 1175.287,1620.8626 1175.4653,1621.074 1175.7059,1621.2119 C 1175.9465,1621.3497 1176.3578,1621.4435 1176.9399,1621.4931 L 1176.9221,1622.0553 L 1169.0354,1621.8068 L 1169.0531,1621.2446 C 1169.6899,1621.2125 1170.1249,1621.0517 1170.3581,1620.762 C 1170.5912,1620.4723 1170.7279,1619.6924 1170.7679,1618.4222 L 1171.0223,1610.3481 C 1171.0485,1609.5152 1171.0236,1608.9829 1170.9475,1608.7512 C 1170.8526,1608.4564 1170.7084,1608.2382 1170.5148,1608.0966 C 1170.3213,1607.955 1169.9754,1607.8503 1169.4773,1607.7825 L 1169.4955,1607.2047 L 1175.4613,1607.3926 z M 1190.2241,1607.2913 C 1191.4948,1607.3092 1192.6723,1607.654 1193.7567,1608.3256 C 1194.8411,1608.9972 1195.6586,1609.9411 1196.2092,1611.1574 C 1196.7598,1612.3736 1197.0249,1613.7004 1197.0047,1615.1377 C 1196.9754,1617.2104 1196.4249,1618.9372 1195.3533,1620.3181 C 1194.0588,1621.9875 1192.2918,1622.8064 1190.0525,1622.7748 C 1187.8548,1622.7438 1186.1731,1621.9491 1185.0075,1620.3909 C 1183.8418,1618.8326 1183.2734,1617.038 1183.302,1615.0069 C 1183.3316,1612.9134 1183.964,1611.0966 1185.1994,1609.5566 C 1186.4348,1608.0166 1188.1097,1607.2615 1190.2241,1607.2913 L 1190.2241,1607.2913 z M 1190.2709,1608.4014 C 1189.7397,1608.394 1189.2812,1608.588 1188.8954,1608.9836 C 1188.5095,1609.3793 1188.2484,1610.1674 1188.1119,1611.3478 C 1187.9755,1612.5283 1187.8924,1614.1705 1187.8627,1616.2745 C 1187.847,1617.389 1187.9052,1618.4316 1188.0374,1619.4023 C 1188.1415,1620.1434 1188.3783,1620.7093 1188.7479,1621.1 C 1189.1174,1621.4906 1189.5417,1621.6893 1190.0208,1621.6961 C 1190.4895,1621.7027 1190.8819,1621.578 1191.1981,1621.3221 C 1191.6093,1620.9737 1191.8871,1620.4827 1192.0314,1619.8493 C 1192.2537,1618.8627 1192.3861,1616.8644 1192.4286,1613.8543 C 1192.4535,1612.0836 1192.3717,1610.8662 1192.1832,1610.202 C 1191.9946,1609.5379 1191.7098,1609.052 1191.3287,1608.7445 C 1191.0609,1608.522 1190.7083,1608.4076 1190.2709,1608.4014 L 1190.2709,1608.4014 z M 1205.0143,1607.8126 L 1205.0242,1609.7032 C 1205.7699,1608.8868 1206.4856,1608.2919 1207.1711,1607.9185 C 1207.8567,1607.5452 1208.5953,1607.3564 1209.387,1607.3523 C 1210.3349,1607.3473 1211.1227,1607.6063 1211.7504,1608.129 C 1212.3781,1608.6518 1212.7982,1609.3033 1213.0106,1610.0834 C 1213.1804,1610.6763 1213.2696,1611.8165 1213.2785,1613.5039 L 1213.3081,1619.1914 C 1213.314,1620.3163 1213.4192,1621.0163 1213.6238,1621.2913 C 1213.8283,1621.5663 1214.2537,1621.7385 1214.8999,1621.8081 L 1214.9028,1622.3706 L 1207.5123,1622.4091 L 1207.5094,1621.8466 C 1208.0611,1621.7708 1208.4557,1621.5396 1208.6933,1621.1529 C 1208.8586,1620.8917 1208.9385,1620.2454 1208.9332,1619.2142 L 1208.8993,1612.7143 C 1208.893,1611.5164 1208.8422,1610.7614 1208.7468,1610.4494 C 1208.6515,1610.1374 1208.4913,1609.896 1208.2665,1609.7253 C 1208.0416,1609.5546 1207.7938,1609.47 1207.523,1609.4714 C 1206.6272,1609.4761 1205.7972,1610.121 1205.033,1611.4063 L 1205.0739,1619.2343 C 1205.0796,1620.328 1205.1847,1621.0202 1205.3894,1621.3108 C 1205.594,1621.6014 1205.9726,1621.7817 1206.525,1621.8518 L 1206.528,1622.4143 L 1199.1374,1622.4528 L 1199.1345,1621.8903 C 1199.7488,1621.8246 1200.1852,1621.6244 1200.4439,1621.2897 C 1200.6198,1621.0596 1200.7048,1620.3821 1200.6989,1619.2571 L 1200.6559,1611.0072 C 1200.6501,1609.9031 1200.545,1609.2161 1200.3405,1608.9463 C 1200.1359,1608.6766 1199.7105,1608.5017 1199.0643,1608.4217 L 1199.0613,1607.8436 L 1205.0143,1607.8126 z M 1222.3019,1602.2408 L 1222.4165,1607.5833 L 1225.8844,1607.5089 L 1225.9176,1609.0554 L 1222.4496,1609.1298 L 1222.6429,1618.1434 C 1222.661,1618.9869 1222.7117,1619.5302 1222.795,1619.7733 C 1222.8784,1620.0163 1223.0206,1620.2113 1223.2217,1620.358 C 1223.4228,1620.5048 1223.6067,1620.5764 1223.7733,1620.5728 C 1224.4503,1620.5583 1225.0797,1620.0291 1225.6616,1618.9851 L 1226.1376,1619.3187 C 1225.3369,1621.3363 1223.9889,1622.3655 1222.0935,1622.4061 C 1221.1666,1622.426 1220.3774,1622.185 1219.7259,1621.6833 C 1219.0744,1621.1815 1218.6533,1620.6149 1218.4626,1619.9834 C 1218.3509,1619.6315 1218.2783,1618.6745 1218.2448,1617.1124 L 1218.0756,1609.2236 L 1216.1698,1609.2644 L 1216.1581,1608.7177 C 1217.4504,1607.7627 1218.5465,1606.765 1219.4462,1605.7246 C 1220.346,1604.6843 1221.1261,1603.5267 1221.7864,1602.2518 L 1222.3019,1602.2408 z M 1244.1841,1606.4045 L 1244.6363,1611.3739 L 1244.1055,1611.3971 C 1243.406,1609.9472 1242.7036,1608.9665 1241.9983,1608.4552 C 1241.2929,1607.9439 1240.602,1607.7031 1239.9256,1607.7327 C 1239.4989,1607.7514 1239.141,1607.9104 1238.8517,1608.2098 C 1238.5624,1608.5092 1238.426,1608.8462 1238.4424,1609.2208 C 1238.4547,1609.5018 1238.5706,1609.7678 1238.7901,1610.0189 C 1239.1418,1610.431 1240.1052,1611.1213 1241.6804,1612.0898 C 1243.2555,1613.0583 1244.3008,1613.8936 1244.8164,1614.5956 C 1245.332,1615.2977 1245.6093,1616.0963 1245.6485,1616.9912 C 1245.6841,1617.8029 1245.516,1618.6079 1245.1443,1619.4062 C 1244.7726,1620.2045 1244.2264,1620.8279 1243.5058,1621.2765 C 1242.7851,1621.7252 1241.9773,1621.9691 1241.0823,1622.0082 C 1240.3851,1622.0388 1239.4441,1621.861 1238.2594,1621.4749 C 1237.9422,1621.3741 1237.7264,1621.3262 1237.6119,1621.3312 C 1237.2685,1621.3463 1236.9937,1621.619 1236.7875,1622.1493 L 1236.2724,1622.1719 L 1235.793,1616.9378 L 1236.3238,1616.9146 C 1236.8522,1618.2678 1237.5399,1619.2699 1238.3869,1619.921 C 1239.2339,1620.5721 1240.0216,1620.8817 1240.7501,1620.8498 C 1241.2496,1620.8279 1241.6514,1620.6565 1241.9553,1620.3356 C 1242.2593,1620.0147 1242.4017,1619.6358 1242.3826,1619.1987 C 1242.3607,1618.6992 1242.1857,1618.2741 1241.8576,1617.9235 C 1241.5294,1617.573 1240.808,1617.052 1239.6934,1616.3605 C 1238.0528,1615.3271 1236.9857,1614.5292 1236.4919,1613.9669 C 1235.7677,1613.1437 1235.383,1612.2169 1235.3379,1611.1866 C 1235.2887,1610.0627 1235.6318,1609.0285 1236.3673,1608.0839 C 1237.1027,1607.1394 1238.2041,1606.6351 1239.6714,1606.5708 C 1240.4623,1606.5362 1241.2357,1606.6952 1241.9914,1607.0479 C 1242.2792,1607.1917 1242.5116,1607.2597 1242.6885,1607.252 C 1242.8758,1607.2438 1243.025,1607.1982 1243.136,1607.1151 C 1243.2471,1607.032 1243.4195,1606.8029 1243.6534,1606.4278 L 1244.1841,1606.4045 z M 1252.6894,1600.9946 L 1252.9941,1606.3296 L 1256.4572,1606.1318 L 1256.5454,1607.6762 L 1253.0823,1607.874 L 1253.5964,1616.8749 C 1253.6445,1617.7173 1253.7146,1618.2585 1253.8065,1618.4984 C 1253.8985,1618.7383 1254.0476,1618.9281 1254.2538,1619.0676 C 1254.46,1619.2071 1254.6463,1619.2721 1254.8127,1619.2626 C 1255.4887,1619.224 1256.0988,1618.6726 1256.6432,1617.6086 L 1257.1308,1617.9251 C 1256.4025,1619.9699 1255.0919,1621.0464 1253.1992,1621.1545 C 1252.2736,1621.2074 1251.4763,1620.9947 1250.8074,1620.5165 C 1250.1384,1620.0382 1249.6974,1619.4869 1249.4843,1618.8626 C 1249.3601,1618.515 1249.2535,1617.5612 1249.1644,1616.0012 L 1248.7144,1608.1234 L 1246.8113,1608.2321 L 1246.7801,1607.6862 C 1248.0376,1606.6858 1249.0974,1605.6497 1249.9596,1604.5779 C 1250.8217,1603.5062 1251.5601,1602.3215 1252.1746,1601.024 L 1252.6894,1600.9946 z M 1263.7205,1605.6277 L 1263.9574,1608.9318 C 1264.8156,1607.356 1265.5907,1606.2952 1266.2826,1605.7495 C 1266.9745,1605.2039 1267.6582,1604.9068 1268.3335,1604.8584 C 1268.9154,1604.8167 1269.3932,1604.9626 1269.7669,1605.2961 C 1270.1407,1605.6296 1270.351,1606.1236 1270.398,1606.7782 C 1270.4479,1607.4743 1270.3178,1608.0267 1270.0077,1608.4354 C 1269.6975,1608.844 1269.3035,1609.0655 1268.8256,1609.0997 C 1268.2749,1609.1392 1267.7843,1608.9968 1267.3538,1608.6726 C 1266.9232,1608.3484 1266.6701,1608.1681 1266.5944,1608.1318 C 1266.486,1608.0769 1266.3643,1608.0543 1266.2292,1608.064 C 1265.9279,1608.0856 1265.6504,1608.2204 1265.3967,1608.4683 C 1264.996,1608.8521 1264.71,1609.3791 1264.5388,1610.0493 C 1264.2785,1611.081 1264.192,1612.2046 1264.2791,1613.4202 L 1264.5194,1616.771 L 1264.5975,1617.6427 C 1264.64,1618.2349 1264.7035,1618.6115 1264.7882,1618.7725 C 1264.933,1619.0441 1265.1321,1619.2361 1265.3856,1619.3485 C 1265.639,1619.4609 1266.0578,1619.5118 1266.6419,1619.5012 L 1266.6821,1620.0623 L 1258.8117,1620.6265 L 1258.7715,1620.0655 C 1259.4015,1619.9681 1259.8176,1619.7633 1260.0198,1619.4512 C 1260.222,1619.1391 1260.2776,1618.3492 1260.1867,1617.0816 L 1259.6091,1609.0242 C 1259.5495,1608.193 1259.47,1607.6661 1259.3704,1607.4435 C 1259.2457,1607.16 1259.0798,1606.9578 1258.8727,1606.8369 C 1258.6656,1606.716 1258.3108,1606.6474 1257.8084,1606.6312 L 1257.767,1606.0546 L 1263.7205,1605.6277 z M 1284.4993,1610.7102 L 1276.5151,1611.4188 C 1276.7797,1613.3405 1277.4287,1614.8202 1278.462,1615.8579 C 1279.2544,1616.6555 1280.1538,1617.0097 1281.1602,1616.9204 C 1281.7828,1616.8651 1282.3328,1616.6411 1282.8104,1616.2484 C 1283.288,1615.8557 1283.7772,1615.1822 1284.2782,1614.2279 L 1284.8377,1614.5234 C 1284.1919,1616.2016 1283.4214,1617.4177 1282.5262,1618.1717 C 1281.631,1618.9257 1280.5557,1619.3584 1279.3002,1619.4698 C 1277.142,1619.6613 1275.4341,1618.9763 1274.1766,1617.4147 C 1273.1655,1616.1554 1272.572,1614.5348 1272.3961,1612.553 C 1272.1806,1610.1251 1272.6654,1608.1344 1273.8504,1606.5808 C 1275.0354,1605.0273 1276.5098,1604.1722 1278.2737,1604.0156 C 1279.7471,1603.8849 1281.0796,1604.3758 1282.2711,1605.4883 C 1283.4627,1606.6009 1284.2054,1608.3415 1284.4993,1610.7102 L 1284.4993,1610.7102 z M 1280.5781,1610.0073 C 1280.4298,1608.3368 1280.2372,1607.1983 1280.0004,1606.5918 C 1279.7636,1605.9854 1279.4389,1605.5384 1279.0265,1605.2508 C 1278.792,1605.0834 1278.4932,1605.0158 1278.1301,1605.048 C 1277.5905,1605.0959 1277.173,1605.3996 1276.8776,1605.9592 C 1276.3474,1606.937 1276.1536,1608.23 1276.2964,1609.8382 L 1276.3447,1610.383 L 1280.5781,1610.0073 z M 1290.6914,1597.8716 L 1291.2458,1603.1865 L 1294.6959,1602.8266 L 1294.8564,1604.3651 L 1291.4063,1604.725 L 1292.3417,1613.692 C 1292.4293,1614.5312 1292.5246,1615.0684 1292.6277,1615.3038 C 1292.7308,1615.5392 1292.8886,1615.7217 1293.1011,1615.8514 C 1293.3136,1615.9811 1293.5028,1616.0373 1293.6686,1616.02 C 1294.342,1615.9497 1294.9256,1615.3704 1295.4196,1614.2821 L 1295.9214,1614.5753 C 1295.2897,1616.6521 1294.0311,1617.7888 1292.1455,1617.9855 C 1291.2234,1618.0817 1290.4171,1617.9066 1289.7264,1617.4602 C 1289.0357,1617.0138 1288.5694,1616.4838 1288.3273,1615.8702 C 1288.187,1615.5288 1288.0357,1614.581 1287.8736,1613.027 L 1287.0549,1605.1789 L 1285.159,1605.3767 L 1285.1022,1604.8328 C 1286.3115,1603.7745 1287.3216,1602.6899 1288.1326,1601.5789 C 1288.9436,1600.468 1289.6256,1599.25 1290.1786,1597.9251 L 1290.6914,1597.8716 z M 1309.0109,1612.039 L 1309.5367,1612.3531 C 1309.0092,1613.718 1308.2739,1614.7748 1307.3309,1615.5235 C 1306.3879,1616.2723 1305.3424,1616.7161 1304.1946,1616.8548 C 1302.2607,1617.0885 1300.6266,1616.5463 1299.2921,1615.2282 C 1297.9576,1613.91 1297.1666,1612.2272 1296.9191,1610.1796 C 1296.6804,1608.2044 1296.9978,1606.4033 1297.8714,1604.7763 C 1298.9247,1602.8128 1300.5682,1601.6961 1302.8019,1601.4261 C 1304.3014,1601.2448 1305.5389,1601.4782 1306.5143,1602.1263 C 1307.4897,1602.7743 1308.0337,1603.5637 1308.1462,1604.4944 C 1308.2174,1605.0839 1308.0959,1605.576 1307.7817,1605.9707 C 1307.4674,1606.3655 1307.0207,1606.5978 1306.4416,1606.6678 C 1305.8314,1606.7416 1305.3029,1606.6009 1304.856,1606.2457 C 1304.4091,1605.8905 1304.0766,1605.2014 1303.8586,1604.1785 C 1303.7178,1603.5345 1303.5128,1603.0976 1303.2437,1602.8678 C 1302.9746,1602.6381 1302.6798,1602.5425 1302.3592,1602.5813 C 1301.8628,1602.6413 1301.4707,1602.9562 1301.1828,1603.5261 C 1300.7413,1604.3874 1300.6199,1605.6402 1300.8187,1607.2845 C 1300.9837,1608.6496 1301.3586,1609.9289 1301.9436,1611.1225 C 1302.5285,1612.3162 1303.2353,1613.1725 1304.064,1613.6914 C 1304.6865,1614.0673 1305.3856,1614.2084 1306.1612,1614.1146 C 1306.6679,1614.0534 1307.1344,1613.8764 1307.5607,1613.5835 C 1307.987,1613.2907 1308.4704,1612.7758 1309.0109,1612.039 L 1309.0109,1612.039 z M 1314.5828,1593.6851 L 1315.7942,1602.051 C 1316.4671,1601.101 1317.1084,1600.4055 1317.7182,1599.9646 C 1318.328,1599.5237 1318.9885,1599.2518 1319.6999,1599.1488 C 1320.6071,1599.0174 1321.4201,1599.1628 1322.1391,1599.5849 C 1322.8581,1600.0071 1323.3736,1600.5508 1323.6857,1601.2161 C 1323.9978,1601.8813 1324.2733,1603.0387 1324.5122,1604.6881 L 1325.3295,1610.3324 C 1325.4892,1611.4355 1325.692,1612.1087 1325.9377,1612.352 C 1326.1835,1612.5953 1326.626,1612.7076 1327.2653,1612.6887 L 1327.3459,1613.2454 L 1320.0161,1614.3068 L 1319.9355,1613.7501 C 1320.4405,1613.6033 1320.7973,1613.3411 1321.0057,1612.9636 C 1321.1525,1612.6687 1321.1505,1612.0006 1320.9997,1610.9594 L 1320.0659,1604.511 C 1319.8927,1603.3152 1319.7377,1602.5719 1319.6009,1602.2812 C 1319.4641,1601.9906 1319.2725,1601.7762 1319.0262,1601.6382 C 1318.78,1601.5002 1318.5176,1601.4514 1318.2393,1601.4916 C 1317.8269,1601.5514 1317.4454,1601.7514 1317.0947,1602.0916 C 1316.744,1602.4318 1316.3934,1602.9904 1316.0428,1603.7674 L 1317.1647,1611.5148 C 1317.314,1612.5457 1317.4846,1613.1788 1317.6766,1613.4141 C 1317.9232,1613.7363 1318.3566,1613.8945 1318.9768,1613.8889 L 1319.0574,1614.4456 L 1311.7276,1615.5071 L 1311.647,1614.9504 C 1312.2463,1614.8004 1312.6509,1614.5419 1312.8608,1614.1746 C 1313.0033,1613.9225 1312.9946,1613.2448 1312.8349,1612.1418 L 1310.7075,1597.4512 C 1310.5493,1596.3585 1310.3502,1595.6927 1310.1104,1595.4537 C 1309.8705,1595.2148 1309.425,1595.1004 1308.7739,1595.1104 L 1308.6911,1594.5383 L 1314.5828,1593.6851 z M 1331.6964,1601.0764 L 1330.9429,1601.2125 L 1328.2746,1595.5814 C 1327.9308,1594.8497 1327.7061,1594.1916 1327.6005,1593.6073 C 1327.4858,1592.9718 1327.6111,1592.3908 1327.9764,1591.8643 C 1328.3418,1591.3379 1328.8372,1591.0182 1329.4625,1590.9052 C 1330.18,1590.7757 1330.7808,1590.908 1331.2648,1591.3022 C 1331.7488,1591.6964 1332.0399,1592.1651 1332.138,1592.7084 C 1332.2213,1593.1697 1332.227,1593.9044 1332.155,1594.9124 L 1331.6964,1601.0764 z M 1339.1231,1599.7351 L 1338.3543,1599.8739 L 1335.7349,1594.2499 C 1335.3259,1593.3923 1335.077,1592.7175 1334.9882,1592.2254 C 1334.8808,1591.6309 1335.0145,1591.0669 1335.3892,1590.5335 C 1335.7639,1590.0001 1336.269,1589.676 1336.9046,1589.5612 C 1337.6324,1589.4297 1338.232,1589.5702 1338.7034,1589.9825 C 1339.1748,1590.3949 1339.4559,1590.8523 1339.5466,1591.3545 C 1339.6114,1591.7133 1339.6068,1592.4498 1339.5328,1593.564 L 1339.1231,1599.7351 z"
       id="text3311" />
    <path
       style="fill:none;fill-rule:evenodd;stroke:none;stroke-width:1px;stroke-linecap:butt;stroke-linejoin:miter;stroke-opacity:1"
       d="M 1130.6254,1619.4406 C 1251.4225,1629.6013 1342.3424,1610.549 1342.3424,1610.549"
       id="path3315"
       sodipodi:nodetypes="cs" />
    <path
       sodipodi:type="star"
       style="opacity:1;fill:#ff0000;fill-opacity:1;stroke:#ffffff;stroke-width:1;stroke-linecap:round;stroke-linejoin:miter;stroke-miterlimit:4;stroke-dasharray:none;stroke-dashoffset:0;stroke-opacity:1"
       id="path3463"
       sodipodi:sides="3"
       sodipodi:cx="1683.6964"
       sodipodi:cy="1391.4535"
       sodipodi:r1="14.134234"
       sodipodi:r2="7.0671172"
       sodipodi:arg1="0.52359878"
       sodipodi:arg2="1.5707963"
       inkscape:flatsided="true"
       inkscape:rounded="0"
       inkscape:randomized="0"
       d="M 1695.937,1398.5206 L 1671.4558,1398.5206 L 1683.6964,1377.3193 L 1695.937,1398.5206 z"
       transform="matrix(1.312439e-2,0.5138332,-1.5573858,3.9778877e-2,3333.3941,689.57233)" />
    <rect
       style="opacity:1;fill:url(#pattern4166);fill-opacity:1;stroke:#000000;stroke-width:0.7640143;stroke-linecap:round;stroke-linejoin:round;stroke-miterlimit:4;stroke-dasharray:none;stroke-dashoffset:0;stroke-opacity:1;display:inline"
       id="rect3457"
       width="11.30081"
       height="45.983616"
       x="-1187.8818"
       y="-1640.5593"
       transform="matrix(-0.9997089,2.4127629e-2,-2.4127629e-2,-0.9997089,0,0)"
       ry="0" />
  </g>
</svg>
