<?xml version="1.0" encoding="utf-8"?>
<!-- Generator: Adobe Illustrator 26.5.0, SVG Export Plug-In . SVG Version: 6.00 Build 0)  -->
<svg version="1.1" xmlns="http://www.w3.org/2000/svg" xmlns:xlink="http://www.w3.org/1999/xlink" x="0px" y="0px"
	 viewBox="0.0 0.0 646.9 385.2" style="enable-background:new 0 0 646.9 425.4;" xml:space="preserve">
<style type="text/css">
	.st0{fill:none;stroke:#646464;stroke-width:6.792;stroke-linecap:round;stroke-linejoin:round;stroke-miterlimit:10;}
	.st1{fill:none;stroke:#FFD449;stroke-width:1.358;stroke-miterlimit:10;}
	.st2{fill:none;stroke:#54C6EB;stroke-width:1.358;stroke-miterlimit:10;}
	.st3{fill:none;stroke:#F4442E;stroke-width:1.358;stroke-miterlimit:10;}
	.st4{fill:none;stroke:#FFFFFF;stroke-width:1.019;}
	.st5{fill:#646464;}
	.st6{fill:#FFFFFF;}
	.st7{fill:none;stroke:#646464;stroke-width:1.358;stroke-miterlimit:10;}
	.st8{fill:#FF3380;}
	.st9{fill:none;stroke:#FF3380;stroke-width:0.951;stroke-miterlimit:10;}
	.st10{fill:#09BC8A;}
	.st11{fill:none;stroke:#09BC8A;stroke-width:0.951;stroke-miterlimit:10;}
	.st12{fill:none;stroke:#09BC8A;stroke-width:1.059;stroke-miterlimit:10;}
	.st13{fill:none;stroke:#F4442E;stroke-width:2.717;stroke-miterlimit:10;}
	.st14{fill:none;stroke:#54C6EB;stroke-width:2.717;stroke-miterlimit:10;}
	.st15{fill:none;stroke:#FFD449;stroke-width:2.717;stroke-miterlimit:10;}
	.st16{fill:none;stroke:#09BC8A;stroke-width:1.358;stroke-miterlimit:10;}
	.st17{clip-path:url(#SVGID_00000088824697458540873400000017804721473239325316_);}
	.st18{fill:#F4442E;}
	.st19{fill:#54C6EB;}
	.st20{fill:#FFD449;}
</style>
<g id="コース">
	<path class="st0" d="M462.2,303.7c0,0-194,46.1-198,47c-4,0.9-8.8,3.5-13.6-5.7c-4.8-9.2-16.2-28.1-28.5-46.1
		c-12.3-18-49.6-76.8-56.6-97c-7-20.2-18-52.2-31.6-74.2s-40-49.2-48.3-58.8S62.2,45.1,59.1,41.1S54.8,31,63.5,29.7
		c8.8-1.3,40-3.1,61.5-2.2c21.5,0.9,61.5,9.2,75.5,13.2s61.9,15.4,74.2,17.1c12.3,1.8,81.7,7,90.4,7.9c8.8,0.9,11,4,12.6,7.5
		c1.6,3.5-0.9,11.1-5.7,18.3s-11,13-18.7,18.9c-7.8,5.9-24.1,13.2-40.1,14.9c-16,1.8-34.5-2.6-48.4-6.4c-13.9-3.8-27.2-6.4-35.1-7
		c-9.8-0.7-24.1,0.8-30.4,11.1c-5,8-7.9,15.5-7.6,23.4c0.3,7.9,6.4,16.2,10.2,23.6c3.8,7.3,19.5,37,22,41.3
		c2.5,4.2,9.7,14.9,25.2,14.9s21.4-5.4,28.2-14.8c6.9-9.4,24.9-28.7,55-30c30.1-1.3,176.3,2,180.4,2.3c4.1,0.3,6.6,1,8.2,1.8
		s8,3.8,9.7,5.1c1.6,1.3,4,2.3,6,9.4c2,7,16.2,56.5,17,59.9c0.7,3.4,1,6.3-0.9,9.8c-1.9,3.5-9.5,8.5-14.9,11.4
		c-5.4,2.9-20.9,9.7-43.5,15.1C479.5,299.6,462.2,303.7,462.2,303.7z"/>
</g>
<g id="セクター">
	<path class="st1" d="M223.8,211.2c2.5,4.2,9.7,14.9,25.2,14.9s21.4-5.4,28.2-14.8c6.9-9.4,24.9-28.7,55-30
		c30.1-1.3,176.3,2,180.4,2.3c4.1,0.3,6.6,1,8.2,1.8s8,3.8,9.7,5.1c1.6,1.3,4,2.3,6,9.4c2,7,16.2,56.5,17,59.9
		c0.7,3.4,1,6.3-0.9,9.8c-1.9,3.5-9.5,8.5-14.9,11.4c-5.4,2.9-20.9,9.7-43.5,15.1c-14.7,3.5-32,7.6-32,7.6s-34.8,8.3-75.1,17.8"/>
	<path class="st2" d="M99.2,84.1c-5.9-6.6-10.9-12-13.8-15.3c-8.3-9.7-23.3-23.7-26.3-27.7S54.8,31,63.5,29.7
		c8.8-1.3,40-3.1,61.5-2.2c21.5,0.9,61.5,9.2,75.5,13.2s61.9,15.4,74.2,17.1c12.3,1.8,81.7,7,90.4,7.9c8.8,0.9,11,4,12.6,7.5
		c1.6,3.5-0.9,11.1-5.7,18.3s-11,13-18.7,18.9c-7.8,5.9-24.1,13.2-40.1,14.9c-16,1.8-34.5-2.6-48.4-6.4c-13.9-3.8-27.2-6.4-35.1-7
		c-9.8-0.7-24.1,0.8-30.4,11.1c-5,8-7.9,15.5-7.6,23.4c0.3,7.9,6.4,16.2,10.2,23.6c3.8,7.3,19.5,37,22,41.3"/>
	<path class="st3" d="M387,321.5c-55.1,13.1-120.6,28.6-122.9,29.1c-4,0.9-8.8,3.5-13.6-5.7c-4.8-9.2-16.2-28.1-28.5-46.1
		c-12.3-18-49.6-76.8-56.6-97c-7-20.2-18-52.2-31.6-74.2c-8.9-14.4-23.3-31.1-34.5-43.5"/>
</g>
<g id="コーナー番号">
	<g>
		<g>
			
			
		</g>
		<g>
			
		</g>
	</g>
	<g>
		<g>
			
			
		</g>
		<g>
			
		</g>
	</g>
	<g>
		<g>
			
			
		</g>
		<g>
			
		</g>
	</g>
	<g>
		<g>
			
			
		</g>
		<g>
			
		</g>
	</g>
	<g>
		<g>
			
			
		</g>
		<g>
			
		</g>
	</g>
	<g>
		<g>
			
			
		</g>
		<g>
			
		</g>
	</g>
	<g>
		<g>
			
			
		</g>
		<g>
			
		</g>
	</g>
	<g>
		<g>
			
			
		</g>
		<g>
			
		</g>
	</g>
	<g>
		<g>
			
			
		</g>
		<g>
			
		</g>
	</g>
	<g>
		<g>
			
			
		</g>
		<g>
			
			
		</g>
	</g>
</g>



</svg>
