<?xml version="1.0" encoding="utf-8"?>
<!-- Generator: Adobe Illustrator 26.5.0, SVG Export Plug-In . SVG Version: 6.00 Build 0)  -->
<svg version="1.1" xmlns="http://www.w3.org/2000/svg" xmlns:xlink="http://www.w3.org/1999/xlink" x="0px" y="0px"
	 viewBox="0 0 610.6 333.6" style="enable-background:new 0 0 610.6 333.6;" xml:space="preserve">
<style type="text/css">
	.st0{fill:none;stroke:#646464;stroke-width:14.1732;stroke-linecap:round;stroke-linejoin:round;stroke-miterlimit:10;}
	.st1{fill:none;stroke:#FFD449;stroke-width:2.8346;stroke-miterlimit:10;}
	.st2{fill:none;stroke:#54C6EB;stroke-width:2.8346;stroke-miterlimit:10;}
	.st3{fill:none;stroke:#F4442E;stroke-width:2.8346;stroke-miterlimit:10;}
	.st4{fill:none;stroke:#FFFFFF;stroke-width:2.126;}
	.st5{fill:#646464;}
	.st6{fill:#FFFFFF;}
	.st7{fill:none;stroke:#646464;stroke-width:2.8346;stroke-miterlimit:10;}
	.st8{fill:#FF3380;}
	.st9{fill:none;stroke:#FF3380;stroke-width:1.9843;stroke-miterlimit:10;}
	.st10{fill:#09BC8A;}
	.st11{fill:none;stroke:#09BC8A;stroke-width:1.9843;stroke-miterlimit:10;}
	.st12{fill:none;stroke:#09BC8A;stroke-width:2.2097;stroke-miterlimit:10;}
	.st13{fill:none;stroke:#646464;stroke-width:0.7087;stroke-miterlimit:10;}
	.st14{fill:none;stroke:#F4442E;stroke-width:5.6693;stroke-miterlimit:10;}
	.st15{fill:none;stroke:#54C6EB;stroke-width:5.6693;stroke-miterlimit:10;}
	.st16{fill:none;stroke:#FFD449;stroke-width:5.6693;stroke-miterlimit:10;}
	.st17{fill:none;stroke:#09BC8A;stroke-width:2.8346;stroke-miterlimit:10;}
	.st18{clip-path:url(#SVGID_00000176724608870033538480000006893627680905905084_);}
	.st19{fill:#F4442E;}
	.st20{fill:#54C6EB;}
	.st21{fill:#FFD449;}
</style>
<g id="コース">
	<path class="st0" d="M265.4,178c0,0,195.2,113.9,198.7,115.6s6.4,2.3,8.8-2.3c2.3-4.7,28.4-51.2,29.9-53.6c1.5-2.3,3.5-3.2-2.3-7.3
		c-5.9-4.1-53.3-34-63.5-39.2c-10.2-5.3-85.5-47.4-87.2-48.3c-1.8-0.9-2.3-1.5-5,2.3c-2.6,3.8-19.9,30.7-21.1,33.7
		c-1.2,2.9-4.1,3.8-7.3,2c-3.2-1.8-23.7-14-28.1-16.1c-4.4-2-24-9.1-26.6-10.2c-2.6-1.2-6.7-1.2-8.8,2.9c-2,4.1-1.5,7-6.1,5.6
		c-4.7-1.5-61.5-17.9-65.9-18.7c-4.4-0.9-6-1-7.6-0.8c-1.6,0.1-4.7-3.1-1.6-7.1c0,0,19.2-27.8,20.1-29.1c0.9-1.3,1.5-3.8,0.2-5.2
		c-1.3-1.3-1.3-3.1-1.4-4c-0.1-0.9-0.2-2.7-1.5-4.2c-1.3-1.4-2.5-3.7-3.4-4.5c-0.9-0.8-1.6-4.1,0.1-5.8c1.8-1.8,3.5-4.9,4.2-5.9
		c0.7-1,1.3-3.2-0.4-4.6c-1.8-1.4-19.3-13.5-31.6-19.9c-12.3-6.4-32.6-14.7-34.7-15.6c-2.1-0.9-8.8-1.5-12.6-0.2s-30.7,11.3-32.7,12
		c-2,0.7-4,1.4-5.8,3.3C70,54.6,55.9,68,52.8,70.3c-3.1,2.3-12.1,8.5-13.6,9.3c-1.5,0.9-3,0.9-2.3,4.7s6.7,32.9,7.4,39.3
		c0.7,6.4,3.5,22.9,3.7,25.5c0.2,2.5,0.7,7.1,6.6,6.1s25.6-5.2,28.9-5.6s9.9-2.2,19.3,0s28,6.5,31.7,7.2c3.7,0.8,10.9,0,14.9-1.6
		c4.1-1.6,13.5-4.8,15.5-5.6c2-0.8,7.7-2,12.5-0.7c4.8,1.3,58,15.7,61.5,16.8c3.5,1.1,9.4,3.1,11.9,4.2
		C253.1,171.1,263.9,177.3,265.4,178z"/>
</g>
<g id="セクター">
	<path class="st1" d="M47.9,148.1c0.1,0.4,0.1,0.8,0.1,1c0.2,2.5,0.7,7.1,6.6,6.1s25.6-5.2,28.9-5.6s9.9-2.2,19.3,0s28,6.5,31.7,7.2
		c3.7,0.8,10.9,0,14.9-1.6c4.1-1.6,13.5-4.8,15.5-5.6c2-0.8,7.7-2,12.5-0.7c4.8,1.3,58,15.7,61.5,16.8c3.5,1.1,9.4,3.1,11.9,4.2
		c2.4,1.1,13.2,7.3,14.7,8c0,0,76,44.3,134,78.1"/>
	<path class="st2" d="M266.6,156.5c-2.4-0.9-4.3-1.6-5-1.9c-2.6-1.2-6.7-1.2-8.8,2.9c-2,4.1-1.5,7-6.1,5.6
		c-4.7-1.5-61.5-17.9-65.9-18.7c-4.4-0.9-6-1-7.6-0.8c-1.6,0.1-4.7-3.1-1.6-7.1c0,0,19.2-27.8,20.1-29.1c0.9-1.3,1.5-3.8,0.2-5.2
		c-1.3-1.3-1.3-3.1-1.4-4c-0.1-0.9-0.2-2.7-1.5-4.2c-1.3-1.4-2.5-3.7-3.4-4.5c-0.9-0.8-1.6-4.1,0.1-5.8c1.8-1.8,3.5-4.9,4.2-5.9
		c0.7-1,1.3-3.2-0.4-4.6c-1.8-1.4-19.3-13.5-31.6-19.9c-12.3-6.4-32.6-14.7-34.7-15.6c-2.1-0.9-8.8-1.5-12.6-0.2s-30.7,11.3-32.7,12
		c-2,0.7-4,1.4-5.8,3.3C70,54.6,55.9,68,52.8,70.3c-3.1,2.3-12.1,8.5-13.6,9.3c-1.5,0.9-3,0.9-2.3,4.7s6.7,32.9,7.4,39.3
		c0.6,5.8,3,20.1,3.6,24.5"/>
	<path class="st3" d="M399.4,256.1c35,20.3,63.4,36.9,64.7,37.5c3.5,1.8,6.4,2.3,8.8-2.3c2.3-4.7,28.4-51.2,29.9-53.6
		c1.5-2.3,3.5-3.2-2.3-7.3c-5.9-4.1-53.3-34-63.5-39.2c-10.2-5.3-85.5-47.4-87.2-48.3c-1.8-0.9-2.3-1.5-5,2.3
		c-2.6,3.8-19.9,30.7-21.1,33.7c-1.2,2.9-4.1,3.8-7.3,2c-3.2-1.8-23.7-14-28.1-16.1c-3.2-1.5-14.8-5.7-21.6-8.3"/>
</g>
<g id="コーナー番号">
	<g>
		<g>
			<circle class="st4" cx="469.1" cy="317" r="8.5"/>
			<circle class="st5" cx="469.1" cy="317" r="8.5"/>
		</g>
		<g>
			<path class="st6" d="M467.4,320.8v-1.6h1v-4.5h-0.9v-1.6h2.6v6.1h0.9v1.6H467.4z"/>
		</g>
	</g>
	<g>
		<g>
			<circle class="st4" cx="524.5" cy="231" r="8.5"/>
			<circle class="st5" cx="524.5" cy="231" r="8.5"/>
		</g>
		<g>
			<path class="st6" d="M522.5,234.9v-2.6c0-0.6,0.1-1,0.6-1.2l1.9-0.8v-1.6l-0.1-0.1h-0.5l-0.1,0.1v1.1h-1.7v-1.3
				c0-0.8,0.4-1.1,0.8-1.3h2.5c0.5,0.2,0.8,0.5,0.8,1.3v1.9c0,0.6-0.1,0.9-0.6,1.2l-1.9,0.8v0.9h2.4v1.6H522.5z"/>
		</g>
	</g>
	<g>
		<g>
			<circle class="st4" cx="341.8" cy="123.9" r="8.5"/>
			<circle class="st5" cx="341.8" cy="123.9" r="8.5"/>
		</g>
		<g>
			<path class="st6" d="M340.6,127.8c-0.5-0.2-0.8-0.5-0.8-1.3v-1h1.7v0.8l0.1,0.1h0.5l0.1-0.1v-1.6l-0.1-0.1h-1v-1.3h1l0.1-0.1
				v-1.5l-0.1-0.1h-0.5l-0.1,0.1v0.8h-1.7v-1c0-0.8,0.4-1.1,0.8-1.3h2.5c0.5,0.2,0.8,0.5,0.8,1.3v1.3c0,0.6-0.2,0.9-0.6,1.2
				c0.4,0.3,0.6,0.6,0.6,1.2v1.4c0,0.8-0.4,1.1-0.8,1.3H340.6z"/>
		</g>
	</g>
	<g>
		<g>
			<circle class="st4" cx="340.5" cy="189.5" r="8.5"/>
			<circle class="st5" cx="340.5" cy="189.5" r="8.5"/>
		</g>
		<g>
			<path class="st6" d="M342.1,191.9v1.5h-1.7v-1.5h-2.2v-1.5l1.6-4.7h1.7l-1.6,4.6h0.5v-0.4l0.4-1h1.3v1.4h0.5v1.6H342.1z"/>
		</g>
	</g>
	<g>
		<g>
			<circle class="st4" cx="263.8" cy="132.4" r="8.5"/>
			<circle class="st5" cx="263.8" cy="132.4" r="8.5"/>
		</g>
		<g>
			<path class="st6" d="M262.6,136.2c-0.5-0.2-0.8-0.5-0.8-1.3v-1h1.6v0.8l0.1,0.1h0.6l0.1-0.1v-2.1l-0.1-0.1h-0.6l-0.1,0.1v0.4
				h-1.6v-4.5h4v1.5h-2.4v1.6l0.4-0.4h1.3c0.5,0.2,0.8,0.5,0.8,1.3v2.4c0,0.8-0.4,1.1-0.8,1.3H262.6z"/>
		</g>
	</g>
	<g>
		<g>
			<circle class="st4" cx="241.1" cy="141.5" r="8.5"/>
			<circle class="st5" cx="241.1" cy="141.5" r="8.5"/>
		</g>
		<g>
			<path class="st6" d="M242.3,145.3h-2.5c-0.5-0.2-0.8-0.5-0.8-1.3V139c0-0.8,0.4-1.1,0.8-1.3h2.5c0.5,0.2,0.8,0.5,0.8,1.3v1h-1.7
				v-0.8l-0.1-0.1h-0.5l-0.1,0.1v1.8l0.3-0.3h1.3c0.5,0.2,0.8,0.5,0.8,1.3v2.2C243.2,144.9,242.8,145.2,242.3,145.3z M241.4,144
				l0.1-0.1V142l-0.1-0.1h-0.5l-0.1,0.1v1.8l0.1,0.1H241.4z"/>
		</g>
	</g>
	<g>
		<g>
			<circle class="st4" cx="156.3" cy="127.6" r="8.5"/>
			<circle class="st5" cx="156.3" cy="127.6" r="8.5"/>
		</g>
		<g>
			<path class="st6" d="M154.4,131.5l2.1-6.2h-2.4v-1.5h4.1v1.2l-2.1,6.5H154.4z"/>
		</g>
	</g>
	<g>
		<g>
			<circle class="st4" cx="211.4" cy="112.1" r="8.5"/>
			<circle class="st5" cx="211.4" cy="112.1" r="8.5"/>
		</g>
		<g>
			<path class="st6" d="M210.2,116c-0.5-0.2-0.8-0.5-0.8-1.3v-1.4c0-0.6,0.2-0.9,0.6-1.2c-0.4-0.3-0.6-0.6-0.6-1.2v-1.3
				c0-0.8,0.4-1.1,0.8-1.3h2.5c0.5,0.2,0.8,0.5,0.8,1.3v1.3c0,0.6-0.2,0.9-0.6,1.2c0.4,0.3,0.6,0.6,0.6,1.2v1.4
				c0,0.8-0.4,1.1-0.8,1.3H210.2z M211.1,111.3l0.1,0.1h0.5l0.1-0.1v-1.5l-0.1-0.1h-0.5l-0.1,0.1V111.3z M211.8,114.5v-1.6l-0.1-0.1
				h-0.5l-0.1,0.1v1.6l0.1,0.1h0.5L211.8,114.5z"/>
		</g>
	</g>
	<g>
		<g>
			<circle class="st4" cx="167.4" cy="103.8" r="8.5"/>
			<circle class="st5" cx="167.4" cy="103.8" r="8.5"/>
		</g>
		<g>
			<path class="st6" d="M166.1,107.7c-0.5-0.2-0.8-0.5-0.8-1.3v-1h1.7v0.8l0.1,0.1h0.5l0.1-0.1v-1.8l-0.3,0.3h-1.3
				c-0.5-0.2-0.8-0.5-0.8-1.3v-2.2c0-0.8,0.4-1.1,0.8-1.3h2.5c0.5,0.2,0.8,0.5,0.8,1.3v5.1c0,0.8-0.4,1.1-0.8,1.3H166.1z
				 M167.7,103.4v-1.8l-0.1-0.1h-0.5l-0.1,0.1v1.8l0.1,0.1h0.5L167.7,103.4z"/>
		</g>
	</g>
	<g>
		<g>
			<circle class="st4" cx="207.5" cy="86.9" r="8.5"/>
			<circle class="st5" cx="207.5" cy="86.9" r="8.5"/>
		</g>
		<g>
			<path class="st6" d="M203.4,90.8v-1.6h1v-4.5h-0.9v-1.6h2.6v6.1h0.9v1.6H203.4z"/>
			<path class="st6" d="M211.1,90.8h-2.5c-0.5-0.2-0.8-0.5-0.8-1.3v-5.1c0-0.8,0.4-1.1,0.8-1.3h2.5c0.5,0.2,0.8,0.5,0.8,1.3v5.1
				C211.9,90.3,211.5,90.6,211.1,90.8z M210.2,84.6l-0.1-0.1h-0.5l-0.1,0.1v4.7l0.1,0.1h0.5l0.1-0.1V84.6z"/>
		</g>
	</g>
	<g>
		<g>
			<circle class="st4" cx="167" cy="81.6" r="8.5"/>
			<circle class="st5" cx="167" cy="81.6" r="8.5"/>
		</g>
		<g>
			<path class="st6" d="M163,85.5v-1.6h1v-4.5h-0.9v-1.6h2.6v6.1h0.9v1.6H163z"/>
			<path class="st6" d="M167.7,85.5v-1.6h1v-4.5h-0.9v-1.6h2.6v6.1h0.9v1.6H167.7z"/>
		</g>
	</g>
	<g>
		<g>
			<circle class="st4" cx="205.5" cy="62.4" r="8.5"/>
			<circle class="st5" cx="205.5" cy="62.4" r="8.5"/>
		</g>
		<g>
			<path class="st6" d="M201.5,66.3v-1.6h1v-4.5h-0.9v-1.6h2.6v6.1h0.9v1.6H201.5z"/>
			<path class="st6" d="M205.8,66.3v-2.6c0-0.6,0.1-1,0.6-1.2l1.9-0.8v-1.6l-0.1-0.1h-0.5l-0.1,0.1v1.1h-1.7v-1.3
				c0-0.8,0.4-1.1,0.8-1.3h2.5c0.5,0.2,0.8,0.5,0.8,1.3v1.9c0,0.6-0.1,0.9-0.6,1.2l-1.9,0.8v0.9h2.4v1.6H205.8z"/>
		</g>
	</g>
	<g>
		<g>
			<circle class="st4" cx="118" cy="16.7" r="8.5"/>
			<circle class="st5" cx="118" cy="16.7" r="8.5"/>
		</g>
		<g>
			<path class="st6" d="M113.9,20.5v-1.6h1v-4.5H114v-1.6h2.6v6.1h0.9v1.6H113.9z"/>
			<path class="st6" d="M119.1,20.5c-0.5-0.2-0.8-0.5-0.8-1.3v-1h1.7V19l0.1,0.1h0.5l0.1-0.1v-1.6l-0.1-0.1h-1V16h1l0.1-0.1v-1.5
				l-0.1-0.1H120l-0.1,0.1v0.8h-1.7v-1c0-0.8,0.4-1.1,0.8-1.3h2.5c0.5,0.2,0.8,0.5,0.8,1.3v1.3c0,0.6-0.2,0.9-0.6,1.2
				c0.4,0.3,0.6,0.6,0.6,1.2v1.4c0,0.8-0.4,1.1-0.8,1.3H119.1z"/>
		</g>
	</g>
	<g>
		<g>
			<circle class="st4" cx="62.5" cy="34.5" r="8.5"/>
			<circle class="st5" cx="62.5" cy="34.5" r="8.5"/>
		</g>
		<g>
			<path class="st6" d="M58.4,38.4v-1.6h1v-4.5h-0.9v-1.6h2.6v6.1h0.9v1.6H58.4z"/>
			<path class="st6" d="M66.5,36.9v1.5h-1.7v-1.5h-2.2v-1.5l1.6-4.7h1.7l-1.6,4.6h0.5v-0.4l0.4-1h1.3v1.4H67v1.6H66.5z"/>
		</g>
	</g>
	<g>
		<g>
			<circle class="st4" cx="140.2" cy="178.4" r="8.5"/>
			<circle class="st5" cx="140.2" cy="178.4" r="8.5"/>
		</g>
		<g>
			<path class="st6" d="M136.1,182.3v-1.6h1v-4.5h-0.9v-1.6h2.6v6.1h0.9v1.6H136.1z"/>
			<path class="st6" d="M141.3,182.3c-0.5-0.2-0.8-0.5-0.8-1.3v-1.4c0-0.6,0.2-0.9,0.6-1.2c-0.4-0.3-0.6-0.6-0.6-1.2v-1.3
				c0-0.8,0.4-1.1,0.8-1.3h2.5c0.5,0.2,0.8,0.5,0.8,1.3v1.3c0,0.6-0.2,0.9-0.6,1.2c0.4,0.3,0.6,0.6,0.6,1.2v1.4
				c0,0.8-0.4,1.1-0.8,1.3H141.3z M142.1,177.6l0.1,0.1h0.5l0.1-0.1v-1.5l-0.1-0.1h-0.5l-0.1,0.1V177.6z M142.9,180.8v-1.6l-0.1-0.1
				h-0.5l-0.1,0.1v1.6l0.1,0.1h0.5L142.9,180.8z"/>
		</g>
	</g>
	<g>
		<g>
			<circle class="st4" cx="173.3" cy="168.2" r="8.5"/>
			<circle class="st5" cx="173.3" cy="168.2" r="8.5"/>
		</g>
		<g>
			<path class="st6" d="M169.2,172.1v-1.6h1V166h-0.9v-1.6h2.6v6.1h0.9v1.6H169.2z"/>
			<path class="st6" d="M174.4,172.1c-0.5-0.2-0.8-0.5-0.8-1.3v-1h1.7v0.8l0.1,0.1h0.5l0.1-0.1v-1.8l-0.3,0.3h-1.3
				c-0.5-0.2-0.8-0.5-0.8-1.3v-2.2c0-0.8,0.4-1.1,0.8-1.3h2.5c0.5,0.2,0.8,0.5,0.8,1.3v5.1c0,0.8-0.4,1.1-0.8,1.3H174.4z M176,167.8
				v-1.8l-0.1-0.1h-0.5l-0.1,0.1v1.8l0.1,0.1h0.5L176,167.8z"/>
		</g>
	</g>
	<g>
		<g>
			<circle class="st4" cx="241.8" cy="188.1" r="8.5"/>
			<circle class="st5" cx="241.8" cy="188.1" r="8.5"/>
		</g>
		<g>
			<path class="st6" d="M237.3,192v-2.6c0-0.6,0.1-1,0.6-1.2l1.9-0.8v-1.6l-0.1-0.1h-0.5l-0.1,0.1v1.1h-1.7v-1.3
				c0-0.8,0.4-1.1,0.8-1.3h2.5c0.5,0.2,0.8,0.5,0.8,1.3v1.9c0,0.6-0.1,0.9-0.6,1.2l-1.9,0.8v0.9h2.4v1.6H237.3z"/>
			<path class="st6" d="M245.3,192h-2.5c-0.5-0.2-0.8-0.5-0.8-1.3v-5.1c0-0.8,0.4-1.1,0.8-1.3h2.5c0.5,0.2,0.8,0.5,0.8,1.3v5.1
				C246.2,191.5,245.8,191.8,245.3,192z M244.5,185.8l-0.1-0.1h-0.5l-0.1,0.1v4.7l0.1,0.1h0.5l0.1-0.1V185.8z"/>
		</g>
	</g>
	<g>
		<g>
			<circle class="st4" cx="16.7" cy="78.1" r="8.5"/>
			<circle class="st5" cx="16.7" cy="78.1" r="8.5"/>
		</g>
		<g>
			<path class="st6" d="M12.6,82v-1.6h1v-4.5h-0.9v-1.6h2.6v6.1h0.9V82H12.6z"/>
			<path class="st6" d="M17.7,82c-0.5-0.2-0.8-0.5-0.8-1.3v-1h1.6v0.8l0.1,0.1h0.6l0.1-0.1v-2.1l-0.1-0.1h-0.6l-0.1,0.1v0.4h-1.6
				v-4.5h4v1.5h-2.4v1.6l0.4-0.4h1.3c0.5,0.2,0.8,0.5,0.8,1.3v2.4c0,0.8-0.4,1.1-0.8,1.3H17.7z"/>
		</g>
	</g>
	<g>
		<g>
			<circle class="st4" cx="41.4" cy="172.2" r="8.5"/>
			<circle class="st5" cx="41.4" cy="172.2" r="8.5"/>
		</g>
		<g>
			<path class="st6" d="M37.4,176.1v-1.6h1V170h-0.9v-1.6h2.6v6.1h0.9v1.6H37.4z"/>
			<path class="st6" d="M45,176.1h-2.5c-0.5-0.2-0.8-0.5-0.8-1.3v-5.1c0-0.8,0.4-1.1,0.8-1.3H45c0.5,0.2,0.8,0.5,0.8,1.3v1h-1.7
				v-0.8l-0.1-0.1h-0.5l-0.1,0.1v1.8l0.3-0.3H45c0.5,0.2,0.8,0.5,0.8,1.3v2.2C45.9,175.6,45.5,175.9,45,176.1z M44.1,174.7l0.1-0.1
				v-1.8l-0.1-0.1h-0.5l-0.1,0.1v1.8l0.1,0.1H44.1z"/>
		</g>
	</g>
	<g>
		<g>
			<circle class="st4" cx="90.9" cy="128.8" r="8.5"/>
			<circle class="st5" cx="90.9" cy="128.8" r="8.5"/>
		</g>
		<g>
			<path class="st6" d="M86.9,132.7v-1.6h1v-4.5H87V125h2.6v6.1h0.9v1.6H86.9z"/>
			<path class="st6" d="M91.5,132.7l2.1-6.2h-2.4V125h4.1v1.2l-2.1,6.5H91.5z"/>
		</g>
	</g>
</g>


<g id="アイコン">
	<g>
		<g>
			<path class="st6" d="M603.2,46.7c0,1.6-1.3,2.8-2.8,2.8H231.6c-1.6,0-2.8-1.3-2.8-2.8V21.9c0-1.6,1.3-2.8,2.8-2.8h368.8
				c1.6,0,2.8,1.3,2.8,2.8V46.7z"/>
			<path class="st13" d="M603.2,46.7c0,1.6-1.3,2.8-2.8,2.8H231.6c-1.6,0-2.8-1.3-2.8-2.8V21.9c0-1.6,1.3-2.8,2.8-2.8h368.8
				c1.6,0,2.8,1.3,2.8,2.8V46.7z"/>
		</g>
		<g>
			<path class="st5" d="M274.2,35.7v2.6c0,1.3-0.6,1.7-1.3,2h-3.3c-0.7-0.3-1.3-0.7-1.3-2v-2h1.8v2.1l0.4,0.4h1.6l0.4-0.4v-2.8
				l-0.3-0.4l-2.6-0.8c-0.8-0.3-1.1-0.8-1.1-1.9v-2.2c0-1.3,0.6-1.7,1.3-2h3.3c0.7,0.3,1.3,0.7,1.3,2v1.9h-1.8v-2.1l-0.4-0.4h-1.6
				l-0.4,0.4v2.4l0.4,0.4l2.6,0.7C273.8,34,274.2,34.6,274.2,35.7z"/>
			<path class="st5" d="M275.5,28.3h5.1v1.6h-3.3v3.4h3.1V35h-3.1v3.7h3.4v1.6h-5.2V28.3z"/>
			<path class="st5" d="M287.9,38.3c0,1.3-0.6,1.7-1.3,2h-3.3c-0.7-0.3-1.3-0.7-1.3-2v-8c0-1.3,0.6-1.7,1.3-2h3.3
				c0.7,0.3,1.3,0.7,1.3,2V33h-1.8v-2.8l-0.4-0.4h-1.6l-0.4,0.4v8.3l0.4,0.4h1.6l0.4-0.4v-2.7h1.8V38.3z"/>
			<path class="st5" d="M292.6,29.9v10.3h-1.8V29.9h-2.1v-1.6h6.1v1.6H292.6z"/>
			<path class="st5" d="M301.5,38.3c0,1.3-0.6,1.7-1.3,2h-3.3c-0.7-0.3-1.3-0.7-1.3-2v-8c0-1.3,0.6-1.7,1.3-2h3.3
				c0.7,0.3,1.3,0.7,1.3,2V38.3z M299.7,30.1l-0.4-0.4h-1.6l-0.4,0.4v8.3l0.4,0.4h1.6l0.4-0.4V30.1z"/>
			<path class="st5" d="M302.9,40.3v-12h4.6c0.7,0.3,1.3,0.7,1.3,2v2.6c0,1.3-0.6,1.6-1.3,1.9l-0.3,0.1l2.1,4.3v1.1h-1.6l-2.2-5.1
				h-0.8v5.1H302.9z M304.7,29.8v3.9h2l0.4-0.4v-3.1l-0.4-0.4H304.7z"/>
			<path class="st5" d="M313,40.3v-1.6h1.8v-8.7h-1.7v-1.6h3.5v10.4h1.7v1.6H313z"/>
		</g>
		<line class="st14" x1="242.9" y1="34.4" x2="264.2" y2="34.4"/>
		<g>
			<path class="st5" d="M364.3,35.7v2.6c0,1.3-0.6,1.7-1.3,2h-3.3c-0.7-0.3-1.3-0.7-1.3-2v-2h1.8v2.1l0.4,0.4h1.6l0.4-0.4v-2.8
				l-0.3-0.4l-2.6-0.8c-0.8-0.3-1.1-0.8-1.1-1.9v-2.2c0-1.3,0.6-1.7,1.3-2h3.3c0.7,0.3,1.3,0.7,1.3,2v1.9h-1.8v-2.1l-0.4-0.4h-1.6
				l-0.4,0.4v2.4l0.4,0.4l2.6,0.7C364,34,364.3,34.6,364.3,35.7z"/>
			<path class="st5" d="M365.7,28.3h5.1v1.6h-3.3v3.4h3.1V35h-3.1v3.7h3.4v1.6h-5.2V28.3z"/>
			<path class="st5" d="M378,38.3c0,1.3-0.6,1.7-1.3,2h-3.3c-0.7-0.3-1.3-0.7-1.3-2v-8c0-1.3,0.6-1.7,1.3-2h3.3
				c0.7,0.3,1.3,0.7,1.3,2V33h-1.8v-2.8l-0.4-0.4h-1.6l-0.4,0.4v8.3l0.4,0.4h1.6l0.4-0.4v-2.7h1.8V38.3z"/>
			<path class="st5" d="M382.7,29.9v10.3h-1.8V29.9h-2.1v-1.6h6.1v1.6H382.7z"/>
			<path class="st5" d="M391.6,38.3c0,1.3-0.6,1.7-1.3,2H387c-0.7-0.3-1.3-0.7-1.3-2v-8c0-1.3,0.6-1.7,1.3-2h3.3
				c0.7,0.3,1.3,0.7,1.3,2V38.3z M389.8,30.1l-0.4-0.4h-1.6l-0.4,0.4v8.3l0.4,0.4h1.6l0.4-0.4V30.1z"/>
			<path class="st5" d="M393,40.3v-12h4.6c0.7,0.3,1.3,0.7,1.3,2v2.6c0,1.3-0.6,1.6-1.3,1.9l-0.3,0.1l2.1,4.3v1.1h-1.6l-2.2-5.1
				h-0.8v5.1H393z M394.8,29.8v3.9h2l0.4-0.4v-3.1l-0.4-0.4H394.8z"/>
			<path class="st5" d="M402.7,40.3v-3.6c0-1.1,0.4-1.7,1.2-2.1l3-1.2v-3.2l-0.4-0.4h-1.7l-0.4,0.4v2h-1.8v-1.9c0-1.3,0.6-1.7,1.3-2
				h3.3c0.7,0.3,1.3,0.7,1.3,2v2.5c0,1.1-0.3,1.7-1.1,2.1l-3,1.2v2.5h4.1v1.6H402.7z"/>
		</g>
		<line class="st15" x1="333" y1="34.4" x2="354.3" y2="34.4"/>
		<g>
			<path class="st5" d="M454.2,35.7v2.6c0,1.3-0.6,1.7-1.3,2h-3.3c-0.7-0.3-1.3-0.7-1.3-2v-2h1.8v2.1l0.4,0.4h1.6l0.4-0.4v-2.8
				l-0.3-0.4l-2.6-0.8c-0.8-0.3-1.1-0.8-1.1-1.9v-2.2c0-1.3,0.6-1.7,1.3-2h3.3c0.7,0.3,1.3,0.7,1.3,2v1.9h-1.8v-2.1l-0.4-0.4h-1.6
				l-0.4,0.4v2.4l0.4,0.4l2.6,0.7C453.8,34,454.2,34.6,454.2,35.7z"/>
			<path class="st5" d="M455.5,28.3h5.1v1.6h-3.3v3.4h3.1V35h-3.1v3.7h3.4v1.6h-5.2V28.3z"/>
			<path class="st5" d="M467.8,38.3c0,1.3-0.6,1.7-1.3,2h-3.3c-0.7-0.3-1.3-0.7-1.3-2v-8c0-1.3,0.6-1.7,1.3-2h3.3
				c0.7,0.3,1.3,0.7,1.3,2V33H466v-2.8l-0.4-0.4H464l-0.4,0.4v8.3l0.4,0.4h1.6l0.4-0.4v-2.7h1.8V38.3z"/>
			<path class="st5" d="M472.6,29.9v10.3h-1.8V29.9h-2.1v-1.6h6.1v1.6H472.6z"/>
			<path class="st5" d="M481.4,38.3c0,1.3-0.6,1.7-1.3,2h-3.3c-0.7-0.3-1.3-0.7-1.3-2v-8c0-1.3,0.6-1.7,1.3-2h3.3
				c0.7,0.3,1.3,0.7,1.3,2V38.3z M479.7,30.1l-0.4-0.4h-1.6l-0.4,0.4v8.3l0.4,0.4h1.6l0.4-0.4V30.1z"/>
			<path class="st5" d="M482.8,40.3v-12h4.6c0.7,0.3,1.3,0.7,1.3,2v2.6c0,1.3-0.6,1.6-1.3,1.9l-0.3,0.1l2.1,4.3v1.1h-1.6l-2.2-5.1
				h-0.8v5.1H482.8z M484.6,29.8v3.9h2l0.4-0.4v-3.1l-0.4-0.4H484.6z"/>
			<path class="st5" d="M493.8,40.3c-0.7-0.3-1.3-0.7-1.3-2v-1.7h1.8v1.8l0.4,0.4h1.7l0.4-0.4v-3.2l-0.4-0.3h-1.8v-1.4h1.8l0.4-0.4
				v-3l-0.4-0.4h-1.7l-0.4,0.4V32h-1.8v-1.7c0-1.3,0.6-1.7,1.3-2h3.3c0.7,0.3,1.3,0.7,1.3,2v1.9c0,1-0.2,1.5-0.9,1.9
				c0.6,0.4,0.9,0.9,0.9,1.9v2.2c0,1.3-0.6,1.7-1.3,2H493.8z"/>
		</g>
		<line class="st16" x1="422.8" y1="34.4" x2="444.1" y2="34.4"/>
		<g>
			<path class="st5" d="M544.1,38.3c0,1.3-0.6,1.7-1.3,2h-4.6v-12h4.6c0.7,0.3,1.3,0.7,1.3,2V38.3z M539.9,29.8v9h2l0.4-0.4v-8.3
				l-0.4-0.4H539.9z"/>
			<path class="st5" d="M545.5,40.3v-12h4.6c0.7,0.3,1.3,0.7,1.3,2v2.6c0,1.3-0.6,1.6-1.3,1.9l-0.3,0.1l2.1,4.3v1.1h-1.6l-2.2-5.1
				h-0.8v5.1H545.5z M547.3,29.8v3.9h2l0.4-0.4v-3.1l-0.4-0.4H547.3z"/>
			<path class="st5" d="M558.5,35.7v2.6c0,1.3-0.6,1.7-1.3,2h-3.3c-0.7-0.3-1.3-0.7-1.3-2v-2h1.8v2.1l0.4,0.4h1.6l0.4-0.4v-2.8
				l-0.3-0.4l-2.6-0.8c-0.8-0.3-1.1-0.8-1.1-1.9v-2.2c0-1.3,0.6-1.7,1.3-2h3.3c0.7,0.3,1.3,0.7,1.3,2v1.9h-1.8v-2.1l-0.4-0.4h-1.6
				l-0.4,0.4v2.4l0.4,0.4l2.6,0.7C558.1,34,558.5,34.6,558.5,35.7z"/>
			<path class="st5" d="M566.1,29.9h-3.9v-1.6h5.8v1.5l-4,8.9h4v1.6h-5.9v-1.5L566.1,29.9z"/>
			<path class="st5" d="M575.2,38.3c0,1.3-0.6,1.7-1.3,2h-3.3c-0.7-0.3-1.3-0.7-1.3-2v-8c0-1.3,0.6-1.7,1.3-2h3.3
				c0.7,0.3,1.3,0.7,1.3,2V38.3z M573.4,30.1l-0.4-0.4h-1.6l-0.4,0.4v8.3l0.4,0.4h1.6l0.4-0.4V30.1z"/>
			<path class="st5" d="M580.9,28.3h1.6v12h-1.6l-2.6-7.1h-0.2v7.1h-1.6v-12h1.6l2.6,7.1h0.2V28.3z"/>
			<path class="st5" d="M583.9,28.3h5.1v1.6h-3.3v3.4h3.1V35h-3.1v3.7h3.4v1.6h-5.2V28.3z"/>
		</g>
		<g>
			<g>
				<g>
					<g>
						<line class="st17" x1="514.2" y1="26.9" x2="514.2" y2="41.8"/>
					</g>
					<g>
						<path class="st10" d="M521.8,34.4c0,0.8-0.7,1.4-1.5,1.4c-0.8,0-1.5-0.6-1.5-1.4c0-0.8,0.7-1.4,1.5-1.4
							C521.1,33,521.8,33.6,521.8,34.4z"/>
					</g>
					<g>
						<path class="st10" d="M527.8,34.4c0,0.8-0.7,1.4-1.5,1.4s-1.5-0.6-1.5-1.4c0-0.8,0.7-1.4,1.5-1.4S527.8,33.6,527.8,34.4z"/>
					</g>
					<g>
						<line class="st17" x1="532.4" y1="26.9" x2="532.4" y2="41.8"/>
					</g>
				</g>
			</g>
		</g>
	</g>
	<g>
		
			<rect x="397.5" y="241.3" transform="matrix(0.5172 -0.8559 0.8559 0.5172 -15.1485 458.6227)" class="st5" width="2.8" height="2.8"/>
		
			<rect x="400.4" y="236.5" transform="matrix(0.5172 -0.8559 0.8559 0.5172 -9.5798 458.7892)" class="st5" width="2.8" height="2.8"/>
		
			<rect x="401.4" y="240.4" transform="matrix(0.5172 -0.8559 0.8559 0.5172 -12.4474 461.4902)" class="st5" width="2.8" height="2.8"/>
		
			<rect x="404.3" y="235.5" transform="matrix(0.5172 -0.8559 0.8559 0.5172 -6.8787 461.6567)" class="st5" width="2.8" height="2.8"/>
		
			<rect x="406.2" y="243.3" transform="matrix(0.5172 -0.8559 0.8559 0.5172 -12.6139 467.0589)" class="st5" width="2.8" height="2.8"/>
		
			<rect x="409.2" y="238.4" transform="matrix(0.5172 -0.8559 0.8559 0.5172 -7.0452 467.2254)" class="st5" width="2.8" height="2.8"/>
		
			<rect x="403.4" y="231.6" transform="matrix(0.5172 -0.8559 0.8559 0.5172 -4.0111 458.9557)" class="st5" width="2.8" height="2.8"/>
		
			<rect x="401.9" y="234" transform="matrix(0.5172 -0.8559 0.8559 0.5172 -6.7955 458.8724)" class="st6" width="2.8" height="2.8"/>
		
			<rect x="399" y="238.9" transform="matrix(0.5172 -0.8559 0.8559 0.5172 -12.3641 458.7059)" class="st6" width="2.8" height="2.8"/>
		
			<rect x="399.9" y="242.8" transform="matrix(0.5172 -0.8559 0.8559 0.5172 -15.2317 461.407)" class="st6" width="2.8" height="2.8"/>
		
			<rect x="402.8" y="237.9" transform="matrix(0.5172 -0.8559 0.8559 0.5172 -9.6631 461.5735)" class="st6" width="2.8" height="2.8"/>
		
			<rect x="405.8" y="233.1" transform="matrix(0.5172 -0.8559 0.8559 0.5172 -4.0944 461.74)" class="st6" width="2.8" height="2.8"/>
		
			<rect x="406.7" y="237" transform="matrix(0.5172 -0.8559 0.8559 0.5172 -6.962 464.4411)" class="st6" width="2.8" height="2.8"/>
		
			<rect x="403.8" y="241.8" transform="matrix(0.5172 -0.8559 0.8559 0.5172 -12.5307 464.2746)" class="st6" width="2.8" height="2.8"/>
		
			<rect x="411.6" y="239.9" transform="matrix(0.5172 -0.8559 0.8559 0.5172 -7.1285 470.0098)" class="st6" width="2.8" height="2.8"/>
		
			<rect x="408.7" y="244.8" transform="matrix(0.5172 -0.8559 0.8559 0.5172 -12.6972 469.8433)" class="st6" width="2.8" height="2.8"/>
		
			<rect x="404.8" y="245.7" transform="matrix(0.5172 -0.8559 0.8559 0.5172 -15.3982 466.9756)" class="st6" width="2.8" height="2.8"/>
		
			<rect x="407.7" y="240.9" transform="matrix(0.5172 -0.8559 0.8559 0.5172 -9.8296 467.1422)" class="st6" width="2.8" height="2.8"/>
		
			<rect x="410.6" y="236" transform="matrix(0.5172 -0.8559 0.8559 0.5172 -4.2609 467.3087)" class="st6" width="2.8" height="2.8"/>
		
			<rect x="402.3" y="244.3" transform="matrix(0.5172 -0.8559 0.8559 0.5172 -15.315 464.1913)" class="st5" width="2.8" height="2.8"/>
		
			<rect x="405.3" y="239.4" transform="matrix(0.5172 -0.8559 0.8559 0.5172 -9.7463 464.3578)" class="st5" width="2.8" height="2.8"/>
		
			<rect x="410.1" y="242.3" transform="matrix(0.5172 -0.8559 0.8559 0.5172 -9.9128 469.9265)" class="st5" width="2.8" height="2.8"/>
		
			<rect x="408.2" y="234.5" transform="matrix(0.5172 -0.8559 0.8559 0.5172 -4.1776 464.5244)" class="st5" width="2.8" height="2.8"/>
		
			<rect x="407.2" y="247.2" transform="matrix(0.5172 -0.8559 0.8559 0.5172 -15.4815 469.76)" class="st5" width="2.8" height="2.8"/>
		
			<rect x="413.1" y="237.5" transform="matrix(0.5172 -0.8559 0.8559 0.5172 -4.3442 470.093)" class="st5" width="2.8" height="2.8"/>
	</g>
	<g>
		<defs>
			
				<rect id="SVGID_1_" x="429" y="259" transform="matrix(-0.8349 -0.5504 0.5504 -0.8349 662.7486 725.3112)" width="22.3" height="8.5"/>
		</defs>
		<clipPath id="SVGID_00000085228852106952665770000006659664670074803101_">
			<use xlink:href="#SVGID_1_"  style="overflow:visible;"/>
		</clipPath>
		<g style="clip-path:url(#SVGID_00000085228852106952665770000006659664670074803101_);">
			<polygon class="st19" points="435.8,251.9 438.1,253.4 439,262.5 430.3,265.3 428,263.7 436.6,260.9 			"/>
			<polygon class="st20" points="440.5,255 442.9,256.6 443.7,265.6 435.1,268.4 432.7,266.8 441.3,264 			"/>
			<polygon class="st21" points="445.2,258.1 447.6,259.7 448.4,268.7 439.8,271.5 437.4,270 446.1,267.2 			"/>
		</g>
	</g>
</g>
</svg>
