<?xml version="1.0" encoding="utf-8"?>
<!-- Generator: Adobe Illustrator 27.2.0, SVG Export Plug-In . SVG Version: 6.00 Build 0)  -->
<svg version="1.1" xmlns="http://www.w3.org/2000/svg" xmlns:xlink="http://www.w3.org/1999/xlink" x="0px" y="0px"
	 viewBox="0 0 550 403" style="enable-background:new 0 0 550 443.7;" xml:space="preserve">
<style type="text/css">
	.st0{fill:none;stroke:#646464;stroke-width:14.1732;stroke-miterlimit:10;}
	.st1{fill:none;stroke:#FFD449;stroke-width:2.8346;stroke-miterlimit:10;}
	.st2{fill:none;stroke:#54C6EB;stroke-width:2.8346;stroke-miterlimit:10;}
	.st3{fill:none;stroke:#F4442E;stroke-width:2.8346;stroke-miterlimit:10;}
	.st4{fill:none;stroke:#FFFFFF;stroke-width:2.126;}
	.st5{fill:#646464;}
	.st6{fill:#FFFFFF;}
	.st7{fill:#09BC8A;}
	.st8{fill:none;stroke:#646464;stroke-width:2.8346;stroke-miterlimit:10;}
	.st9{fill:none;stroke:#09BC8A;stroke-width:1.9843;stroke-miterlimit:10;}
	.st10{fill:none;stroke:#09BC8A;stroke-width:2.2097;stroke-miterlimit:10;}
	.st11{fill:#FF3380;}
	.st12{fill:none;stroke:#FF3380;stroke-width:1.9843;stroke-miterlimit:10;}
	.st13{fill:none;stroke:#646464;stroke-width:0.7087;stroke-miterlimit:10;}
	.st14{fill:none;stroke:#F4442E;stroke-width:5.6693;stroke-miterlimit:10;}
	.st15{fill:none;stroke:#54C6EB;stroke-width:5.6693;stroke-miterlimit:10;}
	.st16{fill:none;stroke:#FFD449;stroke-width:5.6693;stroke-miterlimit:10;}
	.st17{fill:none;stroke:#09BC8A;stroke-width:2.8346;stroke-miterlimit:10;}
	.st18{clip-path:url(#SVGID_00000137821575107936811930000017085020792101648007_);}
	.st19{fill:#F4442E;}
	.st20{fill:#54C6EB;}
	.st21{fill:#FFD449;}
</style>
<g id="コース">
	<path class="st0" d="M235,123.9c0,0,15.7,134.9,16.5,142.3c0.9,7.4,3.4,13.1,12.8,12c9.4-1.1,44.1-8.5,50.7-10.2
		c6.5-1.7,13.1-5.7,16.5-17.6c3.4-12,8.9-31.1,24.5-36.2c8.8-2.8,15.9-4.3,26.5-0.3s30.2,10.8,52.1,8.8s61.8-5.7,74.6-7.4
		c12.8-1.7,11.7-10,11.7-12.2s-2.6-6.5-8.3-8.8c-5.7-2.3-40.1-11.7-58.1-18.5c-17.9-6.8-99.4-37-111-41.3
		c-11.7-4.3-43.3-15.7-63.2-21.6S208,86.8,205.1,85.4c-2.8-1.4-7.1-1.4-6.5,3.1c0.6,4.6,1.4,10,1.6,12.1c0.2,2.1-1.2,4.6-4.2,5
		s-20.2,3.4-33.1,8.7c-13,5.3-25.8,10.2-53.3,44.5c-13.5,16.9-35.1,42.7-43,52.4s-12.9,19.3-15.5,24.6s-24.6,49.5-26.6,53.9
		s-0.4,13.8,7,20.2c8.5,7.3,36.3,9.4,38.6-22c0.8-10.2,5-46.8,5.3-50c0.3-3.2,2.5-8,4.5-11.4c2-3.4,13-19.6,15.1-22.7
		c2-3.1,3.7-5,9.1-5.9c5.4-0.9,24.9-5,28.4-5.3c3.5-0.3,4.4,1.2,5,5.4c0.6,4.2,2.3,17.3,2.8,20.5c0.4,3.2,5.7,9.1,13.2,9.4
		c7.5,0.3,11.7,0.1,16.1-0.1c4.4-0.3,11.1-7.2,9.5-19.3s-5.6-48.7-6-53.4s0.7-14.6,10.1-19.8c9.4-5.1,24.6-13.3,27.7-15.1
		c3.1-1.8,5.6-2.8,9.5-3.4c4-0.6,6.1-0.9,8.6-0.9C231.4,116,234.1,115.8,235,123.9z"/>
</g>
<g id="セクター">
	<path class="st1" d="M31.8,274.7c-3.7,7.5-6.7,13.6-7.4,15c-2,4.4-0.4,13.8,7,20.2c8.5,7.3,36.3,9.4,38.6-22
		c0.8-10.2,5-46.8,5.3-50c0.3-3.2,2.5-8,4.5-11.4c2-3.4,13-19.6,15.1-22.7c2-3.1,3.7-5,9.1-5.9c5.4-0.9,24.9-5,28.4-5.3
		c3.5-0.3,4.4,1.2,5,5.4c0.6,4.2,2.3,17.3,2.8,20.5c0.4,3.2,5.7,9.1,13.2,9.4c7.5,0.3,11.7,0.1,16.1-0.1c4.4-0.3,11.1-7.2,9.5-19.3
		s-5.6-48.7-6-53.4s0.7-14.6,10.1-19.8c9.4-5.1,24.6-13.3,27.7-15.1c3.1-1.8,5.6-2.8,9.5-3.4c4-0.6,6.1-0.9,8.6-0.9
		c2.5,0,5.2-0.2,6.1,7.9c0,0,1.4,12.4,3.5,30"/>
	<path class="st2" d="M463,220c18.6-1.8,38-3.7,46.2-4.8c12.8-1.7,11.7-10,11.7-12.2s-2.6-6.5-8.3-8.8c-5.7-2.3-40.1-11.7-58.1-18.5
		c-17.9-6.8-99.4-37-111-41.3c-11.7-4.3-43.3-15.7-63.2-21.6S208,86.8,205.1,85.4c-2.8-1.4-7.1-1.4-6.5,3.1c0.6,4.6,1.4,10,1.6,12.1
		c0.2,2.1-1.2,4.6-4.2,5s-20.2,3.4-33.1,8.7c-13,5.3-25.8,10.2-53.3,44.5c-13.5,16.9-35.1,42.7-43,52.4s-12.9,19.3-15.5,24.6
		c-1.7,3.5-12,24.1-19.3,38.8"/>
	<path class="st3" d="M238.5,153.8c4.7,40.2,12.4,107.2,13,112.4c0.9,7.4,3.4,13.1,12.8,12c9.4-1.1,44.1-8.5,50.7-10.2
		c6.5-1.7,13.1-5.7,16.5-17.6c3.4-12,8.9-31.1,24.5-36.2c8.8-2.8,15.9-4.3,26.5-0.3s30.2,10.8,52.1,8.8c7.9-0.7,18-1.6,28.4-2.6"/>
</g>
<g id="コーナー番号">
	<g>
		<g>
			<circle class="st4" cx="246.1" cy="294" r="8.5"/>
			<circle class="st5" cx="246.1" cy="294" r="8.5"/>
		</g>
		<g>
			<path class="st6" d="M244.4,297.9v-1.6h1v-4.5h-0.9v-1.6h2.6v6.1h0.9v1.6H244.4z"/>
		</g>
	</g>
	<g>
		<g>
			<circle class="st4" cx="338.9" cy="276.9" r="8.5"/>
			<circle class="st5" cx="338.9" cy="276.9" r="8.5"/>
		</g>
		<g>
			<path class="st6" d="M336.8,280.8v-2.6c0-0.6,0.1-1,0.6-1.2l1.9-0.8v-1.6l-0.1-0.1h-0.5l-0.1,0.1v1.1h-1.7v-1.3
				c0-0.8,0.4-1.1,0.8-1.3h2.5c0.5,0.2,0.8,0.5,0.8,1.3v1.9c0,0.6-0.1,0.9-0.6,1.2l-1.9,0.8v0.9h2.4v1.6H336.8z"/>
		</g>
	</g>
	<g>
		<g>
			<circle class="st4" cx="347" cy="198" r="8.5"/>
			<circle class="st5" cx="347" cy="198" r="8.5"/>
		</g>
		<g>
			<path class="st6" d="M345.8,201.9c-0.5-0.2-0.8-0.5-0.8-1.3v-1h1.7v0.8l0.1,0.1h0.5l0.1-0.1v-1.6l-0.1-0.1h-1v-1.3h1l0.1-0.1
				v-1.5l-0.1-0.1h-0.5l-0.1,0.1v0.8h-1.7v-1c0-0.8,0.4-1.1,0.8-1.3h2.5c0.5,0.2,0.8,0.5,0.8,1.3v1.3c0,0.6-0.2,0.9-0.6,1.2
				c0.4,0.3,0.6,0.6,0.6,1.2v1.4c0,0.8-0.4,1.1-0.8,1.3H345.8z"/>
		</g>
	</g>
	<g>
		<g>
			<circle class="st4" cx="413.7" cy="242.6" r="8.5"/>
			<circle class="st5" cx="413.7" cy="242.6" r="8.5"/>
		</g>
		<g>
			<path class="st6" d="M415.4,245v1.5h-1.7V245h-2.2v-1.5l1.6-4.7h1.7l-1.6,4.6h0.5v-0.4l0.4-1h1.3v1.4h0.5v1.6H415.4z"/>
		</g>
	</g>
	<g>
		<g>
			<circle class="st4" cx="538.5" cy="209.9" r="8.5"/>
			<circle class="st5" cx="538.5" cy="209.9" r="8.5"/>
		</g>
		<g>
			<path class="st6" d="M537.2,213.8c-0.5-0.2-0.8-0.5-0.8-1.3v-1h1.6v0.8l0.1,0.1h0.6l0.1-0.1v-2.1l-0.1-0.1h-0.6l-0.1,0.1v0.4
				h-1.6v-4.5h4v1.5H538v1.6l0.4-0.4h1.3c0.5,0.2,0.8,0.5,0.8,1.3v2.4c0,0.8-0.4,1.1-0.8,1.3H537.2z"/>
		</g>
	</g>
	<g>
		<g>
			<circle class="st4" cx="192.8" cy="64.8" r="8.5"/>
			<circle class="st5" cx="192.8" cy="64.8" r="8.5"/>
		</g>
		<g>
			<path class="st6" d="M194,68.6h-2.5c-0.5-0.2-0.8-0.5-0.8-1.3v-5.1c0-0.8,0.4-1.1,0.8-1.3h2.5c0.5,0.2,0.8,0.5,0.8,1.3v1h-1.7
				v-0.8l-0.1-0.1h-0.5l-0.1,0.1v1.8l0.3-0.3h1.3c0.5,0.2,0.8,0.5,0.8,1.3v2.2C194.9,68.2,194.5,68.5,194,68.6z M193.1,67.3l0.1-0.1
				v-1.8l-0.1-0.1h-0.5l-0.1,0.1v1.8l0.1,0.1H193.1z"/>
		</g>
	</g>
	<g>
		<g>
			<circle class="st4" cx="180.1" cy="89.6" r="8.5"/>
			<circle class="st5" cx="180.1" cy="89.6" r="8.5"/>
		</g>
		<g>
			<path class="st6" d="M178.3,93.5l2.1-6.2H178v-1.5h4.1V87l-2.1,6.5H178.3z"/>
		</g>
	</g>
	<g>
		<g>
			<circle class="st4" cx="153" cy="140.6" r="8.5"/>
			<circle class="st5" cx="153" cy="140.6" r="8.5"/>
		</g>
		<g>
			<path class="st6" d="M151.8,144.4c-0.5-0.2-0.8-0.5-0.8-1.3v-1.4c0-0.6,0.2-0.9,0.6-1.2c-0.4-0.3-0.6-0.6-0.6-1.2V138
				c0-0.8,0.4-1.1,0.8-1.3h2.5c0.5,0.2,0.8,0.5,0.8,1.3v1.3c0,0.6-0.2,0.9-0.6,1.2c0.4,0.3,0.6,0.6,0.6,1.2v1.4
				c0,0.8-0.4,1.1-0.8,1.3H151.8z M152.7,139.8l0.1,0.1h0.5l0.1-0.1v-1.5l-0.1-0.1h-0.5l-0.1,0.1V139.8z M153.4,142.9v-1.6l-0.1-0.1
				h-0.5l-0.1,0.1v1.6l0.1,0.1h0.5L153.4,142.9z"/>
		</g>
	</g>
	<g>
		<g>
			<circle class="st4" cx="34.8" cy="332.6" r="8.5"/>
			<circle class="st5" cx="34.8" cy="332.6" r="8.5"/>
		</g>
		<g>
			<path class="st6" d="M33.5,336.5c-0.5-0.2-0.8-0.5-0.8-1.3v-1h1.7v0.8l0.1,0.1H35l0.1-0.1v-1.8l-0.3,0.3h-1.3
				c-0.5-0.2-0.8-0.5-0.8-1.3v-2.2c0-0.8,0.4-1.1,0.8-1.3H36c0.5,0.2,0.8,0.5,0.8,1.3v5.1c0,0.8-0.4,1.1-0.8,1.3H33.5z M35.1,332.2
				v-1.8l-0.1-0.1h-0.5l-0.1,0.1v1.8l0.1,0.1H35L35.1,332.2z"/>
		</g>
	</g>
	<g>
		<g>
			<circle class="st4" cx="144.7" cy="175.2" r="8.5"/>
			<circle class="st5" cx="144.7" cy="175.2" r="8.5"/>
		</g>
		<g>
			<path class="st6" d="M140.6,179.1v-1.6h1v-4.5h-0.9v-1.6h2.6v6.1h0.9v1.6H140.6z"/>
			<path class="st6" d="M144.9,179.1v-2.6c0-0.6,0.1-1,0.6-1.2l1.9-0.8v-1.6l-0.1-0.1h-0.5l-0.1,0.1v1.1h-1.7v-1.3
				c0-0.8,0.4-1.1,0.8-1.3h2.5c0.5,0.2,0.8,0.5,0.8,1.3v1.9c0,0.6-0.1,0.9-0.6,1.2l-1.9,0.8v0.9h2.4v1.6H144.9z"/>
		</g>
	</g>
	<g>
		<g>
			<circle class="st4" cx="129" cy="240.5" r="8.5"/>
			<circle class="st5" cx="129" cy="240.5" r="8.5"/>
		</g>
		<g>
			<path class="st6" d="M124.9,244.3v-1.6h1v-4.5H125v-1.6h2.6v6.1h0.9v1.6H124.9z"/>
			<path class="st6" d="M130,244.3c-0.5-0.2-0.8-0.5-0.8-1.3v-1h1.7v0.8l0.1,0.1h0.5l0.1-0.1v-1.6l-0.1-0.1h-1v-1.3h1l0.1-0.1v-1.5
				l-0.1-0.1H131l-0.1,0.1v0.8h-1.7v-1c0-0.8,0.4-1.1,0.8-1.3h2.5c0.5,0.2,0.8,0.5,0.8,1.3v1.3c0,0.6-0.2,0.9-0.6,1.2
				c0.4,0.3,0.6,0.6,0.6,1.2v1.4c0,0.8-0.4,1.1-0.8,1.3H130z"/>
		</g>
	</g>
	<g>
		<g>
			<circle class="st4" cx="190.8" cy="237.4" r="8.5"/>
			<circle class="st5" cx="190.8" cy="237.4" r="8.5"/>
		</g>
		<g>
			<path class="st6" d="M186.7,241.3v-1.6h1v-4.5h-0.9v-1.6h2.6v6.1h0.9v1.6H186.7z"/>
			<path class="st6" d="M194.8,239.8v1.5h-1.7v-1.5h-2.2v-1.5l1.6-4.7h1.7l-1.6,4.6h0.5v-0.4l0.4-1h1.3v1.4h0.5v1.6H194.8z"/>
		</g>
	</g>
	<g>
		<g>
			<circle class="st4" cx="193.4" cy="152.3" r="8.5"/>
			<circle class="st5" cx="193.4" cy="152.3" r="8.5"/>
		</g>
		<g>
			<path class="st6" d="M189.4,156.2v-1.6h1v-4.5h-0.9v-1.6h2.6v6.1h0.9v1.6H189.4z"/>
			<path class="st6" d="M194.5,156.2c-0.5-0.2-0.8-0.5-0.8-1.3v-1h1.6v0.8l0.1,0.1h0.6l0.1-0.1v-2.1l-0.1-0.1h-0.6l-0.1,0.1v0.4
				h-1.6v-4.5h4v1.5h-2.4v1.6l0.4-0.4h1.3c0.5,0.2,0.8,0.5,0.8,1.3v2.4c0,0.8-0.4,1.1-0.8,1.3H194.5z"/>
		</g>
	</g>
	<g>
		<g>
			<circle class="st4" cx="217.4" cy="137.4" r="8.5"/>
			<circle class="st5" cx="217.4" cy="137.4" r="8.5"/>
		</g>
		<g>
			<path class="st6" d="M213.3,141.3v-1.6h1v-4.5h-0.9v-1.6h2.6v6.1h0.9v1.6H213.3z"/>
			<path class="st6" d="M221,141.3h-2.5c-0.5-0.2-0.8-0.5-0.8-1.3v-5.1c0-0.8,0.4-1.1,0.8-1.3h2.5c0.5,0.2,0.8,0.5,0.8,1.3v1h-1.7
				v-0.8L220,135h-0.5l-0.1,0.1v1.8l0.3-0.3h1.3c0.5,0.2,0.8,0.5,0.8,1.3v2.2C221.8,140.8,221.4,141.1,221,141.3z M220,139.9
				l0.1-0.1v-1.8l-0.1-0.1h-0.5l-0.1,0.1v1.8l0.1,0.1H220z"/>
		</g>
	</g>
	<g>
		<g>
			<circle class="st4" cx="95.6" cy="240.9" r="8.5"/>
			<circle class="st5" cx="95.6" cy="240.9" r="8.5"/>
		</g>
		<g>
			<path class="st6" d="M91.5,244.8v-1.6h1v-4.5h-0.9v-1.6h2.6v6.1h0.9v1.6H91.5z"/>
			<path class="st6" d="M99.2,244.8h-2.5c-0.5-0.2-0.8-0.5-0.8-1.3v-5.1c0-0.8,0.4-1.1,0.8-1.3h2.5c0.5,0.2,0.8,0.5,0.8,1.3v5.1
				C100,244.3,99.6,244.6,99.2,244.8z M98.3,238.6l-0.1-0.1h-0.5l-0.1,0.1v4.7l0.1,0.1h0.5l0.1-0.1V238.6z"/>
		</g>
	</g>
	<g>
		<g>
			<circle class="st4" cx="111.5" cy="217.5" r="8.5"/>
			<circle class="st5" cx="111.5" cy="217.5" r="8.5"/>
		</g>
		<g>
			<path class="st6" d="M107.4,221.3v-1.6h1v-4.5h-0.9v-1.6h2.6v6.1h0.9v1.6H107.4z"/>
			<path class="st6" d="M112.1,221.3v-1.6h1v-4.5h-0.9v-1.6h2.6v6.1h0.9v1.6H112.1z"/>
		</g>
	</g>
</g>



</svg>
