<?xml version="1.0" encoding="utf-8"?>
<!-- Generator: Adobe Illustrator 26.5.0, SVG Export Plug-In . SVG Version: 6.00 Build 0)  -->
<svg version="1.1" xmlns="http://www.w3.org/2000/svg" xmlns:xlink="http://www.w3.org/1999/xlink" x="0px" y="0px"
	 viewBox="0.0 0.0 607.8 342.4" style="enable-background:new 0 0 607.8 385.1;" xml:space="preserve">
<style type="text/css">
	.st0{fill:none;stroke:#646464;stroke-width:6.382;stroke-linecap:round;stroke-linejoin:round;stroke-miterlimit:10;}
	.st1{fill:none;stroke:#FFD449;stroke-width:1.276;stroke-miterlimit:10;}
	.st2{fill:none;stroke:#54C6EB;stroke-width:1.276;stroke-miterlimit:10;}
	.st3{fill:none;stroke:#F4442E;stroke-width:1.276;stroke-miterlimit:10;}
	.st4{fill:none;stroke:#FFFFFF;stroke-width:0.957;}
	.st5{fill:#646464;}
	.st6{fill:#FFFFFF;}
	.st7{fill:none;stroke:#646464;stroke-width:1.276;stroke-miterlimit:10;}
	.st8{fill:#FF3380;}
	.st9{fill:none;stroke:#FF3380;stroke-width:0.893;stroke-miterlimit:10;}
	.st10{fill:#09BC8A;}
	.st11{fill:none;stroke:#09BC8A;stroke-width:0.893;stroke-miterlimit:10;}
	.st12{fill:none;stroke:#09BC8A;stroke-width:1.276;stroke-miterlimit:10;}
	.st13{clip-path:url(#SVGID_00000044883103280750515430000008519994516304766604_);}
	.st14{fill:#F4442E;}
	.st15{fill:#54C6EB;}
	.st16{fill:#FFD449;}
	.st17{fill:none;stroke:#646464;stroke-width:0.319;stroke-miterlimit:10;}
	.st18{fill:none;stroke:#F4442E;stroke-width:2.553;stroke-miterlimit:10;}
	.st19{fill:none;stroke:#54C6EB;stroke-width:2.553;stroke-miterlimit:10;}
	.st20{fill:none;stroke:#FFD449;stroke-width:2.553;stroke-miterlimit:10;}
</style>
<g id="コース">
	<path class="st0" d="M455.8,309.4c-7.8,0.6-207.3,5.5-209.8,5.7c-2.5,0.2-5.5-0.5-6.2-1.4c-0.7-0.9-2.1-5.3-2.7-8.2
		c-0.7-3-5.7-11.2-12.1-14.9c-6.4-3.7-14.9-6.6-29-4.8c-14.2,1.8-48.9,1.6-62.4,0.2c-13.5-1.4-38.6-5.9-46.9-8
		c-8.2-2.1-18.1-4.6-20.3-5.7c-2.3-1.1-5.7-1.6-6.4-5.9c-0.7-4.3,0.9-5,2.5-7.8c1.6-2.7,11.4-16.2,12.8-18.3
		c1.4-2.1,1.8-3.2,1.8-5.7s-0.7-4.1-3-6.2c-2.3-2.1-31.7-28.8-34.3-31.5c-3-3.2-5.3-5.7-4.8-12.6c0.5-6.9,2.5-18.3,3-23.8
		c0.5-5.5,1.8-13.3,3.4-18.1c1.6-4.8,3.9-9.4,7.3-17.6c3.4-8.2,7.5-17.1,8.7-21.7c1.1-4.6,3.2-14.2,3.7-17.6
		c0.5-3.4,1.6-7.3,7.5-6.9c5.9,0.5,16.9-0.5,24.5-6.4c7.5-5.9,20.6-22.2,42.3-22.2s33.6,9.8,41.4,15.1s21.5,15.3,26.5,20.3
		c5,5,12.8,12.3,26.3,45.5c10.6,26.1,19.3,38.9,40.7,53.2c26.3,17.6,43.2,15.1,71.1,13.7c9.4-0.5,20.8-1.6,25.6-2.1s7.1-2.3,9.4-5.5
		c2.3-3.2,12.3-16.9,13.7-19c1.4-2.1,2.5-4.1,9.1-4.6c6.6-0.5,53.5-4.8,60.3-5c6.9-0.2,18.7-0.2,33.4,6.6
		c14.6,6.9,62.4,32.2,66.3,34.3c3.9,2.1,10.3,6.4,11.7,7.8c1.4,1.4,3.2,3.7,1.4,7.3c-1.8,3.7-16.5,26.7-18.7,32.5
		c-2.3,5.7-5.7,12.1-8.5,16.5c-2.7,4.3-9.1,13-21.3,10.1c-12.1-3-43-11-45.7-11.4c-2.7-0.5-7.1-1.1-7.1,3.9c0,5,1.4,18.5,1.6,25.4
		C472.7,301.7,465.4,308.7,455.8,309.4z"/>
</g>
<g id="セクター">
	<path class="st1" d="M341.3,198.1c9.4-0.5,20.8-1.6,25.6-2.1s7.1-2.3,9.4-5.5c2.3-3.2,12.3-16.9,13.7-19c1.4-2.1,2.5-4.1,9.1-4.6
		c6.6-0.5,53.5-4.8,60.3-5c6.9-0.2,18.7-0.2,33.4,6.6c14.6,6.9,62.4,32.2,66.3,34.3c3.9,2.1,10.3,6.4,11.7,7.8
		c1.4,1.4,3.2,3.7,1.4,7.3c-1.8,3.7-16.5,26.7-18.7,32.5c-2.3,5.7-5.7,12.1-8.5,16.5c-2.7,4.3-9.1,13-21.3,10.1
		c-12.1-3-43-11-45.7-11.4c-2.7-0.5-7.1-1.1-7.1,3.9c0,5,1.4,18.5,1.6,25.4c0.2,6.9-7.1,13.9-16.7,14.6c-4,0.3-58.7,1.7-111.3,3.1"
		/>
	<path class="st2" d="M57.4,103.3c1.1-4.6,3.2-14.2,3.7-17.6c0.5-3.4,1.6-7.3,7.5-6.9c5.9,0.5,16.9-0.5,24.5-6.4
		c7.5-5.9,20.6-22.2,42.3-22.2s33.6,9.8,41.4,15.1s21.5,15.3,26.5,20.3c5,5,12.8,12.3,26.3,45.5c10.6,26.1,19.3,38.9,40.7,53.2
		c26.3,17.6,43.2,15.1,71.1,13.7"/>
	<path class="st3" d="M344.5,312.5c-49.6,1.3-97.3,2.5-98.5,2.6c-2.5,0.2-5.5-0.5-6.2-1.4c-0.7-0.9-2.1-5.3-2.7-8.2
		c-0.7-3-5.7-11.2-12.1-14.9c-6.4-3.7-14.9-6.6-29-4.8c-14.2,1.8-48.9,1.6-62.4,0.2c-13.5-1.4-38.6-5.9-46.9-8
		c-8.2-2.1-18.1-4.6-20.3-5.7c-2.3-1.1-5.7-1.6-6.4-5.9c-0.7-4.3,0.9-5,2.5-7.8c1.6-2.7,11.4-16.2,12.8-18.3
		c1.4-2.1,1.8-3.2,1.8-5.7s-0.7-4.1-3-6.2c-2.3-2.1-31.7-28.8-34.3-31.5c-3-3.2-5.3-5.7-4.8-12.6c0.5-6.9,2.5-18.3,3-23.8
		c0.5-5.5,1.8-13.3,3.4-18.1c1.6-4.8,3.9-9.4,7.3-17.6c3.4-8.2,7.5-17.1,8.7-21.7"/>
</g>
<g id="コーナー番号">
	<g>
		<g>
			
			
		</g>
		<g>
			
		</g>
	</g>
	<g>
		<g>
			
			
		</g>
		<g>
			
		</g>
	</g>
	<g>
		<g>
			
			
		</g>
		<g>
			
		</g>
	</g>
	<g>
		<g>
			
			
		</g>
		<g>
			
		</g>
	</g>
	<g>
		<g>
			
			
		</g>
		<g>
			
		</g>
	</g>
	<g>
		<g>
			
			
		</g>
		<g>
			
		</g>
	</g>
	<g>
		<g>
			
			
		</g>
		<g>
			
		</g>
	</g>
	<g>
		<g>
			
			
		</g>
		<g>
			
		</g>
	</g>
	<g>
		<g>
			
			
		</g>
		<g>
			
		</g>
	</g>
	<g>
		<g>
			
			
		</g>
		<g>
			
			
		</g>
	</g>
	<g>
		<g>
			
			
		</g>
		<g>
			
			
		</g>
	</g>
	<g>
		<g>
			
			
		</g>
		<g>
			
			
		</g>
	</g>
	<g>
		<g>
			
			
		</g>
		<g>
			
			
		</g>
	</g>
	<g>
		<g>
			
			
		</g>
		<g>
			
			
		</g>
	</g>
</g>



</svg>
