<?xml version="1.0" encoding="utf-8"?>
<!-- Generator: Adobe Illustrator 26.5.0, SVG Export Plug-In . SVG Version: 6.00 Build 0)  -->
<svg version="1.1" xmlns="http://www.w3.org/2000/svg" xmlns:xlink="http://www.w3.org/1999/xlink" x="0px" y="0px"
	 viewBox="0 0 646.9 425.4" style="enable-background:new 0 0 646.9 425.4;" xml:space="preserve">
<style type="text/css">
	.st0{fill:none;stroke:#646464;stroke-width:14.1732;stroke-linecap:round;stroke-linejoin:round;stroke-miterlimit:10;}
	.st1{fill:none;stroke:#FFD449;stroke-width:2.8346;stroke-miterlimit:10;}
	.st2{fill:none;stroke:#54C6EB;stroke-width:2.8346;stroke-miterlimit:10;}
	.st3{fill:none;stroke:#F4442E;stroke-width:2.8346;stroke-miterlimit:10;}
	.st4{fill:none;stroke:#FFFFFF;stroke-width:2.126;}
	.st5{fill:#646464;}
	.st6{fill:#FFFFFF;}
	.st7{fill:none;stroke:#646464;stroke-width:2.8346;stroke-miterlimit:10;}
	.st8{fill:#FF3380;}
	.st9{fill:none;stroke:#FF3380;stroke-width:1.9843;stroke-miterlimit:10;}
	.st10{fill:#09BC8A;}
	.st11{fill:none;stroke:#09BC8A;stroke-width:1.9843;stroke-miterlimit:10;}
	.st12{fill:none;stroke:#09BC8A;stroke-width:2.2097;stroke-miterlimit:10;}
	.st13{fill:none;stroke:#F4442E;stroke-width:5.6693;stroke-miterlimit:10;}
	.st14{fill:none;stroke:#54C6EB;stroke-width:5.6693;stroke-miterlimit:10;}
	.st15{fill:none;stroke:#FFD449;stroke-width:5.6693;stroke-miterlimit:10;}
	.st16{fill:none;stroke:#09BC8A;stroke-width:2.8346;stroke-miterlimit:10;}
	.st17{clip-path:url(#SVGID_00000088824697458540873400000017804721473239325316_);}
	.st18{fill:#F4442E;}
	.st19{fill:#54C6EB;}
	.st20{fill:#FFD449;}
</style>
<g id="コース">
	<path class="st0" d="M462.2,303.7c0,0-194,46.1-198,47c-4,0.9-8.8,3.5-13.6-5.7c-4.8-9.2-16.2-28.1-28.5-46.1
		c-12.3-18-49.6-76.8-56.6-97c-7-20.2-18-52.2-31.6-74.2s-40-49.2-48.3-58.8S62.2,45.1,59.1,41.1S54.8,31,63.5,29.7
		c8.8-1.3,40-3.1,61.5-2.2c21.5,0.9,61.5,9.2,75.5,13.2s61.9,15.4,74.2,17.1c12.3,1.8,81.7,7,90.4,7.9c8.8,0.9,11,4,12.6,7.5
		c1.6,3.5-0.9,11.1-5.7,18.3s-11,13-18.7,18.9c-7.8,5.9-24.1,13.2-40.1,14.9c-16,1.8-34.5-2.6-48.4-6.4c-13.9-3.8-27.2-6.4-35.1-7
		c-9.8-0.7-24.1,0.8-30.4,11.1c-5,8-7.9,15.5-7.6,23.4c0.3,7.9,6.4,16.2,10.2,23.6c3.8,7.3,19.5,37,22,41.3
		c2.5,4.2,9.7,14.9,25.2,14.9s21.4-5.4,28.2-14.8c6.9-9.4,24.9-28.7,55-30c30.1-1.3,176.3,2,180.4,2.3c4.1,0.3,6.6,1,8.2,1.8
		s8,3.8,9.7,5.1c1.6,1.3,4,2.3,6,9.4c2,7,16.2,56.5,17,59.9c0.7,3.4,1,6.3-0.9,9.8c-1.9,3.5-9.5,8.5-14.9,11.4
		c-5.4,2.9-20.9,9.7-43.5,15.1C479.5,299.6,462.2,303.7,462.2,303.7z"/>
</g>
<g id="セクター">
	<path class="st1" d="M223.8,211.2c2.5,4.2,9.7,14.9,25.2,14.9s21.4-5.4,28.2-14.8c6.9-9.4,24.9-28.7,55-30
		c30.1-1.3,176.3,2,180.4,2.3c4.1,0.3,6.6,1,8.2,1.8s8,3.8,9.7,5.1c1.6,1.3,4,2.3,6,9.4c2,7,16.2,56.5,17,59.9
		c0.7,3.4,1,6.3-0.9,9.8c-1.9,3.5-9.5,8.5-14.9,11.4c-5.4,2.9-20.9,9.7-43.5,15.1c-14.7,3.5-32,7.6-32,7.6s-34.8,8.3-75.1,17.8"/>
	<path class="st2" d="M99.2,84.1c-5.9-6.6-10.9-12-13.8-15.3c-8.3-9.7-23.3-23.7-26.3-27.7S54.8,31,63.5,29.7
		c8.8-1.3,40-3.1,61.5-2.2c21.5,0.9,61.5,9.2,75.5,13.2s61.9,15.4,74.2,17.1c12.3,1.8,81.7,7,90.4,7.9c8.8,0.9,11,4,12.6,7.5
		c1.6,3.5-0.9,11.1-5.7,18.3s-11,13-18.7,18.9c-7.8,5.9-24.1,13.2-40.1,14.9c-16,1.8-34.5-2.6-48.4-6.4c-13.9-3.8-27.2-6.4-35.1-7
		c-9.8-0.7-24.1,0.8-30.4,11.1c-5,8-7.9,15.5-7.6,23.4c0.3,7.9,6.4,16.2,10.2,23.6c3.8,7.3,19.5,37,22,41.3"/>
	<path class="st3" d="M387,321.5c-55.1,13.1-120.6,28.6-122.9,29.1c-4,0.9-8.8,3.5-13.6-5.7c-4.8-9.2-16.2-28.1-28.5-46.1
		c-12.3-18-49.6-76.8-56.6-97c-7-20.2-18-52.2-31.6-74.2c-8.9-14.4-23.3-31.1-34.5-43.5"/>
</g>
<g id="コーナー番号">
	<g>
		<g>
			<circle class="st4" cx="249.2" cy="371.3" r="8.5"/>
			<circle class="st5" cx="249.2" cy="371.3" r="8.5"/>
		</g>
		<g>
			<path class="st6" d="M247.5,375.2v-1.6h1v-4.5h-0.9v-1.6h2.6v6.1h0.9v1.6H247.5z"/>
		</g>
	</g>
	<g>
		<g>
			<circle class="st4" cx="149.6" cy="113.2" r="8.5"/>
			<circle class="st5" cx="149.6" cy="113.2" r="8.5"/>
		</g>
		<g>
			<path class="st6" d="M147.6,117.1v-2.6c0-0.6,0.1-1,0.6-1.2l1.9-0.8V111l-0.1-0.1h-0.5l-0.1,0.1v1.1h-1.7v-1.3
				c0-0.8,0.4-1.1,0.8-1.3h2.5c0.5,0.2,0.8,0.5,0.8,1.3v1.9c0,0.6-0.1,0.9-0.6,1.2l-1.9,0.8v0.9h2.4v1.6H147.6z"/>
		</g>
	</g>
	<g>
		<g>
			<circle class="st4" cx="37.7" cy="29.6" r="8.5"/>
			<circle class="st5" cx="37.7" cy="29.6" r="8.5"/>
		</g>
		<g>
			<path class="st6" d="M36.5,33.5c-0.5-0.2-0.8-0.5-0.8-1.3v-1h1.7V32l0.1,0.1H38l0.1-0.1v-1.6L38,30.3h-1V29h1l0.1-0.1v-1.5
				L38,27.2h-0.5l-0.1,0.1v0.8h-1.7v-1c0-0.8,0.4-1.1,0.8-1.3h2.5c0.5,0.2,0.8,0.5,0.8,1.3v1.3c0,0.6-0.2,0.9-0.6,1.2
				c0.4,0.3,0.6,0.6,0.6,1.2v1.4c0,0.8-0.4,1.1-0.8,1.3H36.5z"/>
		</g>
	</g>
	<g>
		<g>
			<circle class="st4" cx="399.4" cy="60.3" r="8.5"/>
			<circle class="st5" cx="399.4" cy="60.3" r="8.5"/>
		</g>
		<g>
			<path class="st6" d="M401.1,62.7v1.5h-1.7v-1.5h-2.2v-1.5l1.6-4.7h1.7l-1.6,4.6h0.5v-0.4l0.4-1h1.3v1.4h0.5v1.6H401.1z"/>
		</g>
	</g>
	<g>
		<g>
			<circle class="st4" cx="335.4" cy="139.8" r="8.5"/>
			<circle class="st5" cx="335.4" cy="139.8" r="8.5"/>
		</g>
		<g>
			<path class="st6" d="M334.1,143.7c-0.5-0.2-0.8-0.5-0.8-1.3v-1h1.6v0.8l0.1,0.1h0.6l0.1-0.1v-2.1l-0.1-0.1H335l-0.1,0.1v0.4h-1.6
				V136h4v1.5h-2.4v1.6l0.4-0.4h1.3c0.5,0.2,0.8,0.5,0.8,1.3v2.4c0,0.8-0.4,1.1-0.8,1.3H334.1z"/>
		</g>
	</g>
	<g>
		<g>
			<circle class="st4" cx="181" cy="115.1" r="8.5"/>
			<circle class="st5" cx="181" cy="115.1" r="8.5"/>
		</g>
		<g>
			<path class="st6" d="M182.3,119h-2.5c-0.5-0.2-0.8-0.5-0.8-1.3v-5.1c0-0.8,0.4-1.1,0.8-1.3h2.5c0.5,0.2,0.8,0.5,0.8,1.3v1h-1.7
				v-0.8l-0.1-0.1h-0.5l-0.1,0.1v1.8l0.3-0.3h1.3c0.5,0.2,0.8,0.5,0.8,1.3v2.2C183.1,118.5,182.7,118.8,182.3,119z M181.3,117.6
				l0.1-0.1v-1.8l-0.1-0.1h-0.5l-0.1,0.1v1.8l0.1,0.1H181.3z"/>
		</g>
	</g>
	<g>
		<g>
			<circle class="st4" cx="234.3" cy="244.7" r="8.5"/>
			<circle class="st5" cx="234.3" cy="244.7" r="8.5"/>
		</g>
		<g>
			<path class="st6" d="M232.5,248.6l2.1-6.2h-2.4v-1.5h4.1v1.2l-2.1,6.5H232.5z"/>
		</g>
	</g>
	<g>
		<g>
			<circle class="st4" cx="298.6" cy="169.9" r="8.5"/>
			<circle class="st5" cx="298.6" cy="169.9" r="8.5"/>
		</g>
		<g>
			<path class="st6" d="M297.3,173.8c-0.5-0.2-0.8-0.5-0.8-1.3v-1.4c0-0.6,0.2-0.9,0.6-1.2c-0.4-0.3-0.6-0.6-0.6-1.2v-1.3
				c0-0.8,0.4-1.1,0.8-1.3h2.5c0.5,0.2,0.8,0.5,0.8,1.3v1.3c0,0.6-0.2,0.9-0.6,1.2c0.4,0.3,0.6,0.6,0.6,1.2v1.4
				c0,0.8-0.4,1.1-0.8,1.3H297.3z M298.2,169.2l0.1,0.1h0.5l0.1-0.1v-1.5l-0.1-0.1h-0.5l-0.1,0.1V169.2z M298.9,172.3v-1.6l-0.1-0.1
				h-0.5l-0.1,0.1v1.6l0.1,0.1h0.5L298.9,172.3z"/>
		</g>
	</g>
	<g>
		<g>
			<circle class="st4" cx="539.7" cy="171.1" r="8.5"/>
			<circle class="st5" cx="539.7" cy="171.1" r="8.5"/>
		</g>
		<g>
			<path class="st6" d="M538.5,175c-0.5-0.2-0.8-0.5-0.8-1.3v-1h1.7v0.8l0.1,0.1h0.5l0.1-0.1v-1.8l-0.3,0.3h-1.3
				c-0.5-0.2-0.8-0.5-0.8-1.3v-2.2c0-0.8,0.4-1.1,0.8-1.3h2.5c0.5,0.2,0.8,0.5,0.8,1.3v5.1c0,0.8-0.4,1.1-0.8,1.3H538.5z
				 M540.1,170.7v-1.8l-0.1-0.1h-0.5l-0.1,0.1v1.8l0.1,0.1h0.5L540.1,170.7z"/>
		</g>
	</g>
	<g>
		<g>
			<circle class="st4" cx="569.6" cy="277.8" r="8.5"/>
			<circle class="st5" cx="569.6" cy="277.8" r="8.5"/>
		</g>
		<g>
			<path class="st6" d="M565.6,281.7v-1.6h1v-4.5h-0.9v-1.6h2.6v6.1h0.9v1.6H565.6z"/>
			<path class="st6" d="M573.2,281.7h-2.5c-0.5-0.2-0.8-0.5-0.8-1.3v-5.1c0-0.8,0.4-1.1,0.8-1.3h2.5c0.5,0.2,0.8,0.5,0.8,1.3v5.1
				C574,281.3,573.7,281.6,573.2,281.7z M572.3,275.6l-0.1-0.1h-0.5l-0.1,0.1v4.7l0.1,0.1h0.5l0.1-0.1V275.6z"/>
		</g>
	</g>
</g>



</svg>
