<?xml version="1.0" encoding="utf-8"?>
<!-- Generator: Adobe Illustrator 27.2.0, SVG Export Plug-In . SVG Version: 6.00 Build 0)  -->
<svg version="1.1" xmlns="http://www.w3.org/2000/svg" xmlns:xlink="http://www.w3.org/1999/xlink" x="0px" y="0px"
	 viewBox="0 0 550 403" style="enable-background:new 0 0 550 443.7;" xml:space="preserve">
<style type="text/css">
	.st0{fill:none;stroke:#646464;stroke-width:14.1732;stroke-miterlimit:10;}
	.st1{fill:none;stroke:#FFD449;stroke-width:2.8346;stroke-miterlimit:10;}
	.st2{fill:none;stroke:#54C6EB;stroke-width:2.8346;stroke-miterlimit:10;}
	.st3{fill:none;stroke:#F4442E;stroke-width:2.8346;stroke-miterlimit:10;}
	.st4{fill:none;stroke:#FFFFFF;stroke-width:2.126;}
	.st5{fill:#646464;}
	.st6{fill:#FFFFFF;}
	.st7{fill:#09BC8A;}
	.st8{fill:none;stroke:#646464;stroke-width:2.8346;stroke-miterlimit:10;}
	.st9{fill:none;stroke:#09BC8A;stroke-width:1.9843;stroke-miterlimit:10;}
	.st10{fill:none;stroke:#09BC8A;stroke-width:2.2097;stroke-miterlimit:10;}
	.st11{fill:#FF3380;}
	.st12{fill:none;stroke:#FF3380;stroke-width:1.9843;stroke-miterlimit:10;}
	.st13{fill:none;stroke:#646464;stroke-width:0.7087;stroke-miterlimit:10;}
	.st14{fill:none;stroke:#F4442E;stroke-width:5.6693;stroke-miterlimit:10;}
	.st15{fill:none;stroke:#54C6EB;stroke-width:5.6693;stroke-miterlimit:10;}
	.st16{fill:none;stroke:#FFD449;stroke-width:5.6693;stroke-miterlimit:10;}
	.st17{fill:none;stroke:#09BC8A;stroke-width:2.8346;stroke-miterlimit:10;}
	.st18{clip-path:url(#SVGID_00000137821575107936811930000017085020792101648007_);}
	.st19{fill:#F4442E;}
	.st20{fill:#54C6EB;}
	.st21{fill:#FFD449;}
</style>
<g id="コース">
	<path class="st0" d="M235,123.9c0,0,15.7,134.9,16.5,142.3c0.9,7.4,3.4,13.1,12.8,12c9.4-1.1,44.1-8.5,50.7-10.2
		c6.5-1.7,13.1-5.7,16.5-17.6c3.4-12,8.9-31.1,24.5-36.2c8.8-2.8,15.9-4.3,26.5-0.3s30.2,10.8,52.1,8.8s61.8-5.7,74.6-7.4
		c12.8-1.7,11.7-10,11.7-12.2s-2.6-6.5-8.3-8.8c-5.7-2.3-40.1-11.7-58.1-18.5c-17.9-6.8-99.4-37-111-41.3
		c-11.7-4.3-43.3-15.7-63.2-21.6S208,86.8,205.1,85.4c-2.8-1.4-7.1-1.4-6.5,3.1c0.6,4.6,1.4,10,1.6,12.1c0.2,2.1-1.2,4.6-4.2,5
		s-20.2,3.4-33.1,8.7c-13,5.3-25.8,10.2-53.3,44.5c-13.5,16.9-35.1,42.7-43,52.4s-12.9,19.3-15.5,24.6s-24.6,49.5-26.6,53.9
		s-0.4,13.8,7,20.2c8.5,7.3,36.3,9.4,38.6-22c0.8-10.2,5-46.8,5.3-50c0.3-3.2,2.5-8,4.5-11.4c2-3.4,13-19.6,15.1-22.7
		c2-3.1,3.7-5,9.1-5.9c5.4-0.9,24.9-5,28.4-5.3c3.5-0.3,4.4,1.2,5,5.4c0.6,4.2,2.3,17.3,2.8,20.5c0.4,3.2,5.7,9.1,13.2,9.4
		c7.5,0.3,11.7,0.1,16.1-0.1c4.4-0.3,11.1-7.2,9.5-19.3s-5.6-48.7-6-53.4s0.7-14.6,10.1-19.8c9.4-5.1,24.6-13.3,27.7-15.1
		c3.1-1.8,5.6-2.8,9.5-3.4c4-0.6,6.1-0.9,8.6-0.9C231.4,116,234.1,115.8,235,123.9z"/>
</g>
<g id="セクター">
	<path class="st1" d="M31.8,274.7c-3.7,7.5-6.7,13.6-7.4,15c-2,4.4-0.4,13.8,7,20.2c8.5,7.3,36.3,9.4,38.6-22
		c0.8-10.2,5-46.8,5.3-50c0.3-3.2,2.5-8,4.5-11.4c2-3.4,13-19.6,15.1-22.7c2-3.1,3.7-5,9.1-5.9c5.4-0.9,24.9-5,28.4-5.3
		c3.5-0.3,4.4,1.2,5,5.4c0.6,4.2,2.3,17.3,2.8,20.5c0.4,3.2,5.7,9.1,13.2,9.4c7.5,0.3,11.7,0.1,16.1-0.1c4.4-0.3,11.1-7.2,9.5-19.3
		s-5.6-48.7-6-53.4s0.7-14.6,10.1-19.8c9.4-5.1,24.6-13.3,27.7-15.1c3.1-1.8,5.6-2.8,9.5-3.4c4-0.6,6.1-0.9,8.6-0.9
		c2.5,0,5.2-0.2,6.1,7.9c0,0,1.4,12.4,3.5,30"/>
	<path class="st2" d="M463,220c18.6-1.8,38-3.7,46.2-4.8c12.8-1.7,11.7-10,11.7-12.2s-2.6-6.5-8.3-8.8c-5.7-2.3-40.1-11.7-58.1-18.5
		c-17.9-6.8-99.4-37-111-41.3c-11.7-4.3-43.3-15.7-63.2-21.6S208,86.8,205.1,85.4c-2.8-1.4-7.1-1.4-6.5,3.1c0.6,4.6,1.4,10,1.6,12.1
		c0.2,2.1-1.2,4.6-4.2,5s-20.2,3.4-33.1,8.7c-13,5.3-25.8,10.2-53.3,44.5c-13.5,16.9-35.1,42.7-43,52.4s-12.9,19.3-15.5,24.6
		c-1.7,3.5-12,24.1-19.3,38.8"/>
	<path class="st3" d="M238.5,153.8c4.7,40.2,12.4,107.2,13,112.4c0.9,7.4,3.4,13.1,12.8,12c9.4-1.1,44.1-8.5,50.7-10.2
		c6.5-1.7,13.1-5.7,16.5-17.6c3.4-12,8.9-31.1,24.5-36.2c8.8-2.8,15.9-4.3,26.5-0.3s30.2,10.8,52.1,8.8c7.9-0.7,18-1.6,28.4-2.6"/>
</g>
<g id="コーナー番号">
	<g>
		<g>
			<circle class="st4" cx="246.1" cy="294" r="8.5"/>
			<circle class="st5" cx="246.1" cy="294" r="8.5"/>
		</g>
		<g>
			<path class="st6" d="M244.4,297.9v-1.6h1v-4.5h-0.9v-1.6h2.6v6.1h0.9v1.6H244.4z"/>
		</g>
	</g>
	<g>
		<g>
			<circle class="st4" cx="338.9" cy="276.9" r="8.5"/>
			<circle class="st5" cx="338.9" cy="276.9" r="8.5"/>
		</g>
		<g>
			<path class="st6" d="M336.8,280.8v-2.6c0-0.6,0.1-1,0.6-1.2l1.9-0.8v-1.6l-0.1-0.1h-0.5l-0.1,0.1v1.1h-1.7v-1.3
				c0-0.8,0.4-1.1,0.8-1.3h2.5c0.5,0.2,0.8,0.5,0.8,1.3v1.9c0,0.6-0.1,0.9-0.6,1.2l-1.9,0.8v0.9h2.4v1.6H336.8z"/>
		</g>
	</g>
	<g>
		<g>
			<circle class="st4" cx="347" cy="198" r="8.5"/>
			<circle class="st5" cx="347" cy="198" r="8.5"/>
		</g>
		<g>
			<path class="st6" d="M345.8,201.9c-0.5-0.2-0.8-0.5-0.8-1.3v-1h1.7v0.8l0.1,0.1h0.5l0.1-0.1v-1.6l-0.1-0.1h-1v-1.3h1l0.1-0.1
				v-1.5l-0.1-0.1h-0.5l-0.1,0.1v0.8h-1.7v-1c0-0.8,0.4-1.1,0.8-1.3h2.5c0.5,0.2,0.8,0.5,0.8,1.3v1.3c0,0.6-0.2,0.9-0.6,1.2
				c0.4,0.3,0.6,0.6,0.6,1.2v1.4c0,0.8-0.4,1.1-0.8,1.3H345.8z"/>
		</g>
	</g>
	<g>
		<g>
			<circle class="st4" cx="413.7" cy="242.6" r="8.5"/>
			<circle class="st5" cx="413.7" cy="242.6" r="8.5"/>
		</g>
		<g>
			<path class="st6" d="M415.4,245v1.5h-1.7V245h-2.2v-1.5l1.6-4.7h1.7l-1.6,4.6h0.5v-0.4l0.4-1h1.3v1.4h0.5v1.6H415.4z"/>
		</g>
	</g>
	<g>
		<g>
			<circle class="st4" cx="538.5" cy="209.9" r="8.5"/>
			<circle class="st5" cx="538.5" cy="209.9" r="8.5"/>
		</g>
		<g>
			<path class="st6" d="M537.2,213.8c-0.5-0.2-0.8-0.5-0.8-1.3v-1h1.6v0.8l0.1,0.1h0.6l0.1-0.1v-2.1l-0.1-0.1h-0.6l-0.1,0.1v0.4
				h-1.6v-4.5h4v1.5H538v1.6l0.4-0.4h1.3c0.5,0.2,0.8,0.5,0.8,1.3v2.4c0,0.8-0.4,1.1-0.8,1.3H537.2z"/>
		</g>
	</g>
	<g>
		<g>
			<circle class="st4" cx="192.8" cy="64.8" r="8.5"/>
			<circle class="st5" cx="192.8" cy="64.8" r="8.5"/>
		</g>
		<g>
			<path class="st6" d="M194,68.6h-2.5c-0.5-0.2-0.8-0.5-0.8-1.3v-5.1c0-0.8,0.4-1.1,0.8-1.3h2.5c0.5,0.2,0.8,0.5,0.8,1.3v1h-1.7
				v-0.8l-0.1-0.1h-0.5l-0.1,0.1v1.8l0.3-0.3h1.3c0.5,0.2,0.8,0.5,0.8,1.3v2.2C194.9,68.2,194.5,68.5,194,68.6z M193.1,67.3l0.1-0.1
				v-1.8l-0.1-0.1h-0.5l-0.1,0.1v1.8l0.1,0.1H193.1z"/>
		</g>
	</g>
	<g>
		<g>
			<circle class="st4" cx="180.1" cy="89.6" r="8.5"/>
			<circle class="st5" cx="180.1" cy="89.6" r="8.5"/>
		</g>
		<g>
			<path class="st6" d="M178.3,93.5l2.1-6.2H178v-1.5h4.1V87l-2.1,6.5H178.3z"/>
		</g>
	</g>
	<g>
		<g>
			<circle class="st4" cx="153" cy="140.6" r="8.5"/>
			<circle class="st5" cx="153" cy="140.6" r="8.5"/>
		</g>
		<g>
			<path class="st6" d="M151.8,144.4c-0.5-0.2-0.8-0.5-0.8-1.3v-1.4c0-0.6,0.2-0.9,0.6-1.2c-0.4-0.3-0.6-0.6-0.6-1.2V138
				c0-0.8,0.4-1.1,0.8-1.3h2.5c0.5,0.2,0.8,0.5,0.8,1.3v1.3c0,0.6-0.2,0.9-0.6,1.2c0.4,0.3,0.6,0.6,0.6,1.2v1.4
				c0,0.8-0.4,1.1-0.8,1.3H151.8z M152.7,139.8l0.1,0.1h0.5l0.1-0.1v-1.5l-0.1-0.1h-0.5l-0.1,0.1V139.8z M153.4,142.9v-1.6l-0.1-0.1
				h-0.5l-0.1,0.1v1.6l0.1,0.1h0.5L153.4,142.9z"/>
		</g>
	</g>
	<g>
		<g>
			<circle class="st4" cx="34.8" cy="332.6" r="8.5"/>
			<circle class="st5" cx="34.8" cy="332.6" r="8.5"/>
		</g>
		<g>
			<path class="st6" d="M33.5,336.5c-0.5-0.2-0.8-0.5-0.8-1.3v-1h1.7v0.8l0.1,0.1H35l0.1-0.1v-1.8l-0.3,0.3h-1.3
				c-0.5-0.2-0.8-0.5-0.8-1.3v-2.2c0-0.8,0.4-1.1,0.8-1.3H36c0.5,0.2,0.8,0.5,0.8,1.3v5.1c0,0.8-0.4,1.1-0.8,1.3H33.5z M35.1,332.2
				v-1.8l-0.1-0.1h-0.5l-0.1,0.1v1.8l0.1,0.1H35L35.1,332.2z"/>
		</g>
	</g>
	<g>
		<g>
			<circle class="st4" cx="144.7" cy="175.2" r="8.5"/>
			<circle class="st5" cx="144.7" cy="175.2" r="8.5"/>
		</g>
		<g>
			<path class="st6" d="M140.6,179.1v-1.6h1v-4.5h-0.9v-1.6h2.6v6.1h0.9v1.6H140.6z"/>
			<path class="st6" d="M144.9,179.1v-2.6c0-0.6,0.1-1,0.6-1.2l1.9-0.8v-1.6l-0.1-0.1h-0.5l-0.1,0.1v1.1h-1.7v-1.3
				c0-0.8,0.4-1.1,0.8-1.3h2.5c0.5,0.2,0.8,0.5,0.8,1.3v1.9c0,0.6-0.1,0.9-0.6,1.2l-1.9,0.8v0.9h2.4v1.6H144.9z"/>
		</g>
	</g>
	<g>
		<g>
			<circle class="st4" cx="129" cy="240.5" r="8.5"/>
			<circle class="st5" cx="129" cy="240.5" r="8.5"/>
		</g>
		<g>
			<path class="st6" d="M124.9,244.3v-1.6h1v-4.5H125v-1.6h2.6v6.1h0.9v1.6H124.9z"/>
			<path class="st6" d="M130,244.3c-0.5-0.2-0.8-0.5-0.8-1.3v-1h1.7v0.8l0.1,0.1h0.5l0.1-0.1v-1.6l-0.1-0.1h-1v-1.3h1l0.1-0.1v-1.5
				l-0.1-0.1H131l-0.1,0.1v0.8h-1.7v-1c0-0.8,0.4-1.1,0.8-1.3h2.5c0.5,0.2,0.8,0.5,0.8,1.3v1.3c0,0.6-0.2,0.9-0.6,1.2
				c0.4,0.3,0.6,0.6,0.6,1.2v1.4c0,0.8-0.4,1.1-0.8,1.3H130z"/>
		</g>
	</g>
	<g>
		<g>
			<circle class="st4" cx="190.8" cy="237.4" r="8.5"/>
			<circle class="st5" cx="190.8" cy="237.4" r="8.5"/>
		</g>
		<g>
			<path class="st6" d="M186.7,241.3v-1.6h1v-4.5h-0.9v-1.6h2.6v6.1h0.9v1.6H186.7z"/>
			<path class="st6" d="M194.8,239.8v1.5h-1.7v-1.5h-2.2v-1.5l1.6-4.7h1.7l-1.6,4.6h0.5v-0.4l0.4-1h1.3v1.4h0.5v1.6H194.8z"/>
		</g>
	</g>
	<g>
		<g>
			<circle class="st4" cx="193.4" cy="152.3" r="8.5"/>
			<circle class="st5" cx="193.4" cy="152.3" r="8.5"/>
		</g>
		<g>
			<path class="st6" d="M189.4,156.2v-1.6h1v-4.5h-0.9v-1.6h2.6v6.1h0.9v1.6H189.4z"/>
			<path class="st6" d="M194.5,156.2c-0.5-0.2-0.8-0.5-0.8-1.3v-1h1.6v0.8l0.1,0.1h0.6l0.1-0.1v-2.1l-0.1-0.1h-0.6l-0.1,0.1v0.4
				h-1.6v-4.5h4v1.5h-2.4v1.6l0.4-0.4h1.3c0.5,0.2,0.8,0.5,0.8,1.3v2.4c0,0.8-0.4,1.1-0.8,1.3H194.5z"/>
		</g>
	</g>
	<g>
		<g>
			<circle class="st4" cx="217.4" cy="137.4" r="8.5"/>
			<circle class="st5" cx="217.4" cy="137.4" r="8.5"/>
		</g>
		<g>
			<path class="st6" d="M213.3,141.3v-1.6h1v-4.5h-0.9v-1.6h2.6v6.1h0.9v1.6H213.3z"/>
			<path class="st6" d="M221,141.3h-2.5c-0.5-0.2-0.8-0.5-0.8-1.3v-5.1c0-0.8,0.4-1.1,0.8-1.3h2.5c0.5,0.2,0.8,0.5,0.8,1.3v1h-1.7
				v-0.8L220,135h-0.5l-0.1,0.1v1.8l0.3-0.3h1.3c0.5,0.2,0.8,0.5,0.8,1.3v2.2C221.8,140.8,221.4,141.1,221,141.3z M220,139.9
				l0.1-0.1v-1.8l-0.1-0.1h-0.5l-0.1,0.1v1.8l0.1,0.1H220z"/>
		</g>
	</g>
	<g>
		<g>
			<circle class="st4" cx="95.6" cy="240.9" r="8.5"/>
			<circle class="st5" cx="95.6" cy="240.9" r="8.5"/>
		</g>
		<g>
			<path class="st6" d="M91.5,244.8v-1.6h1v-4.5h-0.9v-1.6h2.6v6.1h0.9v1.6H91.5z"/>
			<path class="st6" d="M99.2,244.8h-2.5c-0.5-0.2-0.8-0.5-0.8-1.3v-5.1c0-0.8,0.4-1.1,0.8-1.3h2.5c0.5,0.2,0.8,0.5,0.8,1.3v5.1
				C100,244.3,99.6,244.6,99.2,244.8z M98.3,238.6l-0.1-0.1h-0.5l-0.1,0.1v4.7l0.1,0.1h0.5l0.1-0.1V238.6z"/>
		</g>
	</g>
	<g>
		<g>
			<circle class="st4" cx="111.5" cy="217.5" r="8.5"/>
			<circle class="st5" cx="111.5" cy="217.5" r="8.5"/>
		</g>
		<g>
			<path class="st6" d="M107.4,221.3v-1.6h1v-4.5h-0.9v-1.6h2.6v6.1h0.9v1.6H107.4z"/>
			<path class="st6" d="M112.1,221.3v-1.6h1v-4.5h-0.9v-1.6h2.6v6.1h0.9v1.6H112.1z"/>
		</g>
	</g>
</g>


<g id="アイコン">
	<g>
		
			<rect x="259.7" y="123.3" transform="matrix(0.153 0.9882 -0.9882 0.153 344.4027 -152.3629)" class="st5" width="2.8" height="2.8"/>
		
			<rect x="260.5" y="128.9" transform="matrix(0.153 0.9882 -0.9882 0.153 350.674 -148.4748)" class="st5" width="2.8" height="2.8"/>
		
			<rect x="257.3" y="126.6" transform="matrix(0.153 0.9882 -0.9882 0.153 345.5944 -147.2832)" class="st5" width="2.8" height="2.8"/>
		
			<rect x="258.2" y="132.2" transform="matrix(0.153 0.9882 -0.9882 0.153 351.8657 -143.3952)" class="st5" width="2.8" height="2.8"/>
		
			<rect x="251.7" y="127.4" transform="matrix(0.153 0.9882 -0.9882 0.153 341.7063 -141.0119)" class="st5" width="2.8" height="2.8"/>
		
			<rect x="252.6" y="133" transform="matrix(0.153 0.9882 -0.9882 0.153 347.9776 -137.1239)" class="st5" width="2.8" height="2.8"/>
		
			<rect x="261.4" y="134.5" transform="matrix(0.153 0.9882 -0.9882 0.153 356.9453 -144.5868)" class="st5" width="2.8" height="2.8"/>
		
			<rect x="261" y="131.7" transform="matrix(0.153 0.9882 -0.9882 0.153 353.8097 -146.5308)" class="st6" width="2.8" height="2.8"/>
		
			<rect x="260.1" y="126.1" transform="matrix(0.153 0.9882 -0.9882 0.153 347.5384 -150.4189)" class="st6" width="2.8" height="2.8"/>
		
			<rect x="256.9" y="123.8" transform="matrix(0.153 0.9882 -0.9882 0.153 342.4587 -149.2272)" class="st6" width="2.8" height="2.8"/>
		
			<rect x="257.7" y="129.4" transform="matrix(0.153 0.9882 -0.9882 0.153 348.73 -145.3392)" class="st6" width="2.8" height="2.8"/>
		
			<rect x="258.6" y="135" transform="matrix(0.153 0.9882 -0.9882 0.153 355.0013 -141.4511)" class="st6" width="2.8" height="2.8"/>
		
			<rect x="255.4" y="132.6" transform="matrix(0.153 0.9882 -0.9882 0.153 349.9216 -140.2595)" class="st6" width="2.8" height="2.8"/>
		
			<rect x="254.5" y="127" transform="matrix(0.153 0.9882 -0.9882 0.153 343.6503 -144.1476)" class="st6" width="2.8" height="2.8"/>
		
			<rect x="249.8" y="133.5" transform="matrix(0.153 0.9882 -0.9882 0.153 346.0336 -133.9882)" class="st6" width="2.8" height="2.8"/>
		
			<rect x="248.9" y="127.9" transform="matrix(0.153 0.9882 -0.9882 0.153 339.7623 -137.8763)" class="st6" width="2.8" height="2.8"/>
		
			<rect x="251.3" y="124.6" transform="matrix(0.153 0.9882 -0.9882 0.153 338.5707 -142.9559)" class="st6" width="2.8" height="2.8"/>
		
			<rect x="252.1" y="130.2" transform="matrix(0.153 0.9882 -0.9882 0.153 344.842 -139.0679)" class="st6" width="2.8" height="2.8"/>
		
			<rect x="253" y="135.8" transform="matrix(0.153 0.9882 -0.9882 0.153 351.1133 -135.1799)" class="st6" width="2.8" height="2.8"/>
		
			<rect x="254.1" y="124.2" transform="matrix(0.153 0.9882 -0.9882 0.153 340.5147 -146.0916)" class="st5" width="2.8" height="2.8"/>
		
			<rect x="254.9" y="129.8" transform="matrix(0.153 0.9882 -0.9882 0.153 346.786 -142.2035)" class="st5" width="2.8" height="2.8"/>
		
			<rect x="249.3" y="130.7" transform="matrix(0.153 0.9882 -0.9882 0.153 342.8979 -135.9323)" class="st5" width="2.8" height="2.8"/>
		
			<rect x="255.8" y="135.4" transform="matrix(0.153 0.9882 -0.9882 0.153 353.0573 -138.3155)" class="st5" width="2.8" height="2.8"/>
		
			<rect x="248.5" y="125.1" transform="matrix(0.153 0.9882 -0.9882 0.153 336.6266 -139.8203)" class="st5" width="2.8" height="2.8"/>
		
			<rect x="250.2" y="136.3" transform="matrix(0.153 0.9882 -0.9882 0.153 349.1692 -132.0442)" class="st5" width="2.8" height="2.8"/>
	</g>
	<g>
		<g>
			<path class="st6" d="M462.8,426.3c0,1.6-1.3,2.8-2.8,2.8H91.1c-1.6,0-2.8-1.3-2.8-2.8v-24.9c0-1.6,1.3-2.8,2.8-2.8h368.8
				c1.6,0,2.8,1.3,2.8,2.8V426.3z"/>
			<path class="st13" d="M462.8,426.3c0,1.6-1.3,2.8-2.8,2.8H91.1c-1.6,0-2.8-1.3-2.8-2.8v-24.9c0-1.6,1.3-2.8,2.8-2.8h368.8
				c1.6,0,2.8,1.3,2.8,2.8V426.3z"/>
		</g>
		<g>
			<path class="st5" d="M133.8,415.3v2.6c0,1.3-0.6,1.7-1.3,2h-3.3c-0.7-0.3-1.3-0.7-1.3-2v-2h1.8v2.1l0.4,0.4h1.6l0.4-0.4v-2.8
				l-0.3-0.4L129,414c-0.8-0.3-1.1-0.8-1.1-1.9v-2.2c0-1.3,0.6-1.7,1.3-2h3.3c0.7,0.3,1.3,0.7,1.3,2v1.9H132v-2.1l-0.4-0.4h-1.6
				l-0.4,0.4v2.4l0.4,0.4l2.6,0.7C133.4,413.6,133.8,414.1,133.8,415.3z"/>
			<path class="st5" d="M135.1,407.9h5.1v1.6h-3.3v3.4h3.1v1.6h-3.1v3.7h3.4v1.6h-5.2V407.9z"/>
			<path class="st5" d="M147.5,417.9c0,1.3-0.6,1.7-1.3,2h-3.3c-0.7-0.3-1.3-0.7-1.3-2v-8c0-1.3,0.6-1.7,1.3-2h3.3
				c0.7,0.3,1.3,0.7,1.3,2v2.7h-1.8v-2.8l-0.4-0.4h-1.6l-0.4,0.4v8.3l0.4,0.4h1.6l0.4-0.4v-2.7h1.8V417.9z"/>
			<path class="st5" d="M152.2,409.5v10.3h-1.8v-10.3h-2.1v-1.6h6.1v1.6H152.2z"/>
			<path class="st5" d="M161.1,417.9c0,1.3-0.6,1.7-1.3,2h-3.3c-0.7-0.3-1.3-0.7-1.3-2v-8c0-1.3,0.6-1.7,1.3-2h3.3
				c0.7,0.3,1.3,0.7,1.3,2V417.9z M159.3,409.7l-0.4-0.4h-1.6l-0.4,0.4v8.3l0.4,0.4h1.6l0.4-0.4V409.7z"/>
			<path class="st5" d="M162.5,419.8v-12h4.6c0.7,0.3,1.3,0.7,1.3,2v2.6c0,1.3-0.6,1.6-1.3,1.9l-0.3,0.1l2.1,4.3v1.1h-1.6l-2.2-5.1
				h-0.8v5.1H162.5z M164.3,409.4v3.9h2l0.4-0.4v-3.1l-0.4-0.4H164.3z"/>
			<path class="st5" d="M172.6,419.8v-1.6h1.8v-8.7h-1.7v-1.6h3.5v10.4h1.7v1.6H172.6z"/>
		</g>
		<line class="st14" x1="102.5" y1="413.9" x2="123.7" y2="413.9"/>
		<g>
			<path class="st5" d="M223.9,415.3v2.6c0,1.3-0.6,1.7-1.3,2h-3.3c-0.7-0.3-1.3-0.7-1.3-2v-2h1.8v2.1l0.4,0.4h1.6l0.4-0.4v-2.8
				l-0.3-0.4l-2.6-0.8c-0.8-0.3-1.1-0.8-1.1-1.9v-2.2c0-1.3,0.6-1.7,1.3-2h3.3c0.7,0.3,1.3,0.7,1.3,2v1.9h-1.8v-2.1l-0.4-0.4h-1.6
				l-0.4,0.4v2.4l0.4,0.4l2.6,0.7C223.5,413.6,223.9,414.1,223.9,415.3z"/>
			<path class="st5" d="M225.2,407.9h5.1v1.6H227v3.4h3.1v1.6H227v3.7h3.4v1.6h-5.2V407.9z"/>
			<path class="st5" d="M237.6,417.9c0,1.3-0.6,1.7-1.3,2h-3.3c-0.7-0.3-1.3-0.7-1.3-2v-8c0-1.3,0.6-1.7,1.3-2h3.3
				c0.7,0.3,1.3,0.7,1.3,2v2.7h-1.8v-2.8l-0.4-0.4h-1.6l-0.4,0.4v8.3l0.4,0.4h1.6l0.4-0.4v-2.7h1.8V417.9z"/>
			<path class="st5" d="M242.3,409.5v10.3h-1.8v-10.3h-2.1v-1.6h6.1v1.6H242.3z"/>
			<path class="st5" d="M251.2,417.9c0,1.3-0.6,1.7-1.3,2h-3.3c-0.7-0.3-1.3-0.7-1.3-2v-8c0-1.3,0.6-1.7,1.3-2h3.3
				c0.7,0.3,1.3,0.7,1.3,2V417.9z M249.4,409.7l-0.4-0.4h-1.6l-0.4,0.4v8.3l0.4,0.4h1.6l0.4-0.4V409.7z"/>
			<path class="st5" d="M252.6,419.8v-12h4.6c0.7,0.3,1.3,0.7,1.3,2v2.6c0,1.3-0.6,1.6-1.3,1.9l-0.3,0.1l2.1,4.3v1.1h-1.6l-2.2-5.1
				h-0.8v5.1H252.6z M254.4,409.4v3.9h2l0.4-0.4v-3.1l-0.4-0.4H254.4z"/>
			<path class="st5" d="M262.3,419.8v-3.6c0-1.1,0.4-1.7,1.2-2.1l3-1.2v-3.2l-0.4-0.4h-1.7l-0.4,0.4v2h-1.8v-1.9
				c0-1.3,0.6-1.7,1.3-2h3.3c0.7,0.3,1.3,0.7,1.3,2v2.5c0,1.1-0.3,1.7-1.1,2.1l-3,1.2v2.5h4.1v1.6H262.3z"/>
		</g>
		<line class="st15" x1="192.6" y1="413.9" x2="213.8" y2="413.9"/>
		<g>
			<path class="st5" d="M313.7,415.3v2.6c0,1.3-0.6,1.7-1.3,2h-3.3c-0.7-0.3-1.3-0.7-1.3-2v-2h1.8v2.1l0.4,0.4h1.6l0.4-0.4v-2.8
				l-0.3-0.4L309,414c-0.8-0.3-1.1-0.8-1.1-1.9v-2.2c0-1.3,0.6-1.7,1.3-2h3.3c0.7,0.3,1.3,0.7,1.3,2v1.9h-1.8v-2.1l-0.4-0.4H310
				l-0.4,0.4v2.4l0.4,0.4l2.6,0.7C313.4,413.6,313.7,414.1,313.7,415.3z"/>
			<path class="st5" d="M315.1,407.9h5.1v1.6h-3.3v3.4h3.1v1.6h-3.1v3.7h3.4v1.6h-5.2V407.9z"/>
			<path class="st5" d="M327.4,417.9c0,1.3-0.6,1.7-1.3,2h-3.3c-0.7-0.3-1.3-0.7-1.3-2v-8c0-1.3,0.6-1.7,1.3-2h3.3
				c0.7,0.3,1.3,0.7,1.3,2v2.7h-1.8v-2.8l-0.4-0.4h-1.6l-0.4,0.4v8.3l0.4,0.4h1.6l0.4-0.4v-2.7h1.8V417.9z"/>
			<path class="st5" d="M332.1,409.5v10.3h-1.8v-10.3h-2.1v-1.6h6.1v1.6H332.1z"/>
			<path class="st5" d="M341,417.9c0,1.3-0.6,1.7-1.3,2h-3.3c-0.7-0.3-1.3-0.7-1.3-2v-8c0-1.3,0.6-1.7,1.3-2h3.3
				c0.7,0.3,1.3,0.7,1.3,2V417.9z M339.2,409.7l-0.4-0.4h-1.6l-0.4,0.4v8.3l0.4,0.4h1.6l0.4-0.4V409.7z"/>
			<path class="st5" d="M342.4,419.8v-12h4.6c0.7,0.3,1.3,0.7,1.3,2v2.6c0,1.3-0.6,1.6-1.3,1.9l-0.3,0.1l2.1,4.3v1.1h-1.6l-2.2-5.1
				h-0.8v5.1H342.4z M344.2,409.4v3.9h2l0.4-0.4v-3.1l-0.4-0.4H344.2z"/>
			<path class="st5" d="M353.4,419.8c-0.7-0.3-1.3-0.7-1.3-2v-1.7h1.8v1.8l0.4,0.4h1.7l0.4-0.4v-3.2l-0.4-0.3h-1.8V413h1.8l0.4-0.4
				v-3l-0.4-0.4h-1.7l-0.4,0.4v1.8h-1.8v-1.7c0-1.3,0.6-1.7,1.3-2h3.3c0.7,0.3,1.3,0.7,1.3,2v1.9c0,1-0.2,1.5-0.9,1.9
				c0.6,0.4,0.9,0.9,0.9,1.9v2.2c0,1.3-0.6,1.7-1.3,2H353.4z"/>
		</g>
		<line class="st16" x1="282.4" y1="413.9" x2="303.7" y2="413.9"/>
		<g>
			<path class="st5" d="M403.6,417.9c0,1.3-0.6,1.7-1.3,2h-4.6v-12h4.6c0.7,0.3,1.3,0.7,1.3,2V417.9z M399.5,409.4v9h2l0.4-0.4v-8.3
				l-0.4-0.4H399.5z"/>
			<path class="st5" d="M405,419.8v-12h4.6c0.7,0.3,1.3,0.7,1.3,2v2.6c0,1.3-0.6,1.6-1.3,1.9l-0.3,0.1l2.1,4.3v1.1h-1.6l-2.2-5.1
				h-0.8v5.1H405z M406.8,409.4v3.9h2l0.4-0.4v-3.1l-0.4-0.4H406.8z"/>
			<path class="st5" d="M418.1,415.3v2.6c0,1.3-0.6,1.7-1.3,2h-3.3c-0.7-0.3-1.3-0.7-1.3-2v-2h1.8v2.1l0.4,0.4h1.6l0.4-0.4v-2.8
				l-0.3-0.4l-2.6-0.8c-0.8-0.3-1.1-0.8-1.1-1.9v-2.2c0-1.3,0.6-1.7,1.3-2h3.3c0.7,0.3,1.3,0.7,1.3,2v1.9h-1.8v-2.1l-0.4-0.4h-1.6
				l-0.4,0.4v2.4l0.4,0.4l2.6,0.7C417.7,413.6,418.1,414.1,418.1,415.3z"/>
			<path class="st5" d="M425.6,409.5h-3.9v-1.6h5.8v1.5l-4,8.9h4v1.6h-5.9v-1.5L425.6,409.5z"/>
			<path class="st5" d="M434.8,417.9c0,1.3-0.6,1.7-1.3,2h-3.3c-0.7-0.3-1.3-0.7-1.3-2v-8c0-1.3,0.6-1.7,1.3-2h3.3
				c0.7,0.3,1.3,0.7,1.3,2V417.9z M433,409.7l-0.4-0.4H431l-0.4,0.4v8.3l0.4,0.4h1.6l0.4-0.4V409.7z"/>
			<path class="st5" d="M440.5,407.9h1.6v12h-1.6l-2.6-7.1h-0.2v7.1h-1.6v-12h1.6l2.6,7.1h0.2V407.9z"/>
			<path class="st5" d="M443.5,407.9h5.1v1.6h-3.3v3.4h3.1v1.6h-3.1v3.7h3.4v1.6h-5.2V407.9z"/>
		</g>
		<g>
			<g>
				<g>
					<g>
						<line class="st17" x1="373.7" y1="406.5" x2="373.7" y2="421.4"/>
					</g>
					<g>
						<path class="st7" d="M381.3,413.9c0,0.8-0.7,1.4-1.5,1.4c-0.8,0-1.5-0.6-1.5-1.4c0-0.8,0.7-1.4,1.5-1.4
							C380.7,412.5,381.3,413.2,381.3,413.9z"/>
					</g>
					<g>
						<ellipse class="st7" cx="385.9" cy="413.9" rx="1.5" ry="1.4"/>
					</g>
					<g>
						<line class="st17" x1="392" y1="406.5" x2="392" y2="421.4"/>
					</g>
				</g>
			</g>
		</g>
	</g>
	<g>
		<defs>
			
				<rect id="SVGID_1_" x="248.4" y="171.1" transform="matrix(-0.1295 -0.9916 0.9916 -0.1295 119.2917 455.4941)" width="22.3" height="8.5"/>
		</defs>
		<clipPath id="SVGID_00000097495630289326346770000001353113994536513712_">
			<use xlink:href="#SVGID_1_"  style="overflow:visible;"/>
		</clipPath>
		<g style="clip-path:url(#SVGID_00000097495630289326346770000001353113994536513712_);">
			<polygon class="st19" points="265.3,164.6 265.7,167.4 259.4,174 251.6,169.3 251.3,166.5 259,171.2 			"/>
			<polygon class="st20" points="266.1,170.2 266.4,173.1 260.1,179.6 252.4,174.9 252,172.1 259.8,176.8 			"/>
			<polygon class="st21" points="266.8,175.9 267.2,178.7 260.9,185.2 253.1,180.5 252.7,177.7 260.5,182.4 			"/>
		</g>
	</g>
</g>
</svg>
