<?xml version="1.0" encoding="utf-8"?>
<!-- Generator: Adobe Illustrator 26.5.0, SVG Export Plug-In . SVG Version: 6.00 Build 0)  -->
<svg version="1.1" xmlns="http://www.w3.org/2000/svg" xmlns:xlink="http://www.w3.org/1999/xlink" x="0px" y="0px"
	 viewBox="0 0 610.6 333.6" style="enable-background:new 0 0 610.6 333.6;" xml:space="preserve">
<style type="text/css">
	.st0{fill:none;stroke:#646464;stroke-width:6.411;stroke-linecap:round;stroke-linejoin:round;stroke-miterlimit:10;}
	.st1{fill:none;stroke:#FFD449;stroke-width:1.282;stroke-miterlimit:10;}
	.st2{fill:none;stroke:#54C6EB;stroke-width:1.282;stroke-miterlimit:10;}
	.st3{fill:none;stroke:#F4442E;stroke-width:1.282;stroke-miterlimit:10;}
	.st4{fill:none;stroke:#FFFFFF;stroke-width:0.962;}
	.st5{fill:#646464;}
	.st6{fill:#FFFFFF;}
	.st7{fill:none;stroke:#646464;stroke-width:1.282;stroke-miterlimit:10;}
	.st8{fill:#FF3380;}
	.st9{fill:none;stroke:#FF3380;stroke-width:0.898;stroke-miterlimit:10;}
	.st10{fill:#09BC8A;}
	.st11{fill:none;stroke:#09BC8A;stroke-width:0.898;stroke-miterlimit:10;}
	.st12{fill:none;stroke:#09BC8A;stroke-width:1.000;stroke-miterlimit:10;}
	.st13{fill:none;stroke:#646464;stroke-width:0.321;stroke-miterlimit:10;}
	.st14{fill:none;stroke:#F4442E;stroke-width:2.565;stroke-miterlimit:10;}
	.st15{fill:none;stroke:#54C6EB;stroke-width:2.565;stroke-miterlimit:10;}
	.st16{fill:none;stroke:#FFD449;stroke-width:2.565;stroke-miterlimit:10;}
	.st17{fill:none;stroke:#09BC8A;stroke-width:1.282;stroke-miterlimit:10;}
	.st18{clip-path:url(#SVGID_00000176724608870033538480000006893627680905905084_);}
	.st19{fill:#F4442E;}
	.st20{fill:#54C6EB;}
	.st21{fill:#FFD449;}
</style>
<g id="コース">
	<path class="st0" d="M265.4,178c0,0,195.2,113.9,198.7,115.6s6.4,2.3,8.8-2.3c2.3-4.7,28.4-51.2,29.9-53.6c1.5-2.3,3.5-3.2-2.3-7.3
		c-5.9-4.1-53.3-34-63.5-39.2c-10.2-5.3-85.5-47.4-87.2-48.3c-1.8-0.9-2.3-1.5-5,2.3c-2.6,3.8-19.9,30.7-21.1,33.7
		c-1.2,2.9-4.1,3.8-7.3,2c-3.2-1.8-23.7-14-28.1-16.1c-4.4-2-24-9.1-26.6-10.2c-2.6-1.2-6.7-1.2-8.8,2.9c-2,4.1-1.5,7-6.1,5.6
		c-4.7-1.5-61.5-17.9-65.9-18.7c-4.4-0.9-6-1-7.6-0.8c-1.6,0.1-4.7-3.1-1.6-7.1c0,0,19.2-27.8,20.1-29.1c0.9-1.3,1.5-3.8,0.2-5.2
		c-1.3-1.3-1.3-3.1-1.4-4c-0.1-0.9-0.2-2.7-1.5-4.2c-1.3-1.4-2.5-3.7-3.4-4.5c-0.9-0.8-1.6-4.1,0.1-5.8c1.8-1.8,3.5-4.9,4.2-5.9
		c0.7-1,1.3-3.2-0.4-4.6c-1.8-1.4-19.3-13.5-31.6-19.9c-12.3-6.4-32.6-14.7-34.7-15.6c-2.1-0.9-8.8-1.5-12.6-0.2s-30.7,11.3-32.7,12
		c-2,0.7-4,1.4-5.8,3.3C70,54.6,55.9,68,52.8,70.3c-3.1,2.3-12.1,8.5-13.6,9.3c-1.5,0.9-3,0.9-2.3,4.7s6.7,32.9,7.4,39.3
		c0.7,6.4,3.5,22.9,3.7,25.5c0.2,2.5,0.7,7.1,6.6,6.1s25.6-5.2,28.9-5.6s9.9-2.2,19.3,0s28,6.5,31.7,7.2c3.7,0.8,10.9,0,14.9-1.6
		c4.1-1.6,13.5-4.8,15.5-5.6c2-0.8,7.7-2,12.5-0.7c4.8,1.3,58,15.7,61.5,16.8c3.5,1.1,9.4,3.1,11.9,4.2
		C253.1,171.1,263.9,177.3,265.4,178z"/>
</g>
<g id="セクター">
	<path class="st1" d="M47.9,148.1c0.1,0.4,0.1,0.8,0.1,1c0.2,2.5,0.7,7.1,6.6,6.1s25.6-5.2,28.9-5.6s9.9-2.2,19.3,0s28,6.5,31.7,7.2
		c3.7,0.8,10.9,0,14.9-1.6c4.1-1.6,13.5-4.8,15.5-5.6c2-0.8,7.7-2,12.5-0.7c4.8,1.3,58,15.7,61.5,16.8c3.5,1.1,9.4,3.1,11.9,4.2
		c2.4,1.1,13.2,7.3,14.7,8c0,0,76,44.3,134,78.1"/>
	<path class="st2" d="M266.6,156.5c-2.4-0.9-4.3-1.6-5-1.9c-2.6-1.2-6.7-1.2-8.8,2.9c-2,4.1-1.5,7-6.1,5.6
		c-4.7-1.5-61.5-17.9-65.9-18.7c-4.4-0.9-6-1-7.6-0.8c-1.6,0.1-4.7-3.1-1.6-7.1c0,0,19.2-27.8,20.1-29.1c0.9-1.3,1.5-3.8,0.2-5.2
		c-1.3-1.3-1.3-3.1-1.4-4c-0.1-0.9-0.2-2.7-1.5-4.2c-1.3-1.4-2.5-3.7-3.4-4.5c-0.9-0.8-1.6-4.1,0.1-5.8c1.8-1.8,3.5-4.9,4.2-5.9
		c0.7-1,1.3-3.2-0.4-4.6c-1.8-1.4-19.3-13.5-31.6-19.9c-12.3-6.4-32.6-14.7-34.7-15.6c-2.1-0.9-8.8-1.5-12.6-0.2s-30.7,11.3-32.7,12
		c-2,0.7-4,1.4-5.8,3.3C70,54.6,55.9,68,52.8,70.3c-3.1,2.3-12.1,8.5-13.6,9.3c-1.5,0.9-3,0.9-2.3,4.7s6.7,32.9,7.4,39.3
		c0.6,5.8,3,20.1,3.6,24.5"/>
	<path class="st3" d="M399.4,256.1c35,20.3,63.4,36.9,64.7,37.5c3.5,1.8,6.4,2.3,8.8-2.3c2.3-4.7,28.4-51.2,29.9-53.6
		c1.5-2.3,3.5-3.2-2.3-7.3c-5.9-4.1-53.3-34-63.5-39.2c-10.2-5.3-85.5-47.4-87.2-48.3c-1.8-0.9-2.3-1.5-5,2.3
		c-2.6,3.8-19.9,30.7-21.1,33.7c-1.2,2.9-4.1,3.8-7.3,2c-3.2-1.8-23.7-14-28.1-16.1c-3.2-1.5-14.8-5.7-21.6-8.3"/>
</g>
<g id="コーナー番号">
	<g>
		<g>
			
			
		</g>
		<g>
			
		</g>
	</g>
	<g>
		<g>
			
			
		</g>
		<g>
			
		</g>
	</g>
	<g>
		<g>
			
			
		</g>
		<g>
			
		</g>
	</g>
	<g>
		<g>
			
			
		</g>
		<g>
			
		</g>
	</g>
	<g>
		<g>
			
			
		</g>
		<g>
			
		</g>
	</g>
	<g>
		<g>
			
			
		</g>
		<g>
			
		</g>
	</g>
	<g>
		<g>
			
			
		</g>
		<g>
			
		</g>
	</g>
	<g>
		<g>
			
			
		</g>
		<g>
			
		</g>
	</g>
	<g>
		<g>
			
			
		</g>
		<g>
			
		</g>
	</g>
	<g>
		<g>
			
			
		</g>
		<g>
			
			
		</g>
	</g>
	<g>
		<g>
			
			
		</g>
		<g>
			
			
		</g>
	</g>
	<g>
		<g>
			
			
		</g>
		<g>
			
			
		</g>
	</g>
	<g>
		<g>
			
			
		</g>
		<g>
			
			
		</g>
	</g>
	<g>
		<g>
			
			
		</g>
		<g>
			
			
		</g>
	</g>
	<g>
		<g>
			
			
		</g>
		<g>
			
			
		</g>
	</g>
	<g>
		<g>
			
			
		</g>
		<g>
			
			
		</g>
	</g>
	<g>
		<g>
			
			
		</g>
		<g>
			
			
		</g>
	</g>
	<g>
		<g>
			
			
		</g>
		<g>
			
			
		</g>
	</g>
	<g>
		<g>
			
			
		</g>
		<g>
			
			
		</g>
	</g>
	<g>
		<g>
			
			
		</g>
		<g>
			
			
		</g>
	</g>
</g>



</svg>
