<?xml version="1.0" encoding="utf-8"?>
<!-- Generator: Adobe Illustrator 27.2.0, SVG Export Plug-In . SVG Version: 6.00 Build 0)  -->
<svg version="1.1" xmlns="http://www.w3.org/2000/svg" xmlns:xlink="http://www.w3.org/1999/xlink" x="0px" y="0px"
	 viewBox="0.0 0.0 550.0 346.5" style="enable-background:new 0 0 550 443.7;" xml:space="preserve">
<style type="text/css">
	.st0{fill:none;stroke:#646464;stroke-width:5.775;stroke-miterlimit:10;}
	.st1{fill:none;stroke:#FFD449;stroke-width:1.155;stroke-miterlimit:10;}
	.st2{fill:none;stroke:#54C6EB;stroke-width:1.155;stroke-miterlimit:10;}
	.st3{fill:none;stroke:#F4442E;stroke-width:1.155;stroke-miterlimit:10;}
	.st4{fill:none;stroke:#FFFFFF;stroke-width:0.866;}
	.st5{fill:#646464;}
	.st6{fill:#FFFFFF;}
	.st7{fill:#09BC8A;}
	.st8{fill:none;stroke:#646464;stroke-width:1.155;stroke-miterlimit:10;}
	.st9{fill:none;stroke:#09BC8A;stroke-width:0.809;stroke-miterlimit:10;}
	.st10{fill:none;stroke:#09BC8A;stroke-width:0.900;stroke-miterlimit:10;}
	.st11{fill:#FF3380;}
	.st12{fill:none;stroke:#FF3380;stroke-width:0.809;stroke-miterlimit:10;}
	.st13{fill:none;stroke:#646464;stroke-width:0.289;stroke-miterlimit:10;}
	.st14{fill:none;stroke:#F4442E;stroke-width:2.310;stroke-miterlimit:10;}
	.st15{fill:none;stroke:#54C6EB;stroke-width:2.310;stroke-miterlimit:10;}
	.st16{fill:none;stroke:#FFD449;stroke-width:2.310;stroke-miterlimit:10;}
	.st17{fill:none;stroke:#09BC8A;stroke-width:1.155;stroke-miterlimit:10;}
	.st18{clip-path:url(#SVGID_00000137821575107936811930000017085020792101648007_);}
	.st19{fill:#F4442E;}
	.st20{fill:#54C6EB;}
	.st21{fill:#FFD449;}
</style>
<g id="コース">
	<path class="st0" d="M235,123.9c0,0,15.7,134.9,16.5,142.3c0.9,7.4,3.4,13.1,12.8,12c9.4-1.1,44.1-8.5,50.7-10.2
		c6.5-1.7,13.1-5.7,16.5-17.6c3.4-12,8.9-31.1,24.5-36.2c8.8-2.8,15.9-4.3,26.5-0.3s30.2,10.8,52.1,8.8s61.8-5.7,74.6-7.4
		c12.8-1.7,11.7-10,11.7-12.2s-2.6-6.5-8.3-8.8c-5.7-2.3-40.1-11.7-58.1-18.5c-17.9-6.8-99.4-37-111-41.3
		c-11.7-4.3-43.3-15.7-63.2-21.6S208,86.8,205.1,85.4c-2.8-1.4-7.1-1.4-6.5,3.1c0.6,4.6,1.4,10,1.6,12.1c0.2,2.1-1.2,4.6-4.2,5
		s-20.2,3.4-33.1,8.7c-13,5.3-25.8,10.2-53.3,44.5c-13.5,16.9-35.1,42.7-43,52.4s-12.9,19.3-15.5,24.6s-24.6,49.5-26.6,53.9
		s-0.4,13.8,7,20.2c8.5,7.3,36.3,9.4,38.6-22c0.8-10.2,5-46.8,5.3-50c0.3-3.2,2.5-8,4.5-11.4c2-3.4,13-19.6,15.1-22.7
		c2-3.1,3.7-5,9.1-5.9c5.4-0.9,24.9-5,28.4-5.3c3.5-0.3,4.4,1.2,5,5.4c0.6,4.2,2.3,17.3,2.8,20.5c0.4,3.2,5.7,9.1,13.2,9.4
		c7.5,0.3,11.7,0.1,16.1-0.1c4.4-0.3,11.1-7.2,9.5-19.3s-5.6-48.7-6-53.4s0.7-14.6,10.1-19.8c9.4-5.1,24.6-13.3,27.7-15.1
		c3.1-1.8,5.6-2.8,9.5-3.4c4-0.6,6.1-0.9,8.6-0.9C231.4,116,234.1,115.8,235,123.9z"/>
</g>
<g id="セクター">
	<path class="st1" d="M31.8,274.7c-3.7,7.5-6.7,13.6-7.4,15c-2,4.4-0.4,13.8,7,20.2c8.5,7.3,36.3,9.4,38.6-22
		c0.8-10.2,5-46.8,5.3-50c0.3-3.2,2.5-8,4.5-11.4c2-3.4,13-19.6,15.1-22.7c2-3.1,3.7-5,9.1-5.9c5.4-0.9,24.9-5,28.4-5.3
		c3.5-0.3,4.4,1.2,5,5.4c0.6,4.2,2.3,17.3,2.8,20.5c0.4,3.2,5.7,9.1,13.2,9.4c7.5,0.3,11.7,0.1,16.1-0.1c4.4-0.3,11.1-7.2,9.5-19.3
		s-5.6-48.7-6-53.4s0.7-14.6,10.1-19.8c9.4-5.1,24.6-13.3,27.7-15.1c3.1-1.8,5.6-2.8,9.5-3.4c4-0.6,6.1-0.9,8.6-0.9
		c2.5,0,5.2-0.2,6.1,7.9c0,0,1.4,12.4,3.5,30"/>
	<path class="st2" d="M463,220c18.6-1.8,38-3.7,46.2-4.8c12.8-1.7,11.7-10,11.7-12.2s-2.6-6.5-8.3-8.8c-5.7-2.3-40.1-11.7-58.1-18.5
		c-17.9-6.8-99.4-37-111-41.3c-11.7-4.3-43.3-15.7-63.2-21.6S208,86.8,205.1,85.4c-2.8-1.4-7.1-1.4-6.5,3.1c0.6,4.6,1.4,10,1.6,12.1
		c0.2,2.1-1.2,4.6-4.2,5s-20.2,3.4-33.1,8.7c-13,5.3-25.8,10.2-53.3,44.5c-13.5,16.9-35.1,42.7-43,52.4s-12.9,19.3-15.5,24.6
		c-1.7,3.5-12,24.1-19.3,38.8"/>
	<path class="st3" d="M238.5,153.8c4.7,40.2,12.4,107.2,13,112.4c0.9,7.4,3.4,13.1,12.8,12c9.4-1.1,44.1-8.5,50.7-10.2
		c6.5-1.7,13.1-5.7,16.5-17.6c3.4-12,8.9-31.1,24.5-36.2c8.8-2.8,15.9-4.3,26.5-0.3s30.2,10.8,52.1,8.8c7.9-0.7,18-1.6,28.4-2.6"/>
</g>
<g id="コーナー番号">
	<g>
		<g>
			
			
		</g>
		<g>
			
		</g>
	</g>
	<g>
		<g>
			
			
		</g>
		<g>
			
		</g>
	</g>
	<g>
		<g>
			
			
		</g>
		<g>
			
		</g>
	</g>
	<g>
		<g>
			
			
		</g>
		<g>
			
		</g>
	</g>
	<g>
		<g>
			
			
		</g>
		<g>
			
		</g>
	</g>
	<g>
		<g>
			
			
		</g>
		<g>
			
		</g>
	</g>
	<g>
		<g>
			
			
		</g>
		<g>
			
		</g>
	</g>
	<g>
		<g>
			
			
		</g>
		<g>
			
		</g>
	</g>
	<g>
		<g>
			
			
		</g>
		<g>
			
		</g>
	</g>
	<g>
		<g>
			
			
		</g>
		<g>
			
			
		</g>
	</g>
	<g>
		<g>
			
			
		</g>
		<g>
			
			
		</g>
	</g>
	<g>
		<g>
			
			
		</g>
		<g>
			
			
		</g>
	</g>
	<g>
		<g>
			
			
		</g>
		<g>
			
			
		</g>
	</g>
	<g>
		<g>
			
			
		</g>
		<g>
			
			
		</g>
	</g>
	<g>
		<g>
			
			
		</g>
		<g>
			
			
		</g>
	</g>
	<g>
		<g>
			
			
		</g>
		<g>
			
			
		</g>
	</g>
</g>



</svg>
