<?xml version="1.0" encoding="utf-8"?>
<!-- Generator: Adobe Illustrator 26.5.0, SVG Export Plug-In . SVG Version: 6.00 Build 0)  -->
<svg version="1.1" xmlns="http://www.w3.org/2000/svg" xmlns:xlink="http://www.w3.org/1999/xlink" x="0px" y="0px"
	 viewBox="0 0 607.8 385.1" style="enable-background:new 0 0 607.8 385.1;" xml:space="preserve">
<style type="text/css">
	.st0{fill:none;stroke:#646464;stroke-width:14.1732;stroke-linecap:round;stroke-linejoin:round;stroke-miterlimit:10;}
	.st1{fill:none;stroke:#FFD449;stroke-width:2.8346;stroke-miterlimit:10;}
	.st2{fill:none;stroke:#54C6EB;stroke-width:2.8346;stroke-miterlimit:10;}
	.st3{fill:none;stroke:#F4442E;stroke-width:2.8346;stroke-miterlimit:10;}
	.st4{fill:none;stroke:#FFFFFF;stroke-width:2.126;}
	.st5{fill:#646464;}
	.st6{fill:#FFFFFF;}
	.st7{fill:none;stroke:#646464;stroke-width:2.8346;stroke-miterlimit:10;}
	.st8{fill:#FF3380;}
	.st9{fill:none;stroke:#FF3380;stroke-width:1.9843;stroke-miterlimit:10;}
	.st10{fill:#09BC8A;}
	.st11{fill:none;stroke:#09BC8A;stroke-width:1.9843;stroke-miterlimit:10;}
	.st12{fill:none;stroke:#09BC8A;stroke-width:2.8346;stroke-miterlimit:10;}
	.st13{clip-path:url(#SVGID_00000044883103280750515430000008519994516304766604_);}
	.st14{fill:#F4442E;}
	.st15{fill:#54C6EB;}
	.st16{fill:#FFD449;}
	.st17{fill:none;stroke:#646464;stroke-width:0.7087;stroke-miterlimit:10;}
	.st18{fill:none;stroke:#F4442E;stroke-width:5.6693;stroke-miterlimit:10;}
	.st19{fill:none;stroke:#54C6EB;stroke-width:5.6693;stroke-miterlimit:10;}
	.st20{fill:none;stroke:#FFD449;stroke-width:5.6693;stroke-miterlimit:10;}
</style>
<g id="コース">
	<path class="st0" d="M455.8,309.4c-7.8,0.6-207.3,5.5-209.8,5.7c-2.5,0.2-5.5-0.5-6.2-1.4c-0.7-0.9-2.1-5.3-2.7-8.2
		c-0.7-3-5.7-11.2-12.1-14.9c-6.4-3.7-14.9-6.6-29-4.8c-14.2,1.8-48.9,1.6-62.4,0.2c-13.5-1.4-38.6-5.9-46.9-8
		c-8.2-2.1-18.1-4.6-20.3-5.7c-2.3-1.1-5.7-1.6-6.4-5.9c-0.7-4.3,0.9-5,2.5-7.8c1.6-2.7,11.4-16.2,12.8-18.3
		c1.4-2.1,1.8-3.2,1.8-5.7s-0.7-4.1-3-6.2c-2.3-2.1-31.7-28.8-34.3-31.5c-3-3.2-5.3-5.7-4.8-12.6c0.5-6.9,2.5-18.3,3-23.8
		c0.5-5.5,1.8-13.3,3.4-18.1c1.6-4.8,3.9-9.4,7.3-17.6c3.4-8.2,7.5-17.1,8.7-21.7c1.1-4.6,3.2-14.2,3.7-17.6
		c0.5-3.4,1.6-7.3,7.5-6.9c5.9,0.5,16.9-0.5,24.5-6.4c7.5-5.9,20.6-22.2,42.3-22.2s33.6,9.8,41.4,15.1s21.5,15.3,26.5,20.3
		c5,5,12.8,12.3,26.3,45.5c10.6,26.1,19.3,38.9,40.7,53.2c26.3,17.6,43.2,15.1,71.1,13.7c9.4-0.5,20.8-1.6,25.6-2.1s7.1-2.3,9.4-5.5
		c2.3-3.2,12.3-16.9,13.7-19c1.4-2.1,2.5-4.1,9.1-4.6c6.6-0.5,53.5-4.8,60.3-5c6.9-0.2,18.7-0.2,33.4,6.6
		c14.6,6.9,62.4,32.2,66.3,34.3c3.9,2.1,10.3,6.4,11.7,7.8c1.4,1.4,3.2,3.7,1.4,7.3c-1.8,3.7-16.5,26.7-18.7,32.5
		c-2.3,5.7-5.7,12.1-8.5,16.5c-2.7,4.3-9.1,13-21.3,10.1c-12.1-3-43-11-45.7-11.4c-2.7-0.5-7.1-1.1-7.1,3.9c0,5,1.4,18.5,1.6,25.4
		C472.7,301.7,465.4,308.7,455.8,309.4z"/>
</g>
<g id="セクター">
	<path class="st1" d="M341.3,198.1c9.4-0.5,20.8-1.6,25.6-2.1s7.1-2.3,9.4-5.5c2.3-3.2,12.3-16.9,13.7-19c1.4-2.1,2.5-4.1,9.1-4.6
		c6.6-0.5,53.5-4.8,60.3-5c6.9-0.2,18.7-0.2,33.4,6.6c14.6,6.9,62.4,32.2,66.3,34.3c3.9,2.1,10.3,6.4,11.7,7.8
		c1.4,1.4,3.2,3.7,1.4,7.3c-1.8,3.7-16.5,26.7-18.7,32.5c-2.3,5.7-5.7,12.1-8.5,16.5c-2.7,4.3-9.1,13-21.3,10.1
		c-12.1-3-43-11-45.7-11.4c-2.7-0.5-7.1-1.1-7.1,3.9c0,5,1.4,18.5,1.6,25.4c0.2,6.9-7.1,13.9-16.7,14.6c-4,0.3-58.7,1.7-111.3,3.1"
		/>
	<path class="st2" d="M57.4,103.3c1.1-4.6,3.2-14.2,3.7-17.6c0.5-3.4,1.6-7.3,7.5-6.9c5.9,0.5,16.9-0.5,24.5-6.4
		c7.5-5.9,20.6-22.2,42.3-22.2s33.6,9.8,41.4,15.1s21.5,15.3,26.5,20.3c5,5,12.8,12.3,26.3,45.5c10.6,26.1,19.3,38.9,40.7,53.2
		c26.3,17.6,43.2,15.1,71.1,13.7"/>
	<path class="st3" d="M344.5,312.5c-49.6,1.3-97.3,2.5-98.5,2.6c-2.5,0.2-5.5-0.5-6.2-1.4c-0.7-0.9-2.1-5.3-2.7-8.2
		c-0.7-3-5.7-11.2-12.1-14.9c-6.4-3.7-14.9-6.6-29-4.8c-14.2,1.8-48.9,1.6-62.4,0.2c-13.5-1.4-38.6-5.9-46.9-8
		c-8.2-2.1-18.1-4.6-20.3-5.7c-2.3-1.1-5.7-1.6-6.4-5.9c-0.7-4.3,0.9-5,2.5-7.8c1.6-2.7,11.4-16.2,12.8-18.3
		c1.4-2.1,1.8-3.2,1.8-5.7s-0.7-4.1-3-6.2c-2.3-2.1-31.7-28.8-34.3-31.5c-3-3.2-5.3-5.7-4.8-12.6c0.5-6.9,2.5-18.3,3-23.8
		c0.5-5.5,1.8-13.3,3.4-18.1c1.6-4.8,3.9-9.4,7.3-17.6c3.4-8.2,7.5-17.1,8.7-21.7"/>
</g>
<g id="コーナー番号">
	<g>
		<g>
			<circle class="st4" cx="226.5" cy="328.5" r="8.5"/>
			<circle class="st5" cx="226.5" cy="328.5" r="8.5"/>
		</g>
		<g>
			<path class="st6" d="M224.8,332.4v-1.6h1v-4.5h-0.9v-1.6h2.6v6.1h0.9v1.6H224.8z"/>
		</g>
	</g>
	<g>
		<g>
			<circle class="st4" cx="237.8" cy="275.1" r="8.5"/>
			<circle class="st5" cx="237.8" cy="275.1" r="8.5"/>
		</g>
		<g>
			<path class="st6" d="M235.7,279v-2.6c0-0.6,0.1-1,0.6-1.2l1.9-0.8v-1.6l-0.1-0.1h-0.5l-0.1,0.1v1.1h-1.7v-1.3
				c0-0.8,0.4-1.1,0.8-1.3h2.5c0.5,0.2,0.8,0.5,0.8,1.3v1.9c0,0.6-0.1,0.9-0.6,1.2l-1.9,0.8v0.9h2.4v1.6H235.7z"/>
		</g>
	</g>
	<g>
		<g>
			<circle class="st4" cx="39.9" cy="273.6" r="8.5"/>
			<circle class="st5" cx="39.9" cy="273.6" r="8.5"/>
		</g>
		<g>
			<path class="st6" d="M38.6,277.5c-0.5-0.2-0.8-0.5-0.8-1.3v-1h1.7v0.8l0.1,0.1h0.5l0.1-0.1v-1.6l-0.1-0.1h-1V273h1l0.1-0.1v-1.5
				l-0.1-0.1h-0.5l-0.1,0.1v0.8h-1.7v-1c0-0.8,0.4-1.1,0.8-1.3h2.5c0.5,0.2,0.8,0.5,0.8,1.3v1.3c0,0.6-0.2,0.9-0.6,1.2
				c0.4,0.3,0.6,0.6,0.6,1.2v1.4c0,0.8-0.4,1.1-0.8,1.3H38.6z"/>
		</g>
	</g>
	<g>
		<g>
			<circle class="st4" cx="96.1" cy="230.5" r="8.5"/>
			<circle class="st5" cx="96.1" cy="230.5" r="8.5"/>
		</g>
		<g>
			<path class="st6" d="M97.8,232.9v1.5h-1.7v-1.5h-2.2v-1.5l1.6-4.7h1.7l-1.6,4.6h0.5v-0.4l0.4-1h1.3v1.4h0.5v1.6H97.8z"/>
		</g>
	</g>
	<g>
		<g>
			<circle class="st4" cx="16.7" cy="195.9" r="8.5"/>
			<circle class="st5" cx="16.7" cy="195.9" r="8.5"/>
		</g>
		<g>
			<path class="st6" d="M15.4,199.8c-0.5-0.2-0.8-0.5-0.8-1.3v-1h1.6v0.8l0.1,0.1h0.6l0.1-0.1v-2.1l-0.1-0.1h-0.6l-0.1,0.1v0.4h-1.6
				v-4.5h4v1.5h-2.4v1.6l0.4-0.4h1.3c0.5,0.2,0.8,0.5,0.8,1.3v2.4c0,0.8-0.4,1.1-0.8,1.3H15.4z"/>
		</g>
	</g>
	<g>
		<g>
			<circle class="st4" cx="49.2" cy="66.7" r="8.5"/>
			<circle class="st5" cx="49.2" cy="66.7" r="8.5"/>
		</g>
		<g>
			<path class="st6" d="M50.5,70.6H48c-0.5-0.2-0.8-0.5-0.8-1.3v-5.1c0-0.8,0.4-1.1,0.8-1.3h2.5c0.5,0.2,0.8,0.5,0.8,1.3v1h-1.7
				v-0.8l-0.1-0.1h-0.5l-0.1,0.1v1.8l0.3-0.3h1.3c0.5,0.2,0.8,0.5,0.8,1.3v2.2C51.3,70.1,50.9,70.4,50.5,70.6z M49.5,69.2l0.1-0.1
				v-1.8l-0.1-0.1h-0.5l-0.1,0.1v1.8l0.1,0.1H49.5z"/>
		</g>
	</g>
	<g>
		<g>
			<circle class="st4" cx="106.3" cy="89" r="8.5"/>
			<circle class="st5" cx="106.3" cy="89" r="8.5"/>
		</g>
		<g>
			<path class="st6" d="M104.5,92.9l2.1-6.2h-2.4v-1.5h4.1v1.2l-2.1,6.5H104.5z"/>
		</g>
	</g>
	<g>
		<g>
			<circle class="st4" cx="141.8" cy="30.8" r="8.5"/>
			<circle class="st5" cx="141.8" cy="30.8" r="8.5"/>
		</g>
		<g>
			<path class="st6" d="M140.5,34.7c-0.5-0.2-0.8-0.5-0.8-1.3V32c0-0.6,0.2-0.9,0.6-1.2c-0.4-0.3-0.6-0.6-0.6-1.2v-1.3
				c0-0.8,0.4-1.1,0.8-1.3h2.5c0.5,0.2,0.8,0.5,0.8,1.3v1.3c0,0.6-0.2,0.9-0.6,1.2c0.4,0.3,0.6,0.6,0.6,1.2v1.4
				c0,0.8-0.4,1.1-0.8,1.3H140.5z M141.4,30.1l0.1,0.1h0.5l0.1-0.1v-1.5l-0.1-0.1h-0.5l-0.1,0.1V30.1z M142.1,33.2v-1.6l-0.1-0.1
				h-0.5l-0.1,0.1v1.6l0.1,0.1h0.5L142.1,33.2z"/>
		</g>
	</g>
	<g>
		<g>
			<circle class="st4" cx="380.6" cy="212.5" r="8.5"/>
			<circle class="st5" cx="380.6" cy="212.5" r="8.5"/>
		</g>
		<g>
			<path class="st6" d="M379.3,216.3c-0.5-0.2-0.8-0.5-0.8-1.3v-1h1.7v0.8l0.1,0.1h0.5l0.1-0.1v-1.8l-0.3,0.3h-1.3
				c-0.5-0.2-0.8-0.5-0.8-1.3V210c0-0.8,0.4-1.1,0.8-1.3h2.5c0.5,0.2,0.8,0.5,0.8,1.3v5.1c0,0.8-0.4,1.1-0.8,1.3H379.3z M381,212
				v-1.8l-0.1-0.1h-0.5l-0.1,0.1v1.8l0.1,0.1h0.5L381,212z"/>
		</g>
	</g>
	<g>
		<g>
			<circle class="st4" cx="380.5" cy="154.4" r="8.5"/>
			<circle class="st5" cx="380.5" cy="154.4" r="8.5"/>
		</g>
		<g>
			<path class="st6" d="M376.4,158.3v-1.6h1v-4.5h-0.9v-1.6h2.6v6.1h0.9v1.6H376.4z"/>
			<path class="st6" d="M384,158.3h-2.5c-0.5-0.2-0.8-0.5-0.8-1.3v-5.1c0-0.8,0.4-1.1,0.8-1.3h2.5c0.5,0.2,0.8,0.5,0.8,1.3v5.1
				C384.9,157.8,384.5,158.1,384,158.3z M383.2,152.1l-0.1-0.1h-0.5l-0.1,0.1v4.7l0.1,0.1h0.5l0.1-0.1V152.1z"/>
		</g>
	</g>
	<g>
		<g>
			<circle class="st4" cx="591.1" cy="210" r="8.5"/>
			<circle class="st5" cx="591.1" cy="210" r="8.5"/>
		</g>
		<g>
			<path class="st6" d="M587.1,213.8v-1.6h1v-4.5h-0.9v-1.6h2.6v6.1h0.9v1.6H587.1z"/>
			<path class="st6" d="M591.8,213.8v-1.6h1v-4.5h-0.9v-1.6h2.6v6.1h0.9v1.6H591.8z"/>
		</g>
	</g>
	<g>
		<g>
			<circle class="st4" cx="540.3" cy="295.3" r="8.5"/>
			<circle class="st5" cx="540.3" cy="295.3" r="8.5"/>
		</g>
		<g>
			<path class="st6" d="M536.3,299.2v-1.6h1v-4.5h-0.9v-1.6h2.6v6.1h0.9v1.6H536.3z"/>
			<path class="st6" d="M540.6,299.2v-2.6c0-0.6,0.1-1,0.6-1.2l1.9-0.8V293l-0.1-0.1h-0.5l-0.1,0.1v1.1h-1.7v-1.3
				c0-0.8,0.4-1.1,0.8-1.3h2.5c0.5,0.2,0.8,0.5,0.8,1.3v1.9c0,0.6-0.1,0.9-0.6,1.2l-1.9,0.8v0.9h2.4v1.6H540.6z"/>
		</g>
	</g>
	<g>
		<g>
			<circle class="st4" cx="458.8" cy="252.8" r="8.5"/>
			<circle class="st5" cx="458.8" cy="252.8" r="8.5"/>
		</g>
		<g>
			<path class="st6" d="M454.8,256.7v-1.6h1v-4.5h-0.9V249h2.6v6.1h0.9v1.6H454.8z"/>
			<path class="st6" d="M459.9,256.7c-0.5-0.2-0.8-0.5-0.8-1.3v-1h1.7v0.8l0.1,0.1h0.5l0.1-0.1v-1.6l-0.1-0.1h-1v-1.3h1l0.1-0.1
				v-1.5l-0.1-0.1h-0.5l-0.1,0.1v0.8h-1.7v-1c0-0.8,0.4-1.1,0.8-1.3h2.5c0.5,0.2,0.8,0.5,0.8,1.3v1.3c0,0.6-0.2,0.9-0.6,1.2
				c0.4,0.3,0.6,0.6,0.6,1.2v1.4c0,0.8-0.4,1.1-0.8,1.3H459.9z"/>
		</g>
	</g>
	<g>
		<g>
			<circle class="st4" cx="479" cy="320.9" r="8.5"/>
			<circle class="st5" cx="479" cy="320.9" r="8.5"/>
		</g>
		<g>
			<path class="st6" d="M475,324.7v-1.6h1v-4.5h-0.9v-1.6h2.6v6.1h0.9v1.6H475z"/>
			<path class="st6" d="M483,323.3v1.5h-1.7v-1.5h-2.2v-1.5l1.6-4.7h1.7l-1.6,4.6h0.5v-0.4l0.4-1h1.3v1.4h0.5v1.6H483z"/>
		</g>
	</g>
</g>


<g id="アイコン">
	<g>
		<rect x="336.3" y="285.2" class="st5" width="2.8" height="2.8"/>
		<rect x="342" y="285.2" class="st5" width="2.8" height="2.8"/>
		<rect x="339.1" y="288" class="st5" width="2.8" height="2.8"/>
		<rect x="344.8" y="288" class="st5" width="2.8" height="2.8"/>
		<rect x="339.1" y="293.7" class="st5" width="2.8" height="2.8"/>
		<rect x="344.8" y="293.7" class="st5" width="2.8" height="2.8"/>
		<rect x="347.6" y="285.2" class="st5" width="2.8" height="2.8"/>
		<rect x="344.8" y="285.2" class="st6" width="2.8" height="2.8"/>
		<rect x="339.1" y="285.2" class="st6" width="2.8" height="2.8"/>
		<rect x="336.3" y="288" class="st6" width="2.8" height="2.8"/>
		<rect x="342" y="288" class="st6" width="2.8" height="2.8"/>
		<rect x="347.6" y="288" class="st6" width="2.8" height="2.8"/>
		<rect x="344.8" y="290.9" class="st6" width="2.8" height="2.8"/>
		<rect x="339.1" y="290.9" class="st6" width="2.8" height="2.8"/>
		<rect x="344.8" y="296.5" class="st6" width="2.8" height="2.8"/>
		<rect x="339.1" y="296.5" class="st6" width="2.8" height="2.8"/>
		<rect x="336.3" y="293.7" class="st6" width="2.8" height="2.8"/>
		<rect x="342" y="293.7" class="st6" width="2.8" height="2.8"/>
		<rect x="347.6" y="293.7" class="st6" width="2.8" height="2.8"/>
		<rect x="336.3" y="290.9" class="st5" width="2.8" height="2.8"/>
		<rect x="342" y="290.9" class="st5" width="2.8" height="2.8"/>
		<rect x="342" y="296.5" class="st5" width="2.8" height="2.8"/>
		<rect x="347.6" y="290.9" class="st5" width="2.8" height="2.8"/>
		<rect x="336.3" y="296.5" class="st5" width="2.8" height="2.8"/>
		<rect x="347.6" y="296.5" class="st5" width="2.8" height="2.8"/>
	</g>
	<g>
		<defs>
			
				<rect id="SVGID_1_" x="294.3" y="291.2" transform="matrix(1 -2.438543e-03 2.438543e-03 1 -0.7195 0.7458)" width="22.3" height="8.5"/>
		</defs>
		<clipPath id="SVGID_00000111154361997363236800000009779588663605532039_">
			<use xlink:href="#SVGID_1_"  style="overflow:visible;"/>
		</clipPath>
		<g style="clip-path:url(#SVGID_00000111154361997363236800000009779588663605532039_);">
			<polygon class="st14" points="315.4,302.5 312.6,302.5 306.9,295.4 312.5,288.3 315.4,288.3 309.7,295.4 			"/>
			<polygon class="st15" points="309.7,302.5 306.9,302.5 301.2,295.4 306.9,288.3 309.7,288.3 304.1,295.4 			"/>
			<polygon class="st16" points="304.1,302.5 301.2,302.5 295.6,295.4 301.2,288.3 304,288.3 298.4,295.4 			"/>
		</g>
	</g>
	<g>
		<g>
			<path class="st6" d="M590.8,44.7c0,1.6-1.3,2.8-2.8,2.8H219.1c-1.6,0-2.8-1.3-2.8-2.8V19.8c0-1.6,1.3-2.8,2.8-2.8h368.8
				c1.6,0,2.8,1.3,2.8,2.8V44.7z"/>
			<path class="st17" d="M590.8,44.7c0,1.6-1.3,2.8-2.8,2.8H219.1c-1.6,0-2.8-1.3-2.8-2.8V19.8c0-1.6,1.3-2.8,2.8-2.8h368.8
				c1.6,0,2.8,1.3,2.8,2.8V44.7z"/>
		</g>
		<g>
			<path class="st5" d="M261.8,33.7v2.6c0,1.3-0.6,1.7-1.3,2h-3.3c-0.7-0.3-1.3-0.7-1.3-2v-2h1.8v2.1l0.4,0.4h1.6l0.4-0.4v-2.8
				l-0.3-0.4l-2.6-0.8c-0.8-0.3-1.1-0.8-1.1-1.9v-2.2c0-1.3,0.6-1.7,1.3-2h3.3c0.7,0.3,1.3,0.7,1.3,2v1.9H260v-2.1l-0.4-0.4h-1.6
				l-0.4,0.4v2.4l0.4,0.4l2.6,0.7C261.4,32,261.8,32.5,261.8,33.7z"/>
			<path class="st5" d="M263.1,26.3h5.1v1.6h-3.3v3.4h3.1V33h-3.1v3.7h3.4v1.6h-5.2V26.3z"/>
			<path class="st5" d="M275.5,36.3c0,1.3-0.6,1.7-1.3,2h-3.3c-0.7-0.3-1.3-0.7-1.3-2v-8c0-1.3,0.6-1.7,1.3-2h3.3
				c0.7,0.3,1.3,0.7,1.3,2V31h-1.8v-2.8l-0.4-0.4h-1.6l-0.4,0.4v8.3l0.4,0.4h1.6l0.4-0.4v-2.7h1.8V36.3z"/>
			<path class="st5" d="M280.2,27.9v10.3h-1.8V27.9h-2.1v-1.6h6.1v1.6H280.2z"/>
			<path class="st5" d="M289.1,36.3c0,1.3-0.6,1.7-1.3,2h-3.3c-0.7-0.3-1.3-0.7-1.3-2v-8c0-1.3,0.6-1.7,1.3-2h3.3
				c0.7,0.3,1.3,0.7,1.3,2V36.3z M287.3,28.1l-0.4-0.4h-1.6l-0.4,0.4v8.3l0.4,0.4h1.6l0.4-0.4V28.1z"/>
			<path class="st5" d="M290.5,38.3v-12h4.6c0.7,0.3,1.3,0.7,1.3,2v2.6c0,1.3-0.6,1.6-1.3,1.9l-0.3,0.1l2.1,4.3v1.1h-1.6l-2.2-5.1
				h-0.8v5.1H290.5z M292.3,27.8v3.9h2l0.4-0.4v-3.1l-0.4-0.4H292.3z"/>
			<path class="st5" d="M300.6,38.3v-1.6h1.8v-8.7h-1.7v-1.6h3.5v10.4h1.7v1.6H300.6z"/>
		</g>
		<line class="st18" x1="230.5" y1="32.4" x2="251.7" y2="32.4"/>
		<g>
			<path class="st5" d="M351.9,33.7v2.6c0,1.3-0.6,1.7-1.3,2h-3.3c-0.7-0.3-1.3-0.7-1.3-2v-2h1.8v2.1l0.4,0.4h1.6l0.4-0.4v-2.8
				l-0.3-0.4l-2.6-0.8c-0.8-0.3-1.1-0.8-1.1-1.9v-2.2c0-1.3,0.6-1.7,1.3-2h3.3c0.7,0.3,1.3,0.7,1.3,2v1.9h-1.8v-2.1l-0.4-0.4h-1.6
				l-0.4,0.4v2.4l0.4,0.4l2.6,0.7C351.5,32,351.9,32.5,351.9,33.7z"/>
			<path class="st5" d="M353.2,26.3h5.1v1.6H355v3.4h3.1V33H355v3.7h3.4v1.6h-5.2V26.3z"/>
			<path class="st5" d="M365.6,36.3c0,1.3-0.6,1.7-1.3,2H361c-0.7-0.3-1.3-0.7-1.3-2v-8c0-1.3,0.6-1.7,1.3-2h3.3
				c0.7,0.3,1.3,0.7,1.3,2V31h-1.8v-2.8l-0.4-0.4h-1.6l-0.4,0.4v8.3l0.4,0.4h1.6l0.4-0.4v-2.7h1.8V36.3z"/>
			<path class="st5" d="M370.3,27.9v10.3h-1.8V27.9h-2.1v-1.6h6.1v1.6H370.3z"/>
			<path class="st5" d="M379.2,36.3c0,1.3-0.6,1.7-1.3,2h-3.3c-0.7-0.3-1.3-0.7-1.3-2v-8c0-1.3,0.6-1.7,1.3-2h3.3
				c0.7,0.3,1.3,0.7,1.3,2V36.3z M377.4,28.1l-0.4-0.4h-1.6l-0.4,0.4v8.3l0.4,0.4h1.6l0.4-0.4V28.1z"/>
			<path class="st5" d="M380.6,38.3v-12h4.6c0.7,0.3,1.3,0.7,1.3,2v2.6c0,1.3-0.6,1.6-1.3,1.9l-0.3,0.1l2.1,4.3v1.1h-1.6l-2.2-5.1
				h-0.8v5.1H380.6z M382.4,27.8v3.9h2l0.4-0.4v-3.1l-0.4-0.4H382.4z"/>
			<path class="st5" d="M390.3,38.3v-3.6c0-1.1,0.4-1.7,1.2-2.1l3-1.2v-3.2l-0.4-0.4h-1.7l-0.4,0.4v2h-1.8v-1.9c0-1.3,0.6-1.7,1.3-2
				h3.3c0.7,0.3,1.3,0.7,1.3,2v2.5c0,1.1-0.3,1.7-1.1,2.1l-3,1.2v2.5h4.1v1.6H390.3z"/>
		</g>
		<line class="st19" x1="320.6" y1="32.4" x2="341.9" y2="32.4"/>
		<g>
			<path class="st5" d="M441.8,33.7v2.6c0,1.3-0.6,1.7-1.3,2h-3.3c-0.7-0.3-1.3-0.7-1.3-2v-2h1.8v2.1l0.4,0.4h1.6l0.4-0.4v-2.8
				l-0.3-0.4l-2.6-0.8c-0.8-0.3-1.1-0.8-1.1-1.9v-2.2c0-1.3,0.6-1.7,1.3-2h3.3c0.7,0.3,1.3,0.7,1.3,2v1.9H440v-2.1l-0.4-0.4H438
				l-0.4,0.4v2.4L438,31l2.6,0.7C441.4,32,441.8,32.5,441.8,33.7z"/>
			<path class="st5" d="M443.1,26.3h5.1v1.6h-3.3v3.4h3.1V33h-3.1v3.7h3.4v1.6h-5.2V26.3z"/>
			<path class="st5" d="M455.4,36.3c0,1.3-0.6,1.7-1.3,2h-3.3c-0.7-0.3-1.3-0.7-1.3-2v-8c0-1.3,0.6-1.7,1.3-2h3.3
				c0.7,0.3,1.3,0.7,1.3,2V31h-1.8v-2.8l-0.4-0.4h-1.6l-0.4,0.4v8.3l0.4,0.4h1.6l0.4-0.4v-2.7h1.8V36.3z"/>
			<path class="st5" d="M460.2,27.9v10.3h-1.8V27.9h-2.1v-1.6h6.1v1.6H460.2z"/>
			<path class="st5" d="M469,36.3c0,1.3-0.6,1.7-1.3,2h-3.3c-0.7-0.3-1.3-0.7-1.3-2v-8c0-1.3,0.6-1.7,1.3-2h3.3
				c0.7,0.3,1.3,0.7,1.3,2V36.3z M467.2,28.1l-0.4-0.4h-1.6l-0.4,0.4v8.3l0.4,0.4h1.6l0.4-0.4V28.1z"/>
			<path class="st5" d="M470.4,38.3v-12h4.6c0.7,0.3,1.3,0.7,1.3,2v2.6c0,1.3-0.6,1.6-1.3,1.9l-0.3,0.1l2.1,4.3v1.1h-1.6l-2.2-5.1
				h-0.8v5.1H470.4z M472.2,27.8v3.9h2l0.4-0.4v-3.1l-0.4-0.4H472.2z"/>
			<path class="st5" d="M481.4,38.3c-0.7-0.3-1.3-0.7-1.3-2v-1.7h1.8v1.8l0.4,0.4h1.7l0.4-0.4v-3.2l-0.4-0.3h-1.8v-1.4h1.8l0.4-0.4
				v-3l-0.4-0.4h-1.7l-0.4,0.4v1.8h-1.8v-1.7c0-1.3,0.6-1.7,1.3-2h3.3c0.7,0.3,1.3,0.7,1.3,2v1.9c0,1-0.2,1.5-0.9,1.9
				c0.6,0.4,0.9,0.9,0.9,1.9v2.2c0,1.3-0.6,1.7-1.3,2H481.4z"/>
		</g>
		<line class="st20" x1="410.4" y1="32.4" x2="431.7" y2="32.4"/>
		<g>
			<path class="st5" d="M531.7,36.3c0,1.3-0.6,1.7-1.3,2h-4.6v-12h4.6c0.7,0.3,1.3,0.7,1.3,2V36.3z M527.5,27.8v9h2l0.4-0.4v-8.3
				l-0.4-0.4H527.5z"/>
			<path class="st5" d="M533.1,38.3v-12h4.6c0.7,0.3,1.3,0.7,1.3,2v2.6c0,1.3-0.6,1.6-1.3,1.9l-0.3,0.1l2.1,4.3v1.1h-1.6l-2.2-5.1
				h-0.8v5.1H533.1z M534.9,27.8v3.9h2l0.4-0.4v-3.1l-0.4-0.4H534.9z"/>
			<path class="st5" d="M546.1,33.7v2.6c0,1.3-0.6,1.7-1.3,2h-3.3c-0.7-0.3-1.3-0.7-1.3-2v-2h1.8v2.1l0.4,0.4h1.6l0.4-0.4v-2.8
				l-0.3-0.4l-2.6-0.8c-0.8-0.3-1.1-0.8-1.1-1.9v-2.2c0-1.3,0.6-1.7,1.3-2h3.3c0.7,0.3,1.3,0.7,1.3,2v1.9h-1.8v-2.1l-0.4-0.4h-1.6
				l-0.4,0.4v2.4l0.4,0.4l2.6,0.7C545.7,32,546.1,32.5,546.1,33.7z"/>
			<path class="st5" d="M553.7,27.9h-3.9v-1.6h5.8v1.5l-4,8.9h4v1.6h-5.9v-1.5L553.7,27.9z"/>
			<path class="st5" d="M562.8,36.3c0,1.3-0.6,1.7-1.3,2h-3.3c-0.7-0.3-1.3-0.7-1.3-2v-8c0-1.3,0.6-1.7,1.3-2h3.3
				c0.7,0.3,1.3,0.7,1.3,2V36.3z M561,28.1l-0.4-0.4H559l-0.4,0.4v8.3l0.4,0.4h1.6l0.4-0.4V28.1z"/>
			<path class="st5" d="M568.5,26.3h1.6v12h-1.6l-2.6-7.1h-0.2v7.1h-1.6v-12h1.6l2.6,7.1h0.2V26.3z"/>
			<path class="st5" d="M571.5,26.3h5.1v1.6h-3.3v3.4h3.1V33h-3.1v3.7h3.4v1.6h-5.2V26.3z"/>
		</g>
		<g>
			<g>
				<g>
					<g>
						<line class="st12" x1="501.8" y1="24.9" x2="501.8" y2="39.8"/>
					</g>
					<g>
						<path class="st10" d="M509.4,32.4c0,0.8-0.7,1.4-1.5,1.4s-1.5-0.6-1.5-1.4c0-0.8,0.7-1.4,1.5-1.4S509.4,31.6,509.4,32.4z"/>
					</g>
					<g>
						<path class="st10" d="M515.4,32.4c0,0.8-0.7,1.4-1.5,1.4s-1.5-0.6-1.5-1.4c0-0.8,0.7-1.4,1.5-1.4S515.4,31.6,515.4,32.4z"/>
					</g>
					<g>
						<line class="st12" x1="520" y1="24.9" x2="520" y2="39.8"/>
					</g>
				</g>
			</g>
		</g>
	</g>
</g>
</svg>
