<?xml version="1.0" encoding="utf-8"?>
<!-- Generator: Adobe Illustrator 26.5.0, SVG Export Plug-In . SVG Version: 6.00 Build 0)  -->
<svg version="1.1" xmlns="http://www.w3.org/2000/svg" xmlns:xlink="http://www.w3.org/1999/xlink" x="0px" y="0px"
	 viewBox="0.0 0.0 550.0 378.3" style="enable-background:new 0 0 550 443.7;" xml:space="preserve">
<style type="text/css">
	.st0{fill:none;stroke:#646464;stroke-width:5.775;stroke-miterlimit:10;}
	.st1{fill:none;stroke:#F4442E;stroke-width:1.155;stroke-miterlimit:10;}
	.st2{fill:none;stroke:#FFD449;stroke-width:1.155;stroke-miterlimit:10;}
	.st3{fill:none;stroke:#54C6EB;stroke-width:1.155;stroke-miterlimit:10;}
	.st4{fill:none;stroke:#FFFFFF;stroke-width:0.866;}
	.st5{fill:#646464;}
	.st6{fill:#FFFFFF;}
	.st7{fill:none;stroke:#646464;stroke-width:1.155;stroke-miterlimit:10;}
	.st8{fill:#09BC8A;}
	.st9{fill:none;stroke:#09BC8A;stroke-width:0.900;stroke-miterlimit:10;}
	.st10{fill:none;stroke:#09BC8A;stroke-width:0.809;stroke-miterlimit:10;}
	.st11{fill:#FF3380;}
	.st12{fill:none;stroke:#FF3380;stroke-width:0.809;stroke-miterlimit:10;}
	.st13{clip-path:url(#SVGID_00000102532847035887952980000012475410925576605334_);}
	.st14{fill:#F4442E;}
	.st15{fill:#54C6EB;}
	.st16{fill:#FFD449;}
	.st17{fill:none;stroke:#646464;stroke-width:0.289;stroke-miterlimit:10;}
	.st18{fill:none;stroke:#F4442E;stroke-width:2.310;stroke-miterlimit:10;}
	.st19{fill:none;stroke:#54C6EB;stroke-width:2.310;stroke-miterlimit:10;}
	.st20{fill:none;stroke:#FFD449;stroke-width:2.310;stroke-miterlimit:10;}
	.st21{fill:none;stroke:#09BC8A;stroke-width:1.155;stroke-miterlimit:10;}
</style>
<g id="コース">
	<path class="st0" d="M155.8,217.6c0,0-104.8,60.2-109.1,62.4c-4.2,2.2-7-0.9-4.2-6.5c2.8-5.5,12.4-24.5,16.6-33s19.9-28.1,32.7-38
		c12.7-10,34-27.3,39.3-31.6c12-9.8,7.8-15.7,21-25.8c13.3-10.2,24.2-2,38.8-13.3c7.6-5.9,33.8-21,40.1-25.3
		c6.3-4.2,14.8-8.5,25.1-11.6c10.3-3.1,159.5-45,163-45.8c3.5-0.7,10.2-2.2,14.8,5.7c4.6,7.9,7.4,9.2,16.1,7.4s12.7-3.7,15.9-4.2
		c3.1-0.6,10-3.5,16.6,6.1c6.6,9.6,33.4,49.7,37.3,55.2c8.1,11.3-9.8,26.4-18.6,13.1c-6.4-9.6-12-19.2-14-22.7s-6.3-10.7-16.2-7.2
		c-10,3.5-34.1,11.6-47.6,14.2c-13.5,2.6-44.1,7.2-52.4,8.7s-15.3,8.9-16.6,16.6c-1.3,7.8-1.5,11.8-2,19.2
		c-0.6,7.4,6.6,25.3,18.6,30.1c12,4.8,60.5,24.7,68.3,27.7c7.8,3,17.2,13.4,9.8,25.5c-7.6,12.4-9.8,22,0.9,29
		c10.7,7,30.8,19.6,35.8,23.1s9.8,10.2,5.4,17s-12,17.4-16.4,22.7s-9.2,8.7-17.2,8.9c-7.9,0.2-29.2-8.7-36-13.1
		s-32.3-26.6-43.2-48.9c-7.2-14.7-20.3-46.9-39.9-57.6c-16.5-9-34.2-16.5-39.3-18.6c-6.5-2.8-15.5-4.1-24-0.7
		c-8.5,3.3-38.2,15-44.3,17c-6.1,2-16.4,3.9-29.9,5c-13.5,1.1-31.6,2.4-34.7,2.6c-3.1,0.2-4.1-2.4-3.5-6.3
		C163,220.3,163.4,212,155.8,217.6z"/>
</g>
<g id="セクター">
	<path class="st1" d="M125.4,235c-31.3,18-75.9,43.5-78.6,44.9c-4.2,2.2-7-0.9-4.2-6.5c2.8-5.5,12.4-24.5,16.6-33s19.9-28.1,32.7-38
		c12.7-10,34-27.3,39.3-31.6c12-9.8,7.8-15.7,21-25.8c13.3-10.2,24.2-2,38.8-13.3c7.6-5.9,33.8-21,40.1-25.3
		c6.3-4.2,14.8-8.5,25.1-11.6c9-2.7,124.4-35.2,155.4-43.7"/>
	<path class="st2" d="M482.4,325.6c-2.9,4-5.8,7.9-8,10.5c-4.4,5.4-9.2,8.7-17.2,8.9c-7.9,0.2-29.2-8.7-36-13.1
		s-32.3-26.6-43.2-48.9c-7.2-14.7-20.3-46.9-39.9-57.6c-16.5-9-34.2-16.5-39.3-18.6c-6.5-2.8-15.5-4.1-24-0.7
		c-8.5,3.3-38.2,15-44.3,17c-6.1,2-16.4,3.9-29.9,5c-13.5,1.1-31.6,2.4-34.7,2.6c-3.1,0.2-4.1-2.4-3.5-6.3c0.6-3.9,0.9-12.2-6.6-6.6
		c0,0-13.2,7.6-30.5,17.5"/>
	<path class="st3" d="M411.5,51.1c4.4-1.2,7.1-2,7.6-2c3.5-0.7,10.2-2.2,14.8,5.7c4.6,7.9,7.4,9.2,16.1,7.4s12.7-3.7,15.9-4.2
		c3.1-0.6,10-3.5,16.6,6.1c6.6,9.6,33.4,49.7,37.3,55.2c8.1,11.3-9.8,26.4-18.6,13.1c-6.4-9.6-12-19.2-14-22.7s-6.3-10.7-16.2-7.2
		c-10,3.5-34.1,11.6-47.6,14.2c-13.5,2.6-44.1,7.2-52.4,8.7s-15.3,8.9-16.6,16.6c-1.3,7.8-1.5,11.8-2,19.2
		c-0.6,7.4,6.6,25.3,18.6,30.1c12,4.8,60.5,24.7,68.3,27.7c7.8,3,17.2,13.4,9.8,25.5c-7.6,12.4-9.8,22,0.9,29
		c10.7,7,30.8,19.6,35.8,23.1s9.8,10.2,5.4,17c-2.3,3.5-5.4,8-8.4,12.2"/>
</g>
<g id="コーナー番号">
	<g>
		<g>
			
			
		</g>
		<g>
			
		</g>
	</g>
	<g>
		<g>
			
			
		</g>
		<g>
			
		</g>
	</g>
	<g>
		<g>
			
			
		</g>
		<g>
			
		</g>
	</g>
	<g>
		<g>
			
			
		</g>
		<g>
			
		</g>
	</g>
	<g>
		<g>
			
			
		</g>
		<g>
			
		</g>
	</g>
	<g>
		<g>
			
			
		</g>
		<g>
			
		</g>
	</g>
	<g>
		<g>
			
			
		</g>
		<g>
			
		</g>
	</g>
	<g>
		<g>
			
			
		</g>
		<g>
			
		</g>
	</g>
	<g>
		<g>
			
			
		</g>
		<g>
			
		</g>
	</g>
	<g>
		<g>
			
			
		</g>
		<g>
			
			
		</g>
	</g>
	<g>
		<g>
			
			
		</g>
		<g>
			
			
		</g>
	</g>
	<g>
		<g>
			
			
		</g>
		<g>
			
			
		</g>
	</g>
	<g>
		<g>
			
			
		</g>
		<g>
			
			
		</g>
	</g>
	<g>
		<g>
			
			
		</g>
		<g>
			
			
		</g>
	</g>
	<g>
		<g>
			
			
		</g>
		<g>
			
			
		</g>
	</g>
	<g>
		<g>
			
			
		</g>
		<g>
			
			
		</g>
	</g>
	<g>
		<g>
			
			
		</g>
		<g>
			
			
		</g>
	</g>
	<g>
		<g>
			
			
		</g>
		<g>
			
			
		</g>
	</g>
	<g>
		<g>
			
			
		</g>
		<g>
			
			
		</g>
	</g>
</g>



</svg>
