<?xml version="1.0" encoding="utf-8"?>
<!-- Generator: Adobe Illustrator 26.5.0, SVG Export Plug-In . SVG Version: 6.00 Build 0)  -->
<svg version="1.1" xmlns="http://www.w3.org/2000/svg" xmlns:xlink="http://www.w3.org/1999/xlink" x="0px" y="0px"
	 viewBox="0.0 0.0 525.2 311.0" style="enable-background:new 0 0 525.2 331.8;" xml:space="preserve">
<style type="text/css">
	.st0{fill:none;stroke:#646464;stroke-width:5.515;stroke-linecap:round;stroke-linejoin:round;stroke-miterlimit:10;}
	.st1{fill:none;stroke:#FFD449;stroke-width:1.103;stroke-miterlimit:10;}
	.st2{fill:none;stroke:#54C6EB;stroke-width:1.103;stroke-miterlimit:10;}
	.st3{fill:none;stroke:#F4442E;stroke-width:1.103;stroke-miterlimit:10;}
	.st4{fill:none;stroke:#FFFFFF;stroke-width:0.827;}
	.st5{fill:#646464;}
	.st6{fill:#FFFFFF;}
	.st7{fill:none;stroke:#646464;stroke-width:1.103;stroke-miterlimit:10;}
	.st8{fill:#FF3380;}
	.st9{fill:none;stroke:#FF3380;stroke-width:0.772;stroke-miterlimit:10;}
	.st10{fill:#09BC8A;}
	.st11{fill:none;stroke:#09BC8A;stroke-width:0.772;stroke-miterlimit:10;}
	.st12{fill:none;stroke:#09BC8A;stroke-width:0.860;stroke-miterlimit:10;}
	.st13{fill:none;stroke:#646464;stroke-width:0.276;stroke-miterlimit:10;}
	.st14{fill:none;stroke:#F4442E;stroke-width:2.206;stroke-miterlimit:10;}
	.st15{fill:none;stroke:#54C6EB;stroke-width:2.206;stroke-miterlimit:10;}
	.st16{fill:none;stroke:#FFD449;stroke-width:2.206;stroke-miterlimit:10;}
	.st17{fill:none;stroke:#09BC8A;stroke-width:1.103;stroke-miterlimit:10;}
	.st18{clip-path:url(#SVGID_00000182489371729919953420000015993495800105837713_);}
	.st19{fill:#F4442E;}
	.st20{fill:#54C6EB;}
	.st21{fill:#FFD449;}
</style>
<g id="コース">
	<path class="st0" d="M387.7,272.6c0,0-89.9-52.7-96.9-57.7c-7-5-7.8-15.7-7.6-25.8c0.1-10.1,3.7-30-7-41.4
		c-10.7-11.4-32.3-32.8-35.1-36.1c-2.8-3.4-4.2-7.9,0.4-10.2c4.7-2.3,16.7-7.2,20.5-9.2c3.8-2,6.9-4.5,6.6-6.7
		c-0.3-2.2-3.8-6.6-10.2-8c-6.4-1.5-29.4-2.6-33.1-2.3c-3.7,0.3-6.7,3.1-7.9,4.8c-1.2,1.8-87.5,123.5-91.5,128.8
		c-4,5.3-4.7,16.1-1.2,21.4c3.5,5.3,8.2,6,14.3,5.4c6.1-0.6,11.7-0.7,15.4,0.4c3.7,1.2,9.2,3.1,9.5,13.9c0.3,10.8-11.4,13.9-18.1,12
		c-6.7-1.9-28.5-10-35.6-13.2c-7-3.2-18.1-14.2-20.9-17.7c-2.8-3.5-7.9-12.4-10-22.2c-2-9.8-19.2-90-20-96.9
		c-0.9-6.9,1.3-18.3,15.1-24.9c13.8-6.6,41.1-16.5,52.5-18.9c11.4-2.3,41.6-6.4,48.1-7.5c6.6-1,15.7-5.3,20.3-9.8s9.2-9.1,19.6-6.3
		c10.4,2.8,15.1,4,19.3,5.1c5.6,1.5,17.1-0.2,20.9-4.2c5.1-5.4,11.3-13.5,19.9-13.5c8.6,0,15.1,5.6,19,12.3
		c4,6.7,9.7,12.9,12.1,14.8s6.4,4.1,10.5,5.6c4.1,1.5,115.2,45.4,121.6,48c6.4,2.6,31.9,13.9,38,17.3c6.1,3.4,19.9,8.2,20.9,23.7
		c1,15.5-11,22-15.7,24.7c-4.7,2.8-20,13.9-27.5,22.7c-7.5,8.8-27.4,30.3-29.9,33.4s-2.5,6.7,2,10.1c4.5,3.4,6.9,4.8,6.7,9.4
		c-0.1,4.5-4.2,7.6-6.9,10.5s-11.6,10.8-19.3,12.6c-7.8,1.8-9.5,1.3-12.7-0.4C391.1,274.6,387.7,272.6,387.7,272.6z"/>
</g>
<g id="セクター">
	<path class="st1" d="M331.4,70.1c31.2,12.3,102,40.3,107.1,42.3c6.4,2.6,31.9,13.9,38,17.3c6.1,3.4,19.9,8.2,20.9,23.7
		c1,15.5-11,22-15.7,24.7c-4.7,2.8-20,13.9-27.5,22.7c-7.5,8.8-27.4,30.3-29.9,33.4s-2.5,6.7,2,10.1c4.5,3.4,6.9,4.8,6.7,9.4
		c-0.1,4.5-4.2,7.6-6.9,10.5s-11.6,10.8-19.3,12.6c-7.8,1.8-9.5,1.3-12.7-0.4c-3.2-1.8-6.6-3.8-6.6-3.8s-10.7-6.3-25-14.7"/>
	<path class="st2" d="M170.4,146.1c-21.5,30.3-42.6,60-44.5,62.5c-4,5.3-4.7,16.1-1.2,21.4c3.5,5.3,8.2,6,14.3,5.4
		c6.1-0.6,11.7-0.7,15.4,0.4c3.7,1.2,9.2,3.1,9.5,13.9c0.3,10.8-11.4,13.9-18.1,12c-6.7-1.9-28.5-10-35.6-13.2
		c-7-3.2-18.1-14.2-20.9-17.7c-2.8-3.5-7.9-12.4-10-22.2c-2-9.8-19.2-90-20-96.9c-0.9-6.9,1.3-18.3,15.1-24.9
		c13.8-6.6,41.1-16.5,52.5-18.9c11.4-2.3,41.6-6.4,48.1-7.5c6.6-1,15.7-5.3,20.3-9.8s9.2-9.1,19.6-6.3c10.4,2.8,15.1,4,19.3,5.1
		c5.6,1.5,17.1-0.2,20.9-4.2c5.1-5.4,11.3-13.5,19.9-13.5c8.6,0,15.1,5.6,19,12.3c4,6.7,9.7,12.9,12.1,14.8s6.4,4.1,10.5,5.6
		c0.9,0.3,6.3,2.4,14.5,5.7"/>
	<path class="st3" d="M362.8,257.9c-27.1-16-67.3-39.7-71.9-43c-7-5-7.8-15.7-7.6-25.8c0.1-10.1,3.7-30-7-41.4
		c-10.7-11.4-32.3-32.8-35.1-36.1c-2.8-3.4-4.2-7.9,0.4-10.2c4.7-2.3,16.7-7.2,20.5-9.2c3.8-2,6.9-4.5,6.6-6.7
		c-0.3-2.2-3.8-6.6-10.2-8c-6.4-1.5-29.4-2.6-33.1-2.3c-3.7,0.3-6.7,3.1-7.9,4.8c-0.6,0.9-24,33.9-46.9,66.2"/>
</g>
<g id="コーナー番号">
	<g>
		<g>
			
			
		</g>
		<g>
			
		</g>
	</g>
	<g>
		<g>
			
			
		</g>
		<g>
			
		</g>
	</g>
	<g>
		<g>
			
			
		</g>
		<g>
			
		</g>
	</g>
	<g>
		<g>
			
			
		</g>
		<g>
			
		</g>
	</g>
	<g>
		<g>
			
			
		</g>
		<g>
			
		</g>
	</g>
	<g>
		<g>
			
			
		</g>
		<g>
			
		</g>
	</g>
	<g>
		<g>
			
			
		</g>
		<g>
			
		</g>
	</g>
	<g>
		<g>
			
			
		</g>
		<g>
			
		</g>
	</g>
	<g>
		<g>
			
			
		</g>
		<g>
			
		</g>
	</g>
	<g>
		<g>
			
			
		</g>
		<g>
			
			
		</g>
	</g>
	<g>
		<g>
			
			
		</g>
		<g>
			
			
		</g>
	</g>
	<g>
		<g>
			
			
		</g>
		<g>
			
			
		</g>
	</g>
	<g>
		<g>
			
			
		</g>
		<g>
			
			
		</g>
	</g>
	<g>
		<g>
			
			
		</g>
		<g>
			
			
		</g>
	</g>
	<g>
		<g>
			
			
		</g>
		<g>
			
			
		</g>
	</g>
	<g>
		<g>
			
			
		</g>
		<g>
			
			
		</g>
	</g>
	<g>
		<g>
			
			
		</g>
		<g>
			
			
		</g>
	</g>
	<g>
		<g>
			
			
		</g>
		<g>
			
			
		</g>
	</g>
</g>



</svg>
