<?xml version="1.0" encoding="utf-8"?>
<!-- Generator: Adobe Illustrator 26.5.0, SVG Export Plug-In . SVG Version: 6.00 Build 0)  -->
<svg version="1.1" xmlns="http://www.w3.org/2000/svg" xmlns:xlink="http://www.w3.org/1999/xlink" x="0px" y="0px"
	 viewBox="0 0 791.4 325.1" style="enable-background:new 0 0 791.4 426.5;" xml:space="preserve">
<style type="text/css">
	.st0{fill:none;stroke:#646464;stroke-width:8.310;stroke-linecap:round;stroke-linejoin:round;stroke-miterlimit:10;}
	.st1{fill:none;stroke:#FFD449;stroke-width:1.662;stroke-miterlimit:10;}
	.st2{fill:none;stroke:#54C6EB;stroke-width:1.662;stroke-miterlimit:10;}
	.st3{fill:none;stroke:#F4442E;stroke-width:1.662;stroke-miterlimit:10;}
	.st4{fill:none;stroke:#FFFFFF;stroke-width:1.246;}
	.st5{fill:#646464;}
	.st6{fill:#FFFFFF;}
	.st7{fill:none;stroke:#646464;stroke-width:1.662;stroke-miterlimit:10;}
	.st8{fill:#FF3380;}
	.st9{fill:none;stroke:#FF3380;stroke-width:1.163;stroke-miterlimit:10;}
	.st10{fill:#09BC8A;}
	.st11{fill:none;stroke:#09BC8A;stroke-width:1.163;stroke-miterlimit:10;}
	.st12{fill:none;stroke:#09BC8A;stroke-width:1.296;stroke-miterlimit:10;}
	.st13{clip-path:url(#SVGID_00000176014448798361179840000000666710741332653724_);}
	.st14{fill:#F4442E;}
	.st15{fill:#54C6EB;}
	.st16{fill:#FFD449;}
	.st17{fill:none;stroke:#646464;stroke-width:0.416;stroke-miterlimit:10;}
	.st18{fill:none;stroke:#F4442E;stroke-width:3.324;stroke-miterlimit:10;}
	.st19{fill:none;stroke:#54C6EB;stroke-width:3.324;stroke-miterlimit:10;}
	.st20{fill:none;stroke:#FFD449;stroke-width:3.324;stroke-miterlimit:10;}
	.st21{fill:none;stroke:#09BC8A;stroke-width:1.662;stroke-miterlimit:10;}
</style>
<g id="コース">
	<path class="st0" d="M701.1,301.8c0,0-526,0-540,0c-16.7,0-28.1-6.1-28.1-22.4c0-15.4,0.9-34.2-18-42.1
		c-18.9-7.9-43-16.7-52.7-22.4c-9.7-5.7-25-22.4-25-51.4c0-13.2,8-32.1,22.8-46.1c17.8-16.8,48.3-27.7,70.7-27.7
		c31.2,0,117.2,0,127.3,0c12.7,0,29.4,10.1,29.4,26.8c0,31.2-29.9,50-55.8,50c-28.1,0-83,0-91.8,0c-8.8,0-19.8,4.4-19.8,18
		c0,12.7,7,15.8,12.3,18.9c5.3,3.1,41.3,27.7,47.4,31.6c6.1,4,34.2,24.1,65.4,24.1s39.1,0,47.9,0c8.8,0,23.7-4,23.7-19.8
		c0-5.3,0-11,0-15.4c0-4.4,1.3-17.6,9.2-29c7.9-11.4,51.7-73.1,56.2-79.9c6.1-9.2,34.7-21.5,54-11C460,117.2,652.8,233.8,662,238.6
		s18.4,5.3,25-1.8c6.6-7,6.6-22.8-0.9-41.3c-7.5-18.4-24.1-24.6-32.9-27.7c-8.8-3.1-28.1-6.6-33.4-19.3c-5.3-12.7-2.6-27.7,4.8-36
		c7.5-8.3,21.5-11,30.3-8.3c8.8,2.6,65.9,22.4,72.9,24.6s10.5,5.3,10.1,14s-4,48.7-4,54s1.3,7.9,6.6,9.2c5.3,1.3,7.5,1.8,10.1,2.2
		s6.1,1.3,6.1,6.6c0,5.3,0,27.7,0,42.6C756.9,272.4,746.3,301.8,701.1,301.8z"/>
</g>
<g id="セクター">
	<path class="st1" d="M634.5,222.4c15.2,9.1,25.5,15.2,27.5,16.2c9.2,4.8,18.4,5.3,25-1.8c6.6-7,6.6-22.8-0.9-41.3
		c-7.5-18.4-24.1-24.6-32.9-27.7c-8.8-3.1-28.1-6.6-33.4-19.3c-5.3-12.7-2.6-27.7,4.8-36c7.5-8.3,21.5-11,30.3-8.3
		c8.8,2.6,65.9,22.4,72.9,24.6s10.5,5.3,10.1,14s-4,48.7-4,54s1.3,7.9,6.6,9.2c5.3,1.3,7.5,1.8,10.1,2.2s6.1,1.3,6.1,6.6
		c0,5.3,0,27.7,0,42.6c0,14.9-10.5,44.3-55.8,44.3c0,0-56.6,0-133.2,0"/>
	<path class="st2" d="M230.3,89.8c14.1,0,24.7,0,27.8,0c12.7,0,29.4,10.1,29.4,26.8c0,31.2-29.9,50-55.8,50c-28.1,0-83,0-91.8,0
		c-8.8,0-19.8,4.4-19.8,18c0,12.7,7,15.8,12.3,18.9c5.3,3.1,41.3,27.7,47.4,31.6c6.1,4,34.2,24.1,65.4,24.1s39.1,0,47.9,0
		c8.8,0,23.7-4,23.7-19.8c0-5.3,0-11,0-15.4c0-4.4,1.3-17.6,9.2-29c7.9-11.4,51.7-73.1,56.2-79.9c6.1-9.2,34.7-21.5,54-11
		c18.6,10.2,141.9,84.5,198.2,118.1"/>
	<path class="st3" d="M567.9,301.8c-156.8,0-397.3,0-406.8,0c-16.7,0-28.1-6.1-28.1-22.4c0-15.4,0.9-34.2-18-42.1
		c-18.9-7.9-43-16.7-52.7-22.4c-9.7-5.7-25-22.4-25-51.4c0-13.2,8-32.1,22.8-46.1c17.8-16.8,48.3-27.7,70.7-27.7
		c21.4,0,68.7,0,99.5,0"/>
</g>
<g id="コーナー番号">
	<g>
		<g>
			
			
		</g>
		<g>
			
		</g>
	</g>
	<g>
		<g>
			
			
		</g>
		<g>
			
		</g>
	</g>
	<g>
		<g>
			
			
		</g>
		<g>
			
		</g>
	</g>
	<g>
		<g>
			
			
		</g>
		<g>
			
		</g>
	</g>
	<g>
		<g>
			
			
		</g>
		<g>
			
		</g>
	</g>
	<g>
		<g>
			
			
		</g>
		<g>
			
		</g>
	</g>
	<g>
		<g>
			
			
		</g>
		<g>
			
		</g>
	</g>
	<g>
		<g>
			
			
		</g>
		<g>
			
		</g>
	</g>
	<g>
		<g>
			
			
		</g>
		<g>
			
		</g>
	</g>
	<g>
		<g>
			
			
		</g>
		<g>
			
			
		</g>
	</g>
	<g>
		<g>
			
			
		</g>
		<g>
			
			
		</g>
	</g>
	<g>
		<g>
			
			
		</g>
		<g>
			
			
		</g>
	</g>
	<g>
		<g>
			
			
		</g>
		<g>
			
			
		</g>
	</g>
	<g>
		<g>
			
			
		</g>
		<g>
			
			
		</g>
	</g>
	<g>
		<g>
			
			
		</g>
		<g>
			
			
		</g>
	</g>
	<g>
		<g>
			
			
		</g>
		<g>
			
			
		</g>
	</g>
	<g>
		<g>
			
			
		</g>
		<g>
			
			
		</g>
	</g>
	<g>
		<g>
			
			
		</g>
		<g>
			
			
		</g>
	</g>
</g>



</svg>
