<?xml version="1.0" encoding="utf-8"?>
<!-- Generator: Adobe Illustrator 26.5.0, SVG Export Plug-In . SVG Version: 6.00 Build 0)  -->
<svg version="1.1" xmlns="http://www.w3.org/2000/svg" xmlns:xlink="http://www.w3.org/1999/xlink" x="0px" y="0px"
	 viewBox="0 0 791.4 325.1" style="enable-background:new 0 0 791.4 426.5;" xml:space="preserve">
<style type="text/css">
	.st0{fill:none;stroke:#646464;stroke-width:14.1732;stroke-linecap:round;stroke-linejoin:round;stroke-miterlimit:10;}
	.st1{fill:none;stroke:#FFD449;stroke-width:2.8346;stroke-miterlimit:10;}
	.st2{fill:none;stroke:#54C6EB;stroke-width:2.8346;stroke-miterlimit:10;}
	.st3{fill:none;stroke:#F4442E;stroke-width:2.8346;stroke-miterlimit:10;}
	.st4{fill:none;stroke:#FFFFFF;stroke-width:2.126;}
	.st5{fill:#646464;}
	.st6{fill:#FFFFFF;}
	.st7{fill:none;stroke:#646464;stroke-width:2.8346;stroke-miterlimit:10;}
	.st8{fill:#FF3380;}
	.st9{fill:none;stroke:#FF3380;stroke-width:1.9843;stroke-miterlimit:10;}
	.st10{fill:#09BC8A;}
	.st11{fill:none;stroke:#09BC8A;stroke-width:1.9843;stroke-miterlimit:10;}
	.st12{fill:none;stroke:#09BC8A;stroke-width:2.2097;stroke-miterlimit:10;}
	.st13{clip-path:url(#SVGID_00000176014448798361179840000000666710741332653724_);}
	.st14{fill:#F4442E;}
	.st15{fill:#54C6EB;}
	.st16{fill:#FFD449;}
	.st17{fill:none;stroke:#646464;stroke-width:0.7087;stroke-miterlimit:10;}
	.st18{fill:none;stroke:#F4442E;stroke-width:5.6693;stroke-miterlimit:10;}
	.st19{fill:none;stroke:#54C6EB;stroke-width:5.6693;stroke-miterlimit:10;}
	.st20{fill:none;stroke:#FFD449;stroke-width:5.6693;stroke-miterlimit:10;}
	.st21{fill:none;stroke:#09BC8A;stroke-width:2.8346;stroke-miterlimit:10;}
</style>
<g id="コース">
	<path class="st0" d="M701.1,301.8c0,0-526,0-540,0c-16.7,0-28.1-6.1-28.1-22.4c0-15.4,0.9-34.2-18-42.1
		c-18.9-7.9-43-16.7-52.7-22.4c-9.7-5.7-25-22.4-25-51.4c0-13.2,8-32.1,22.8-46.1c17.8-16.8,48.3-27.7,70.7-27.7
		c31.2,0,117.2,0,127.3,0c12.7,0,29.4,10.1,29.4,26.8c0,31.2-29.9,50-55.8,50c-28.1,0-83,0-91.8,0c-8.8,0-19.8,4.4-19.8,18
		c0,12.7,7,15.8,12.3,18.9c5.3,3.1,41.3,27.7,47.4,31.6c6.1,4,34.2,24.1,65.4,24.1s39.1,0,47.9,0c8.8,0,23.7-4,23.7-19.8
		c0-5.3,0-11,0-15.4c0-4.4,1.3-17.6,9.2-29c7.9-11.4,51.7-73.1,56.2-79.9c6.1-9.2,34.7-21.5,54-11C460,117.2,652.8,233.8,662,238.6
		s18.4,5.3,25-1.8c6.6-7,6.6-22.8-0.9-41.3c-7.5-18.4-24.1-24.6-32.9-27.7c-8.8-3.1-28.1-6.6-33.4-19.3c-5.3-12.7-2.6-27.7,4.8-36
		c7.5-8.3,21.5-11,30.3-8.3c8.8,2.6,65.9,22.4,72.9,24.6s10.5,5.3,10.1,14s-4,48.7-4,54s1.3,7.9,6.6,9.2c5.3,1.3,7.5,1.8,10.1,2.2
		s6.1,1.3,6.1,6.6c0,5.3,0,27.7,0,42.6C756.9,272.4,746.3,301.8,701.1,301.8z"/>
</g>
<g id="セクター">
	<path class="st1" d="M634.5,222.4c15.2,9.1,25.5,15.2,27.5,16.2c9.2,4.8,18.4,5.3,25-1.8c6.6-7,6.6-22.8-0.9-41.3
		c-7.5-18.4-24.1-24.6-32.9-27.7c-8.8-3.1-28.1-6.6-33.4-19.3c-5.3-12.7-2.6-27.7,4.8-36c7.5-8.3,21.5-11,30.3-8.3
		c8.8,2.6,65.9,22.4,72.9,24.6s10.5,5.3,10.1,14s-4,48.7-4,54s1.3,7.9,6.6,9.2c5.3,1.3,7.5,1.8,10.1,2.2s6.1,1.3,6.1,6.6
		c0,5.3,0,27.7,0,42.6c0,14.9-10.5,44.3-55.8,44.3c0,0-56.6,0-133.2,0"/>
	<path class="st2" d="M230.3,89.8c14.1,0,24.7,0,27.8,0c12.7,0,29.4,10.1,29.4,26.8c0,31.2-29.9,50-55.8,50c-28.1,0-83,0-91.8,0
		c-8.8,0-19.8,4.4-19.8,18c0,12.7,7,15.8,12.3,18.9c5.3,3.1,41.3,27.7,47.4,31.6c6.1,4,34.2,24.1,65.4,24.1s39.1,0,47.9,0
		c8.8,0,23.7-4,23.7-19.8c0-5.3,0-11,0-15.4c0-4.4,1.3-17.6,9.2-29c7.9-11.4,51.7-73.1,56.2-79.9c6.1-9.2,34.7-21.5,54-11
		c18.6,10.2,141.9,84.5,198.2,118.1"/>
	<path class="st3" d="M567.9,301.8c-156.8,0-397.3,0-406.8,0c-16.7,0-28.1-6.1-28.1-22.4c0-15.4,0.9-34.2-18-42.1
		c-18.9-7.9-43-16.7-52.7-22.4c-9.7-5.7-25-22.4-25-51.4c0-13.2,8-32.1,22.8-46.1c17.8-16.8,48.3-27.7,70.7-27.7
		c21.4,0,68.7,0,99.5,0"/>
</g>
<g id="コーナー番号">
	<g>
		<g>
			<circle class="st4" cx="125.2" cy="311.2" r="8.5"/>
			<circle class="st5" cx="125.2" cy="311.2" r="8.5"/>
		</g>
		<g>
			<path class="st6" d="M123.5,315.1v-1.6h1V309h-0.9v-1.6h2.6v6.1h0.9v1.6H123.5z"/>
		</g>
	</g>
	<g>
		<g>
			<circle class="st4" cx="143" cy="234.9" r="8.5"/>
			<circle class="st5" cx="143" cy="234.9" r="8.5"/>
		</g>
		<g>
			<path class="st6" d="M140.9,238.8v-2.6c0-0.6,0.1-1,0.6-1.2l1.9-0.8v-1.6l-0.1-0.1h-0.5l-0.1,0.1v1.1h-1.7v-1.3
				c0-0.8,0.4-1.1,0.8-1.3h2.5c0.5,0.2,0.8,0.5,0.8,1.3v1.9c0,0.6-0.1,0.9-0.6,1.2l-1.9,0.8v0.9h2.4v1.6H140.9z"/>
		</g>
	</g>
	<g>
		<g>
			<circle class="st4" cx="16.7" cy="166" r="8.5"/>
			<circle class="st5" cx="16.7" cy="166" r="8.5"/>
		</g>
		<g>
			<path class="st6" d="M15.4,169.8c-0.5-0.2-0.8-0.5-0.8-1.3v-1h1.7v0.8l0.1,0.1h0.5l0.1-0.1v-1.6l-0.1-0.1h-1v-1.3h1l0.1-0.1v-1.5
				l-0.1-0.1h-0.5l-0.1,0.1v0.8h-1.7v-1c0-0.8,0.4-1.1,0.8-1.3h2.5c0.5,0.2,0.8,0.5,0.8,1.3v1.3c0,0.6-0.2,0.9-0.6,1.2
				c0.4,0.3,0.6,0.6,0.6,1.2v1.4c0,0.8-0.4,1.1-0.8,1.3H15.4z"/>
		</g>
	</g>
	<g>
		<g>
			<circle class="st4" cx="301.6" cy="95.5" r="8.5"/>
			<circle class="st5" cx="301.6" cy="95.5" r="8.5"/>
		</g>
		<g>
			<path class="st6" d="M303.2,97.9v1.5h-1.7v-1.5h-2.2v-1.5l1.6-4.7h1.7l-1.6,4.6h0.5v-0.4l0.4-1h1.3v1.4h0.5v1.6H303.2z"/>
		</g>
	</g>
	<g>
		<g>
			<circle class="st4" cx="103.8" cy="170.4" r="8.5"/>
			<circle class="st5" cx="103.8" cy="170.4" r="8.5"/>
		</g>
		<g>
			<path class="st6" d="M102.6,174.3c-0.5-0.2-0.8-0.5-0.8-1.3v-1h1.6v0.8l0.1,0.1h0.6l0.1-0.1v-2.1l-0.1-0.1h-0.6l-0.1,0.1v0.4
				h-1.6v-4.5h4v1.5h-2.4v1.6l0.4-0.4h1.3c0.5,0.2,0.8,0.5,0.8,1.3v2.4c0,0.8-0.4,1.1-0.8,1.3H102.6z"/>
		</g>
	</g>
	<g>
		<g>
			<circle class="st4" cx="204.5" cy="270.3" r="8.5"/>
			<circle class="st5" cx="204.5" cy="270.3" r="8.5"/>
		</g>
		<g>
			<path class="st6" d="M205.7,274.2h-2.5c-0.5-0.2-0.8-0.5-0.8-1.3v-5.1c0-0.8,0.4-1.1,0.8-1.3h2.5c0.5,0.2,0.8,0.5,0.8,1.3v1h-1.7
				V268l-0.1-0.1h-0.5l-0.1,0.1v1.8l0.3-0.3h1.3c0.5,0.2,0.8,0.5,0.8,1.3v2.2C206.6,273.7,206.2,274,205.7,274.2z M204.8,272.8
				l0.1-0.1v-1.8l-0.1-0.1h-0.5l-0.1,0.1v1.8l0.1,0.1H204.8z"/>
		</g>
	</g>
	<g>
		<g>
			<circle class="st4" cx="327.9" cy="265.5" r="8.5"/>
			<circle class="st5" cx="327.9" cy="265.5" r="8.5"/>
		</g>
		<g>
			<path class="st6" d="M326.1,269.3l2.1-6.2h-2.4v-1.5h4.1v1.2l-2.1,6.5H326.1z"/>
		</g>
	</g>
	<g>
		<g>
			<circle class="st4" cx="299" cy="200.5" r="8.5"/>
			<circle class="st5" cx="299" cy="200.5" r="8.5"/>
		</g>
		<g>
			<path class="st6" d="M297.7,204.4c-0.5-0.2-0.8-0.5-0.8-1.3v-1.4c0-0.6,0.2-0.9,0.6-1.2c-0.4-0.3-0.6-0.6-0.6-1.2V198
				c0-0.8,0.4-1.1,0.8-1.3h2.5c0.5,0.2,0.8,0.5,0.8,1.3v1.3c0,0.6-0.2,0.9-0.6,1.2c0.4,0.3,0.6,0.6,0.6,1.2v1.4
				c0,0.8-0.4,1.1-0.8,1.3H297.7z M298.6,199.7l0.1,0.1h0.5l0.1-0.1v-1.5l-0.1-0.1h-0.5l-0.1,0.1V199.7z M299.3,202.9v-1.6l-0.1-0.1
				h-0.5l-0.1,0.1v1.6l0.1,0.1h0.5L299.3,202.9z"/>
		</g>
	</g>
	<g>
		<g>
			<circle class="st4" cx="405.2" cy="80.2" r="8.5"/>
			<circle class="st5" cx="405.2" cy="80.2" r="8.5"/>
		</g>
		<g>
			<path class="st6" d="M404,84.1c-0.5-0.2-0.8-0.5-0.8-1.3v-1h1.7v0.8l0.1,0.1h0.5l0.1-0.1v-1.8l-0.3,0.3H404
				c-0.5-0.2-0.8-0.5-0.8-1.3v-2.2c0-0.8,0.4-1.1,0.8-1.3h2.5c0.5,0.2,0.8,0.5,0.8,1.3v5.1c0,0.8-0.4,1.1-0.8,1.3H404z M405.6,79.7
				v-1.8l-0.1-0.1h-0.5l-0.1,0.1v1.8l0.1,0.1h0.5L405.6,79.7z"/>
		</g>
	</g>
	<g>
		<g>
			<circle class="st4" cx="691.4" cy="259.1" r="8.5"/>
			<circle class="st5" cx="691.4" cy="259.1" r="8.5"/>
		</g>
		<g>
			<path class="st6" d="M687.3,262.9v-1.6h1v-4.5h-0.9v-1.6h2.6v6.1h0.9v1.6H687.3z"/>
			<path class="st6" d="M695,262.9h-2.5c-0.5-0.2-0.8-0.5-0.8-1.3v-5.1c0-0.8,0.4-1.1,0.8-1.3h2.5c0.5,0.2,0.8,0.5,0.8,1.3v5.1
				C695.8,262.5,695.4,262.8,695,262.9z M694.1,256.8l-0.1-0.1h-0.5l-0.1,0.1v4.7l0.1,0.1h0.5l0.1-0.1V256.8z"/>
		</g>
	</g>
	<g>
		<g>
			<circle class="st4" cx="685.1" cy="163.9" r="8.5"/>
			<circle class="st5" cx="685.1" cy="163.9" r="8.5"/>
		</g>
		<g>
			<path class="st6" d="M681,167.8v-1.6h1v-4.5h-0.9v-1.6h2.6v6.1h0.9v1.6H681z"/>
			<path class="st6" d="M685.7,167.8v-1.6h1v-4.5h-0.9v-1.6h2.6v6.1h0.9v1.6H685.7z"/>
		</g>
	</g>
	<g>
		<g>
			<circle class="st4" cx="598.2" cy="117.7" r="8.5"/>
			<circle class="st5" cx="598.2" cy="117.7" r="8.5"/>
		</g>
		<g>
			<path class="st6" d="M594.1,121.6V120h1v-4.5h-0.9v-1.6h2.6v6.1h0.9v1.6H594.1z"/>
			<path class="st6" d="M598.4,121.6V119c0-0.6,0.1-1,0.6-1.2l1.9-0.8v-1.6l-0.1-0.1h-0.5l-0.1,0.1v1.1h-1.7v-1.3
				c0-0.8,0.4-1.1,0.8-1.3h2.5c0.5,0.2,0.8,0.5,0.8,1.3v1.9c0,0.6-0.1,0.9-0.6,1.2l-1.9,0.8v0.9h2.4v1.6H598.4z"/>
		</g>
	</g>
	<g>
		<g>
			<circle class="st4" cx="756.9" cy="123" r="8.5"/>
			<circle class="st5" cx="756.9" cy="123" r="8.5"/>
		</g>
		<g>
			<path class="st6" d="M752.9,126.8v-1.6h1v-4.5H753v-1.6h2.6v6.1h0.9v1.6H752.9z"/>
			<path class="st6" d="M758,126.8c-0.5-0.2-0.8-0.5-0.8-1.3v-1h1.7v0.8l0.1,0.1h0.5l0.1-0.1v-1.6l-0.1-0.1h-1v-1.3h1l0.1-0.1v-1.5
				l-0.1-0.1H759l-0.1,0.1v0.8h-1.7v-1c0-0.8,0.4-1.1,0.8-1.3h2.5c0.5,0.2,0.8,0.5,0.8,1.3v1.3c0,0.6-0.2,0.9-0.6,1.2
				c0.4,0.3,0.6,0.6,0.6,1.2v1.4c0,0.8-0.4,1.1-0.8,1.3H758z"/>
		</g>
	</g>
	<g>
		<g>
			<circle class="st4" cx="716.6" cy="213.5" r="8.5"/>
			<circle class="st5" cx="716.6" cy="213.5" r="8.5"/>
		</g>
		<g>
			<path class="st6" d="M712.5,217.4v-1.6h1v-4.5h-0.9v-1.6h2.6v6.1h0.9v1.6H712.5z"/>
			<path class="st6" d="M720.5,215.9v1.5h-1.7v-1.5h-2.2v-1.5l1.6-4.7h1.7l-1.6,4.6h0.5v-0.4l0.4-1h1.3v1.4h0.5v1.6H720.5z"/>
		</g>
	</g>
	<g>
		<g>
			<circle class="st4" cx="774.8" cy="199.6" r="8.5"/>
			<circle class="st5" cx="774.8" cy="199.6" r="8.5"/>
		</g>
		<g>
			<path class="st6" d="M770.8,203.5v-1.6h1v-4.5h-0.9v-1.6h2.6v6.1h0.9v1.6H770.8z"/>
			<path class="st6" d="M775.9,203.5c-0.5-0.2-0.8-0.5-0.8-1.3v-1h1.6v0.8l0.1,0.1h0.6l0.1-0.1v-2.1l-0.1-0.1h-0.6l-0.1,0.1v0.4
				h-1.6v-4.5h4v1.5h-2.4v1.6l0.4-0.4h1.3c0.5,0.2,0.8,0.5,0.8,1.3v2.4c0,0.8-0.4,1.1-0.8,1.3H775.9z"/>
		</g>
	</g>
	<g>
		<g>
			<circle class="st4" cx="763.2" cy="302.4" r="8.5"/>
			<circle class="st5" cx="763.2" cy="302.4" r="8.5"/>
		</g>
		<g>
			<path class="st6" d="M759.2,306.2v-1.6h1v-4.5h-0.9v-1.6h2.6v6.1h0.9v1.6H759.2z"/>
			<path class="st6" d="M766.8,306.2h-2.5c-0.5-0.2-0.8-0.5-0.8-1.3v-5.1c0-0.8,0.4-1.1,0.8-1.3h2.5c0.5,0.2,0.8,0.5,0.8,1.3v1h-1.7
				v-0.8l-0.1-0.1h-0.5l-0.1,0.1v1.8l0.3-0.3h1.3c0.5,0.2,0.8,0.5,0.8,1.3v2.2C767.7,305.8,767.3,306.1,766.8,306.2z M765.8,304.9
				l0.1-0.1v-1.8l-0.1-0.1h-0.5l-0.1,0.1v1.8l0.1,0.1H765.8z"/>
		</g>
	</g>
	<g>
		<g>
			<circle class="st4" cx="178.1" cy="135.3" r="8.5"/>
			<circle class="st5" cx="178.1" cy="135.3" r="8.5"/>
		</g>
		<g>
			<path class="st6" d="M174.1,139.2v-1.6h1v-4.5h-0.9v-1.6h2.6v6.1h0.9v1.6H174.1z"/>
			<path class="st6" d="M179.2,139.2c-0.5-0.2-0.8-0.5-0.8-1.3v-1.4c0-0.6,0.2-0.9,0.6-1.2c-0.4-0.3-0.6-0.6-0.6-1.2v-1.3
				c0-0.8,0.4-1.1,0.8-1.3h2.5c0.5,0.2,0.8,0.5,0.8,1.3v1.3c0,0.6-0.2,0.9-0.6,1.2c0.4,0.3,0.6,0.6,0.6,1.2v1.4
				c0,0.8-0.4,1.1-0.8,1.3H179.2z M180.1,134.5l0.1,0.1h0.5l0.1-0.1V133l-0.1-0.1h-0.5l-0.1,0.1V134.5z M180.9,137.7V136l-0.1-0.1
				h-0.5l-0.1,0.1v1.6l0.1,0.1h0.5L180.9,137.7z"/>
		</g>
	</g>
	<g>
		<g>
			<circle class="st4" cx="258.4" cy="108.7" r="8.5"/>
			<circle class="st5" cx="258.4" cy="108.7" r="8.5"/>
		</g>
		<g>
			<path class="st6" d="M254.4,112.6V111h1v-4.5h-0.9v-1.6h2.6v6.1h0.9v1.6H254.4z"/>
			<path class="st6" d="M259.5,112.6c-0.5-0.2-0.8-0.5-0.8-1.3v-1h1.7v0.8l0.1,0.1h0.5l0.1-0.1v-1.8l-0.3,0.3h-1.3
				c-0.5-0.2-0.8-0.5-0.8-1.3v-2.2c0-0.8,0.4-1.1,0.8-1.3h2.5c0.5,0.2,0.8,0.5,0.8,1.3v5.1c0,0.8-0.4,1.1-0.8,1.3H259.5z
				 M261.1,108.3v-1.8l-0.1-0.1h-0.5l-0.1,0.1v1.8l0.1,0.1h0.5L261.1,108.3z"/>
		</g>
	</g>
</g>



</svg>
