<?xml version="1.0" encoding="utf-8"?>
<!-- Generator: Adobe Illustrator 26.5.0, SVG Export Plug-In . SVG Version: 6.00 Build 0)  -->
<svg version="1.1" xmlns="http://www.w3.org/2000/svg" xmlns:xlink="http://www.w3.org/1999/xlink" x="0px" y="0px"
	 viewBox="0 0 525.2 305" style="enable-background:new 0 0 525.2 331.8;" xml:space="preserve">
<style type="text/css">
	.st0{fill:none;stroke:#646464;stroke-width:14.1732;stroke-linecap:round;stroke-linejoin:round;stroke-miterlimit:10;}
	.st1{fill:none;stroke:#FFD449;stroke-width:2.8346;stroke-miterlimit:10;}
	.st2{fill:none;stroke:#54C6EB;stroke-width:2.8346;stroke-miterlimit:10;}
	.st3{fill:none;stroke:#F4442E;stroke-width:2.8346;stroke-miterlimit:10;}
	.st4{fill:none;stroke:#FFFFFF;stroke-width:2.126;}
	.st5{fill:#646464;}
	.st6{fill:#FFFFFF;}
	.st7{fill:none;stroke:#646464;stroke-width:2.8346;stroke-miterlimit:10;}
	.st8{fill:#FF3380;}
	.st9{fill:none;stroke:#FF3380;stroke-width:1.9843;stroke-miterlimit:10;}
	.st10{fill:#09BC8A;}
	.st11{fill:none;stroke:#09BC8A;stroke-width:1.9843;stroke-miterlimit:10;}
	.st12{fill:none;stroke:#09BC8A;stroke-width:2.2097;stroke-miterlimit:10;}
	.st13{fill:none;stroke:#646464;stroke-width:0.7087;stroke-miterlimit:10;}
	.st14{fill:none;stroke:#F4442E;stroke-width:5.6693;stroke-miterlimit:10;}
	.st15{fill:none;stroke:#54C6EB;stroke-width:5.6693;stroke-miterlimit:10;}
	.st16{fill:none;stroke:#FFD449;stroke-width:5.6693;stroke-miterlimit:10;}
	.st17{fill:none;stroke:#09BC8A;stroke-width:2.8346;stroke-miterlimit:10;}
	.st18{clip-path:url(#SVGID_00000182489371729919953420000015993495800105837713_);}
	.st19{fill:#F4442E;}
	.st20{fill:#54C6EB;}
	.st21{fill:#FFD449;}
</style>
<g id="コース">
	<path class="st0" d="M387.7,272.6c0,0-89.9-52.7-96.9-57.7c-7-5-7.8-15.7-7.6-25.8c0.1-10.1,3.7-30-7-41.4
		c-10.7-11.4-32.3-32.8-35.1-36.1c-2.8-3.4-4.2-7.9,0.4-10.2c4.7-2.3,16.7-7.2,20.5-9.2c3.8-2,6.9-4.5,6.6-6.7
		c-0.3-2.2-3.8-6.6-10.2-8c-6.4-1.5-29.4-2.6-33.1-2.3c-3.7,0.3-6.7,3.1-7.9,4.8c-1.2,1.8-87.5,123.5-91.5,128.8
		c-4,5.3-4.7,16.1-1.2,21.4c3.5,5.3,8.2,6,14.3,5.4c6.1-0.6,11.7-0.7,15.4,0.4c3.7,1.2,9.2,3.1,9.5,13.9c0.3,10.8-11.4,13.9-18.1,12
		c-6.7-1.9-28.5-10-35.6-13.2c-7-3.2-18.1-14.2-20.9-17.7c-2.8-3.5-7.9-12.4-10-22.2c-2-9.8-19.2-90-20-96.9
		c-0.9-6.9,1.3-18.3,15.1-24.9c13.8-6.6,41.1-16.5,52.5-18.9c11.4-2.3,41.6-6.4,48.1-7.5c6.6-1,15.7-5.3,20.3-9.8s9.2-9.1,19.6-6.3
		c10.4,2.8,15.1,4,19.3,5.1c5.6,1.5,17.1-0.2,20.9-4.2c5.1-5.4,11.3-13.5,19.9-13.5c8.6,0,15.1,5.6,19,12.3
		c4,6.7,9.7,12.9,12.1,14.8s6.4,4.1,10.5,5.6c4.1,1.5,115.2,45.4,121.6,48c6.4,2.6,31.9,13.9,38,17.3c6.1,3.4,19.9,8.2,20.9,23.7
		c1,15.5-11,22-15.7,24.7c-4.7,2.8-20,13.9-27.5,22.7c-7.5,8.8-27.4,30.3-29.9,33.4s-2.5,6.7,2,10.1c4.5,3.4,6.9,4.8,6.7,9.4
		c-0.1,4.5-4.2,7.6-6.9,10.5s-11.6,10.8-19.3,12.6c-7.8,1.8-9.5,1.3-12.7-0.4C391.1,274.6,387.7,272.6,387.7,272.6z"/>
</g>
<g id="セクター">
	<path class="st1" d="M331.4,70.1c31.2,12.3,102,40.3,107.1,42.3c6.4,2.6,31.9,13.9,38,17.3c6.1,3.4,19.9,8.2,20.9,23.7
		c1,15.5-11,22-15.7,24.7c-4.7,2.8-20,13.9-27.5,22.7c-7.5,8.8-27.4,30.3-29.9,33.4s-2.5,6.7,2,10.1c4.5,3.4,6.9,4.8,6.7,9.4
		c-0.1,4.5-4.2,7.6-6.9,10.5s-11.6,10.8-19.3,12.6c-7.8,1.8-9.5,1.3-12.7-0.4c-3.2-1.8-6.6-3.8-6.6-3.8s-10.7-6.3-25-14.7"/>
	<path class="st2" d="M170.4,146.1c-21.5,30.3-42.6,60-44.5,62.5c-4,5.3-4.7,16.1-1.2,21.4c3.5,5.3,8.2,6,14.3,5.4
		c6.1-0.6,11.7-0.7,15.4,0.4c3.7,1.2,9.2,3.1,9.5,13.9c0.3,10.8-11.4,13.9-18.1,12c-6.7-1.9-28.5-10-35.6-13.2
		c-7-3.2-18.1-14.2-20.9-17.7c-2.8-3.5-7.9-12.4-10-22.2c-2-9.8-19.2-90-20-96.9c-0.9-6.9,1.3-18.3,15.1-24.9
		c13.8-6.6,41.1-16.5,52.5-18.9c11.4-2.3,41.6-6.4,48.1-7.5c6.6-1,15.7-5.3,20.3-9.8s9.2-9.1,19.6-6.3c10.4,2.8,15.1,4,19.3,5.1
		c5.6,1.5,17.1-0.2,20.9-4.2c5.1-5.4,11.3-13.5,19.9-13.5c8.6,0,15.1,5.6,19,12.3c4,6.7,9.7,12.9,12.1,14.8s6.4,4.1,10.5,5.6
		c0.9,0.3,6.3,2.4,14.5,5.7"/>
	<path class="st3" d="M362.8,257.9c-27.1-16-67.3-39.7-71.9-43c-7-5-7.8-15.7-7.6-25.8c0.1-10.1,3.7-30-7-41.4
		c-10.7-11.4-32.3-32.8-35.1-36.1c-2.8-3.4-4.2-7.9,0.4-10.2c4.7-2.3,16.7-7.2,20.5-9.2c3.8-2,6.9-4.5,6.6-6.7
		c-0.3-2.2-3.8-6.6-10.2-8c-6.4-1.5-29.4-2.6-33.1-2.3c-3.7,0.3-6.7,3.1-7.9,4.8c-0.6,0.9-24,33.9-46.9,66.2"/>
</g>
<g id="コーナー番号">
	<g>
		<g>
			<circle class="st4" cx="267.9" cy="218.1" r="8.5"/>
			<circle class="st5" cx="267.9" cy="218.1" r="8.5"/>
		</g>
		<g>
			<path class="st6" d="M266.2,222v-1.6h1v-4.5h-0.9v-1.6h2.6v6.1h0.9v1.6H266.2z"/>
		</g>
	</g>
	<g>
		<g>
			<circle class="st4" cx="298.7" cy="147.4" r="8.5"/>
			<circle class="st5" cx="298.7" cy="147.4" r="8.5"/>
		</g>
		<g>
			<path class="st6" d="M296.6,151.3v-2.6c0-0.6,0.1-1,0.6-1.2l1.9-0.8v-1.6L299,145h-0.5l-0.1,0.1v1.1h-1.7v-1.3
				c0-0.8,0.4-1.1,0.8-1.3h2.5c0.5,0.2,0.8,0.5,0.8,1.3v1.9c0,0.6-0.1,0.9-0.6,1.2l-1.9,0.8v0.9h2.4v1.6H296.6z"/>
		</g>
	</g>
	<g>
		<g>
			<circle class="st4" cx="221.2" cy="110" r="8.5"/>
			<circle class="st5" cx="221.2" cy="110" r="8.5"/>
		</g>
		<g>
			<path class="st6" d="M219.9,113.9c-0.5-0.2-0.8-0.5-0.8-1.3v-1h1.7v0.8l0.1,0.1h0.5l0.1-0.1v-1.6l-0.1-0.1h-1v-1.3h1l0.1-0.1
				v-1.5l-0.1-0.1h-0.5l-0.1,0.1v0.8h-1.7v-1c0-0.8,0.4-1.1,0.8-1.3h2.5c0.5,0.2,0.8,0.5,0.8,1.3v1.3c0,0.6-0.2,0.9-0.6,1.2
				c0.4,0.3,0.6,0.6,0.6,1.2v1.4c0,0.8-0.4,1.1-0.8,1.3H219.9z"/>
		</g>
	</g>
	<g>
		<g>
			<circle class="st4" cx="285.8" cy="77.9" r="8.5"/>
			<circle class="st5" cx="285.8" cy="77.9" r="8.5"/>
		</g>
		<g>
			<path class="st6" d="M287.4,80.3v1.5h-1.7v-1.5h-2.2v-1.5l1.6-4.7h1.7l-1.6,4.6h0.5v-0.4l0.4-1h1.3v1.4h0.5v1.6H287.4z"/>
		</g>
	</g>
	<g>
		<g>
			<circle class="st4" cx="211.6" cy="62.6" r="8.5"/>
			<circle class="st5" cx="211.6" cy="62.6" r="8.5"/>
		</g>
		<g>
			<path class="st6" d="M210.4,66.5c-0.5-0.2-0.8-0.5-0.8-1.3v-1h1.6V65l0.1,0.1h0.6L212,65v-2.1l-0.1-0.1h-0.6l-0.1,0.1v0.4h-1.6
				v-4.5h4v1.5h-2.4V62l0.4-0.4h1.3c0.5,0.2,0.8,0.5,0.8,1.3v2.4c0,0.8-0.4,1.1-0.8,1.3H210.4z"/>
		</g>
	</g>
	<g>
		<g>
			<circle class="st4" cx="105.7" cy="211.2" r="8.5"/>
			<circle class="st5" cx="105.7" cy="211.2" r="8.5"/>
		</g>
		<g>
			<path class="st6" d="M107,215.1h-2.5c-0.5-0.2-0.8-0.5-0.8-1.3v-5.1c0-0.8,0.4-1.1,0.8-1.3h2.5c0.5,0.2,0.8,0.5,0.8,1.3v1h-1.7
				v-0.8l-0.1-0.1h-0.5l-0.1,0.1v1.8l0.3-0.3h1.3c0.5,0.2,0.8,0.5,0.8,1.3v2.2C107.8,214.6,107.4,214.9,107,215.1z M106,213.7
				l0.1-0.1v-1.8l-0.1-0.1h-0.5l-0.1,0.1v1.8l0.1,0.1H106z"/>
		</g>
	</g>
	<g>
		<g>
			<circle class="st4" cx="181.7" cy="259.2" r="8.5"/>
			<circle class="st5" cx="181.7" cy="259.2" r="8.5"/>
		</g>
		<g>
			<path class="st6" d="M179.9,263.1l2.1-6.2h-2.4v-1.5h4.1v1.2l-2.1,6.5H179.9z"/>
		</g>
	</g>
	<g>
		<g>
			<circle class="st4" cx="77.7" cy="246.1" r="8.5"/>
			<circle class="st5" cx="77.7" cy="246.1" r="8.5"/>
		</g>
		<g>
			<path class="st6" d="M76.4,250c-0.5-0.2-0.8-0.5-0.8-1.3v-1.4c0-0.6,0.2-0.9,0.6-1.2c-0.4-0.3-0.6-0.6-0.6-1.2v-1.3
				c0-0.8,0.4-1.1,0.8-1.3h2.5c0.5,0.2,0.8,0.5,0.8,1.3v1.3c0,0.6-0.2,0.9-0.6,1.2c0.4,0.3,0.6,0.6,0.6,1.2v1.4
				c0,0.8-0.4,1.1-0.8,1.3H76.4z M77.3,245.4l0.1,0.1H78l0.1-0.1v-1.5l-0.1-0.1h-0.5l-0.1,0.1V245.4z M78.1,248.5v-1.6l-0.1-0.1
				h-0.5l-0.1,0.1v1.6l0.1,0.1H78L78.1,248.5z"/>
		</g>
	</g>
	<g>
		<g>
			<circle class="st4" cx="40" cy="100.6" r="8.5"/>
			<circle class="st5" cx="40" cy="100.6" r="8.5"/>
		</g>
		<g>
			<path class="st6" d="M38.8,104.5c-0.5-0.2-0.8-0.5-0.8-1.3v-1h1.7v0.8l0.1,0.1h0.5l0.1-0.1v-1.8l-0.3,0.3h-1.3
				c-0.5-0.2-0.8-0.5-0.8-1.3v-2.2c0-0.8,0.4-1.1,0.8-1.3h2.5c0.5,0.2,0.8,0.5,0.8,1.3v5.1c0,0.8-0.4,1.1-0.8,1.3H38.8z M40.4,100.2
				v-1.8l-0.1-0.1h-0.5l-0.1,0.1v1.8l0.1,0.1h0.5L40.4,100.2z"/>
		</g>
	</g>
	<g>
		<g>
			<circle class="st4" cx="187.3" cy="75.4" r="8.5"/>
			<circle class="st5" cx="187.3" cy="75.4" r="8.5"/>
		</g>
		<g>
			<path class="st6" d="M183.3,79.3v-1.6h1v-4.5h-0.9v-1.6h2.6v6.1h0.9v1.6H183.3z"/>
			<path class="st6" d="M190.9,79.3h-2.5c-0.5-0.2-0.8-0.5-0.8-1.3v-5.1c0-0.8,0.4-1.1,0.8-1.3h2.5c0.5,0.2,0.8,0.5,0.8,1.3V78
				C191.8,78.8,191.4,79.1,190.9,79.3z M190.1,73.1L190,73h-0.5l-0.1,0.1v4.7l0.1,0.1h0.5l0.1-0.1V73.1z"/>
		</g>
	</g>
	<g>
		<g>
			<circle class="st4" cx="205.7" cy="24.6" r="8.5"/>
			<circle class="st5" cx="205.7" cy="24.6" r="8.5"/>
		</g>
		<g>
			<path class="st6" d="M201.7,28.5v-1.6h1v-4.5h-0.9v-1.6h2.6v6.1h0.9v1.6H201.7z"/>
			<path class="st6" d="M206.4,28.5v-1.6h1v-4.5h-0.9v-1.6h2.6v6.1h0.9v1.6H206.4z"/>
		</g>
	</g>
	<g>
		<g>
			<circle class="st4" cx="241.5" cy="31" r="8.5"/>
			<circle class="st5" cx="241.5" cy="31" r="8.5"/>
		</g>
		<g>
			<path class="st6" d="M237.5,34.9v-1.6h1v-4.5h-0.9v-1.6h2.6v6.1h0.9v1.6H237.5z"/>
			<path class="st6" d="M241.8,34.9v-2.6c0-0.6,0.1-1,0.6-1.2l1.9-0.8v-1.6l-0.1-0.1h-0.5l-0.1,0.1v1.1h-1.7v-1.3
				c0-0.8,0.4-1.1,0.8-1.3h2.5c0.5,0.2,0.8,0.5,0.8,1.3v1.9c0,0.6-0.1,0.9-0.6,1.2l-1.9,0.8v0.9h2.4v1.6H241.8z"/>
		</g>
	</g>
	<g>
		<g>
			<circle class="st4" cx="273.6" cy="12.9" r="8.5"/>
			<circle class="st5" cx="273.6" cy="12.9" r="8.5"/>
		</g>
		<g>
			<path class="st6" d="M269.6,16.8v-1.6h1v-4.5h-0.9V9.1h2.6v6.1h0.9v1.6H269.6z"/>
			<path class="st6" d="M274.7,16.8c-0.5-0.2-0.8-0.5-0.8-1.3v-1h1.7v0.8l0.1,0.1h0.5l0.1-0.1v-1.6l-0.1-0.1h-1v-1.3h1l0.1-0.1v-1.5
				l-0.1-0.1h-0.5l-0.1,0.1v0.8h-1.7v-1c0-0.8,0.4-1.1,0.8-1.3h2.5c0.5,0.2,0.8,0.5,0.8,1.3v1.3c0,0.6-0.2,0.9-0.6,1.2
				c0.4,0.3,0.6,0.6,0.6,1.2v1.4c0,0.8-0.4,1.1-0.8,1.3H274.7z"/>
		</g>
	</g>
	<g>
		<g>
			<circle class="st4" cx="319.7" cy="43.4" r="8.5"/>
			<circle class="st5" cx="319.7" cy="43.4" r="8.5"/>
		</g>
		<g>
			<path class="st6" d="M315.7,47.3v-1.6h1v-4.5h-0.9v-1.6h2.6v6.1h0.9v1.6H315.7z"/>
			<path class="st6" d="M323.7,45.8v1.5H322v-1.5h-2.2v-1.5l1.6-4.7h1.7l-1.6,4.6h0.5v-0.4l0.4-1h1.3v1.4h0.5v1.6H323.7z"/>
		</g>
	</g>
	<g>
		<g>
			<circle class="st4" cx="515.7" cy="147.5" r="8.5"/>
			<circle class="st5" cx="515.7" cy="147.5" r="8.5"/>
		</g>
		<g>
			<path class="st6" d="M511.6,151.4v-1.6h1v-4.5h-0.9v-1.6h2.6v6.1h0.9v1.6H511.6z"/>
			<path class="st6" d="M516.8,151.4c-0.5-0.2-0.8-0.5-0.8-1.3v-1h1.6v0.8l0.1,0.1h0.6l0.1-0.1v-2.1l-0.1-0.1h-0.6l-0.1,0.1v0.4
				h-1.6v-4.5h4v1.5h-2.4v1.6l0.4-0.4h1.3c0.5,0.2,0.8,0.5,0.8,1.3v2.4c0,0.8-0.4,1.1-0.8,1.3H516.8z"/>
		</g>
	</g>
	<g>
		<g>
			<circle class="st4" cx="405.5" cy="232" r="8.5"/>
			<circle class="st5" cx="405.5" cy="232" r="8.5"/>
		</g>
		<g>
			<path class="st6" d="M401.5,235.9v-1.6h1v-4.5h-0.9v-1.6h2.6v6.1h0.9v1.6H401.5z"/>
			<path class="st6" d="M409.1,235.9h-2.5c-0.5-0.2-0.8-0.5-0.8-1.3v-5.1c0-0.8,0.4-1.1,0.8-1.3h2.5c0.5,0.2,0.8,0.5,0.8,1.3v1h-1.7
				v-0.8l-0.1-0.1h-0.5l-0.1,0.1v1.8l0.3-0.3h1.3c0.5,0.2,0.8,0.5,0.8,1.3v2.2C409.9,235.4,409.6,235.7,409.1,235.9z M408.1,234.5
				l0.1-0.1v-1.8l-0.1-0.1h-0.5l-0.1,0.1v1.8l0.1,0.1H408.1z"/>
		</g>
	</g>
	<g>
		<g>
			<circle class="st4" cx="452.2" cy="257.6" r="8.5"/>
			<circle class="st5" cx="452.2" cy="257.6" r="8.5"/>
		</g>
		<g>
			<path class="st6" d="M448.2,261.5v-1.6h1v-4.5h-0.9v-1.6h2.6v6.1h0.9v1.6H448.2z"/>
			<path class="st6" d="M452.8,261.5l2.1-6.2h-2.4v-1.5h4.1v1.2l-2.1,6.5H452.8z"/>
		</g>
	</g>
	<g>
		<g>
			<circle class="st4" cx="396.8" cy="297.1" r="8.5"/>
			<circle class="st5" cx="396.8" cy="297.1" r="8.5"/>
		</g>
		<g>
			<path class="st6" d="M392.8,301v-1.6h1V295h-0.9v-1.6h2.6v6.1h0.9v1.6H392.8z"/>
			<path class="st6" d="M397.9,301c-0.5-0.2-0.8-0.5-0.8-1.3v-1.4c0-0.6,0.2-0.9,0.6-1.2c-0.4-0.3-0.6-0.6-0.6-1.2v-1.3
				c0-0.8,0.4-1.1,0.8-1.3h2.5c0.5,0.2,0.8,0.5,0.8,1.3v1.3c0,0.6-0.2,0.9-0.6,1.2c0.4,0.3,0.6,0.6,0.6,1.2v1.4
				c0,0.8-0.4,1.1-0.8,1.3H397.9z M398.8,296.4l0.1,0.1h0.5l0.1-0.1v-1.5l-0.1-0.1h-0.5l-0.1,0.1V296.4z M399.5,299.5v-1.6l-0.1-0.1
				h-0.5l-0.1,0.1v1.6l0.1,0.1h0.5L399.5,299.5z"/>
		</g>
	</g>
</g>


<g id="アイコン">
	<g>
		<g>
			<path class="st6" d="M374.8,328.6c0,1.6-1.3,2.8-2.8,2.8H3.2c-1.6,0-2.8-1.3-2.8-2.8v-24.9c0-1.6,1.3-2.8,2.8-2.8H372
				c1.6,0,2.8,1.3,2.8,2.8V328.6z"/>
			<path class="st13" d="M374.8,328.6c0,1.6-1.3,2.8-2.8,2.8H3.2c-1.6,0-2.8-1.3-2.8-2.8v-24.9c0-1.6,1.3-2.8,2.8-2.8H372
				c1.6,0,2.8,1.3,2.8,2.8V328.6z"/>
		</g>
		<g>
			<path class="st5" d="M45.9,317.5v2.6c0,1.3-0.6,1.7-1.3,2h-3.3c-0.7-0.3-1.3-0.7-1.3-2v-2h1.8v2.1l0.4,0.4h1.6l0.4-0.4v-2.8
				l-0.3-0.4l-2.6-0.8c-0.8-0.3-1.1-0.8-1.1-1.9v-2.2c0-1.3,0.6-1.7,1.3-2h3.3c0.7,0.3,1.3,0.7,1.3,2v1.9h-1.8V312l-0.4-0.4h-1.6
				l-0.4,0.4v2.4l0.4,0.4l2.6,0.7C45.5,315.9,45.9,316.4,45.9,317.5z"/>
			<path class="st5" d="M47.2,310.2h5.1v1.6H49v3.4h3.1v1.6H49v3.7h3.4v1.6h-5.2V310.2z"/>
			<path class="st5" d="M59.5,320.1c0,1.3-0.6,1.7-1.3,2h-3.3c-0.7-0.3-1.3-0.7-1.3-2v-8c0-1.3,0.6-1.7,1.3-2h3.3
				c0.7,0.3,1.3,0.7,1.3,2v2.7h-1.8V312l-0.4-0.4h-1.6l-0.4,0.4v8.3l0.4,0.4h1.6l0.4-0.4v-2.7h1.8V320.1z"/>
			<path class="st5" d="M64.3,311.8v10.3h-1.8v-10.3h-2.1v-1.6h6.1v1.6H64.3z"/>
			<path class="st5" d="M73.2,320.1c0,1.3-0.6,1.7-1.3,2h-3.3c-0.7-0.3-1.3-0.7-1.3-2v-8c0-1.3,0.6-1.7,1.3-2h3.3
				c0.7,0.3,1.3,0.7,1.3,2V320.1z M71.4,312l-0.4-0.4h-1.6L69,312v8.3l0.4,0.4H71l0.4-0.4V312z"/>
			<path class="st5" d="M74.6,322.1v-12h4.6c0.7,0.3,1.3,0.7,1.3,2v2.6c0,1.3-0.6,1.6-1.3,1.9l-0.3,0.1L81,321v1.1h-1.6l-2.2-5.1
				h-0.8v5.1H74.6z M76.3,311.6v3.9h2l0.4-0.4V312l-0.4-0.4H76.3z"/>
			<path class="st5" d="M84.6,322.1v-1.6h1.8v-8.7h-1.7v-1.6h3.5v10.4h1.7v1.6H84.6z"/>
		</g>
		<line class="st14" x1="14.5" y1="316.2" x2="35.8" y2="316.2"/>
		<g>
			<path class="st5" d="M136,317.5v2.6c0,1.3-0.6,1.7-1.3,2h-3.3c-0.7-0.3-1.3-0.7-1.3-2v-2h1.8v2.1l0.4,0.4h1.6l0.4-0.4v-2.8
				l-0.3-0.4l-2.6-0.8c-0.8-0.3-1.1-0.8-1.1-1.9v-2.2c0-1.3,0.6-1.7,1.3-2h3.3c0.7,0.3,1.3,0.7,1.3,2v1.9h-1.8V312l-0.4-0.4h-1.6
				l-0.4,0.4v2.4l0.4,0.4l2.6,0.7C135.6,315.9,136,316.4,136,317.5z"/>
			<path class="st5" d="M137.3,310.2h5.1v1.6h-3.3v3.4h3.1v1.6h-3.1v3.7h3.4v1.6h-5.2V310.2z"/>
			<path class="st5" d="M149.6,320.1c0,1.3-0.6,1.7-1.3,2H145c-0.7-0.3-1.3-0.7-1.3-2v-8c0-1.3,0.6-1.7,1.3-2h3.3
				c0.7,0.3,1.3,0.7,1.3,2v2.7h-1.8V312l-0.4-0.4h-1.6l-0.4,0.4v8.3l0.4,0.4h1.6l0.4-0.4v-2.7h1.8V320.1z"/>
			<path class="st5" d="M154.4,311.8v10.3h-1.8v-10.3h-2.1v-1.6h6.1v1.6H154.4z"/>
			<path class="st5" d="M163.3,320.1c0,1.3-0.6,1.7-1.3,2h-3.3c-0.7-0.3-1.3-0.7-1.3-2v-8c0-1.3,0.6-1.7,1.3-2h3.3
				c0.7,0.3,1.3,0.7,1.3,2V320.1z M161.5,312l-0.4-0.4h-1.6l-0.4,0.4v8.3l0.4,0.4h1.6l0.4-0.4V312z"/>
			<path class="st5" d="M164.7,322.1v-12h4.6c0.7,0.3,1.3,0.7,1.3,2v2.6c0,1.3-0.6,1.6-1.3,1.9l-0.3,0.1l2.1,4.3v1.1h-1.6l-2.2-5.1
				h-0.8v5.1H164.7z M166.5,311.6v3.9h2l0.4-0.4V312l-0.4-0.4H166.5z"/>
			<path class="st5" d="M174.4,322.1v-3.6c0-1.1,0.4-1.7,1.2-2.1l3-1.2V312l-0.4-0.4h-1.7l-0.4,0.4v2h-1.8v-1.9c0-1.3,0.6-1.7,1.3-2
				h3.3c0.7,0.3,1.3,0.7,1.3,2v2.5c0,1.1-0.3,1.7-1.1,2.1l-3,1.2v2.5h4.1v1.6H174.4z"/>
		</g>
		<line class="st15" x1="104.6" y1="316.2" x2="125.9" y2="316.2"/>
		<g>
			<path class="st5" d="M225.8,317.5v2.6c0,1.3-0.6,1.7-1.3,2h-3.3c-0.7-0.3-1.3-0.7-1.3-2v-2h1.8v2.1l0.4,0.4h1.6l0.4-0.4v-2.8
				l-0.3-0.4l-2.6-0.8c-0.8-0.3-1.1-0.8-1.1-1.9v-2.2c0-1.3,0.6-1.7,1.3-2h3.3c0.7,0.3,1.3,0.7,1.3,2v1.9H224V312l-0.4-0.4H222
				l-0.4,0.4v2.4l0.4,0.4l2.6,0.7C225.4,315.9,225.8,316.4,225.8,317.5z"/>
			<path class="st5" d="M227.1,310.2h5.1v1.6h-3.3v3.4h3.1v1.6h-3.1v3.7h3.4v1.6h-5.2V310.2z"/>
			<path class="st5" d="M239.4,320.1c0,1.3-0.6,1.7-1.3,2h-3.3c-0.7-0.3-1.3-0.7-1.3-2v-8c0-1.3,0.6-1.7,1.3-2h3.3
				c0.7,0.3,1.3,0.7,1.3,2v2.7h-1.8V312l-0.4-0.4h-1.6l-0.4,0.4v8.3l0.4,0.4h1.6l0.4-0.4v-2.7h1.8V320.1z"/>
			<path class="st5" d="M244.2,311.8v10.3h-1.8v-10.3h-2.1v-1.6h6.1v1.6H244.2z"/>
			<path class="st5" d="M253.1,320.1c0,1.3-0.6,1.7-1.3,2h-3.3c-0.7-0.3-1.3-0.7-1.3-2v-8c0-1.3,0.6-1.7,1.3-2h3.3
				c0.7,0.3,1.3,0.7,1.3,2V320.1z M251.3,312l-0.4-0.4h-1.6L249,312v8.3l0.4,0.4h1.6l0.4-0.4V312z"/>
			<path class="st5" d="M254.5,322.1v-12h4.6c0.7,0.3,1.3,0.7,1.3,2v2.6c0,1.3-0.6,1.6-1.3,1.9l-0.3,0.1l2.1,4.3v1.1h-1.6l-2.2-5.1
				h-0.8v5.1H254.5z M256.3,311.6v3.9h2l0.4-0.4V312l-0.4-0.4H256.3z"/>
			<path class="st5" d="M265.5,322.1c-0.7-0.3-1.3-0.7-1.3-2v-1.7h1.8v1.8l0.4,0.4h1.7l0.4-0.4v-3.2l-0.4-0.3h-1.8v-1.4h1.8l0.4-0.4
				v-3l-0.4-0.4h-1.7l-0.4,0.4v1.8h-1.8v-1.7c0-1.3,0.6-1.7,1.3-2h3.3c0.7,0.3,1.3,0.7,1.3,2v1.9c0,1-0.2,1.5-0.9,1.9
				c0.6,0.4,0.9,0.9,0.9,1.9v2.2c0,1.3-0.6,1.7-1.3,2H265.5z"/>
		</g>
		<line class="st16" x1="194.5" y1="316.2" x2="215.7" y2="316.2"/>
		<g>
			<path class="st5" d="M315.7,320.1c0,1.3-0.6,1.7-1.3,2h-4.6v-12h4.6c0.7,0.3,1.3,0.7,1.3,2V320.1z M311.6,311.6v9h2l0.4-0.4V312
				l-0.4-0.4H311.6z"/>
			<path class="st5" d="M317.1,322.1v-12h4.6c0.7,0.3,1.3,0.7,1.3,2v2.6c0,1.3-0.6,1.6-1.3,1.9l-0.3,0.1l2.1,4.3v1.1H322l-2.2-5.1
				h-0.8v5.1H317.1z M318.9,311.6v3.9h2l0.4-0.4V312l-0.4-0.4H318.9z"/>
			<path class="st5" d="M330.1,317.5v2.6c0,1.3-0.6,1.7-1.3,2h-3.3c-0.7-0.3-1.3-0.7-1.3-2v-2h1.8v2.1l0.4,0.4h1.6l0.4-0.4v-2.8
				l-0.3-0.4l-2.6-0.8c-0.8-0.3-1.1-0.8-1.1-1.9v-2.2c0-1.3,0.6-1.7,1.3-2h3.3c0.7,0.3,1.3,0.7,1.3,2v1.9h-1.8V312l-0.4-0.4h-1.6
				L326,312v2.4l0.4,0.4l2.6,0.7C329.8,315.9,330.1,316.4,330.1,317.5z"/>
			<path class="st5" d="M337.7,311.8h-3.9v-1.6h5.8v1.5l-4,8.9h4v1.6h-5.9v-1.5L337.7,311.8z"/>
			<path class="st5" d="M346.8,320.1c0,1.3-0.6,1.7-1.3,2h-3.3c-0.7-0.3-1.3-0.7-1.3-2v-8c0-1.3,0.6-1.7,1.3-2h3.3
				c0.7,0.3,1.3,0.7,1.3,2V320.1z M345,312l-0.4-0.4h-1.6l-0.4,0.4v8.3l0.4,0.4h1.6l0.4-0.4V312z"/>
			<path class="st5" d="M352.5,310.2h1.6v12h-1.6L350,315h-0.2v7.1h-1.6v-12h1.6l2.6,7.1h0.2V310.2z"/>
			<path class="st5" d="M355.5,310.2h5.1v1.6h-3.3v3.4h3.1v1.6h-3.1v3.7h3.4v1.6h-5.2V310.2z"/>
		</g>
		<g>
			<g>
				<g>
					<g>
						<line class="st17" x1="285.8" y1="308.8" x2="285.8" y2="323.7"/>
					</g>
					<g>
						<ellipse class="st10" cx="291.9" cy="316.2" rx="1.5" ry="1.4"/>
					</g>
					<g>
						<ellipse class="st10" cx="297.9" cy="316.2" rx="1.5" ry="1.4"/>
					</g>
					<g>
						<line class="st17" x1="304" y1="308.8" x2="304" y2="323.7"/>
					</g>
				</g>
			</g>
		</g>
	</g>
	<g>
		
			<rect x="343.3" y="274.4" transform="matrix(0.5482 -0.8363 0.8363 0.5482 -74.9696 412.9301)" class="st5" width="2.8" height="2.8"/>
		
			<rect x="346.4" y="269.7" transform="matrix(0.5482 -0.8363 0.8363 0.5482 -69.6001 413.3875)" class="st5" width="2.8" height="2.8"/>
		
			<rect x="347.2" y="273.6" transform="matrix(0.5482 -0.8363 0.8363 0.5482 -72.5136 415.8435)" class="st5" width="2.8" height="2.8"/>
		
			<rect x="350.3" y="268.9" transform="matrix(0.5482 -0.8363 0.8363 0.5482 -67.1441 416.3009)" class="st5" width="2.8" height="2.8"/>
		
			<rect x="352" y="276.7" transform="matrix(0.5482 -0.8363 0.8363 0.5482 -72.971 421.213)" class="st5" width="2.8" height="2.8"/>
		
			<rect x="355.1" y="272" transform="matrix(0.5482 -0.8363 0.8363 0.5482 -67.6016 421.6704)" class="st5" width="2.8" height="2.8"/>
		
			<rect x="349.5" y="265" transform="matrix(0.5482 -0.8363 0.8363 0.5482 -64.2307 413.8449)" class="st5" width="2.8" height="2.8"/>
		
			<rect x="348" y="267.3" transform="matrix(0.5482 -0.8363 0.8363 0.5482 -66.9154 413.6162)" class="st6" width="2.8" height="2.8"/>
		
			<rect x="344.9" y="272.1" transform="matrix(0.5482 -0.8363 0.8363 0.5482 -72.2849 413.1588)" class="st6" width="2.8" height="2.8"/>
		
			<rect x="345.7" y="276" transform="matrix(0.5482 -0.8363 0.8363 0.5482 -75.1983 415.6148)" class="st6" width="2.8" height="2.8"/>
		
			<rect x="348.8" y="271.3" transform="matrix(0.5482 -0.8363 0.8363 0.5482 -69.8288 416.0722)" class="st6" width="2.8" height="2.8"/>
		
			<rect x="351.9" y="266.5" transform="matrix(0.5482 -0.8363 0.8363 0.5482 -64.4594 416.5297)" class="st6" width="2.8" height="2.8"/>
		
			<rect x="352.7" y="270.4" transform="matrix(0.5482 -0.8363 0.8363 0.5482 -67.3728 418.9857)" class="st6" width="2.8" height="2.8"/>
		
			<rect x="349.6" y="275.2" transform="matrix(0.5482 -0.8363 0.8363 0.5482 -72.7423 418.5282)" class="st6" width="2.8" height="2.8"/>
		
			<rect x="357.5" y="273.5" transform="matrix(0.5482 -0.8363 0.8363 0.5482 -67.8303 424.3551)" class="st6" width="2.8" height="2.8"/>
		
			<rect x="354.4" y="278.3" transform="matrix(0.5482 -0.8363 0.8363 0.5482 -73.1997 423.8977)" class="st6" width="2.8" height="2.8"/>
		
			<rect x="350.4" y="279.1" transform="matrix(0.5482 -0.8363 0.8363 0.5482 -75.6557 420.9842)" class="st6" width="2.8" height="2.8"/>
		
			<rect x="353.5" y="274.4" transform="matrix(0.5482 -0.8363 0.8363 0.5482 -70.2863 421.4417)" class="st6" width="2.8" height="2.8"/>
		
			<rect x="356.6" y="269.6" transform="matrix(0.5482 -0.8363 0.8363 0.5482 -64.9168 421.8991)" class="st6" width="2.8" height="2.8"/>
		
			<rect x="348.1" y="277.5" transform="matrix(0.5482 -0.8363 0.8363 0.5482 -75.427 418.2995)" class="st5" width="2.8" height="2.8"/>
		
			<rect x="351.2" y="272.8" transform="matrix(0.5482 -0.8363 0.8363 0.5482 -70.0576 418.757)" class="st5" width="2.8" height="2.8"/>
		
			<rect x="355.9" y="275.9" transform="matrix(0.5482 -0.8363 0.8363 0.5482 -70.515 424.1264)" class="st5" width="2.8" height="2.8"/>
		
			<rect x="354.3" y="268.1" transform="matrix(0.5482 -0.8363 0.8363 0.5482 -64.6881 419.2144)" class="st5" width="2.8" height="2.8"/>
		
			<rect x="352.8" y="280.7" transform="matrix(0.5482 -0.8363 0.8363 0.5482 -75.8844 423.6689)" class="st5" width="2.8" height="2.8"/>
		
			<rect x="359" y="271.2" transform="matrix(0.5482 -0.8363 0.8363 0.5482 -65.1456 424.5838)" class="st5" width="2.8" height="2.8"/>
	</g>
	<g>
		<defs>
			
				<rect id="SVGID_1_" x="308" y="247.3" transform="matrix(0.8396 0.5433 -0.5433 0.8396 187.86 -133.057)" width="22.3" height="8.5"/>
		</defs>
		<clipPath id="SVGID_00000169544088702075238960000008543725022423525308_">
			<use xlink:href="#SVGID_1_"  style="overflow:visible;"/>
		</clipPath>
		<g style="clip-path:url(#SVGID_00000169544088702075238960000008543725022423525308_);">
			<polygon class="st19" points="323.7,262.9 321.3,261.3 320.4,252.3 329,249.4 331.4,251 322.8,253.8 			"/>
			<polygon class="st20" points="318.9,259.8 316.5,258.2 315.6,249.2 324.2,246.3 326.6,247.9 318,250.7 			"/>
			<polygon class="st21" points="314.2,256.7 311.8,255.2 310.9,246.1 319.5,243.3 321.9,244.8 313.2,247.7 			"/>
		</g>
	</g>
</g>
</svg>
