<?xml version="1.0" encoding="utf-8"?>
<!-- Generator: Adobe Illustrator 26.5.0, SVG Export Plug-In . SVG Version: 6.00 Build 0)  -->
<svg version="1.1" xmlns="http://www.w3.org/2000/svg" xmlns:xlink="http://www.w3.org/1999/xlink" x="0px" y="0px"
	 viewBox="0.0 0.0 559.6 436.6" style="enable-background:new 0 0 559.6 447;" xml:space="preserve">
<style type="text/css">
	.st0{fill:none;stroke:#646464;stroke-width:14.1732;stroke-linecap:round;stroke-linejoin:round;stroke-miterlimit:10;}
	.st1{fill:#FFFFFF;}
	.st2{fill:none;stroke:#646464;stroke-width:0.7087;stroke-miterlimit:10;}
	.st3{fill:#646464;}
	.st4{fill:none;stroke:#F4442E;stroke-width:5.6693;stroke-miterlimit:10;}
	.st5{fill:none;stroke:#54C6EB;stroke-width:5.6693;stroke-miterlimit:10;}
	.st6{fill:none;stroke:#FFD449;stroke-width:5.6693;stroke-miterlimit:10;}
	.st7{fill:none;stroke:#09BC8A;stroke-width:2.8346;stroke-miterlimit:10;}
	.st8{fill:#09BC8A;}
	.st9{clip-path:url(#SVGID_00000145053733133686082170000015471786666477875603_);}
	.st10{fill:#F4442E;}
	.st11{fill:#54C6EB;}
	.st12{fill:#FFD449;}
	.st13{fill:none;stroke:#FFD449;stroke-width:2.8346;stroke-miterlimit:10;}
	.st14{fill:none;stroke:#54C6EB;stroke-width:2.8346;stroke-miterlimit:10;}
	.st15{fill:none;stroke:#F4442E;stroke-width:2.8346;stroke-miterlimit:10;}
	.st16{fill:#FF3380;}
	.st17{fill:none;stroke:#646464;stroke-width:2.8346;stroke-miterlimit:10;}
	.st18{fill:none;stroke:#FF3380;stroke-width:1.9843;stroke-miterlimit:10;}
	.st19{fill:none;stroke:#09BC8A;stroke-width:1.9843;stroke-miterlimit:10;}
</style>
<g id="コース">
	<path class="st0" d="M485.2,351.7c0,0-429.4,0-444.3,0c-9.2,0-13-5.7-6.1-12.3c5-4.8,15.8-17.3,17.8-19.8c2-2.4,4-6.1,1.1-13.8
		c-2.9-7.7-9.2-25.2-10.8-29.4c-1.5-4.2-1.5-12.5-0.4-21.7c1.1-9.2,31.2-209,32.3-214.5s7.2-7,12.7-7s10.8,2.6,14,6.8
		c3.3,4.2,21.7,26.3,31.6,36.9s16.9,17.6,22.6,21.3c5.7,3.7,9.9,7,19.1,10.3c9.2,3.3,17.4,6.7,22,15.4c2.6,5,0.9,18,0.7,26.8
		s-3.3,20.4,13.4,33.1c16.7,12.7,55,40.5,59.3,44.1c9.7,8.3,2,16.5-10.8,16c-10.3-0.4-57.5-6.8-70.5-8.3c-13-1.5-43.9-5-54-5
		c-10.1,0-19.5,7.5-23,12.7c-3.5,5.3-10.1,13.6-11.2,15.8c-1.1,2.2-2.6,5.3,2.6,6.1c5.3,0.9,38.2,4.6,45,4.6c6.8,0,230,0,235.8,0
		s15.6-3.1,15.6-20.4s-11.9-46.1-38.2-54.2s-44.3-11.7-54.2-35.3c-8.3-20-2.2-36.7,0.7-42.6c2.9-5.9,14.5-32.5,17.1-38.9
		c2.6-6.4,9.9-12.5,13.6-14.9c3.7-2.4,12.3-7.7,20.9-0.7c8.6,7,14,16.7,17.3,22.8c3.3,6.1,144.9,238.6,146,240.6
		c1.1,2,2.2,7.5,0,10.8s-22.4,11.9-25.9,13.4C493.3,351.9,489.1,351.7,485.2,351.7z"/>
	<g>
		<g>
			<path class="st1" d="M489.4,426.6c0,1.6-1.3,2.8-2.8,2.8H117.8c-1.6,0-2.8-1.3-2.8-2.8v-24.9c0-1.6,1.3-2.8,2.8-2.8h368.8
				c1.6,0,2.8,1.3,2.8,2.8V426.6z"/>
			<path class="st2" d="M489.4,426.6c0,1.6-1.3,2.8-2.8,2.8H117.8c-1.6,0-2.8-1.3-2.8-2.8v-24.9c0-1.6,1.3-2.8,2.8-2.8h368.8
				c1.6,0,2.8,1.3,2.8,2.8V426.6z"/>
		</g>
		<g>
			<path class="st3" d="M160.4,415.5v2.6c0,1.3-0.6,1.7-1.3,2h-3.3c-0.7-0.3-1.3-0.7-1.3-2v-2h1.8v2.1l0.4,0.4h1.6l0.4-0.4v-2.8
				l-0.3-0.4l-2.6-0.8c-0.8-0.3-1.1-0.8-1.1-1.9v-2.2c0-1.3,0.6-1.7,1.3-2h3.3c0.7,0.3,1.3,0.7,1.3,2v1.9h-1.8V410l-0.4-0.4h-1.6
				l-0.4,0.4v2.4l0.4,0.4l2.6,0.7C160.1,413.9,160.4,414.4,160.4,415.5z"/>
			<path class="st3" d="M161.8,408.1h5.1v1.6h-3.3v3.4h3.1v1.6h-3.1v3.7h3.4v1.6h-5.2V408.1z"/>
			<path class="st3" d="M174.1,418.1c0,1.3-0.6,1.7-1.3,2h-3.3c-0.7-0.3-1.3-0.7-1.3-2v-8c0-1.3,0.6-1.7,1.3-2h3.3
				c0.7,0.3,1.3,0.7,1.3,2v2.7h-1.8V410l-0.4-0.4h-1.6L170,410v8.3l0.4,0.4h1.6l0.4-0.4v-2.7h1.8V418.1z"/>
			<path class="st3" d="M178.8,409.8v10.3h-1.8v-10.3h-2.1v-1.6h6.1v1.6H178.8z"/>
			<path class="st3" d="M187.7,418.1c0,1.3-0.6,1.7-1.3,2h-3.3c-0.7-0.3-1.3-0.7-1.3-2v-8c0-1.3,0.6-1.7,1.3-2h3.3
				c0.7,0.3,1.3,0.7,1.3,2V418.1z M185.9,410l-0.4-0.4H184l-0.4,0.4v8.3l0.4,0.4h1.6l0.4-0.4V410z"/>
			<path class="st3" d="M189.1,420.1v-12h4.6c0.7,0.3,1.3,0.7,1.3,2v2.6c0,1.3-0.6,1.6-1.3,1.9l-0.3,0.1l2.1,4.3v1.1H194l-2.2-5.1
				h-0.8v5.1H189.1z M190.9,409.6v3.9h2l0.4-0.4V410l-0.4-0.4H190.9z"/>
			<path class="st3" d="M199.2,420.1v-1.6h1.8v-8.7h-1.7v-1.6h3.5v10.4h1.7v1.6H199.2z"/>
		</g>
		<line class="st4" x1="129.1" y1="414.2" x2="150.4" y2="414.2"/>
		<g>
			<path class="st3" d="M250.6,415.5v2.6c0,1.3-0.6,1.7-1.3,2h-3.3c-0.7-0.3-1.3-0.7-1.3-2v-2h1.8v2.1l0.4,0.4h1.6l0.4-0.4v-2.8
				l-0.3-0.4l-2.6-0.8c-0.8-0.3-1.1-0.8-1.1-1.9v-2.2c0-1.3,0.6-1.7,1.3-2h3.3c0.7,0.3,1.3,0.7,1.3,2v1.9h-1.8V410l-0.4-0.4h-1.6
				l-0.4,0.4v2.4l0.4,0.4l2.6,0.7C250.2,413.9,250.6,414.4,250.6,415.5z"/>
			<path class="st3" d="M251.9,408.1h5.1v1.6h-3.3v3.4h3.1v1.6h-3.1v3.7h3.4v1.6h-5.2V408.1z"/>
			<path class="st3" d="M264.2,418.1c0,1.3-0.6,1.7-1.3,2h-3.3c-0.7-0.3-1.3-0.7-1.3-2v-8c0-1.3,0.6-1.7,1.3-2h3.3
				c0.7,0.3,1.3,0.7,1.3,2v2.7h-1.8V410l-0.4-0.4h-1.6l-0.4,0.4v8.3l0.4,0.4h1.6l0.4-0.4v-2.7h1.8V418.1z"/>
			<path class="st3" d="M269,409.8v10.3h-1.8v-10.3H265v-1.6h6.1v1.6H269z"/>
			<path class="st3" d="M277.8,418.1c0,1.3-0.6,1.7-1.3,2h-3.3c-0.7-0.3-1.3-0.7-1.3-2v-8c0-1.3,0.6-1.7,1.3-2h3.3
				c0.7,0.3,1.3,0.7,1.3,2V418.1z M276,410l-0.4-0.4h-1.6l-0.4,0.4v8.3l0.4,0.4h1.6l0.4-0.4V410z"/>
			<path class="st3" d="M279.2,420.1v-12h4.6c0.7,0.3,1.3,0.7,1.3,2v2.6c0,1.3-0.6,1.6-1.3,1.9l-0.3,0.1l2.1,4.3v1.1h-1.6l-2.2-5.1
				H281v5.1H279.2z M281,409.6v3.9h2l0.4-0.4V410l-0.4-0.4H281z"/>
			<path class="st3" d="M288.9,420.1v-3.6c0-1.1,0.4-1.7,1.2-2.1l3-1.2V410l-0.4-0.4h-1.7l-0.4,0.4v2h-1.8v-1.9c0-1.3,0.6-1.7,1.3-2
				h3.3c0.7,0.3,1.3,0.7,1.3,2v2.5c0,1.1-0.3,1.7-1.1,2.1l-3,1.2v2.5h4.1v1.6H288.9z"/>
		</g>
		<line class="st5" x1="219.2" y1="414.2" x2="240.5" y2="414.2"/>
		<g>
			<path class="st3" d="M340.4,415.5v2.6c0,1.3-0.6,1.7-1.3,2h-3.3c-0.7-0.3-1.3-0.7-1.3-2v-2h1.8v2.1l0.4,0.4h1.6l0.4-0.4v-2.8
				l-0.3-0.4l-2.6-0.8c-0.8-0.3-1.1-0.8-1.1-1.9v-2.2c0-1.3,0.6-1.7,1.3-2h3.3c0.7,0.3,1.3,0.7,1.3,2v1.9h-1.8V410l-0.4-0.4h-1.6
				l-0.4,0.4v2.4l0.4,0.4l2.6,0.7C340,413.9,340.4,414.4,340.4,415.5z"/>
			<path class="st3" d="M341.7,408.1h5.1v1.6h-3.3v3.4h3.1v1.6h-3.1v3.7h3.4v1.6h-5.2V408.1z"/>
			<path class="st3" d="M354,418.1c0,1.3-0.6,1.7-1.3,2h-3.3c-0.7-0.3-1.3-0.7-1.3-2v-8c0-1.3,0.6-1.7,1.3-2h3.3
				c0.7,0.3,1.3,0.7,1.3,2v2.7h-1.8V410l-0.4-0.4h-1.6l-0.4,0.4v8.3l0.4,0.4h1.6l0.4-0.4v-2.7h1.8V418.1z"/>
			<path class="st3" d="M358.8,409.8v10.3H357v-10.3h-2.1v-1.6h6.1v1.6H358.8z"/>
			<path class="st3" d="M367.7,418.1c0,1.3-0.6,1.7-1.3,2H363c-0.7-0.3-1.3-0.7-1.3-2v-8c0-1.3,0.6-1.7,1.3-2h3.3
				c0.7,0.3,1.3,0.7,1.3,2V418.1z M365.9,410l-0.4-0.4h-1.6l-0.4,0.4v8.3l0.4,0.4h1.6l0.4-0.4V410z"/>
			<path class="st3" d="M369.1,420.1v-12h4.6c0.7,0.3,1.3,0.7,1.3,2v2.6c0,1.3-0.6,1.6-1.3,1.9l-0.3,0.1l2.1,4.3v1.1h-1.6l-2.2-5.1
				h-0.8v5.1H369.1z M370.9,409.6v3.9h2l0.4-0.4V410l-0.4-0.4H370.9z"/>
			<path class="st3" d="M380.1,420.1c-0.7-0.3-1.3-0.7-1.3-2v-1.7h1.8v1.8l0.4,0.4h1.7l0.4-0.4v-3.2l-0.4-0.3h-1.8v-1.4h1.8l0.4-0.4
				v-3l-0.4-0.4h-1.7l-0.4,0.4v1.8h-1.8v-1.7c0-1.3,0.6-1.7,1.3-2h3.3c0.7,0.3,1.3,0.7,1.3,2v1.9c0,1-0.2,1.5-0.9,1.9
				c0.6,0.4,0.9,0.9,0.9,1.9v2.2c0,1.3-0.6,1.7-1.3,2H380.1z"/>
		</g>
		<line class="st6" x1="309" y1="414.2" x2="330.3" y2="414.2"/>
		<g>
			<path class="st3" d="M430.3,418.1c0,1.3-0.6,1.7-1.3,2h-4.6v-12h4.6c0.7,0.3,1.3,0.7,1.3,2V418.1z M426.2,409.6v9h2l0.4-0.4V410
				l-0.4-0.4H426.2z"/>
			<path class="st3" d="M431.7,420.1v-12h4.6c0.7,0.3,1.3,0.7,1.3,2v2.6c0,1.3-0.6,1.6-1.3,1.9l-0.3,0.1l2.1,4.3v1.1h-1.6l-2.2-5.1
				h-0.8v5.1H431.7z M433.5,409.6v3.9h2l0.4-0.4V410l-0.4-0.4H433.5z"/>
			<path class="st3" d="M444.7,415.5v2.6c0,1.3-0.6,1.7-1.3,2h-3.3c-0.7-0.3-1.3-0.7-1.3-2v-2h1.8v2.1l0.4,0.4h1.6l0.4-0.4v-2.8
				l-0.3-0.4l-2.6-0.8c-0.8-0.3-1.1-0.8-1.1-1.9v-2.2c0-1.3,0.6-1.7,1.3-2h3.3c0.7,0.3,1.3,0.7,1.3,2v1.9h-1.8V410l-0.4-0.4H441
				l-0.4,0.4v2.4l0.4,0.4l2.6,0.7C444.3,413.9,444.7,414.4,444.7,415.5z"/>
			<path class="st3" d="M452.3,409.8h-3.9v-1.6h5.8v1.5l-4,8.9h4v1.6h-5.9v-1.5L452.3,409.8z"/>
			<path class="st3" d="M461.4,418.1c0,1.3-0.6,1.7-1.3,2h-3.3c-0.7-0.3-1.3-0.7-1.3-2v-8c0-1.3,0.6-1.7,1.3-2h3.3
				c0.7,0.3,1.3,0.7,1.3,2V418.1z M459.6,410l-0.4-0.4h-1.6l-0.4,0.4v8.3l0.4,0.4h1.6l0.4-0.4V410z"/>
			<path class="st3" d="M467.1,408.1h1.6v12h-1.6l-2.6-7.1h-0.2v7.1h-1.6v-12h1.6l2.6,7.1h0.2V408.1z"/>
			<path class="st3" d="M470.1,408.1h5.1v1.6h-3.3v3.4h3.1v1.6h-3.1v3.7h3.4v1.6h-5.2V408.1z"/>
		</g>
		<g>
			<g>
				<g>
					<g>
						<line class="st7" x1="400.4" y1="406.8" x2="400.4" y2="421.6"/>
					</g>
					<g>
						<ellipse class="st8" cx="406.5" cy="414.2" rx="1.5" ry="1.4"/>
					</g>
					<g>
						<ellipse class="st8" cx="412.5" cy="414.2" rx="1.5" ry="1.4"/>
					</g>
					<g>
						<line class="st7" x1="418.6" y1="406.8" x2="418.6" y2="421.6"/>
					</g>
				</g>
			</g>
		</g>
	</g>
	<g>
		<rect x="331.4" y="322.9" class="st3" width="2.8" height="2.8"/>
		<rect x="337.1" y="322.9" class="st3" width="2.8" height="2.8"/>
		<rect x="334.2" y="325.7" class="st3" width="2.8" height="2.8"/>
		<rect x="339.9" y="325.7" class="st3" width="2.8" height="2.8"/>
		<rect x="334.2" y="331.4" class="st3" width="2.8" height="2.8"/>
		<rect x="339.9" y="331.4" class="st3" width="2.8" height="2.8"/>
		<rect x="342.7" y="322.9" class="st3" width="2.8" height="2.8"/>
		<rect x="339.9" y="322.9" class="st1" width="2.8" height="2.8"/>
		<rect x="334.2" y="322.9" class="st1" width="2.8" height="2.8"/>
		<rect x="331.4" y="325.7" class="st1" width="2.8" height="2.8"/>
		<rect x="337.1" y="325.7" class="st1" width="2.8" height="2.8"/>
		<rect x="342.7" y="325.7" class="st1" width="2.8" height="2.8"/>
		<rect x="339.9" y="328.5" class="st1" width="2.8" height="2.8"/>
		<rect x="334.2" y="328.5" class="st1" width="2.8" height="2.8"/>
		<rect x="339.9" y="334.2" class="st1" width="2.8" height="2.8"/>
		<rect x="334.2" y="334.2" class="st1" width="2.8" height="2.8"/>
		<rect x="331.4" y="331.4" class="st1" width="2.8" height="2.8"/>
		<rect x="337.1" y="331.4" class="st1" width="2.8" height="2.8"/>
		<rect x="342.7" y="331.4" class="st1" width="2.8" height="2.8"/>
		<rect x="331.4" y="328.5" class="st3" width="2.8" height="2.8"/>
		<rect x="337.1" y="328.5" class="st3" width="2.8" height="2.8"/>
		<rect x="337.1" y="334.2" class="st3" width="2.8" height="2.8"/>
		<rect x="342.7" y="328.5" class="st3" width="2.8" height="2.8"/>
		<rect x="331.4" y="334.2" class="st3" width="2.8" height="2.8"/>
		<rect x="342.7" y="334.2" class="st3" width="2.8" height="2.8"/>
	</g>
	<g>
		<defs>
			<rect id="SVGID_1_" x="304.8" y="325.7" width="22.3" height="8.5"/>
		</defs>
		<clipPath id="SVGID_00000160167392251705775710000009804585467691050372_">
			<use xlink:href="#SVGID_1_"  style="overflow:visible;"/>
		</clipPath>
		<g style="clip-path:url(#SVGID_00000160167392251705775710000009804585467691050372_);">
			<polygon class="st10" points="325.8,337 323,337 317.3,329.9 323,322.9 325.8,322.9 320.2,329.9 			"/>
			<polygon class="st11" points="320.2,337 317.3,337 311.7,329.9 317.3,322.9 320.2,322.9 314.5,329.9 			"/>
			<polygon class="st12" points="314.5,337 311.7,337 306,329.9 311.7,322.9 314.5,322.9 308.8,329.9 			"/>
		</g>
	</g>
</g>
<g id="セクター">
	<path class="st13" d="M307.8,117.3c2.9-5.9,14.5-32.5,17.1-38.9c2.6-6.4,9.9-12.5,13.6-14.9c3.7-2.4,12.3-7.7,20.9-0.7
		c8.6,7,14,16.7,17.3,22.8c3.3,6.1,144.9,238.6,146,240.6c1.1,2,2.2,7.5,0,10.8s-22.4,11.9-25.9,13.4c-3.5,1.5-7.7,1.3-11.6,1.3
		c0,0-65.7,0-146.7,0"/>
	<path class="st14" d="M151.3,94.9c1.5,1.3,3,2.4,4.3,3.2c5.7,3.7,9.9,7,19.1,10.3c9.2,3.3,17.4,6.7,22,15.4c2.6,5,0.9,18,0.7,26.8
		s-3.3,20.4,13.4,33.1c16.7,12.7,55,40.5,59.3,44.1c9.7,8.3,2,16.5-10.8,16c-10.3-0.4-57.5-6.8-70.5-8.3c-13-1.5-43.9-5-54-5
		c-10.1,0-19.5,7.5-23,12.7c-3.5,5.3-10.1,13.6-11.2,15.8c-1.1,2.2-2.6,5.3,2.6,6.1c5.3,0.9,38.2,4.6,45,4.6c6.8,0,230,0,235.8,0
		s15.6-3.1,15.6-20.4s-11.9-46.1-38.2-54.2s-44.3-11.7-54.2-35.3c-8.3-20-2.2-36.7,0.7-42.6"/>
	<path class="st15" d="M338.5,351.7c-125.9,0-288.5,0-297.6,0c-9.2,0-13-5.7-6.1-12.3c5-4.8,15.8-17.3,17.8-19.8
		c2-2.4,4-6.1,1.1-13.8c-2.9-7.7-9.2-25.2-10.8-29.4c-1.5-4.2-1.5-12.5-0.4-21.7c1.1-9.2,31.2-209,32.3-214.5s7.2-7,12.7-7
		s10.8,2.6,14,6.8c3.3,4.2,21.7,26.3,31.6,36.9c7.5,8,13.4,14,18.3,18"/>
</g>
<g id="コーナー番号">
	<g>
		<circle class="st3" cx="15.6" cy="356.4" r="8.5"/>
		<g>
			<path class="st1" d="M13.9,360.3v-1.6h1v-4.5H14v-1.6h2.6v6.1h0.9v1.6H13.9z"/>
		</g>
	</g>
	<g>
		<circle class="st3" cx="73.6" cy="314.9" r="8.5"/>
		<g>
			<path class="st1" d="M71.5,318.8v-2.6c0-0.6,0.1-1,0.6-1.2l1.9-0.8v-1.6l-0.1-0.1h-0.5l-0.1,0.1v1.1h-1.7v-1.3
				c0-0.8,0.4-1.1,0.8-1.3h2.5c0.5,0.2,0.8,0.5,0.8,1.3v1.9c0,0.6-0.1,0.9-0.6,1.2l-1.9,0.8v0.9h2.4v1.6H71.5z"/>
		</g>
	</g>
	<g>
		<circle class="st3" cx="21.9" cy="270.4" r="8.5"/>
		<g>
			<path class="st1" d="M20.6,274.3c-0.5-0.2-0.8-0.5-0.8-1.3v-1h1.7v0.8l0.1,0.1h0.5l0.1-0.1v-1.6l-0.1-0.1h-1v-1.3h1l0.1-0.1v-1.5
				l-0.1-0.1h-0.5l-0.1,0.1v0.8h-1.7v-1c0-0.8,0.4-1.1,0.8-1.3h2.5c0.5,0.2,0.8,0.5,0.8,1.3v1.3c0,0.6-0.2,0.9-0.6,1.2
				c0.4,0.3,0.6,0.6,0.6,1.2v1.4c0,0.8-0.4,1.1-0.8,1.3H20.6z"/>
		</g>
	</g>
	<g>
		<circle class="st3" cx="75.4" cy="15.6" r="8.5"/>
		<g>
			<path class="st1" d="M77,18v1.5h-1.7V18h-2.2v-1.5l1.6-4.7h1.7l-1.6,4.6h0.5V16l0.4-1H77v1.4h0.5V18H77z"/>
		</g>
	</g>
	<g>
		<circle class="st3" cx="149.8" cy="118.1" r="8.5"/>
		<g>
			<path class="st1" d="M148.6,122c-0.5-0.2-0.8-0.5-0.8-1.3v-1h1.6v0.8l0.1,0.1h0.6l0.1-0.1v-2.1l-0.1-0.1h-0.6l-0.1,0.1v0.4h-1.6
				v-4.5h4v1.5h-2.4v1.6l0.4-0.4h1.3c0.5,0.2,0.8,0.5,0.8,1.3v2.4c0,0.8-0.4,1.1-0.8,1.3H148.6z"/>
		</g>
	</g>
	<g>
		<circle class="st3" cx="216.7" cy="120.4" r="8.5"/>
		<g>
			<path class="st1" d="M217.9,124.3h-2.5c-0.5-0.2-0.8-0.5-0.8-1.3v-5.1c0-0.8,0.4-1.1,0.8-1.3h2.5c0.5,0.2,0.8,0.5,0.8,1.3v1h-1.7
				v-0.8L217,118h-0.5l-0.1,0.1v1.8l0.3-0.3h1.3c0.5,0.2,0.8,0.5,0.8,1.3v2.2C218.8,123.8,218.4,124.1,217.9,124.3z M217,122.9
				l0.1-0.1V121l-0.1-0.1h-0.5l-0.1,0.1v1.8l0.1,0.1H217z"/>
		</g>
	</g>
	<g>
		<circle class="st3" cx="182" cy="179.3" r="8.5"/>
		<g>
			<path class="st1" d="M180.1,183.1l2.1-6.2h-2.4v-1.5h4.1v1.2l-2.1,6.5H180.1z"/>
		</g>
	</g>
	<g>
		<circle class="st3" cx="291.9" cy="245.7" r="8.5"/>
		<g>
			<path class="st1" d="M290.6,249.6c-0.5-0.2-0.8-0.5-0.8-1.3v-1.4c0-0.6,0.2-0.9,0.6-1.2c-0.4-0.3-0.6-0.6-0.6-1.2v-1.3
				c0-0.8,0.4-1.1,0.8-1.3h2.5c0.5,0.2,0.8,0.5,0.8,1.3v1.3c0,0.6-0.2,0.9-0.6,1.2c0.4,0.3,0.6,0.6,0.6,1.2v1.4
				c0,0.8-0.4,1.1-0.8,1.3H290.6z M291.5,245l0.1,0.1h0.5l0.1-0.1v-1.5l-0.1-0.1h-0.5l-0.1,0.1V245z M292.2,248.1v-1.6l-0.1-0.1
				h-0.5l-0.1,0.1v1.6l0.1,0.1h0.5L292.2,248.1z"/>
		</g>
	</g>
	<g>
		<circle class="st3" cx="129.8" cy="211.8" r="8.5"/>
		<g>
			<path class="st1" d="M128.5,215.7c-0.5-0.2-0.8-0.5-0.8-1.3v-1h1.7v0.8l0.1,0.1h0.5l0.1-0.1v-1.8l-0.3,0.3h-1.3
				c-0.5-0.2-0.8-0.5-0.8-1.3v-2.2c0-0.8,0.4-1.1,0.8-1.3h2.5c0.5,0.2,0.8,0.5,0.8,1.3v5.1c0,0.8-0.4,1.1-0.8,1.3H128.5z
				 M130.1,211.4v-1.8l-0.1-0.1h-0.5l-0.1,0.1v1.8l0.1,0.1h0.5L130.1,211.4z"/>
		</g>
	</g>
	<g>
		<circle class="st3" cx="81.3" cy="272.3" r="8.5"/>
		<g>
			<path class="st1" d="M77.3,276.2v-1.6h1v-4.5h-0.9v-1.6h2.6v6.1h0.9v1.6H77.3z"/>
			<path class="st1" d="M84.9,276.2h-2.5c-0.5-0.2-0.8-0.5-0.8-1.3v-5.1c0-0.8,0.4-1.1,0.8-1.3h2.5c0.5,0.2,0.8,0.5,0.8,1.3v5.1
				C85.7,275.7,85.4,276,84.9,276.2z M84,270l-0.1-0.1h-0.5l-0.1,0.1v4.7l0.1,0.1h0.5l0.1-0.1V270z"/>
		</g>
	</g>
	<g>
		<circle class="st3" cx="420" cy="244.5" r="8.5"/>
		<g>
			<path class="st1" d="M415.9,248.4v-1.6h1v-4.5H416v-1.6h2.6v6.1h0.9v1.6H415.9z"/>
			<path class="st1" d="M420.6,248.4v-1.6h1v-4.5h-0.9v-1.6h2.6v6.1h0.9v1.6H420.6z"/>
		</g>
	</g>
	<g>
		<circle class="st3" cx="289.6" cy="170.3" r="8.5"/>
		<g>
			<path class="st1" d="M285.5,174.2v-1.6h1v-4.5h-0.9v-1.6h2.6v6.1h0.9v1.6H285.5z"/>
			<path class="st1" d="M289.8,174.2v-2.6c0-0.6,0.1-1,0.6-1.2l1.9-0.8v-1.6l-0.1-0.1h-0.5l-0.1,0.1v1.1h-1.7v-1.3
				c0-0.8,0.4-1.1,0.8-1.3h2.5c0.5,0.2,0.8,0.5,0.8,1.3v1.9c0,0.6-0.1,0.9-0.6,1.2l-1.8,0.8v0.9h2.4v1.6H289.8z"/>
		</g>
	</g>
	<g>
		<circle class="st3" cx="338.5" cy="40.5" r="8.5"/>
		<g>
			<path class="st1" d="M334.4,44.4v-1.6h1v-4.5h-0.9v-1.6h2.6v6.1h0.9v1.6H334.4z"/>
			<path class="st1" d="M339.6,44.4c-0.5-0.2-0.8-0.5-0.8-1.3v-1h1.7v0.8l0.1,0.1h0.5l0.1-0.1v-1.6l-0.1-0.1h-1v-1.3h1l0.1-0.1v-1.5
				l-0.1-0.1h-0.5l-0.1,0.1v0.8h-1.7v-1c0-0.8,0.4-1.1,0.8-1.3h2.5c0.5,0.2,0.8,0.5,0.8,1.3v1.3c0,0.6-0.2,0.9-0.6,1.2
				c0.4,0.3,0.6,0.6,0.6,1.2v1.4c0,0.8-0.4,1.1-0.8,1.3H339.6z"/>
		</g>
	</g>
	<g>
		<circle class="st3" cx="544" cy="332.5" r="8.5"/>
		<g>
			<path class="st1" d="M539.9,336.4v-1.6h1v-4.5H540v-1.6h2.6v6.1h0.9v1.6H539.9z"/>
			<path class="st1" d="M548,334.9v1.5h-1.7v-1.5H544v-1.5l1.6-4.7h1.7l-1.6,4.6h0.5v-0.4l0.4-1h1.3v1.4h0.5v1.6H548z"/>
		</g>
	</g>
	<g>
		<circle class="st3" cx="501.3" cy="369.7" r="8.5"/>
		<g>
			<path class="st1" d="M497.2,373.6V372h1v-4.5h-0.9v-1.6h2.6v6.1h0.9v1.6H497.2z"/>
			<path class="st1" d="M502.4,373.6c-0.5-0.2-0.8-0.5-0.8-1.3v-1h1.6v0.8l0.1,0.1h0.6l0.1-0.1V370l-0.1-0.1h-0.6l-0.1,0.1v0.4h-1.6
				v-4.5h4v1.5h-2.4v1.6l0.4-0.4h1.3c0.5,0.2,0.8,0.5,0.8,1.3v2.4c0,0.8-0.4,1.1-0.8,1.3H502.4z"/>
		</g>
	</g>
</g>


</svg>
