<?xml version="1.0" encoding="utf-8"?>
<!-- Generator: Adobe Illustrator 26.5.0, SVG Export Plug-In . SVG Version: 6.00 Build 0)  -->
<svg version="1.1" xmlns="http://www.w3.org/2000/svg" xmlns:xlink="http://www.w3.org/1999/xlink" x="0px" y="0px"
	 viewBox="0 0 525.2 305" style="enable-background:new 0 0 525.2 331.8;" xml:space="preserve">
<style type="text/css">
	.st0{fill:none;stroke:#646464;stroke-width:14.1732;stroke-linecap:round;stroke-linejoin:round;stroke-miterlimit:10;}
	.st1{fill:none;stroke:#FFD449;stroke-width:2.8346;stroke-miterlimit:10;}
	.st2{fill:none;stroke:#54C6EB;stroke-width:2.8346;stroke-miterlimit:10;}
	.st3{fill:none;stroke:#F4442E;stroke-width:2.8346;stroke-miterlimit:10;}
	.st4{fill:none;stroke:#FFFFFF;stroke-width:2.126;}
	.st5{fill:#646464;}
	.st6{fill:#FFFFFF;}
	.st7{fill:none;stroke:#646464;stroke-width:2.8346;stroke-miterlimit:10;}
	.st8{fill:#FF3380;}
	.st9{fill:none;stroke:#FF3380;stroke-width:1.9843;stroke-miterlimit:10;}
	.st10{fill:#09BC8A;}
	.st11{fill:none;stroke:#09BC8A;stroke-width:1.9843;stroke-miterlimit:10;}
	.st12{fill:none;stroke:#09BC8A;stroke-width:2.2097;stroke-miterlimit:10;}
	.st13{fill:none;stroke:#646464;stroke-width:0.7087;stroke-miterlimit:10;}
	.st14{fill:none;stroke:#F4442E;stroke-width:5.6693;stroke-miterlimit:10;}
	.st15{fill:none;stroke:#54C6EB;stroke-width:5.6693;stroke-miterlimit:10;}
	.st16{fill:none;stroke:#FFD449;stroke-width:5.6693;stroke-miterlimit:10;}
	.st17{fill:none;stroke:#09BC8A;stroke-width:2.8346;stroke-miterlimit:10;}
	.st18{clip-path:url(#SVGID_00000182489371729919953420000015993495800105837713_);}
	.st19{fill:#F4442E;}
	.st20{fill:#54C6EB;}
	.st21{fill:#FFD449;}
</style>
<g id="コース">
	<path class="st0" d="M387.7,272.6c0,0-89.9-52.7-96.9-57.7c-7-5-7.8-15.7-7.6-25.8c0.1-10.1,3.7-30-7-41.4
		c-10.7-11.4-32.3-32.8-35.1-36.1c-2.8-3.4-4.2-7.9,0.4-10.2c4.7-2.3,16.7-7.2,20.5-9.2c3.8-2,6.9-4.5,6.6-6.7
		c-0.3-2.2-3.8-6.6-10.2-8c-6.4-1.5-29.4-2.6-33.1-2.3c-3.7,0.3-6.7,3.1-7.9,4.8c-1.2,1.8-87.5,123.5-91.5,128.8
		c-4,5.3-4.7,16.1-1.2,21.4c3.5,5.3,8.2,6,14.3,5.4c6.1-0.6,11.7-0.7,15.4,0.4c3.7,1.2,9.2,3.1,9.5,13.9c0.3,10.8-11.4,13.9-18.1,12
		c-6.7-1.9-28.5-10-35.6-13.2c-7-3.2-18.1-14.2-20.9-17.7c-2.8-3.5-7.9-12.4-10-22.2c-2-9.8-19.2-90-20-96.9
		c-0.9-6.9,1.3-18.3,15.1-24.9c13.8-6.6,41.1-16.5,52.5-18.9c11.4-2.3,41.6-6.4,48.1-7.5c6.6-1,15.7-5.3,20.3-9.8s9.2-9.1,19.6-6.3
		c10.4,2.8,15.1,4,19.3,5.1c5.6,1.5,17.1-0.2,20.9-4.2c5.1-5.4,11.3-13.5,19.9-13.5c8.6,0,15.1,5.6,19,12.3
		c4,6.7,9.7,12.9,12.1,14.8s6.4,4.1,10.5,5.6c4.1,1.5,115.2,45.4,121.6,48c6.4,2.6,31.9,13.9,38,17.3c6.1,3.4,19.9,8.2,20.9,23.7
		c1,15.5-11,22-15.7,24.7c-4.7,2.8-20,13.9-27.5,22.7c-7.5,8.8-27.4,30.3-29.9,33.4s-2.5,6.7,2,10.1c4.5,3.4,6.9,4.8,6.7,9.4
		c-0.1,4.5-4.2,7.6-6.9,10.5s-11.6,10.8-19.3,12.6c-7.8,1.8-9.5,1.3-12.7-0.4C391.1,274.6,387.7,272.6,387.7,272.6z"/>
</g>
<g id="セクター">
	<path class="st1" d="M331.4,70.1c31.2,12.3,102,40.3,107.1,42.3c6.4,2.6,31.9,13.9,38,17.3c6.1,3.4,19.9,8.2,20.9,23.7
		c1,15.5-11,22-15.7,24.7c-4.7,2.8-20,13.9-27.5,22.7c-7.5,8.8-27.4,30.3-29.9,33.4s-2.5,6.7,2,10.1c4.5,3.4,6.9,4.8,6.7,9.4
		c-0.1,4.5-4.2,7.6-6.9,10.5s-11.6,10.8-19.3,12.6c-7.8,1.8-9.5,1.3-12.7-0.4c-3.2-1.8-6.6-3.8-6.6-3.8s-10.7-6.3-25-14.7"/>
	<path class="st2" d="M170.4,146.1c-21.5,30.3-42.6,60-44.5,62.5c-4,5.3-4.7,16.1-1.2,21.4c3.5,5.3,8.2,6,14.3,5.4
		c6.1-0.6,11.7-0.7,15.4,0.4c3.7,1.2,9.2,3.1,9.5,13.9c0.3,10.8-11.4,13.9-18.1,12c-6.7-1.9-28.5-10-35.6-13.2
		c-7-3.2-18.1-14.2-20.9-17.7c-2.8-3.5-7.9-12.4-10-22.2c-2-9.8-19.2-90-20-96.9c-0.9-6.9,1.3-18.3,15.1-24.9
		c13.8-6.6,41.1-16.5,52.5-18.9c11.4-2.3,41.6-6.4,48.1-7.5c6.6-1,15.7-5.3,20.3-9.8s9.2-9.1,19.6-6.3c10.4,2.8,15.1,4,19.3,5.1
		c5.6,1.5,17.1-0.2,20.9-4.2c5.1-5.4,11.3-13.5,19.9-13.5c8.6,0,15.1,5.6,19,12.3c4,6.7,9.7,12.9,12.1,14.8s6.4,4.1,10.5,5.6
		c0.9,0.3,6.3,2.4,14.5,5.7"/>
	<path class="st3" d="M362.8,257.9c-27.1-16-67.3-39.7-71.9-43c-7-5-7.8-15.7-7.6-25.8c0.1-10.1,3.7-30-7-41.4
		c-10.7-11.4-32.3-32.8-35.1-36.1c-2.8-3.4-4.2-7.9,0.4-10.2c4.7-2.3,16.7-7.2,20.5-9.2c3.8-2,6.9-4.5,6.6-6.7
		c-0.3-2.2-3.8-6.6-10.2-8c-6.4-1.5-29.4-2.6-33.1-2.3c-3.7,0.3-6.7,3.1-7.9,4.8c-0.6,0.9-24,33.9-46.9,66.2"/>
</g>
<g id="コーナー番号">
	<g>
		<g>
			<circle class="st4" cx="267.9" cy="218.1" r="8.5"/>
			<circle class="st5" cx="267.9" cy="218.1" r="8.5"/>
		</g>
		<g>
			<path class="st6" d="M266.2,222v-1.6h1v-4.5h-0.9v-1.6h2.6v6.1h0.9v1.6H266.2z"/>
		</g>
	</g>
	<g>
		<g>
			<circle class="st4" cx="298.7" cy="147.4" r="8.5"/>
			<circle class="st5" cx="298.7" cy="147.4" r="8.5"/>
		</g>
		<g>
			<path class="st6" d="M296.6,151.3v-2.6c0-0.6,0.1-1,0.6-1.2l1.9-0.8v-1.6L299,145h-0.5l-0.1,0.1v1.1h-1.7v-1.3
				c0-0.8,0.4-1.1,0.8-1.3h2.5c0.5,0.2,0.8,0.5,0.8,1.3v1.9c0,0.6-0.1,0.9-0.6,1.2l-1.9,0.8v0.9h2.4v1.6H296.6z"/>
		</g>
	</g>
	<g>
		<g>
			<circle class="st4" cx="221.2" cy="110" r="8.5"/>
			<circle class="st5" cx="221.2" cy="110" r="8.5"/>
		</g>
		<g>
			<path class="st6" d="M219.9,113.9c-0.5-0.2-0.8-0.5-0.8-1.3v-1h1.7v0.8l0.1,0.1h0.5l0.1-0.1v-1.6l-0.1-0.1h-1v-1.3h1l0.1-0.1
				v-1.5l-0.1-0.1h-0.5l-0.1,0.1v0.8h-1.7v-1c0-0.8,0.4-1.1,0.8-1.3h2.5c0.5,0.2,0.8,0.5,0.8,1.3v1.3c0,0.6-0.2,0.9-0.6,1.2
				c0.4,0.3,0.6,0.6,0.6,1.2v1.4c0,0.8-0.4,1.1-0.8,1.3H219.9z"/>
		</g>
	</g>
	<g>
		<g>
			<circle class="st4" cx="285.8" cy="77.9" r="8.5"/>
			<circle class="st5" cx="285.8" cy="77.9" r="8.5"/>
		</g>
		<g>
			<path class="st6" d="M287.4,80.3v1.5h-1.7v-1.5h-2.2v-1.5l1.6-4.7h1.7l-1.6,4.6h0.5v-0.4l0.4-1h1.3v1.4h0.5v1.6H287.4z"/>
		</g>
	</g>
	<g>
		<g>
			<circle class="st4" cx="211.6" cy="62.6" r="8.5"/>
			<circle class="st5" cx="211.6" cy="62.6" r="8.5"/>
		</g>
		<g>
			<path class="st6" d="M210.4,66.5c-0.5-0.2-0.8-0.5-0.8-1.3v-1h1.6V65l0.1,0.1h0.6L212,65v-2.1l-0.1-0.1h-0.6l-0.1,0.1v0.4h-1.6
				v-4.5h4v1.5h-2.4V62l0.4-0.4h1.3c0.5,0.2,0.8,0.5,0.8,1.3v2.4c0,0.8-0.4,1.1-0.8,1.3H210.4z"/>
		</g>
	</g>
	<g>
		<g>
			<circle class="st4" cx="105.7" cy="211.2" r="8.5"/>
			<circle class="st5" cx="105.7" cy="211.2" r="8.5"/>
		</g>
		<g>
			<path class="st6" d="M107,215.1h-2.5c-0.5-0.2-0.8-0.5-0.8-1.3v-5.1c0-0.8,0.4-1.1,0.8-1.3h2.5c0.5,0.2,0.8,0.5,0.8,1.3v1h-1.7
				v-0.8l-0.1-0.1h-0.5l-0.1,0.1v1.8l0.3-0.3h1.3c0.5,0.2,0.8,0.5,0.8,1.3v2.2C107.8,214.6,107.4,214.9,107,215.1z M106,213.7
				l0.1-0.1v-1.8l-0.1-0.1h-0.5l-0.1,0.1v1.8l0.1,0.1H106z"/>
		</g>
	</g>
	<g>
		<g>
			<circle class="st4" cx="181.7" cy="259.2" r="8.5"/>
			<circle class="st5" cx="181.7" cy="259.2" r="8.5"/>
		</g>
		<g>
			<path class="st6" d="M179.9,263.1l2.1-6.2h-2.4v-1.5h4.1v1.2l-2.1,6.5H179.9z"/>
		</g>
	</g>
	<g>
		<g>
			<circle class="st4" cx="77.7" cy="246.1" r="8.5"/>
			<circle class="st5" cx="77.7" cy="246.1" r="8.5"/>
		</g>
		<g>
			<path class="st6" d="M76.4,250c-0.5-0.2-0.8-0.5-0.8-1.3v-1.4c0-0.6,0.2-0.9,0.6-1.2c-0.4-0.3-0.6-0.6-0.6-1.2v-1.3
				c0-0.8,0.4-1.1,0.8-1.3h2.5c0.5,0.2,0.8,0.5,0.8,1.3v1.3c0,0.6-0.2,0.9-0.6,1.2c0.4,0.3,0.6,0.6,0.6,1.2v1.4
				c0,0.8-0.4,1.1-0.8,1.3H76.4z M77.3,245.4l0.1,0.1H78l0.1-0.1v-1.5l-0.1-0.1h-0.5l-0.1,0.1V245.4z M78.1,248.5v-1.6l-0.1-0.1
				h-0.5l-0.1,0.1v1.6l0.1,0.1H78L78.1,248.5z"/>
		</g>
	</g>
	<g>
		<g>
			<circle class="st4" cx="40" cy="100.6" r="8.5"/>
			<circle class="st5" cx="40" cy="100.6" r="8.5"/>
		</g>
		<g>
			<path class="st6" d="M38.8,104.5c-0.5-0.2-0.8-0.5-0.8-1.3v-1h1.7v0.8l0.1,0.1h0.5l0.1-0.1v-1.8l-0.3,0.3h-1.3
				c-0.5-0.2-0.8-0.5-0.8-1.3v-2.2c0-0.8,0.4-1.1,0.8-1.3h2.5c0.5,0.2,0.8,0.5,0.8,1.3v5.1c0,0.8-0.4,1.1-0.8,1.3H38.8z M40.4,100.2
				v-1.8l-0.1-0.1h-0.5l-0.1,0.1v1.8l0.1,0.1h0.5L40.4,100.2z"/>
		</g>
	</g>
	<g>
		<g>
			<circle class="st4" cx="187.3" cy="75.4" r="8.5"/>
			<circle class="st5" cx="187.3" cy="75.4" r="8.5"/>
		</g>
		<g>
			<path class="st6" d="M183.3,79.3v-1.6h1v-4.5h-0.9v-1.6h2.6v6.1h0.9v1.6H183.3z"/>
			<path class="st6" d="M190.9,79.3h-2.5c-0.5-0.2-0.8-0.5-0.8-1.3v-5.1c0-0.8,0.4-1.1,0.8-1.3h2.5c0.5,0.2,0.8,0.5,0.8,1.3V78
				C191.8,78.8,191.4,79.1,190.9,79.3z M190.1,73.1L190,73h-0.5l-0.1,0.1v4.7l0.1,0.1h0.5l0.1-0.1V73.1z"/>
		</g>
	</g>
	<g>
		<g>
			<circle class="st4" cx="205.7" cy="24.6" r="8.5"/>
			<circle class="st5" cx="205.7" cy="24.6" r="8.5"/>
		</g>
		<g>
			<path class="st6" d="M201.7,28.5v-1.6h1v-4.5h-0.9v-1.6h2.6v6.1h0.9v1.6H201.7z"/>
			<path class="st6" d="M206.4,28.5v-1.6h1v-4.5h-0.9v-1.6h2.6v6.1h0.9v1.6H206.4z"/>
		</g>
	</g>
	<g>
		<g>
			<circle class="st4" cx="241.5" cy="31" r="8.5"/>
			<circle class="st5" cx="241.5" cy="31" r="8.5"/>
		</g>
		<g>
			<path class="st6" d="M237.5,34.9v-1.6h1v-4.5h-0.9v-1.6h2.6v6.1h0.9v1.6H237.5z"/>
			<path class="st6" d="M241.8,34.9v-2.6c0-0.6,0.1-1,0.6-1.2l1.9-0.8v-1.6l-0.1-0.1h-0.5l-0.1,0.1v1.1h-1.7v-1.3
				c0-0.8,0.4-1.1,0.8-1.3h2.5c0.5,0.2,0.8,0.5,0.8,1.3v1.9c0,0.6-0.1,0.9-0.6,1.2l-1.9,0.8v0.9h2.4v1.6H241.8z"/>
		</g>
	</g>
	<g>
		<g>
			<circle class="st4" cx="273.6" cy="12.9" r="8.5"/>
			<circle class="st5" cx="273.6" cy="12.9" r="8.5"/>
		</g>
		<g>
			<path class="st6" d="M269.6,16.8v-1.6h1v-4.5h-0.9V9.1h2.6v6.1h0.9v1.6H269.6z"/>
			<path class="st6" d="M274.7,16.8c-0.5-0.2-0.8-0.5-0.8-1.3v-1h1.7v0.8l0.1,0.1h0.5l0.1-0.1v-1.6l-0.1-0.1h-1v-1.3h1l0.1-0.1v-1.5
				l-0.1-0.1h-0.5l-0.1,0.1v0.8h-1.7v-1c0-0.8,0.4-1.1,0.8-1.3h2.5c0.5,0.2,0.8,0.5,0.8,1.3v1.3c0,0.6-0.2,0.9-0.6,1.2
				c0.4,0.3,0.6,0.6,0.6,1.2v1.4c0,0.8-0.4,1.1-0.8,1.3H274.7z"/>
		</g>
	</g>
	<g>
		<g>
			<circle class="st4" cx="319.7" cy="43.4" r="8.5"/>
			<circle class="st5" cx="319.7" cy="43.4" r="8.5"/>
		</g>
		<g>
			<path class="st6" d="M315.7,47.3v-1.6h1v-4.5h-0.9v-1.6h2.6v6.1h0.9v1.6H315.7z"/>
			<path class="st6" d="M323.7,45.8v1.5H322v-1.5h-2.2v-1.5l1.6-4.7h1.7l-1.6,4.6h0.5v-0.4l0.4-1h1.3v1.4h0.5v1.6H323.7z"/>
		</g>
	</g>
	<g>
		<g>
			<circle class="st4" cx="515.7" cy="147.5" r="8.5"/>
			<circle class="st5" cx="515.7" cy="147.5" r="8.5"/>
		</g>
		<g>
			<path class="st6" d="M511.6,151.4v-1.6h1v-4.5h-0.9v-1.6h2.6v6.1h0.9v1.6H511.6z"/>
			<path class="st6" d="M516.8,151.4c-0.5-0.2-0.8-0.5-0.8-1.3v-1h1.6v0.8l0.1,0.1h0.6l0.1-0.1v-2.1l-0.1-0.1h-0.6l-0.1,0.1v0.4
				h-1.6v-4.5h4v1.5h-2.4v1.6l0.4-0.4h1.3c0.5,0.2,0.8,0.5,0.8,1.3v2.4c0,0.8-0.4,1.1-0.8,1.3H516.8z"/>
		</g>
	</g>
	<g>
		<g>
			<circle class="st4" cx="405.5" cy="232" r="8.5"/>
			<circle class="st5" cx="405.5" cy="232" r="8.5"/>
		</g>
		<g>
			<path class="st6" d="M401.5,235.9v-1.6h1v-4.5h-0.9v-1.6h2.6v6.1h0.9v1.6H401.5z"/>
			<path class="st6" d="M409.1,235.9h-2.5c-0.5-0.2-0.8-0.5-0.8-1.3v-5.1c0-0.8,0.4-1.1,0.8-1.3h2.5c0.5,0.2,0.8,0.5,0.8,1.3v1h-1.7
				v-0.8l-0.1-0.1h-0.5l-0.1,0.1v1.8l0.3-0.3h1.3c0.5,0.2,0.8,0.5,0.8,1.3v2.2C409.9,235.4,409.6,235.7,409.1,235.9z M408.1,234.5
				l0.1-0.1v-1.8l-0.1-0.1h-0.5l-0.1,0.1v1.8l0.1,0.1H408.1z"/>
		</g>
	</g>
	<g>
		<g>
			<circle class="st4" cx="452.2" cy="257.6" r="8.5"/>
			<circle class="st5" cx="452.2" cy="257.6" r="8.5"/>
		</g>
		<g>
			<path class="st6" d="M448.2,261.5v-1.6h1v-4.5h-0.9v-1.6h2.6v6.1h0.9v1.6H448.2z"/>
			<path class="st6" d="M452.8,261.5l2.1-6.2h-2.4v-1.5h4.1v1.2l-2.1,6.5H452.8z"/>
		</g>
	</g>
	<g>
		<g>
			<circle class="st4" cx="396.8" cy="297.1" r="8.5"/>
			<circle class="st5" cx="396.8" cy="297.1" r="8.5"/>
		</g>
		<g>
			<path class="st6" d="M392.8,301v-1.6h1V295h-0.9v-1.6h2.6v6.1h0.9v1.6H392.8z"/>
			<path class="st6" d="M397.9,301c-0.5-0.2-0.8-0.5-0.8-1.3v-1.4c0-0.6,0.2-0.9,0.6-1.2c-0.4-0.3-0.6-0.6-0.6-1.2v-1.3
				c0-0.8,0.4-1.1,0.8-1.3h2.5c0.5,0.2,0.8,0.5,0.8,1.3v1.3c0,0.6-0.2,0.9-0.6,1.2c0.4,0.3,0.6,0.6,0.6,1.2v1.4
				c0,0.8-0.4,1.1-0.8,1.3H397.9z M398.8,296.4l0.1,0.1h0.5l0.1-0.1v-1.5l-0.1-0.1h-0.5l-0.1,0.1V296.4z M399.5,299.5v-1.6l-0.1-0.1
				h-0.5l-0.1,0.1v1.6l0.1,0.1h0.5L399.5,299.5z"/>
		</g>
	</g>
</g>



</svg>
