<?xml version="1.0" encoding="utf-8"?>
<!-- Generator: Adobe Illustrator 26.5.0, SVG Export Plug-In . SVG Version: 6.00 Build 0)  -->
<svg version="1.1" xmlns="http://www.w3.org/2000/svg" xmlns:xlink="http://www.w3.org/1999/xlink" x="0px" y="0px"
	 viewBox="0.0 0.0 559.6 436.6" style="enable-background:new 0 0 559.6 447;" xml:space="preserve">
<style type="text/css">
	.st0{fill:none;stroke:#646464;stroke-width:5.876;stroke-linecap:round;stroke-linejoin:round;stroke-miterlimit:10;}
	.st1{fill:#FFFFFF;}
	.st2{fill:none;stroke:#646464;stroke-width:0.294;stroke-miterlimit:10;}
	.st3{fill:#646464;}
	.st4{fill:none;stroke:#F4442E;stroke-width:2.350;stroke-miterlimit:10;}
	.st5{fill:none;stroke:#54C6EB;stroke-width:2.350;stroke-miterlimit:10;}
	.st6{fill:none;stroke:#FFD449;stroke-width:2.350;stroke-miterlimit:10;}
	.st7{fill:none;stroke:#09BC8A;stroke-width:1.175;stroke-miterlimit:10;}
	.st8{fill:#09BC8A;}
	.st9{clip-path:url(#SVGID_00000145053733133686082170000015471786666477875603_);}
	.st10{fill:#F4442E;}
	.st11{fill:#54C6EB;}
	.st12{fill:#FFD449;}
	.st13{fill:none;stroke:#FFD449;stroke-width:1.175;stroke-miterlimit:10;}
	.st14{fill:none;stroke:#54C6EB;stroke-width:1.175;stroke-miterlimit:10;}
	.st15{fill:none;stroke:#F4442E;stroke-width:1.175;stroke-miterlimit:10;}
	.st16{fill:#FF3380;}
	.st17{fill:none;stroke:#646464;stroke-width:1.175;stroke-miterlimit:10;}
	.st18{fill:none;stroke:#FF3380;stroke-width:0.823;stroke-miterlimit:10;}
	.st19{fill:none;stroke:#09BC8A;stroke-width:0.823;stroke-miterlimit:10;}
</style>
<g id="コース">
	<path class="st0" d="M485.2,351.7c0,0-429.4,0-444.3,0c-9.2,0-13-5.7-6.1-12.3c5-4.8,15.8-17.3,17.8-19.8c2-2.4,4-6.1,1.1-13.8
		c-2.9-7.7-9.2-25.2-10.8-29.4c-1.5-4.2-1.5-12.5-0.4-21.7c1.1-9.2,31.2-209,32.3-214.5s7.2-7,12.7-7s10.8,2.6,14,6.8
		c3.3,4.2,21.7,26.3,31.6,36.9s16.9,17.6,22.6,21.3c5.7,3.7,9.9,7,19.1,10.3c9.2,3.3,17.4,6.7,22,15.4c2.6,5,0.9,18,0.7,26.8
		s-3.3,20.4,13.4,33.1c16.7,12.7,55,40.5,59.3,44.1c9.7,8.3,2,16.5-10.8,16c-10.3-0.4-57.5-6.8-70.5-8.3c-13-1.5-43.9-5-54-5
		c-10.1,0-19.5,7.5-23,12.7c-3.5,5.3-10.1,13.6-11.2,15.8c-1.1,2.2-2.6,5.3,2.6,6.1c5.3,0.9,38.2,4.6,45,4.6c6.8,0,230,0,235.8,0
		s15.6-3.1,15.6-20.4s-11.9-46.1-38.2-54.2s-44.3-11.7-54.2-35.3c-8.3-20-2.2-36.7,0.7-42.6c2.9-5.9,14.5-32.5,17.1-38.9
		c2.6-6.4,9.9-12.5,13.6-14.9c3.7-2.4,12.3-7.7,20.9-0.7c8.6,7,14,16.7,17.3,22.8c3.3,6.1,144.9,238.6,146,240.6
		c1.1,2,2.2,7.5,0,10.8s-22.4,11.9-25.9,13.4C493.3,351.9,489.1,351.7,485.2,351.7z"/>
	<g>
		<g>
			
			<path class="st2" d="M489.4,426.6c0,1.6-1.3,2.8-2.8,2.8H117.8c-1.6,0-2.8-1.3-2.8-2.8v-24.9c0-1.6,1.3-2.8,2.8-2.8h368.8
				c1.6,0,2.8,1.3,2.8,2.8V426.6z"/>
		</g>
		<g>
			
			
			
			
			
			
			
		</g>
		
		<g>
			
			
			
			
			
			
			
		</g>
		
		<g>
			
			
			
			
			
			
			
		</g>
		
		<g>
			
			
			
			
			
			
			
		</g>
		<g>
			<g>
				<g>
					<g>
						
					</g>
					<g>
						
					</g>
					<g>
						
					</g>
					<g>
						
					</g>
				</g>
			</g>
		</g>
	</g>
	<g>
		
		
		
		
		
		
		
		
		
		
		
		
		
		
		
		
		
		
		
		
		
		
		
		
		
	</g>
	<g>
		<defs>
			<rect id="SVGID_1_" x="304.8" y="325.7" width="22.3" height="8.5"/>
		</defs>
		<clipPath id="SVGID_00000160167392251705775710000009804585467691050372_">
			<use xlink:href="#SVGID_1_"  style="overflow:visible;"/>
		</clipPath>
		<g style="clip-path:url(#SVGID_00000160167392251705775710000009804585467691050372_);">
			
			
			
		</g>
	</g>
</g>
<g id="セクター">
	<path class="st13" d="M307.8,117.3c2.9-5.9,14.5-32.5,17.1-38.9c2.6-6.4,9.9-12.5,13.6-14.9c3.7-2.4,12.3-7.7,20.9-0.7
		c8.6,7,14,16.7,17.3,22.8c3.3,6.1,144.9,238.6,146,240.6c1.1,2,2.2,7.5,0,10.8s-22.4,11.9-25.9,13.4c-3.5,1.5-7.7,1.3-11.6,1.3
		c0,0-65.7,0-146.7,0"/>
	<path class="st14" d="M151.3,94.9c1.5,1.3,3,2.4,4.3,3.2c5.7,3.7,9.9,7,19.1,10.3c9.2,3.3,17.4,6.7,22,15.4c2.6,5,0.9,18,0.7,26.8
		s-3.3,20.4,13.4,33.1c16.7,12.7,55,40.5,59.3,44.1c9.7,8.3,2,16.5-10.8,16c-10.3-0.4-57.5-6.8-70.5-8.3c-13-1.5-43.9-5-54-5
		c-10.1,0-19.5,7.5-23,12.7c-3.5,5.3-10.1,13.6-11.2,15.8c-1.1,2.2-2.6,5.3,2.6,6.1c5.3,0.9,38.2,4.6,45,4.6c6.8,0,230,0,235.8,0
		s15.6-3.1,15.6-20.4s-11.9-46.1-38.2-54.2s-44.3-11.7-54.2-35.3c-8.3-20-2.2-36.7,0.7-42.6"/>
	<path class="st15" d="M338.5,351.7c-125.9,0-288.5,0-297.6,0c-9.2,0-13-5.7-6.1-12.3c5-4.8,15.8-17.3,17.8-19.8
		c2-2.4,4-6.1,1.1-13.8c-2.9-7.7-9.2-25.2-10.8-29.4c-1.5-4.2-1.5-12.5-0.4-21.7c1.1-9.2,31.2-209,32.3-214.5s7.2-7,12.7-7
		s10.8,2.6,14,6.8c3.3,4.2,21.7,26.3,31.6,36.9c7.5,8,13.4,14,18.3,18"/>
</g>
<g id="コーナー番号">
	<g>
		
		<g>
			
		</g>
	</g>
	<g>
		
		<g>
			
		</g>
	</g>
	<g>
		
		<g>
			
		</g>
	</g>
	<g>
		
		<g>
			
		</g>
	</g>
	<g>
		
		<g>
			
		</g>
	</g>
	<g>
		
		<g>
			
		</g>
	</g>
	<g>
		
		<g>
			
		</g>
	</g>
	<g>
		
		<g>
			
		</g>
	</g>
	<g>
		
		<g>
			
		</g>
	</g>
	<g>
		
		<g>
			
			
		</g>
	</g>
	<g>
		
		<g>
			
			
		</g>
	</g>
	<g>
		
		<g>
			
			
		</g>
	</g>
	<g>
		
		<g>
			
			
		</g>
	</g>
	<g>
		
		<g>
			
			
		</g>
	</g>
	<g>
		
		<g>
			
			
		</g>
	</g>
</g>


</svg>
