<?xml version="1.0" encoding="utf-8"?>
<!-- Generator: Adobe Illustrator 26.5.0, SVG Export Plug-In . SVG Version: 6.00 Build 0)  -->
<svg version="1.1" xmlns="http://www.w3.org/2000/svg" xmlns:xlink="http://www.w3.org/1999/xlink" x="0px" y="0px"
	 viewBox="0.0 0.0 550.0 373.1" style="enable-background:new 0 0 550 443.7;" xml:space="preserve">
<style type="text/css">
	.st0{fill:none;stroke:#646464;stroke-width:5.775;stroke-miterlimit:10;}
	.st1{fill:none;stroke:#F4442E;stroke-width:1.155;stroke-miterlimit:10;}
	.st2{fill:none;stroke:#FFD449;stroke-width:1.155;stroke-miterlimit:10;}
	.st3{fill:none;stroke:#54C6EB;stroke-width:1.155;stroke-miterlimit:10;}
	.st4{fill:none;stroke:#FFFFFF;stroke-width:0.866;}
	.st5{fill:#646464;}
	.st6{fill:#FFFFFF;}
	.st7{fill:#09BC8A;}
	.st8{fill:none;stroke:#646464;stroke-width:1.155;stroke-miterlimit:10;}
	.st9{fill:none;stroke:#09BC8A;stroke-width:0.809;stroke-miterlimit:10;}
	.st10{fill:none;stroke:#09BC8A;stroke-width:0.900;stroke-miterlimit:10;}
	.st11{fill:#FF3380;}
	.st12{fill:none;stroke:#FF3380;stroke-width:0.809;stroke-miterlimit:10;}
	.st13{fill:none;stroke:#646464;stroke-width:0.289;stroke-miterlimit:10;}
	.st14{fill:none;stroke:#F4442E;stroke-width:2.310;stroke-miterlimit:10;}
	.st15{fill:none;stroke:#54C6EB;stroke-width:2.310;stroke-miterlimit:10;}
	.st16{fill:none;stroke:#FFD449;stroke-width:2.310;stroke-miterlimit:10;}
	.st17{fill:none;stroke:#09BC8A;stroke-width:1.155;stroke-miterlimit:10;}
	.st18{clip-path:url(#SVGID_00000176724287544265937040000014874688290497559725_);}
	.st19{fill:#F4442E;}
	.st20{fill:#54C6EB;}
	.st21{fill:#FFD449;}
</style>
<g id="コース">
	<path class="st0" d="M40.4,221.2c0,0,137.1,109.6,143.1,114.7c6,5.1,17.2,12.1,21.6,8.9c4.5-3.2-11.1-39.8-12.4-45.5
		c-1.3-5.7-2.9-21,12.1-31.2s29.6-18.1,36.6-21.9c7-3.8,10.5-9.5,13.7-17.5c3.2-8,4.5-12.1,14.3-15.6c9.9-3.5,14.9-6.4,16.2-19.7
		c1.3-13.4,6.7-18.1,13.7-22.9s15.6-8.3,22.7-4.8c7.1,3.5,21.8,10.6,23.8,11.5c7.5,3.6,15.1-1.8,23.5-11.7c7.8-9.3,8.2-13,16.7-13.6
		s11.9,4.4,14,8.2c2.2,3.8,4.2,6.6,9.1,5.7c4.9-0.9,40.2-8.1,42.7-8.6c4.1-0.8,6.3-2.6,8.8-5.5s56.3-69.3,59-72.3
		c3.7-4,1.6-10.9-3.2-9.3c-3.4,1.1-69.1,21.3-83.1,24.7c-7.3,1.8-25.3,6.1-44.3,10c-17.2,3.5-35.2,6.6-46.8,8.8
		c-23.8,4.6-66.4,9.9-86.3,11.3c-3.2,0.2-39.4,4.3-41.4,4.6c-2,0.3-4.5,1.4-2.7,4.5c1.8,3.1,12.1,15.9,16,21.5
		c4,5.6,10.1,14.5,12.2,18.1c2.1,3.6,1.6,9.8-3.8,10.2c-5.5,0.4-15.1-0.4-17.3-1.2s-4.6-2.1-5.4-6.6c-0.8-4.5-2-7.1-3.8-9.4
		c-1.9-2.3-8.6-10.6-11-12.4c-2.4-1.8-6.1-2.4-8.1-2.4s-5.5,0-6.9,0.3c-1.4,0.3-2.7,2.1-1.8,5.2s22.2,38.3,23.3,41.3
		c1.1,3,1.1,10.2,1.1,12.2s-5.3,13.9-6.4,15.9c-1.1,2-2.7,2.5-4.4,3.4c-1.6,0.9-13.4,6.5-15.7,7.6c-2.3,1.1-8,2.2-14.9,1
		c-6.9-1.2-19-3.1-25.6-15.4c-3.5-6.6-24.9-34.9-26.8-37.2c-1.9-2.3-4.3-4.4-9.7-2.7c-5.4,1.6-62.1,26.1-65,27.7s-3.5,4.8-1.8,6.6
		C38,219.3,40.4,221.2,40.4,221.2z"/>
</g>
<g id="セクター">
	<path class="st1" d="M55.3,233.1c35.7,28.6,123.4,98.7,128.2,102.8c6,5.1,17.2,12.1,21.6,8.9c4.5-3.2-11.1-39.8-12.4-45.5
		c-1.3-5.7-2.9-21,12.1-31.2s29.6-18.1,36.6-21.9c7-3.8,10.5-9.5,13.7-17.5c3.2-8,4.5-12.1,14.3-15.6c9.9-3.5,14.9-6.4,16.2-19.7
		c1.3-13.4,6.7-18.1,13.7-22.9s15.6-8.3,22.7-4.8c3.7,1.8,9.3,4.5,14.2,6.9"/>
	<path class="st2" d="M227.2,154.4c0.3,0.4,0.5,0.8,0.8,1.1c4,5.6,10.1,14.5,12.2,18.1c2.1,3.6,1.6,9.8-3.8,10.2
		c-5.5,0.4-15.1-0.4-17.3-1.2s-4.6-2.1-5.4-6.6c-0.8-4.5-2-7.1-3.8-9.4c-1.9-2.3-8.6-10.6-11-12.4c-2.4-1.8-6.1-2.4-8.1-2.4
		s-5.5,0-6.9,0.3c-1.4,0.3-2.7,2.1-1.8,5.2s22.2,38.3,23.3,41.3c1.1,3,1.1,10.2,1.1,12.2s-5.3,13.9-6.4,15.9c-1.1,2-2.7,2.5-4.4,3.4
		c-1.6,0.9-13.4,6.5-15.7,7.6c-2.3,1.1-8,2.2-14.9,1c-6.9-1.2-19-3.1-25.6-15.4c-3.5-6.6-24.9-34.9-26.8-37.2
		c-1.9-2.3-4.3-4.4-9.7-2.7c-5.4,1.6-62.1,26.1-65,27.7s-3.5,4.8-1.8,6.6c1.8,1.8,4.2,3.6,4.2,3.6s5.7,4.6,14.9,12"/>
	<path class="st3" d="M336.2,172.6c4.6,2.2,8.6,4.1,9.6,4.6c7.5,3.6,15.1-1.8,23.5-11.7c7.8-9.3,8.2-13,16.7-13.6s11.9,4.4,14,8.2
		c2.2,3.8,4.2,6.6,9.1,5.7c4.9-0.9,40.2-8.1,42.7-8.6c4.1-0.8,6.3-2.6,8.8-5.5s56.3-69.3,59-72.3c3.7-4,1.6-10.9-3.2-9.3
		c-3.4,1.1-69.1,21.3-83.1,24.7c-7.3,1.8-25.3,6.1-44.3,10c-17.2,3.5-35.2,6.6-46.8,8.8c-23.8,4.6-66.4,9.9-86.3,11.3
		c-3.2,0.2-39.4,4.3-41.4,4.6c-2,0.3-4.5,1.4-2.7,4.5c1.6,2.9,10.9,14.4,15.2,20.4"/>
</g>
<g id="コーナー番号">
	<g>
		<g>
			
			
		</g>
		<g>
			
		</g>
	</g>
	<g>
		<g>
			
			
		</g>
		<g>
			
		</g>
	</g>
	<g>
		<g>
			
			
		</g>
		<g>
			
		</g>
	</g>
	<g>
		<g>
			
			
		</g>
		<g>
			
		</g>
	</g>
	<g>
		<g>
			
			
		</g>
		<g>
			
		</g>
	</g>
	<g>
		<g>
			
			
		</g>
		<g>
			
		</g>
	</g>
	<g>
		<g>
			
			
		</g>
		<g>
			
		</g>
	</g>
	<g>
		<g>
			
			
		</g>
		<g>
			
		</g>
	</g>
	<g>
		<g>
			
			
		</g>
		<g>
			
		</g>
	</g>
	<g>
		<g>
			
			
		</g>
		<g>
			
			
		</g>
	</g>
	<g>
		<g>
			
			
		</g>
		<g>
			
			
		</g>
	</g>
	<g>
		<g>
			
			
		</g>
		<g>
			
			
		</g>
	</g>
	<g>
		<g>
			
			
		</g>
		<g>
			
			
		</g>
	</g>
	<g>
		<g>
			
			
		</g>
		<g>
			
			
		</g>
	</g>
	<g>
		<g>
			
			
		</g>
		<g>
			
			
		</g>
	</g>
	<g>
		<g>
			
			
		</g>
		<g>
			
			
		</g>
	</g>
	<g>
		<g>
			
			
		</g>
		<g>
			
			
		</g>
	</g>
	<g>
		<g>
			
			
		</g>
		<g>
			
			
		</g>
	</g>
	<g>
		<g>
			
			
		</g>
		<g>
			
			
		</g>
	</g>
	<g>
		<g>
			
			
		</g>
		<g>
			
			
		</g>
	</g>
</g>



</svg>
