<?xml version="1.0" encoding="utf-8"?>
<!-- Generator: Adobe Illustrator 27.2.0, SVG Export Plug-In . SVG Version: 6.00 Build 0)  -->
<svg version="1.1" xmlns="http://www.w3.org/2000/svg" xmlns:xlink="http://www.w3.org/1999/xlink" x="0px" y="0px"
	 viewBox="0 0 558.9 273" style="enable-background:new 0 0 558.9 299.3;" xml:space="preserve">
<style type="text/css">
	.st0{fill:none;stroke:#646464;stroke-width:14.1732;stroke-linecap:round;stroke-linejoin:round;stroke-miterlimit:10;}
	.st1{fill:none;stroke:#FFD449;stroke-width:2.8346;stroke-miterlimit:10;}
	.st2{fill:none;stroke:#54C6EB;stroke-width:2.8346;stroke-miterlimit:10;}
	.st3{fill:none;stroke:#F4442E;stroke-width:2.8346;stroke-miterlimit:10;}
	.st4{fill:none;stroke:#FFFFFF;stroke-width:2.126;}
	.st5{fill:#646464;}
	.st6{fill:#FFFFFF;}
	.st7{fill:none;stroke:#646464;stroke-width:2.8346;stroke-miterlimit:10;}
	.st8{fill:#FF3380;}
	.st9{fill:none;stroke:#FF3380;stroke-width:1.9843;stroke-miterlimit:10;}
	.st10{fill:#09BC8A;}
	.st11{fill:none;stroke:#09BC8A;stroke-width:1.9843;stroke-miterlimit:10;}
	.st12{fill:none;stroke:#09BC8A;stroke-width:2.2097;stroke-miterlimit:10;}
	.st13{fill:none;stroke:#646464;stroke-width:0.7087;stroke-miterlimit:10;}
	.st14{fill:none;stroke:#F4442E;stroke-width:5.6693;stroke-miterlimit:10;}
	.st15{fill:none;stroke:#54C6EB;stroke-width:5.6693;stroke-miterlimit:10;}
	.st16{fill:none;stroke:#FFD449;stroke-width:5.6693;stroke-miterlimit:10;}
	.st17{fill:none;stroke:#09BC8A;stroke-width:2.8346;stroke-miterlimit:10;}
	.st18{clip-path:url(#SVGID_00000161593034639522328540000003610139484255554493_);}
	.st19{fill:#F4442E;}
	.st20{fill:#54C6EB;}
	.st21{fill:#FFD449;}
</style>
<g id="コース">
	<path class="st0" d="M352.9,103.8c19.4,3.6,92.9,19.7,105.7,23.3c12.8,3.6,24.6,10.5,34.5,16.1c9.8,5.6,12.2,7.5,14.2,8.7
		s4.9,1.9,7.8-1.2s3.9-4,6.1-6c2.3-2.2,7.2-2.1,10.1,0.7c2.7,2.6,2.7,9.4-0.2,13.3c-3.9,5.3-15.3,19-25.2,25.8
		c-9.9,6.8-36.4,18.2-40.1,19.7c-3.7,1.5-6.3,0.5-8.5-1.8s-3.7-3.8-4.9-4.7c-1.2-0.9-3.1-1.8-7-1c-3.9,0.8-26,7-29,7.7
		s-8.1,4.1-11,5.9c-2.9,1.8-7.7,4.2-16.3,4.2s-20-5.9-28.3-9.8c-8.3-4-14.9-7.5-17.6-8.5c-2.8-1-7.2-1.7-9.3-0.3c-2,1.4-4,4.4-4,8.2
		s-1.1,6.3-5.4,9.3c-4.3,3-12.7,4.2-23.1,1.6c-10.4-2.6-49.3-17.1-62.7-23.9c-13.4-6.7-38.3-24.3-51.9-35.8
		c-13.5-11.5-13.5-11.4-14.5-12.2c-1-0.8-2.7-2.6-0.8-6.1c1.8-3.4,4-10.1-1.2-15.4c-5.1-5.3-25.5-22.5-36.1-30.1
		S96.9,63.5,67.7,56.9c-19.1-4.4-24.1-5.2-27-5.8c-6.7-1.3-6.7-10.7,2.9-9.1c5.6,0.9,15.8,4.9,18.1,5.7c2.3,0.8,7.2,1.3,17.3,1.4
		c16.5,0.2,65.9,2.3,72.5,2.6c6.6,0.3,16.1,1.5,28.8,4.5c12.6,3,153.2,33.9,157.2,35s5.2,0.4,5.3,5c0.1,4.6,0.9,5.8,5.2,6.6
		C352.1,103.6,352.9,103.8,352.9,103.8z"/>
</g>
<g id="セクター">
	<path class="st1" d="M86.5,63c-6-2.5-12.3-4.6-18.8-6.1c-19.1-4.4-24.1-5.2-27-5.8c-6.7-1.3-6.7-10.7,2.9-9.1
		c5.6,0.9,15.8,4.9,18.1,5.7c2.3,0.8,7.2,1.3,17.3,1.4c16.5,0.2,65.9,2.3,72.5,2.6c6.6,0.3,16.1,1.5,28.8,4.5
		c12.6,3,153.2,33.9,157.2,35s5.2,0.4,5.3,5c0.1,4.6,0.9,5.8,5.2,6.6c4.3,0.8,5.1,1,5.1,1c16.3,3,71.2,15,95.7,20.8"/>
	<path class="st2" d="M347.7,198.2c-2-1-3.5-1.7-4.6-2.1c-2.8-1-7.2-1.7-9.3-0.3c-2,1.4-4,4.4-4,8.2s-1.1,6.3-5.4,9.3
		c-4.3,3-12.7,4.2-23.1,1.6c-10.4-2.6-49.3-17.1-62.7-23.9c-13.4-6.7-38.3-24.3-51.9-35.8c-13.5-11.5-13.5-11.4-14.5-12.2
		c-1-0.8-2.7-2.6-0.8-6.1c1.8-3.4,4-10.1-1.2-15.4c-5.1-5.3-25.5-22.5-36.1-30.1c-8.3-6-26.4-19.5-47.7-28.4"/>
	<path class="st3" d="M448.6,124.6c4.5,1.1,8,1.9,10,2.5c12.8,3.6,24.6,10.5,34.5,16.1c9.8,5.6,12.2,7.5,14.2,8.7s4.9,1.9,7.8-1.2
		s3.9-4,6.1-6c2.3-2.2,7.2-2.1,10.1,0.7c2.7,2.6,2.7,9.4-0.2,13.3c-3.9,5.3-15.3,19-25.2,25.8c-9.9,6.8-36.4,18.2-40.1,19.7
		c-3.7,1.5-6.3,0.5-8.5-1.8s-3.7-3.8-4.9-4.7c-1.2-0.9-3.1-1.8-7-1c-3.9,0.8-26,7-29,7.7s-8.1,4.1-11,5.9c-2.9,1.8-7.7,4.2-16.3,4.2
		s-20-5.9-28.3-9.8c-5.2-2.5-9.7-4.8-13.1-6.4"/>
</g>
<g id="コーナー番号">
	<g>
		<g>
			<circle class="st4" cx="494.2" cy="168.5" r="8.5"/>
			<circle class="st5" cx="494.2" cy="168.5" r="8.5"/>
		</g>
		<g>
			<path class="st6" d="M492.5,172.3v-1.6h1v-4.5h-0.9v-1.6h2.6v6.1h0.9v1.6H492.5z"/>
		</g>
	</g>
	<g>
		<g>
			<circle class="st4" cx="549.4" cy="134" r="8.5"/>
			<circle class="st5" cx="549.4" cy="134" r="8.5"/>
		</g>
		<g>
			<path class="st6" d="M547.3,137.9v-2.6c0-0.6,0.1-1,0.6-1.2l1.9-0.8v-1.6l-0.1-0.1h-0.5l-0.1,0.1v1.1h-1.7v-1.3
				c0-0.8,0.4-1.1,0.8-1.3h2.5c0.5,0.2,0.8,0.5,0.8,1.3v1.9c0,0.6-0.1,0.9-0.6,1.2l-1.9,0.8v0.9h2.4v1.6H547.3z"/>
		</g>
	</g>
	<g>
		<g>
			<circle class="st4" cx="458.6" cy="227.1" r="8.5"/>
			<circle class="st5" cx="458.6" cy="227.1" r="8.5"/>
		</g>
		<g>
			<path class="st6" d="M457.3,231c-0.5-0.2-0.8-0.5-0.8-1.3v-1h1.7v0.8l0.1,0.1h0.5l0.1-0.1v-1.6l-0.1-0.1h-1v-1.3h1l0.1-0.1v-1.5
				l-0.1-0.1h-0.5l-0.1,0.1v0.8h-1.7v-1c0-0.8,0.4-1.1,0.8-1.3h2.5c0.5,0.2,0.8,0.5,0.8,1.3v1.3c0,0.6-0.2,0.9-0.6,1.2
				c0.4,0.3,0.6,0.6,0.6,1.2v1.4c0,0.8-0.4,1.1-0.8,1.3H457.3z"/>
		</g>
	</g>
	<g>
		<g>
			<circle class="st4" cx="446.4" cy="176.5" r="8.5"/>
			<circle class="st5" cx="446.4" cy="176.5" r="8.5"/>
		</g>
		<g>
			<path class="st6" d="M448,178.9v1.5h-1.7v-1.5h-2.2v-1.5l1.6-4.7h1.7l-1.6,4.6h0.5v-0.4l0.4-1h1.3v1.4h0.5v1.6H448z"/>
		</g>
	</g>
	<g>
		<g>
			<circle class="st4" cx="388" cy="236.1" r="8.5"/>
			<circle class="st5" cx="388" cy="236.1" r="8.5"/>
		</g>
		<g>
			<path class="st6" d="M386.8,240c-0.5-0.2-0.8-0.5-0.8-1.3v-1h1.6v0.8l0.1,0.1h0.6l0.1-0.1v-2.1l-0.1-0.1h-0.6l-0.1,0.1v0.4h-1.6
				v-4.5h4v1.5h-2.4v1.6l0.4-0.4h1.3c0.5,0.2,0.8,0.5,0.8,1.3v2.4c0,0.8-0.4,1.1-0.8,1.3H386.8z"/>
		</g>
	</g>
	<g>
		<g>
			<circle class="st4" cx="326.2" cy="176.2" r="8.5"/>
			<circle class="st5" cx="326.2" cy="176.2" r="8.5"/>
		</g>
		<g>
			<path class="st6" d="M327.4,180.1H325c-0.5-0.2-0.8-0.5-0.8-1.3v-5.1c0-0.8,0.4-1.1,0.8-1.3h2.5c0.5,0.2,0.8,0.5,0.8,1.3v1h-1.7
				v-0.8l-0.1-0.1h-0.5l-0.1,0.1v1.8l0.3-0.3h1.3c0.5,0.2,0.8,0.5,0.8,1.3v2.2C328.3,179.6,327.9,179.9,327.4,180.1z M326.5,178.7
				l0.1-0.1v-1.8l-0.1-0.1h-0.5l-0.1,0.1v1.8l0.1,0.1H326.5z"/>
		</g>
	</g>
	<g>
		<g>
			<circle class="st4" cx="325.1" cy="235.2" r="8.5"/>
			<circle class="st5" cx="325.1" cy="235.2" r="8.5"/>
		</g>
		<g>
			<path class="st6" d="M323.2,239.1l2.1-6.2H323v-1.5h4.1v1.2l-2.1,6.5H323.2z"/>
		</g>
	</g>
	<g>
		<g>
			<circle class="st4" cx="153" cy="148.1" r="8.5"/>
			<circle class="st5" cx="153" cy="148.1" r="8.5"/>
		</g>
		<g>
			<path class="st6" d="M151.8,151.9c-0.5-0.2-0.8-0.5-0.8-1.3v-1.4c0-0.6,0.2-0.9,0.6-1.2c-0.4-0.3-0.6-0.6-0.6-1.2v-1.3
				c0-0.8,0.4-1.1,0.8-1.3h2.5c0.5,0.2,0.8,0.5,0.8,1.3v1.3c0,0.6-0.2,0.9-0.6,1.2c0.4,0.3,0.6,0.6,0.6,1.2v1.4
				c0,0.8-0.4,1.1-0.8,1.3H151.8z M152.6,147.3l0.1,0.1h0.5l0.1-0.1v-1.5l-0.1-0.1h-0.5l-0.1,0.1V147.3z M153.4,150.4v-1.6l-0.1-0.1
				h-0.5l-0.1,0.1v1.6l0.1,0.1h0.5L153.4,150.4z"/>
		</g>
	</g>
	<g>
		<g>
			<circle class="st4" cx="189.9" cy="116.6" r="8.5"/>
			<circle class="st5" cx="189.9" cy="116.6" r="8.5"/>
		</g>
		<g>
			<path class="st6" d="M188.6,120.5c-0.5-0.2-0.8-0.5-0.8-1.3v-1h1.7v0.8l0.1,0.1h0.5l0.1-0.1v-1.8l-0.3,0.3h-1.3
				c-0.5-0.2-0.8-0.5-0.8-1.3v-2.2c0-0.8,0.4-1.1,0.8-1.3h2.5c0.5,0.2,0.8,0.5,0.8,1.3v5.1c0,0.8-0.4,1.1-0.8,1.3H188.6z
				 M190.3,116.2v-1.8l-0.1-0.1h-0.5l-0.1,0.1v1.8l0.1,0.1h0.5L190.3,116.2z"/>
		</g>
	</g>
	<g>
		<g>
			<circle class="st4" cx="17.2" cy="39.1" r="8.5"/>
			<circle class="st5" cx="17.2" cy="39.1" r="8.5"/>
		</g>
		<g>
			<path class="st6" d="M13.1,43v-1.6h1v-4.5h-0.9v-1.6h2.6v6.1h0.9V43H13.1z"/>
			<path class="st6" d="M20.8,43h-2.5c-0.5-0.2-0.8-0.5-0.8-1.3v-5.1c0-0.8,0.4-1.1,0.8-1.3h2.5c0.5,0.2,0.8,0.5,0.8,1.3v5.1
				C21.6,42.5,21.2,42.8,20.8,43z M19.9,36.8l-0.1-0.1h-0.5l-0.1,0.1v4.7l0.1,0.1h0.5l0.1-0.1V36.8z"/>
		</g>
	</g>
	<g>
		<g>
			<circle class="st4" cx="72.7" cy="28.3" r="8.5"/>
			<circle class="st5" cx="72.7" cy="28.3" r="8.5"/>
		</g>
		<g>
			<path class="st6" d="M68.7,32.1v-1.6h1v-4.5h-0.9v-1.6h2.6v6.1h0.9v1.6H68.7z"/>
			<path class="st6" d="M73.4,32.1v-1.6h1v-4.5h-0.9v-1.6H76v6.1h0.9v1.6H73.4z"/>
		</g>
	</g>
	<g>
		<g>
			<circle class="st4" cx="163" cy="22.5" r="8.5"/>
			<circle class="st5" cx="163" cy="22.5" r="8.5"/>
		</g>
		<g>
			<path class="st6" d="M159,26.4v-1.6h1v-4.5h-0.9v-1.6h2.6v6.1h0.9v1.6H159z"/>
			<path class="st6" d="M163.3,26.4v-2.6c0-0.6,0.1-1,0.6-1.2l1.9-0.8v-1.6l-0.1-0.1h-0.5l-0.1,0.1v1.1h-1.7V20
				c0-0.8,0.4-1.1,0.8-1.3h2.5c0.5,0.2,0.8,0.5,0.8,1.3V22c0,0.6-0.1,0.9-0.6,1.2L165,24v0.9h2.4v1.6H163.3z"/>
		</g>
	</g>
	<g>
		<g>
			<circle class="st4" cx="353.3" cy="75.1" r="8.5"/>
			<circle class="st5" cx="353.3" cy="75.1" r="8.5"/>
		</g>
		<g>
			<path class="st6" d="M349.2,79v-1.6h1v-4.5h-0.9v-1.6h2.6v6.1h0.9V79H349.2z"/>
			<path class="st6" d="M354.4,79c-0.5-0.2-0.8-0.5-0.8-1.3v-1h1.7v0.8l0.1,0.1h0.5l0.1-0.1v-1.6l-0.1-0.1h-1v-1.3h1l0.1-0.1v-1.5
				l-0.1-0.1h-0.5l-0.1,0.1v0.8h-1.7v-1c0-0.8,0.4-1.1,0.8-1.3h2.5c0.5,0.2,0.8,0.5,0.8,1.3V74c0,0.6-0.2,0.9-0.6,1.2
				c0.4,0.3,0.6,0.6,0.6,1.2v1.4c0,0.8-0.4,1.1-0.8,1.3H354.4z"/>
		</g>
	</g>
	<g>
		<g>
			<circle class="st4" cx="330.2" cy="119.3" r="8.5"/>
			<circle class="st5" cx="330.2" cy="119.3" r="8.5"/>
		</g>
		<g>
			<path class="st6" d="M326.2,123.2v-1.6h1v-4.5h-0.9v-1.6h2.6v6.1h0.9v1.6H326.2z"/>
			<path class="st6" d="M334.2,121.7v1.5h-1.7v-1.5h-2.2v-1.5l1.6-4.7h1.7l-1.6,4.6h0.5v-0.4l0.4-1h1.3v1.4h0.5v1.6H334.2z"/>
		</g>
	</g>
</g>


<g id="アイコン">
	<g>
		<g>
			<path class="st6" d="M374.8,296.1c0,1.6-1.3,2.8-2.8,2.8H3.2c-1.6,0-2.8-1.3-2.8-2.8v-24.9c0-1.6,1.3-2.8,2.8-2.8H372
				c1.6,0,2.8,1.3,2.8,2.8V296.1z"/>
			<path class="st13" d="M374.8,296.1c0,1.6-1.3,2.8-2.8,2.8H3.2c-1.6,0-2.8-1.3-2.8-2.8v-24.9c0-1.6,1.3-2.8,2.8-2.8H372
				c1.6,0,2.8,1.3,2.8,2.8V296.1z"/>
		</g>
		<g>
			<path class="st5" d="M45.9,285.1v2.6c0,1.3-0.6,1.7-1.3,2h-3.3c-0.7-0.3-1.3-0.7-1.3-2v-2h1.8v2.1l0.4,0.4h1.6l0.4-0.4V285
				l-0.3-0.4l-2.6-0.8c-0.8-0.3-1.1-0.8-1.1-1.9v-2.2c0-1.3,0.6-1.7,1.3-2h3.3c0.7,0.3,1.3,0.7,1.3,2v1.9h-1.8v-2.1l-0.4-0.4h-1.6
				l-0.4,0.4v2.4l0.4,0.4l2.6,0.7C45.5,283.4,45.9,283.9,45.9,285.1z"/>
			<path class="st5" d="M47.2,277.7h5.1v1.6H49v3.4h3.1v1.6H49v3.7h3.4v1.6h-5.2V277.7z"/>
			<path class="st5" d="M59.5,287.7c0,1.3-0.6,1.7-1.3,2h-3.3c-0.7-0.3-1.3-0.7-1.3-2v-8c0-1.3,0.6-1.7,1.3-2h3.3
				c0.7,0.3,1.3,0.7,1.3,2v2.7h-1.8v-2.8l-0.4-0.4h-1.6l-0.4,0.4v8.3l0.4,0.4h1.6l0.4-0.4v-2.7h1.8V287.7z"/>
			<path class="st5" d="M64.3,279.3v10.3h-1.8v-10.3h-2.1v-1.6h6.1v1.6H64.3z"/>
			<path class="st5" d="M73.2,287.7c0,1.3-0.6,1.7-1.3,2h-3.3c-0.7-0.3-1.3-0.7-1.3-2v-8c0-1.3,0.6-1.7,1.3-2h3.3
				c0.7,0.3,1.3,0.7,1.3,2V287.7z M71.4,279.5l-0.4-0.4h-1.6l-0.4,0.4v8.3l0.4,0.4H71l0.4-0.4V279.5z"/>
			<path class="st5" d="M74.6,289.7v-12h4.6c0.7,0.3,1.3,0.7,1.3,2v2.6c0,1.3-0.6,1.6-1.3,1.9l-0.3,0.1l2.1,4.3v1.1h-1.6l-2.2-5.1
				h-0.8v5.1H74.6z M76.4,279.2v3.9h2l0.4-0.4v-3.1l-0.4-0.4H76.4z"/>
			<path class="st5" d="M84.6,289.7V288h1.8v-8.7h-1.7v-1.6h3.5V288h1.7v1.6H84.6z"/>
		</g>
		<line class="st14" x1="14.5" y1="283.8" x2="35.8" y2="283.8"/>
		<g>
			<path class="st5" d="M136,285.1v2.6c0,1.3-0.6,1.7-1.3,2h-3.3c-0.7-0.3-1.3-0.7-1.3-2v-2h1.8v2.1l0.4,0.4h1.6l0.4-0.4V285
				l-0.3-0.4l-2.6-0.8c-0.8-0.3-1.1-0.8-1.1-1.9v-2.2c0-1.3,0.6-1.7,1.3-2h3.3c0.7,0.3,1.3,0.7,1.3,2v1.9h-1.8v-2.1l-0.4-0.4h-1.6
				l-0.4,0.4v2.4l0.4,0.4l2.6,0.7C135.6,283.4,136,283.9,136,285.1z"/>
			<path class="st5" d="M137.3,277.7h5.1v1.6h-3.3v3.4h3.1v1.6h-3.1v3.7h3.4v1.6h-5.2V277.7z"/>
			<path class="st5" d="M149.6,287.7c0,1.3-0.6,1.7-1.3,2H145c-0.7-0.3-1.3-0.7-1.3-2v-8c0-1.3,0.6-1.7,1.3-2h3.3
				c0.7,0.3,1.3,0.7,1.3,2v2.7h-1.8v-2.8l-0.4-0.4h-1.6l-0.4,0.4v8.3l0.4,0.4h1.6l0.4-0.4v-2.7h1.8V287.7z"/>
			<path class="st5" d="M154.4,279.3v10.3h-1.8v-10.3h-2.1v-1.6h6.1v1.6H154.4z"/>
			<path class="st5" d="M163.3,287.7c0,1.3-0.6,1.7-1.3,2h-3.3c-0.7-0.3-1.3-0.7-1.3-2v-8c0-1.3,0.6-1.7,1.3-2h3.3
				c0.7,0.3,1.3,0.7,1.3,2V287.7z M161.5,279.5l-0.4-0.4h-1.6l-0.4,0.4v8.3l0.4,0.4h1.6l0.4-0.4V279.5z"/>
			<path class="st5" d="M164.7,289.7v-12h4.6c0.7,0.3,1.3,0.7,1.3,2v2.6c0,1.3-0.6,1.6-1.3,1.9l-0.3,0.1l2.1,4.3v1.1h-1.6l-2.2-5.1
				h-0.8v5.1H164.7z M166.5,279.2v3.9h2l0.4-0.4v-3.1l-0.4-0.4H166.5z"/>
			<path class="st5" d="M174.4,289.7v-3.6c0-1.1,0.4-1.7,1.2-2.1l3-1.2v-3.2l-0.4-0.4h-1.7l-0.4,0.4v2h-1.8v-1.9
				c0-1.3,0.6-1.7,1.3-2h3.3c0.7,0.3,1.3,0.7,1.3,2v2.5c0,1.1-0.3,1.7-1.1,2.1l-3,1.2v2.5h4.1v1.6H174.4z"/>
		</g>
		<line class="st15" x1="104.6" y1="283.8" x2="125.9" y2="283.8"/>
		<g>
			<path class="st5" d="M225.8,285.1v2.6c0,1.3-0.6,1.7-1.3,2h-3.3c-0.7-0.3-1.3-0.7-1.3-2v-2h1.8v2.1l0.4,0.4h1.6l0.4-0.4V285
				l-0.3-0.4l-2.6-0.8c-0.8-0.3-1.1-0.8-1.1-1.9v-2.2c0-1.3,0.6-1.7,1.3-2h3.3c0.7,0.3,1.3,0.7,1.3,2v1.9H224v-2.1l-0.4-0.4H222
				l-0.4,0.4v2.4l0.4,0.4l2.6,0.7C225.4,283.4,225.8,283.9,225.8,285.1z"/>
			<path class="st5" d="M227.1,277.7h5.1v1.6h-3.3v3.4h3.1v1.6h-3.1v3.7h3.4v1.6h-5.2V277.7z"/>
			<path class="st5" d="M239.4,287.7c0,1.3-0.6,1.7-1.3,2h-3.3c-0.7-0.3-1.3-0.7-1.3-2v-8c0-1.3,0.6-1.7,1.3-2h3.3
				c0.7,0.3,1.3,0.7,1.3,2v2.7h-1.8v-2.8l-0.4-0.4h-1.6l-0.4,0.4v8.3l0.4,0.4h1.6l0.4-0.4v-2.7h1.8V287.7z"/>
			<path class="st5" d="M244.2,279.3v10.3h-1.8v-10.3h-2.1v-1.6h6.1v1.6H244.2z"/>
			<path class="st5" d="M253.1,287.7c0,1.3-0.6,1.7-1.3,2h-3.3c-0.7-0.3-1.3-0.7-1.3-2v-8c0-1.3,0.6-1.7,1.3-2h3.3
				c0.7,0.3,1.3,0.7,1.3,2V287.7z M251.3,279.5l-0.4-0.4h-1.6l-0.4,0.4v8.3l0.4,0.4h1.6l0.4-0.4V279.5z"/>
			<path class="st5" d="M254.5,289.7v-12h4.6c0.7,0.3,1.3,0.7,1.3,2v2.6c0,1.3-0.6,1.6-1.3,1.9l-0.3,0.1l2.1,4.3v1.1h-1.6l-2.2-5.1
				h-0.8v5.1H254.5z M256.3,279.2v3.9h2l0.4-0.4v-3.1l-0.4-0.4H256.3z"/>
			<path class="st5" d="M265.5,289.7c-0.7-0.3-1.3-0.7-1.3-2V286h1.8v1.8l0.4,0.4h1.7l0.4-0.4v-3.2l-0.4-0.3h-1.8v-1.4h1.8l0.4-0.4
				v-3l-0.4-0.4h-1.7l-0.4,0.4v1.8h-1.8v-1.7c0-1.3,0.6-1.7,1.3-2h3.3c0.7,0.3,1.3,0.7,1.3,2v1.9c0,1-0.2,1.5-0.9,1.9
				c0.6,0.4,0.9,0.9,0.9,1.9v2.2c0,1.3-0.6,1.7-1.3,2H265.5z"/>
		</g>
		<line class="st16" x1="194.5" y1="283.8" x2="215.7" y2="283.8"/>
		<g>
			<path class="st5" d="M315.7,287.7c0,1.3-0.6,1.7-1.3,2h-4.6v-12h4.6c0.7,0.3,1.3,0.7,1.3,2V287.7z M311.6,279.2v9h2l0.4-0.4v-8.3
				l-0.4-0.4H311.6z"/>
			<path class="st5" d="M317.1,289.7v-12h4.6c0.7,0.3,1.3,0.7,1.3,2v2.6c0,1.3-0.6,1.6-1.3,1.9l-0.3,0.1l2.1,4.3v1.1H322l-2.2-5.1
				h-0.8v5.1H317.1z M318.9,279.2v3.9h2l0.4-0.4v-3.1l-0.4-0.4H318.9z"/>
			<path class="st5" d="M330.1,285.1v2.6c0,1.3-0.6,1.7-1.3,2h-3.3c-0.7-0.3-1.3-0.7-1.3-2v-2h1.8v2.1l0.4,0.4h1.6l0.4-0.4V285
				l-0.3-0.4l-2.6-0.8c-0.8-0.3-1.1-0.8-1.1-1.9v-2.2c0-1.3,0.6-1.7,1.3-2h3.3c0.7,0.3,1.3,0.7,1.3,2v1.9h-1.8v-2.1l-0.4-0.4h-1.6
				l-0.4,0.4v2.4l0.4,0.4l2.6,0.7C329.8,283.4,330.1,283.9,330.1,285.1z"/>
			<path class="st5" d="M337.7,279.3h-3.9v-1.6h5.8v1.5l-4,8.9h4v1.6h-5.9v-1.5L337.7,279.3z"/>
			<path class="st5" d="M346.8,287.7c0,1.3-0.6,1.7-1.3,2h-3.3c-0.7-0.3-1.3-0.7-1.3-2v-8c0-1.3,0.6-1.7,1.3-2h3.3
				c0.7,0.3,1.3,0.7,1.3,2V287.7z M345,279.5l-0.4-0.4h-1.6l-0.4,0.4v8.3l0.4,0.4h1.6l0.4-0.4V279.5z"/>
			<path class="st5" d="M352.5,277.7h1.6v12h-1.6l-2.6-7.1h-0.2v7.1h-1.6v-12h1.6l2.6,7.1h0.2V277.7z"/>
			<path class="st5" d="M355.5,277.7h5.1v1.6h-3.3v3.4h3.1v1.6h-3.1v3.7h3.4v1.6h-5.2V277.7z"/>
		</g>
		<g>
			<g>
				<g>
					<g>
						<line class="st17" x1="285.8" y1="276.3" x2="285.8" y2="291.2"/>
					</g>
					<g>
						<ellipse class="st10" cx="291.9" cy="283.8" rx="1.5" ry="1.4"/>
					</g>
					<g>
						<ellipse class="st10" cx="297.9" cy="283.8" rx="1.5" ry="1.4"/>
					</g>
					<g>
						<line class="st17" x1="304" y1="276.3" x2="304" y2="291.2"/>
					</g>
				</g>
			</g>
		</g>
	</g>
	<g>
		
			<rect x="437.5" y="147.3" transform="matrix(0.2293 -0.9734 0.9734 0.2293 193.453 541.8251)" class="st5" width="2.8" height="2.8"/>
		
			<rect x="438.8" y="141.8" transform="matrix(0.2293 -0.9734 0.9734 0.2293 199.8261 538.8377)" class="st5" width="2.8" height="2.8"/>
		
			<rect x="440.9" y="145.2" transform="matrix(0.2293 -0.9734 0.9734 0.2293 198.1333 543.5179)" class="st5" width="2.8" height="2.8"/>
		
			<rect x="442.2" y="139.7" transform="matrix(0.2293 -0.9734 0.9734 0.2293 204.5064 540.5306)" class="st5" width="2.8" height="2.8"/>
		
			<rect x="446.4" y="146.5" transform="matrix(0.2293 -0.9734 0.9734 0.2293 201.1207 549.8911)" class="st5" width="2.8" height="2.8"/>
		
			<rect x="447.7" y="141" transform="matrix(0.2293 -0.9734 0.9734 0.2293 207.4938 546.9037)" class="st5" width="2.8" height="2.8"/>
		
			<rect x="440.1" y="136.3" transform="matrix(0.2293 -0.9734 0.9734 0.2293 206.1992 535.8503)" class="st5" width="2.8" height="2.8"/>
		
			<rect x="439.4" y="139.1" transform="matrix(0.2293 -0.9734 0.9734 0.2293 203.0127 537.344)" class="st6" width="2.8" height="2.8"/>
		
			<rect x="438.1" y="144.6" transform="matrix(0.2293 -0.9734 0.9734 0.2293 196.6396 540.3314)" class="st6" width="2.8" height="2.8"/>
		
			<rect x="440.2" y="148" transform="matrix(0.2293 -0.9734 0.9734 0.2293 194.9467 545.0117)" class="st6" width="2.8" height="2.8"/>
		
			<rect x="441.5" y="142.5" transform="matrix(0.2293 -0.9734 0.9734 0.2293 201.3198 542.0243)" class="st6" width="2.8" height="2.8"/>
		
			<rect x="442.8" y="136.9" transform="matrix(0.2293 -0.9734 0.9734 0.2293 207.6929 539.0369)" class="st6" width="2.8" height="2.8"/>
		
			<rect x="444.9" y="140.4" transform="matrix(0.2293 -0.9734 0.9734 0.2293 206.0001 543.7171)" class="st6" width="2.8" height="2.8"/>
		
			<rect x="443.6" y="145.9" transform="matrix(0.2293 -0.9734 0.9734 0.2293 199.627 546.7045)" class="st6" width="2.8" height="2.8"/>
		
			<rect x="450.5" y="141.7" transform="matrix(0.2293 -0.9734 0.9734 0.2293 208.9875 550.0902)" class="st6" width="2.8" height="2.8"/>
		
			<rect x="449.2" y="147.2" transform="matrix(0.2293 -0.9734 0.9734 0.2293 202.6144 553.0776)" class="st6" width="2.8" height="2.8"/>
		
			<rect x="445.7" y="149.3" transform="matrix(0.2293 -0.9734 0.9734 0.2293 197.9341 551.3848)" class="st6" width="2.8" height="2.8"/>
		
			<rect x="447" y="143.8" transform="matrix(0.2293 -0.9734 0.9734 0.2293 204.3072 548.3973)" class="st6" width="2.8" height="2.8"/>
		
			<rect x="448.3" y="138.2" transform="matrix(0.2293 -0.9734 0.9734 0.2293 210.6803 545.41)" class="st6" width="2.8" height="2.8"/>
		
			<rect x="443" y="148.6" transform="matrix(0.2293 -0.9734 0.9734 0.2293 196.4404 548.1982)" class="st5" width="2.8" height="2.8"/>
		
			<rect x="444.3" y="143.1" transform="matrix(0.2293 -0.9734 0.9734 0.2293 202.8135 545.2108)" class="st5" width="2.8" height="2.8"/>
		
			<rect x="449.8" y="144.4" transform="matrix(0.2293 -0.9734 0.9734 0.2293 205.8009 551.5839)" class="st5" width="2.8" height="2.8"/>
		
			<rect x="445.6" y="137.6" transform="matrix(0.2293 -0.9734 0.9734 0.2293 209.1866 542.2234)" class="st5" width="2.8" height="2.8"/>
		
			<rect x="448.5" y="149.9" transform="matrix(0.2293 -0.9734 0.9734 0.2293 199.4278 554.5713)" class="st5" width="2.8" height="2.8"/>
		
			<rect x="451.1" y="138.9" transform="matrix(0.2293 -0.9734 0.9734 0.2293 212.174 548.5965)" class="st5" width="2.8" height="2.8"/>
	</g>
	<g>
		<defs>
			
				<rect id="SVGID_1_" x="462.1" y="148" transform="matrix(-0.8349 -0.5504 0.5504 -0.8349 784.6361 539.8845)" width="22.3" height="8.5"/>
		</defs>
		<clipPath id="SVGID_00000029003678336232299340000003108956342907136671_">
			<use xlink:href="#SVGID_1_"  style="overflow:visible;"/>
		</clipPath>
		<g style="clip-path:url(#SVGID_00000029003678336232299340000003108956342907136671_);">
			<polygon class="st19" points="468.9,140.9 471.3,142.4 472.1,151.5 463.5,154.3 461.1,152.7 469.7,149.9 			"/>
			<polygon class="st20" points="473.6,144 476,145.6 476.8,154.6 468.2,157.4 465.8,155.8 474.5,153 			"/>
			<polygon class="st21" points="478.4,147.1 480.7,148.7 481.6,157.7 472.9,160.5 470.6,159 479.2,156.2 			"/>
		</g>
	</g>
</g>
</svg>
