<?xml version="1.0" encoding="utf-8"?>
<!-- Generator: Adobe Illustrator 27.2.0, SVG Export Plug-In . SVG Version: 6.00 Build 0)  -->
<svg version="1.1" xmlns="http://www.w3.org/2000/svg" xmlns:xlink="http://www.w3.org/1999/xlink" x="0px" y="0px"
	 viewBox="0.0 0.0 558.9 250.0" style="enable-background:new 0 0 558.9 299.3;" xml:space="preserve">
<style type="text/css">
	.st0{fill:none;stroke:#646464;stroke-width:5.868;stroke-linecap:round;stroke-linejoin:round;stroke-miterlimit:10;}
	.st1{fill:none;stroke:#FFD449;stroke-width:1.174;stroke-miterlimit:10;}
	.st2{fill:none;stroke:#54C6EB;stroke-width:1.174;stroke-miterlimit:10;}
	.st3{fill:none;stroke:#F4442E;stroke-width:1.174;stroke-miterlimit:10;}
	.st4{fill:none;stroke:#FFFFFF;stroke-width:0.880;}
	.st5{fill:#646464;}
	.st6{fill:#FFFFFF;}
	.st7{fill:none;stroke:#646464;stroke-width:1.174;stroke-miterlimit:10;}
	.st8{fill:#FF3380;}
	.st9{fill:none;stroke:#FF3380;stroke-width:0.822;stroke-miterlimit:10;}
	.st10{fill:#09BC8A;}
	.st11{fill:none;stroke:#09BC8A;stroke-width:0.822;stroke-miterlimit:10;}
	.st12{fill:none;stroke:#09BC8A;stroke-width:0.915;stroke-miterlimit:10;}
	.st13{fill:none;stroke:#646464;stroke-width:0.293;stroke-miterlimit:10;}
	.st14{fill:none;stroke:#F4442E;stroke-width:2.347;stroke-miterlimit:10;}
	.st15{fill:none;stroke:#54C6EB;stroke-width:2.347;stroke-miterlimit:10;}
	.st16{fill:none;stroke:#FFD449;stroke-width:2.347;stroke-miterlimit:10;}
	.st17{fill:none;stroke:#09BC8A;stroke-width:1.174;stroke-miterlimit:10;}
	.st18{clip-path:url(#SVGID_00000161593034639522328540000003610139484255554493_);}
	.st19{fill:#F4442E;}
	.st20{fill:#54C6EB;}
	.st21{fill:#FFD449;}
</style>
<g id="コース">
	<path class="st0" d="M352.9,103.8c19.4,3.6,92.9,19.7,105.7,23.3c12.8,3.6,24.6,10.5,34.5,16.1c9.8,5.6,12.2,7.5,14.2,8.7
		s4.9,1.9,7.8-1.2s3.9-4,6.1-6c2.3-2.2,7.2-2.1,10.1,0.7c2.7,2.6,2.7,9.4-0.2,13.3c-3.9,5.3-15.3,19-25.2,25.8
		c-9.9,6.8-36.4,18.2-40.1,19.7c-3.7,1.5-6.3,0.5-8.5-1.8s-3.7-3.8-4.9-4.7c-1.2-0.9-3.1-1.8-7-1c-3.9,0.8-26,7-29,7.7
		s-8.1,4.1-11,5.9c-2.9,1.8-7.7,4.2-16.3,4.2s-20-5.9-28.3-9.8c-8.3-4-14.9-7.5-17.6-8.5c-2.8-1-7.2-1.7-9.3-0.3c-2,1.4-4,4.4-4,8.2
		s-1.1,6.3-5.4,9.3c-4.3,3-12.7,4.2-23.1,1.6c-10.4-2.6-49.3-17.1-62.7-23.9c-13.4-6.7-38.3-24.3-51.9-35.8
		c-13.5-11.5-13.5-11.4-14.5-12.2c-1-0.8-2.7-2.6-0.8-6.1c1.8-3.4,4-10.1-1.2-15.4c-5.1-5.3-25.5-22.5-36.1-30.1
		S96.9,63.5,67.7,56.9c-19.1-4.4-24.1-5.2-27-5.8c-6.7-1.3-6.7-10.7,2.9-9.1c5.6,0.9,15.8,4.9,18.1,5.7c2.3,0.8,7.2,1.3,17.3,1.4
		c16.5,0.2,65.9,2.3,72.5,2.6c6.6,0.3,16.1,1.5,28.8,4.5c12.6,3,153.2,33.9,157.2,35s5.2,0.4,5.3,5c0.1,4.6,0.9,5.8,5.2,6.6
		C352.1,103.6,352.9,103.8,352.9,103.8z"/>
</g>
<g id="セクター">
	<path class="st1" d="M86.5,63c-6-2.5-12.3-4.6-18.8-6.1c-19.1-4.4-24.1-5.2-27-5.8c-6.7-1.3-6.7-10.7,2.9-9.1
		c5.6,0.9,15.8,4.9,18.1,5.7c2.3,0.8,7.2,1.3,17.3,1.4c16.5,0.2,65.9,2.3,72.5,2.6c6.6,0.3,16.1,1.5,28.8,4.5
		c12.6,3,153.2,33.9,157.2,35s5.2,0.4,5.3,5c0.1,4.6,0.9,5.8,5.2,6.6c4.3,0.8,5.1,1,5.1,1c16.3,3,71.2,15,95.7,20.8"/>
	<path class="st2" d="M347.7,198.2c-2-1-3.5-1.7-4.6-2.1c-2.8-1-7.2-1.7-9.3-0.3c-2,1.4-4,4.4-4,8.2s-1.1,6.3-5.4,9.3
		c-4.3,3-12.7,4.2-23.1,1.6c-10.4-2.6-49.3-17.1-62.7-23.9c-13.4-6.7-38.3-24.3-51.9-35.8c-13.5-11.5-13.5-11.4-14.5-12.2
		c-1-0.8-2.7-2.6-0.8-6.1c1.8-3.4,4-10.1-1.2-15.4c-5.1-5.3-25.5-22.5-36.1-30.1c-8.3-6-26.4-19.5-47.7-28.4"/>
	<path class="st3" d="M448.6,124.6c4.5,1.1,8,1.9,10,2.5c12.8,3.6,24.6,10.5,34.5,16.1c9.8,5.6,12.2,7.5,14.2,8.7s4.9,1.9,7.8-1.2
		s3.9-4,6.1-6c2.3-2.2,7.2-2.1,10.1,0.7c2.7,2.6,2.7,9.4-0.2,13.3c-3.9,5.3-15.3,19-25.2,25.8c-9.9,6.8-36.4,18.2-40.1,19.7
		c-3.7,1.5-6.3,0.5-8.5-1.8s-3.7-3.8-4.9-4.7c-1.2-0.9-3.1-1.8-7-1c-3.9,0.8-26,7-29,7.7s-8.1,4.1-11,5.9c-2.9,1.8-7.7,4.2-16.3,4.2
		s-20-5.9-28.3-9.8c-5.2-2.5-9.7-4.8-13.1-6.4"/>
</g>
<g id="コーナー番号">
	<g>
		<g>
			
			
		</g>
		<g>
			
		</g>
	</g>
	<g>
		<g>
			
			
		</g>
		<g>
			
		</g>
	</g>
	<g>
		<g>
			
			
		</g>
		<g>
			
		</g>
	</g>
	<g>
		<g>
			
			
		</g>
		<g>
			
		</g>
	</g>
	<g>
		<g>
			
			
		</g>
		<g>
			
		</g>
	</g>
	<g>
		<g>
			
			
		</g>
		<g>
			
		</g>
	</g>
	<g>
		<g>
			
			
		</g>
		<g>
			
		</g>
	</g>
	<g>
		<g>
			
			
		</g>
		<g>
			
		</g>
	</g>
	<g>
		<g>
			
			
		</g>
		<g>
			
		</g>
	</g>
	<g>
		<g>
			
			
		</g>
		<g>
			
			
		</g>
	</g>
	<g>
		<g>
			
			
		</g>
		<g>
			
			
		</g>
	</g>
	<g>
		<g>
			
			
		</g>
		<g>
			
			
		</g>
	</g>
	<g>
		<g>
			
			
		</g>
		<g>
			
			
		</g>
	</g>
	<g>
		<g>
			
			
		</g>
		<g>
			
			
		</g>
	</g>
</g>



</svg>
