<?xml version="1.0" encoding="utf-8"?>
<!-- Generator: Adobe Illustrator 26.5.0, SVG Export Plug-In . SVG Version: 6.00 Build 0)  -->
<svg version="1.1" xmlns="http://www.w3.org/2000/svg" xmlns:xlink="http://www.w3.org/1999/xlink" x="0px" y="0px"
	 viewBox="0 0 550 403" style="enable-background:new 0 0 550 443.7;" xml:space="preserve">
<style type="text/css">
	.st0{fill:none;stroke:#646464;stroke-width:14.1732;stroke-miterlimit:10;}
	.st1{fill:none;stroke:#F4442E;stroke-width:2.8346;stroke-miterlimit:10;}
	.st2{fill:none;stroke:#FFD449;stroke-width:2.8346;stroke-miterlimit:10;}
	.st3{fill:none;stroke:#54C6EB;stroke-width:2.8346;stroke-miterlimit:10;}
	.st4{fill:none;stroke:#FFFFFF;stroke-width:2.126;}
	.st5{fill:#646464;}
	.st6{fill:#FFFFFF;}
	.st7{fill:#09BC8A;}
	.st8{fill:none;stroke:#646464;stroke-width:2.8346;stroke-miterlimit:10;}
	.st9{fill:none;stroke:#09BC8A;stroke-width:1.9843;stroke-miterlimit:10;}
	.st10{fill:none;stroke:#09BC8A;stroke-width:2.2097;stroke-miterlimit:10;}
	.st11{fill:#FF3380;}
	.st12{fill:none;stroke:#FF3380;stroke-width:1.9843;stroke-miterlimit:10;}
	.st13{fill:none;stroke:#646464;stroke-width:0.7087;stroke-miterlimit:10;}
	.st14{fill:none;stroke:#F4442E;stroke-width:5.6693;stroke-miterlimit:10;}
	.st15{fill:none;stroke:#54C6EB;stroke-width:5.6693;stroke-miterlimit:10;}
	.st16{fill:none;stroke:#FFD449;stroke-width:5.6693;stroke-miterlimit:10;}
	.st17{fill:none;stroke:#09BC8A;stroke-width:2.8346;stroke-miterlimit:10;}
	.st18{clip-path:url(#SVGID_00000176724287544265937040000014874688290497559725_);}
	.st19{fill:#F4442E;}
	.st20{fill:#54C6EB;}
	.st21{fill:#FFD449;}
</style>
<g id="コース">
	<path class="st0" d="M40.4,221.2c0,0,137.1,109.6,143.1,114.7c6,5.1,17.2,12.1,21.6,8.9c4.5-3.2-11.1-39.8-12.4-45.5
		c-1.3-5.7-2.9-21,12.1-31.2s29.6-18.1,36.6-21.9c7-3.8,10.5-9.5,13.7-17.5c3.2-8,4.5-12.1,14.3-15.6c9.9-3.5,14.9-6.4,16.2-19.7
		c1.3-13.4,6.7-18.1,13.7-22.9s15.6-8.3,22.7-4.8c7.1,3.5,21.8,10.6,23.8,11.5c7.5,3.6,15.1-1.8,23.5-11.7c7.8-9.3,8.2-13,16.7-13.6
		s11.9,4.4,14,8.2c2.2,3.8,4.2,6.6,9.1,5.7c4.9-0.9,40.2-8.1,42.7-8.6c4.1-0.8,6.3-2.6,8.8-5.5s56.3-69.3,59-72.3
		c3.7-4,1.6-10.9-3.2-9.3c-3.4,1.1-69.1,21.3-83.1,24.7c-7.3,1.8-25.3,6.1-44.3,10c-17.2,3.5-35.2,6.6-46.8,8.8
		c-23.8,4.6-66.4,9.9-86.3,11.3c-3.2,0.2-39.4,4.3-41.4,4.6c-2,0.3-4.5,1.4-2.7,4.5c1.8,3.1,12.1,15.9,16,21.5
		c4,5.6,10.1,14.5,12.2,18.1c2.1,3.6,1.6,9.8-3.8,10.2c-5.5,0.4-15.1-0.4-17.3-1.2s-4.6-2.1-5.4-6.6c-0.8-4.5-2-7.1-3.8-9.4
		c-1.9-2.3-8.6-10.6-11-12.4c-2.4-1.8-6.1-2.4-8.1-2.4s-5.5,0-6.9,0.3c-1.4,0.3-2.7,2.1-1.8,5.2s22.2,38.3,23.3,41.3
		c1.1,3,1.1,10.2,1.1,12.2s-5.3,13.9-6.4,15.9c-1.1,2-2.7,2.5-4.4,3.4c-1.6,0.9-13.4,6.5-15.7,7.6c-2.3,1.1-8,2.2-14.9,1
		c-6.9-1.2-19-3.1-25.6-15.4c-3.5-6.6-24.9-34.9-26.8-37.2c-1.9-2.3-4.3-4.4-9.7-2.7c-5.4,1.6-62.1,26.1-65,27.7s-3.5,4.8-1.8,6.6
		C38,219.3,40.4,221.2,40.4,221.2z"/>
</g>
<g id="セクター">
	<path class="st1" d="M55.3,233.1c35.7,28.6,123.4,98.7,128.2,102.8c6,5.1,17.2,12.1,21.6,8.9c4.5-3.2-11.1-39.8-12.4-45.5
		c-1.3-5.7-2.9-21,12.1-31.2s29.6-18.1,36.6-21.9c7-3.8,10.5-9.5,13.7-17.5c3.2-8,4.5-12.1,14.3-15.6c9.9-3.5,14.9-6.4,16.2-19.7
		c1.3-13.4,6.7-18.1,13.7-22.9s15.6-8.3,22.7-4.8c3.7,1.8,9.3,4.5,14.2,6.9"/>
	<path class="st2" d="M227.2,154.4c0.3,0.4,0.5,0.8,0.8,1.1c4,5.6,10.1,14.5,12.2,18.1c2.1,3.6,1.6,9.8-3.8,10.2
		c-5.5,0.4-15.1-0.4-17.3-1.2s-4.6-2.1-5.4-6.6c-0.8-4.5-2-7.1-3.8-9.4c-1.9-2.3-8.6-10.6-11-12.4c-2.4-1.8-6.1-2.4-8.1-2.4
		s-5.5,0-6.9,0.3c-1.4,0.3-2.7,2.1-1.8,5.2s22.2,38.3,23.3,41.3c1.1,3,1.1,10.2,1.1,12.2s-5.3,13.9-6.4,15.9c-1.1,2-2.7,2.5-4.4,3.4
		c-1.6,0.9-13.4,6.5-15.7,7.6c-2.3,1.1-8,2.2-14.9,1c-6.9-1.2-19-3.1-25.6-15.4c-3.5-6.6-24.9-34.9-26.8-37.2
		c-1.9-2.3-4.3-4.4-9.7-2.7c-5.4,1.6-62.1,26.1-65,27.7s-3.5,4.8-1.8,6.6c1.8,1.8,4.2,3.6,4.2,3.6s5.7,4.6,14.9,12"/>
	<path class="st3" d="M336.2,172.6c4.6,2.2,8.6,4.1,9.6,4.6c7.5,3.6,15.1-1.8,23.5-11.7c7.8-9.3,8.2-13,16.7-13.6s11.9,4.4,14,8.2
		c2.2,3.8,4.2,6.6,9.1,5.7c4.9-0.9,40.2-8.1,42.7-8.6c4.1-0.8,6.3-2.6,8.8-5.5s56.3-69.3,59-72.3c3.7-4,1.6-10.9-3.2-9.3
		c-3.4,1.1-69.1,21.3-83.1,24.7c-7.3,1.8-25.3,6.1-44.3,10c-17.2,3.5-35.2,6.6-46.8,8.8c-23.8,4.6-66.4,9.9-86.3,11.3
		c-3.2,0.2-39.4,4.3-41.4,4.6c-2,0.3-4.5,1.4-2.7,4.5c1.6,2.9,10.9,14.4,15.2,20.4"/>
</g>
<g id="コーナー番号">
	<g>
		<g>
			<circle class="st4" cx="216.7" cy="359.2" r="8.5"/>
			<circle class="st5" cx="216.7" cy="359.2" r="8.5"/>
		</g>
		<g>
			<path class="st6" d="M215,363.1v-1.6h1V357h-0.9v-1.6h2.6v6.1h0.9v1.6H215z"/>
		</g>
	</g>
	<g>
		<g>
			<circle class="st4" cx="175" cy="277.2" r="8.5"/>
			<circle class="st5" cx="175" cy="277.2" r="8.5"/>
		</g>
		<g>
			<path class="st6" d="M172.9,281.1v-2.6c0-0.6,0.1-1,0.6-1.2l1.9-0.8v-1.6l-0.1-0.1h-0.5l-0.1,0.1v1.1h-1.7v-1.3
				c0-0.8,0.4-1.1,0.8-1.3h2.5c0.5,0.2,0.8,0.5,0.8,1.3v1.9c0,0.6-0.1,0.9-0.6,1.2l-1.9,0.8v0.9h2.4v1.6H172.9z"/>
		</g>
	</g>
	<g>
		<g>
			<circle class="st4" cx="261.9" cy="256.7" r="8.5"/>
			<circle class="st5" cx="261.9" cy="256.7" r="8.5"/>
		</g>
		<g>
			<path class="st6" d="M260.7,260.6c-0.5-0.2-0.8-0.5-0.8-1.3v-1h1.7v0.8l0.1,0.1h0.5l0.1-0.1v-1.6l-0.1-0.1h-1v-1.3h1l0.1-0.1
				v-1.5l-0.1-0.1h-0.5l-0.1,0.1v0.8h-1.7v-1c0-0.8,0.4-1.1,0.8-1.3h2.5c0.5,0.2,0.8,0.5,0.8,1.3v1.3c0,0.6-0.2,0.9-0.6,1.2
				c0.4,0.3,0.6,0.6,0.6,1.2v1.4c0,0.8-0.4,1.1-0.8,1.3H260.7z"/>
		</g>
	</g>
	<g>
		<g>
			<circle class="st4" cx="247.4" cy="204.8" r="8.5"/>
			<circle class="st5" cx="247.4" cy="204.8" r="8.5"/>
		</g>
		<g>
			<path class="st6" d="M249.1,207.2v1.5h-1.7v-1.5h-2.2v-1.5l1.6-4.7h1.7l-1.6,4.6h0.5v-0.4l0.4-1h1.3v1.4h0.5v1.6H249.1z"/>
		</g>
	</g>
	<g>
		<g>
			<circle class="st4" cx="299.6" cy="212.8" r="8.5"/>
			<circle class="st5" cx="299.6" cy="212.8" r="8.5"/>
		</g>
		<g>
			<path class="st6" d="M298.4,216.7c-0.5-0.2-0.8-0.5-0.8-1.3v-1h1.6v0.8l0.1,0.1h0.6l0.1-0.1v-2.1l-0.1-0.1h-0.6l-0.1,0.1v0.4
				h-1.6V209h4v1.5h-2.4v1.6l0.4-0.4h1.3c0.5,0.2,0.8,0.5,0.8,1.3v2.4c0,0.8-0.4,1.1-0.8,1.3H298.4z"/>
		</g>
	</g>
	<g>
		<g>
			<circle class="st4" cx="291.9" cy="152.9" r="8.5"/>
			<circle class="st5" cx="291.9" cy="152.9" r="8.5"/>
		</g>
		<g>
			<path class="st6" d="M293.2,156.7h-2.5c-0.5-0.2-0.8-0.5-0.8-1.3v-5.1c0-0.8,0.4-1.1,0.8-1.3h2.5c0.5,0.2,0.8,0.5,0.8,1.3v1h-1.7
				v-0.8l-0.1-0.1h-0.5l-0.1,0.1v1.8l0.3-0.3h1.3c0.5,0.2,0.8,0.5,0.8,1.3v2.2C294,156.3,293.6,156.6,293.2,156.7z M292.2,155.4
				l0.1-0.1v-1.8l-0.1-0.1h-0.5l-0.1,0.1v1.8l0.1,0.1H292.2z"/>
		</g>
	</g>
	<g>
		<g>
			<circle class="st4" cx="353.4" cy="197.3" r="8.5"/>
			<circle class="st5" cx="353.4" cy="197.3" r="8.5"/>
		</g>
		<g>
			<path class="st6" d="M351.6,201.2l2.1-6.2h-2.4v-1.5h4.1v1.2l-2.1,6.5H351.6z"/>
		</g>
	</g>
	<g>
		<g>
			<circle class="st4" cx="387.3" cy="132.8" r="8.5"/>
			<circle class="st5" cx="387.3" cy="132.8" r="8.5"/>
		</g>
		<g>
			<path class="st6" d="M386,136.7c-0.5-0.2-0.8-0.5-0.8-1.3V134c0-0.6,0.2-0.9,0.6-1.2c-0.4-0.3-0.6-0.6-0.6-1.2v-1.3
				c0-0.8,0.4-1.1,0.8-1.3h2.5c0.5,0.2,0.8,0.5,0.8,1.3v1.3c0,0.6-0.2,0.9-0.6,1.2c0.4,0.3,0.6,0.6,0.6,1.2v1.4
				c0,0.8-0.4,1.1-0.8,1.3H386z M386.9,132.1l0.1,0.1h0.5l0.1-0.1v-1.5l-0.1-0.1H387l-0.1,0.1V132.1z M387.7,135.2v-1.6l-0.1-0.1
				H387l-0.1,0.1v1.6l0.1,0.1h0.5L387.7,135.2z"/>
		</g>
	</g>
	<g>
		<g>
			<circle class="st4" cx="407.7" cy="186.3" r="8.5"/>
			<circle class="st5" cx="407.7" cy="186.3" r="8.5"/>
		</g>
		<g>
			<path class="st6" d="M406.4,190.2c-0.5-0.2-0.8-0.5-0.8-1.3v-1h1.7v0.8l0.1,0.1h0.5l0.1-0.1v-1.8l-0.3,0.3h-1.3
				c-0.5-0.2-0.8-0.5-0.8-1.3v-2.2c0-0.8,0.4-1.1,0.8-1.3h2.5c0.5,0.2,0.8,0.5,0.8,1.3v5.1c0,0.8-0.4,1.1-0.8,1.3H406.4z
				 M408.1,185.8V184l-0.1-0.1h-0.5l-0.1,0.1v1.8l0.1,0.1h0.5L408.1,185.8z"/>
		</g>
	</g>
	<g>
		<g>
			<circle class="st4" cx="198.3" cy="117.7" r="8.5"/>
			<circle class="st5" cx="198.3" cy="117.7" r="8.5"/>
		</g>
		<g>
			<path class="st6" d="M194.2,121.5V120h1v-4.5h-0.9v-1.6h2.6v6.1h0.9v1.6H194.2z"/>
			<path class="st6" d="M198.5,121.5V119c0-0.6,0.1-1,0.6-1.2l1.9-0.8v-1.6l-0.1-0.1h-0.5l-0.1,0.1v1.1h-1.7v-1.3
				c0-0.8,0.4-1.1,0.8-1.3h2.5c0.5,0.2,0.8,0.5,0.8,1.3v1.9c0,0.6-0.1,0.9-0.6,1.2l-1.9,0.8v0.9h2.4v1.6H198.5z"/>
		</g>
	</g>
	<g>
		<g>
			<circle class="st4" cx="260.5" cy="176.2" r="8.5"/>
			<circle class="st5" cx="260.5" cy="176.2" r="8.5"/>
		</g>
		<g>
			<path class="st6" d="M256.5,180.1v-1.6h1V174h-0.9v-1.6h2.6v6.1h0.9v1.6H256.5z"/>
			<path class="st6" d="M261.6,180.1c-0.5-0.2-0.8-0.5-0.8-1.3v-1h1.7v0.8l0.1,0.1h0.5l0.1-0.1V177l-0.1-0.1h-1v-1.3h1l0.1-0.1v-1.5
				l-0.1-0.1h-0.5l-0.1,0.1v0.8h-1.7v-1c0-0.8,0.4-1.1,0.8-1.3h2.5c0.5,0.2,0.8,0.5,0.8,1.3v1.3c0,0.6-0.2,0.9-0.6,1.2
				c0.4,0.3,0.6,0.6,0.6,1.2v1.4c0,0.8-0.4,1.1-0.8,1.3H261.6z"/>
		</g>
	</g>
	<g>
		<g>
			<circle class="st4" cx="225.2" cy="172.1" r="8.5"/>
			<circle class="st5" cx="225.2" cy="172.1" r="8.5"/>
		</g>
		<g>
			<path class="st6" d="M221.2,175.9v-1.6h1v-4.5h-0.9v-1.6h2.6v6.1h0.9v1.6H221.2z"/>
			<path class="st6" d="M229.2,174.4v1.5h-1.7v-1.5h-2.2V173l1.6-4.7h1.7l-1.6,4.6h0.5v-0.4l0.4-1h1.3v1.4h0.5v1.6H229.2z"/>
		</g>
	</g>
	<g>
		<g>
			<circle class="st4" cx="171.1" cy="137.7" r="8.5"/>
			<circle class="st5" cx="171.1" cy="137.7" r="8.5"/>
		</g>
		<g>
			<path class="st6" d="M167.1,141.5v-1.6h1v-4.5h-0.9v-1.6h2.6v6.1h0.9v1.6H167.1z"/>
			<path class="st6" d="M172.2,141.5c-0.5-0.2-0.8-0.5-0.8-1.3v-1h1.6v0.8l0.1,0.1h0.6l0.1-0.1V138l-0.1-0.1h-0.6L173,138v0.4h-1.6
				v-4.5h4v1.5H173v1.6l0.4-0.4h1.3c0.5,0.2,0.8,0.5,0.8,1.3v2.4c0,0.8-0.4,1.1-0.8,1.3H172.2z"/>
		</g>
	</g>
	<g>
		<g>
			<circle class="st4" cx="226.1" cy="207" r="8.5"/>
			<circle class="st5" cx="226.1" cy="207" r="8.5"/>
		</g>
		<g>
			<path class="st6" d="M222.1,210.9v-1.6h1v-4.5h-0.9v-1.6h2.6v6.1h0.9v1.6H222.1z"/>
			<path class="st6" d="M229.7,210.9h-2.5c-0.5-0.2-0.8-0.5-0.8-1.3v-5.1c0-0.8,0.4-1.1,0.8-1.3h2.5c0.5,0.2,0.8,0.5,0.8,1.3v1h-1.7
				v-0.8l-0.1-0.1h-0.5l-0.1,0.1v1.8l0.3-0.3h1.3c0.5,0.2,0.8,0.5,0.8,1.3v2.2C230.6,210.4,230.2,210.7,229.7,210.9z M228.8,209.5
				l0.1-0.1v-1.8l-0.1-0.1h-0.5l-0.1,0.1v1.8l0.1,0.1H228.8z"/>
		</g>
	</g>
	<g>
		<g>
			<circle class="st4" cx="211.8" cy="240.4" r="8.5"/>
			<circle class="st5" cx="211.8" cy="240.4" r="8.5"/>
		</g>
		<g>
			<path class="st6" d="M207.8,244.3v-1.6h1v-4.5h-0.9v-1.6h2.6v6.1h0.9v1.6H207.8z"/>
			<path class="st6" d="M212.3,244.3l2.1-6.2h-2.4v-1.5h4.1v1.2l-2.1,6.5H212.3z"/>
		</g>
	</g>
	<g>
		<g>
			<circle class="st4" cx="153.4" cy="255.9" r="8.5"/>
			<circle class="st5" cx="153.4" cy="255.9" r="8.5"/>
		</g>
		<g>
			<path class="st6" d="M149.4,259.7v-1.6h1v-4.5h-0.9v-1.6h2.6v6.1h0.9v1.6H149.4z"/>
			<path class="st6" d="M154.5,259.7c-0.5-0.2-0.8-0.5-0.8-1.3V257c0-0.6,0.2-0.9,0.6-1.2c-0.4-0.3-0.6-0.6-0.6-1.2v-1.3
				c0-0.8,0.4-1.1,0.8-1.3h2.5c0.5,0.2,0.8,0.5,0.8,1.3v1.3c0,0.6-0.2,0.9-0.6,1.2c0.4,0.3,0.6,0.6,0.6,1.2v1.4
				c0,0.8-0.4,1.1-0.8,1.3H154.5z M155.4,255.1l0.1,0.1h0.5l0.1-0.1v-1.5l-0.1-0.1h-0.5l-0.1,0.1V255.1z M156.1,258.3v-1.6l-0.1-0.1
				h-0.5l-0.1,0.1v1.6l0.1,0.1h0.5L156.1,258.3z"/>
		</g>
	</g>
	<g>
		<g>
			<circle class="st4" cx="112.3" cy="164.7" r="8.5"/>
			<circle class="st5" cx="112.3" cy="164.7" r="8.5"/>
		</g>
		<g>
			<path class="st6" d="M108.2,168.6V167h1v-4.5h-0.9v-1.6h2.6v6.1h0.9v1.6H108.2z"/>
			<path class="st6" d="M113.4,168.6c-0.5-0.2-0.8-0.5-0.8-1.3v-1h1.7v0.8l0.1,0.1h0.5l0.1-0.1v-1.8l-0.3,0.3h-1.3
				c-0.5-0.2-0.8-0.5-0.8-1.3v-2.2c0-0.8,0.4-1.1,0.8-1.3h2.5c0.5,0.2,0.8,0.5,0.8,1.3v5.1c0,0.8-0.4,1.1-0.8,1.3H113.4z M115,164.3
				v-1.8l-0.1-0.1h-0.5l-0.1,0.1v1.8l0.1,0.1h0.5L115,164.3z"/>
		</g>
	</g>
	<g>
		<g>
			<circle class="st4" cx="16.9" cy="211.5" r="8.5"/>
			<circle class="st5" cx="16.9" cy="211.5" r="8.5"/>
		</g>
		<g>
			<path class="st6" d="M12.4,215.4v-2.6c0-0.6,0.1-1,0.6-1.2l1.9-0.8v-1.6l-0.1-0.1h-0.5l-0.1,0.1v1.1h-1.7V209
				c0-0.8,0.4-1.1,0.8-1.3h2.5c0.5,0.2,0.8,0.5,0.8,1.3v1.9c0,0.6-0.1,0.9-0.6,1.2l-1.9,0.8v0.9h2.4v1.6H12.4z"/>
			<path class="st6" d="M20.4,215.4h-2.5c-0.5-0.2-0.8-0.5-0.8-1.3V209c0-0.8,0.4-1.1,0.8-1.3h2.5c0.5,0.2,0.8,0.5,0.8,1.3v5.1
				C21.3,214.9,20.9,215.2,20.4,215.4z M19.6,209.2l-0.1-0.1h-0.5l-0.1,0.1v4.7l0.1,0.1h0.5l0.1-0.1V209.2z"/>
		</g>
	</g>
	<g>
		<g>
			<circle class="st4" cx="469.4" cy="168.9" r="8.5"/>
			<circle class="st5" cx="469.4" cy="168.9" r="8.5"/>
		</g>
		<g>
			<path class="st6" d="M465.3,172.8v-1.6h1v-4.5h-0.9v-1.6h2.6v6.1h0.9v1.6H465.3z"/>
			<path class="st6" d="M472.9,172.8h-2.5c-0.5-0.2-0.8-0.5-0.8-1.3v-5.1c0-0.8,0.4-1.1,0.8-1.3h2.5c0.5,0.2,0.8,0.5,0.8,1.3v5.1
				C473.8,172.3,473.4,172.6,472.9,172.8z M472.1,166.6l-0.1-0.1h-0.5l-0.1,0.1v4.7l0.1,0.1h0.5l0.1-0.1V166.6z"/>
		</g>
	</g>
	<g>
		<g>
			<circle class="st4" cx="535.6" cy="59.4" r="8.5"/>
			<circle class="st5" cx="535.6" cy="59.4" r="8.5"/>
		</g>
		<g>
			<path class="st6" d="M531.6,63.3v-1.6h1v-4.5h-0.9v-1.6h2.6v6.1h0.9v1.6H531.6z"/>
			<path class="st6" d="M536.3,63.3v-1.6h1v-4.5h-0.9v-1.6h2.6v6.1h0.9v1.6H536.3z"/>
		</g>
	</g>
</g>


<g id="アイコン">
	<g>
		
			<rect x="45.3" y="251.7" transform="matrix(-0.6597 0.7516 -0.7516 -0.6597 267.6857 385.0062)" class="st5" width="2.8" height="2.8"/>
		
			<rect x="41.5" y="256" transform="matrix(-0.6597 0.7516 -0.7516 -0.6597 264.6811 394.8884)" class="st5" width="2.8" height="2.8"/>
		
			<rect x="41.3" y="252" transform="matrix(-0.6597 0.7516 -0.7516 -0.6597 261.2423 388.445)" class="st5" width="2.8" height="2.8"/>
		
			<rect x="37.5" y="256.2" transform="matrix(-0.6597 0.7516 -0.7516 -0.6597 258.2377 398.3272)" class="st5" width="2.8" height="2.8"/>
		
			<rect x="37" y="248.2" transform="matrix(-0.6597 0.7516 -0.7516 -0.6597 251.36 385.4405)" class="st5" width="2.8" height="2.8"/>
		
			<rect x="33.3" y="252.5" transform="matrix(-0.6597 0.7516 -0.7516 -0.6597 248.3555 395.3227)" class="st5" width="2.8" height="2.8"/>
		
			<rect x="37.8" y="260.2" transform="matrix(-0.6597 0.7516 -0.7516 -0.6597 261.6765 404.7706)" class="st5" width="2.8" height="2.8"/>
		
			<rect x="39.6" y="258.1" transform="matrix(-0.6597 0.7516 -0.7516 -0.6597 263.1788 399.8295)" class="st6" width="2.8" height="2.8"/>
		
			<rect x="43.4" y="253.8" transform="matrix(-0.6597 0.7516 -0.7516 -0.6597 266.1834 389.9473)" class="st6" width="2.8" height="2.8"/>
		
			<rect x="43.1" y="249.8" transform="matrix(-0.6597 0.7516 -0.7516 -0.6597 262.7445 383.5039)" class="st6" width="2.8" height="2.8"/>
		
			<rect x="39.4" y="254.1" transform="matrix(-0.6597 0.7516 -0.7516 -0.6597 259.74 393.3861)" class="st6" width="2.8" height="2.8"/>
		
			<rect x="35.6" y="258.3" transform="matrix(-0.6597 0.7516 -0.7516 -0.6597 256.7354 403.2684)" class="st6" width="2.8" height="2.8"/>
		
			<rect x="35.4" y="254.3" transform="matrix(-0.6597 0.7516 -0.7516 -0.6597 253.2966 396.825)" class="st6" width="2.8" height="2.8"/>
		
			<rect x="39.1" y="250.1" transform="matrix(-0.6597 0.7516 -0.7516 -0.6597 256.3011 386.9427)" class="st6" width="2.8" height="2.8"/>
		
			<rect x="31.1" y="250.6" transform="matrix(-0.6597 0.7516 -0.7516 -0.6597 243.4144 393.8204)" class="st6" width="2.8" height="2.8"/>
		
			<rect x="34.9" y="246.3" transform="matrix(-0.6597 0.7516 -0.7516 -0.6597 246.4189 383.9382)" class="st6" width="2.8" height="2.8"/>
		
			<rect x="38.9" y="246.1" transform="matrix(-0.6597 0.7516 -0.7516 -0.6597 252.8623 380.4993)" class="st6" width="2.8" height="2.8"/>
		
			<rect x="35.1" y="250.3" transform="matrix(-0.6597 0.7516 -0.7516 -0.6597 249.8578 390.3816)" class="st6" width="2.8" height="2.8"/>
		
			<rect x="31.4" y="254.6" transform="matrix(-0.6597 0.7516 -0.7516 -0.6597 246.8532 400.2638)" class="st6" width="2.8" height="2.8"/>
		
			<rect x="41" y="248" transform="matrix(-0.6597 0.7516 -0.7516 -0.6597 257.8034 382.0016)" class="st5" width="2.8" height="2.8"/>
		
			<rect x="37.3" y="252.2" transform="matrix(-0.6597 0.7516 -0.7516 -0.6597 254.7989 391.8839)" class="st5" width="2.8" height="2.8"/>
		
			<rect x="33" y="248.5" transform="matrix(-0.6597 0.7516 -0.7516 -0.6597 244.9166 388.8793)" class="st5" width="2.8" height="2.8"/>
		
			<rect x="33.5" y="256.5" transform="matrix(-0.6597 0.7516 -0.7516 -0.6597 251.7943 401.7661)" class="st5" width="2.8" height="2.8"/>
		
			<rect x="36.7" y="244.2" transform="matrix(-0.6597 0.7516 -0.7516 -0.6597 247.9212 378.997)" class="st5" width="2.8" height="2.8"/>
		
			<rect x="29.3" y="252.7" transform="matrix(-0.6597 0.7516 -0.7516 -0.6597 241.9121 398.7615)" class="st5" width="2.8" height="2.8"/>
	</g>
	<g>
		<g>
			<path class="st6" d="M462.8,426.3c0,1.6-1.3,2.8-2.8,2.8H91.1c-1.6,0-2.8-1.3-2.8-2.8v-24.9c0-1.6,1.3-2.8,2.8-2.8h368.8
				c1.6,0,2.8,1.3,2.8,2.8V426.3z"/>
			<path class="st13" d="M462.8,426.3c0,1.6-1.3,2.8-2.8,2.8H91.1c-1.6,0-2.8-1.3-2.8-2.8v-24.9c0-1.6,1.3-2.8,2.8-2.8h368.8
				c1.6,0,2.8,1.3,2.8,2.8V426.3z"/>
		</g>
		<g>
			<path class="st5" d="M133.8,415.3v2.6c0,1.3-0.6,1.7-1.3,2h-3.3c-0.7-0.3-1.3-0.7-1.3-2v-2h1.8v2.1l0.4,0.4h1.6l0.4-0.4v-2.8
				l-0.3-0.4L129,414c-0.8-0.3-1.1-0.8-1.1-1.9v-2.2c0-1.3,0.6-1.7,1.3-2h3.3c0.7,0.3,1.3,0.7,1.3,2v1.9H132v-2.1l-0.4-0.4h-1.6
				l-0.4,0.4v2.4l0.4,0.4l2.6,0.7C133.4,413.6,133.8,414.1,133.8,415.3z"/>
			<path class="st5" d="M135.1,407.9h5.1v1.6h-3.3v3.4h3.1v1.6h-3.1v3.7h3.4v1.6h-5.2V407.9z"/>
			<path class="st5" d="M147.5,417.9c0,1.3-0.6,1.7-1.3,2h-3.3c-0.7-0.3-1.3-0.7-1.3-2v-8c0-1.3,0.6-1.7,1.3-2h3.3
				c0.7,0.3,1.3,0.7,1.3,2v2.7h-1.8v-2.8l-0.4-0.4h-1.6l-0.4,0.4v8.3l0.4,0.4h1.6l0.4-0.4v-2.7h1.8V417.9z"/>
			<path class="st5" d="M152.2,409.5v10.3h-1.8v-10.3h-2.1v-1.6h6.1v1.6H152.2z"/>
			<path class="st5" d="M161.1,417.9c0,1.3-0.6,1.7-1.3,2h-3.3c-0.7-0.3-1.3-0.7-1.3-2v-8c0-1.3,0.6-1.7,1.3-2h3.3
				c0.7,0.3,1.3,0.7,1.3,2V417.9z M159.3,409.7l-0.4-0.4h-1.6l-0.4,0.4v8.3l0.4,0.4h1.6l0.4-0.4V409.7z"/>
			<path class="st5" d="M162.5,419.8v-12h4.6c0.7,0.3,1.3,0.7,1.3,2v2.6c0,1.3-0.6,1.6-1.3,1.9l-0.3,0.1l2.1,4.3v1.1h-1.6l-2.2-5.1
				h-0.8v5.1H162.5z M164.3,409.4v3.9h2l0.4-0.4v-3.1l-0.4-0.4H164.3z"/>
			<path class="st5" d="M172.6,419.8v-1.6h1.8v-8.7h-1.7v-1.6h3.5v10.4h1.7v1.6H172.6z"/>
		</g>
		<line class="st14" x1="102.5" y1="413.9" x2="123.7" y2="413.9"/>
		<g>
			<path class="st5" d="M223.9,415.3v2.6c0,1.3-0.6,1.7-1.3,2h-3.3c-0.7-0.3-1.3-0.7-1.3-2v-2h1.8v2.1l0.4,0.4h1.6l0.4-0.4v-2.8
				l-0.3-0.4l-2.6-0.8c-0.8-0.3-1.1-0.8-1.1-1.9v-2.2c0-1.3,0.6-1.7,1.3-2h3.3c0.7,0.3,1.3,0.7,1.3,2v1.9h-1.8v-2.1l-0.4-0.4h-1.6
				l-0.4,0.4v2.4l0.4,0.4l2.6,0.7C223.5,413.6,223.9,414.1,223.9,415.3z"/>
			<path class="st5" d="M225.2,407.9h5.1v1.6H227v3.4h3.1v1.6H227v3.7h3.4v1.6h-5.2V407.9z"/>
			<path class="st5" d="M237.6,417.9c0,1.3-0.6,1.7-1.3,2h-3.3c-0.7-0.3-1.3-0.7-1.3-2v-8c0-1.3,0.6-1.7,1.3-2h3.3
				c0.7,0.3,1.3,0.7,1.3,2v2.7h-1.8v-2.8l-0.4-0.4h-1.6l-0.4,0.4v8.3l0.4,0.4h1.6l0.4-0.4v-2.7h1.8V417.9z"/>
			<path class="st5" d="M242.3,409.5v10.3h-1.8v-10.3h-2.1v-1.6h6.1v1.6H242.3z"/>
			<path class="st5" d="M251.2,417.9c0,1.3-0.6,1.7-1.3,2h-3.3c-0.7-0.3-1.3-0.7-1.3-2v-8c0-1.3,0.6-1.7,1.3-2h3.3
				c0.7,0.3,1.3,0.7,1.3,2V417.9z M249.4,409.7l-0.4-0.4h-1.6l-0.4,0.4v8.3l0.4,0.4h1.6l0.4-0.4V409.7z"/>
			<path class="st5" d="M252.6,419.8v-12h4.6c0.7,0.3,1.3,0.7,1.3,2v2.6c0,1.3-0.6,1.6-1.3,1.9l-0.3,0.1l2.1,4.3v1.1h-1.6l-2.2-5.1
				h-0.8v5.1H252.6z M254.4,409.4v3.9h2l0.4-0.4v-3.1l-0.4-0.4H254.4z"/>
			<path class="st5" d="M262.3,419.8v-3.6c0-1.1,0.4-1.7,1.2-2.1l3-1.2v-3.2l-0.4-0.4h-1.7l-0.4,0.4v2h-1.8v-1.9
				c0-1.3,0.6-1.7,1.3-2h3.3c0.7,0.3,1.3,0.7,1.3,2v2.5c0,1.1-0.3,1.7-1.1,2.1l-3,1.2v2.5h4.1v1.6H262.3z"/>
		</g>
		<line class="st15" x1="192.6" y1="413.9" x2="213.8" y2="413.9"/>
		<g>
			<path class="st5" d="M313.7,415.3v2.6c0,1.3-0.6,1.7-1.3,2h-3.3c-0.7-0.3-1.3-0.7-1.3-2v-2h1.8v2.1l0.4,0.4h1.6l0.4-0.4v-2.8
				l-0.3-0.4L309,414c-0.8-0.3-1.1-0.8-1.1-1.9v-2.2c0-1.3,0.6-1.7,1.3-2h3.3c0.7,0.3,1.3,0.7,1.3,2v1.9h-1.8v-2.1l-0.4-0.4H310
				l-0.4,0.4v2.4l0.4,0.4l2.6,0.7C313.4,413.6,313.7,414.1,313.7,415.3z"/>
			<path class="st5" d="M315.1,407.9h5.1v1.6h-3.3v3.4h3.1v1.6h-3.1v3.7h3.4v1.6h-5.2V407.9z"/>
			<path class="st5" d="M327.4,417.9c0,1.3-0.6,1.7-1.3,2h-3.3c-0.7-0.3-1.3-0.7-1.3-2v-8c0-1.3,0.6-1.7,1.3-2h3.3
				c0.7,0.3,1.3,0.7,1.3,2v2.7h-1.8v-2.8l-0.4-0.4h-1.6l-0.4,0.4v8.3l0.4,0.4h1.6l0.4-0.4v-2.7h1.8V417.9z"/>
			<path class="st5" d="M332.1,409.5v10.3h-1.8v-10.3h-2.1v-1.6h6.1v1.6H332.1z"/>
			<path class="st5" d="M341,417.9c0,1.3-0.6,1.7-1.3,2h-3.3c-0.7-0.3-1.3-0.7-1.3-2v-8c0-1.3,0.6-1.7,1.3-2h3.3
				c0.7,0.3,1.3,0.7,1.3,2V417.9z M339.2,409.7l-0.4-0.4h-1.6l-0.4,0.4v8.3l0.4,0.4h1.6l0.4-0.4V409.7z"/>
			<path class="st5" d="M342.4,419.8v-12h4.6c0.7,0.3,1.3,0.7,1.3,2v2.6c0,1.3-0.6,1.6-1.3,1.9l-0.3,0.1l2.1,4.3v1.1h-1.6l-2.2-5.1
				h-0.8v5.1H342.4z M344.2,409.4v3.9h2l0.4-0.4v-3.1l-0.4-0.4H344.2z"/>
			<path class="st5" d="M353.4,419.8c-0.7-0.3-1.3-0.7-1.3-2v-1.7h1.8v1.8l0.4,0.4h1.7l0.4-0.4v-3.2l-0.4-0.3h-1.8V413h1.8l0.4-0.4
				v-3l-0.4-0.4h-1.7l-0.4,0.4v1.8h-1.8v-1.7c0-1.3,0.6-1.7,1.3-2h3.3c0.7,0.3,1.3,0.7,1.3,2v1.9c0,1-0.2,1.5-0.9,1.9
				c0.6,0.4,0.9,0.9,0.9,1.9v2.2c0,1.3-0.6,1.7-1.3,2H353.4z"/>
		</g>
		<line class="st16" x1="282.4" y1="413.9" x2="303.7" y2="413.9"/>
		<g>
			<path class="st5" d="M403.6,417.9c0,1.3-0.6,1.7-1.3,2h-4.6v-12h4.6c0.7,0.3,1.3,0.7,1.3,2V417.9z M399.5,409.4v9h2l0.4-0.4v-8.3
				l-0.4-0.4H399.5z"/>
			<path class="st5" d="M405,419.8v-12h4.6c0.7,0.3,1.3,0.7,1.3,2v2.6c0,1.3-0.6,1.6-1.3,1.9l-0.3,0.1l2.1,4.3v1.1h-1.6l-2.2-5.1
				h-0.8v5.1H405z M406.8,409.4v3.9h2l0.4-0.4v-3.1l-0.4-0.4H406.8z"/>
			<path class="st5" d="M418.1,415.3v2.6c0,1.3-0.6,1.7-1.3,2h-3.3c-0.7-0.3-1.3-0.7-1.3-2v-2h1.8v2.1l0.4,0.4h1.6l0.4-0.4v-2.8
				l-0.3-0.4l-2.6-0.8c-0.8-0.3-1.1-0.8-1.1-1.9v-2.2c0-1.3,0.6-1.7,1.3-2h3.3c0.7,0.3,1.3,0.7,1.3,2v1.9h-1.8v-2.1l-0.4-0.4h-1.6
				l-0.4,0.4v2.4l0.4,0.4l2.6,0.7C417.7,413.6,418.1,414.1,418.1,415.3z"/>
			<path class="st5" d="M425.6,409.5h-3.9v-1.6h5.8v1.5l-4,8.9h4v1.6h-5.9v-1.5L425.6,409.5z"/>
			<path class="st5" d="M434.8,417.9c0,1.3-0.6,1.7-1.3,2h-3.3c-0.7-0.3-1.3-0.7-1.3-2v-8c0-1.3,0.6-1.7,1.3-2h3.3
				c0.7,0.3,1.3,0.7,1.3,2V417.9z M433,409.7l-0.4-0.4H431l-0.4,0.4v8.3l0.4,0.4h1.6l0.4-0.4V409.7z"/>
			<path class="st5" d="M440.5,407.9h1.6v12h-1.6l-2.6-7.1h-0.2v7.1h-1.6v-12h1.6l2.6,7.1h0.2V407.9z"/>
			<path class="st5" d="M443.5,407.9h5.1v1.6h-3.3v3.4h3.1v1.6h-3.1v3.7h3.4v1.6h-5.2V407.9z"/>
		</g>
		<g>
			<g>
				<g>
					<g>
						<line class="st17" x1="373.7" y1="406.5" x2="373.7" y2="421.4"/>
					</g>
					<g>
						<path class="st7" d="M381.3,413.9c0,0.8-0.7,1.4-1.5,1.4c-0.8,0-1.5-0.6-1.5-1.4c0-0.8,0.7-1.4,1.5-1.4
							C380.7,412.5,381.3,413.2,381.3,413.9z"/>
					</g>
					<g>
						<ellipse class="st7" cx="385.9" cy="413.9" rx="1.5" ry="1.4"/>
					</g>
					<g>
						<line class="st17" x1="392" y1="406.5" x2="392" y2="421.4"/>
					</g>
				</g>
			</g>
		</g>
	</g>
	<g>
		<defs>
			
				<rect id="SVGID_1_" x="63.8" y="280" transform="matrix(-0.7498 -0.6616 0.6616 -0.7498 -56.8328 547.0021)" width="22.3" height="8.5"/>
		</defs>
		<clipPath id="SVGID_00000080166025381905260710000009509941486702897086_">
			<use xlink:href="#SVGID_1_"  style="overflow:visible;"/>
		</clipPath>
		<g style="clip-path:url(#SVGID_00000080166025381905260710000009509941486702897086_);">
			<polygon class="st19" points="72.2,272.4 74.4,274.2 73.9,283.3 65,284.9 62.9,283 71.8,281.4 			"/>
			<polygon class="st20" points="76.5,276.1 78.6,278 78.2,287.1 69.2,288.6 67.1,286.7 76.1,285.2 			"/>
			<polygon class="st21" points="80.8,279.9 82.9,281.7 82.4,290.8 73.5,292.4 71.4,290.5 80.3,288.9 			"/>
		</g>
	</g>
</g>
</svg>
