<?xml version="1.0" encoding="utf-8"?>
<!-- Generator: Adobe Illustrator 26.5.0, SVG Export Plug-In . SVG Version: 6.00 Build 0)  -->
<svg version="1.1" xmlns="http://www.w3.org/2000/svg" xmlns:xlink="http://www.w3.org/1999/xlink" x="0px" y="0px"
	 viewBox="0.0 0.0 425.8 336.4" style="enable-background:new 0 0 425.8 443.7;" xml:space="preserve">
<style type="text/css">
	.st0{fill:none;stroke:#646464;stroke-width:14.1732;stroke-miterlimit:10;}
	.st1{fill:none;stroke:#F4442E;stroke-width:2.8346;stroke-miterlimit:10;}
	.st2{fill:none;stroke:#FFD449;stroke-width:2.8346;stroke-miterlimit:10;}
	.st3{fill:none;stroke:#54C6EB;stroke-width:2.8346;stroke-miterlimit:10;}
	.st4{fill:none;stroke:#FFFFFF;stroke-width:2.126;}
	.st5{fill:#646464;}
	.st6{fill:#FFFFFF;}
	.st7{fill:none;stroke:#646464;stroke-width:2.8346;stroke-miterlimit:10;}
	.st8{fill:#09BC8A;}
	.st9{fill:none;stroke:#09BC8A;stroke-width:1.9843;stroke-miterlimit:10;}
	.st10{fill:none;stroke:#09BC8A;stroke-width:2.2097;stroke-miterlimit:10;}
	.st11{fill:#FF3380;}
	.st12{fill:none;stroke:#FF3380;stroke-width:1.9843;stroke-miterlimit:10;}
	.st13{clip-path:url(#SVGID_00000158025279802474530770000003080184091865051046_);}
	.st14{fill:#F4442E;}
	.st15{fill:#54C6EB;}
	.st16{fill:#FFD449;}
	.st17{fill:none;stroke:#646464;stroke-width:0.7087;stroke-miterlimit:10;}
	.st18{fill:none;stroke:#F4442E;stroke-width:5.6693;stroke-miterlimit:10;}
	.st19{fill:none;stroke:#54C6EB;stroke-width:5.6693;stroke-miterlimit:10;}
	.st20{fill:none;stroke:#FFD449;stroke-width:5.6693;stroke-miterlimit:10;}
	.st21{fill:none;stroke:#09BC8A;stroke-width:2.8346;stroke-miterlimit:10;}
</style>
<g id="コース">
	<path class="st0" d="M284.4,322.9c0,0-224.9,0-231.8,0s-9.1-3.6-9.1-7s0.8-5.5,4.7-8.8c4-3.3,14-10.3,18.2-13.1s19-9.2,33.8-9.2
		s60.6,0,65.4,0c4.8,0,14.7-4.3,14.7-14.5c0-10.2-9.1-13.9-12.2-15.5s-21.2-8.6-24-10c-2.9-1.4-8.5-3.4-10-12.6
		c-1.5-9.2-18.9-90.8-19.9-96.4s-2-13.9-1.8-20.5c0.2-6.6,0.3-10,0.3-13.1s0.1-5-2.4-6.9c-2.5-1.9-35.9-25.8-40.4-29.7
		s-8.5-9.1-6.5-20c2-10.9,11.7-13.3,25.2-14c13.5-0.8,26.1,1.9,32.7,2.7c6.6,0.9,23.5,3.5,26.5,4.1c3,0.5,4.5,1.1,5.9,2.7
		c1.4,1.6,0.7,3.8,0.7,5.9s-0.9,5.7,1.8,7.9s30.1,22.9,33.5,25c3.4,2.1,8.7,4.4,13.6,1.6s20-11.6,22.4-12.8s10.3-1.6,13.8,1.9
		c3.5,3.5,17.5,27.2,19.3,31.4s7.8,13,10.8,15.5s12.5,6.6,21.2,9.3s14.3,4.1,18.3,5.6c4.1,1.5,13.2,6.5,13.1,18
		c-0.1,11.5-5.6,106.2-5.8,109.6s-2.7,8-11.1,6.8c-8.3-1.2-31.9-5.4-49.5-5.5c-10.5-0.1-15.5,6-15.3,12.6
		c0.2,5.5,4.1,11.6,12.5,11.6c18.5,0,30.7,0,40.8,0c10.1,0,16.5,10.1,16.5,18.4c0,9.8-6.5,18.8-17.1,18.8
		C290.9,322.9,284.4,322.9,284.4,322.9z"/>
</g>
<g id="セクター">
	<path class="st1" d="M233.7,322.9c-66.8,0-176.3,0-181.1,0c-7,0-9.1-3.6-9.1-7s0.8-5.5,4.7-8.8c4-3.3,14-10.3,18.2-13.1
		s19-9.2,33.8-9.2s60.6,0,65.4,0s14.7-4.3,14.7-14.5c0-10.2-9.1-13.9-12.2-15.5s-21.2-8.6-24-10c-2.9-1.4-8.5-3.4-10-12.6
		c-1.4-8.4-15.9-76.7-19.2-93.1"/>
	<path class="st2" d="M321.3,172.9c-1.6,31.8-4.7,84.7-4.8,87.2c-0.2,3.4-2.7,8-11.1,6.8c-8.3-1.2-31.9-5.4-49.5-5.5
		c-10.5-0.1-15.5,6-15.3,12.6c0.2,5.5,4.1,11.6,12.5,11.6c18.5,0,30.7,0,40.8,0s16.5,10.1,16.5,18.4c0,9.8-6.5,18.8-17.1,18.8
		c-2.4,0-8.9,0-8.9,0s-21.2,0-50.7,0"/>
	<path class="st3" d="M114.9,139.1c-0.3-1.6-0.5-2.7-0.6-3.2c-1-5.6-2-13.9-1.8-20.5c0.2-6.6,0.3-10,0.3-13.1s0.1-5-2.4-6.9
		S74.5,69.6,70,65.6c-4.5-4-8.5-9.1-6.5-20c2-10.9,11.7-13.3,25.2-14c13.5-0.8,26.1,1.9,32.7,2.7c6.6,0.9,23.5,3.5,26.5,4.1
		c3,0.5,4.5,1.1,5.9,2.7c1.4,1.6,0.7,3.8,0.7,5.9s-0.9,5.7,1.8,7.9s30.1,22.9,33.5,25c3.4,2.1,8.7,4.4,13.6,1.6
		c4.9-2.7,20-11.6,22.4-12.8c2.4-1.2,10.3-1.6,13.8,1.9c3.5,3.5,17.5,27.2,19.3,31.4c1.9,4.2,7.8,13,10.8,15.5s12.5,6.6,21.2,9.3
		s14.3,4.1,18.3,5.6c4.1,1.5,13.2,6.5,13.1,18c0,3-0.4,11.4-1,22.4"/>
</g>
<g id="コーナー番号">
	<g>
		<g>
			<circle class="st4" cx="23.7" cy="322.5" r="8.5"/>
			<circle class="st5" cx="23.7" cy="322.5" r="8.5"/>
		</g>
		<g>
			<path class="st6" d="M22,326.4v-1.6h1v-4.5h-0.9v-1.6h2.6v6.1h0.9v1.6H22z"/>
		</g>
	</g>
	<g>
		<g>
			<circle class="st4" cx="199" cy="270.2" r="8.5"/>
			<circle class="st5" cx="199" cy="270.2" r="8.5"/>
		</g>
		<g>
			<path class="st6" d="M196.9,274.1v-2.6c0-0.6,0.1-1,0.6-1.2l1.9-0.8v-1.6l-0.1-0.1h-0.5l-0.1,0.1v1.1h-1.7v-1.3
				c0-0.8,0.4-1.1,0.8-1.3h2.5c0.5,0.2,0.8,0.5,0.8,1.3v1.9c0,0.6-0.1,0.9-0.6,1.2l-1.9,0.8v0.9h2.4v1.6H196.9z"/>
		</g>
	</g>
	<g>
		<g>
			<circle class="st4" cx="119.2" cy="250.1" r="8.5"/>
			<circle class="st5" cx="119.2" cy="250.1" r="8.5"/>
		</g>
		<g>
			<path class="st6" d="M118,254c-0.5-0.2-0.8-0.5-0.8-1.3v-1h1.7v0.8l0.1,0.1h0.5l0.1-0.1v-1.6l-0.1-0.1h-1v-1.3h1l0.1-0.1v-1.5
				l-0.1-0.1H119l-0.1,0.1v0.8h-1.7v-1c0-0.8,0.4-1.1,0.8-1.3h2.5c0.5,0.2,0.8,0.5,0.8,1.3v1.3c0,0.6-0.2,0.9-0.6,1.2
				c0.4,0.3,0.6,0.6,0.6,1.2v1.4c0,0.8-0.4,1.1-0.8,1.3H118z"/>
		</g>
	</g>
	<g>
		<g>
			<circle class="st4" cx="130.4" cy="91.4" r="8.5"/>
			<circle class="st5" cx="130.4" cy="91.4" r="8.5"/>
		</g>
		<g>
			<path class="st6" d="M132.1,93.8v1.5h-1.7v-1.5h-2.2v-1.5l1.6-4.7h1.7l-1.6,4.6h0.5v-0.4l0.4-1h1.3v1.4h0.5v1.6H132.1z"/>
		</g>
	</g>
	<g>
		<g>
			<circle class="st4" cx="44.2" cy="41.9" r="8.5"/>
			<circle class="st5" cx="44.2" cy="41.9" r="8.5"/>
		</g>
		<g>
			<path class="st6" d="M43,45.8c-0.5-0.2-0.8-0.5-0.8-1.3v-1h1.6v0.8l0.1,0.1h0.6l0.1-0.1v-2.1l-0.1-0.1h-0.6l-0.1,0.1v0.4h-1.6
				v-4.5h4v1.5h-2.4v1.6l0.4-0.4h1.3c0.5,0.2,0.8,0.5,0.8,1.3v2.4c0,0.8-0.4,1.1-0.8,1.3H43z"/>
		</g>
	</g>
	<g>
		<g>
			<circle class="st4" cx="167.6" cy="23.7" r="8.5"/>
			<circle class="st5" cx="167.6" cy="23.7" r="8.5"/>
		</g>
		<g>
			<path class="st6" d="M168.8,27.6h-2.5c-0.5-0.2-0.8-0.5-0.8-1.3v-5.1c0-0.8,0.4-1.1,0.8-1.3h2.5c0.5,0.2,0.8,0.5,0.8,1.3v1H168
				v-0.8l-0.1-0.1h-0.5l-0.1,0.1v1.8l0.3-0.3h1.3c0.5,0.2,0.8,0.5,0.8,1.3v2.2C169.7,27.2,169.3,27.5,168.8,27.6z M167.9,26.2
				l0.1-0.1v-1.8l-0.1-0.1h-0.5l-0.1,0.1v1.8l0.1,0.1H167.9z"/>
		</g>
	</g>
	<g>
		<g>
			<circle class="st4" cx="138.3" cy="63.4" r="8.5"/>
			<circle class="st5" cx="138.3" cy="63.4" r="8.5"/>
		</g>
		<g>
			<path class="st6" d="M136.5,67.3l2.1-6.2h-2.4v-1.5h4.1v1.2l-2.1,6.5H136.5z"/>
		</g>
	</g>
	<g>
		<g>
			<circle class="st4" cx="199.8" cy="102" r="8.5"/>
			<circle class="st5" cx="199.8" cy="102" r="8.5"/>
		</g>
		<g>
			<path class="st6" d="M198.6,105.8c-0.5-0.2-0.8-0.5-0.8-1.3v-1.4c0-0.6,0.2-0.9,0.6-1.2c-0.4-0.3-0.6-0.6-0.6-1.2v-1.3
				c0-0.8,0.4-1.1,0.8-1.3h2.5c0.5,0.2,0.8,0.5,0.8,1.3v1.3c0,0.6-0.2,0.9-0.6,1.2c0.4,0.3,0.6,0.6,0.6,1.2v1.4
				c0,0.8-0.4,1.1-0.8,1.3H198.6z M199.5,101.2l0.1,0.1h0.5l0.1-0.1v-1.5l-0.1-0.1h-0.5l-0.1,0.1V101.2z M200.2,104.3v-1.6l-0.1-0.1
				h-0.5l-0.1,0.1v1.6l0.1,0.1h0.5L200.2,104.3z"/>
		</g>
	</g>
	<g>
		<g>
			<circle class="st4" cx="237" cy="48.2" r="8.5"/>
			<circle class="st5" cx="237" cy="48.2" r="8.5"/>
		</g>
		<g>
			<path class="st6" d="M235.7,52c-0.5-0.2-0.8-0.5-0.8-1.3v-1h1.7v0.8l0.1,0.1h0.5l0.1-0.1v-1.8l-0.3,0.3h-1.3
				c-0.5-0.2-0.8-0.5-0.8-1.3v-2.2c0-0.8,0.4-1.1,0.8-1.3h2.5c0.5,0.2,0.8,0.5,0.8,1.3v5.1c0,0.8-0.4,1.1-0.8,1.3H235.7z
				 M237.3,47.7v-1.8l-0.1-0.1h-0.5l-0.1,0.1v1.8l0.1,0.1h0.5L237.3,47.7z"/>
		</g>
	</g>
	<g>
		<g>
			<circle class="st4" cx="262.2" cy="136.3" r="8.5"/>
			<circle class="st5" cx="262.2" cy="136.3" r="8.5"/>
		</g>
		<g>
			<path class="st6" d="M258.2,140.2v-1.6h1v-4.5h-0.9v-1.6h2.6v6.1h0.9v1.6H258.2z"/>
			<path class="st6" d="M265.8,140.2h-2.5c-0.5-0.2-0.8-0.5-0.8-1.3v-5.1c0-0.8,0.4-1.1,0.8-1.3h2.5c0.5,0.2,0.8,0.5,0.8,1.3v5.1
				C266.7,139.8,266.3,140.1,265.8,140.2z M265,134.1l-0.1-0.1h-0.5l-0.1,0.1v4.7l0.1,0.1h0.5l0.1-0.1V134.1z"/>
		</g>
	</g>
	<g>
		<g>
			<circle class="st4" cx="338.7" cy="133.1" r="8.5"/>
			<circle class="st5" cx="338.7" cy="133.1" r="8.5"/>
		</g>
		<g>
			<path class="st6" d="M334.7,136.9v-1.6h1v-4.5h-0.9v-1.6h2.6v6.1h0.9v1.6H334.7z"/>
			<path class="st6" d="M339.4,136.9v-1.6h1v-4.5h-0.9v-1.6h2.6v6.1h0.9v1.6H339.4z"/>
		</g>
	</g>
	<g>
		<g>
			<circle class="st4" cx="296.4" cy="246.3" r="8.5"/>
			<circle class="st5" cx="296.4" cy="246.3" r="8.5"/>
		</g>
		<g>
			<path class="st6" d="M292.4,250.2v-1.6h1v-4.5h-0.9v-1.6h2.6v6.1h0.9v1.6H292.4z"/>
			<path class="st6" d="M296.7,250.2v-2.6c0-0.6,0.1-1,0.6-1.2l1.9-0.8V244l-0.1-0.1h-0.5l-0.1,0.1v1.1h-1.7v-1.3
				c0-0.8,0.4-1.1,0.8-1.3h2.5c0.5,0.2,0.8,0.5,0.8,1.3v1.9c0,0.6-0.1,0.9-0.6,1.2l-1.9,0.8v0.9h2.4v1.6H296.7z"/>
		</g>
	</g>
	<g>
		<g>
			<circle class="st4" cx="221.1" cy="272" r="8.5"/>
			<circle class="st5" cx="221.1" cy="272" r="8.5"/>
		</g>
		<g>
			<path class="st6" d="M217.1,275.9v-1.6h1v-4.5h-0.9v-1.6h2.6v6.1h0.9v1.6H217.1z"/>
			<path class="st6" d="M222.2,275.9c-0.5-0.2-0.8-0.5-0.8-1.3v-1h1.7v0.8l0.1,0.1h0.5l0.1-0.1v-1.6l-0.1-0.1h-1v-1.3h1l0.1-0.1
				v-1.5l-0.1-0.1h-0.5l-0.1,0.1v0.8h-1.7v-1c0-0.8,0.4-1.1,0.8-1.3h2.5c0.5,0.2,0.8,0.5,0.8,1.3v1.3c0,0.6-0.2,0.9-0.6,1.2
				c0.4,0.3,0.6,0.6,0.6,1.2v1.4c0,0.8-0.4,1.1-0.8,1.3H222.2z"/>
		</g>
	</g>
	<g>
		<g>
			<circle class="st4" cx="332.5" cy="307.3" r="8.5"/>
			<circle class="st5" cx="332.5" cy="307.3" r="8.5"/>
		</g>
		<g>
			<path class="st6" d="M328.5,311.2v-1.6h1v-4.5h-0.9v-1.6h2.6v6.1h0.9v1.6H328.5z"/>
			<path class="st6" d="M336.5,309.7v1.5h-1.7v-1.5h-2.2v-1.5l1.6-4.7h1.7l-1.6,4.6h0.5v-0.4l0.4-1h1.3v1.4h0.5v1.6H336.5z"/>
		</g>
	</g>
</g>



</svg>
