<?xml version="1.0" encoding="utf-8"?>
<!-- Generator: Adobe Illustrator 26.5.0, SVG Export Plug-In . SVG Version: 6.00 Build 0)  -->
<svg version="1.1" xmlns="http://www.w3.org/2000/svg" xmlns:xlink="http://www.w3.org/1999/xlink" x="0px" y="0px"
	 viewBox="0.0 0.0 425.8 336.4" style="enable-background:new 0 0 425.8 443.7;" xml:space="preserve">
<style type="text/css">
	.st0{fill:none;stroke:#646464;stroke-width:4.471;stroke-miterlimit:10;}
	.st1{fill:none;stroke:#F4442E;stroke-width:0.894;stroke-miterlimit:10;}
	.st2{fill:none;stroke:#FFD449;stroke-width:0.894;stroke-miterlimit:10;}
	.st3{fill:none;stroke:#54C6EB;stroke-width:0.894;stroke-miterlimit:10;}
	.st4{fill:none;stroke:#FFFFFF;stroke-width:0.671;}
	.st5{fill:#646464;}
	.st6{fill:#FFFFFF;}
	.st7{fill:none;stroke:#646464;stroke-width:0.894;stroke-miterlimit:10;}
	.st8{fill:#09BC8A;}
	.st9{fill:none;stroke:#09BC8A;stroke-width:0.626;stroke-miterlimit:10;}
	.st10{fill:none;stroke:#09BC8A;stroke-width:0.697;stroke-miterlimit:10;}
	.st11{fill:#FF3380;}
	.st12{fill:none;stroke:#FF3380;stroke-width:0.626;stroke-miterlimit:10;}
	.st13{clip-path:url(#SVGID_00000158025279802474530770000003080184091865051046_);}
	.st14{fill:#F4442E;}
	.st15{fill:#54C6EB;}
	.st16{fill:#FFD449;}
	.st17{fill:none;stroke:#646464;stroke-width:0.224;stroke-miterlimit:10;}
	.st18{fill:none;stroke:#F4442E;stroke-width:1.788;stroke-miterlimit:10;}
	.st19{fill:none;stroke:#54C6EB;stroke-width:1.788;stroke-miterlimit:10;}
	.st20{fill:none;stroke:#FFD449;stroke-width:1.788;stroke-miterlimit:10;}
	.st21{fill:none;stroke:#09BC8A;stroke-width:0.894;stroke-miterlimit:10;}
</style>
<g id="コース">
	<path class="st0" d="M284.4,322.9c0,0-224.9,0-231.8,0s-9.1-3.6-9.1-7s0.8-5.5,4.7-8.8c4-3.3,14-10.3,18.2-13.1s19-9.2,33.8-9.2
		s60.6,0,65.4,0c4.8,0,14.7-4.3,14.7-14.5c0-10.2-9.1-13.9-12.2-15.5s-21.2-8.6-24-10c-2.9-1.4-8.5-3.4-10-12.6
		c-1.5-9.2-18.9-90.8-19.9-96.4s-2-13.9-1.8-20.5c0.2-6.6,0.3-10,0.3-13.1s0.1-5-2.4-6.9c-2.5-1.9-35.9-25.8-40.4-29.7
		s-8.5-9.1-6.5-20c2-10.9,11.7-13.3,25.2-14c13.5-0.8,26.1,1.9,32.7,2.7c6.6,0.9,23.5,3.5,26.5,4.1c3,0.5,4.5,1.1,5.9,2.7
		c1.4,1.6,0.7,3.8,0.7,5.9s-0.9,5.7,1.8,7.9s30.1,22.9,33.5,25c3.4,2.1,8.7,4.4,13.6,1.6s20-11.6,22.4-12.8s10.3-1.6,13.8,1.9
		c3.5,3.5,17.5,27.2,19.3,31.4s7.8,13,10.8,15.5s12.5,6.6,21.2,9.3s14.3,4.1,18.3,5.6c4.1,1.5,13.2,6.5,13.1,18
		c-0.1,11.5-5.6,106.2-5.8,109.6s-2.7,8-11.1,6.8c-8.3-1.2-31.9-5.4-49.5-5.5c-10.5-0.1-15.5,6-15.3,12.6
		c0.2,5.5,4.1,11.6,12.5,11.6c18.5,0,30.7,0,40.8,0c10.1,0,16.5,10.1,16.5,18.4c0,9.8-6.5,18.8-17.1,18.8
		C290.9,322.9,284.4,322.9,284.4,322.9z"/>
</g>
<g id="セクター">
	<path class="st1" d="M233.7,322.9c-66.8,0-176.3,0-181.1,0c-7,0-9.1-3.6-9.1-7s0.8-5.5,4.7-8.8c4-3.3,14-10.3,18.2-13.1
		s19-9.2,33.8-9.2s60.6,0,65.4,0s14.7-4.3,14.7-14.5c0-10.2-9.1-13.9-12.2-15.5s-21.2-8.6-24-10c-2.9-1.4-8.5-3.4-10-12.6
		c-1.4-8.4-15.9-76.7-19.2-93.1"/>
	<path class="st2" d="M321.3,172.9c-1.6,31.8-4.7,84.7-4.8,87.2c-0.2,3.4-2.7,8-11.1,6.8c-8.3-1.2-31.9-5.4-49.5-5.5
		c-10.5-0.1-15.5,6-15.3,12.6c0.2,5.5,4.1,11.6,12.5,11.6c18.5,0,30.7,0,40.8,0s16.5,10.1,16.5,18.4c0,9.8-6.5,18.8-17.1,18.8
		c-2.4,0-8.9,0-8.9,0s-21.2,0-50.7,0"/>
	<path class="st3" d="M114.9,139.1c-0.3-1.6-0.5-2.7-0.6-3.2c-1-5.6-2-13.9-1.8-20.5c0.2-6.6,0.3-10,0.3-13.1s0.1-5-2.4-6.9
		S74.5,69.6,70,65.6c-4.5-4-8.5-9.1-6.5-20c2-10.9,11.7-13.3,25.2-14c13.5-0.8,26.1,1.9,32.7,2.7c6.6,0.9,23.5,3.5,26.5,4.1
		c3,0.5,4.5,1.1,5.9,2.7c1.4,1.6,0.7,3.8,0.7,5.9s-0.9,5.7,1.8,7.9s30.1,22.9,33.5,25c3.4,2.1,8.7,4.4,13.6,1.6
		c4.9-2.7,20-11.6,22.4-12.8c2.4-1.2,10.3-1.6,13.8,1.9c3.5,3.5,17.5,27.2,19.3,31.4c1.9,4.2,7.8,13,10.8,15.5s12.5,6.6,21.2,9.3
		s14.3,4.1,18.3,5.6c4.1,1.5,13.2,6.5,13.1,18c0,3-0.4,11.4-1,22.4"/>
</g>
<g id="コーナー番号">
	<g>
		<g>
			
			
		</g>
		<g>
			
		</g>
	</g>
	<g>
		<g>
			
			
		</g>
		<g>
			
		</g>
	</g>
	<g>
		<g>
			
			
		</g>
		<g>
			
		</g>
	</g>
	<g>
		<g>
			
			
		</g>
		<g>
			
		</g>
	</g>
	<g>
		<g>
			
			
		</g>
		<g>
			
		</g>
	</g>
	<g>
		<g>
			
			
		</g>
		<g>
			
		</g>
	</g>
	<g>
		<g>
			
			
		</g>
		<g>
			
		</g>
	</g>
	<g>
		<g>
			
			
		</g>
		<g>
			
		</g>
	</g>
	<g>
		<g>
			
			
		</g>
		<g>
			
		</g>
	</g>
	<g>
		<g>
			
			
		</g>
		<g>
			
			
		</g>
	</g>
	<g>
		<g>
			
			
		</g>
		<g>
			
			
		</g>
	</g>
	<g>
		<g>
			
			
		</g>
		<g>
			
			
		</g>
	</g>
	<g>
		<g>
			
			
		</g>
		<g>
			
			
		</g>
	</g>
	<g>
		<g>
			
			
		</g>
		<g>
			
			
		</g>
	</g>
</g>



</svg>
