<?xml version="1.0" encoding="utf-8"?>
<!-- Generator: Adobe Illustrator 26.5.0, SVG Export Plug-In . SVG Version: 6.00 Build 0)  -->
<svg version="1.1" xmlns="http://www.w3.org/2000/svg" xmlns:xlink="http://www.w3.org/1999/xlink" x="0px" y="0px"
	 viewBox="0.0 0.0 779.9 451.0" style="enable-background:new 0 0 779.9 453.8;" xml:space="preserve">
<style type="text/css">
	.st0{fill:none;stroke:#646464;stroke-width:8.189;stroke-linecap:round;stroke-linejoin:round;stroke-miterlimit:10;}
	.st1{fill:none;stroke:#FFD449;stroke-width:1.638;stroke-miterlimit:10;}
	.st2{fill:none;stroke:#54C6EB;stroke-width:1.638;stroke-miterlimit:10;}
	.st3{fill:none;stroke:#F4442E;stroke-width:1.638;stroke-miterlimit:10;}
	.st4{fill:none;stroke:#FFFFFF;stroke-width:1.228;}
	.st5{fill:#646464;}
	.st6{fill:#FFFFFF;}
	.st7{fill:none;stroke:#646464;stroke-width:1.638;stroke-miterlimit:10;}
	.st8{fill:#FF3380;}
	.st9{fill:none;stroke:#FF3380;stroke-width:1.146;stroke-miterlimit:10;}
	.st10{fill:#09BC8A;}
	.st11{fill:none;stroke:#09BC8A;stroke-width:1.638;stroke-miterlimit:10;}
	.st12{fill:none;stroke:#09BC8A;stroke-width:1.146;stroke-miterlimit:10;}
	.st13{clip-path:url(#SVGID_00000143601421425968450250000013188824974950788758_);}
	.st14{fill:#F4442E;}
	.st15{fill:#54C6EB;}
	.st16{fill:#FFD449;}
	.st17{fill:none;stroke:#646464;stroke-width:0.409;stroke-miterlimit:10;}
	.st18{fill:none;stroke:#F4442E;stroke-width:3.276;stroke-miterlimit:10;}
	.st19{fill:none;stroke:#54C6EB;stroke-width:3.276;stroke-miterlimit:10;}
	.st20{fill:none;stroke:#FFD449;stroke-width:3.276;stroke-miterlimit:10;}
</style>
<g id="コース">
	<path class="st0" d="M576.1,84.5c-21.8,0.8-83,1.9-97.6,2.4C464,87.4,447,83.1,431,80.6c-16-2.4-48.5-10.2-73.8-10.2
		s-83.5,7.8-97.1,10.2c-13.6,2.4-35,9.7-41.7,12.1c-6.8,2.4-6.3,7.3-7.8,14.6c-1.5,7.3-2.9,14.1-14.1,19.4
		c-11.2,5.3-21.8,9.7-26.7,13.1c-4.9,3.4-10.7,8.7-15,21.8c-4.4,13.1-47.1,131.1-50,137.9c-2.9,6.8-0.5,16,1.5,20.4
		c1.9,4.4,9.2,17.5-0.5,25.7s-58.5,54.8-65.5,59.7c-8.5,5.9-6.2,26.3,8.3,24.8c12.2-1.3,94.7-15.5,104.4-17
		c9.7-1.5,31.1-5.3,52.4-2.9s39.3,5.8,48.5,7.3c9.2,1.5,21.4,3.4,28.6-11.2s9.7-19.9,12.1-29.1c2.4-9.2,6.3-22.8,1.9-41.3
		c-4.4-18.4-14.1-52.9-15.5-59.2c-1.5-6.3-1-14.6,2.9-19.9c3.9-5.3,12.9-19.4,14.5-22c1.5-2.6,4.8-8.1,14-3.5
		c3.1,1.5,8.3,5.5,13.6,5.7s163.5-6.4,166.4-6.4c2.9,0,6.6-1.1,8.8,4.4c2.2,5.5,4.4,7.9,9,6.1c4.6-1.8,38.6-17.8,49.4-22.4
		c10.8-4.6,32.3-16,45.9-28.8c13.6-12.7,62.1-64.1,65.9-67.8c3.7-3.7,14.3-11.6,27.7-17.8c13.4-6.1,34.9-15.8,38.6-17.8
		c3.7-2,9.9-5.7,6.4-14s-10.8-24.4-14-29.6c-3.3-5.3-9.9-11.4-22.6-5.7s-78.1,33.6-86.9,37.5c-8.8,4-20.4,7.2-26.3,8.1
		C588.1,83.8,581,84.3,576.1,84.5z"/>
</g>
<g id="セクター">
	<path class="st1" d="M422,233.5c36.2-1.5,69.2-2.8,70.4-2.8c2.9,0,6.6-1.1,8.8,4.4c2.2,5.5,4.4,7.9,9,6.1
		c4.6-1.8,38.6-17.8,49.4-22.4c10.8-4.6,32.3-16,45.9-28.8c13.6-12.7,62.1-64.1,65.9-67.8c3.7-3.7,14.3-11.6,27.7-17.8
		c13.4-6.1,34.9-15.8,38.6-17.8c3.7-2,9.9-5.7,6.4-14s-10.8-24.4-14-29.6c-3.3-5.3-9.9-11.4-22.6-5.7s-78.1,33.6-86.9,37.5
		c-8.8,4-20.4,7.2-26.3,8.1c-5.9,0.9-13,1.4-17.9,1.6c-2.8,0.1-6.4,0.2-10.4,0.3"/>
	<path class="st2" d="M71,377.7c-14,13-27.4,25.3-30.9,27.7c-8.5,5.9-6.2,26.3,8.3,24.8c12.2-1.3,94.7-15.5,104.4-17
		c9.7-1.5,31.1-5.3,52.4-2.9s39.3,5.8,48.5,7.3c9.2,1.5,21.4,3.4,28.6-11.2s9.7-19.9,12.1-29.1c2.4-9.2,6.3-22.8,1.9-41.3
		c-4.4-18.4-14.1-52.9-15.5-59.2c-1.5-6.3-1-14.6,2.9-19.9c3.9-5.3,12.9-19.4,14.5-22c1.5-2.6,4.8-8.1,14-3.5
		c3.1,1.5,8.3,5.5,13.6,5.7c2.9,0.1,51.9-1.8,95.9-3.6"/>
	<path class="st3" d="M565.8,84.9c-26.6,0.8-74.6,1.7-87.2,2.1C464,87.4,447,83.1,431,80.6c-16-2.4-48.5-10.2-73.8-10.2
		s-83.5,7.8-97.1,10.2c-13.6,2.4-35,9.7-41.7,12.1c-6.8,2.4-6.3,7.3-7.8,14.6c-1.5,7.3-2.9,14.1-14.1,19.4
		c-11.2,5.3-21.8,9.7-26.7,13.1c-4.9,3.4-10.7,8.7-15,21.8c-4.4,13.1-47.1,131.1-50,137.9c-2.9,6.8-0.5,16,1.5,20.4
		c1.9,4.4,9.2,17.5-0.5,25.7c-5,4.2-20.1,18.4-34.7,32"/>
</g>
<g id="コーナー番号">
	<g>
		<g>
			
			
		</g>
		<g>
			
		</g>
	</g>
	<g>
		<g>
			
			
		</g>
		<g>
			
		</g>
	</g>
	<g>
		<g>
			
			
		</g>
		<g>
			
		</g>
	</g>
	<g>
		<g>
			
			
		</g>
		<g>
			
		</g>
	</g>
	<g>
		<g>
			
			
		</g>
		<g>
			
		</g>
	</g>
	<g>
		<g>
			
			
		</g>
		<g>
			
		</g>
	</g>
	<g>
		<g>
			
			
		</g>
		<g>
			
		</g>
	</g>
	<g>
		<g>
			
			
		</g>
		<g>
			
		</g>
	</g>
	<g>
		<g>
			
			
		</g>
		<g>
			
		</g>
	</g>
	<g>
		<g>
			
			
		</g>
		<g>
			
			
		</g>
	</g>
	<g>
		<g>
			
			
		</g>
		<g>
			
			
		</g>
	</g>
	<g>
		<g>
			
			
		</g>
		<g>
			
			
		</g>
	</g>
	<g>
		<g>
			
			
		</g>
		<g>
			
			
		</g>
	</g>
	<g>
		<g>
			
			
		</g>
		<g>
			
			
		</g>
	</g>
	<g>
		<g>
			
			
		</g>
		<g>
			
			
		</g>
	</g>
	<g>
		<g>
			
			
		</g>
		<g>
			
			
		</g>
	</g>
	<g>
		<g>
			
			
		</g>
		<g>
			
			
		</g>
	</g>
	<g>
		<g>
			
			
		</g>
		<g>
			
			
		</g>
	</g>
	<g>
		<g>
			
			
		</g>
		<g>
			
			
		</g>
	</g>
</g>



</svg>
