<?xml version="1.0" encoding="utf-8"?>
<!-- Generator: Adobe Illustrator 26.5.0, SVG Export Plug-In . SVG Version: 6.00 Build 0)  -->
<svg version="1.1" xmlns="http://www.w3.org/2000/svg" xmlns:xlink="http://www.w3.org/1999/xlink" x="0px" y="0px"
	 viewBox="0.0 0.0 550.0 334.9" style="enable-background:new 0 0 550 443.7;" xml:space="preserve">
<style type="text/css">
	.st0{fill:none;stroke:#646464;stroke-width:5.775;stroke-miterlimit:10;}
	.st1{fill:none;stroke:#FFD449;stroke-width:1.155;stroke-miterlimit:10;}
	.st2{fill:none;stroke:#54C6EB;stroke-width:1.155;stroke-miterlimit:10;}
	.st3{fill:none;stroke:#F4442E;stroke-width:1.155;stroke-miterlimit:10;}
	.st4{fill:none;stroke:#FFFFFF;stroke-width:0.866;}
	.st5{fill:#646464;}
	.st6{fill:#FFFFFF;}
	.st7{fill:none;stroke:#646464;stroke-width:1.155;stroke-miterlimit:10;}
	.st8{fill:#09BC8A;}
	.st9{fill:none;stroke:#09BC8A;stroke-width:0.809;stroke-miterlimit:10;}
	.st10{fill:none;stroke:#09BC8A;stroke-width:0.900;stroke-miterlimit:10;}
	.st11{fill:#FF3380;}
	.st12{fill:none;stroke:#FF3380;stroke-width:0.809;stroke-miterlimit:10;}
	.st13{fill:none;stroke:#646464;stroke-width:0.289;stroke-miterlimit:10;}
	.st14{fill:none;stroke:#F4442E;stroke-width:2.310;stroke-miterlimit:10;}
	.st15{fill:none;stroke:#54C6EB;stroke-width:2.310;stroke-miterlimit:10;}
	.st16{fill:none;stroke:#FFD449;stroke-width:2.310;stroke-miterlimit:10;}
	.st17{fill:none;stroke:#09BC8A;stroke-width:1.155;stroke-miterlimit:10;}
	.st18{clip-path:url(#SVGID_00000068658298010093746840000007256555623060923548_);}
	.st19{fill:#F4442E;}
	.st20{fill:#54C6EB;}
	.st21{fill:#FFD449;}
</style>
<g id="コース">
	<path class="st0" d="M419.3,301.7c-22,0-193.8,0-199,0c-5.3,0-4.4-3.3-4.4-5s0.5-5.8-1.9-5.8s-4.8,0.7-7.9,2
		c-3.1,1.3-16.5,7.8-38.3,9.1c-11.5,0.7-31.2,0.9-47.2-7.2c-22.4-11.4-38.2-36.5-41.6-59.3c-1.6-10.4-13-81.5-13.6-84
		c-0.6-2.5-1.8-3.7-4.5-3.8c-2.8-0.1-6.1-0.7-6.9-6.4s-2-10.7-5.1-16.7c-3.1-6-15.2-35.9-17.3-40.2s-4.2-19.6,10-22.5
		c14.2-2.9,46.5-8.8,50.8-9.4c4.2-0.6,8.3-0.6,12,5.1s27.5,41.1,31.6,48c4.1,6.9,16.7,22.4,31.3,37.2c14.6,14.8,81.5,78.9,83.9,81.2
		s3.8,5.7,10.8,3.7c7-2,11.3-2.8,18.3,0.1c7,2.9,9.4,7,11.1,8.8c1.8,1.8,3.7,3.5,7,3.5s202.8,4.1,210.1,4.2
		c7.3,0.1,16.7,6.9,16.7,17.3c0,10.4-6.4,22-17.1,27.8c-18.7,10.2-47.4,12.4-71.1,12.4C424.7,301.7,419.3,301.7,419.3,301.7z"/>
</g>
<g id="セクター">
	<path class="st1" d="M238.7,211.9c7,6.8,11.8,11.4,12.4,12c2.3,2.3,3.8,5.7,10.8,3.7c7-2,11.3-2.8,18.3,0.1c7,2.9,9.4,7,11.1,8.8
		c1.8,1.8,3.7,3.5,7,3.5s202.8,4.1,210.1,4.2c7.3,0.1,16.7,6.9,16.7,17.3c0,10.4-6.4,22-17.1,27.8c-15.4,8.4-37.6,11.4-58.2,12.2"/>
	<path class="st2" d="M69.1,173.6c-2-12.1-3.5-21.3-3.7-22.2c-0.6-2.5-1.8-3.7-4.5-3.8c-2.8-0.1-6.1-0.7-6.9-6.4s-2-10.7-5.1-16.7
		c-3.1-6-15.2-35.9-17.3-40.2s-4.2-19.6,10-22.5c14.2-2.9,46.5-8.8,50.8-9.4c4.2-0.6,8.3-0.6,12,5.1s27.5,41.1,31.6,48
		c4.1,6.9,16.7,22.4,31.3,37.2c10.9,11,50.8,49.4,71.4,69.3"/>
	<path class="st3" d="M449.9,301.4c-4.4,0.2-8.7,0.2-12.9,0.2c-12.3,0-17.7,0-17.7,0c-22,0-193.8,0-199,0c-5.3,0-4.4-3.3-4.4-5
		s0.5-5.8-1.9-5.8s-4.8,0.7-7.9,2c-3.1,1.3-16.5,7.8-38.3,9.1c-11.5,0.7-31.2,0.9-47.2-7.2c-22.4-11.4-38.2-36.5-41.6-59.3
		c-1-6.8-6.2-39.3-9.9-61.8"/>
</g>
<g id="コーナー番号">
	<g>
		<g>
			
			
		</g>
		<g>
			
		</g>
	</g>
	<g>
		<g>
			
			
		</g>
		<g>
			
		</g>
	</g>
	<g>
		<g>
			
			
		</g>
		<g>
			
		</g>
	</g>
	<g>
		<g>
			
			
		</g>
		<g>
			
		</g>
	</g>
	<g>
		<g>
			
			
		</g>
		<g>
			
		</g>
	</g>
	<g>
		<g>
			
			
		</g>
		<g>
			
		</g>
	</g>
	<g>
		<g>
			
			
		</g>
		<g>
			
		</g>
	</g>
	<g>
		<g>
			
			
		</g>
		<g>
			
		</g>
	</g>
	<g>
		<g>
			
			
		</g>
		<g>
			
		</g>
	</g>
	<g>
		<g>
			
			
		</g>
		<g>
			
			
		</g>
	</g>
	<g>
		<g>
			
			
		</g>
		<g>
			
			
		</g>
	</g>
</g>



</svg>
