<?xml version="1.0" encoding="utf-8"?>
<!-- Generator: Adobe Illustrator 26.5.0, SVG Export Plug-In . SVG Version: 6.00 Build 0)  -->
<svg version="1.1" xmlns="http://www.w3.org/2000/svg" xmlns:xlink="http://www.w3.org/1999/xlink" x="0px" y="0px"
	 viewBox="0 0 779.9 414" style="enable-background:new 0 0 779.9 453.8;" xml:space="preserve">
<style type="text/css">
	.st0{fill:none;stroke:#646464;stroke-width:14.1732;stroke-linecap:round;stroke-linejoin:round;stroke-miterlimit:10;}
	.st1{fill:none;stroke:#FFD449;stroke-width:2.8346;stroke-miterlimit:10;}
	.st2{fill:none;stroke:#54C6EB;stroke-width:2.8346;stroke-miterlimit:10;}
	.st3{fill:none;stroke:#F4442E;stroke-width:2.8346;stroke-miterlimit:10;}
	.st4{fill:none;stroke:#FFFFFF;stroke-width:2.126;}
	.st5{fill:#646464;}
	.st6{fill:#FFFFFF;}
	.st7{fill:none;stroke:#646464;stroke-width:2.8346;stroke-miterlimit:10;}
	.st8{fill:#FF3380;}
	.st9{fill:none;stroke:#FF3380;stroke-width:1.9843;stroke-miterlimit:10;}
	.st10{fill:#09BC8A;}
	.st11{fill:none;stroke:#09BC8A;stroke-width:2.8346;stroke-miterlimit:10;}
	.st12{fill:none;stroke:#09BC8A;stroke-width:1.9843;stroke-miterlimit:10;}
	.st13{clip-path:url(#SVGID_00000143601421425968450250000013188824974950788758_);}
	.st14{fill:#F4442E;}
	.st15{fill:#54C6EB;}
	.st16{fill:#FFD449;}
	.st17{fill:none;stroke:#646464;stroke-width:0.7087;stroke-miterlimit:10;}
	.st18{fill:none;stroke:#F4442E;stroke-width:5.6693;stroke-miterlimit:10;}
	.st19{fill:none;stroke:#54C6EB;stroke-width:5.6693;stroke-miterlimit:10;}
	.st20{fill:none;stroke:#FFD449;stroke-width:5.6693;stroke-miterlimit:10;}
</style>
<g id="コース">
	<path class="st0" d="M576.1,84.5c-21.8,0.8-83,1.9-97.6,2.4C464,87.4,447,83.1,431,80.6c-16-2.4-48.5-10.2-73.8-10.2
		s-83.5,7.8-97.1,10.2c-13.6,2.4-35,9.7-41.7,12.1c-6.8,2.4-6.3,7.3-7.8,14.6c-1.5,7.3-2.9,14.1-14.1,19.4
		c-11.2,5.3-21.8,9.7-26.7,13.1c-4.9,3.4-10.7,8.7-15,21.8c-4.4,13.1-47.1,131.1-50,137.9c-2.9,6.8-0.5,16,1.5,20.4
		c1.9,4.4,9.2,17.5-0.5,25.7s-58.5,54.8-65.5,59.7c-8.5,5.9-6.2,26.3,8.3,24.8c12.2-1.3,94.7-15.5,104.4-17
		c9.7-1.5,31.1-5.3,52.4-2.9s39.3,5.8,48.5,7.3c9.2,1.5,21.4,3.4,28.6-11.2s9.7-19.9,12.1-29.1c2.4-9.2,6.3-22.8,1.9-41.3
		c-4.4-18.4-14.1-52.9-15.5-59.2c-1.5-6.3-1-14.6,2.9-19.9c3.9-5.3,12.9-19.4,14.5-22c1.5-2.6,4.8-8.1,14-3.5
		c3.1,1.5,8.3,5.5,13.6,5.7s163.5-6.4,166.4-6.4c2.9,0,6.6-1.1,8.8,4.4c2.2,5.5,4.4,7.9,9,6.1c4.6-1.8,38.6-17.8,49.4-22.4
		c10.8-4.6,32.3-16,45.9-28.8c13.6-12.7,62.1-64.1,65.9-67.8c3.7-3.7,14.3-11.6,27.7-17.8c13.4-6.1,34.9-15.8,38.6-17.8
		c3.7-2,9.9-5.7,6.4-14s-10.8-24.4-14-29.6c-3.3-5.3-9.9-11.4-22.6-5.7s-78.1,33.6-86.9,37.5c-8.8,4-20.4,7.2-26.3,8.1
		C588.1,83.8,581,84.3,576.1,84.5z"/>
</g>
<g id="セクター">
	<path class="st1" d="M422,233.5c36.2-1.5,69.2-2.8,70.4-2.8c2.9,0,6.6-1.1,8.8,4.4c2.2,5.5,4.4,7.9,9,6.1
		c4.6-1.8,38.6-17.8,49.4-22.4c10.8-4.6,32.3-16,45.9-28.8c13.6-12.7,62.1-64.1,65.9-67.8c3.7-3.7,14.3-11.6,27.7-17.8
		c13.4-6.1,34.9-15.8,38.6-17.8c3.7-2,9.9-5.7,6.4-14s-10.8-24.4-14-29.6c-3.3-5.3-9.9-11.4-22.6-5.7s-78.1,33.6-86.9,37.5
		c-8.8,4-20.4,7.2-26.3,8.1c-5.9,0.9-13,1.4-17.9,1.6c-2.8,0.1-6.4,0.2-10.4,0.3"/>
	<path class="st2" d="M71,377.7c-14,13-27.4,25.3-30.9,27.7c-8.5,5.9-6.2,26.3,8.3,24.8c12.2-1.3,94.7-15.5,104.4-17
		c9.7-1.5,31.1-5.3,52.4-2.9s39.3,5.8,48.5,7.3c9.2,1.5,21.4,3.4,28.6-11.2s9.7-19.9,12.1-29.1c2.4-9.2,6.3-22.8,1.9-41.3
		c-4.4-18.4-14.1-52.9-15.5-59.2c-1.5-6.3-1-14.6,2.9-19.9c3.9-5.3,12.9-19.4,14.5-22c1.5-2.6,4.8-8.1,14-3.5
		c3.1,1.5,8.3,5.5,13.6,5.7c2.9,0.1,51.9-1.8,95.9-3.6"/>
	<path class="st3" d="M565.8,84.9c-26.6,0.8-74.6,1.7-87.2,2.1C464,87.4,447,83.1,431,80.6c-16-2.4-48.5-10.2-73.8-10.2
		s-83.5,7.8-97.1,10.2c-13.6,2.4-35,9.7-41.7,12.1c-6.8,2.4-6.3,7.3-7.8,14.6c-1.5,7.3-2.9,14.1-14.1,19.4
		c-11.2,5.3-21.8,9.7-26.7,13.1c-4.9,3.4-10.7,8.7-15,21.8c-4.4,13.1-47.1,131.1-50,137.9c-2.9,6.8-0.5,16,1.5,20.4
		c1.9,4.4,9.2,17.5-0.5,25.7c-5,4.2-20.1,18.4-34.7,32"/>
</g>
<g id="コーナー番号">
	<g>
		<g>
			<circle class="st4" cx="467" cy="106.1" r="8.5"/>
			<circle class="st5" cx="467" cy="106.1" r="8.5"/>
		</g>
		<g>
			<path class="st6" d="M465.3,110v-1.6h1V104h-0.9v-1.6h2.6v6.1h0.9v1.6H465.3z"/>
		</g>
	</g>
	<g>
		<g>
			<circle class="st4" cx="195" cy="84.3" r="8.5"/>
			<circle class="st5" cx="195" cy="84.3" r="8.5"/>
		</g>
		<g>
			<path class="st6" d="M192.9,88.2v-2.6c0-0.6,0.1-1,0.6-1.2l1.9-0.8v-1.6l-0.1-0.1h-0.5l-0.1,0.1v1.1h-1.7v-1.3
				c0-0.8,0.4-1.1,0.8-1.3h2.5c0.5,0.2,0.8,0.5,0.8,1.3v1.9c0,0.6-0.1,0.9-0.6,1.2l-1.9,0.8v0.9h2.4v1.6H192.9z"/>
		</g>
	</g>
	<g>
		<g>
			<circle class="st4" cx="219.5" cy="136.2" r="8.5"/>
			<circle class="st5" cx="219.5" cy="136.2" r="8.5"/>
		</g>
		<g>
			<path class="st6" d="M218.2,140c-0.5-0.2-0.8-0.5-0.8-1.3v-1h1.7v0.8l0.1,0.1h0.5l0.1-0.1v-1.6l-0.1-0.1h-1v-1.3h1l0.1-0.1v-1.5
				l-0.1-0.1h-0.5l-0.1,0.1v0.8h-1.7v-1c0-0.8,0.4-1.1,0.8-1.3h2.5c0.5,0.2,0.8,0.5,0.8,1.3v1.3c0,0.6-0.2,0.9-0.6,1.2
				c0.4,0.3,0.6,0.6,0.6,1.2v1.4c0,0.8-0.4,1.1-0.8,1.3H218.2z"/>
		</g>
	</g>
	<g>
		<g>
			<circle class="st4" cx="144.6" cy="135" r="8.5"/>
			<circle class="st5" cx="144.6" cy="135" r="8.5"/>
		</g>
		<g>
			<path class="st6" d="M146.2,137.3v1.5h-1.7v-1.5h-2.2v-1.5l1.6-4.7h1.7l-1.6,4.6h0.5v-0.4l0.4-1h1.3v1.4h0.5v1.6H146.2z"/>
		</g>
	</g>
	<g>
		<g>
			<circle class="st4" cx="84.5" cy="305.5" r="8.5"/>
			<circle class="st5" cx="84.5" cy="305.5" r="8.5"/>
		</g>
		<g>
			<path class="st6" d="M83.2,309.3c-0.5-0.2-0.8-0.5-0.8-1.3v-1H84v0.8l0.1,0.1h0.6l0.1-0.1v-2.1l-0.1-0.1h-0.6l-0.1,0.1v0.4h-1.6
				v-4.5h4v1.5H84v1.6l0.4-0.4h1.3c0.5,0.2,0.8,0.5,0.8,1.3v2.4c0,0.8-0.4,1.1-0.8,1.3H83.2z"/>
		</g>
	</g>
	<g>
		<g>
			<circle class="st4" cx="129.9" cy="346" r="8.5"/>
			<circle class="st5" cx="129.9" cy="346" r="8.5"/>
		</g>
		<g>
			<path class="st6" d="M131.2,349.9h-2.5c-0.5-0.2-0.8-0.5-0.8-1.3v-5.1c0-0.8,0.4-1.1,0.8-1.3h2.5c0.5,0.2,0.8,0.5,0.8,1.3v1h-1.7
				v-0.8l-0.1-0.1h-0.5l-0.1,0.1v1.8l0.3-0.3h1.3c0.5,0.2,0.8,0.5,0.8,1.3v2.2C132,349.4,131.6,349.7,131.2,349.9z M130.2,348.5
				l0.1-0.1v-1.8l-0.1-0.1h-0.5l-0.1,0.1v1.8l0.1,0.1H130.2z"/>
		</g>
	</g>
	<g>
		<g>
			<circle class="st4" cx="16.7" cy="432.1" r="8.5"/>
			<circle class="st5" cx="16.7" cy="432.1" r="8.5"/>
		</g>
		<g>
			<path class="st6" d="M14.8,436l2.1-6.2h-2.4v-1.5h4.1v1.2l-2.1,6.5H14.8z"/>
		</g>
	</g>
	<g>
		<g>
			<circle class="st4" cx="185.5" cy="389.2" r="8.5"/>
			<circle class="st5" cx="185.5" cy="389.2" r="8.5"/>
		</g>
		<g>
			<path class="st6" d="M184.2,393c-0.5-0.2-0.8-0.5-0.8-1.3v-1.4c0-0.6,0.2-0.9,0.6-1.2c-0.4-0.3-0.6-0.6-0.6-1.2v-1.3
				c0-0.8,0.4-1.1,0.8-1.3h2.5c0.5,0.2,0.8,0.5,0.8,1.3v1.3c0,0.6-0.2,0.9-0.6,1.2c0.4,0.3,0.6,0.6,0.6,1.2v1.4
				c0,0.8-0.4,1.1-0.8,1.3H184.2z M185.1,388.4l0.1,0.1h0.5l0.1-0.1v-1.5l-0.1-0.1h-0.5l-0.1,0.1V388.4z M185.8,391.6v-1.6l-0.1-0.1
				h-0.5l-0.1,0.1v1.6l0.1,0.1h0.5L185.8,391.6z"/>
		</g>
	</g>
	<g>
		<g>
			<circle class="st4" cx="282" cy="437.2" r="8.5"/>
			<circle class="st5" cx="282" cy="437.2" r="8.5"/>
		</g>
		<g>
			<path class="st6" d="M280.8,441c-0.5-0.2-0.8-0.5-0.8-1.3v-1h1.7v0.8l0.1,0.1h0.5l0.1-0.1v-1.8l-0.3,0.3h-1.3
				c-0.5-0.2-0.8-0.5-0.8-1.3v-2.2c0-0.8,0.4-1.1,0.8-1.3h2.5c0.5,0.2,0.8,0.5,0.8,1.3v5.1c0,0.8-0.4,1.1-0.8,1.3H280.8z
				 M282.4,436.7v-1.8l-0.1-0.1h-0.5l-0.1,0.1v1.8l0.1,0.1h0.5L282.4,436.7z"/>
		</g>
	</g>
	<g>
		<g>
			<circle class="st4" cx="319.5" cy="352.3" r="8.5"/>
			<circle class="st5" cx="319.5" cy="352.3" r="8.5"/>
		</g>
		<g>
			<path class="st6" d="M315.5,356.2v-1.6h1v-4.5h-0.9v-1.6h2.6v6.1h0.9v1.6H315.5z"/>
			<path class="st6" d="M323.1,356.2h-2.5c-0.5-0.2-0.8-0.5-0.8-1.3v-5.1c0-0.8,0.4-1.1,0.8-1.3h2.5c0.5,0.2,0.8,0.5,0.8,1.3v5.1
				C323.9,355.7,323.6,356,323.1,356.2z M322.2,350l-0.1-0.1h-0.5l-0.1,0.1v4.7l0.1,0.1h0.5l0.1-0.1V350z"/>
		</g>
	</g>
	<g>
		<g>
			<circle class="st4" cx="257.8" cy="266.9" r="8.5"/>
			<circle class="st5" cx="257.8" cy="266.9" r="8.5"/>
		</g>
		<g>
			<path class="st6" d="M253.7,270.8v-1.6h1v-4.5h-0.9v-1.6h2.6v6.1h0.9v1.6H253.7z"/>
			<path class="st6" d="M258.4,270.8v-1.6h1v-4.5h-0.9v-1.6h2.6v6.1h0.9v1.6H258.4z"/>
		</g>
	</g>
	<g>
		<g>
			<circle class="st4" cx="298.1" cy="210.4" r="8.5"/>
			<circle class="st5" cx="298.1" cy="210.4" r="8.5"/>
		</g>
		<g>
			<path class="st6" d="M294,214.2v-1.6h1v-4.5h-0.9v-1.6h2.6v6.1h0.9v1.6H294z"/>
			<path class="st6" d="M298.3,214.2v-2.6c0-0.6,0.1-1,0.6-1.2l1.9-0.8v-1.6l-0.1-0.1h-0.5l-0.1,0.1v1.1h-1.7v-1.3
				c0-0.8,0.4-1.1,0.8-1.3h2.5c0.5,0.2,0.8,0.5,0.8,1.3v1.9c0,0.6-0.1,0.9-0.6,1.2l-1.9,0.8v0.9h2.4v1.6H298.3z"/>
		</g>
	</g>
	<g>
		<g>
			<circle class="st4" cx="324.8" cy="256.6" r="8.5"/>
			<circle class="st5" cx="324.8" cy="256.6" r="8.5"/>
		</g>
		<g>
			<path class="st6" d="M320.8,260.5v-1.6h1v-4.5h-0.9v-1.6h2.6v6.1h0.9v1.6H320.8z"/>
			<path class="st6" d="M325.9,260.5c-0.5-0.2-0.8-0.5-0.8-1.3v-1h1.7v0.8l0.1,0.1h0.5l0.1-0.1v-1.6l-0.1-0.1h-1V256h1l0.1-0.1v-1.5
				l-0.1-0.1h-0.5l-0.1,0.1v0.8h-1.7v-1c0-0.8,0.4-1.1,0.8-1.3h2.5c0.5,0.2,0.8,0.5,0.8,1.3v1.3c0,0.6-0.2,0.9-0.6,1.2
				c0.4,0.3,0.6,0.6,0.6,1.2v1.4c0,0.8-0.4,1.1-0.8,1.3H325.9z"/>
		</g>
	</g>
	<g>
		<g>
			<circle class="st4" cx="497.3" cy="209.4" r="8.5"/>
			<circle class="st5" cx="497.3" cy="209.4" r="8.5"/>
		</g>
		<g>
			<path class="st6" d="M493.3,213.3v-1.6h1v-4.5h-0.9v-1.6h2.6v6.1h0.9v1.6H493.3z"/>
			<path class="st6" d="M501.3,211.8v1.5h-1.7v-1.5h-2.2v-1.5l1.6-4.7h1.7l-1.6,4.6h0.5v-0.4l0.4-1h1.3v1.4h0.5v1.6H501.3z"/>
		</g>
	</g>
	<g>
		<g>
			<circle class="st4" cx="505.9" cy="263" r="8.5"/>
			<circle class="st5" cx="505.9" cy="263" r="8.5"/>
		</g>
		<g>
			<path class="st6" d="M501.9,266.9v-1.6h1v-4.5H502v-1.6h2.6v6.1h0.9v1.6H501.9z"/>
			<path class="st6" d="M507,266.9c-0.5-0.2-0.8-0.5-0.8-1.3v-1h1.6v0.8l0.1,0.1h0.6l0.1-0.1v-2.1l-0.1-0.1h-0.6l-0.1,0.1v0.4h-1.6
				v-4.5h4v1.5h-2.4v1.6l0.4-0.4h1.3c0.5,0.2,0.8,0.5,0.8,1.3v2.4c0,0.8-0.4,1.1-0.8,1.3H507z"/>
		</g>
	</g>
	<g>
		<g>
			<circle class="st4" cx="668.6" cy="98.5" r="8.5"/>
			<circle class="st5" cx="668.6" cy="98.5" r="8.5"/>
		</g>
		<g>
			<path class="st6" d="M664.6,102.4v-1.6h1v-4.5h-0.9v-1.6h2.6v6.1h0.9v1.6H664.6z"/>
			<path class="st6" d="M672.2,102.4h-2.5c-0.5-0.2-0.8-0.5-0.8-1.3V96c0-0.8,0.4-1.1,0.8-1.3h2.5c0.5,0.2,0.8,0.5,0.8,1.3v1h-1.7
				v-0.8l-0.1-0.1h-0.5l-0.1,0.1V98l0.3-0.3h1.3c0.5,0.2,0.8,0.5,0.8,1.3v2.2C673,101.9,672.7,102.2,672.2,102.4z M671.2,101
				l0.1-0.1V99l-0.1-0.1h-0.5l-0.1,0.1v1.8l0.1,0.1H671.2z"/>
		</g>
	</g>
	<g>
		<g>
			<circle class="st4" cx="763.2" cy="84.8" r="8.5"/>
			<circle class="st5" cx="763.2" cy="84.8" r="8.5"/>
		</g>
		<g>
			<path class="st6" d="M759.2,88.7v-1.6h1v-4.5h-0.9V81h2.6v6.1h0.9v1.6H759.2z"/>
			<path class="st6" d="M763.7,88.7l2.1-6.2h-2.4V81h4.1v1.2l-2.1,6.5H763.7z"/>
		</g>
	</g>
	<g>
		<g>
			<circle class="st4" cx="723.4" cy="16.7" r="8.5"/>
			<circle class="st5" cx="723.4" cy="16.7" r="8.5"/>
		</g>
		<g>
			<path class="st6" d="M719.4,20.5v-1.6h1v-4.5h-0.9v-1.6h2.6v6.1h0.9v1.6H719.4z"/>
			<path class="st6" d="M724.5,20.5c-0.5-0.2-0.8-0.5-0.8-1.3v-1.4c0-0.6,0.2-0.9,0.6-1.2c-0.4-0.3-0.6-0.6-0.6-1.2v-1.3
				c0-0.8,0.4-1.1,0.8-1.3h2.5c0.5,0.2,0.8,0.5,0.8,1.3v1.3c0,0.6-0.2,0.9-0.6,1.2c0.4,0.3,0.6,0.6,0.6,1.2v1.4
				c0,0.8-0.4,1.1-0.8,1.3H724.5z M725.4,15.9l0.1,0.1h0.5l0.1-0.1v-1.5l-0.1-0.1h-0.5l-0.1,0.1V15.9z M726.1,19v-1.6l-0.1-0.1h-0.5
				l-0.1,0.1V19l0.1,0.1h0.5L726.1,19z"/>
		</g>
	</g>
	<g>
		<g>
			<circle class="st4" cx="599.3" cy="101.2" r="8.5"/>
			<circle class="st5" cx="599.3" cy="101.2" r="8.5"/>
		</g>
		<g>
			<path class="st6" d="M595.3,105.1v-1.6h1v-4.5h-0.9v-1.6h2.6v6.1h0.9v1.6H595.3z"/>
			<path class="st6" d="M600.4,105.1c-0.5-0.2-0.8-0.5-0.8-1.3v-1h1.7v0.8l0.1,0.1h0.5l0.1-0.1v-1.8l-0.3,0.3h-1.3
				c-0.5-0.2-0.8-0.5-0.8-1.3v-2.2c0-0.8,0.4-1.1,0.8-1.3h2.5c0.5,0.2,0.8,0.5,0.8,1.3v5.1c0,0.8-0.4,1.1-0.8,1.3H600.4z
				 M602.1,100.8v-1.8l-0.1-0.1h-0.5l-0.1,0.1v1.8l0.1,0.1h0.5L602.1,100.8z"/>
		</g>
	</g>
</g>



</svg>
