<?xml version="1.0" encoding="utf-8"?>
<!-- Generator: Adobe Illustrator 26.5.0, SVG Export Plug-In . SVG Version: 6.00 Build 0)  -->
<svg version="1.1" xmlns="http://www.w3.org/2000/svg" xmlns:xlink="http://www.w3.org/1999/xlink" x="0px" y="0px"
	 viewBox="0 0 550 403" style="enable-background:new 0 0 550 443.7;" xml:space="preserve">
<style type="text/css">
	.st0{fill:none;stroke:#646464;stroke-width:14.1732;stroke-miterlimit:10;}
	.st1{fill:none;stroke:#FFD449;stroke-width:2.8346;stroke-miterlimit:10;}
	.st2{fill:none;stroke:#54C6EB;stroke-width:2.8346;stroke-miterlimit:10;}
	.st3{fill:none;stroke:#F4442E;stroke-width:2.8346;stroke-miterlimit:10;}
	.st4{fill:none;stroke:#FFFFFF;stroke-width:2.126;}
	.st5{fill:#646464;}
	.st6{fill:#FFFFFF;}
	.st7{fill:none;stroke:#646464;stroke-width:2.8346;stroke-miterlimit:10;}
	.st8{fill:#09BC8A;}
	.st9{fill:none;stroke:#09BC8A;stroke-width:1.9843;stroke-miterlimit:10;}
	.st10{fill:none;stroke:#09BC8A;stroke-width:2.2097;stroke-miterlimit:10;}
	.st11{fill:#FF3380;}
	.st12{fill:none;stroke:#FF3380;stroke-width:1.9843;stroke-miterlimit:10;}
	.st13{fill:none;stroke:#646464;stroke-width:0.7087;stroke-miterlimit:10;}
	.st14{fill:none;stroke:#F4442E;stroke-width:5.6693;stroke-miterlimit:10;}
	.st15{fill:none;stroke:#54C6EB;stroke-width:5.6693;stroke-miterlimit:10;}
	.st16{fill:none;stroke:#FFD449;stroke-width:5.6693;stroke-miterlimit:10;}
	.st17{fill:none;stroke:#09BC8A;stroke-width:2.8346;stroke-miterlimit:10;}
	.st18{clip-path:url(#SVGID_00000068658298010093746840000007256555623060923548_);}
	.st19{fill:#F4442E;}
	.st20{fill:#54C6EB;}
	.st21{fill:#FFD449;}
</style>
<g id="コース">
	<path class="st0" d="M419.3,301.7c-22,0-193.8,0-199,0c-5.3,0-4.4-3.3-4.4-5s0.5-5.8-1.9-5.8s-4.8,0.7-7.9,2
		c-3.1,1.3-16.5,7.8-38.3,9.1c-11.5,0.7-31.2,0.9-47.2-7.2c-22.4-11.4-38.2-36.5-41.6-59.3c-1.6-10.4-13-81.5-13.6-84
		c-0.6-2.5-1.8-3.7-4.5-3.8c-2.8-0.1-6.1-0.7-6.9-6.4s-2-10.7-5.1-16.7c-3.1-6-15.2-35.9-17.3-40.2s-4.2-19.6,10-22.5
		c14.2-2.9,46.5-8.8,50.8-9.4c4.2-0.6,8.3-0.6,12,5.1s27.5,41.1,31.6,48c4.1,6.9,16.7,22.4,31.3,37.2c14.6,14.8,81.5,78.9,83.9,81.2
		s3.8,5.7,10.8,3.7c7-2,11.3-2.8,18.3,0.1c7,2.9,9.4,7,11.1,8.8c1.8,1.8,3.7,3.5,7,3.5s202.8,4.1,210.1,4.2
		c7.3,0.1,16.7,6.9,16.7,17.3c0,10.4-6.4,22-17.1,27.8c-18.7,10.2-47.4,12.4-71.1,12.4C424.7,301.7,419.3,301.7,419.3,301.7z"/>
</g>
<g id="セクター">
	<path class="st1" d="M238.7,211.9c7,6.8,11.8,11.4,12.4,12c2.3,2.3,3.8,5.7,10.8,3.7c7-2,11.3-2.8,18.3,0.1c7,2.9,9.4,7,11.1,8.8
		c1.8,1.8,3.7,3.5,7,3.5s202.8,4.1,210.1,4.2c7.3,0.1,16.7,6.9,16.7,17.3c0,10.4-6.4,22-17.1,27.8c-15.4,8.4-37.6,11.4-58.2,12.2"/>
	<path class="st2" d="M69.1,173.6c-2-12.1-3.5-21.3-3.7-22.2c-0.6-2.5-1.8-3.7-4.5-3.8c-2.8-0.1-6.1-0.7-6.9-6.4s-2-10.7-5.1-16.7
		c-3.1-6-15.2-35.9-17.3-40.2s-4.2-19.6,10-22.5c14.2-2.9,46.5-8.8,50.8-9.4c4.2-0.6,8.3-0.6,12,5.1s27.5,41.1,31.6,48
		c4.1,6.9,16.7,22.4,31.3,37.2c10.9,11,50.8,49.4,71.4,69.3"/>
	<path class="st3" d="M449.9,301.4c-4.4,0.2-8.7,0.2-12.9,0.2c-12.3,0-17.7,0-17.7,0c-22,0-193.8,0-199,0c-5.3,0-4.4-3.3-4.4-5
		s0.5-5.8-1.9-5.8s-4.8,0.7-7.9,2c-3.1,1.3-16.5,7.8-38.3,9.1c-11.5,0.7-31.2,0.9-47.2-7.2c-22.4-11.4-38.2-36.5-41.6-59.3
		c-1-6.8-6.2-39.3-9.9-61.8"/>
</g>
<g id="コーナー番号">
	<g>
		<g>
			<circle class="st4" cx="208" cy="321.1" r="8.5"/>
			<circle class="st5" cx="208" cy="321.1" r="8.5"/>
		</g>
		<g>
			<path class="st6" d="M206.2,324.9v-1.6h1v-4.5h-0.9v-1.6h2.6v6.1h0.9v1.6H206.2z"/>
		</g>
	</g>
	<g>
		<g>
			<circle class="st4" cx="215.1" cy="268.6" r="8.5"/>
			<circle class="st5" cx="215.1" cy="268.6" r="8.5"/>
		</g>
		<g>
			<path class="st6" d="M213,272.5V270c0-0.6,0.1-1,0.6-1.2l1.9-0.8v-1.6l-0.1-0.1h-0.5l-0.1,0.1v1.1H213v-1.3
				c0-0.8,0.4-1.1,0.8-1.3h2.5c0.5,0.2,0.8,0.5,0.8,1.3v1.9c0,0.6-0.1,0.9-0.6,1.2l-1.9,0.8v0.9h2.4v1.6H213z"/>
		</g>
	</g>
	<g>
		<g>
			<circle class="st4" cx="97.3" cy="307.4" r="8.5"/>
			<circle class="st5" cx="97.3" cy="307.4" r="8.5"/>
		</g>
		<g>
			<path class="st6" d="M96.1,311.3c-0.5-0.2-0.8-0.5-0.8-1.3v-1H97v0.8l0.1,0.1h0.5l0.1-0.1v-1.6l-0.1-0.1h-1v-1.3h1l0.1-0.1v-1.5
				l-0.1-0.1h-0.5l-0.1,0.1v0.8h-1.7v-1c0-0.8,0.4-1.1,0.8-1.3h2.5c0.5,0.2,0.8,0.5,0.8,1.3v1.3c0,0.6-0.2,0.9-0.6,1.2
				c0.4,0.3,0.6,0.6,0.6,1.2v1.4c0,0.8-0.4,1.1-0.8,1.3H96.1z"/>
		</g>
	</g>
	<g>
		<g>
			<circle class="st4" cx="83" cy="142.7" r="8.5"/>
			<circle class="st5" cx="83" cy="142.7" r="8.5"/>
		</g>
		<g>
			<path class="st6" d="M84.6,145.1v1.5h-1.7v-1.5h-2.2v-1.5l1.6-4.7h1.7l-1.6,4.6h0.5v-0.4l0.4-1h1.3v1.4h0.5v1.6H84.6z"/>
		</g>
	</g>
	<g>
		<g>
			<circle class="st4" cx="37.4" cy="152" r="8.5"/>
			<circle class="st5" cx="37.4" cy="152" r="8.5"/>
		</g>
		<g>
			<path class="st6" d="M36.1,155.9c-0.5-0.2-0.8-0.5-0.8-1.3v-1h1.6v0.8l0.1,0.1h0.6l0.1-0.1v-2.1l-0.1-0.1H37l-0.1,0.1v0.4h-1.6
				v-4.5h4v1.5h-2.4v1.6l0.4-0.4h1.3c0.5,0.2,0.8,0.5,0.8,1.3v2.4c0,0.8-0.4,1.1-0.8,1.3H36.1z"/>
		</g>
	</g>
	<g>
		<g>
			<circle class="st4" cx="15.1" cy="57.8" r="8.5"/>
			<circle class="st5" cx="15.1" cy="57.8" r="8.5"/>
		</g>
		<g>
			<path class="st6" d="M16.3,61.7h-2.5c-0.5-0.2-0.8-0.5-0.8-1.3v-5.1c0-0.8,0.4-1.1,0.8-1.3h2.5c0.5,0.2,0.8,0.5,0.8,1.3v1h-1.7
				v-0.8l-0.1-0.1h-0.5l-0.1,0.1v1.8L15,57h1.3c0.5,0.2,0.8,0.5,0.8,1.3v2.2C17.2,61.2,16.8,61.5,16.3,61.7z M15.4,60.3l0.1-0.1
				v-1.8l-0.1-0.1h-0.5l-0.1,0.1v1.8l0.1,0.1H15.4z"/>
		</g>
	</g>
	<g>
		<g>
			<circle class="st4" cx="109" cy="34.8" r="8.5"/>
			<circle class="st5" cx="109" cy="34.8" r="8.5"/>
		</g>
		<g>
			<path class="st6" d="M107.2,38.7l2.1-6.2H107V31h4.1v1.2l-2.1,6.5H107.2z"/>
		</g>
	</g>
	<g>
		<g>
			<circle class="st4" cx="247.7" cy="246.1" r="8.5"/>
			<circle class="st5" cx="247.7" cy="246.1" r="8.5"/>
		</g>
		<g>
			<path class="st6" d="M246.5,250c-0.5-0.2-0.8-0.5-0.8-1.3v-1.4c0-0.6,0.2-0.9,0.6-1.2c-0.4-0.3-0.6-0.6-0.6-1.2v-1.3
				c0-0.8,0.4-1.1,0.8-1.3h2.5c0.5,0.2,0.8,0.5,0.8,1.3v1.3c0,0.6-0.2,0.9-0.6,1.2c0.4,0.3,0.6,0.6,0.6,1.2v1.4
				c0,0.8-0.4,1.1-0.8,1.3H246.5z M247.4,245.3l0.1,0.1h0.5l0.1-0.1v-1.5l-0.1-0.1h-0.5l-0.1,0.1V245.3z M248.1,248.5v-1.6l-0.1-0.1
				h-0.5l-0.1,0.1v1.6l0.1,0.1h0.5L248.1,248.5z"/>
		</g>
	</g>
	<g>
		<g>
			<circle class="st4" cx="286.3" cy="208.2" r="8.5"/>
			<circle class="st5" cx="286.3" cy="208.2" r="8.5"/>
		</g>
		<g>
			<path class="st6" d="M285,212.1c-0.5-0.2-0.8-0.5-0.8-1.3v-1h1.7v0.8l0.1,0.1h0.5l0.1-0.1v-1.8l-0.3,0.3H285
				c-0.5-0.2-0.8-0.5-0.8-1.3v-2.2c0-0.8,0.4-1.1,0.8-1.3h2.5c0.5,0.2,0.8,0.5,0.8,1.3v5.1c0,0.8-0.4,1.1-0.8,1.3H285z M286.6,207.8
				V206l-0.1-0.1H286l-0.1,0.1v1.8l0.1,0.1h0.5L286.6,207.8z"/>
		</g>
	</g>
	<g>
		<g>
			<circle class="st4" cx="289" cy="258.6" r="8.5"/>
			<circle class="st5" cx="289" cy="258.6" r="8.5"/>
		</g>
		<g>
			<path class="st6" d="M284.9,262.5v-1.6h1v-4.5h-0.9v-1.6h2.6v6.1h0.9v1.6H284.9z"/>
			<path class="st6" d="M292.6,262.5h-2.5c-0.5-0.2-0.8-0.5-0.8-1.3v-5.1c0-0.8,0.4-1.1,0.8-1.3h2.5c0.5,0.2,0.8,0.5,0.8,1.3v5.1
				C293.4,262,293,262.3,292.6,262.5z M291.7,256.3l-0.1-0.1h-0.5l-0.1,0.1v4.7l0.1,0.1h0.5l0.1-0.1V256.3z"/>
		</g>
	</g>
	<g>
		<g>
			<circle class="st4" cx="535.5" cy="235.8" r="8.5"/>
			<circle class="st5" cx="535.5" cy="235.8" r="8.5"/>
		</g>
		<g>
			<path class="st6" d="M531.4,239.6V238h1v-4.5h-0.9V232h2.6v6.1h0.9v1.6H531.4z"/>
			<path class="st6" d="M536.1,239.6V238h1v-4.5h-0.9V232h2.6v6.1h0.9v1.6H536.1z"/>
		</g>
	</g>
</g>


<g id="アイコン">
	<g>
		
			<rect x="454.5" y="327.7" transform="matrix(-1 -1.604240e-11 1.604240e-11 -1 911.8229 658.2253)" class="st5" width="2.8" height="2.8"/>
		
			<rect x="448.8" y="327.7" transform="matrix(-1 -1.475898e-11 1.475898e-11 -1 900.4844 658.2253)" class="st5" width="2.8" height="2.8"/>
		
			<rect x="451.7" y="324.9" transform="matrix(-1 -1.475898e-11 1.475898e-11 -1 906.1536 652.5561)" class="st5" width="2.8" height="2.8"/>
		
			<rect x="446" y="324.9" transform="matrix(-1 -1.668411e-11 1.668411e-11 -1 894.8151 652.5561)" class="st5" width="2.8" height="2.8"/>
		
			<rect x="451.7" y="319.2" transform="matrix(-1 -1.796753e-11 1.796753e-11 -1 906.1536 641.2175)" class="st5" width="2.8" height="2.8"/>
		
			<rect x="446" y="319.2" transform="matrix(-1 -1.475898e-11 1.475898e-11 -1 894.8151 641.2175)" class="st5" width="2.8" height="2.8"/>
		
			<rect x="443.2" y="327.7" transform="matrix(-1 -1.475898e-11 1.475898e-11 -1 889.1458 658.2253)" class="st5" width="2.8" height="2.8"/>
		
			<rect x="446" y="327.7" transform="matrix(-1 -1.475898e-11 1.475898e-11 -1 894.8151 658.2253)" class="st6" width="2.8" height="2.8"/>
		
			<rect x="451.7" y="327.7" transform="matrix(-1 -1.604240e-11 1.604240e-11 -1 906.1536 658.2253)" class="st6" width="2.8" height="2.8"/>
		
			<rect x="454.5" y="324.9" transform="matrix(-1 -1.411772e-11 1.411772e-11 -1 911.8229 652.5561)" class="st6" width="2.8" height="2.8"/>
		
			<rect x="448.8" y="324.9" transform="matrix(-1 -1.796753e-11 1.796753e-11 -1 900.4844 652.5561)" class="st6" width="2.8" height="2.8"/>
		
			<rect x="443.2" y="324.9" transform="matrix(-1 -1.540069e-11 1.540069e-11 -1 889.1458 652.5561)" class="st6" width="2.8" height="2.8"/>
		
			<rect x="446" y="322" transform="matrix(-1 -1.604240e-11 1.604240e-11 -1 894.8151 646.8868)" class="st6" width="2.8" height="2.8"/>
		
			<rect x="451.7" y="322" transform="matrix(-1 -1.604240e-11 1.604240e-11 -1 906.1536 646.8868)" class="st6" width="2.8" height="2.8"/>
		
			<rect x="446" y="316.4" transform="matrix(-1 -1.540069e-11 1.540069e-11 -1 894.8151 635.5482)" class="st6" width="2.8" height="2.8"/>
		
			<rect x="451.7" y="316.4" transform="matrix(-1 -1.475898e-11 1.475898e-11 -1 906.1536 635.5482)" class="st6" width="2.8" height="2.8"/>
		
			<rect x="454.5" y="319.2" transform="matrix(-1 -1.411772e-11 1.411772e-11 -1 911.8229 641.2175)" class="st6" width="2.8" height="2.8"/>
		
			<rect x="448.8" y="319.2" transform="matrix(-1 -1.540069e-11 1.540069e-11 -1 900.4844 641.2175)" class="st6" width="2.8" height="2.8"/>
		
			<rect x="443.2" y="319.2" transform="matrix(-1 -1.540069e-11 1.540069e-11 -1 889.1458 641.2175)" class="st6" width="2.8" height="2.8"/>
		
			<rect x="454.5" y="322" transform="matrix(-1 -1.475898e-11 1.475898e-11 -1 911.8229 646.8868)" class="st5" width="2.8" height="2.8"/>
		
			<rect x="448.8" y="322" transform="matrix(-1 -1.411772e-11 1.411772e-11 -1 900.4844 646.8868)" class="st5" width="2.8" height="2.8"/>
		
			<rect x="448.8" y="316.4" transform="matrix(-1 -1.540069e-11 1.540069e-11 -1 900.4844 635.5482)" class="st5" width="2.8" height="2.8"/>
		
			<rect x="443.2" y="322" transform="matrix(-1 -1.475898e-11 1.475898e-11 -1 889.1458 646.8868)" class="st5" width="2.8" height="2.8"/>
		
			<rect x="454.5" y="316.4" transform="matrix(-1 -1.604240e-11 1.604240e-11 -1 911.8229 635.5482)" class="st5" width="2.8" height="2.8"/>
		
			<rect x="443.2" y="316.4" transform="matrix(-1 -1.411772e-11 1.411772e-11 -1 889.1458 635.5482)" class="st5" width="2.8" height="2.8"/>
	</g>
	<g>
		<g>
			<path class="st6" d="M462.8,426.3c0,1.6-1.3,2.8-2.8,2.8H91.1c-1.6,0-2.8-1.3-2.8-2.8v-24.9c0-1.6,1.3-2.8,2.8-2.8h368.8
				c1.6,0,2.8,1.3,2.8,2.8V426.3z"/>
			<path class="st13" d="M462.8,426.3c0,1.6-1.3,2.8-2.8,2.8H91.1c-1.6,0-2.8-1.3-2.8-2.8v-24.9c0-1.6,1.3-2.8,2.8-2.8h368.8
				c1.6,0,2.8,1.3,2.8,2.8V426.3z"/>
		</g>
		<g>
			<path class="st5" d="M133.8,415.3v2.6c0,1.3-0.6,1.7-1.3,2h-3.3c-0.7-0.3-1.3-0.7-1.3-2v-2h1.8v2.1l0.4,0.4h1.6l0.4-0.4v-2.8
				l-0.3-0.4L129,414c-0.8-0.3-1.1-0.8-1.1-1.9v-2.2c0-1.3,0.6-1.7,1.3-2h3.3c0.7,0.3,1.3,0.7,1.3,2v1.9H132v-2.1l-0.4-0.4h-1.6
				l-0.4,0.4v2.4l0.4,0.4l2.6,0.7C133.4,413.6,133.8,414.1,133.8,415.3z"/>
			<path class="st5" d="M135.1,407.9h5.1v1.6h-3.3v3.4h3.1v1.6h-3.1v3.7h3.4v1.6h-5.2V407.9z"/>
			<path class="st5" d="M147.5,417.9c0,1.3-0.6,1.7-1.3,2h-3.3c-0.7-0.3-1.3-0.7-1.3-2v-8c0-1.3,0.6-1.7,1.3-2h3.3
				c0.7,0.3,1.3,0.7,1.3,2v2.7h-1.8v-2.8l-0.4-0.4h-1.6l-0.4,0.4v8.3l0.4,0.4h1.6l0.4-0.4v-2.7h1.8V417.9z"/>
			<path class="st5" d="M152.2,409.5v10.3h-1.8v-10.3h-2.1v-1.6h6.1v1.6H152.2z"/>
			<path class="st5" d="M161.1,417.9c0,1.3-0.6,1.7-1.3,2h-3.3c-0.7-0.3-1.3-0.7-1.3-2v-8c0-1.3,0.6-1.7,1.3-2h3.3
				c0.7,0.3,1.3,0.7,1.3,2V417.9z M159.3,409.7l-0.4-0.4h-1.6l-0.4,0.4v8.3l0.4,0.4h1.6l0.4-0.4V409.7z"/>
			<path class="st5" d="M162.5,419.8v-12h4.6c0.7,0.3,1.3,0.7,1.3,2v2.6c0,1.3-0.6,1.6-1.3,1.9l-0.3,0.1l2.1,4.3v1.1h-1.6l-2.2-5.1
				h-0.8v5.1H162.5z M164.3,409.4v3.9h2l0.4-0.4v-3.1l-0.4-0.4H164.3z"/>
			<path class="st5" d="M172.6,419.8v-1.6h1.8v-8.7h-1.7v-1.6h3.5v10.4h1.7v1.6H172.6z"/>
		</g>
		<line class="st14" x1="102.5" y1="413.9" x2="123.7" y2="413.9"/>
		<g>
			<path class="st5" d="M223.9,415.3v2.6c0,1.3-0.6,1.7-1.3,2h-3.3c-0.7-0.3-1.3-0.7-1.3-2v-2h1.8v2.1l0.4,0.4h1.6l0.4-0.4v-2.8
				l-0.3-0.4l-2.6-0.8c-0.8-0.3-1.1-0.8-1.1-1.9v-2.2c0-1.3,0.6-1.7,1.3-2h3.3c0.7,0.3,1.3,0.7,1.3,2v1.9h-1.8v-2.1l-0.4-0.4h-1.6
				l-0.4,0.4v2.4l0.4,0.4l2.6,0.7C223.5,413.6,223.9,414.1,223.9,415.3z"/>
			<path class="st5" d="M225.2,407.9h5.1v1.6H227v3.4h3.1v1.6H227v3.7h3.4v1.6h-5.2V407.9z"/>
			<path class="st5" d="M237.6,417.9c0,1.3-0.6,1.7-1.3,2h-3.3c-0.7-0.3-1.3-0.7-1.3-2v-8c0-1.3,0.6-1.7,1.3-2h3.3
				c0.7,0.3,1.3,0.7,1.3,2v2.7h-1.8v-2.8l-0.4-0.4h-1.6l-0.4,0.4v8.3l0.4,0.4h1.6l0.4-0.4v-2.7h1.8V417.9z"/>
			<path class="st5" d="M242.3,409.5v10.3h-1.8v-10.3h-2.1v-1.6h6.1v1.6H242.3z"/>
			<path class="st5" d="M251.2,417.9c0,1.3-0.6,1.7-1.3,2h-3.3c-0.7-0.3-1.3-0.7-1.3-2v-8c0-1.3,0.6-1.7,1.3-2h3.3
				c0.7,0.3,1.3,0.7,1.3,2V417.9z M249.4,409.7l-0.4-0.4h-1.6l-0.4,0.4v8.3l0.4,0.4h1.6l0.4-0.4V409.7z"/>
			<path class="st5" d="M252.6,419.8v-12h4.6c0.7,0.3,1.3,0.7,1.3,2v2.6c0,1.3-0.6,1.6-1.3,1.9l-0.3,0.1l2.1,4.3v1.1h-1.6l-2.2-5.1
				h-0.8v5.1H252.6z M254.4,409.4v3.9h2l0.4-0.4v-3.1l-0.4-0.4H254.4z"/>
			<path class="st5" d="M262.3,419.8v-3.6c0-1.1,0.4-1.7,1.2-2.1l3-1.2v-3.2l-0.4-0.4h-1.7l-0.4,0.4v2h-1.8v-1.9
				c0-1.3,0.6-1.7,1.3-2h3.3c0.7,0.3,1.3,0.7,1.3,2v2.5c0,1.1-0.3,1.7-1.1,2.1l-3,1.2v2.5h4.1v1.6H262.3z"/>
		</g>
		<line class="st15" x1="192.6" y1="413.9" x2="213.8" y2="413.9"/>
		<g>
			<path class="st5" d="M313.7,415.3v2.6c0,1.3-0.6,1.7-1.3,2h-3.3c-0.7-0.3-1.3-0.7-1.3-2v-2h1.8v2.1l0.4,0.4h1.6l0.4-0.4v-2.8
				l-0.3-0.4L309,414c-0.8-0.3-1.1-0.8-1.1-1.9v-2.2c0-1.3,0.6-1.7,1.3-2h3.3c0.7,0.3,1.3,0.7,1.3,2v1.9h-1.8v-2.1l-0.4-0.4H310
				l-0.4,0.4v2.4l0.4,0.4l2.6,0.7C313.4,413.6,313.7,414.1,313.7,415.3z"/>
			<path class="st5" d="M315.1,407.9h5.1v1.6h-3.3v3.4h3.1v1.6h-3.1v3.7h3.4v1.6h-5.2V407.9z"/>
			<path class="st5" d="M327.4,417.9c0,1.3-0.6,1.7-1.3,2h-3.3c-0.7-0.3-1.3-0.7-1.3-2v-8c0-1.3,0.6-1.7,1.3-2h3.3
				c0.7,0.3,1.3,0.7,1.3,2v2.7h-1.8v-2.8l-0.4-0.4h-1.6l-0.4,0.4v8.3l0.4,0.4h1.6l0.4-0.4v-2.7h1.8V417.9z"/>
			<path class="st5" d="M332.1,409.5v10.3h-1.8v-10.3h-2.1v-1.6h6.1v1.6H332.1z"/>
			<path class="st5" d="M341,417.9c0,1.3-0.6,1.7-1.3,2h-3.3c-0.7-0.3-1.3-0.7-1.3-2v-8c0-1.3,0.6-1.7,1.3-2h3.3
				c0.7,0.3,1.3,0.7,1.3,2V417.9z M339.2,409.7l-0.4-0.4h-1.6l-0.4,0.4v8.3l0.4,0.4h1.6l0.4-0.4V409.7z"/>
			<path class="st5" d="M342.4,419.8v-12h4.6c0.7,0.3,1.3,0.7,1.3,2v2.6c0,1.3-0.6,1.6-1.3,1.9l-0.3,0.1l2.1,4.3v1.1h-1.6l-2.2-5.1
				h-0.8v5.1H342.4z M344.2,409.4v3.9h2l0.4-0.4v-3.1l-0.4-0.4H344.2z"/>
			<path class="st5" d="M353.4,419.8c-0.7-0.3-1.3-0.7-1.3-2v-1.7h1.8v1.8l0.4,0.4h1.7l0.4-0.4v-3.2l-0.4-0.3h-1.8V413h1.8l0.4-0.4
				v-3l-0.4-0.4h-1.7l-0.4,0.4v1.8h-1.8v-1.7c0-1.3,0.6-1.7,1.3-2h3.3c0.7,0.3,1.3,0.7,1.3,2v1.9c0,1-0.2,1.5-0.9,1.9
				c0.6,0.4,0.9,0.9,0.9,1.9v2.2c0,1.3-0.6,1.7-1.3,2H353.4z"/>
		</g>
		<line class="st16" x1="282.4" y1="413.9" x2="303.7" y2="413.9"/>
		<g>
			<path class="st5" d="M403.6,417.9c0,1.3-0.6,1.7-1.3,2h-4.6v-12h4.6c0.7,0.3,1.3,0.7,1.3,2V417.9z M399.5,409.4v9h2l0.4-0.4v-8.3
				l-0.4-0.4H399.5z"/>
			<path class="st5" d="M405,419.8v-12h4.6c0.7,0.3,1.3,0.7,1.3,2v2.6c0,1.3-0.6,1.6-1.3,1.9l-0.3,0.1l2.1,4.3v1.1h-1.6l-2.2-5.1
				h-0.8v5.1H405z M406.8,409.4v3.9h2l0.4-0.4v-3.1l-0.4-0.4H406.8z"/>
			<path class="st5" d="M418.1,415.3v2.6c0,1.3-0.6,1.7-1.3,2h-3.3c-0.7-0.3-1.3-0.7-1.3-2v-2h1.8v2.1l0.4,0.4h1.6l0.4-0.4v-2.8
				l-0.3-0.4l-2.6-0.8c-0.8-0.3-1.1-0.8-1.1-1.9v-2.2c0-1.3,0.6-1.7,1.3-2h3.3c0.7,0.3,1.3,0.7,1.3,2v1.9h-1.8v-2.1l-0.4-0.4h-1.6
				l-0.4,0.4v2.4l0.4,0.4l2.6,0.7C417.7,413.6,418.1,414.1,418.1,415.3z"/>
			<path class="st5" d="M425.6,409.5h-3.9v-1.6h5.8v1.5l-4,8.9h4v1.6h-5.9v-1.5L425.6,409.5z"/>
			<path class="st5" d="M434.8,417.9c0,1.3-0.6,1.7-1.3,2h-3.3c-0.7-0.3-1.3-0.7-1.3-2v-8c0-1.3,0.6-1.7,1.3-2h3.3
				c0.7,0.3,1.3,0.7,1.3,2V417.9z M433,409.7l-0.4-0.4H431l-0.4,0.4v8.3l0.4,0.4h1.6l0.4-0.4V409.7z"/>
			<path class="st5" d="M440.5,407.9h1.6v12h-1.6l-2.6-7.1h-0.2v7.1h-1.6v-12h1.6l2.6,7.1h0.2V407.9z"/>
			<path class="st5" d="M443.5,407.9h5.1v1.6h-3.3v3.4h3.1v1.6h-3.1v3.7h3.4v1.6h-5.2V407.9z"/>
		</g>
		<g>
			<g>
				<g>
					<g>
						<line class="st17" x1="373.7" y1="406.5" x2="373.7" y2="421.4"/>
					</g>
					<g>
						<path class="st8" d="M381.3,413.9c0,0.8-0.7,1.4-1.5,1.4c-0.8,0-1.5-0.6-1.5-1.4c0-0.8,0.7-1.4,1.5-1.4
							C380.7,412.5,381.3,413.2,381.3,413.9z"/>
					</g>
					<g>
						<ellipse class="st8" cx="385.9" cy="413.9" rx="1.5" ry="1.4"/>
					</g>
					<g>
						<line class="st17" x1="392" y1="406.5" x2="392" y2="421.4"/>
					</g>
				</g>
			</g>
		</g>
	</g>
	<g>
		<defs>
			<rect id="SVGID_1_" x="394.4" y="318.9" width="22.3" height="8.5"/>
		</defs>
		<clipPath id="SVGID_00000183950086648462034440000016527311867714610055_">
			<use xlink:href="#SVGID_1_"  style="overflow:visible;"/>
		</clipPath>
		<g style="clip-path:url(#SVGID_00000183950086648462034440000016527311867714610055_);">
			<polygon class="st19" points="415.4,330.2 412.6,330.2 406.9,323.1 412.6,316 415.4,316 409.8,323.1 			"/>
			<polygon class="st20" points="409.8,330.2 406.9,330.2 401.3,323.1 406.9,316 409.8,316 404.1,323.1 			"/>
			<polygon class="st21" points="404.1,330.2 401.3,330.2 395.6,323.1 401.3,316 404.1,316 398.4,323.1 			"/>
		</g>
	</g>
</g>
</svg>
