<?xml version="1.0" encoding="utf-8"?>
<!-- Generator: Adobe Illustrator 26.5.0, SVG Export Plug-In . SVG Version: 6.00 Build 0)  -->
<svg version="1.1" xmlns="http://www.w3.org/2000/svg" xmlns:xlink="http://www.w3.org/1999/xlink" x="0px" y="0px"
	 viewBox="0.0 0.0 550.0 372.3" style="enable-background:new 0 0 550 443.7;" xml:space="preserve">
<style type="text/css">
	.st0{fill:none;stroke:#646464;stroke-width:5.775;stroke-miterlimit:10;}
	.st1{fill:none;stroke:#54C6EB;stroke-width:1.155;stroke-miterlimit:10;}
	.st2{fill:none;stroke:#F4442E;stroke-width:1.155;stroke-miterlimit:10;}
	.st3{fill:none;stroke:#FFD449;stroke-width:1.155;stroke-miterlimit:10;}
	.st4{fill:none;stroke:#FFFFFF;stroke-width:0.866;}
	.st5{fill:#646464;}
	.st6{fill:#FFFFFF;}
	.st7{fill:#09BC8A;}
	.st8{fill:none;stroke:#646464;stroke-width:1.155;stroke-miterlimit:10;}
	.st9{fill:none;stroke:#09BC8A;stroke-width:0.809;stroke-miterlimit:10;}
	.st10{fill:none;stroke:#09BC8A;stroke-width:0.900;stroke-miterlimit:10;}
	.st11{fill:#FF3380;}
	.st12{fill:none;stroke:#FF3380;stroke-width:0.809;stroke-miterlimit:10;}
	.st13{fill:none;stroke:#646464;stroke-width:0.289;stroke-miterlimit:10;}
	.st14{fill:none;stroke:#F4442E;stroke-width:2.310;stroke-miterlimit:10;}
	.st15{fill:none;stroke:#54C6EB;stroke-width:2.310;stroke-miterlimit:10;}
	.st16{fill:none;stroke:#FFD449;stroke-width:2.310;stroke-miterlimit:10;}
	.st17{fill:none;stroke:#09BC8A;stroke-width:1.155;stroke-miterlimit:10;}
	.st18{clip-path:url(#SVGID_00000160880835667528958380000006558704284884290727_);}
	.st19{fill:#F4442E;}
	.st20{fill:#54C6EB;}
	.st21{fill:#FFD449;}
</style>
<g id="コース">
	<path class="st0" d="M419.1,177.4c0,0,95.3,117,98.6,121.4s4.6,11.9,2.6,19.5c-2,7.7-6.4,19.9-15.5,19.9s-13.3-3.2-15.9-7.6
		c-2.6-4.4-17.3-29.6-19.6-32.6s-2.7-5-7.8-7.5c-5-2.4-10.5-1.6-15.3-1.8c-4.7-0.1-14.8-2.9-17.8-16.1c-3.1-13.8-3.5-17.1-9-23.3
		c-10.3-11.5-29,1-41-14.4c-6.4-8.1-4.2-18.1,0.2-27.4c6.8-14.5,3-25.2-4.9-30.7s-18.9-11.4-36.9-10.9
		c-16.5,0.5-31.3,10.8-36.5,17.2c-5.3,6.5-24.7,29.7-25.8,31c-1.1,1.2-2.5,2.5-5,2.6c-2.5,0.1-30.7,2-32.8,2.1
		c-2.1,0.1-5.8-0.4-6.7-5.6s-11.5-60.7-12.5-66.7c-1-6-0.2-13.2,2.3-17.6c2.5-4.4,5.5-11.3,7.7-15.6c3.7-7.3-5.4-12.3-9.5-5.9
		c-2.2,3.3-15.3,24.4-18.5,28.6c-5.5,7.2-14.3,20.9-44.3,19.4c-24.5-1.2-58.9-13.3-71.1-44.9c-4.1-10.6-11.6-27.9-13.1-31.1
		c-1.4-3.2-4.9-8.6-13-8.6s-13.7,0.2-18,1.4c-4.3,1.2-12.7,4.2-12.7,16s13.3,21.1,19.6,26.2c6.4,5.2,35.3,25.6,52.9,33.4
		c17.6,7.8,128.2,47.8,131.7,49c4.6,1.6,7.8,2.4,16.5,0.3c2.9-0.7,10.9-3.5,14.5-5.3c6.1-3.2,14.6-7.3,30-22.7
		c7.8-7.7,27.8-24.4,30.6-26.3c2.9-2,4.7-1.1,6.9,1.2c2.2,2.3,3.1,3,4.1,4.1c1,1.1,4,2.1,7.1-0.5c3.2-2.6,9.2-10.8,24.3-10.8
		c15,0,31.6,12.8,41.2,24.8C416.1,173.8,419.1,177.4,419.1,177.4z"/>
</g>
<g id="セクター">
	<path class="st1" d="M287.1,199.2c-6.1,7.4-12,14.4-12.6,15c-1.1,1.2-2.5,2.5-5,2.6c-2.5,0.1-30.7,2-32.8,2.1
		c-2.1,0.1-5.8-0.4-6.7-5.6s-11.5-60.7-12.5-66.7c-1-6-0.2-13.2,2.3-17.6c2.5-4.4,5.5-11.3,7.7-15.6c3.7-7.3-5.4-12.3-9.5-5.9
		c-2.2,3.3-15.3,24.4-18.5,28.6c-5.5,7.2-14.3,20.9-44.3,19.4c-24.5-1.2-58.9-13.3-71.1-44.9c-4.1-10.6-11.6-27.9-13.1-31.1
		c-1.4-3.2-4.9-8.6-13-8.6s-13.7,0.2-18,1.4c-4.3,1.2-12.7,4.2-12.7,16s13.3,21.1,19.6,26.2c6.4,5.2,35.3,25.6,52.9,33.4
		c4.9,2.2,16.9,6.8,31.8,12.4"/>
	<path class="st2" d="M404.7,159.7c0.6,0.7,1.2,1.5,1.8,2.2c9.5,12,12.6,15.6,12.6,15.6s95.3,117,98.6,121.4s4.6,11.9,2.6,19.5
		c-2,7.7-6.4,19.9-15.5,19.9s-13.3-3.2-15.9-7.6c-2.6-4.4-17.3-29.6-19.6-32.6s-2.7-5-7.8-7.5c-5-2.4-10.5-1.6-15.3-1.8
		c-4.7-0.1-14.8-2.9-17.8-16.1c-3.1-13.8-3.5-17.1-9-23.3c-10.3-11.5-29,1-41-14.4c-6.4-8.1-4.2-18.1,0.2-27.4
		c6.8-14.5,3-25.2-4.9-30.7s-18.9-11.4-36.9-10.9c-16.5,0.5-31.3,10.8-36.5,17.2c-2.4,3-7.9,9.6-13.2,15.9"/>
	<g>
		<path class="st0" d="M131.5,160.5c38.9,14.6,97.3,35.7,99.9,36.5c4.6,1.6,7.8,2.4,16.5,0.3c2.9-0.7,10.9-3.5,14.5-5.3
			c6.1-3.2,14.6-7.3,30-22.7c7.8-7.7,27.8-24.4,30.6-26.3c2.9-2,4.7-1.1,6.9,1.2c2.2,2.3,3.1,3,4.1,4.1c1,1.1,4,2.1,7.1-0.5
			c3.2-2.6,9.2-10.8,24.3-10.8c14.1,0,29.6,11.3,39.3,22.6"/>
		<path class="st3" d="M131.5,160.5c38.9,14.6,97.3,35.7,99.9,36.5c4.6,1.6,7.8,2.4,16.5,0.3c2.9-0.7,10.9-3.5,14.5-5.3
			c6.1-3.2,14.6-7.3,30-22.7c7.8-7.7,27.8-24.4,30.6-26.3c2.9-2,4.7-1.1,6.9,1.2c2.2,2.3,3.1,3,4.1,4.1c1,1.1,4,2.1,7.1-0.5
			c3.2-2.6,9.2-10.8,24.3-10.8c14.1,0,29.6,11.3,39.3,22.6"/>
	</g>
</g>
<g id="コーナー番号">
	<g>
		<g>
			
			
		</g>
		<g>
			
		</g>
	</g>
	<g>
		<g>
			
			
		</g>
		<g>
			
		</g>
	</g>
	<g>
		<g>
			
			
		</g>
		<g>
			
		</g>
	</g>
	<g>
		<g>
			
			
		</g>
		<g>
			
		</g>
	</g>
	<g>
		<g>
			
			
		</g>
		<g>
			
		</g>
	</g>
	<g>
		<g>
			
			
		</g>
		<g>
			
		</g>
	</g>
	<g>
		<g>
			
			
		</g>
		<g>
			
		</g>
	</g>
	<g>
		<g>
			
			
		</g>
		<g>
			
		</g>
	</g>
	<g>
		<g>
			
			
		</g>
		<g>
			
		</g>
	</g>
	<g>
		<g>
			
			
		</g>
		<g>
			
			
		</g>
	</g>
	<g>
		<g>
			
			
		</g>
		<g>
			
			
		</g>
	</g>
	<g>
		<g>
			
			
		</g>
		<g>
			
			
		</g>
	</g>
	<g>
		<g>
			
			
		</g>
		<g>
			
			
		</g>
	</g>
	<g>
		<g>
			
			
		</g>
		<g>
			
			
		</g>
	</g>
	<g>
		<g>
			
			
		</g>
		<g>
			
			
		</g>
	</g>
	<g>
		<g>
			
			
		</g>
		<g>
			
			
		</g>
	</g>
	<g>
		<g>
			
			
		</g>
		<g>
			
			
		</g>
	</g>
	<g>
		<g>
			
			
		</g>
		<g>
			
			
		</g>
	</g>
</g>



</svg>
