<?xml version="1.0" encoding="utf-8"?>
<!-- Generator: Adobe Illustrator 26.5.0, SVG Export Plug-In . SVG Version: 6.00 Build 0)  -->
<svg version="1.1" xmlns="http://www.w3.org/2000/svg" xmlns:xlink="http://www.w3.org/1999/xlink" x="0px" y="0px"
	 viewBox="0.0 0.0 550.0 372.3" style="enable-background:new 0 0 550 443.7;" xml:space="preserve">
<style type="text/css">
	.st0{fill:none;stroke:#646464;stroke-width:14.1732;stroke-miterlimit:10;}
	.st1{fill:none;stroke:#54C6EB;stroke-width:2.8346;stroke-miterlimit:10;}
	.st2{fill:none;stroke:#F4442E;stroke-width:2.8346;stroke-miterlimit:10;}
	.st3{fill:none;stroke:#FFD449;stroke-width:2.8346;stroke-miterlimit:10;}
	.st4{fill:none;stroke:#FFFFFF;stroke-width:2.126;}
	.st5{fill:#646464;}
	.st6{fill:#FFFFFF;}
	.st7{fill:#09BC8A;}
	.st8{fill:none;stroke:#646464;stroke-width:2.8346;stroke-miterlimit:10;}
	.st9{fill:none;stroke:#09BC8A;stroke-width:1.9843;stroke-miterlimit:10;}
	.st10{fill:none;stroke:#09BC8A;stroke-width:2.2097;stroke-miterlimit:10;}
	.st11{fill:#FF3380;}
	.st12{fill:none;stroke:#FF3380;stroke-width:1.9843;stroke-miterlimit:10;}
	.st13{fill:none;stroke:#646464;stroke-width:0.7087;stroke-miterlimit:10;}
	.st14{fill:none;stroke:#F4442E;stroke-width:5.6693;stroke-miterlimit:10;}
	.st15{fill:none;stroke:#54C6EB;stroke-width:5.6693;stroke-miterlimit:10;}
	.st16{fill:none;stroke:#FFD449;stroke-width:5.6693;stroke-miterlimit:10;}
	.st17{fill:none;stroke:#09BC8A;stroke-width:2.8346;stroke-miterlimit:10;}
	.st18{clip-path:url(#SVGID_00000160880835667528958380000006558704284884290727_);}
	.st19{fill:#F4442E;}
	.st20{fill:#54C6EB;}
	.st21{fill:#FFD449;}
</style>
<g id="コース">
	<path class="st0" d="M419.1,177.4c0,0,95.3,117,98.6,121.4s4.6,11.9,2.6,19.5c-2,7.7-6.4,19.9-15.5,19.9s-13.3-3.2-15.9-7.6
		c-2.6-4.4-17.3-29.6-19.6-32.6s-2.7-5-7.8-7.5c-5-2.4-10.5-1.6-15.3-1.8c-4.7-0.1-14.8-2.9-17.8-16.1c-3.1-13.8-3.5-17.1-9-23.3
		c-10.3-11.5-29,1-41-14.4c-6.4-8.1-4.2-18.1,0.2-27.4c6.8-14.5,3-25.2-4.9-30.7s-18.9-11.4-36.9-10.9
		c-16.5,0.5-31.3,10.8-36.5,17.2c-5.3,6.5-24.7,29.7-25.8,31c-1.1,1.2-2.5,2.5-5,2.6c-2.5,0.1-30.7,2-32.8,2.1
		c-2.1,0.1-5.8-0.4-6.7-5.6s-11.5-60.7-12.5-66.7c-1-6-0.2-13.2,2.3-17.6c2.5-4.4,5.5-11.3,7.7-15.6c3.7-7.3-5.4-12.3-9.5-5.9
		c-2.2,3.3-15.3,24.4-18.5,28.6c-5.5,7.2-14.3,20.9-44.3,19.4c-24.5-1.2-58.9-13.3-71.1-44.9c-4.1-10.6-11.6-27.9-13.1-31.1
		c-1.4-3.2-4.9-8.6-13-8.6s-13.7,0.2-18,1.4c-4.3,1.2-12.7,4.2-12.7,16s13.3,21.1,19.6,26.2c6.4,5.2,35.3,25.6,52.9,33.4
		c17.6,7.8,128.2,47.8,131.7,49c4.6,1.6,7.8,2.4,16.5,0.3c2.9-0.7,10.9-3.5,14.5-5.3c6.1-3.2,14.6-7.3,30-22.7
		c7.8-7.7,27.8-24.4,30.6-26.3c2.9-2,4.7-1.1,6.9,1.2c2.2,2.3,3.1,3,4.1,4.1c1,1.1,4,2.1,7.1-0.5c3.2-2.6,9.2-10.8,24.3-10.8
		c15,0,31.6,12.8,41.2,24.8C416.1,173.8,419.1,177.4,419.1,177.4z"/>
</g>
<g id="セクター">
	<path class="st1" d="M287.1,199.2c-6.1,7.4-12,14.4-12.6,15c-1.1,1.2-2.5,2.5-5,2.6c-2.5,0.1-30.7,2-32.8,2.1
		c-2.1,0.1-5.8-0.4-6.7-5.6s-11.5-60.7-12.5-66.7c-1-6-0.2-13.2,2.3-17.6c2.5-4.4,5.5-11.3,7.7-15.6c3.7-7.3-5.4-12.3-9.5-5.9
		c-2.2,3.3-15.3,24.4-18.5,28.6c-5.5,7.2-14.3,20.9-44.3,19.4c-24.5-1.2-58.9-13.3-71.1-44.9c-4.1-10.6-11.6-27.9-13.1-31.1
		c-1.4-3.2-4.9-8.6-13-8.6s-13.7,0.2-18,1.4c-4.3,1.2-12.7,4.2-12.7,16s13.3,21.1,19.6,26.2c6.4,5.2,35.3,25.6,52.9,33.4
		c4.9,2.2,16.9,6.8,31.8,12.4"/>
	<path class="st2" d="M404.7,159.7c0.6,0.7,1.2,1.5,1.8,2.2c9.5,12,12.6,15.6,12.6,15.6s95.3,117,98.6,121.4s4.6,11.9,2.6,19.5
		c-2,7.7-6.4,19.9-15.5,19.9s-13.3-3.2-15.9-7.6c-2.6-4.4-17.3-29.6-19.6-32.6s-2.7-5-7.8-7.5c-5-2.4-10.5-1.6-15.3-1.8
		c-4.7-0.1-14.8-2.9-17.8-16.1c-3.1-13.8-3.5-17.1-9-23.3c-10.3-11.5-29,1-41-14.4c-6.4-8.1-4.2-18.1,0.2-27.4
		c6.8-14.5,3-25.2-4.9-30.7s-18.9-11.4-36.9-10.9c-16.5,0.5-31.3,10.8-36.5,17.2c-2.4,3-7.9,9.6-13.2,15.9"/>
	<g>
		<path class="st0" d="M131.5,160.5c38.9,14.6,97.3,35.7,99.9,36.5c4.6,1.6,7.8,2.4,16.5,0.3c2.9-0.7,10.9-3.5,14.5-5.3
			c6.1-3.2,14.6-7.3,30-22.7c7.8-7.7,27.8-24.4,30.6-26.3c2.9-2,4.7-1.1,6.9,1.2c2.2,2.3,3.1,3,4.1,4.1c1,1.1,4,2.1,7.1-0.5
			c3.2-2.6,9.2-10.8,24.3-10.8c14.1,0,29.6,11.3,39.3,22.6"/>
		<path class="st3" d="M131.5,160.5c38.9,14.6,97.3,35.7,99.9,36.5c4.6,1.6,7.8,2.4,16.5,0.3c2.9-0.7,10.9-3.5,14.5-5.3
			c6.1-3.2,14.6-7.3,30-22.7c7.8-7.7,27.8-24.4,30.6-26.3c2.9-2,4.7-1.1,6.9,1.2c2.2,2.3,3.1,3,4.1,4.1c1,1.1,4,2.1,7.1-0.5
			c3.2-2.6,9.2-10.8,24.3-10.8c14.1,0,29.6,11.3,39.3,22.6"/>
	</g>
</g>
<g id="コーナー番号">
	<g>
		<g>
			<circle class="st4" cx="538" cy="298.6" r="8.5"/>
			<circle class="st5" cx="538" cy="298.6" r="8.5"/>
		</g>
		<g>
			<path class="st6" d="M536.3,302.5v-1.6h1v-4.5h-0.9v-1.6h2.6v6.1h0.9v1.6H536.3z"/>
		</g>
	</g>
	<g>
		<g>
			<circle class="st4" cx="508.7" cy="358.4" r="8.5"/>
			<circle class="st5" cx="508.7" cy="358.4" r="8.5"/>
		</g>
		<g>
			<path class="st6" d="M506.6,362.3v-2.6c0-0.6,0.1-1,0.6-1.2l1.9-0.8v-1.6l-0.1-0.1h-0.5l-0.1,0.1v1.1h-1.7v-1.3
				c0-0.8,0.4-1.1,0.8-1.3h2.5c0.5,0.2,0.8,0.5,0.8,1.3v1.9c0,0.6-0.1,0.9-0.6,1.2l-1.8,0.8v0.9h2.4v1.6H506.6z"/>
		</g>
	</g>
	<g>
		<g>
			<circle class="st4" cx="473.8" cy="275.7" r="8.5"/>
			<circle class="st5" cx="473.8" cy="275.7" r="8.5"/>
		</g>
		<g>
			<path class="st6" d="M472.6,279.6c-0.5-0.2-0.8-0.5-0.8-1.3v-1h1.7v0.8l0.1,0.1h0.5l0.1-0.1v-1.6l-0.1-0.1h-1V275h1l0.1-0.1v-1.5
				l-0.1-0.1h-0.5l-0.1,0.1v0.8h-1.7v-1c0-0.8,0.4-1.1,0.8-1.3h2.5c0.5,0.2,0.8,0.5,0.8,1.3v1.3c0,0.6-0.2,0.9-0.6,1.2
				c0.4,0.3,0.6,0.6,0.6,1.2v1.4c0,0.8-0.4,1.1-0.8,1.3H472.6z"/>
		</g>
	</g>
	<g>
		<g>
			<circle class="st4" cx="423.8" cy="299.9" r="8.5"/>
			<circle class="st5" cx="423.8" cy="299.9" r="8.5"/>
		</g>
		<g>
			<path class="st6" d="M425.5,302.3v1.5h-1.7v-1.5h-2.2v-1.5l1.6-4.7h1.7l-1.6,4.6h0.5v-0.4l0.4-1h1.3v1.4h0.5v1.6H425.5z"/>
		</g>
	</g>
	<g>
		<g>
			<circle class="st4" cx="434" cy="235.1" r="8.5"/>
			<circle class="st5" cx="434" cy="235.1" r="8.5"/>
		</g>
		<g>
			<path class="st6" d="M432.8,239c-0.5-0.2-0.8-0.5-0.8-1.3v-1h1.6v0.8l0.1,0.1h0.6l0.1-0.1v-2.1l-0.1-0.1h-0.6l-0.1,0.1v0.4H432
				v-4.5h4v1.5h-2.4v1.6l0.4-0.4h1.3c0.5,0.2,0.8,0.5,0.8,1.3v2.4c0,0.8-0.4,1.1-0.8,1.3H432.8z"/>
		</g>
	</g>
	<g>
		<g>
			<circle class="st4" cx="362.5" cy="245" r="8.5"/>
			<circle class="st5" cx="362.5" cy="245" r="8.5"/>
		</g>
		<g>
			<path class="st6" d="M363.8,248.9h-2.5c-0.5-0.2-0.8-0.5-0.8-1.3v-5.1c0-0.8,0.4-1.1,0.8-1.3h2.5c0.5,0.2,0.8,0.5,0.8,1.3v1h-1.7
				v-0.8l-0.1-0.1h-0.5l-0.1,0.1v1.8l0.3-0.3h1.3c0.5,0.2,0.8,0.5,0.8,1.3v2.2C364.6,248.5,364.2,248.8,363.8,248.9z M362.8,247.5
				l0.1-0.1v-1.8l-0.1-0.1h-0.5l-0.1,0.1v1.8l0.1,0.1H362.8z"/>
		</g>
	</g>
	<g>
		<g>
			<circle class="st4" cx="360.4" cy="192.8" r="8.5"/>
			<circle class="st5" cx="360.4" cy="192.8" r="8.5"/>
		</g>
		<g>
			<path class="st6" d="M358.6,196.7l2.1-6.2h-2.4V189h4.1v1.2l-2.1,6.5H358.6z"/>
		</g>
	</g>
	<g>
		<g>
			<circle class="st4" cx="282.6" cy="233.6" r="8.5"/>
			<circle class="st5" cx="282.6" cy="233.6" r="8.5"/>
		</g>
		<g>
			<path class="st6" d="M281.4,237.5c-0.5-0.2-0.8-0.5-0.8-1.3v-1.4c0-0.6,0.2-0.9,0.6-1.2c-0.4-0.3-0.6-0.6-0.6-1.2v-1.3
				c0-0.8,0.4-1.1,0.8-1.3h2.5c0.5,0.2,0.8,0.5,0.8,1.3v1.3c0,0.6-0.2,0.9-0.6,1.2c0.4,0.3,0.6,0.6,0.6,1.2v1.4
				c0,0.8-0.4,1.1-0.8,1.3H281.4z M282.2,232.9l0.1,0.1h0.5l0.1-0.1v-1.5l-0.1-0.1h-0.5l-0.1,0.1V232.9z M283,236v-1.6l-0.1-0.1
				h-0.5l-0.1,0.1v1.6l0.1,0.1h0.5L283,236z"/>
		</g>
	</g>
	<g>
		<g>
			<circle class="st4" cx="223" cy="235.7" r="8.5"/>
			<circle class="st5" cx="223" cy="235.7" r="8.5"/>
		</g>
		<g>
			<path class="st6" d="M221.7,239.5c-0.5-0.2-0.8-0.5-0.8-1.3v-1h1.7v0.8l0.1,0.1h0.5l0.1-0.1v-1.8l-0.3,0.3h-1.3
				c-0.5-0.2-0.8-0.5-0.8-1.3v-2.2c0-0.8,0.4-1.1,0.8-1.3h2.5c0.5,0.2,0.8,0.5,0.8,1.3v5.1c0,0.8-0.4,1.1-0.8,1.3H221.7z
				 M223.3,235.2v-1.8l-0.1-0.1h-0.5l-0.1,0.1v1.8l0.1,0.1h0.5L223.3,235.2z"/>
		</g>
	</g>
	<g>
		<g>
			<circle class="st4" cx="131.8" cy="131.2" r="8.5"/>
			<circle class="st5" cx="131.8" cy="131.2" r="8.5"/>
		</g>
		<g>
			<path class="st6" d="M127.7,135.1v-1.6h1V129h-0.9v-1.6h2.6v6.1h0.9v1.6H127.7z"/>
			<path class="st6" d="M132,135.1v-2.6c0-0.6,0.1-1,0.6-1.2l1.9-0.8v-1.6l-0.1-0.1h-0.5l-0.1,0.1v1.1H132v-1.3
				c0-0.8,0.4-1.1,0.8-1.3h2.5c0.5,0.2,0.8,0.5,0.8,1.3v1.9c0,0.6-0.1,0.9-0.6,1.2l-1.9,0.8v0.9h2.4v1.6H132z"/>
		</g>
	</g>
	<g>
		<g>
			<circle class="st4" cx="76.3" cy="55.7" r="8.5"/>
			<circle class="st5" cx="76.3" cy="55.7" r="8.5"/>
		</g>
		<g>
			<path class="st6" d="M72.3,59.6V58h1v-4.5h-0.9V52H75V58h0.9v1.6H72.3z"/>
			<path class="st6" d="M77.4,59.6c-0.5-0.2-0.8-0.5-0.8-1.3v-1h1.7v0.8l0.1,0.1h0.5l0.1-0.1v-1.6l-0.1-0.1h-1v-1.3h1L79,55v-1.5
				l-0.1-0.1h-0.5l-0.1,0.1v0.8h-1.7v-1c0-0.8,0.4-1.1,0.8-1.3h2.5c0.5,0.2,0.8,0.5,0.8,1.3v1.3c0,0.6-0.2,0.9-0.6,1.2
				c0.4,0.3,0.6,0.6,0.6,1.2v1.4c0,0.8-0.4,1.1-0.8,1.3H77.4z"/>
		</g>
	</g>
	<g>
		<g>
			<circle class="st4" cx="10.5" cy="78.4" r="8.5"/>
			<circle class="st5" cx="10.5" cy="78.4" r="8.5"/>
		</g>
		<g>
			<path class="st6" d="M6.4,82.2v-1.6h1v-4.5H6.6v-1.6h2.6v6.1H10v1.6H6.4z"/>
			<path class="st6" d="M14.5,80.8v1.5h-1.7v-1.5h-2.2v-1.5l1.6-4.7h1.7l-1.6,4.6h0.5v-0.4l0.4-1h1.3v1.4H15v1.6H14.5z"/>
		</g>
	</g>
	<g>
		<g>
			<circle class="st4" cx="244" cy="178.8" r="8.5"/>
			<circle class="st5" cx="244" cy="178.8" r="8.5"/>
		</g>
		<g>
			<path class="st6" d="M240,182.6V181h1v-4.5h-0.9V175h2.6v6.1h0.9v1.6H240z"/>
			<path class="st6" d="M245.1,182.6c-0.5-0.2-0.8-0.5-0.8-1.3v-1h1.6v0.8l0.1,0.1h0.6l0.1-0.1v-2.1l-0.1-0.1H246l-0.1,0.1v0.4h-1.6
				V175h4v1.5h-2.4v1.6l0.4-0.4h1.3c0.5,0.2,0.8,0.5,0.8,1.3v2.4c0,0.8-0.4,1.1-0.8,1.3H245.1z"/>
		</g>
	</g>
	<g>
		<g>
			<circle class="st4" cx="313" cy="127.1" r="8.5"/>
			<circle class="st5" cx="313" cy="127.1" r="8.5"/>
		</g>
		<g>
			<path class="st6" d="M309,131v-1.6h1v-4.5h-0.9v-1.6h2.6v6.1h0.9v1.6H309z"/>
			<path class="st6" d="M316.6,131h-2.5c-0.5-0.2-0.8-0.5-0.8-1.3v-5.1c0-0.8,0.4-1.1,0.8-1.3h2.5c0.5,0.2,0.8,0.5,0.8,1.3v1h-1.7
				v-0.8l-0.1-0.1h-0.5l-0.1,0.1v1.8l0.3-0.3h1.3c0.5,0.2,0.8,0.5,0.8,1.3v2.2C317.5,130.5,317.1,130.8,316.6,131z M315.7,129.6
				l0.1-0.1v-1.8l-0.1-0.1h-0.5l-0.1,0.1v1.8l0.1,0.1H315.7z"/>
		</g>
	</g>
	<g>
		<g>
			<circle class="st4" cx="338.3" cy="126.1" r="8.5"/>
			<circle class="st5" cx="338.3" cy="126.1" r="8.5"/>
		</g>
		<g>
			<path class="st6" d="M334.2,130v-1.6h1v-4.5h-0.9v-1.6h2.6v6.1h0.9v1.6H334.2z"/>
			<path class="st6" d="M338.8,130l2.1-6.2h-2.4v-1.5h4.1v1.2l-2.1,6.5H338.8z"/>
		</g>
	</g>
	<g>
		<g>
			<circle class="st4" cx="374.4" cy="118.7" r="8.5"/>
			<circle class="st5" cx="374.4" cy="118.7" r="8.5"/>
		</g>
		<g>
			<path class="st6" d="M370.4,122.6V121h1v-4.5h-0.9v-1.6h2.6v6.1h0.9v1.6H370.4z"/>
			<path class="st6" d="M375.5,122.6c-0.5-0.2-0.8-0.5-0.8-1.3v-1.4c0-0.6,0.2-0.9,0.6-1.2c-0.4-0.3-0.6-0.6-0.6-1.2v-1.3
				c0-0.8,0.4-1.1,0.8-1.3h2.5c0.5,0.2,0.8,0.5,0.8,1.3v1.3c0,0.6-0.2,0.9-0.6,1.2c0.4,0.3,0.6,0.6,0.6,1.2v1.4
				c0,0.8-0.4,1.1-0.8,1.3H375.5z M376.4,118l0.1,0.1h0.5l0.1-0.1v-1.5l-0.1-0.1h-0.5l-0.1,0.1V118z M377.1,121.1v-1.6l-0.1-0.1
				h-0.5l-0.1,0.1v1.6l0.1,0.1h0.5L377.1,121.1z"/>
		</g>
	</g>
	<g>
		<g>
			<circle class="st4" cx="236.2" cy="141.9" r="8.5"/>
			<circle class="st5" cx="236.2" cy="141.9" r="8.5"/>
		</g>
		<g>
			<path class="st6" d="M232.2,145.8v-1.6h1v-4.5h-0.9v-1.6h2.6v6.1h0.9v1.6H232.2z"/>
			<path class="st6" d="M239.8,145.8h-2.5c-0.5-0.2-0.8-0.5-0.8-1.3v-5.1c0-0.8,0.4-1.1,0.8-1.3h2.5c0.5,0.2,0.8,0.5,0.8,1.3v5.1
				C240.7,145.3,240.3,145.6,239.8,145.8z M239,139.6l-0.1-0.1h-0.5l-0.1,0.1v4.7l0.1,0.1h0.5l0.1-0.1V139.6z"/>
		</g>
	</g>
	<g>
		<g>
			<circle class="st4" cx="236.8" cy="90" r="8.5"/>
			<circle class="st5" cx="236.8" cy="90" r="8.5"/>
		</g>
		<g>
			<path class="st6" d="M232.7,93.9v-1.6h1v-4.5h-0.9v-1.6h2.6v6.1h0.9v1.6H232.7z"/>
			<path class="st6" d="M237.4,93.9v-1.6h1v-4.5h-0.9v-1.6h2.6v6.1h0.9v1.6H237.4z"/>
		</g>
	</g>
</g>



</svg>
