<?xml version="1.0" encoding="utf-8"?>
<!-- Generator: Adobe Illustrator 27.0.0, SVG Export Plug-In . SVG Version: 6.00 Build 0)  -->
<svg version="1.1" xmlns="http://www.w3.org/2000/svg" xmlns:xlink="http://www.w3.org/1999/xlink" x="0px" y="0px"
	 viewBox="0.0 0.0 550.0 390.3" style="enable-background:new 0 0 550 443.7;" xml:space="preserve">
<style type="text/css">
	.st0{fill:none;stroke:#646464;stroke-width:5.775;stroke-miterlimit:10;}
	.st1{fill:none;stroke:#FFD449;stroke-width:1.155;stroke-miterlimit:10;}
	.st2{fill:none;stroke:#54C6EB;stroke-width:1.155;stroke-miterlimit:10;}
	.st3{fill:none;stroke:#F4442E;stroke-width:1.155;stroke-miterlimit:10;}
	.st4{fill:none;stroke:#FFFFFF;stroke-width:0.866;}
	.st5{fill:#646464;}
	.st6{fill:#FFFFFF;}
	.st7{fill:#09BC8A;}
	.st8{fill:none;stroke:#646464;stroke-width:1.155;stroke-miterlimit:10;}
	.st9{fill:none;stroke:#09BC8A;stroke-width:0.809;stroke-miterlimit:10;}
	.st10{fill:none;stroke:#09BC8A;stroke-width:0.900;stroke-miterlimit:10;}
	.st11{fill:#FF3380;}
	.st12{fill:none;stroke:#FF3380;stroke-width:0.809;stroke-miterlimit:10;}
	.st13{fill:none;stroke:#646464;stroke-width:0.289;stroke-miterlimit:10;}
	.st14{fill:none;stroke:#F4442E;stroke-width:2.310;stroke-miterlimit:10;}
	.st15{fill:none;stroke:#54C6EB;stroke-width:2.310;stroke-miterlimit:10;}
	.st16{fill:none;stroke:#FFD449;stroke-width:2.310;stroke-miterlimit:10;}
	.st17{fill:none;stroke:#09BC8A;stroke-width:1.155;stroke-miterlimit:10;}
	.st18{clip-path:url(#SVGID_00000068649408804391033760000013109306965730976667_);}
	.st19{fill:#F4442E;}
	.st20{fill:#54C6EB;}
	.st21{fill:#FFD449;}
</style>
<g id="コース">
	<path class="st0" d="M94.7,36.2c0,0,79,9.1,99.8,10.5c20.8,1.5,75.5,5,95.7,5.9c20.2,0.9,59.1,3.5,79.9,5.6
		c20.8,2,79.9,7.9,92.2,9.1c12.3,1.2,26.9,3.4,32.3,4.8c5.5,1.3,5,4.9,4.6,8.6c-0.4,3.6-1.5,16.6-1.8,18.2c-0.2,1.6-0.7,3.8,3.4,5.8
		c4.1,2,6.9,2.9,8.3,3.5c1.4,0.7,4,1.5,3.6,6.1c-0.3,4.6-1.8,16.2-2.7,21.2c-1,4.9-7.9,22.4-11.1,28.6c-3.2,6.3-71.3,130.7-74,135.9
		c-2.6,5.2-6.4,9.8-7.9,12.4c-1.5,2.6-2.2,6.6,2,9s9.9,4.6,13,7c3.1,2.4,3.7,6.6,1.1,8.6c-2.6,2-26.3,20-29.2,22.2
		c-2.9,2.2-12.1,0.2-11.4-7.5c0.7-7.7,8.1-90,8.3-95.5c0.2-5.5-2-9-6.6-10.8c-4.6-1.8-18.4-5-23.9-14.9c-5.5-9.9-8.8-20.2-15.6-24.1
		c-6.8-4-10.5-4.2-16.5-4.6s-34.5-2.9-38.9-3.5c-4.4-0.7-9.2-4.6-10.5-10.8c-1.3-6.1-2.6-9.7-4-14c-1.3-4.4-4.8-5.9-7.7-7.5
		c-2.9-1.5-40.6-20.2-43.7-21.3c-3.1-1.1-7-2.2-11.4-2.6c-4.4-0.4-113.7-11-116.3-11.2c-2.6-0.2-5.9-2-6.8-9.2
		c-0.9-7.2-5.7-40.4-6.1-43.9c-0.7-5-6.1-6.5-8.8-4.6C80.4,75.7,78,86,70.6,85c-7.5-1.1-8.6-4.8-11.4-5s-19.8-1.8-21.3-2
		c-1.5-0.2-5-2.2-4-7.7c1.1-5.5,5-19.1,16.7-27.9s20-8.1,29.9-7.5S94.7,36.2,94.7,36.2z"/>
</g>
<g id="セクター">
	<path class="st1" d="M168,136.8c-29.7-2.9-60.7-5.8-62.1-6c-2.6-0.2-5.9-2-6.8-9.2c-0.9-7.2-5.7-40.4-6.1-43.9
		c-0.7-5-6.1-6.5-8.8-4.6C80.4,75.7,78,86,70.6,85c-7.5-1.1-8.6-4.8-11.4-5s-19.8-1.8-21.3-2c-1.5-0.2-5-2.2-4-7.7
		c1.1-5.5,5-19.1,16.7-27.9s20-8.1,29.9-7.5s14.3,1.3,14.3,1.3"/>
	<path class="st2" d="M436.2,279.4c-6.2,11.5-10.5,19.4-11.2,20.6c-2.6,5.2-6.4,9.8-7.9,12.4c-1.5,2.6-2.2,6.6,2,9s9.9,4.6,13,7
		c3.1,2.4,3.7,6.6,1.1,8.6c-2.6,2-26.3,20-29.2,22.2c-2.9,2.2-12.1,0.2-11.4-7.5c0.7-7.7,8.1-90,8.3-95.5c0.2-5.5-2-9-6.6-10.8
		c-4.6-1.8-18.4-5-23.9-14.9c-5.5-9.9-8.8-20.2-15.6-24.1c-6.8-4-10.5-4.2-16.5-4.6s-34.5-2.9-38.9-3.5c-4.4-0.7-9.2-4.6-10.5-10.8
		c-1.3-6.1-2.6-9.7-4-14c-1.3-4.4-4.8-5.9-7.7-7.5c-2.9-1.5-40.6-20.2-43.7-21.3c-3.1-1.1-7-2.2-11.4-2.6
		c-2.1-0.2-27.6-2.7-54.3-5.2"/>
	<path class="st3" d="M94.7,36.2c0,0,79,9.1,99.8,10.5c20.8,1.5,75.5,5,95.7,5.9c20.2,0.9,59.1,3.5,79.9,5.6
		c20.8,2,79.9,7.9,92.2,9.1c12.3,1.2,26.9,3.4,32.3,4.8c5.5,1.3,5,4.9,4.6,8.6c-0.4,3.6-1.5,16.6-1.8,18.2c-0.2,1.6-0.7,3.8,3.4,5.8
		c4.1,2,6.9,2.9,8.3,3.5c1.4,0.7,4,1.5,3.6,6.1c-0.3,4.6-1.8,16.2-2.7,21.2c-1,4.9-7.9,22.4-11.1,28.6
		c-2.4,4.8-42.7,78.4-62.8,115.3"/>
</g>
<g id="コーナー番号">
	<g>
		<g>
			
			
		</g>
		<g>
			
		</g>
	</g>
	<g>
		<g>
			
			
		</g>
		<g>
			
		</g>
	</g>
	<g>
		<g>
			
			
		</g>
		<g>
			
		</g>
	</g>
	<g>
		<g>
			
			
		</g>
		<g>
			
		</g>
	</g>
	<g>
		<g>
			
			
		</g>
		<g>
			
		</g>
	</g>
	<g>
		<g>
			
			
		</g>
		<g>
			
		</g>
	</g>
	<g>
		<g>
			
			
		</g>
		<g>
			
		</g>
	</g>
	<g>
		<g>
			
			
		</g>
		<g>
			
		</g>
	</g>
	<g>
		<g>
			
			
		</g>
		<g>
			
		</g>
	</g>
	<g>
		<g>
			
			
		</g>
		<g>
			
			
		</g>
	</g>
	<g>
		<g>
			
			
		</g>
		<g>
			
			
		</g>
	</g>
	<g>
		<g>
			
			
		</g>
		<g>
			
			
		</g>
	</g>
	<g>
		<g>
			
			
		</g>
		<g>
			
			
		</g>
	</g>
	<g>
		<g>
			
			
		</g>
		<g>
			
			
		</g>
	</g>
	<g>
		<g>
			
			
		</g>
		<g>
			
			
		</g>
	</g>
	<g>
		<g>
			
			
		</g>
		<g>
			
			
		</g>
	</g>
	<g>
		<g>
			
			
		</g>
		<g>
			
			
		</g>
	</g>
</g>



</svg>
