<?xml version="1.0" encoding="utf-8"?>
<!-- Generator: Adobe Illustrator 26.5.0, SVG Export Plug-In . SVG Version: 6.00 Build 0)  -->
<svg version="1.1" xmlns="http://www.w3.org/2000/svg" xmlns:xlink="http://www.w3.org/1999/xlink" x="0px" y="0px"
	 viewBox="0.0 0.0 713.8 294.5" style="enable-background:new 0 0 713.8 348.1;" xml:space="preserve">
<style type="text/css">
	.st0{fill:none;stroke:#646464;stroke-width:7.495;stroke-linecap:round;stroke-linejoin:round;stroke-miterlimit:10;}
	.st1{fill:none;stroke:#FFD449;stroke-width:1.499;stroke-miterlimit:10;}
	.st2{fill:none;stroke:#54C6EB;stroke-width:1.499;stroke-miterlimit:10;}
	.st3{fill:none;stroke:#F4442E;stroke-width:1.499;stroke-miterlimit:10;}
	.st4{fill:none;stroke:#FFFFFF;stroke-width:1.124;}
	.st5{fill:#646464;}
	.st6{fill:#FFFFFF;}
	.st7{fill:none;stroke:#646464;stroke-width:1.499;stroke-miterlimit:10;}
	.st8{fill:#FF3380;}
	.st9{fill:none;stroke:#FF3380;stroke-width:1.049;stroke-miterlimit:10;}
	.st10{fill:#09BC8A;}
	.st11{fill:none;stroke:#09BC8A;stroke-width:1.049;stroke-miterlimit:10;}
	.st12{fill:none;stroke:#09BC8A;stroke-width:1.169;stroke-miterlimit:10;}
	.st13{fill:none;stroke:#646464;stroke-width:0.375;stroke-miterlimit:10;}
	.st14{fill:none;stroke:#F4442E;stroke-width:2.998;stroke-miterlimit:10;}
	.st15{fill:none;stroke:#54C6EB;stroke-width:2.998;stroke-miterlimit:10;}
	.st16{fill:none;stroke:#FFD449;stroke-width:2.998;stroke-miterlimit:10;}
	.st17{fill:none;stroke:#09BC8A;stroke-width:1.499;stroke-miterlimit:10;}
	.st18{clip-path:url(#SVGID_00000173842315714103309910000014014696480439875724_);}
	.st19{fill:#F4442E;}
	.st20{fill:#54C6EB;}
	.st21{fill:#FFD449;}
</style>
<g id="コース">
	<path class="st0" d="M167.2,123.7c8.6-12.2,23.1-29.3,31.9-38s24.9-25.2,39.5-30.7s14.6-7.6,17.9-10.2c3.2-2.6,4.8-4.2,6.7-5.8
		s4.9-3.7,9.1,0s19,14.8,23.5,18.5c4.5,3.7,14.7,11.9,22,15.9s37.2,22.1,44.2,26.8c7,4.7,15.6,12.6,20.7,15.7
		c12.4,7.5,34.6,13.1,42.6,17.5c8,4.4,32,23.8,38.2,27.7s16.6,7.9,30.1,5.6c15.4-2.6,25.6-16,27.9-30.5c1.2-7.7,0-15.1,0.1-20.1
		c0.1-4.9,2.4-15.4,21.7-18.5c19.3-3.2,79.2-10.8,84.6-11.1s10,0.9,11.3,7.2c1.3,6.4-2.7,10.6-5.9,14.3c-3.2,3.6-6,7.2-6.1,11.1
		c-0.1,3.8-1.2,13.2-3.7,17.8c-2.5,4.6-3.1,8.5,0,10.2s9.3,1.3,9.1-5.7c-0.2-7,0.8-13.1,0.9-15.1s-0.2-8.8,3-10.9
		c3.2-2.1,6.4-3.5,11.3-1.4c4.9,2.1,17.8,8.5,20.9,10.5c3.1,2.1,4.6,3.1,6.8,5.6s1.8,7-0.8,9.1c-2.5,2.1-38.4,32.7-43.2,36.8
		c-4.8,4.1-21.5,15-31.1,19.3c-9.5,4.3-28.5,12.6-39.8,14.6c-11.3,2-24.6,2.7-34.9-0.9c-10.3-3.6-59.5-20.3-65.2-22.4
		s-35.6-17.7-43.7-24.5c-8.1-6.8-23.8-17.8-25.2-19c-1.4-1.2-4.1-1.4-5.3-0.1c-1.2,1.3-2.9,3.3-3.6,4.2c-0.8,0.9-2.5,1.3-4.2,0
		c-1.6-1.3-5.3-4-6.3-5c-1-1.1-1.6-1.8-1.8-4.5s-0.9-4.6-2.2-5.8c-1.3-1.2-83-64.9-84.4-65.9c-1.4-1-4.7-1.8-12.3,0.1
		c-7.6,1.9-18.5,6-22.1,8.2c-3.5,2.2-21.2,10.3-33.9,30.7c-1.1,1.8-0.1,7.4,0.2,10.8c0.3,3.4,0.1,9.2-1.9,11.4
		c-2,2.2-31.7,44.6-32.7,45.9c-1,1.3-3.6,4-7.6,2c-4-2-8.8-4.4-11-0.2c-2.2,4.2-13.1,25.2-15,31.8s-4.7,19.8-3.2,29.4
		c1.5,9.7,3.8,12.5,4.9,15.4c1.1,2.9,1,7.1-0.7,9.8c-1.6,2.6-3.7,4.3-7.7,2.5c-4-1.8-17.3-7.8-27.3-20.1c-2-2.5-2-5.9,2.4-9.1
		s6-8,6.3-13.5s2.6-16.1,5.8-23.7c1.6-3.8,9.2-21.1,18-37.8C155,142.7,165.2,126.7,167.2,123.7z"/>
</g>
<g id="セクター">
	<g>
		<path class="st1" d="M257.1,70.6c-3.4,1.3-6.2,2.6-7.7,3.5c-3.5,2.2-21.2,10.3-33.9,30.7c-1.1,1.8-0.1,7.4,0.2,10.8
			c0.3,3.4,0.1,9.2-1.9,11.4c-2,2.2-31.7,44.6-32.7,45.9c-1,1.3-3.6,4-7.6,2c-4-2-8.8-4.4-11-0.2c-2.2,4.2-13.1,25.2-15,31.8
			s-4.7,19.8-3.2,29.4c1.5,9.7,3.8,12.5,4.9,15.4c1.1,2.9,1,7.1-0.7,9.8c-1.6,2.6-3.7,4.3-7.7,2.5c-4-1.8-17.3-7.8-27.3-20.1
			c-2-2.5-2-5.9,2.4-9.1s6-8,6.3-13.5s2.6-16.1,5.8-23.7c1.6-3.8,9.2-21.1,18-37.8c8.9-16.7,19.1-32.8,21.2-35.7"/>
		<path class="st2" d="M613,88c7.8-1,13.5-1.6,14.9-1.7c5.4-0.3,10,0.9,11.3,7.2c1.3,6.4-2.7,10.6-5.9,14.3c-3.2,3.6-6,7.2-6.1,11.1
			c-0.1,3.8-1.2,13.2-3.7,17.8c-2.5,4.6-3.1,8.5,0,10.2s9.3,1.3,9.1-5.7c-0.2-7,0.8-13.1,0.9-15.1s-0.2-8.8,3-10.9
			c3.2-2.1,6.4-3.5,11.3-1.4c4.9,2.1,17.8,8.5,20.9,10.5c3.1,2.1,4.6,3.1,6.8,5.6s1.8,7-0.8,9.1c-2.5,2.1-38.4,32.7-43.2,36.8
			c-4.8,4.1-21.5,15-31.1,19.3c-9.5,4.3-28.5,12.6-39.8,14.6c-11.3,2-24.6,2.7-34.9-0.9c-10.3-3.6-59.5-20.3-65.2-22.4
			s-35.6-17.7-43.7-24.5c-8.1-6.8-23.8-17.8-25.2-19c-1.4-1.2-4.1-1.4-5.3-0.1c-1.2,1.3-2.9,3.3-3.6,4.2c-0.8,0.9-2.5,1.3-4.2,0
			c-1.6-1.3-5.3-4-6.3-5c-1-1.1-1.6-1.8-1.8-4.5s-0.9-4.6-2.2-5.8c-1.3-1.2-83-64.9-84.4-65.9c-1.4-1-4.7-1.8-12.3,0.1
			c-4.3,1.1-9.8,2.9-14.4,4.7"/>
		<path class="st3" d="M167.2,123.7c8.6-12.2,23.1-29.3,31.9-38s24.9-25.2,39.5-30.7s14.6-7.6,17.9-10.2c3.2-2.6,4.8-4.2,6.7-5.8
			s4.9-3.7,9.1,0s19,14.8,23.5,18.5c4.5,3.7,14.7,11.9,22,15.9s37.2,22.1,44.2,26.8c7,4.7,15.6,12.6,20.7,15.7
			c12.4,7.5,34.6,13.1,42.6,17.5c8,4.4,32,23.8,38.2,27.7s16.6,7.9,30.1,5.6c15.4-2.6,25.6-16,27.9-30.5c1.2-7.7,0-15.1,0.1-20.1
			c0.1-4.9,2.4-15.4,21.7-18.5c14-2.3,49.2-6.9,69.7-9.4"/>
	</g>
</g>
<g id="コーナー番号">
	<g>
		<g>
			
			
		</g>
		<g>
			
		</g>
	</g>
	<g>
		<g>
			
			
		</g>
		<g>
			
		</g>
	</g>
	<g>
		<g>
			
			
		</g>
		<g>
			
		</g>
	</g>
	<g>
		<g>
			
			
		</g>
		<g>
			
		</g>
	</g>
	<g>
		<g>
			
			
		</g>
		<g>
			
		</g>
	</g>
	<g>
		<g>
			
			
		</g>
		<g>
			
		</g>
	</g>
	<g>
		<g>
			
			
		</g>
		<g>
			
		</g>
	</g>
	<g>
		<g>
			
			
		</g>
		<g>
			
		</g>
	</g>
	<g>
		<g>
			
			
		</g>
		<g>
			
		</g>
	</g>
	<g>
		<g>
			
			
		</g>
		<g>
			
			
		</g>
	</g>
	<g>
		<g>
			
			
		</g>
		<g>
			
			
		</g>
	</g>
	<g>
		<g>
			
			
		</g>
		<g>
			
			
		</g>
	</g>
	<g>
		<g>
			
			
		</g>
		<g>
			
			
		</g>
	</g>
	<g>
		<g>
			
			
		</g>
		<g>
			
			
		</g>
	</g>
	<g>
		<g>
			
			
		</g>
		<g>
			
			
		</g>
	</g>
	<g>
		<g>
			
			
		</g>
		<g>
			
			
		</g>
	</g>
	<g>
		<g>
			
			
		</g>
		<g>
			
			
		</g>
	</g>
	<g>
		<g>
			
			
		</g>
		<g>
			
			
		</g>
	</g>
	<g>
		<g>
			
			
		</g>
		<g>
			
			
		</g>
	</g>
</g>



</svg>
