<?xml version="1.0" encoding="utf-8"?>
<!-- Generator: Adobe Illustrator 26.5.0, SVG Export Plug-In . SVG Version: 6.00 Build 0)  -->
<svg version="1.1" xmlns="http://www.w3.org/2000/svg" xmlns:xlink="http://www.w3.org/1999/xlink" x="0px" y="0px"
	 viewBox="0 0 713.8 315" style="enable-background:new 0 0 713.8 348.1;" xml:space="preserve">
<style type="text/css">
	.st0{fill:none;stroke:#646464;stroke-width:14.1732;stroke-linecap:round;stroke-linejoin:round;stroke-miterlimit:10;}
	.st1{fill:none;stroke:#FFD449;stroke-width:2.8346;stroke-miterlimit:10;}
	.st2{fill:none;stroke:#54C6EB;stroke-width:2.8346;stroke-miterlimit:10;}
	.st3{fill:none;stroke:#F4442E;stroke-width:2.8346;stroke-miterlimit:10;}
	.st4{fill:none;stroke:#FFFFFF;stroke-width:2.126;}
	.st5{fill:#646464;}
	.st6{fill:#FFFFFF;}
	.st7{fill:none;stroke:#646464;stroke-width:2.8346;stroke-miterlimit:10;}
	.st8{fill:#FF3380;}
	.st9{fill:none;stroke:#FF3380;stroke-width:1.9843;stroke-miterlimit:10;}
	.st10{fill:#09BC8A;}
	.st11{fill:none;stroke:#09BC8A;stroke-width:1.9843;stroke-miterlimit:10;}
	.st12{fill:none;stroke:#09BC8A;stroke-width:2.2097;stroke-miterlimit:10;}
	.st13{fill:none;stroke:#646464;stroke-width:0.7087;stroke-miterlimit:10;}
	.st14{fill:none;stroke:#F4442E;stroke-width:5.6693;stroke-miterlimit:10;}
	.st15{fill:none;stroke:#54C6EB;stroke-width:5.6693;stroke-miterlimit:10;}
	.st16{fill:none;stroke:#FFD449;stroke-width:5.6693;stroke-miterlimit:10;}
	.st17{fill:none;stroke:#09BC8A;stroke-width:2.8346;stroke-miterlimit:10;}
	.st18{clip-path:url(#SVGID_00000173842315714103309910000014014696480439875724_);}
	.st19{fill:#F4442E;}
	.st20{fill:#54C6EB;}
	.st21{fill:#FFD449;}
</style>
<g id="コース">
	<path class="st0" d="M167.2,123.7c8.6-12.2,23.1-29.3,31.9-38s24.9-25.2,39.5-30.7s14.6-7.6,17.9-10.2c3.2-2.6,4.8-4.2,6.7-5.8
		s4.9-3.7,9.1,0s19,14.8,23.5,18.5c4.5,3.7,14.7,11.9,22,15.9s37.2,22.1,44.2,26.8c7,4.7,15.6,12.6,20.7,15.7
		c12.4,7.5,34.6,13.1,42.6,17.5c8,4.4,32,23.8,38.2,27.7s16.6,7.9,30.1,5.6c15.4-2.6,25.6-16,27.9-30.5c1.2-7.7,0-15.1,0.1-20.1
		c0.1-4.9,2.4-15.4,21.7-18.5c19.3-3.2,79.2-10.8,84.6-11.1s10,0.9,11.3,7.2c1.3,6.4-2.7,10.6-5.9,14.3c-3.2,3.6-6,7.2-6.1,11.1
		c-0.1,3.8-1.2,13.2-3.7,17.8c-2.5,4.6-3.1,8.5,0,10.2s9.3,1.3,9.1-5.7c-0.2-7,0.8-13.1,0.9-15.1s-0.2-8.8,3-10.9
		c3.2-2.1,6.4-3.5,11.3-1.4c4.9,2.1,17.8,8.5,20.9,10.5c3.1,2.1,4.6,3.1,6.8,5.6s1.8,7-0.8,9.1c-2.5,2.1-38.4,32.7-43.2,36.8
		c-4.8,4.1-21.5,15-31.1,19.3c-9.5,4.3-28.5,12.6-39.8,14.6c-11.3,2-24.6,2.7-34.9-0.9c-10.3-3.6-59.5-20.3-65.2-22.4
		s-35.6-17.7-43.7-24.5c-8.1-6.8-23.8-17.8-25.2-19c-1.4-1.2-4.1-1.4-5.3-0.1c-1.2,1.3-2.9,3.3-3.6,4.2c-0.8,0.9-2.5,1.3-4.2,0
		c-1.6-1.3-5.3-4-6.3-5c-1-1.1-1.6-1.8-1.8-4.5s-0.9-4.6-2.2-5.8c-1.3-1.2-83-64.9-84.4-65.9c-1.4-1-4.7-1.8-12.3,0.1
		c-7.6,1.9-18.5,6-22.1,8.2c-3.5,2.2-21.2,10.3-33.9,30.7c-1.1,1.8-0.1,7.4,0.2,10.8c0.3,3.4,0.1,9.2-1.9,11.4
		c-2,2.2-31.7,44.6-32.7,45.9c-1,1.3-3.6,4-7.6,2c-4-2-8.8-4.4-11-0.2c-2.2,4.2-13.1,25.2-15,31.8s-4.7,19.8-3.2,29.4
		c1.5,9.7,3.8,12.5,4.9,15.4c1.1,2.9,1,7.1-0.7,9.8c-1.6,2.6-3.7,4.3-7.7,2.5c-4-1.8-17.3-7.8-27.3-20.1c-2-2.5-2-5.9,2.4-9.1
		s6-8,6.3-13.5s2.6-16.1,5.8-23.7c1.6-3.8,9.2-21.1,18-37.8C155,142.7,165.2,126.7,167.2,123.7z"/>
</g>
<g id="セクター">
	<g>
		<path class="st1" d="M257.1,70.6c-3.4,1.3-6.2,2.6-7.7,3.5c-3.5,2.2-21.2,10.3-33.9,30.7c-1.1,1.8-0.1,7.4,0.2,10.8
			c0.3,3.4,0.1,9.2-1.9,11.4c-2,2.2-31.7,44.6-32.7,45.9c-1,1.3-3.6,4-7.6,2c-4-2-8.8-4.4-11-0.2c-2.2,4.2-13.1,25.2-15,31.8
			s-4.7,19.8-3.2,29.4c1.5,9.7,3.8,12.5,4.9,15.4c1.1,2.9,1,7.1-0.7,9.8c-1.6,2.6-3.7,4.3-7.7,2.5c-4-1.8-17.3-7.8-27.3-20.1
			c-2-2.5-2-5.9,2.4-9.1s6-8,6.3-13.5s2.6-16.1,5.8-23.7c1.6-3.8,9.2-21.1,18-37.8c8.9-16.7,19.1-32.8,21.2-35.7"/>
		<path class="st2" d="M613,88c7.8-1,13.5-1.6,14.9-1.7c5.4-0.3,10,0.9,11.3,7.2c1.3,6.4-2.7,10.6-5.9,14.3c-3.2,3.6-6,7.2-6.1,11.1
			c-0.1,3.8-1.2,13.2-3.7,17.8c-2.5,4.6-3.1,8.5,0,10.2s9.3,1.3,9.1-5.7c-0.2-7,0.8-13.1,0.9-15.1s-0.2-8.8,3-10.9
			c3.2-2.1,6.4-3.5,11.3-1.4c4.9,2.1,17.8,8.5,20.9,10.5c3.1,2.1,4.6,3.1,6.8,5.6s1.8,7-0.8,9.1c-2.5,2.1-38.4,32.7-43.2,36.8
			c-4.8,4.1-21.5,15-31.1,19.3c-9.5,4.3-28.5,12.6-39.8,14.6c-11.3,2-24.6,2.7-34.9-0.9c-10.3-3.6-59.5-20.3-65.2-22.4
			s-35.6-17.7-43.7-24.5c-8.1-6.8-23.8-17.8-25.2-19c-1.4-1.2-4.1-1.4-5.3-0.1c-1.2,1.3-2.9,3.3-3.6,4.2c-0.8,0.9-2.5,1.3-4.2,0
			c-1.6-1.3-5.3-4-6.3-5c-1-1.1-1.6-1.8-1.8-4.5s-0.9-4.6-2.2-5.8c-1.3-1.2-83-64.9-84.4-65.9c-1.4-1-4.7-1.8-12.3,0.1
			c-4.3,1.1-9.8,2.9-14.4,4.7"/>
		<path class="st3" d="M167.2,123.7c8.6-12.2,23.1-29.3,31.9-38s24.9-25.2,39.5-30.7s14.6-7.6,17.9-10.2c3.2-2.6,4.8-4.2,6.7-5.8
			s4.9-3.7,9.1,0s19,14.8,23.5,18.5c4.5,3.7,14.7,11.9,22,15.9s37.2,22.1,44.2,26.8c7,4.7,15.6,12.6,20.7,15.7
			c12.4,7.5,34.6,13.1,42.6,17.5c8,4.4,32,23.8,38.2,27.7s16.6,7.9,30.1,5.6c15.4-2.6,25.6-16,27.9-30.5c1.2-7.7,0-15.1,0.1-20.1
			c0.1-4.9,2.4-15.4,21.7-18.5c14-2.3,49.2-6.9,69.7-9.4"/>
	</g>
</g>
<g id="コーナー番号">
	<g>
		<g>
			<circle class="st4" cx="267.4" cy="16.7" r="8.5"/>
			<circle class="st5" cx="267.4" cy="16.7" r="8.5"/>
		</g>
		<g>
			<path class="st6" d="M265.7,20.5v-1.6h1v-4.5h-0.9v-1.6h2.6v6.1h0.9v1.6H265.7z"/>
		</g>
	</g>
	<g>
		<g>
			<circle class="st4" cx="437.3" cy="116.9" r="8.5"/>
			<circle class="st5" cx="437.3" cy="116.9" r="8.5"/>
		</g>
		<g>
			<path class="st6" d="M435.2,120.8v-2.6c0-0.6,0.1-1,0.6-1.2l1.9-0.8v-1.6l-0.1-0.1H437l-0.1,0.1v1.1h-1.7v-1.3
				c0-0.8,0.4-1.1,0.8-1.3h2.5c0.5,0.2,0.8,0.5,0.8,1.3v1.9c0,0.6-0.1,0.9-0.6,1.2l-1.9,0.8v0.9h2.4v1.6H435.2z"/>
		</g>
	</g>
	<g>
		<g>
			<circle class="st4" cx="512.4" cy="179.5" r="8.5"/>
			<circle class="st5" cx="512.4" cy="179.5" r="8.5"/>
		</g>
		<g>
			<path class="st6" d="M511.1,183.4c-0.5-0.2-0.8-0.5-0.8-1.3v-1h1.7v0.8l0.1,0.1h0.5l0.1-0.1v-1.6l-0.1-0.1h-1v-1.3h1l0.1-0.1
				v-1.5l-0.1-0.1h-0.5l-0.1,0.1v0.8h-1.7v-1c0-0.8,0.4-1.1,0.8-1.3h2.5c0.5,0.2,0.8,0.5,0.8,1.3v1.3c0,0.6-0.2,0.9-0.6,1.2
				c0.4,0.3,0.6,0.6,0.6,1.2v1.4c0,0.8-0.4,1.1-0.8,1.3H511.1z"/>
		</g>
	</g>
	<g>
		<g>
			<circle class="st4" cx="506.6" cy="100.7" r="8.5"/>
			<circle class="st5" cx="506.6" cy="100.7" r="8.5"/>
		</g>
		<g>
			<path class="st6" d="M508.3,103v1.5h-1.7V103h-2.2v-1.5l1.6-4.7h1.7l-1.6,4.6h0.5V101l0.4-1h1.3v1.4h0.5v1.6H508.3z"/>
		</g>
	</g>
	<g>
		<g>
			<circle class="st4" cx="651.8" cy="76" r="8.5"/>
			<circle class="st5" cx="651.8" cy="76" r="8.5"/>
		</g>
		<g>
			<path class="st6" d="M650.5,79.9c-0.5-0.2-0.8-0.5-0.8-1.3v-1h1.6v0.8l0.1,0.1h0.6l0.1-0.1v-2.1l-0.1-0.1h-0.6l-0.1,0.1v0.4h-1.6
				v-4.5h4v1.5h-2.4v1.6l0.4-0.4h1.3c0.5,0.2,0.8,0.5,0.8,1.3v2.4c0,0.8-0.4,1.1-0.8,1.3H650.5z"/>
		</g>
	</g>
	<g>
		<g>
			<circle class="st4" cx="608.6" cy="160" r="8.5"/>
			<circle class="st5" cx="608.6" cy="160" r="8.5"/>
		</g>
		<g>
			<path class="st6" d="M609.8,163.9h-2.5c-0.5-0.2-0.8-0.5-0.8-1.3v-5.1c0-0.8,0.4-1.1,0.8-1.3h2.5c0.5,0.2,0.8,0.5,0.8,1.3v1h-1.7
				v-0.8l-0.1-0.1h-0.5l-0.1,0.1v1.8l0.3-0.3h1.3c0.5,0.2,0.8,0.5,0.8,1.3v2.2C610.6,163.4,610.3,163.7,609.8,163.9z M608.8,162.5
				l0.1-0.1v-1.8l-0.1-0.1h-0.5l-0.1,0.1v1.8l0.1,0.1H608.8z"/>
		</g>
	</g>
	<g>
		<g>
			<circle class="st4" cx="661.2" cy="98.5" r="8.5"/>
			<circle class="st5" cx="661.2" cy="98.5" r="8.5"/>
		</g>
		<g>
			<path class="st6" d="M659.3,102.3l2.1-6.2h-2.4v-1.5h4.1v1.2l-2.1,6.5H659.3z"/>
		</g>
	</g>
	<g>
		<g>
			<circle class="st4" cx="697.2" cy="130.1" r="8.5"/>
			<circle class="st5" cx="697.2" cy="130.1" r="8.5"/>
		</g>
		<g>
			<path class="st6" d="M695.9,133.9c-0.5-0.2-0.8-0.5-0.8-1.3v-1.4c0-0.6,0.2-0.9,0.6-1.2c-0.4-0.3-0.6-0.6-0.6-1.2v-1.3
				c0-0.8,0.4-1.1,0.8-1.3h2.5c0.5,0.2,0.8,0.5,0.8,1.3v1.3c0,0.6-0.2,0.9-0.6,1.2c0.4,0.3,0.6,0.6,0.6,1.2v1.4
				c0,0.8-0.4,1.1-0.8,1.3H695.9z M696.8,129.3l0.1,0.1h0.5l0.1-0.1v-1.5l-0.1-0.1h-0.5l-0.1,0.1V129.3z M697.5,132.5v-1.6l-0.1-0.1
				h-0.5l-0.1,0.1v1.6l0.1,0.1h0.5L697.5,132.5z"/>
		</g>
	</g>
	<g>
		<g>
			<circle class="st4" cx="549.2" cy="233.7" r="8.5"/>
			<circle class="st5" cx="549.2" cy="233.7" r="8.5"/>
		</g>
		<g>
			<path class="st6" d="M548,237.6c-0.5-0.2-0.8-0.5-0.8-1.3v-1h1.7v0.8l0.1,0.1h0.5l0.1-0.1v-1.8l-0.3,0.3H548
				c-0.5-0.2-0.8-0.5-0.8-1.3v-2.2c0-0.8,0.4-1.1,0.8-1.3h2.5c0.5,0.2,0.8,0.5,0.8,1.3v5.1c0,0.8-0.4,1.1-0.8,1.3H548z M549.6,233.2
				v-1.8l-0.1-0.1h-0.5l-0.1,0.1v1.8l0.1,0.1h0.5L549.6,233.2z"/>
		</g>
	</g>
	<g>
		<g>
			<circle class="st4" cx="391.8" cy="167" r="8.5"/>
			<circle class="st5" cx="391.8" cy="167" r="8.5"/>
		</g>
		<g>
			<path class="st6" d="M387.8,170.8v-1.6h1v-4.5h-0.9v-1.6h2.6v6.1h0.9v1.6H387.8z"/>
			<path class="st6" d="M395.4,170.8h-2.5c-0.5-0.2-0.8-0.5-0.8-1.3v-5.1c0-0.8,0.4-1.1,0.8-1.3h2.5c0.5,0.2,0.8,0.5,0.8,1.3v5.1
				C396.2,170.4,395.9,170.7,395.4,170.8z M394.5,164.7l-0.1-0.1h-0.5l-0.1,0.1v4.7l0.1,0.1h0.5l0.1-0.1V164.7z"/>
		</g>
	</g>
	<g>
		<g>
			<circle class="st4" cx="361.1" cy="159.3" r="8.5"/>
			<circle class="st5" cx="361.1" cy="159.3" r="8.5"/>
		</g>
		<g>
			<path class="st6" d="M357,163.2v-1.6h1v-4.5h-0.9v-1.6h2.6v6.1h0.9v1.6H357z"/>
			<path class="st6" d="M361.7,163.2v-1.6h1v-4.5h-0.9v-1.6h2.6v6.1h0.9v1.6H361.7z"/>
		</g>
	</g>
	<g>
		<g>
			<circle class="st4" cx="276.8" cy="85.9" r="8.5"/>
			<circle class="st5" cx="276.8" cy="85.9" r="8.5"/>
		</g>
		<g>
			<path class="st6" d="M272.7,89.8v-1.6h1v-4.5h-0.9v-1.6h2.6v6.1h0.9v1.6H272.7z"/>
			<path class="st6" d="M277.1,89.8v-2.6c0-0.6,0.1-1,0.6-1.2l1.9-0.8v-1.6l-0.1-0.1h-0.5l-0.1,0.1v1.1h-1.7v-1.3
				c0-0.8,0.4-1.1,0.8-1.3h2.5c0.5,0.2,0.8,0.5,0.8,1.3v1.9c0,0.6-0.1,0.9-0.6,1.2l-1.9,0.8v0.9h2.4v1.6H277.1z"/>
		</g>
	</g>
	<g>
		<g>
			<circle class="st4" cx="237.8" cy="108.4" r="8.5"/>
			<circle class="st5" cx="237.8" cy="108.4" r="8.5"/>
		</g>
		<g>
			<path class="st6" d="M233.8,112.3v-1.6h1v-4.5h-0.9v-1.6h2.6v6.1h0.9v1.6H233.8z"/>
			<path class="st6" d="M238.9,112.3c-0.5-0.2-0.8-0.5-0.8-1.3v-1h1.7v0.8l0.1,0.1h0.5l0.1-0.1v-1.6l-0.1-0.1h-1v-1.3h1l0.1-0.1
				v-1.5l-0.1-0.1h-0.5l-0.1,0.1v0.8h-1.7v-1c0-0.8,0.4-1.1,0.8-1.3h2.5c0.5,0.2,0.8,0.5,0.8,1.3v1.3c0,0.6-0.2,0.9-0.6,1.2
				c0.4,0.3,0.6,0.6,0.6,1.2v1.4c0,0.8-0.4,1.1-0.8,1.3H238.9z"/>
		</g>
	</g>
	<g>
		<g>
			<circle class="st4" cx="234.1" cy="134.9" r="8.5"/>
			<circle class="st5" cx="234.1" cy="134.9" r="8.5"/>
		</g>
		<g>
			<path class="st6" d="M230.1,138.8v-1.6h1v-4.5h-0.9v-1.6h2.6v6.1h0.9v1.6H230.1z"/>
			<path class="st6" d="M238.1,137.3v1.5h-1.7v-1.5h-2.2v-1.5l1.6-4.7h1.7l-1.6,4.6h0.5v-0.4l0.4-1h1.3v1.4h0.5v1.6H238.1z"/>
		</g>
	</g>
	<g>
		<g>
			<circle class="st4" cx="160.5" cy="280.7" r="8.5"/>
			<circle class="st5" cx="160.5" cy="280.7" r="8.5"/>
		</g>
		<g>
			<path class="st6" d="M156.5,284.5v-1.6h1v-4.5h-0.9v-1.6h2.6v6.1h0.9v1.6H156.5z"/>
			<path class="st6" d="M161.6,284.5c-0.5-0.2-0.8-0.5-0.8-1.3v-1.4c0-0.6,0.2-0.9,0.6-1.2c-0.4-0.3-0.6-0.6-0.6-1.2v-1.3
				c0-0.8,0.4-1.1,0.8-1.3h2.5c0.5,0.2,0.8,0.5,0.8,1.3v1.3c0,0.6-0.2,0.9-0.6,1.2c0.4,0.3,0.6,0.6,0.6,1.2v1.4
				c0,0.8-0.4,1.1-0.8,1.3H161.6z M162.5,279.9l0.1,0.1h0.5l0.1-0.1v-1.5l-0.1-0.1h-0.5l-0.1,0.1V279.9z M163.2,283.1v-1.6l-0.1-0.1
				h-0.5l-0.1,0.1v1.6l0.1,0.1h0.5L163.2,283.1z"/>
		</g>
	</g>
	<g>
		<g>
			<circle class="st4" cx="92.6" cy="246.4" r="8.5"/>
			<circle class="st5" cx="92.6" cy="246.4" r="8.5"/>
		</g>
		<g>
			<path class="st6" d="M88.5,250.3v-1.6h1v-4.5h-0.9v-1.6h2.6v6.1H92v1.6H88.5z"/>
			<path class="st6" d="M93.7,250.3c-0.5-0.2-0.8-0.5-0.8-1.3v-1h1.7v0.8l0.1,0.1h0.5l0.1-0.1V247l-0.3,0.3h-1.3
				c-0.5-0.2-0.8-0.5-0.8-1.3v-2.2c0-0.8,0.4-1.1,0.8-1.3h2.5c0.5,0.2,0.8,0.5,0.8,1.3v5.1c0,0.8-0.4,1.1-0.8,1.3H93.7z M95.3,245.9
				v-1.8l-0.1-0.1h-0.5l-0.1,0.1v1.8l0.1,0.1h0.5L95.3,245.9z"/>
		</g>
	</g>
	<g>
		<g>
			<circle class="st4" cx="195.3" cy="186.8" r="8.5"/>
			<circle class="st5" cx="195.3" cy="186.8" r="8.5"/>
		</g>
		<g>
			<path class="st6" d="M191.3,190.7v-1.6h1v-4.5h-0.9V183h2.6v6.1h0.9v1.6H191.3z"/>
			<path class="st6" d="M196.4,190.7c-0.5-0.2-0.8-0.5-0.8-1.3v-1h1.6v0.8l0.1,0.1h0.6l0.1-0.1v-2.1l-0.1-0.1h-0.6l-0.1,0.1v0.4
				h-1.6V183h4v1.5h-2.4v1.6l0.4-0.4h1.3c0.5,0.2,0.8,0.5,0.8,1.3v2.4c0,0.8-0.4,1.1-0.8,1.3H196.4z"/>
		</g>
	</g>
	<g>
		<g>
			<circle class="st4" cx="173.9" cy="195.3" r="8.5"/>
			<circle class="st5" cx="173.9" cy="195.3" r="8.5"/>
		</g>
		<g>
			<path class="st6" d="M169.9,199.2v-1.6h1v-4.5H170v-1.6h2.6v6.1h0.9v1.6H169.9z"/>
			<path class="st6" d="M177.5,199.2H175c-0.5-0.2-0.8-0.5-0.8-1.3v-5.1c0-0.8,0.4-1.1,0.8-1.3h2.5c0.5,0.2,0.8,0.5,0.8,1.3v1h-1.7
				V193l-0.1-0.1H176l-0.1,0.1v1.8l0.3-0.3h1.3c0.5,0.2,0.8,0.5,0.8,1.3v2.2C178.3,198.7,178,199,177.5,199.2z M176.5,197.8l0.1-0.1
				v-1.8l-0.1-0.1H176l-0.1,0.1v1.8l0.1,0.1H176.5z"/>
		</g>
	</g>
	<g>
		<g>
			<circle class="st4" cx="166.3" cy="221.7" r="8.5"/>
			<circle class="st5" cx="166.3" cy="221.7" r="8.5"/>
		</g>
		<g>
			<path class="st6" d="M162.3,225.6V224h1v-4.5h-0.9v-1.6h2.6v6.1h0.9v1.6H162.3z"/>
			<path class="st6" d="M166.8,225.6l2.1-6.2h-2.4v-1.5h4.1v1.2l-2.1,6.5H166.8z"/>
		</g>
	</g>
</g>


<g id="アイコン">
	<g>
		
			<rect x="132.8" y="106" transform="matrix(0.5767 -0.8169 0.8169 0.5767 -30.9158 155.0689)" class="st5" width="2.8" height="2.8"/>
		
			<rect x="136" y="101.3" transform="matrix(0.5767 -0.8169 0.8169 0.5767 -25.7484 155.7797)" class="st5" width="2.8" height="2.8"/>
		
			<rect x="136.7" y="105.3" transform="matrix(0.5767 -0.8169 0.8169 0.5767 -28.6876 158.008)" class="st5" width="2.8" height="2.8"/>
		
			<rect x="140" y="100.6" transform="matrix(0.5767 -0.8169 0.8169 0.5767 -23.5201 158.7189)" class="st5" width="2.8" height="2.8"/>
		
			<rect x="141.4" y="108.5" transform="matrix(0.5767 -0.8169 0.8169 0.5767 -29.3984 163.1755)" class="st5" width="2.8" height="2.8"/>
		
			<rect x="144.6" y="103.9" transform="matrix(0.5767 -0.8169 0.8169 0.5767 -24.231 163.8863)" class="st5" width="2.8" height="2.8"/>
		
			<rect x="139.3" y="96.7" transform="matrix(0.5767 -0.8169 0.8169 0.5767 -20.581 156.4906)" class="st5" width="2.8" height="2.8"/>
		
			<rect x="137.7" y="99" transform="matrix(0.5767 -0.8169 0.8169 0.5767 -23.1647 156.1351)" class="st6" width="2.8" height="2.8"/>
		
			<rect x="134.4" y="103.6" transform="matrix(0.5767 -0.8169 0.8169 0.5767 -28.3321 155.4243)" class="st6" width="2.8" height="2.8"/>
		
			<rect x="135.1" y="107.6" transform="matrix(0.5767 -0.8169 0.8169 0.5767 -31.2713 157.6526)" class="st6" width="2.8" height="2.8"/>
		
			<rect x="138.4" y="103" transform="matrix(0.5767 -0.8169 0.8169 0.5767 -26.1038 158.3634)" class="st6" width="2.8" height="2.8"/>
		
			<rect x="141.6" y="98.3" transform="matrix(0.5767 -0.8169 0.8169 0.5767 -20.9364 159.0743)" class="st6" width="2.8" height="2.8"/>
		
			<rect x="142.3" y="102.3" transform="matrix(0.5767 -0.8169 0.8169 0.5767 -23.8755 161.3026)" class="st6" width="2.8" height="2.8"/>
		
			<rect x="139" y="106.9" transform="matrix(0.5767 -0.8169 0.8169 0.5767 -29.043 160.5917)" class="st6" width="2.8" height="2.8"/>
		
			<rect x="146.9" y="105.5" transform="matrix(0.5767 -0.8169 0.8169 0.5767 -24.5864 166.47)" class="st6" width="2.8" height="2.8"/>
		
			<rect x="143.7" y="110.2" transform="matrix(0.5767 -0.8169 0.8169 0.5767 -29.7538 165.7592)" class="st6" width="2.8" height="2.8"/>
		
			<rect x="139.7" y="110.9" transform="matrix(0.5767 -0.8169 0.8169 0.5767 -31.9821 162.82)" class="st6" width="2.8" height="2.8"/>
		
			<rect x="143" y="106.2" transform="matrix(0.5767 -0.8169 0.8169 0.5767 -26.8147 163.5309)" class="st6" width="2.8" height="2.8"/>
		
			<rect x="146.3" y="101.6" transform="matrix(0.5767 -0.8169 0.8169 0.5767 -21.6472 164.2417)" class="st6" width="2.8" height="2.8"/>
		
			<rect x="137.4" y="109.2" transform="matrix(0.5767 -0.8169 0.8169 0.5767 -31.6267 160.2363)" class="st5" width="2.8" height="2.8"/>
		
			<rect x="140.7" y="104.6" transform="matrix(0.5767 -0.8169 0.8169 0.5767 -26.4593 160.9472)" class="st5" width="2.8" height="2.8"/>
		
			<rect x="145.3" y="107.9" transform="matrix(0.5767 -0.8169 0.8169 0.5767 -27.1701 166.1146)" class="st5" width="2.8" height="2.8"/>
		
			<rect x="143.9" y="100" transform="matrix(0.5767 -0.8169 0.8169 0.5767 -21.2918 161.658)" class="st5" width="2.8" height="2.8"/>
		
			<rect x="142" y="112.5" transform="matrix(0.5767 -0.8169 0.8169 0.5767 -32.3375 165.4037)" class="st5" width="2.8" height="2.8"/>
		
			<rect x="148.6" y="103.2" transform="matrix(0.5767 -0.8169 0.8169 0.5767 -22.0027 166.8254)" class="st5" width="2.8" height="2.8"/>
	</g>
	<g>
		<g>
			<path class="st6" d="M381.9,337.9c0,1.6-1.3,2.8-2.8,2.8H10.3c-1.6,0-2.8-1.3-2.8-2.8V313c0-1.6,1.3-2.8,2.8-2.8h368.8
				c1.6,0,2.8,1.3,2.8,2.8V337.9z"/>
			<path class="st13" d="M381.9,337.9c0,1.6-1.3,2.8-2.8,2.8H10.3c-1.6,0-2.8-1.3-2.8-2.8V313c0-1.6,1.3-2.8,2.8-2.8h368.8
				c1.6,0,2.8,1.3,2.8,2.8V337.9z"/>
		</g>
		<g>
			<path class="st5" d="M53,326.8v2.6c0,1.3-0.6,1.7-1.3,2h-3.3c-0.7-0.3-1.3-0.7-1.3-2v-2h1.8v2.1l0.4,0.4h1.6l0.4-0.4v-2.8
				l-0.3-0.4l-2.6-0.8c-0.8-0.3-1.1-0.8-1.1-1.9v-2.2c0-1.3,0.6-1.7,1.3-2h3.3c0.7,0.3,1.3,0.7,1.3,2v1.9h-1.8v-2.1l-0.4-0.4h-1.6
				l-0.4,0.4v2.4l0.4,0.4l2.6,0.7C52.6,325.2,53,325.7,53,326.8z"/>
			<path class="st5" d="M54.3,319.4h5.1v1.6h-3.3v3.4h3.1v1.6h-3.1v3.7h3.4v1.6h-5.2V319.4z"/>
			<path class="st5" d="M66.6,329.4c0,1.3-0.6,1.7-1.3,2H62c-0.7-0.3-1.3-0.7-1.3-2v-8c0-1.3,0.6-1.7,1.3-2h3.3
				c0.7,0.3,1.3,0.7,1.3,2v2.7h-1.8v-2.8l-0.4-0.4h-1.6l-0.4,0.4v8.3l0.4,0.4h1.6l0.4-0.4v-2.7h1.8V329.4z"/>
			<path class="st5" d="M71.4,321.1v10.3h-1.8v-10.3h-2.1v-1.6h6.1v1.6H71.4z"/>
			<path class="st5" d="M80.2,329.4c0,1.3-0.6,1.7-1.3,2h-3.3c-0.7-0.3-1.3-0.7-1.3-2v-8c0-1.3,0.6-1.7,1.3-2h3.3
				c0.7,0.3,1.3,0.7,1.3,2V329.4z M78.4,321.3l-0.4-0.4h-1.6l-0.4,0.4v8.3l0.4,0.4h1.6l0.4-0.4V321.3z"/>
			<path class="st5" d="M81.6,331.4v-12h4.6c0.7,0.3,1.3,0.7,1.3,2v2.6c0,1.3-0.6,1.6-1.3,1.9L86,326l2.1,4.3v1.1h-1.6l-2.2-5.1
				h-0.8v5.1H81.6z M83.4,320.9v3.9h2l0.4-0.4v-3.1l-0.4-0.4H83.4z"/>
			<path class="st5" d="M91.7,331.4v-1.6h1.8v-8.7h-1.7v-1.6h3.5v10.4h1.7v1.6H91.7z"/>
		</g>
		<line class="st14" x1="21.6" y1="325.5" x2="42.9" y2="325.5"/>
		<g>
			<path class="st5" d="M143.1,326.8v2.6c0,1.3-0.6,1.7-1.3,2h-3.3c-0.7-0.3-1.3-0.7-1.3-2v-2h1.8v2.1l0.4,0.4h1.6l0.4-0.4v-2.8
				l-0.3-0.4l-2.6-0.8c-0.8-0.3-1.1-0.8-1.1-1.9v-2.2c0-1.3,0.6-1.7,1.3-2h3.3c0.7,0.3,1.3,0.7,1.3,2v1.9h-1.8v-2.1l-0.4-0.4h-1.6
				l-0.4,0.4v2.4l0.4,0.4l2.6,0.7C142.7,325.2,143.1,325.7,143.1,326.8z"/>
			<path class="st5" d="M144.4,319.4h5.1v1.6h-3.3v3.4h3.1v1.6h-3.1v3.7h3.4v1.6h-5.2V319.4z"/>
			<path class="st5" d="M156.7,329.4c0,1.3-0.6,1.7-1.3,2h-3.3c-0.7-0.3-1.3-0.7-1.3-2v-8c0-1.3,0.6-1.7,1.3-2h3.3
				c0.7,0.3,1.3,0.7,1.3,2v2.7h-1.8v-2.8l-0.4-0.4h-1.6l-0.4,0.4v8.3l0.4,0.4h1.6l0.4-0.4v-2.7h1.8V329.4z"/>
			<path class="st5" d="M161.5,321.1v10.3h-1.8v-10.3h-2.1v-1.6h6.1v1.6H161.5z"/>
			<path class="st5" d="M170.3,329.4c0,1.3-0.6,1.7-1.3,2h-3.3c-0.7-0.3-1.3-0.7-1.3-2v-8c0-1.3,0.6-1.7,1.3-2h3.3
				c0.7,0.3,1.3,0.7,1.3,2V329.4z M168.6,321.3l-0.4-0.4h-1.6l-0.4,0.4v8.3l0.4,0.4h1.6l0.4-0.4V321.3z"/>
			<path class="st5" d="M171.7,331.4v-12h4.6c0.7,0.3,1.3,0.7,1.3,2v2.6c0,1.3-0.6,1.6-1.3,1.9l-0.3,0.1l2.1,4.3v1.1h-1.6l-2.2-5.1
				h-0.8v5.1H171.7z M173.5,320.9v3.9h2l0.4-0.4v-3.1l-0.4-0.4H173.5z"/>
			<path class="st5" d="M181.4,331.4v-3.6c0-1.1,0.4-1.7,1.2-2.1l3-1.2v-3.2l-0.4-0.4h-1.7l-0.4,0.4v2h-1.8v-1.9
				c0-1.3,0.6-1.7,1.3-2h3.3c0.7,0.3,1.3,0.7,1.3,2v2.5c0,1.1-0.3,1.7-1.1,2.1l-3,1.2v2.5h4.1v1.6H181.4z"/>
		</g>
		<line class="st15" x1="111.7" y1="325.5" x2="133" y2="325.5"/>
		<g>
			<path class="st5" d="M232.9,326.8v2.6c0,1.3-0.6,1.7-1.3,2h-3.3c-0.7-0.3-1.3-0.7-1.3-2v-2h1.8v2.1l0.4,0.4h1.6l0.4-0.4v-2.8
				l-0.3-0.4l-2.6-0.8c-0.8-0.3-1.1-0.8-1.1-1.9v-2.2c0-1.3,0.6-1.7,1.3-2h3.3c0.7,0.3,1.3,0.7,1.3,2v1.9h-1.8v-2.1l-0.4-0.4h-1.6
				l-0.4,0.4v2.4l0.4,0.4l2.6,0.7C232.5,325.2,232.9,325.7,232.9,326.8z"/>
			<path class="st5" d="M234.2,319.4h5.1v1.6H236v3.4h3.1v1.6H236v3.7h3.4v1.6h-5.2V319.4z"/>
			<path class="st5" d="M246.5,329.4c0,1.3-0.6,1.7-1.3,2h-3.3c-0.7-0.3-1.3-0.7-1.3-2v-8c0-1.3,0.6-1.7,1.3-2h3.3
				c0.7,0.3,1.3,0.7,1.3,2v2.7h-1.8v-2.8l-0.4-0.4h-1.6l-0.4,0.4v8.3l0.4,0.4h1.6l0.4-0.4v-2.7h1.8V329.4z"/>
			<path class="st5" d="M251.3,321.1v10.3h-1.8v-10.3h-2.1v-1.6h6.1v1.6H251.3z"/>
			<path class="st5" d="M260.2,329.4c0,1.3-0.6,1.7-1.3,2h-3.3c-0.7-0.3-1.3-0.7-1.3-2v-8c0-1.3,0.6-1.7,1.3-2h3.3
				c0.7,0.3,1.3,0.7,1.3,2V329.4z M258.4,321.3l-0.4-0.4h-1.6l-0.4,0.4v8.3l0.4,0.4h1.6l0.4-0.4V321.3z"/>
			<path class="st5" d="M261.6,331.4v-12h4.6c0.7,0.3,1.3,0.7,1.3,2v2.6c0,1.3-0.6,1.6-1.3,1.9l-0.3,0.1l2.1,4.3v1.1h-1.6l-2.2-5.1
				h-0.8v5.1H261.6z M263.4,320.9v3.9h2l0.4-0.4v-3.1l-0.4-0.4H263.4z"/>
			<path class="st5" d="M272.6,331.4c-0.7-0.3-1.3-0.7-1.3-2v-1.7h1.8v1.8l0.4,0.4h1.7l0.4-0.4v-3.2l-0.4-0.3h-1.8v-1.4h1.8l0.4-0.4
				v-3l-0.4-0.4h-1.7l-0.4,0.4v1.8h-1.8v-1.7c0-1.3,0.6-1.7,1.3-2h3.3c0.7,0.3,1.3,0.7,1.3,2v1.9c0,1-0.2,1.5-0.9,1.9
				c0.6,0.4,0.9,0.9,0.9,1.9v2.2c0,1.3-0.6,1.7-1.3,2H272.6z"/>
		</g>
		<line class="st16" x1="201.5" y1="325.5" x2="222.8" y2="325.5"/>
		<g>
			<path class="st5" d="M322.8,329.4c0,1.3-0.6,1.7-1.3,2h-4.6v-12h4.6c0.7,0.3,1.3,0.7,1.3,2V329.4z M318.7,320.9v9h2l0.4-0.4v-8.3
				l-0.4-0.4H318.7z"/>
			<path class="st5" d="M324.2,331.4v-12h4.6c0.7,0.3,1.3,0.7,1.3,2v2.6c0,1.3-0.6,1.6-1.3,1.9l-0.3,0.1l2.1,4.3v1.1h-1.6l-2.2-5.1
				H326v5.1H324.2z M326,320.9v3.9h2l0.4-0.4v-3.1l-0.4-0.4H326z"/>
			<path class="st5" d="M337.2,326.8v2.6c0,1.3-0.6,1.7-1.3,2h-3.3c-0.7-0.3-1.3-0.7-1.3-2v-2h1.8v2.1l0.4,0.4h1.6l0.4-0.4v-2.8
				l-0.3-0.4l-2.6-0.8c-0.8-0.3-1.1-0.8-1.1-1.9v-2.2c0-1.3,0.6-1.7,1.3-2h3.3c0.7,0.3,1.3,0.7,1.3,2v1.9h-1.8v-2.1l-0.4-0.4h-1.6
				l-0.4,0.4v2.4l0.4,0.4l2.6,0.7C336.9,325.2,337.2,325.7,337.2,326.8z"/>
			<path class="st5" d="M344.8,321.1h-3.9v-1.6h5.8v1.5l-4,8.9h4v1.6h-5.9v-1.5L344.8,321.1z"/>
			<path class="st5" d="M353.9,329.4c0,1.3-0.6,1.7-1.3,2h-3.3c-0.7-0.3-1.3-0.7-1.3-2v-8c0-1.3,0.6-1.7,1.3-2h3.3
				c0.7,0.3,1.3,0.7,1.3,2V329.4z M352.1,321.3l-0.4-0.4h-1.6l-0.4,0.4v8.3l0.4,0.4h1.6l0.4-0.4V321.3z"/>
			<path class="st5" d="M359.6,319.4h1.6v12h-1.6l-2.6-7.1h-0.2v7.1h-1.6v-12h1.6l2.6,7.1h0.2V319.4z"/>
			<path class="st5" d="M362.6,319.4h5.1v1.6h-3.3v3.4h3.1v1.6h-3.1v3.7h3.4v1.6h-5.2V319.4z"/>
		</g>
		<g>
			<g>
				<g>
					<g>
						<line class="st17" x1="292.9" y1="318.1" x2="292.9" y2="333"/>
					</g>
					<g>
						<ellipse class="st10" cx="299" cy="325.5" rx="1.5" ry="1.4"/>
					</g>
					<g>
						<ellipse class="st10" cx="305" cy="325.5" rx="1.5" ry="1.4"/>
					</g>
					<g>
						<line class="st17" x1="311.1" y1="318.1" x2="311.1" y2="333"/>
					</g>
				</g>
			</g>
		</g>
	</g>
	<g>
		<defs>
			
				<rect id="SVGID_1_" x="162.8" y="64.3" transform="matrix(-0.7118 0.7023 -0.7023 -0.7118 345.8402 -4.8023)" width="22.3" height="8.5"/>
		</defs>
		<clipPath id="SVGID_00000098203211854091470380000003617357455303998617_">
			<use xlink:href="#SVGID_1_"  style="overflow:visible;"/>
		</clipPath>
		<g style="clip-path:url(#SVGID_00000098203211854091470380000003617357455303998617_);">
			<polygon class="st19" points="161.9,70.5 163.9,68.5 172.9,69.5 173.8,78.6 171.8,80.6 170.9,71.5 			"/>
			<polygon class="st20" points="165.9,66.5 167.9,64.5 176.9,65.6 177.9,74.6 175.9,76.6 174.9,67.6 			"/>
			<polygon class="st21" points="169.9,62.5 172,60.5 181,61.6 181.9,70.6 179.9,72.6 178.9,63.6 			"/>
		</g>
	</g>
</g>
</svg>
