<?xml version="1.0" encoding="utf-8"?>
<!-- Generator: Adobe Illustrator 27.0.0, SVG Export Plug-In . SVG Version: 6.00 Build 0)  -->
<svg version="1.1" xmlns="http://www.w3.org/2000/svg" xmlns:xlink="http://www.w3.org/1999/xlink" x="0px" y="0px"
	 viewBox="0 0 550 403" style="enable-background:new 0 0 550 443.7;" xml:space="preserve">
<style type="text/css">
	.st0{fill:none;stroke:#646464;stroke-width:14.1732;stroke-miterlimit:10;}
	.st1{fill:none;stroke:#FFD449;stroke-width:2.8346;stroke-miterlimit:10;}
	.st2{fill:none;stroke:#54C6EB;stroke-width:2.8346;stroke-miterlimit:10;}
	.st3{fill:none;stroke:#F4442E;stroke-width:2.8346;stroke-miterlimit:10;}
	.st4{fill:none;stroke:#FFFFFF;stroke-width:2.126;}
	.st5{fill:#646464;}
	.st6{fill:#FFFFFF;}
	.st7{fill:#09BC8A;}
	.st8{fill:none;stroke:#646464;stroke-width:2.8346;stroke-miterlimit:10;}
	.st9{fill:none;stroke:#09BC8A;stroke-width:1.9843;stroke-miterlimit:10;}
	.st10{fill:none;stroke:#09BC8A;stroke-width:2.2097;stroke-miterlimit:10;}
	.st11{fill:#FF3380;}
	.st12{fill:none;stroke:#FF3380;stroke-width:1.9843;stroke-miterlimit:10;}
	.st13{fill:none;stroke:#646464;stroke-width:0.7087;stroke-miterlimit:10;}
	.st14{fill:none;stroke:#F4442E;stroke-width:5.6693;stroke-miterlimit:10;}
	.st15{fill:none;stroke:#54C6EB;stroke-width:5.6693;stroke-miterlimit:10;}
	.st16{fill:none;stroke:#FFD449;stroke-width:5.6693;stroke-miterlimit:10;}
	.st17{fill:none;stroke:#09BC8A;stroke-width:2.8346;stroke-miterlimit:10;}
	.st18{clip-path:url(#SVGID_00000068649408804391033760000013109306965730976667_);}
	.st19{fill:#F4442E;}
	.st20{fill:#54C6EB;}
	.st21{fill:#FFD449;}
</style>
<g id="コース">
	<path class="st0" d="M94.7,36.2c0,0,79,9.1,99.8,10.5c20.8,1.5,75.5,5,95.7,5.9c20.2,0.9,59.1,3.5,79.9,5.6
		c20.8,2,79.9,7.9,92.2,9.1c12.3,1.2,26.9,3.4,32.3,4.8c5.5,1.3,5,4.9,4.6,8.6c-0.4,3.6-1.5,16.6-1.8,18.2c-0.2,1.6-0.7,3.8,3.4,5.8
		c4.1,2,6.9,2.9,8.3,3.5c1.4,0.7,4,1.5,3.6,6.1c-0.3,4.6-1.8,16.2-2.7,21.2c-1,4.9-7.9,22.4-11.1,28.6c-3.2,6.3-71.3,130.7-74,135.9
		c-2.6,5.2-6.4,9.8-7.9,12.4c-1.5,2.6-2.2,6.6,2,9s9.9,4.6,13,7c3.1,2.4,3.7,6.6,1.1,8.6c-2.6,2-26.3,20-29.2,22.2
		c-2.9,2.2-12.1,0.2-11.4-7.5c0.7-7.7,8.1-90,8.3-95.5c0.2-5.5-2-9-6.6-10.8c-4.6-1.8-18.4-5-23.9-14.9c-5.5-9.9-8.8-20.2-15.6-24.1
		c-6.8-4-10.5-4.2-16.5-4.6s-34.5-2.9-38.9-3.5c-4.4-0.7-9.2-4.6-10.5-10.8c-1.3-6.1-2.6-9.7-4-14c-1.3-4.4-4.8-5.9-7.7-7.5
		c-2.9-1.5-40.6-20.2-43.7-21.3c-3.1-1.1-7-2.2-11.4-2.6c-4.4-0.4-113.7-11-116.3-11.2c-2.6-0.2-5.9-2-6.8-9.2
		c-0.9-7.2-5.7-40.4-6.1-43.9c-0.7-5-6.1-6.5-8.8-4.6C80.4,75.7,78,86,70.6,85c-7.5-1.1-8.6-4.8-11.4-5s-19.8-1.8-21.3-2
		c-1.5-0.2-5-2.2-4-7.7c1.1-5.5,5-19.1,16.7-27.9s20-8.1,29.9-7.5S94.7,36.2,94.7,36.2z"/>
</g>
<g id="セクター">
	<path class="st1" d="M168,136.8c-29.7-2.9-60.7-5.8-62.1-6c-2.6-0.2-5.9-2-6.8-9.2c-0.9-7.2-5.7-40.4-6.1-43.9
		c-0.7-5-6.1-6.5-8.8-4.6C80.4,75.7,78,86,70.6,85c-7.5-1.1-8.6-4.8-11.4-5s-19.8-1.8-21.3-2c-1.5-0.2-5-2.2-4-7.7
		c1.1-5.5,5-19.1,16.7-27.9s20-8.1,29.9-7.5s14.3,1.3,14.3,1.3"/>
	<path class="st2" d="M436.2,279.4c-6.2,11.5-10.5,19.4-11.2,20.6c-2.6,5.2-6.4,9.8-7.9,12.4c-1.5,2.6-2.2,6.6,2,9s9.9,4.6,13,7
		c3.1,2.4,3.7,6.6,1.1,8.6c-2.6,2-26.3,20-29.2,22.2c-2.9,2.2-12.1,0.2-11.4-7.5c0.7-7.7,8.1-90,8.3-95.5c0.2-5.5-2-9-6.6-10.8
		c-4.6-1.8-18.4-5-23.9-14.9c-5.5-9.9-8.8-20.2-15.6-24.1c-6.8-4-10.5-4.2-16.5-4.6s-34.5-2.9-38.9-3.5c-4.4-0.7-9.2-4.6-10.5-10.8
		c-1.3-6.1-2.6-9.7-4-14c-1.3-4.4-4.8-5.9-7.7-7.5c-2.9-1.5-40.6-20.2-43.7-21.3c-3.1-1.1-7-2.2-11.4-2.6
		c-2.1-0.2-27.6-2.7-54.3-5.2"/>
	<path class="st3" d="M94.7,36.2c0,0,79,9.1,99.8,10.5c20.8,1.5,75.5,5,95.7,5.9c20.2,0.9,59.1,3.5,79.9,5.6
		c20.8,2,79.9,7.9,92.2,9.1c12.3,1.2,26.9,3.4,32.3,4.8c5.5,1.3,5,4.9,4.6,8.6c-0.4,3.6-1.5,16.6-1.8,18.2c-0.2,1.6-0.7,3.8,3.4,5.8
		c4.1,2,6.9,2.9,8.3,3.5c1.4,0.7,4,1.5,3.6,6.1c-0.3,4.6-1.8,16.2-2.7,21.2c-1,4.9-7.9,22.4-11.1,28.6
		c-2.4,4.8-42.7,78.4-62.8,115.3"/>
</g>
<g id="コーナー番号">
	<g>
		<g>
			<circle class="st4" cx="515.8" cy="62.9" r="8.5"/>
			<circle class="st5" cx="515.8" cy="62.9" r="8.5"/>
		</g>
		<g>
			<path class="st6" d="M514.1,66.8v-1.6h1v-4.5h-0.9v-1.6h2.6v6.1h0.9v1.6H514.1z"/>
		</g>
	</g>
	<g>
		<g>
			<circle class="st4" cx="479.8" cy="113.4" r="8.5"/>
			<circle class="st5" cx="479.8" cy="113.4" r="8.5"/>
		</g>
		<g>
			<path class="st6" d="M477.8,117.3v-2.6c0-0.6,0.1-1,0.6-1.2l1.9-0.8v-1.6l-0.1-0.1h-0.5l-0.1,0.1v1.1h-1.7v-1.3
				c0-0.8,0.4-1.1,0.8-1.3h2.5c0.5,0.2,0.8,0.5,0.8,1.3v1.9c0,0.6-0.1,0.9-0.6,1.2l-1.8,0.8v0.9h2.4v1.6H477.8z"/>
		</g>
	</g>
	<g>
		<g>
			<circle class="st4" cx="535.2" cy="107.4" r="8.5"/>
			<circle class="st5" cx="535.2" cy="107.4" r="8.5"/>
		</g>
		<g>
			<path class="st6" d="M534,111.3c-0.5-0.2-0.8-0.5-0.8-1.3v-1h1.7v0.8l0.1,0.1h0.5l0.1-0.1v-1.6l-0.1-0.1h-1v-1.3h1l0.1-0.1v-1.5
				l-0.1-0.1H535l-0.1,0.1v0.8h-1.7v-1c0-0.8,0.4-1.1,0.8-1.3h2.5c0.5,0.2,0.8,0.5,0.8,1.3v1.3c0,0.6-0.2,0.9-0.6,1.2
				c0.4,0.3,0.6,0.6,0.6,1.2v1.4c0,0.8-0.4,1.1-0.8,1.3H534z"/>
		</g>
	</g>
	<g>
		<g>
			<circle class="st4" cx="448.7" cy="311.9" r="8.5"/>
			<circle class="st5" cx="448.7" cy="311.9" r="8.5"/>
		</g>
		<g>
			<path class="st6" d="M450.4,314.3v1.5h-1.7v-1.5h-2.2v-1.5l1.6-4.7h1.7l-1.6,4.6h0.5v-0.4l0.4-1h1.3v1.4h0.5v1.6H450.4z"/>
		</g>
	</g>
	<g>
		<g>
			<circle class="st4" cx="456.4" cy="342.1" r="8.5"/>
			<circle class="st5" cx="456.4" cy="342.1" r="8.5"/>
		</g>
		<g>
			<path class="st6" d="M455.2,346c-0.5-0.2-0.8-0.5-0.8-1.3v-1h1.6v0.8l0.1,0.1h0.6l0.1-0.1v-2.1l-0.1-0.1h-0.6l-0.1,0.1v0.4h-1.6
				v-4.5h4v1.5H456v1.6l0.4-0.4h1.3c0.5,0.2,0.8,0.5,0.8,1.3v2.4c0,0.8-0.4,1.1-0.8,1.3H455.2z"/>
		</g>
	</g>
	<g>
		<g>
			<circle class="st4" cx="385.1" cy="376.5" r="8.5"/>
			<circle class="st5" cx="385.1" cy="376.5" r="8.5"/>
		</g>
		<g>
			<path class="st6" d="M386.3,380.3h-2.5c-0.5-0.2-0.8-0.5-0.8-1.3V374c0-0.8,0.4-1.1,0.8-1.3h2.5c0.5,0.2,0.8,0.5,0.8,1.3v1h-1.7
				v-0.8l-0.1-0.1h-0.5l-0.1,0.1v1.8l0.3-0.3h1.3c0.5,0.2,0.8,0.5,0.8,1.3v2.2C387.2,379.9,386.8,380.2,386.3,380.3z M385.4,379
				l0.1-0.1V377l-0.1-0.1h-0.5l-0.1,0.1v1.8l0.1,0.1H385.4z"/>
		</g>
	</g>
	<g>
		<g>
			<circle class="st4" cx="418.9" cy="240.6" r="8.5"/>
			<circle class="st5" cx="418.9" cy="240.6" r="8.5"/>
		</g>
		<g>
			<path class="st6" d="M417.1,244.5l2.1-6.2h-2.4v-1.5h4.1v1.2l-2.1,6.5H417.1z"/>
		</g>
	</g>
	<g>
		<g>
			<circle class="st4" cx="358.6" cy="250.4" r="8.5"/>
			<circle class="st5" cx="358.6" cy="250.4" r="8.5"/>
		</g>
		<g>
			<path class="st6" d="M357.4,254.3c-0.5-0.2-0.8-0.5-0.8-1.3v-1.4c0-0.6,0.2-0.9,0.6-1.2c-0.4-0.3-0.6-0.6-0.6-1.2v-1.3
				c0-0.8,0.4-1.1,0.8-1.3h2.5c0.5,0.2,0.8,0.5,0.8,1.3v1.3c0,0.6-0.2,0.9-0.6,1.2c0.4,0.3,0.6,0.6,0.6,1.2v1.4
				c0,0.8-0.4,1.1-0.8,1.3H357.4z M358.2,249.7l0.1,0.1h0.5l0.1-0.1v-1.5l-0.1-0.1h-0.5l-0.1,0.1V249.7z M359,252.8v-1.6l-0.1-0.1
				h-0.5l-0.1,0.1v1.6l0.1,0.1h0.5L359,252.8z"/>
		</g>
	</g>
	<g>
		<g>
			<circle class="st4" cx="365.8" cy="186.9" r="8.5"/>
			<circle class="st5" cx="365.8" cy="186.9" r="8.5"/>
		</g>
		<g>
			<path class="st6" d="M364.5,190.8c-0.5-0.2-0.8-0.5-0.8-1.3v-1h1.7v0.8l0.1,0.1h0.5l0.1-0.1v-1.8l-0.3,0.3h-1.3
				c-0.5-0.2-0.8-0.5-0.8-1.3v-2.2c0-0.8,0.4-1.1,0.8-1.3h2.5c0.5,0.2,0.8,0.5,0.8,1.3v5.1c0,0.8-0.4,1.1-0.8,1.3H364.5z
				 M366.2,186.4v-1.8l-0.1-0.1h-0.5l-0.1,0.1v1.8l0.1,0.1h0.5L366.2,186.4z"/>
		</g>
	</g>
	<g>
		<g>
			<circle class="st4" cx="86.2" cy="145.8" r="8.5"/>
			<circle class="st5" cx="86.2" cy="145.8" r="8.5"/>
		</g>
		<g>
			<path class="st6" d="M82.1,149.7v-1.6h1v-4.5h-0.9V142h2.6v6.1h0.9v1.6H82.1z"/>
			<path class="st6" d="M86.4,149.7v-2.6c0-0.6,0.1-1,0.6-1.2l1.9-0.8v-1.6l-0.1-0.1h-0.5l-0.1,0.1v1.1h-1.7v-1.3
				c0-0.8,0.4-1.1,0.8-1.3h2.5c0.5,0.2,0.8,0.5,0.8,1.3v1.9c0,0.6-0.1,0.9-0.6,1.2l-1.9,0.8v0.9h2.4v1.6H86.4z"/>
		</g>
	</g>
	<g>
		<g>
			<circle class="st4" cx="95.5" cy="55.1" r="8.5"/>
			<circle class="st5" cx="95.5" cy="55.1" r="8.5"/>
		</g>
		<g>
			<path class="st6" d="M91.5,59v-1.6h1v-4.5h-0.9v-1.6h2.6v6.1H95V59H91.5z"/>
			<path class="st6" d="M96.6,59c-0.5-0.2-0.8-0.5-0.8-1.3v-1h1.7v0.8l0.1,0.1h0.5l0.1-0.1v-1.6l-0.1-0.1h-1v-1.3h1l0.1-0.1v-1.5
				l-0.1-0.1h-0.5l-0.1,0.1v0.8h-1.7v-1c0-0.8,0.4-1.1,0.8-1.3h2.5c0.5,0.2,0.8,0.5,0.8,1.3v1.3c0,0.6-0.2,0.9-0.6,1.2
				c0.4,0.3,0.6,0.6,0.6,1.2v1.4c0,0.8-0.4,1.1-0.8,1.3H96.6z"/>
		</g>
	</g>
	<g>
		<g>
			<circle class="st4" cx="74.3" cy="105.4" r="8.5"/>
			<circle class="st5" cx="74.3" cy="105.4" r="8.5"/>
		</g>
		<g>
			<path class="st6" d="M70.3,109.3v-1.6h1v-4.5h-0.9v-1.6h2.6v6.1h0.9v1.6H70.3z"/>
			<path class="st6" d="M78.3,107.8v1.5h-1.7v-1.5h-2.2v-1.5l1.6-4.7h1.7l-1.6,4.6h0.5v-0.4l0.4-1h1.3v1.4h0.5v1.6H78.3z"/>
		</g>
	</g>
	<g>
		<g>
			<circle class="st4" cx="64.6" cy="62.8" r="8.5"/>
			<circle class="st5" cx="64.6" cy="62.8" r="8.5"/>
		</g>
		<g>
			<path class="st6" d="M60.6,66.6V65h1v-4.5h-0.9V59h2.6V65h0.9v1.6H60.6z"/>
			<path class="st6" d="M65.7,66.6c-0.5-0.2-0.8-0.5-0.8-1.3v-1h1.6v0.8l0.1,0.1h0.6l0.1-0.1v-2.1L67.2,63h-0.6l-0.1,0.1v0.4h-1.6
				V59h4v1.5h-2.4v1.6l0.4-0.4h1.3c0.5,0.2,0.8,0.5,0.8,1.3v2.4c0,0.8-0.4,1.1-0.8,1.3H65.7z"/>
		</g>
	</g>
	<g>
		<g>
			<circle class="st4" cx="16.7" cy="85.3" r="8.5"/>
			<circle class="st5" cx="16.7" cy="85.3" r="8.5"/>
		</g>
		<g>
			<path class="st6" d="M12.6,89.2v-1.6h1v-4.5h-0.9v-1.6h2.6v6.1h0.9v1.6H12.6z"/>
			<path class="st6" d="M20.2,89.2h-2.5c-0.5-0.2-0.8-0.5-0.8-1.3v-5.1c0-0.8,0.4-1.1,0.8-1.3h2.5c0.5,0.2,0.8,0.5,0.8,1.3v1h-1.7
				V83l-0.1-0.1h-0.5L18.6,83v1.8l0.3-0.3h1.3c0.5,0.2,0.8,0.5,0.8,1.3v2.2C21.1,88.7,20.7,89,20.2,89.2z M19.3,87.8l0.1-0.1v-1.8
				l-0.1-0.1h-0.5l-0.1,0.1v1.8l0.1,0.1H19.3z"/>
		</g>
	</g>
	<g>
		<g>
			<circle class="st4" cx="36.6" cy="26.6" r="8.5"/>
			<circle class="st5" cx="36.6" cy="26.6" r="8.5"/>
		</g>
		<g>
			<path class="st6" d="M32.5,30.5v-1.6h1v-4.5h-0.9v-1.6h2.6v6.1h0.9v1.6H32.5z"/>
			<path class="st6" d="M37.1,30.5l2.1-6.2h-2.4v-1.5H41V24l-2.1,6.5H37.1z"/>
		</g>
	</g>
	<g>
		<g>
			<circle class="st4" cx="278" cy="214.6" r="8.5"/>
			<circle class="st5" cx="278" cy="214.6" r="8.5"/>
		</g>
		<g>
			<path class="st6" d="M274,218.5v-1.6h1v-4.5h-0.9v-1.6h2.6v6.1h0.9v1.6H274z"/>
			<path class="st6" d="M281.6,218.5h-2.5c-0.5-0.2-0.8-0.5-0.8-1.3v-5.1c0-0.8,0.4-1.1,0.8-1.3h2.5c0.5,0.2,0.8,0.5,0.8,1.3v5.1
				C282.4,218,282.1,218.3,281.6,218.5z M280.7,212.3l-0.1-0.1h-0.5l-0.1,0.1v4.7l0.1,0.1h0.5l0.1-0.1V212.3z"/>
		</g>
	</g>
	<g>
		<g>
			<circle class="st4" cx="301.6" cy="155.4" r="8.5"/>
			<circle class="st5" cx="301.6" cy="155.4" r="8.5"/>
		</g>
		<g>
			<path class="st6" d="M297.5,159.3v-1.6h1v-4.5h-0.9v-1.6h2.6v6.1h0.9v1.6H297.5z"/>
			<path class="st6" d="M302.2,159.3v-1.6h1v-4.5h-0.9v-1.6h2.6v6.1h0.9v1.6H302.2z"/>
		</g>
	</g>
</g>



</svg>
