<?xml version="1.0" encoding="utf-8"?>
<!-- Generator: Adobe Illustrator 26.5.0, SVG Export Plug-In . SVG Version: 6.00 Build 0)  -->
<svg version="1.1" xmlns="http://www.w3.org/2000/svg" xmlns:xlink="http://www.w3.org/1999/xlink" x="0px" y="0px"
	 viewBox="0.0 0.0 550.0 367.4" style="enable-background:new 0 0 550 443.7;" xml:space="preserve">
<style type="text/css">
	.st0{fill:none;stroke:#646464;stroke-width:5.775;stroke-miterlimit:10;}
	.st1{fill:none;stroke:#FFD449;stroke-width:1.155;stroke-miterlimit:10;}
	.st2{fill:none;stroke:#54C6EB;stroke-width:1.155;stroke-miterlimit:10;}
	.st3{fill:none;stroke:#F4442E;stroke-width:1.155;stroke-miterlimit:10;}
	.st4{fill:none;stroke:#FFFFFF;stroke-width:0.866;}
	.st5{fill:#646464;}
	.st6{fill:#FFFFFF;}
	.st7{fill:none;stroke:#646464;stroke-width:1.155;stroke-miterlimit:10;}
	.st8{fill:#09BC8A;}
	.st9{fill:none;stroke:#09BC8A;stroke-width:0.900;stroke-miterlimit:10;}
	.st10{fill:none;stroke:#09BC8A;stroke-width:0.809;stroke-miterlimit:10;}
	.st11{clip-path:url(#SVGID_00000052082226627707448120000003225011589359256480_);}
	.st12{fill:none;stroke:#646464;stroke-width:1.964;stroke-miterlimit:10;}
	.st13{fill:#FF3380;}
	.st14{clip-path:url(#SVGID_00000146480650356378285320000014607395338713294209_);}
	.st15{fill:none;stroke:#FF3380;stroke-width:0.809;stroke-miterlimit:10;}
	.st16{fill:none;stroke:#646464;stroke-width:0.289;stroke-miterlimit:10;}
	.st17{fill:none;stroke:#F4442E;stroke-width:2.310;stroke-miterlimit:10;}
	.st18{fill:none;stroke:#54C6EB;stroke-width:2.310;stroke-miterlimit:10;}
	.st19{fill:none;stroke:#FFD449;stroke-width:2.310;stroke-miterlimit:10;}
	.st20{fill:none;stroke:#09BC8A;stroke-width:1.155;stroke-miterlimit:10;}
	.st21{clip-path:url(#SVGID_00000110462622352096251210000003113858319540910269_);}
	.st22{fill:#F4442E;}
	.st23{fill:#54C6EB;}
	.st24{fill:#FFD449;}
</style>
<g id="コース">
	<path class="st0" d="M97.2,258.9c0,0,128.7-217.9,133.9-227.2s13.8-10.8,23.5-4.5c9.7,6.3,6,19.4,4.1,22.4
		c-6.1,9.2-20.3,33.4-23.9,40.3c-3.7,6.9-8.5,19.6-9.8,31c-1.3,11.4-1.5,11.9-1.8,14.3c-0.3,2.5-3.2,9.4-13,11.6s-22.2,5.1-28,6.7
		s-9.2,7.3-7.8,15.7s11.7,11.9,21.8,9.5c10.1-2.3,32.6-7.8,58.2-5.9s49.9,19.9,70.8,19.6c18.6-0.3,35.9-10.4,42.3-13.8
		c6.4-3.4,20.6-8.8,39.5-5.4c18.9,3.4,40.7,8,49.6,10s24,12.4,27.8,29.6c4.7,21-11,36.9-15.4,41.3s-18.7,18.4-25.6,29
		c-6.9,10.5-16.7,25.5-19,28.2c-2.3,2.8-5.7,6.4-12.4,5.9c-6.7-0.6-29.4-5.1-41.6-13.6c-12.1-8.5-21.4-20.5-23.1-23.6
		c-1.8-3.1-1.3-9.4,3.5-12.9c4.8-3.5,10.7-8.2,28.4-8.2c17.7,0,22.5-0.6,33.4-3.5c10.8-2.9,17.1-7.9,18.1-15.8
		c1.3-9.7-0.9-18.9-14.5-22.1c-13.6-3.2-39.1-8.9-53.9-10.2c-14.8-1.3-42.6-1-61,1.5c-18.4,2.5-46.7,8-57.5,11.4
		c-10.8,3.4-20,7.2-21.8,8c-1.8,0.9-5.9,1.5-7.5-3.2s-5-16.4-17.3-14.8c-12.3,1.6-11.9,11.1-11.9,16.5c0,5.4,2.9,81.5,2.9,88.1
		c0,8.9-2.3,26.5-21.4,26.5s-36.6-4.7-44.3-7.2C115,331.7,90,314.9,90,289.4C90,280,91.7,268.2,97.2,258.9z"/>
</g>
<g id="セクター">
	<path class="st1" d="M250.6,218.4c-2.6,0.6-4.9,1.3-6.6,1.8c-10.8,3.4-20,7.2-21.8,8c-1.8,0.9-5.9,1.5-7.5-3.2s-5-16.4-17.3-14.8
		c-12.3,1.6-11.9,11.1-11.9,16.5c0,5.4,2.9,81.5,2.9,88.1c0,8.9-2.3,26.5-21.4,26.5s-36.6-4.7-44.3-7.2C115,331.7,90,314.9,90,289.4
		c0-9.4,1.7-21.2,7.1-30.5c0,0,36.1-61.1,70.9-120"/>
	<path class="st2" d="M405.3,173c0.6,0.1,1.2,0.2,1.8,0.3c18.9,3.4,40.7,8,49.6,10s24,12.4,27.8,29.6c4.7,21-11,36.9-15.4,41.3
		s-18.7,18.4-25.6,29c-6.9,10.5-16.7,25.5-19,28.2c-2.3,2.8-5.7,6.4-12.4,5.9c-6.7-0.6-29.4-5.1-41.6-13.6
		c-12.1-8.5-21.4-20.5-23.1-23.6c-1.8-3.1-1.3-9.4,3.5-12.9c4.8-3.5,10.7-8.2,28.4-8.2c17.7,0,22.5-0.6,33.4-3.5
		c10.8-2.9,17.1-7.9,18.1-15.8c1.3-9.7-0.9-18.9-14.5-22.1c-13.6-3.2-39.1-8.9-53.9-10.2c-14.8-1.3-42.6-1-61,1.5
		c-15.4,2.1-37.7,6.3-50.9,9.6"/>
	<path class="st3" d="M168,138.9c30.8-52.3,60.6-102.8,63.1-107.1c5.2-9.3,13.8-10.8,23.5-4.5c9.7,6.3,6,19.4,4.1,22.4
		c-6.1,9.2-20.3,33.4-23.9,40.3c-3.7,6.9-8.5,19.6-9.8,31c-1.3,11.4-1.5,11.9-1.8,14.3c-0.3,2.5-3.2,9.4-13,11.6s-22.2,5.1-28,6.7
		s-9.2,7.3-7.8,15.7s11.7,11.9,21.8,9.5c10.1-2.3,32.6-7.8,58.2-5.9s49.9,19.9,70.8,19.6c18.6-0.3,35.9-10.4,42.3-13.8
		c6.2-3.3,19.7-8.4,37.7-5.7"/>
</g>
<g id="コーナー番号">
	<g>
		<g>
			
			
		</g>
		<g>
			
		</g>
	</g>
	<g>
		<g>
			
			
		</g>
		<g>
			
		</g>
	</g>
	<g>
		<g>
			
			
		</g>
		<g>
			
		</g>
	</g>
	<g>
		<g>
			
			
		</g>
		<g>
			
		</g>
	</g>
	<g>
		<g>
			
			
		</g>
		<g>
			
		</g>
	</g>
	<g>
		<g>
			
			
		</g>
		<g>
			
		</g>
	</g>
	<g>
		<g>
			
			
		</g>
		<g>
			
		</g>
	</g>
	<g>
		<g>
			
			
		</g>
		<g>
			
		</g>
	</g>
	<g>
		<g>
			
			
		</g>
		<g>
			
		</g>
	</g>
	<g>
		<g>
			
			
		</g>
		<g>
			
			
		</g>
	</g>
	<g>
		<g>
			
			
		</g>
		<g>
			
			
		</g>
	</g>
	<g>
		<g>
			
			
		</g>
		<g>
			
			
		</g>
	</g>
	<g>
		<g>
			
			
		</g>
		<g>
			
			
		</g>
	</g>
	<g>
		<g>
			
			
		</g>
		<g>
			
			
		</g>
	</g>
</g>



</svg>
