<?xml version="1.0" encoding="utf-8"?>
<!-- Generator: Adobe Illustrator 26.5.0, SVG Export Plug-In . SVG Version: 6.00 Build 0)  -->
<svg version="1.1" xmlns="http://www.w3.org/2000/svg" xmlns:xlink="http://www.w3.org/1999/xlink" x="0px" y="0px"
	 viewBox="0 0 550 403" style="enable-background:new 0 0 550 443.7;" xml:space="preserve">
<style type="text/css">
	.st0{fill:none;stroke:#646464;stroke-width:14.1732;stroke-miterlimit:10;}
	.st1{fill:none;stroke:#FFD449;stroke-width:2.8346;stroke-miterlimit:10;}
	.st2{fill:none;stroke:#54C6EB;stroke-width:2.8346;stroke-miterlimit:10;}
	.st3{fill:none;stroke:#F4442E;stroke-width:2.8346;stroke-miterlimit:10;}
	.st4{fill:none;stroke:#FFFFFF;stroke-width:2.126;}
	.st5{fill:#646464;}
	.st6{fill:#FFFFFF;}
	.st7{fill:none;stroke:#646464;stroke-width:2.8346;stroke-miterlimit:10;}
	.st8{fill:#09BC8A;}
	.st9{fill:none;stroke:#09BC8A;stroke-width:2.2097;stroke-miterlimit:10;}
	.st10{fill:none;stroke:#09BC8A;stroke-width:1.9843;stroke-miterlimit:10;}
	.st11{clip-path:url(#SVGID_00000052082226627707448120000003225011589359256480_);}
	.st12{fill:none;stroke:#646464;stroke-width:4.8189;stroke-miterlimit:10;}
	.st13{fill:#FF3380;}
	.st14{clip-path:url(#SVGID_00000146480650356378285320000014607395338713294209_);}
	.st15{fill:none;stroke:#FF3380;stroke-width:1.9843;stroke-miterlimit:10;}
	.st16{fill:none;stroke:#646464;stroke-width:0.7087;stroke-miterlimit:10;}
	.st17{fill:none;stroke:#F4442E;stroke-width:5.6693;stroke-miterlimit:10;}
	.st18{fill:none;stroke:#54C6EB;stroke-width:5.6693;stroke-miterlimit:10;}
	.st19{fill:none;stroke:#FFD449;stroke-width:5.6693;stroke-miterlimit:10;}
	.st20{fill:none;stroke:#09BC8A;stroke-width:2.8346;stroke-miterlimit:10;}
	.st21{clip-path:url(#SVGID_00000110462622352096251210000003113858319540910269_);}
	.st22{fill:#F4442E;}
	.st23{fill:#54C6EB;}
	.st24{fill:#FFD449;}
</style>
<g id="コース">
	<path class="st0" d="M97.2,258.9c0,0,128.7-217.9,133.9-227.2s13.8-10.8,23.5-4.5c9.7,6.3,6,19.4,4.1,22.4
		c-6.1,9.2-20.3,33.4-23.9,40.3c-3.7,6.9-8.5,19.6-9.8,31c-1.3,11.4-1.5,11.9-1.8,14.3c-0.3,2.5-3.2,9.4-13,11.6s-22.2,5.1-28,6.7
		s-9.2,7.3-7.8,15.7s11.7,11.9,21.8,9.5c10.1-2.3,32.6-7.8,58.2-5.9s49.9,19.9,70.8,19.6c18.6-0.3,35.9-10.4,42.3-13.8
		c6.4-3.4,20.6-8.8,39.5-5.4c18.9,3.4,40.7,8,49.6,10s24,12.4,27.8,29.6c4.7,21-11,36.9-15.4,41.3s-18.7,18.4-25.6,29
		c-6.9,10.5-16.7,25.5-19,28.2c-2.3,2.8-5.7,6.4-12.4,5.9c-6.7-0.6-29.4-5.1-41.6-13.6c-12.1-8.5-21.4-20.5-23.1-23.6
		c-1.8-3.1-1.3-9.4,3.5-12.9c4.8-3.5,10.7-8.2,28.4-8.2c17.7,0,22.5-0.6,33.4-3.5c10.8-2.9,17.1-7.9,18.1-15.8
		c1.3-9.7-0.9-18.9-14.5-22.1c-13.6-3.2-39.1-8.9-53.9-10.2c-14.8-1.3-42.6-1-61,1.5c-18.4,2.5-46.7,8-57.5,11.4
		c-10.8,3.4-20,7.2-21.8,8c-1.8,0.9-5.9,1.5-7.5-3.2s-5-16.4-17.3-14.8c-12.3,1.6-11.9,11.1-11.9,16.5c0,5.4,2.9,81.5,2.9,88.1
		c0,8.9-2.3,26.5-21.4,26.5s-36.6-4.7-44.3-7.2C115,331.7,90,314.9,90,289.4C90,280,91.7,268.2,97.2,258.9z"/>
</g>
<g id="セクター">
	<path class="st1" d="M250.6,218.4c-2.6,0.6-4.9,1.3-6.6,1.8c-10.8,3.4-20,7.2-21.8,8c-1.8,0.9-5.9,1.5-7.5-3.2s-5-16.4-17.3-14.8
		c-12.3,1.6-11.9,11.1-11.9,16.5c0,5.4,2.9,81.5,2.9,88.1c0,8.9-2.3,26.5-21.4,26.5s-36.6-4.7-44.3-7.2C115,331.7,90,314.9,90,289.4
		c0-9.4,1.7-21.2,7.1-30.5c0,0,36.1-61.1,70.9-120"/>
	<path class="st2" d="M405.3,173c0.6,0.1,1.2,0.2,1.8,0.3c18.9,3.4,40.7,8,49.6,10s24,12.4,27.8,29.6c4.7,21-11,36.9-15.4,41.3
		s-18.7,18.4-25.6,29c-6.9,10.5-16.7,25.5-19,28.2c-2.3,2.8-5.7,6.4-12.4,5.9c-6.7-0.6-29.4-5.1-41.6-13.6
		c-12.1-8.5-21.4-20.5-23.1-23.6c-1.8-3.1-1.3-9.4,3.5-12.9c4.8-3.5,10.7-8.2,28.4-8.2c17.7,0,22.5-0.6,33.4-3.5
		c10.8-2.9,17.1-7.9,18.1-15.8c1.3-9.7-0.9-18.9-14.5-22.1c-13.6-3.2-39.1-8.9-53.9-10.2c-14.8-1.3-42.6-1-61,1.5
		c-15.4,2.1-37.7,6.3-50.9,9.6"/>
	<path class="st3" d="M168,138.9c30.8-52.3,60.6-102.8,63.1-107.1c5.2-9.3,13.8-10.8,23.5-4.5c9.7,6.3,6,19.4,4.1,22.4
		c-6.1,9.2-20.3,33.4-23.9,40.3c-3.7,6.9-8.5,19.6-9.8,31c-1.3,11.4-1.5,11.9-1.8,14.3c-0.3,2.5-3.2,9.4-13,11.6s-22.2,5.1-28,6.7
		s-9.2,7.3-7.8,15.7s11.7,11.9,21.8,9.5c10.1-2.3,32.6-7.8,58.2-5.9s49.9,19.9,70.8,19.6c18.6-0.3,35.9-10.4,42.3-13.8
		c6.2-3.3,19.7-8.4,37.7-5.7"/>
</g>
<g id="コーナー番号">
	<g>
		<g>
			<circle class="st4" cx="272.9" cy="14.3" r="8.5"/>
			<circle class="st5" cx="272.9" cy="14.3" r="8.5"/>
		</g>
		<g>
			<path class="st6" d="M271.2,18.2v-1.6h1v-4.5h-0.9v-1.6h2.6v6.1h0.9v1.6H271.2z"/>
		</g>
	</g>
	<g>
		<g>
			<circle class="st4" cx="246.2" cy="141.1" r="8.5"/>
			<circle class="st5" cx="246.2" cy="141.1" r="8.5"/>
		</g>
		<g>
			<path class="st6" d="M244.1,145v-2.6c0-0.6,0.1-1,0.6-1.2l1.9-0.8v-1.6l-0.1-0.1h-0.5l-0.1,0.1v1.1h-1.7v-1.3
				c0-0.8,0.4-1.1,0.8-1.3h2.5c0.5,0.2,0.8,0.5,0.8,1.3v1.9c0,0.6-0.1,0.9-0.6,1.2l-1.9,0.8v0.9h2.4v1.6H244.1z"/>
		</g>
	</g>
	<g>
		<g>
			<circle class="st4" cx="161.7" cy="188" r="8.5"/>
			<circle class="st5" cx="161.7" cy="188" r="8.5"/>
		</g>
		<g>
			<path class="st6" d="M160.5,191.9c-0.5-0.2-0.8-0.5-0.8-1.3v-1h1.7v0.8l0.1,0.1h0.5l0.1-0.1v-1.6l-0.1-0.1h-1v-1.3h1l0.1-0.1
				v-1.5l-0.1-0.1h-0.5l-0.1,0.1v0.8h-1.7v-1c0-0.8,0.4-1.1,0.8-1.3h2.5c0.5,0.2,0.8,0.5,0.8,1.3v1.3c0,0.6-0.2,0.9-0.6,1.2
				c0.4,0.3,0.6,0.6,0.6,1.2v1.4c0,0.8-0.4,1.1-0.8,1.3H160.5z"/>
		</g>
	</g>
	<g>
		<g>
			<circle class="st4" cx="265.9" cy="153.9" r="8.5"/>
			<circle class="st5" cx="265.9" cy="153.9" r="8.5"/>
		</g>
		<g>
			<path class="st6" d="M267.6,156.3v1.5h-1.7v-1.5h-2.2v-1.5l1.6-4.7h1.7l-1.6,4.6h0.5v-0.4l0.4-1h1.3v1.4h0.5v1.6H267.6z"/>
		</g>
	</g>
	<g>
		<g>
			<circle class="st4" cx="327.1" cy="171.9" r="8.5"/>
			<circle class="st5" cx="327.1" cy="171.9" r="8.5"/>
		</g>
		<g>
			<path class="st6" d="M325.9,175.8c-0.5-0.2-0.8-0.5-0.8-1.3v-1h1.6v0.8l0.1,0.1h0.6l0.1-0.1v-2.1l-0.1-0.1h-0.6l-0.1,0.1v0.4H325
				v-4.5h4v1.5h-2.4v1.6l0.4-0.4h1.3c0.5,0.2,0.8,0.5,0.8,1.3v2.4c0,0.8-0.4,1.1-0.8,1.3H325.9z"/>
		</g>
	</g>
	<g>
		<g>
			<circle class="st4" cx="387.1" cy="151.1" r="8.5"/>
			<circle class="st5" cx="387.1" cy="151.1" r="8.5"/>
		</g>
		<g>
			<path class="st6" d="M388.4,155h-2.5c-0.5-0.2-0.8-0.5-0.8-1.3v-5.1c0-0.8,0.4-1.1,0.8-1.3h2.5c0.5,0.2,0.8,0.5,0.8,1.3v1h-1.7
				v-0.8l-0.1-0.1h-0.5l-0.1,0.1v1.8l0.3-0.3h1.3c0.5,0.2,0.8,0.5,0.8,1.3v2.2C389.2,154.5,388.8,154.8,388.4,155z M387.4,153.6
				l0.1-0.1v-1.8l-0.1-0.1h-0.5l-0.1,0.1v1.8l0.1,0.1H387.4z"/>
		</g>
	</g>
	<g>
		<g>
			<circle class="st4" cx="504.8" cy="218" r="8.5"/>
			<circle class="st5" cx="504.8" cy="218" r="8.5"/>
		</g>
		<g>
			<path class="st6" d="M502.9,221.9l2.1-6.2h-2.4v-1.5h4.1v1.2l-2.1,6.5H502.9z"/>
		</g>
	</g>
	<g>
		<g>
			<circle class="st4" cx="422.4" cy="338.8" r="8.5"/>
			<circle class="st5" cx="422.4" cy="338.8" r="8.5"/>
		</g>
		<g>
			<path class="st6" d="M421.1,342.7c-0.5-0.2-0.8-0.5-0.8-1.3V340c0-0.6,0.2-0.9,0.6-1.2c-0.4-0.3-0.6-0.6-0.6-1.2v-1.3
				c0-0.8,0.4-1.1,0.8-1.3h2.5c0.5,0.2,0.8,0.5,0.8,1.3v1.3c0,0.6-0.2,0.9-0.6,1.2c0.4,0.3,0.6,0.6,0.6,1.2v1.4
				c0,0.8-0.4,1.1-0.8,1.3H421.1z M422,338.1l0.1,0.1h0.5l0.1-0.1v-1.5l-0.1-0.1h-0.5l-0.1,0.1V338.1z M422.7,341.2v-1.6l-0.1-0.1
				h-0.5l-0.1,0.1v1.6l0.1,0.1h0.5L422.7,341.2z"/>
		</g>
	</g>
	<g>
		<g>
			<circle class="st4" cx="331.3" cy="258" r="8.5"/>
			<circle class="st5" cx="331.3" cy="258" r="8.5"/>
		</g>
		<g>
			<path class="st6" d="M330.1,261.9c-0.5-0.2-0.8-0.5-0.8-1.3v-1h1.7v0.8l0.1,0.1h0.5l0.1-0.1v-1.8l-0.3,0.3h-1.3
				c-0.5-0.2-0.8-0.5-0.8-1.3v-2.2c0-0.8,0.4-1.1,0.8-1.3h2.5c0.5,0.2,0.8,0.5,0.8,1.3v5.1c0,0.8-0.4,1.1-0.8,1.3H330.1z
				 M331.7,257.5v-1.8l-0.1-0.1h-0.5l-0.1,0.1v1.8l0.1,0.1h0.5L331.7,257.5z"/>
		</g>
	</g>
	<g>
		<g>
			<circle class="st4" cx="448.2" cy="228.6" r="8.5"/>
			<circle class="st5" cx="448.2" cy="228.6" r="8.5"/>
		</g>
		<g>
			<path class="st6" d="M444.1,232.5v-1.6h1v-4.5h-0.9v-1.6h2.6v6.1h0.9v1.6H444.1z"/>
			<path class="st6" d="M451.7,232.5h-2.5c-0.5-0.2-0.8-0.5-0.8-1.3v-5.1c0-0.8,0.4-1.1,0.8-1.3h2.5c0.5,0.2,0.8,0.5,0.8,1.3v5.1
				C452.6,232,452.2,232.3,451.7,232.5z M450.9,226.3l-0.1-0.1h-0.5l-0.1,0.1v4.7l0.1,0.1h0.5l0.1-0.1V226.3z"/>
		</g>
	</g>
	<g>
		<g>
			<circle class="st4" cx="217.9" cy="248.3" r="8.5"/>
			<circle class="st5" cx="217.9" cy="248.3" r="8.5"/>
		</g>
		<g>
			<path class="st6" d="M213.9,252.2v-1.6h1v-4.5H214v-1.6h2.6v6.1h0.9v1.6H213.9z"/>
			<path class="st6" d="M218.6,252.2v-1.6h1v-4.5h-0.9v-1.6h2.6v6.1h0.9v1.6H218.6z"/>
		</g>
	</g>
	<g>
		<g>
			<circle class="st4" cx="181.9" cy="196.8" r="8.5"/>
			<circle class="st5" cx="181.9" cy="196.8" r="8.5"/>
		</g>
		<g>
			<path class="st6" d="M177.9,200.7v-1.6h1v-4.5H178v-1.6h2.6v6.1h0.9v1.6H177.9z"/>
			<path class="st6" d="M182.2,200.7v-2.6c0-0.6,0.1-1,0.6-1.2l1.9-0.8v-1.6l-0.1-0.1H184l-0.1,0.1v1.1h-1.7v-1.3
				c0-0.8,0.4-1.1,0.8-1.3h2.5c0.5,0.2,0.8,0.5,0.8,1.3v1.9c0,0.6-0.1,0.9-0.6,1.2l-1.9,0.8v0.9h2.4v1.6H182.2z"/>
		</g>
	</g>
	<g>
		<g>
			<circle class="st4" cx="192.3" cy="353.5" r="8.5"/>
			<circle class="st5" cx="192.3" cy="353.5" r="8.5"/>
		</g>
		<g>
			<path class="st6" d="M188.2,357.4v-1.6h1v-4.5h-0.9v-1.6h2.6v6.1h0.9v1.6H188.2z"/>
			<path class="st6" d="M193.4,357.4c-0.5-0.2-0.8-0.5-0.8-1.3v-1h1.7v0.8l0.1,0.1h0.5l0.1-0.1v-1.6l-0.1-0.1h-1v-1.3h1l0.1-0.1
				v-1.5l-0.1-0.1h-0.5l-0.1,0.1v0.8h-1.7v-1c0-0.8,0.4-1.1,0.8-1.3h2.5c0.5,0.2,0.8,0.5,0.8,1.3v1.3c0,0.6-0.2,0.9-0.6,1.2
				c0.4,0.3,0.6,0.6,0.6,1.2v1.4c0,0.8-0.4,1.1-0.8,1.3H193.4z"/>
		</g>
	</g>
	<g>
		<g>
			<circle class="st4" cx="59.1" cy="295.7" r="8.5"/>
			<circle class="st5" cx="59.1" cy="295.7" r="8.5"/>
		</g>
		<g>
			<path class="st6" d="M55,299.6V298h1v-4.5h-0.9V292h2.6v6.1h0.9v1.6H55z"/>
			<path class="st6" d="M63.1,298.1v1.5h-1.7v-1.5h-2.2v-1.5l1.6-4.7h1.7l-1.6,4.6h0.5v-0.4l0.4-1h1.3v1.4h0.5v1.6H63.1z"/>
		</g>
	</g>
</g>


<g id="アイコン">
	<g>
		
			<rect x="143.1" y="130.2" transform="matrix(-0.8613 -0.5081 0.5081 -0.8613 202.0733 318.4254)" class="st5" width="2.8" height="2.8"/>
		
			<rect x="138.2" y="127.3" transform="matrix(-0.8613 -0.5081 0.5081 -0.8613 194.449 310.5822)" class="st5" width="2.8" height="2.8"/>
		
			<rect x="142.1" y="126.3" transform="matrix(-0.8613 -0.5081 0.5081 -0.8613 202.1827 310.6916)" class="st5" width="2.8" height="2.8"/>
		
			<rect x="137.2" y="123.4" transform="matrix(-0.8613 -0.5081 0.5081 -0.8613 194.5584 302.8484)" class="st5" width="2.8" height="2.8"/>
		
			<rect x="145" y="121.4" transform="matrix(-0.8613 -0.5081 0.5081 -0.8613 210.0259 303.0673)" class="st5" width="2.8" height="2.8"/>
		
			<rect x="140.1" y="118.6" transform="matrix(-0.8613 -0.5081 0.5081 -0.8613 202.4016 295.2241)" class="st5" width="2.8" height="2.8"/>
		
			<rect x="133.3" y="124.4" transform="matrix(-0.8613 -0.5081 0.5081 -0.8613 186.8246 302.739)" class="st5" width="2.8" height="2.8"/>
		
			<rect x="135.8" y="125.9" transform="matrix(-0.8613 -0.5081 0.5081 -0.8613 190.6368 306.6606)" class="st6" width="2.8" height="2.8"/>
		
			<rect x="140.6" y="128.8" transform="matrix(-0.8613 -0.5081 0.5081 -0.8613 198.2611 314.5038)" class="st6" width="2.8" height="2.8"/>
		
			<rect x="144.5" y="127.8" transform="matrix(-0.8613 -0.5081 0.5081 -0.8613 205.9949 314.6132)" class="st6" width="2.8" height="2.8"/>
		
			<rect x="139.6" y="124.9" transform="matrix(-0.8613 -0.5081 0.5081 -0.8613 198.3706 306.77)" class="st6" width="2.8" height="2.8"/>
		
			<rect x="134.8" y="122" transform="matrix(-0.8613 -0.5081 0.5081 -0.8613 190.7462 298.9268)" class="st6" width="2.8" height="2.8"/>
		
			<rect x="138.6" y="121" transform="matrix(-0.8613 -0.5081 0.5081 -0.8613 198.48 299.0363)" class="st6" width="2.8" height="2.8"/>
		
			<rect x="143.5" y="123.9" transform="matrix(-0.8613 -0.5081 0.5081 -0.8613 206.1043 306.8795)" class="st6" width="2.8" height="2.8"/>
		
			<rect x="141.5" y="116.1" transform="matrix(-0.8613 -0.5081 0.5081 -0.8613 206.3232 291.412)" class="st6" width="2.8" height="2.8"/>
		
			<rect x="146.4" y="119" transform="matrix(-0.8613 -0.5081 0.5081 -0.8613 213.9475 299.2551)" class="st6" width="2.8" height="2.8"/>
		
			<rect x="147.4" y="122.9" transform="matrix(-0.8613 -0.5081 0.5081 -0.8613 213.8381 306.9889)" class="st6" width="2.8" height="2.8"/>
		
			<rect x="142.5" y="120" transform="matrix(-0.8613 -0.5081 0.5081 -0.8613 206.2137 299.1457)" class="st6" width="2.8" height="2.8"/>
		
			<rect x="137.6" y="117.1" transform="matrix(-0.8613 -0.5081 0.5081 -0.8613 198.5894 291.3025)" class="st6" width="2.8" height="2.8"/>
		
			<rect x="146" y="125.3" transform="matrix(-0.8613 -0.5081 0.5081 -0.8613 209.9165 310.801)" class="st5" width="2.8" height="2.8"/>
		
			<rect x="141.1" y="122.4" transform="matrix(-0.8613 -0.5081 0.5081 -0.8613 202.2921 302.9579)" class="st5" width="2.8" height="2.8"/>
		
			<rect x="144" y="117.6" transform="matrix(-0.8613 -0.5081 0.5081 -0.8613 210.1353 295.3335)" class="st5" width="2.8" height="2.8"/>
		
			<rect x="136.2" y="119.6" transform="matrix(-0.8613 -0.5081 0.5081 -0.8613 194.6678 295.1147)" class="st5" width="2.8" height="2.8"/>
		
			<rect x="148.8" y="120.4" transform="matrix(-0.8613 -0.5081 0.5081 -0.8613 217.7596 303.1767)" class="st5" width="2.8" height="2.8"/>
		
			<rect x="139.1" y="114.7" transform="matrix(-0.8613 -0.5081 0.5081 -0.8613 202.511 287.4904)" class="st5" width="2.8" height="2.8"/>
	</g>
	<g>
		<g>
			<path class="st6" d="M462.8,426.3c0,1.6-1.3,2.8-2.8,2.8H91.1c-1.6,0-2.8-1.3-2.8-2.8v-24.9c0-1.6,1.3-2.8,2.8-2.8h368.8
				c1.6,0,2.8,1.3,2.8,2.8V426.3z"/>
			<path class="st16" d="M462.8,426.3c0,1.6-1.3,2.8-2.8,2.8H91.1c-1.6,0-2.8-1.3-2.8-2.8v-24.9c0-1.6,1.3-2.8,2.8-2.8h368.8
				c1.6,0,2.8,1.3,2.8,2.8V426.3z"/>
		</g>
		<g>
			<path class="st5" d="M133.8,415.3v2.6c0,1.3-0.6,1.7-1.3,2h-3.3c-0.7-0.3-1.3-0.7-1.3-2v-2h1.8v2.1l0.4,0.4h1.6l0.4-0.4v-2.8
				l-0.3-0.4L129,414c-0.8-0.3-1.1-0.8-1.1-1.9v-2.2c0-1.3,0.6-1.7,1.3-2h3.3c0.7,0.3,1.3,0.7,1.3,2v1.9H132v-2.1l-0.4-0.4h-1.6
				l-0.4,0.4v2.4l0.4,0.4l2.6,0.7C133.4,413.6,133.8,414.1,133.8,415.3z"/>
			<path class="st5" d="M135.1,407.9h5.1v1.6h-3.3v3.4h3.1v1.6h-3.1v3.7h3.4v1.6h-5.2V407.9z"/>
			<path class="st5" d="M147.5,417.9c0,1.3-0.6,1.7-1.3,2h-3.3c-0.7-0.3-1.3-0.7-1.3-2v-8c0-1.3,0.6-1.7,1.3-2h3.3
				c0.7,0.3,1.3,0.7,1.3,2v2.7h-1.8v-2.8l-0.4-0.4h-1.6l-0.4,0.4v8.3l0.4,0.4h1.6l0.4-0.4v-2.7h1.8V417.9z"/>
			<path class="st5" d="M152.2,409.5v10.3h-1.8v-10.3h-2.1v-1.6h6.1v1.6H152.2z"/>
			<path class="st5" d="M161.1,417.9c0,1.3-0.6,1.7-1.3,2h-3.3c-0.7-0.3-1.3-0.7-1.3-2v-8c0-1.3,0.6-1.7,1.3-2h3.3
				c0.7,0.3,1.3,0.7,1.3,2V417.9z M159.3,409.7l-0.4-0.4h-1.6l-0.4,0.4v8.3l0.4,0.4h1.6l0.4-0.4V409.7z"/>
			<path class="st5" d="M162.5,419.8v-12h4.6c0.7,0.3,1.3,0.7,1.3,2v2.6c0,1.3-0.6,1.6-1.3,1.9l-0.3,0.1l2.1,4.3v1.1h-1.6l-2.2-5.1
				h-0.8v5.1H162.5z M164.3,409.4v3.9h2l0.4-0.4v-3.1l-0.4-0.4H164.3z"/>
			<path class="st5" d="M172.6,419.8v-1.6h1.8v-8.7h-1.7v-1.6h3.5v10.4h1.7v1.6H172.6z"/>
		</g>
		<line class="st17" x1="102.5" y1="413.9" x2="123.7" y2="413.9"/>
		<g>
			<path class="st5" d="M223.9,415.3v2.6c0,1.3-0.6,1.7-1.3,2h-3.3c-0.7-0.3-1.3-0.7-1.3-2v-2h1.8v2.1l0.4,0.4h1.6l0.4-0.4v-2.8
				l-0.3-0.4l-2.6-0.8c-0.8-0.3-1.1-0.8-1.1-1.9v-2.2c0-1.3,0.6-1.7,1.3-2h3.3c0.7,0.3,1.3,0.7,1.3,2v1.9h-1.8v-2.1l-0.4-0.4h-1.6
				l-0.4,0.4v2.4l0.4,0.4l2.6,0.7C223.5,413.6,223.9,414.1,223.9,415.3z"/>
			<path class="st5" d="M225.2,407.9h5.1v1.6H227v3.4h3.1v1.6H227v3.7h3.4v1.6h-5.2V407.9z"/>
			<path class="st5" d="M237.6,417.9c0,1.3-0.6,1.7-1.3,2h-3.3c-0.7-0.3-1.3-0.7-1.3-2v-8c0-1.3,0.6-1.7,1.3-2h3.3
				c0.7,0.3,1.3,0.7,1.3,2v2.7h-1.8v-2.8l-0.4-0.4h-1.6l-0.4,0.4v8.3l0.4,0.4h1.6l0.4-0.4v-2.7h1.8V417.9z"/>
			<path class="st5" d="M242.3,409.5v10.3h-1.8v-10.3h-2.1v-1.6h6.1v1.6H242.3z"/>
			<path class="st5" d="M251.2,417.9c0,1.3-0.6,1.7-1.3,2h-3.3c-0.7-0.3-1.3-0.7-1.3-2v-8c0-1.3,0.6-1.7,1.3-2h3.3
				c0.7,0.3,1.3,0.7,1.3,2V417.9z M249.4,409.7l-0.4-0.4h-1.6l-0.4,0.4v8.3l0.4,0.4h1.6l0.4-0.4V409.7z"/>
			<path class="st5" d="M252.6,419.8v-12h4.6c0.7,0.3,1.3,0.7,1.3,2v2.6c0,1.3-0.6,1.6-1.3,1.9l-0.3,0.1l2.1,4.3v1.1h-1.6l-2.2-5.1
				h-0.8v5.1H252.6z M254.4,409.4v3.9h2l0.4-0.4v-3.1l-0.4-0.4H254.4z"/>
			<path class="st5" d="M262.3,419.8v-3.6c0-1.1,0.4-1.7,1.2-2.1l3-1.2v-3.2l-0.4-0.4h-1.7l-0.4,0.4v2h-1.8v-1.9
				c0-1.3,0.6-1.7,1.3-2h3.3c0.7,0.3,1.3,0.7,1.3,2v2.5c0,1.1-0.3,1.7-1.1,2.1l-3,1.2v2.5h4.1v1.6H262.3z"/>
		</g>
		<line class="st18" x1="192.6" y1="413.9" x2="213.8" y2="413.9"/>
		<g>
			<path class="st5" d="M313.7,415.3v2.6c0,1.3-0.6,1.7-1.3,2h-3.3c-0.7-0.3-1.3-0.7-1.3-2v-2h1.8v2.1l0.4,0.4h1.6l0.4-0.4v-2.8
				l-0.3-0.4L309,414c-0.8-0.3-1.1-0.8-1.1-1.9v-2.2c0-1.3,0.6-1.7,1.3-2h3.3c0.7,0.3,1.3,0.7,1.3,2v1.9h-1.8v-2.1l-0.4-0.4H310
				l-0.4,0.4v2.4l0.4,0.4l2.6,0.7C313.4,413.6,313.7,414.1,313.7,415.3z"/>
			<path class="st5" d="M315.1,407.9h5.1v1.6h-3.3v3.4h3.1v1.6h-3.1v3.7h3.4v1.6h-5.2V407.9z"/>
			<path class="st5" d="M327.4,417.9c0,1.3-0.6,1.7-1.3,2h-3.3c-0.7-0.3-1.3-0.7-1.3-2v-8c0-1.3,0.6-1.7,1.3-2h3.3
				c0.7,0.3,1.3,0.7,1.3,2v2.7h-1.8v-2.8l-0.4-0.4h-1.6l-0.4,0.4v8.3l0.4,0.4h1.6l0.4-0.4v-2.7h1.8V417.9z"/>
			<path class="st5" d="M332.1,409.5v10.3h-1.8v-10.3h-2.1v-1.6h6.1v1.6H332.1z"/>
			<path class="st5" d="M341,417.9c0,1.3-0.6,1.7-1.3,2h-3.3c-0.7-0.3-1.3-0.7-1.3-2v-8c0-1.3,0.6-1.7,1.3-2h3.3
				c0.7,0.3,1.3,0.7,1.3,2V417.9z M339.2,409.7l-0.4-0.4h-1.6l-0.4,0.4v8.3l0.4,0.4h1.6l0.4-0.4V409.7z"/>
			<path class="st5" d="M342.4,419.8v-12h4.6c0.7,0.3,1.3,0.7,1.3,2v2.6c0,1.3-0.6,1.6-1.3,1.9l-0.3,0.1l2.1,4.3v1.1h-1.6l-2.2-5.1
				h-0.8v5.1H342.4z M344.2,409.4v3.9h2l0.4-0.4v-3.1l-0.4-0.4H344.2z"/>
			<path class="st5" d="M353.4,419.8c-0.7-0.3-1.3-0.7-1.3-2v-1.7h1.8v1.8l0.4,0.4h1.7l0.4-0.4v-3.2l-0.4-0.3h-1.8V413h1.8l0.4-0.4
				v-3l-0.4-0.4h-1.7l-0.4,0.4v1.8h-1.8v-1.7c0-1.3,0.6-1.7,1.3-2h3.3c0.7,0.3,1.3,0.7,1.3,2v1.9c0,1-0.2,1.5-0.9,1.9
				c0.6,0.4,0.9,0.9,0.9,1.9v2.2c0,1.3-0.6,1.7-1.3,2H353.4z"/>
		</g>
		<line class="st19" x1="282.4" y1="413.9" x2="303.7" y2="413.9"/>
		<g>
			<path class="st5" d="M403.6,417.9c0,1.3-0.6,1.7-1.3,2h-4.6v-12h4.6c0.7,0.3,1.3,0.7,1.3,2V417.9z M399.5,409.4v9h2l0.4-0.4v-8.3
				l-0.4-0.4H399.5z"/>
			<path class="st5" d="M405,419.8v-12h4.6c0.7,0.3,1.3,0.7,1.3,2v2.6c0,1.3-0.6,1.6-1.3,1.9l-0.3,0.1l2.1,4.3v1.1h-1.6l-2.2-5.1
				h-0.8v5.1H405z M406.8,409.4v3.9h2l0.4-0.4v-3.1l-0.4-0.4H406.8z"/>
			<path class="st5" d="M418.1,415.3v2.6c0,1.3-0.6,1.7-1.3,2h-3.3c-0.7-0.3-1.3-0.7-1.3-2v-2h1.8v2.1l0.4,0.4h1.6l0.4-0.4v-2.8
				l-0.3-0.4l-2.6-0.8c-0.8-0.3-1.1-0.8-1.1-1.9v-2.2c0-1.3,0.6-1.7,1.3-2h3.3c0.7,0.3,1.3,0.7,1.3,2v1.9h-1.8v-2.1l-0.4-0.4h-1.6
				l-0.4,0.4v2.4l0.4,0.4l2.6,0.7C417.7,413.6,418.1,414.1,418.1,415.3z"/>
			<path class="st5" d="M425.6,409.5h-3.9v-1.6h5.8v1.5l-4,8.9h4v1.6h-5.9v-1.5L425.6,409.5z"/>
			<path class="st5" d="M434.8,417.9c0,1.3-0.6,1.7-1.3,2h-3.3c-0.7-0.3-1.3-0.7-1.3-2v-8c0-1.3,0.6-1.7,1.3-2h3.3
				c0.7,0.3,1.3,0.7,1.3,2V417.9z M433,409.7l-0.4-0.4H431l-0.4,0.4v8.3l0.4,0.4h1.6l0.4-0.4V409.7z"/>
			<path class="st5" d="M440.5,407.9h1.6v12h-1.6l-2.6-7.1h-0.2v7.1h-1.6v-12h1.6l2.6,7.1h0.2V407.9z"/>
			<path class="st5" d="M443.5,407.9h5.1v1.6h-3.3v3.4h3.1v1.6h-3.1v3.7h3.4v1.6h-5.2V407.9z"/>
		</g>
		<g>
			<g>
				<g>
					<g>
						<line class="st20" x1="373.7" y1="406.5" x2="373.7" y2="421.4"/>
					</g>
					<g>
						<path class="st8" d="M381.3,413.9c0,0.8-0.7,1.4-1.5,1.4c-0.8,0-1.5-0.6-1.5-1.4c0-0.8,0.7-1.4,1.5-1.4
							C380.7,412.5,381.3,413.2,381.3,413.9z"/>
					</g>
					<g>
						<ellipse class="st8" cx="385.9" cy="413.9" rx="1.5" ry="1.4"/>
					</g>
					<g>
						<line class="st20" x1="392" y1="406.5" x2="392" y2="421.4"/>
					</g>
				</g>
			</g>
		</g>
	</g>
	<g>
		<defs>
			
				<rect id="SVGID_00000122722732218403465970000011738032278899938461_" x="161.2" y="76" transform="matrix(-0.5031 0.8642 -0.8642 -0.5031 328.3475 -28.3088)" width="22.3" height="8.5"/>
		</defs>
		<clipPath id="SVGID_00000102544413054619936850000013302071693673042593_">
			<use xlink:href="#SVGID_00000122722732218403465970000011738032278899938461_"  style="overflow:visible;"/>
		</clipPath>
		<g style="clip-path:url(#SVGID_00000102544413054619936850000013302071693673042593_);">
			<polygon class="st22" points="161.2,85.2 162.6,82.8 171.6,81.5 174.9,89.9 173.4,92.4 170.2,83.9 			"/>
			<polygon class="st23" points="164,80.3 165.5,77.9 174.5,76.6 177.7,85 176.3,87.5 173,79 			"/>
			<polygon class="st24" points="166.9,75.4 168.3,73 177.3,71.7 180.6,80.1 179.1,82.6 175.9,74.1 			"/>
		</g>
	</g>
</g>
</svg>
