<?xml version="1.0" encoding="utf-8"?>
<!-- Generator: Adobe Illustrator 27.2.0, SVG Export Plug-In . SVG Version: 6.00 Build 0)  -->
<svg version="1.1" xmlns="http://www.w3.org/2000/svg" xmlns:xlink="http://www.w3.org/1999/xlink" x="0px" y="0px"
	 viewBox="0.0 0.0 550.0 369.4" style="enable-background:new 0 0 550 443.7;" xml:space="preserve">
<style type="text/css">
	.st0{fill:none;stroke:#646464;stroke-width:5.775;stroke-miterlimit:10;}
	.st1{fill:none;stroke:#F4442E;stroke-width:1.155;stroke-miterlimit:10;}
	.st2{fill:none;stroke:#FFD449;stroke-width:1.155;stroke-miterlimit:10;}
	.st3{fill:none;stroke:#54C6EB;stroke-width:1.155;stroke-miterlimit:10;}
	.st4{fill:none;stroke:#FFFFFF;stroke-width:0.866;}
	.st5{fill:#646464;}
	.st6{fill:#FFFFFF;}
	.st7{fill:#09BC8A;}
	.st8{fill:none;stroke:#646464;stroke-width:1.155;stroke-miterlimit:10;}
	.st9{fill:none;stroke:#09BC8A;stroke-width:0.900;stroke-miterlimit:10;}
	.st10{fill:none;stroke:#09BC8A;stroke-width:0.809;stroke-miterlimit:10;}
	.st11{fill:#FF3380;}
	.st12{fill:none;stroke:#FF3380;stroke-width:0.809;stroke-miterlimit:10;}
	.st13{fill:none;stroke:#646464;stroke-width:0.289;stroke-miterlimit:10;}
	.st14{fill:none;stroke:#F4442E;stroke-width:2.310;stroke-miterlimit:10;}
	.st15{fill:none;stroke:#54C6EB;stroke-width:2.310;stroke-miterlimit:10;}
	.st16{fill:none;stroke:#FFD449;stroke-width:2.310;stroke-miterlimit:10;}
	.st17{fill:none;stroke:#09BC8A;stroke-width:1.155;stroke-miterlimit:10;}
	.st18{clip-path:url(#SVGID_00000144325710163204993690000011819298922163627648_);}
	.st19{fill:#F4442E;}
	.st20{fill:#54C6EB;}
	.st21{fill:#FFD449;}
</style>
<g id="コース">
	<path class="st0" d="M466.6,356.7c0,0-351.7,0-368.3,0c-22,0-23.2-18.9-23.2-22c0-3.1,0.2-14.4,14.3-22c14-7.6,39.3-20.4,47.5-25.7
		s10.8-8.3,10.8-19.9c0-11.5-9.5-18.1-17.1-21.5c-7.6-3.4-36.1-18-39.8-20.1c-3.7-2.1-9.2-8.1-11.7-15.4
		C76.4,203,41.5,105.1,39.7,98.8c-1.8-6.4-1.1-18.3,8.9-22.4c10-4.1,27.2-10.4,34.1-12.6s18,1.6,21.6,10.6s23.7,63,25.8,72.3
		c2.9,12.8,21.3,13.4,23.4-0.4c1.5-9.8,9.9-90.4,11.1-99.1c1.2-8.7,7.2-19.4,22.9-18.5c15.7,0.9,18.7,9.3,19,15.5s3,22,10.8,34.8
		s25.9,28.4,30.2,32.4c4.3,4,8.1,9.1,5.9,19.3c-2.2,10.2-11,39.8-12.6,46.4c-1.6,6.6-2.5,13.8,3.7,19.2c7,6.1,27.8,3.6,41-3.6
		c13.3-7.2,42-18.8,63.3-70.5c4.6-11.2,20.3-53.5,23.4-60.8c3.1-7.4,12.8-16.9,25.8-16.9c13,0,34.9,0,40.6,0s11.7,2.3,16,9
		s23.4,40.6,25.5,44.8c3.4,6.9,4.7,13.9,0.5,20.1c-4.2,6.1-55,68.2-58.5,72.4c-4.3,5.3-7.7,13.4-2.3,22.2
		c5.4,8.8,69.7,103.3,72.5,108.1c2.9,4.8,3.6,9.3,3.6,13.6C496.2,340.5,493.2,356.7,466.6,356.7z"/>
</g>
<g id="セクター">
	<path class="st1" d="M250.9,356.7c-76.4,0-145.5,0-152.7,0c-22,0-23.2-18.9-23.2-22c0-3.1,0.2-14.4,14.3-22
		c14-7.6,39.3-20.4,47.5-25.7s10.8-8.3,10.8-19.9c0-11.5-9.5-18.1-17.1-21.5c-7.6-3.4-36.1-18-39.8-20.1c-3.7-2.1-9.2-8.1-11.7-15.4
		C76.4,203,41.5,105.1,39.7,98.8c-1.8-6.4-1.1-18.3,8.9-22.4c10-4.1,27.2-10.4,34.1-12.6s18,1.6,21.6,10.6
		c2.1,5.3,10,26.3,16.6,44.6"/>
	<path class="st2" d="M364.5,81.7c3.6-9.5,6.7-17.5,7.9-20.4c3.1-7.4,12.8-16.9,25.8-16.9c13,0,34.9,0,40.6,0s11.7,2.3,16,9
		s23.4,40.6,25.5,44.8c3.4,6.9,4.7,13.9,0.5,20.1c-4.2,6.1-55,68.2-58.5,72.4c-4.3,5.3-7.7,13.4-2.3,22.2
		c5.4,8.8,69.7,103.3,72.5,108.1c2.9,4.8,3.6,9.3,3.6,13.6c0,5.8-3,22.1-29.6,22.1c0,0-114.3,0-215.6,0"/>
	<path class="st3" d="M120.9,119c4.5,12.6,8.4,23.9,9.2,27.8c2.9,12.8,21.3,13.4,23.4-0.4c1.5-9.8,9.9-90.4,11.1-99.1
		c1.2-8.7,7.2-19.4,22.9-18.5c15.7,0.9,18.7,9.3,19,15.5s3,22,10.8,34.8s25.9,28.4,30.2,32.4c4.3,4,8.1,9.1,5.9,19.3
		c-2.2,10.2-11,39.8-12.6,46.4c-1.6,6.6-2.5,13.8,3.7,19.2c7,6.1,27.8,3.6,41-3.6c13.3-7.2,42-18.8,63.3-70.5
		c2.8-6.9,9.8-25.4,15.5-40.4"/>
</g>
<g id="コーナー番号">
	<g>
		<g>
			
			
		</g>
		<g>
			
		</g>
	</g>
	<g>
		<g>
			
			
		</g>
		<g>
			
		</g>
	</g>
	<g>
		<g>
			
			
		</g>
		<g>
			
		</g>
	</g>
	<g>
		<g>
			
			
		</g>
		<g>
			
		</g>
	</g>
	<g>
		<g>
			
			
		</g>
		<g>
			
		</g>
	</g>
	<g>
		<g>
			
			
		</g>
		<g>
			
		</g>
	</g>
	<g>
		<g>
			
			
		</g>
		<g>
			
		</g>
	</g>
	<g>
		<g>
			
			
		</g>
		<g>
			
		</g>
	</g>
	<g>
		<g>
			
			
		</g>
		<g>
			
		</g>
	</g>
	<g>
		<g>
			
			
		</g>
		<g>
			
			
		</g>
	</g>
	<g>
		<g>
			
			
		</g>
		<g>
			
			
		</g>
	</g>
	<g>
		<g>
			
			
		</g>
		<g>
			
			
		</g>
	</g>
	<g>
		<g>
			
			
		</g>
		<g>
			
			
		</g>
	</g>
	<g>
		<g>
			
			
		</g>
		<g>
			
			
		</g>
	</g>
	<g>
		<g>
			
			
		</g>
		<g>
			
			
		</g>
	</g>
	<g>
		<g>
			
			
		</g>
		<g>
			
			
		</g>
	</g>
</g>



</svg>
