<?xml version="1.0" encoding="utf-8"?>
<!-- Generator: Adobe Illustrator 27.2.0, SVG Export Plug-In . SVG Version: 6.00 Build 0)  -->
<svg version="1.1" xmlns="http://www.w3.org/2000/svg" xmlns:xlink="http://www.w3.org/1999/xlink" x="0px" y="0px"
	 viewBox="0 0 550 403" style="enable-background:new 0 0 550 443.7;" xml:space="preserve">
<style type="text/css">
	.st0{fill:none;stroke:#646464;stroke-width:14.1732;stroke-miterlimit:10;}
	.st1{fill:none;stroke:#F4442E;stroke-width:2.8346;stroke-miterlimit:10;}
	.st2{fill:none;stroke:#FFD449;stroke-width:2.8346;stroke-miterlimit:10;}
	.st3{fill:none;stroke:#54C6EB;stroke-width:2.8346;stroke-miterlimit:10;}
	.st4{fill:none;stroke:#FFFFFF;stroke-width:2.126;}
	.st5{fill:#646464;}
	.st6{fill:#FFFFFF;}
	.st7{fill:#09BC8A;}
	.st8{fill:none;stroke:#646464;stroke-width:2.8346;stroke-miterlimit:10;}
	.st9{fill:none;stroke:#09BC8A;stroke-width:2.2097;stroke-miterlimit:10;}
	.st10{fill:none;stroke:#09BC8A;stroke-width:1.9843;stroke-miterlimit:10;}
	.st11{fill:#FF3380;}
	.st12{fill:none;stroke:#FF3380;stroke-width:1.9843;stroke-miterlimit:10;}
	.st13{fill:none;stroke:#646464;stroke-width:0.7087;stroke-miterlimit:10;}
	.st14{fill:none;stroke:#F4442E;stroke-width:5.6693;stroke-miterlimit:10;}
	.st15{fill:none;stroke:#54C6EB;stroke-width:5.6693;stroke-miterlimit:10;}
	.st16{fill:none;stroke:#FFD449;stroke-width:5.6693;stroke-miterlimit:10;}
	.st17{fill:none;stroke:#09BC8A;stroke-width:2.8346;stroke-miterlimit:10;}
	.st18{clip-path:url(#SVGID_00000144325710163204993690000011819298922163627648_);}
	.st19{fill:#F4442E;}
	.st20{fill:#54C6EB;}
	.st21{fill:#FFD449;}
</style>
<g id="コース">
	<path class="st0" d="M466.6,356.7c0,0-351.7,0-368.3,0c-22,0-23.2-18.9-23.2-22c0-3.1,0.2-14.4,14.3-22c14-7.6,39.3-20.4,47.5-25.7
		s10.8-8.3,10.8-19.9c0-11.5-9.5-18.1-17.1-21.5c-7.6-3.4-36.1-18-39.8-20.1c-3.7-2.1-9.2-8.1-11.7-15.4
		C76.4,203,41.5,105.1,39.7,98.8c-1.8-6.4-1.1-18.3,8.9-22.4c10-4.1,27.2-10.4,34.1-12.6s18,1.6,21.6,10.6s23.7,63,25.8,72.3
		c2.9,12.8,21.3,13.4,23.4-0.4c1.5-9.8,9.9-90.4,11.1-99.1c1.2-8.7,7.2-19.4,22.9-18.5c15.7,0.9,18.7,9.3,19,15.5s3,22,10.8,34.8
		s25.9,28.4,30.2,32.4c4.3,4,8.1,9.1,5.9,19.3c-2.2,10.2-11,39.8-12.6,46.4c-1.6,6.6-2.5,13.8,3.7,19.2c7,6.1,27.8,3.6,41-3.6
		c13.3-7.2,42-18.8,63.3-70.5c4.6-11.2,20.3-53.5,23.4-60.8c3.1-7.4,12.8-16.9,25.8-16.9c13,0,34.9,0,40.6,0s11.7,2.3,16,9
		s23.4,40.6,25.5,44.8c3.4,6.9,4.7,13.9,0.5,20.1c-4.2,6.1-55,68.2-58.5,72.4c-4.3,5.3-7.7,13.4-2.3,22.2
		c5.4,8.8,69.7,103.3,72.5,108.1c2.9,4.8,3.6,9.3,3.6,13.6C496.2,340.5,493.2,356.7,466.6,356.7z"/>
</g>
<g id="セクター">
	<path class="st1" d="M250.9,356.7c-76.4,0-145.5,0-152.7,0c-22,0-23.2-18.9-23.2-22c0-3.1,0.2-14.4,14.3-22
		c14-7.6,39.3-20.4,47.5-25.7s10.8-8.3,10.8-19.9c0-11.5-9.5-18.1-17.1-21.5c-7.6-3.4-36.1-18-39.8-20.1c-3.7-2.1-9.2-8.1-11.7-15.4
		C76.4,203,41.5,105.1,39.7,98.8c-1.8-6.4-1.1-18.3,8.9-22.4c10-4.1,27.2-10.4,34.1-12.6s18,1.6,21.6,10.6
		c2.1,5.3,10,26.3,16.6,44.6"/>
	<path class="st2" d="M364.5,81.7c3.6-9.5,6.7-17.5,7.9-20.4c3.1-7.4,12.8-16.9,25.8-16.9c13,0,34.9,0,40.6,0s11.7,2.3,16,9
		s23.4,40.6,25.5,44.8c3.4,6.9,4.7,13.9,0.5,20.1c-4.2,6.1-55,68.2-58.5,72.4c-4.3,5.3-7.7,13.4-2.3,22.2
		c5.4,8.8,69.7,103.3,72.5,108.1c2.9,4.8,3.6,9.3,3.6,13.6c0,5.8-3,22.1-29.6,22.1c0,0-114.3,0-215.6,0"/>
	<path class="st3" d="M120.9,119c4.5,12.6,8.4,23.9,9.2,27.8c2.9,12.8,21.3,13.4,23.4-0.4c1.5-9.8,9.9-90.4,11.1-99.1
		c1.2-8.7,7.2-19.4,22.9-18.5c15.7,0.9,18.7,9.3,19,15.5s3,22,10.8,34.8s25.9,28.4,30.2,32.4c4.3,4,8.1,9.1,5.9,19.3
		c-2.2,10.2-11,39.8-12.6,46.4c-1.6,6.6-2.5,13.8,3.7,19.2c7,6.1,27.8,3.6,41-3.6c13.3-7.2,42-18.8,63.3-70.5
		c2.8-6.9,9.8-25.4,15.5-40.4"/>
</g>
<g id="コーナー番号">
	<g>
		<g>
			<circle class="st4" cx="54" cy="344" r="8.5"/>
			<circle class="st5" cx="54" cy="344" r="8.5"/>
		</g>
		<g>
			<path class="st6" d="M52.3,347.9v-1.6h1v-4.5h-0.9v-1.6h2.6v6.1h0.9v1.6H52.3z"/>
		</g>
	</g>
	<g>
		<g>
			<circle class="st4" cx="168.6" cy="268.1" r="8.5"/>
			<circle class="st5" cx="168.6" cy="268.1" r="8.5"/>
		</g>
		<g>
			<path class="st6" d="M166.5,272v-2.6c0-0.6,0.1-1,0.6-1.2l1.9-0.8v-1.6l-0.1-0.1h-0.5l-0.1,0.1v1.1h-1.7v-1.3
				c0-0.8,0.4-1.1,0.8-1.3h2.5c0.5,0.2,0.8,0.5,0.8,1.3v1.9c0,0.6-0.1,0.9-0.6,1.2l-1.9,0.8v0.9h2.4v1.6H166.5z"/>
		</g>
	</g>
	<g>
		<g>
			<circle class="st4" cx="68.6" cy="236.7" r="8.5"/>
			<circle class="st5" cx="68.6" cy="236.7" r="8.5"/>
		</g>
		<g>
			<path class="st6" d="M67.3,240.5c-0.5-0.2-0.8-0.5-0.8-1.3v-1h1.7v0.8l0.1,0.1h0.5L69,239v-1.6l-0.1-0.1h-1V236h1l0.1-0.1v-1.5
				l-0.1-0.1h-0.5l-0.1,0.1v0.8h-1.7v-1c0-0.8,0.4-1.1,0.8-1.3h2.5c0.5,0.2,0.8,0.5,0.8,1.3v1.3c0,0.6-0.2,0.9-0.6,1.2
				c0.4,0.3,0.6,0.6,0.6,1.2v1.4c0,0.8-0.4,1.1-0.8,1.3H67.3z"/>
		</g>
	</g>
	<g>
		<g>
			<circle class="st4" cx="19.3" cy="80.3" r="8.5"/>
			<circle class="st5" cx="19.3" cy="80.3" r="8.5"/>
		</g>
		<g>
			<path class="st6" d="M21,82.7v1.5h-1.7v-1.5H17v-1.5l1.6-4.7h1.7l-1.6,4.6h0.5v-0.4l0.4-1H21v1.4h0.5v1.6H21z"/>
		</g>
	</g>
	<g>
		<g>
			<circle class="st4" cx="105.8" cy="44.7" r="8.5"/>
			<circle class="st5" cx="105.8" cy="44.7" r="8.5"/>
		</g>
		<g>
			<path class="st6" d="M104.6,48.6c-0.5-0.2-0.8-0.5-0.8-1.3v-1h1.6v0.8l0.1,0.1h0.6l0.1-0.1V45l-0.1-0.1h-0.6l-0.1,0.1v0.4h-1.6
				v-4.5h4v1.5h-2.4v1.6l0.4-0.4h1.3c0.5,0.2,0.8,0.5,0.8,1.3v2.4c0,0.8-0.4,1.1-0.8,1.3H104.6z"/>
		</g>
	</g>
	<g>
		<g>
			<circle class="st4" cx="148" cy="176.7" r="8.5"/>
			<circle class="st5" cx="148" cy="176.7" r="8.5"/>
		</g>
		<g>
			<path class="st6" d="M149.2,180.6h-2.5c-0.5-0.2-0.8-0.5-0.8-1.3v-5.1c0-0.8,0.4-1.1,0.8-1.3h2.5c0.5,0.2,0.8,0.5,0.8,1.3v1h-1.7
				v-0.8l-0.1-0.1h-0.5l-0.1,0.1v1.8l0.3-0.3h1.3c0.5,0.2,0.8,0.5,0.8,1.3v2.2C150,180.1,149.7,180.4,149.2,180.6z M148.2,179.2
				l0.1-0.1v-1.8l-0.1-0.1h-0.5l-0.1,0.1v1.8l0.1,0.1H148.2z"/>
		</g>
	</g>
	<g>
		<g>
			<circle class="st4" cx="186.5" cy="10.6" r="8.5"/>
			<circle class="st5" cx="186.5" cy="10.6" r="8.5"/>
		</g>
		<g>
			<path class="st6" d="M184.7,14.5l2.1-6.2h-2.4V6.8h4.1V8l-2.1,6.5H184.7z"/>
		</g>
	</g>
	<g>
		<g>
			<circle class="st4" cx="203.7" cy="92.7" r="8.5"/>
			<circle class="st5" cx="203.7" cy="92.7" r="8.5"/>
		</g>
		<g>
			<path class="st6" d="M202.4,96.6c-0.5-0.2-0.8-0.5-0.8-1.3v-1.4c0-0.6,0.2-0.9,0.6-1.2c-0.4-0.3-0.6-0.6-0.6-1.2v-1.3
				c0-0.8,0.4-1.1,0.8-1.3h2.5c0.5,0.2,0.8,0.5,0.8,1.3v1.3c0,0.6-0.2,0.9-0.6,1.2c0.4,0.3,0.6,0.6,0.6,1.2v1.4
				c0,0.8-0.4,1.1-0.8,1.3H202.4z M203.3,91.9l0.1,0.1h0.5l0.1-0.1v-1.5l-0.1-0.1h-0.5l-0.1,0.1V91.9z M204,95.1v-1.6l-0.1-0.1h-0.5
				l-0.1,0.1v1.6l0.1,0.1h0.5L204,95.1z"/>
		</g>
	</g>
	<g>
		<g>
			<circle class="st4" cx="272.6" cy="115.1" r="8.5"/>
			<circle class="st5" cx="272.6" cy="115.1" r="8.5"/>
		</g>
		<g>
			<path class="st6" d="M271.3,118.9c-0.5-0.2-0.8-0.5-0.8-1.3v-1h1.7v0.8l0.1,0.1h0.5l0.1-0.1v-1.8l-0.3,0.3h-1.3
				c-0.5-0.2-0.8-0.5-0.8-1.3v-2.2c0-0.8,0.4-1.1,0.8-1.3h2.5c0.5,0.2,0.8,0.5,0.8,1.3v5.1c0,0.8-0.4,1.1-0.8,1.3H271.3z M273,114.6
				v-1.8l-0.1-0.1h-0.5l-0.1,0.1v1.8l0.1,0.1h0.5L273,114.6z"/>
		</g>
	</g>
	<g>
		<g>
			<circle class="st4" cx="370.5" cy="34.4" r="8.5"/>
			<circle class="st5" cx="370.5" cy="34.4" r="8.5"/>
		</g>
		<g>
			<path class="st6" d="M366.4,38.3v-1.6h1v-4.5h-0.9v-1.6h2.6v6.1h0.9v1.6H366.4z"/>
			<path class="st6" d="M370.7,38.3v-2.6c0-0.6,0.1-1,0.6-1.2l1.9-0.8v-1.6l-0.1-0.1h-0.5l-0.1,0.1v1.1h-1.7v-1.3
				c0-0.8,0.4-1.1,0.8-1.3h2.5c0.5,0.2,0.8,0.5,0.8,1.3v1.9c0,0.6-0.1,0.9-0.6,1.2l-1.9,0.8v0.9h2.4v1.6H370.7z"/>
		</g>
	</g>
	<g>
		<g>
			<circle class="st4" cx="459.2" cy="29.1" r="8.5"/>
			<circle class="st5" cx="459.2" cy="29.1" r="8.5"/>
		</g>
		<g>
			<path class="st6" d="M455.1,33v-1.6h1v-4.5h-0.9v-1.6h2.6v6.1h0.9V33H455.1z"/>
			<path class="st6" d="M460.3,33c-0.5-0.2-0.8-0.5-0.8-1.3v-1h1.7v0.8l0.1,0.1h0.5l0.1-0.1v-1.6l-0.1-0.1h-1v-1.3h1l0.1-0.1v-1.5
				l-0.1-0.1h-0.5l-0.1,0.1v0.8h-1.7v-1c0-0.8,0.4-1.1,0.8-1.3h2.5c0.5,0.2,0.8,0.5,0.8,1.3v1.3c0,0.6-0.2,0.9-0.6,1.2
				c0.4,0.3,0.6,0.6,0.6,1.2v1.4c0,0.8-0.4,1.1-0.8,1.3H460.3z"/>
		</g>
	</g>
	<g>
		<g>
			<circle class="st4" cx="501.2" cy="117.9" r="8.5"/>
			<circle class="st5" cx="501.2" cy="117.9" r="8.5"/>
		</g>
		<g>
			<path class="st6" d="M497.2,121.8v-1.6h1v-4.5h-0.9v-1.6h2.6v6.1h0.9v1.6H497.2z"/>
			<path class="st6" d="M505.2,120.3v1.5h-1.7v-1.5h-2.2v-1.5l1.6-4.7h1.7l-1.6,4.6h0.5v-0.4l0.4-1h1.3v1.4h0.5v1.6H505.2z"/>
		</g>
	</g>
	<g>
		<g>
			<circle class="st4" cx="397.5" cy="203.1" r="8.5"/>
			<circle class="st5" cx="397.5" cy="203.1" r="8.5"/>
		</g>
		<g>
			<path class="st6" d="M393.5,207v-1.6h1v-4.5h-0.9v-1.6h2.6v6.1h0.9v1.6H393.5z"/>
			<path class="st6" d="M398.6,207c-0.5-0.2-0.8-0.5-0.8-1.3v-1h1.6v0.8l0.1,0.1h0.6l0.1-0.1v-2.1l-0.1-0.1h-0.6l-0.1,0.1v0.4h-1.6
				v-4.5h4v1.5h-2.4v1.6l0.4-0.4h1.3c0.5,0.2,0.8,0.5,0.8,1.3v2.4c0,0.8-0.4,1.1-0.8,1.3H398.6z"/>
		</g>
	</g>
	<g>
		<g>
			<circle class="st4" cx="509.7" cy="355.5" r="8.5"/>
			<circle class="st5" cx="509.7" cy="355.5" r="8.5"/>
		</g>
		<g>
			<path class="st6" d="M505.7,359.4v-1.6h1v-4.5h-0.9v-1.6h2.6v6.1h0.9v1.6H505.7z"/>
			<path class="st6" d="M513.3,359.4h-2.5c-0.5-0.2-0.8-0.5-0.8-1.3V353c0-0.8,0.4-1.1,0.8-1.3h2.5c0.5,0.2,0.8,0.5,0.8,1.3v1h-1.7
				v-0.8l-0.1-0.1h-0.5l-0.1,0.1v1.8l0.3-0.3h1.3c0.5,0.2,0.8,0.5,0.8,1.3v2.2C514.1,358.9,513.8,359.2,513.3,359.4z M512.3,358
				l0.1-0.1v-1.8l-0.1-0.1h-0.5l-0.1,0.1v1.8l0.1,0.1H512.3z"/>
		</g>
	</g>
	<g>
		<g>
			<circle class="st4" cx="233.4" cy="212.7" r="8.5"/>
			<circle class="st5" cx="233.4" cy="212.7" r="8.5"/>
		</g>
		<g>
			<path class="st6" d="M229.4,216.6V215h1v-4.5h-0.9v-1.6h2.6v6.1h0.9v1.6H229.4z"/>
			<path class="st6" d="M237,216.6h-2.5c-0.5-0.2-0.8-0.5-0.8-1.3v-5.1c0-0.8,0.4-1.1,0.8-1.3h2.5c0.5,0.2,0.8,0.5,0.8,1.3v5.1
				C237.9,216.1,237.5,216.4,237,216.6z M236.1,210.4l-0.1-0.1h-0.5l-0.1,0.1v4.7l0.1,0.1h0.5l0.1-0.1V210.4z"/>
		</g>
	</g>
	<g>
		<g>
			<circle class="st4" cx="314" cy="200.6" r="8.5"/>
			<circle class="st5" cx="314" cy="200.6" r="8.5"/>
		</g>
		<g>
			<path class="st6" d="M310,204.5v-1.6h1v-4.5h-0.9v-1.6h2.6v6.1h0.9v1.6H310z"/>
			<path class="st6" d="M314.7,204.5v-1.6h1v-4.5h-0.9v-1.6h2.6v6.1h0.9v1.6H314.7z"/>
		</g>
	</g>
</g>


<g id="アイコン">
	<g>
		<rect x="243.8" y="331.2" class="st5" width="2.8" height="2.8"/>
		<rect x="249.5" y="331.2" class="st5" width="2.8" height="2.8"/>
		<rect x="246.7" y="334" class="st5" width="2.8" height="2.8"/>
		<rect x="252.3" y="334" class="st5" width="2.8" height="2.8"/>
		<rect x="246.7" y="339.7" class="st5" width="2.8" height="2.8"/>
		<rect x="252.3" y="339.7" class="st5" width="2.8" height="2.8"/>
		<rect x="255.2" y="331.2" class="st5" width="2.8" height="2.8"/>
		<rect x="252.3" y="331.2" class="st6" width="2.8" height="2.8"/>
		<rect x="246.7" y="331.2" class="st6" width="2.8" height="2.8"/>
		<rect x="243.8" y="334" class="st6" width="2.8" height="2.8"/>
		<rect x="249.5" y="334" class="st6" width="2.8" height="2.8"/>
		<rect x="255.2" y="334" class="st6" width="2.8" height="2.8"/>
		<rect x="252.3" y="336.9" class="st6" width="2.8" height="2.8"/>
		<rect x="246.7" y="336.9" class="st6" width="2.8" height="2.8"/>
		<rect x="252.3" y="342.5" class="st6" width="2.8" height="2.8"/>
		<rect x="246.7" y="342.5" class="st6" width="2.8" height="2.8"/>
		<rect x="243.8" y="339.7" class="st6" width="2.8" height="2.8"/>
		<rect x="249.5" y="339.7" class="st6" width="2.8" height="2.8"/>
		<rect x="255.2" y="339.7" class="st6" width="2.8" height="2.8"/>
		<rect x="243.8" y="336.9" class="st5" width="2.8" height="2.8"/>
		<rect x="249.5" y="336.9" class="st5" width="2.8" height="2.8"/>
		<rect x="249.5" y="342.5" class="st5" width="2.8" height="2.8"/>
		<rect x="255.2" y="336.9" class="st5" width="2.8" height="2.8"/>
		<rect x="243.8" y="342.5" class="st5" width="2.8" height="2.8"/>
		<rect x="255.2" y="342.5" class="st5" width="2.8" height="2.8"/>
	</g>
	<g>
		<g>
			<path class="st6" d="M462.8,426.3c0,1.6-1.3,2.8-2.8,2.8H91.1c-1.6,0-2.8-1.3-2.8-2.8v-24.9c0-1.6,1.3-2.8,2.8-2.8h368.8
				c1.6,0,2.8,1.3,2.8,2.8V426.3z"/>
			<path class="st13" d="M462.8,426.3c0,1.6-1.3,2.8-2.8,2.8H91.1c-1.6,0-2.8-1.3-2.8-2.8v-24.9c0-1.6,1.3-2.8,2.8-2.8h368.8
				c1.6,0,2.8,1.3,2.8,2.8V426.3z"/>
		</g>
		<g>
			<path class="st5" d="M133.8,415.3v2.6c0,1.3-0.6,1.7-1.3,2h-3.3c-0.7-0.3-1.3-0.7-1.3-2v-2h1.8v2.1l0.4,0.4h1.6l0.4-0.4v-2.8
				l-0.3-0.4L129,414c-0.8-0.3-1.1-0.8-1.1-1.9v-2.2c0-1.3,0.6-1.7,1.3-2h3.3c0.7,0.3,1.3,0.7,1.3,2v1.9H132v-2.1l-0.4-0.4h-1.6
				l-0.4,0.4v2.4l0.4,0.4l2.6,0.7C133.4,413.6,133.8,414.1,133.8,415.3z"/>
			<path class="st5" d="M135.1,407.9h5.1v1.6h-3.3v3.4h3.1v1.6h-3.1v3.7h3.4v1.6h-5.2V407.9z"/>
			<path class="st5" d="M147.5,417.9c0,1.3-0.6,1.7-1.3,2h-3.3c-0.7-0.3-1.3-0.7-1.3-2v-8c0-1.3,0.6-1.7,1.3-2h3.3
				c0.7,0.3,1.3,0.7,1.3,2v2.7h-1.8v-2.8l-0.4-0.4h-1.6l-0.4,0.4v8.3l0.4,0.4h1.6l0.4-0.4v-2.7h1.8V417.9z"/>
			<path class="st5" d="M152.2,409.5v10.3h-1.8v-10.3h-2.1v-1.6h6.1v1.6H152.2z"/>
			<path class="st5" d="M161.1,417.9c0,1.3-0.6,1.7-1.3,2h-3.3c-0.7-0.3-1.3-0.7-1.3-2v-8c0-1.3,0.6-1.7,1.3-2h3.3
				c0.7,0.3,1.3,0.7,1.3,2V417.9z M159.3,409.7l-0.4-0.4h-1.6l-0.4,0.4v8.3l0.4,0.4h1.6l0.4-0.4V409.7z"/>
			<path class="st5" d="M162.5,419.8v-12h4.6c0.7,0.3,1.3,0.7,1.3,2v2.6c0,1.3-0.6,1.6-1.3,1.9l-0.3,0.1l2.1,4.3v1.1h-1.6l-2.2-5.1
				h-0.8v5.1H162.5z M164.3,409.4v3.9h2l0.4-0.4v-3.1l-0.4-0.4H164.3z"/>
			<path class="st5" d="M172.6,419.8v-1.6h1.8v-8.7h-1.7v-1.6h3.5v10.4h1.7v1.6H172.6z"/>
		</g>
		<line class="st14" x1="102.5" y1="413.9" x2="123.7" y2="413.9"/>
		<g>
			<path class="st5" d="M223.9,415.3v2.6c0,1.3-0.6,1.7-1.3,2h-3.3c-0.7-0.3-1.3-0.7-1.3-2v-2h1.8v2.1l0.4,0.4h1.6l0.4-0.4v-2.8
				l-0.3-0.4l-2.6-0.8c-0.8-0.3-1.1-0.8-1.1-1.9v-2.2c0-1.3,0.6-1.7,1.3-2h3.3c0.7,0.3,1.3,0.7,1.3,2v1.9h-1.8v-2.1l-0.4-0.4h-1.6
				l-0.4,0.4v2.4l0.4,0.4l2.6,0.7C223.5,413.6,223.9,414.1,223.9,415.3z"/>
			<path class="st5" d="M225.2,407.9h5.1v1.6H227v3.4h3.1v1.6H227v3.7h3.4v1.6h-5.2V407.9z"/>
			<path class="st5" d="M237.6,417.9c0,1.3-0.6,1.7-1.3,2h-3.3c-0.7-0.3-1.3-0.7-1.3-2v-8c0-1.3,0.6-1.7,1.3-2h3.3
				c0.7,0.3,1.3,0.7,1.3,2v2.7h-1.8v-2.8l-0.4-0.4h-1.6l-0.4,0.4v8.3l0.4,0.4h1.6l0.4-0.4v-2.7h1.8V417.9z"/>
			<path class="st5" d="M242.3,409.5v10.3h-1.8v-10.3h-2.1v-1.6h6.1v1.6H242.3z"/>
			<path class="st5" d="M251.2,417.9c0,1.3-0.6,1.7-1.3,2h-3.3c-0.7-0.3-1.3-0.7-1.3-2v-8c0-1.3,0.6-1.7,1.3-2h3.3
				c0.7,0.3,1.3,0.7,1.3,2V417.9z M249.4,409.7l-0.4-0.4h-1.6l-0.4,0.4v8.3l0.4,0.4h1.6l0.4-0.4V409.7z"/>
			<path class="st5" d="M252.6,419.8v-12h4.6c0.7,0.3,1.3,0.7,1.3,2v2.6c0,1.3-0.6,1.6-1.3,1.9l-0.3,0.1l2.1,4.3v1.1h-1.6l-2.2-5.1
				h-0.8v5.1H252.6z M254.4,409.4v3.9h2l0.4-0.4v-3.1l-0.4-0.4H254.4z"/>
			<path class="st5" d="M262.3,419.8v-3.6c0-1.1,0.4-1.7,1.2-2.1l3-1.2v-3.2l-0.4-0.4h-1.7l-0.4,0.4v2h-1.8v-1.9
				c0-1.3,0.6-1.7,1.3-2h3.3c0.7,0.3,1.3,0.7,1.3,2v2.5c0,1.1-0.3,1.7-1.1,2.1l-3,1.2v2.5h4.1v1.6H262.3z"/>
		</g>
		<line class="st15" x1="192.6" y1="413.9" x2="213.8" y2="413.9"/>
		<g>
			<path class="st5" d="M313.7,415.3v2.6c0,1.3-0.6,1.7-1.3,2h-3.3c-0.7-0.3-1.3-0.7-1.3-2v-2h1.8v2.1l0.4,0.4h1.6l0.4-0.4v-2.8
				l-0.3-0.4L309,414c-0.8-0.3-1.1-0.8-1.1-1.9v-2.2c0-1.3,0.6-1.7,1.3-2h3.3c0.7,0.3,1.3,0.7,1.3,2v1.9h-1.8v-2.1l-0.4-0.4H310
				l-0.4,0.4v2.4l0.4,0.4l2.6,0.7C313.4,413.6,313.7,414.1,313.7,415.3z"/>
			<path class="st5" d="M315.1,407.9h5.1v1.6h-3.3v3.4h3.1v1.6h-3.1v3.7h3.4v1.6h-5.2V407.9z"/>
			<path class="st5" d="M327.4,417.9c0,1.3-0.6,1.7-1.3,2h-3.3c-0.7-0.3-1.3-0.7-1.3-2v-8c0-1.3,0.6-1.7,1.3-2h3.3
				c0.7,0.3,1.3,0.7,1.3,2v2.7h-1.8v-2.8l-0.4-0.4h-1.6l-0.4,0.4v8.3l0.4,0.4h1.6l0.4-0.4v-2.7h1.8V417.9z"/>
			<path class="st5" d="M332.1,409.5v10.3h-1.8v-10.3h-2.1v-1.6h6.1v1.6H332.1z"/>
			<path class="st5" d="M341,417.9c0,1.3-0.6,1.7-1.3,2h-3.3c-0.7-0.3-1.3-0.7-1.3-2v-8c0-1.3,0.6-1.7,1.3-2h3.3
				c0.7,0.3,1.3,0.7,1.3,2V417.9z M339.2,409.7l-0.4-0.4h-1.6l-0.4,0.4v8.3l0.4,0.4h1.6l0.4-0.4V409.7z"/>
			<path class="st5" d="M342.4,419.8v-12h4.6c0.7,0.3,1.3,0.7,1.3,2v2.6c0,1.3-0.6,1.6-1.3,1.9l-0.3,0.1l2.1,4.3v1.1h-1.6l-2.2-5.1
				h-0.8v5.1H342.4z M344.2,409.4v3.9h2l0.4-0.4v-3.1l-0.4-0.4H344.2z"/>
			<path class="st5" d="M353.4,419.8c-0.7-0.3-1.3-0.7-1.3-2v-1.7h1.8v1.8l0.4,0.4h1.7l0.4-0.4v-3.2l-0.4-0.3h-1.8V413h1.8l0.4-0.4
				v-3l-0.4-0.4h-1.7l-0.4,0.4v1.8h-1.8v-1.7c0-1.3,0.6-1.7,1.3-2h3.3c0.7,0.3,1.3,0.7,1.3,2v1.9c0,1-0.2,1.5-0.9,1.9
				c0.6,0.4,0.9,0.9,0.9,1.9v2.2c0,1.3-0.6,1.7-1.3,2H353.4z"/>
		</g>
		<line class="st16" x1="282.4" y1="413.9" x2="303.7" y2="413.9"/>
		<g>
			<path class="st5" d="M403.6,417.9c0,1.3-0.6,1.7-1.3,2h-4.6v-12h4.6c0.7,0.3,1.3,0.7,1.3,2V417.9z M399.5,409.4v9h2l0.4-0.4v-8.3
				l-0.4-0.4H399.5z"/>
			<path class="st5" d="M405,419.8v-12h4.6c0.7,0.3,1.3,0.7,1.3,2v2.6c0,1.3-0.6,1.6-1.3,1.9l-0.3,0.1l2.1,4.3v1.1h-1.6l-2.2-5.1
				h-0.8v5.1H405z M406.8,409.4v3.9h2l0.4-0.4v-3.1l-0.4-0.4H406.8z"/>
			<path class="st5" d="M418.1,415.3v2.6c0,1.3-0.6,1.7-1.3,2h-3.3c-0.7-0.3-1.3-0.7-1.3-2v-2h1.8v2.1l0.4,0.4h1.6l0.4-0.4v-2.8
				l-0.3-0.4l-2.6-0.8c-0.8-0.3-1.1-0.8-1.1-1.9v-2.2c0-1.3,0.6-1.7,1.3-2h3.3c0.7,0.3,1.3,0.7,1.3,2v1.9h-1.8v-2.1l-0.4-0.4h-1.6
				l-0.4,0.4v2.4l0.4,0.4l2.6,0.7C417.7,413.6,418.1,414.1,418.1,415.3z"/>
			<path class="st5" d="M425.6,409.5h-3.9v-1.6h5.8v1.5l-4,8.9h4v1.6h-5.9v-1.5L425.6,409.5z"/>
			<path class="st5" d="M434.8,417.9c0,1.3-0.6,1.7-1.3,2h-3.3c-0.7-0.3-1.3-0.7-1.3-2v-8c0-1.3,0.6-1.7,1.3-2h3.3
				c0.7,0.3,1.3,0.7,1.3,2V417.9z M433,409.7l-0.4-0.4H431l-0.4,0.4v8.3l0.4,0.4h1.6l0.4-0.4V409.7z"/>
			<path class="st5" d="M440.5,407.9h1.6v12h-1.6l-2.6-7.1h-0.2v7.1h-1.6v-12h1.6l2.6,7.1h0.2V407.9z"/>
			<path class="st5" d="M443.5,407.9h5.1v1.6h-3.3v3.4h3.1v1.6h-3.1v3.7h3.4v1.6h-5.2V407.9z"/>
		</g>
		<g>
			<g>
				<g>
					<g>
						<line class="st17" x1="373.7" y1="406.5" x2="373.7" y2="421.4"/>
					</g>
					<g>
						<path class="st7" d="M381.3,413.9c0,0.8-0.7,1.4-1.5,1.4c-0.8,0-1.5-0.6-1.5-1.4c0-0.8,0.7-1.4,1.5-1.4
							C380.7,412.5,381.3,413.2,381.3,413.9z"/>
					</g>
					<g>
						<ellipse class="st7" cx="385.9" cy="413.9" rx="1.5" ry="1.4"/>
					</g>
					<g>
						<line class="st17" x1="392" y1="406.5" x2="392" y2="421.4"/>
					</g>
				</g>
			</g>
		</g>
	</g>
	<g>
		<defs>
			<rect id="SVGID_1_" x="195.5" y="335.8" width="22.3" height="8.5"/>
		</defs>
		<clipPath id="SVGID_00000167396846343258344240000014624797769503809447_">
			<use xlink:href="#SVGID_1_"  style="overflow:visible;"/>
		</clipPath>
		<g style="clip-path:url(#SVGID_00000167396846343258344240000014624797769503809447_);">
			<polygon class="st19" points="216.5,347.1 213.7,347.1 208,340 213.7,332.9 216.5,332.9 210.9,340 			"/>
			<polygon class="st20" points="210.9,347.1 208,347.1 202.4,340 208,332.9 210.9,332.9 205.2,340 			"/>
			<polygon class="st21" points="205.2,347.1 202.4,347.1 196.7,340 202.4,332.9 205.2,332.9 199.5,340 			"/>
		</g>
	</g>
</g>
</svg>
