<?xml version="1.0" encoding="utf-8"?>
<!-- Generator: Adobe Illustrator 27.0.0, SVG Export Plug-In . SVG Version: 6.00 Build 0)  -->
<svg version="1.1" xmlns="http://www.w3.org/2000/svg" xmlns:xlink="http://www.w3.org/1999/xlink" x="0px" y="0px"
	 viewBox="0 0 550 403" style="enable-background:new 0 0 550 443.7;" xml:space="preserve">
<style type="text/css">
	.st0{fill:none;stroke:#646464;stroke-width:14.1732;stroke-miterlimit:10;}
	.st1{fill:none;stroke:#FFD449;stroke-width:2.8346;stroke-miterlimit:10;}
	.st2{fill:none;stroke:#54C6EB;stroke-width:2.8346;stroke-miterlimit:10;}
	.st3{fill:none;stroke:#F4442E;stroke-width:2.8346;stroke-miterlimit:10;}
	.st4{fill:none;stroke:#FFFFFF;stroke-width:2.126;}
	.st5{fill:#646464;}
	.st6{fill:#FFFFFF;}
	.st7{fill:#09BC8A;}
	.st8{fill:none;stroke:#646464;stroke-width:2.8346;stroke-miterlimit:10;}
	.st9{fill:none;stroke:#09BC8A;stroke-width:2.2097;stroke-miterlimit:10;}
	.st10{fill:none;stroke:#09BC8A;stroke-width:1.9843;stroke-miterlimit:10;}
	.st11{fill:#FF3380;}
	.st12{fill:none;stroke:#FF3380;stroke-width:1.9843;stroke-miterlimit:10;}
	.st13{fill:none;stroke:#646464;stroke-width:0.7087;stroke-miterlimit:10;}
	.st14{fill:none;stroke:#F4442E;stroke-width:5.6693;stroke-miterlimit:10;}
	.st15{fill:none;stroke:#54C6EB;stroke-width:5.6693;stroke-miterlimit:10;}
	.st16{fill:none;stroke:#FFD449;stroke-width:5.6693;stroke-miterlimit:10;}
	.st17{fill:none;stroke:#09BC8A;stroke-width:2.8346;stroke-miterlimit:10;}
	.st18{clip-path:url(#SVGID_00000167395908987059232970000000229543804225665710_);}
	.st19{fill:#F4442E;}
	.st20{fill:#54C6EB;}
	.st21{fill:#FFD449;}
</style>
<g id="コース">
	<path class="st0" d="M164.6,89c-20.8,5.9-78.7,22.2-95.3,26.9s-31,13-29.6,23.7c1.5,10.8,12.7,16.9,16.1,19.3
		c3.4,2.4,7.3,4.6,7.3,12.2c0,13.4-14.2,12.8-14.2,50.7c0,33.7,32.3,52.2,51.3,56.6c31.8,7.3,234.6,56.9,244.6,59.1
		c10,2.2,22.7-0.5,25.4-14.9c2.7-14.4,3.9-21,4.9-31.5c1-10.5,3.9-33.5-19.8-50.8s-105.6-73.6-112.7-78.7
		c-7.1-5.1-14.2-13-14.2-29.8s11-35.4,21.8-38.4s34-7.8,41.8-8.8s18.3-2.7,23.5,5.6c5.1,8.3-4.9,18.3-7.3,21.8s-10,13.7,0,25.7
		s24.4,4.2,30.3-2.2s12.2-13.4,17.6-18.8s12.2-11.2,21.5-13.7c9.3-2.4,21-4.9,25.9-5.9c4.9-1,8.8,2,11,5.9s-1,11-6.1,15.2
		c-5.1,4.2-22.2,20-27.1,24.7c-4.9,4.6-10.8,10.5-10.8,33s22.7,34.2,26.9,36.7s52.5,31,55.5,32.5c2.9,1.5,9.3,1,11.2-0.7
		c2-1.7,4.6-4.4,6.4-8.1c1.7-3.7,10-29.8,11.2-34.2s1.2-12.7,0.5-17.8c-0.7-5.1-11-43.5-18.1-56.7s-18.1-30.8-24.7-34.7
		S420,82,413.4,80.7s-96.5-19.8-105.1-21c-8.6-1.2-28.8-1.7-46.7,2.4S164.6,89,164.6,89z"/>
</g>
<g id="セクター">
	<path class="st1" d="M418.1,224.6c15.1,8.9,33.1,19.5,34.9,20.3c2.9,1.5,9.3,1,11.2-0.7c2-1.7,4.6-4.4,6.4-8.1
		c1.7-3.7,10-29.8,11.2-34.2s1.2-12.7,0.5-17.8c-0.7-5.1-11-43.5-18.1-56.7s-18.1-30.8-24.7-34.7S420,82,413.4,80.7
		s-96.5-19.8-105.1-21c-8.6-1.2-28.8-1.7-46.7,2.4s-97,26.9-97,26.9"/>
	<path class="st2" d="M299.5,326.6c24.9,6,42.7,10.4,45.5,11c10,2.2,22.7-0.5,25.4-14.9c2.7-14.4,3.9-21,4.9-31.5
		c1-10.5,3.9-33.5-19.8-50.8s-105.6-73.6-112.7-78.7c-7.1-5.1-14.2-13-14.2-29.8s11-35.4,21.8-38.4s34-7.8,41.8-8.8
		s18.3-2.7,23.5,5.6c5.1,8.3-4.9,18.3-7.3,21.8s-10,13.7,0,25.7s24.4,4.2,30.3-2.2s12.2-13.4,17.6-18.8s12.2-11.2,21.5-13.7
		c9.3-2.4,21-4.9,25.9-5.9c4.9-1,8.8,2,11,5.9s-1,11-6.1,15.2c-5.1,4.2-22.2,20-27.1,24.7c-4.9,4.6-10.8,10.5-10.8,33
		s22.7,34.2,26.9,36.7c1.7,1,10.5,6.2,20.6,12.2"/>
	<path class="st3" d="M164.6,89c-20.8,5.9-78.7,22.2-95.3,26.9s-31,13-29.6,23.7c1.5,10.8,12.7,16.9,16.1,19.3
		c3.4,2.4,7.3,4.6,7.3,12.2c0,13.4-14.2,12.8-14.2,50.7c0,33.7,32.3,52.2,51.3,56.6c22.9,5.3,134.7,32.6,199.1,48.2"/>
</g>
<g id="コーナー番号">
	<g>
		<g>
			<circle class="st4" cx="19.6" cy="141.5" r="8.5"/>
			<circle class="st5" cx="19.6" cy="141.5" r="8.5"/>
		</g>
		<g>
			<path class="st6" d="M17.9,145.4v-1.6h1v-4.5H18v-1.6h2.6v6.1h0.9v1.6H17.9z"/>
		</g>
	</g>
	<g>
		<g>
			<circle class="st4" cx="81.9" cy="164.2" r="8.5"/>
			<circle class="st5" cx="81.9" cy="164.2" r="8.5"/>
		</g>
		<g>
			<path class="st6" d="M79.8,168.1v-2.6c0-0.6,0.1-1,0.6-1.2l1.9-0.8V162l-0.1-0.1h-0.5l-0.1,0.1v1.1h-1.7v-1.3
				c0-0.8,0.4-1.1,0.8-1.3h2.5c0.5,0.2,0.8,0.5,0.8,1.3v1.9c0,0.6-0.1,0.9-0.6,1.2l-1.9,0.8v0.9H84v1.6H79.8z"/>
		</g>
	</g>
	<g>
		<g>
			<circle class="st4" cx="40" cy="260.2" r="8.5"/>
			<circle class="st5" cx="40" cy="260.2" r="8.5"/>
		</g>
		<g>
			<path class="st6" d="M38.8,264.1c-0.5-0.2-0.8-0.5-0.8-1.3v-1h1.7v0.8l0.1,0.1h0.5l0.1-0.1V261l-0.1-0.1h-1v-1.3h1l0.1-0.1v-1.5
				l-0.1-0.1h-0.5l-0.1,0.1v0.8h-1.7v-1c0-0.8,0.4-1.1,0.8-1.3h2.5c0.5,0.2,0.8,0.5,0.8,1.3v1.3c0,0.6-0.2,0.9-0.6,1.2
				c0.4,0.3,0.6,0.6,0.6,1.2v1.4c0,0.8-0.4,1.1-0.8,1.3H38.8z"/>
		</g>
	</g>
	<g>
		<g>
			<circle class="st4" cx="369.7" cy="354.1" r="8.5"/>
			<circle class="st5" cx="369.7" cy="354.1" r="8.5"/>
		</g>
		<g>
			<path class="st6" d="M371.3,356.5v1.5h-1.7v-1.5h-2.2V355l1.6-4.7h1.7l-1.6,4.6h0.5v-0.4l0.4-1h1.3v1.4h0.5v1.6H371.3z"/>
		</g>
	</g>
	<g>
		<g>
			<circle class="st4" cx="390.2" cy="256.6" r="8.5"/>
			<circle class="st5" cx="390.2" cy="256.6" r="8.5"/>
		</g>
		<g>
			<path class="st6" d="M388.9,260.5c-0.5-0.2-0.8-0.5-0.8-1.3v-1h1.6v0.8l0.1,0.1h0.6l0.1-0.1v-2.1l-0.1-0.1h-0.6l-0.1,0.1v0.4
				h-1.6v-4.5h4v1.5h-2.4v1.6l0.4-0.4h1.3c0.5,0.2,0.8,0.5,0.8,1.3v2.4c0,0.8-0.4,1.1-0.8,1.3H388.9z"/>
		</g>
	</g>
	<g>
		<g>
			<circle class="st4" cx="209.5" cy="150.8" r="8.5"/>
			<circle class="st5" cx="209.5" cy="150.8" r="8.5"/>
		</g>
		<g>
			<path class="st6" d="M210.7,154.7h-2.5c-0.5-0.2-0.8-0.5-0.8-1.3v-5.1c0-0.8,0.4-1.1,0.8-1.3h2.5c0.5,0.2,0.8,0.5,0.8,1.3v1h-1.7
				v-0.8l-0.1-0.1h-0.5l-0.1,0.1v1.8l0.3-0.3h1.3c0.5,0.2,0.8,0.5,0.8,1.3v2.2C211.6,154.2,211.2,154.5,210.7,154.7z M209.7,153.3
				l0.1-0.1v-1.8l-0.1-0.1h-0.5l-0.1,0.1v1.8l0.1,0.1H209.7z"/>
		</g>
	</g>
	<g>
		<g>
			<circle class="st4" cx="258.7" cy="112" r="8.5"/>
			<circle class="st5" cx="258.7" cy="112" r="8.5"/>
		</g>
		<g>
			<path class="st6" d="M256.9,115.9l2.1-6.2h-2.4v-1.5h4.1v1.2l-2.1,6.5H256.9z"/>
		</g>
	</g>
	<g>
		<g>
			<circle class="st4" cx="334.8" cy="90" r="8.5"/>
			<circle class="st5" cx="334.8" cy="90" r="8.5"/>
		</g>
		<g>
			<path class="st6" d="M333.5,93.9c-0.5-0.2-0.8-0.5-0.8-1.3v-1.4c0-0.6,0.2-0.9,0.6-1.2c-0.4-0.3-0.6-0.6-0.6-1.2v-1.3
				c0-0.8,0.4-1.1,0.8-1.3h2.5c0.5,0.2,0.8,0.5,0.8,1.3v1.3c0,0.6-0.2,0.9-0.6,1.2c0.4,0.3,0.6,0.6,0.6,1.2v1.4
				c0,0.8-0.4,1.1-0.8,1.3H333.5z M334.4,89.3l0.1,0.1h0.5l0.1-0.1v-1.5l-0.1-0.1h-0.5l-0.1,0.1V89.3z M335.2,92.4v-1.6l-0.1-0.1
				h-0.5l-0.1,0.1v1.6l0.1,0.1h0.5L335.2,92.4z"/>
		</g>
	</g>
	<g>
		<g>
			<circle class="st4" cx="299.5" cy="154.8" r="8.5"/>
			<circle class="st5" cx="299.5" cy="154.8" r="8.5"/>
		</g>
		<g>
			<path class="st6" d="M298.2,158.7c-0.5-0.2-0.8-0.5-0.8-1.3v-1h1.7v0.8l0.1,0.1h0.5l0.1-0.1v-1.8l-0.3,0.3h-1.3
				c-0.5-0.2-0.8-0.5-0.8-1.3v-2.2c0-0.8,0.4-1.1,0.8-1.3h2.5c0.5,0.2,0.8,0.5,0.8,1.3v5.1c0,0.8-0.4,1.1-0.8,1.3H298.2z
				 M299.9,154.4v-1.8l-0.1-0.1h-0.5l-0.1,0.1v1.8l0.1,0.1h0.5L299.9,154.4z"/>
		</g>
	</g>
	<g>
		<g>
			<circle class="st4" cx="466.9" cy="264.8" r="8.5"/>
			<circle class="st5" cx="466.9" cy="264.8" r="8.5"/>
		</g>
		<g>
			<path class="st6" d="M462.9,268.7v-1.6h1v-4.5H463V261h2.6v6.1h0.9v1.6H462.9z"/>
			<path class="st6" d="M467.2,268.7v-2.6c0-0.6,0.1-1,0.6-1.2l1.9-0.8v-1.6l-0.1-0.1H469l-0.1,0.1v1.1h-1.7v-1.3
				c0-0.8,0.4-1.1,0.8-1.3h2.5c0.5,0.2,0.8,0.5,0.8,1.3v1.9c0,0.6-0.1,0.9-0.6,1.2l-1.9,0.8v0.9h2.4v1.6H467.2z"/>
		</g>
	</g>
	<g>
		<g>
			<circle class="st4" cx="503.8" cy="193.8" r="8.5"/>
			<circle class="st5" cx="503.8" cy="193.8" r="8.5"/>
		</g>
		<g>
			<path class="st6" d="M499.8,197.7v-1.6h1v-4.5h-0.9V190h2.6v6.1h0.9v1.6H499.8z"/>
			<path class="st6" d="M504.9,197.7c-0.5-0.2-0.8-0.5-0.8-1.3v-1h1.7v0.8l0.1,0.1h0.5l0.1-0.1v-1.6l-0.1-0.1h-1v-1.3h1l0.1-0.1
				v-1.5l-0.1-0.1h-0.5l-0.1,0.1v0.8h-1.7v-1c0-0.8,0.4-1.1,0.8-1.3h2.5c0.5,0.2,0.8,0.5,0.8,1.3v1.3c0,0.6-0.2,0.9-0.6,1.2
				c0.4,0.3,0.6,0.6,0.6,1.2v1.4c0,0.8-0.4,1.1-0.8,1.3H504.9z"/>
		</g>
	</g>
	<g>
		<g>
			<circle class="st4" cx="452.7" cy="78.2" r="8.5"/>
			<circle class="st5" cx="452.7" cy="78.2" r="8.5"/>
		</g>
		<g>
			<path class="st6" d="M448.7,82.1v-1.6h1V76h-0.9v-1.6h2.6v6.1h0.9v1.6H448.7z"/>
			<path class="st6" d="M456.7,80.6v1.5H455v-1.5h-2.2v-1.5l1.6-4.7h1.7l-1.6,4.6h0.5v-0.4l0.4-1h1.3V79h0.5v1.6H456.7z"/>
		</g>
	</g>
	<g>
		<g>
			<circle class="st4" cx="288.4" cy="39.2" r="8.5"/>
			<circle class="st5" cx="288.4" cy="39.2" r="8.5"/>
		</g>
		<g>
			<path class="st6" d="M284.4,43.1v-1.6h1V37h-0.9v-1.6h2.6v6.1h0.9v1.6H284.4z"/>
			<path class="st6" d="M289.5,43.1c-0.5-0.2-0.8-0.5-0.8-1.3v-1h1.6v0.8l0.1,0.1h0.6l0.1-0.1v-2.1l-0.1-0.1h-0.6l-0.1,0.1V40h-1.6
				v-4.5h4v1.5h-2.4v1.6l0.4-0.4h1.3c0.5,0.2,0.8,0.5,0.8,1.3v2.4c0,0.8-0.4,1.1-0.8,1.3H289.5z"/>
		</g>
	</g>
	<g>
		<g>
			<circle class="st4" cx="394.1" cy="112.2" r="8.5"/>
			<circle class="st5" cx="394.1" cy="112.2" r="8.5"/>
		</g>
		<g>
			<path class="st6" d="M390.1,116.1v-1.6h1v-4.5h-0.9v-1.6h2.6v6.1h0.9v1.6H390.1z"/>
			<path class="st6" d="M397.7,116.1h-2.5c-0.5-0.2-0.8-0.5-0.8-1.3v-5.1c0-0.8,0.4-1.1,0.8-1.3h2.5c0.5,0.2,0.8,0.5,0.8,1.3v5.1
				C398.5,115.7,398.2,116,397.7,116.1z M396.8,110l-0.1-0.1h-0.5l-0.1,0.1v4.7l0.1,0.1h0.5l0.1-0.1V110z"/>
		</g>
	</g>
	<g>
		<g>
			<circle class="st4" cx="352.6" cy="188.5" r="8.5"/>
			<circle class="st5" cx="352.6" cy="188.5" r="8.5"/>
		</g>
		<g>
			<path class="st6" d="M348.5,192.4v-1.6h1v-4.5h-0.9v-1.6h2.6v6.1h0.9v1.6H348.5z"/>
			<path class="st6" d="M353.2,192.4v-1.6h1v-4.5h-0.9v-1.6h2.6v6.1h0.9v1.6H353.2z"/>
		</g>
	</g>
</g>



</svg>
