<?xml version="1.0" encoding="utf-8"?>
<!-- Generator: Adobe Illustrator 27.0.0, SVG Export Plug-In . SVG Version: 6.00 Build 0)  -->
<svg version="1.1" xmlns="http://www.w3.org/2000/svg" xmlns:xlink="http://www.w3.org/1999/xlink" x="0px" y="0px"
	 viewBox="0.0 0.0 550.0 366.5" style="enable-background:new 0 0 550 443.7;" xml:space="preserve">
<style type="text/css">
	.st0{fill:none;stroke:#646464;stroke-width:5.775;stroke-miterlimit:10;}
	.st1{fill:none;stroke:#FFD449;stroke-width:1.155;stroke-miterlimit:10;}
	.st2{fill:none;stroke:#54C6EB;stroke-width:1.155;stroke-miterlimit:10;}
	.st3{fill:none;stroke:#F4442E;stroke-width:1.155;stroke-miterlimit:10;}
	.st4{fill:none;stroke:#FFFFFF;stroke-width:0.866;}
	.st5{fill:#646464;}
	.st6{fill:#FFFFFF;}
	.st7{fill:#09BC8A;}
	.st8{fill:none;stroke:#646464;stroke-width:1.155;stroke-miterlimit:10;}
	.st9{fill:none;stroke:#09BC8A;stroke-width:0.900;stroke-miterlimit:10;}
	.st10{fill:none;stroke:#09BC8A;stroke-width:0.809;stroke-miterlimit:10;}
	.st11{fill:#FF3380;}
	.st12{fill:none;stroke:#FF3380;stroke-width:0.809;stroke-miterlimit:10;}
	.st13{fill:none;stroke:#646464;stroke-width:0.289;stroke-miterlimit:10;}
	.st14{fill:none;stroke:#F4442E;stroke-width:2.310;stroke-miterlimit:10;}
	.st15{fill:none;stroke:#54C6EB;stroke-width:2.310;stroke-miterlimit:10;}
	.st16{fill:none;stroke:#FFD449;stroke-width:2.310;stroke-miterlimit:10;}
	.st17{fill:none;stroke:#09BC8A;stroke-width:1.155;stroke-miterlimit:10;}
	.st18{clip-path:url(#SVGID_00000167395908987059232970000000229543804225665710_);}
	.st19{fill:#F4442E;}
	.st20{fill:#54C6EB;}
	.st21{fill:#FFD449;}
</style>
<g id="コース">
	<path class="st0" d="M164.6,89c-20.8,5.9-78.7,22.2-95.3,26.9s-31,13-29.6,23.7c1.5,10.8,12.7,16.9,16.1,19.3
		c3.4,2.4,7.3,4.6,7.3,12.2c0,13.4-14.2,12.8-14.2,50.7c0,33.7,32.3,52.2,51.3,56.6c31.8,7.3,234.6,56.9,244.6,59.1
		c10,2.2,22.7-0.5,25.4-14.9c2.7-14.4,3.9-21,4.9-31.5c1-10.5,3.9-33.5-19.8-50.8s-105.6-73.6-112.7-78.7
		c-7.1-5.1-14.2-13-14.2-29.8s11-35.4,21.8-38.4s34-7.8,41.8-8.8s18.3-2.7,23.5,5.6c5.1,8.3-4.9,18.3-7.3,21.8s-10,13.7,0,25.7
		s24.4,4.2,30.3-2.2s12.2-13.4,17.6-18.8s12.2-11.2,21.5-13.7c9.3-2.4,21-4.9,25.9-5.9c4.9-1,8.8,2,11,5.9s-1,11-6.1,15.2
		c-5.1,4.2-22.2,20-27.1,24.7c-4.9,4.6-10.8,10.5-10.8,33s22.7,34.2,26.9,36.7s52.5,31,55.5,32.5c2.9,1.5,9.3,1,11.2-0.7
		c2-1.7,4.6-4.4,6.4-8.1c1.7-3.7,10-29.8,11.2-34.2s1.2-12.7,0.5-17.8c-0.7-5.1-11-43.5-18.1-56.7s-18.1-30.8-24.7-34.7
		S420,82,413.4,80.7s-96.5-19.8-105.1-21c-8.6-1.2-28.8-1.7-46.7,2.4S164.6,89,164.6,89z"/>
</g>
<g id="セクター">
	<path class="st1" d="M418.1,224.6c15.1,8.9,33.1,19.5,34.9,20.3c2.9,1.5,9.3,1,11.2-0.7c2-1.7,4.6-4.4,6.4-8.1
		c1.7-3.7,10-29.8,11.2-34.2s1.2-12.7,0.5-17.8c-0.7-5.1-11-43.5-18.1-56.7s-18.1-30.8-24.7-34.7S420,82,413.4,80.7
		s-96.5-19.8-105.1-21c-8.6-1.2-28.8-1.7-46.7,2.4s-97,26.9-97,26.9"/>
	<path class="st2" d="M299.5,326.6c24.9,6,42.7,10.4,45.5,11c10,2.2,22.7-0.5,25.4-14.9c2.7-14.4,3.9-21,4.9-31.5
		c1-10.5,3.9-33.5-19.8-50.8s-105.6-73.6-112.7-78.7c-7.1-5.1-14.2-13-14.2-29.8s11-35.4,21.8-38.4s34-7.8,41.8-8.8
		s18.3-2.7,23.5,5.6c5.1,8.3-4.9,18.3-7.3,21.8s-10,13.7,0,25.7s24.4,4.2,30.3-2.2s12.2-13.4,17.6-18.8s12.2-11.2,21.5-13.7
		c9.3-2.4,21-4.9,25.9-5.9c4.9-1,8.8,2,11,5.9s-1,11-6.1,15.2c-5.1,4.2-22.2,20-27.1,24.7c-4.9,4.6-10.8,10.5-10.8,33
		s22.7,34.2,26.9,36.7c1.7,1,10.5,6.2,20.6,12.2"/>
	<path class="st3" d="M164.6,89c-20.8,5.9-78.7,22.2-95.3,26.9s-31,13-29.6,23.7c1.5,10.8,12.7,16.9,16.1,19.3
		c3.4,2.4,7.3,4.6,7.3,12.2c0,13.4-14.2,12.8-14.2,50.7c0,33.7,32.3,52.2,51.3,56.6c22.9,5.3,134.7,32.6,199.1,48.2"/>
</g>
<g id="コーナー番号">
	<g>
		<g>
			
			
		</g>
		<g>
			
		</g>
	</g>
	<g>
		<g>
			
			
		</g>
		<g>
			
		</g>
	</g>
	<g>
		<g>
			
			
		</g>
		<g>
			
		</g>
	</g>
	<g>
		<g>
			
			
		</g>
		<g>
			
		</g>
	</g>
	<g>
		<g>
			
			
		</g>
		<g>
			
		</g>
	</g>
	<g>
		<g>
			
			
		</g>
		<g>
			
		</g>
	</g>
	<g>
		<g>
			
			
		</g>
		<g>
			
		</g>
	</g>
	<g>
		<g>
			
			
		</g>
		<g>
			
		</g>
	</g>
	<g>
		<g>
			
			
		</g>
		<g>
			
		</g>
	</g>
	<g>
		<g>
			
			
		</g>
		<g>
			
			
		</g>
	</g>
	<g>
		<g>
			
			
		</g>
		<g>
			
			
		</g>
	</g>
	<g>
		<g>
			
			
		</g>
		<g>
			
			
		</g>
	</g>
	<g>
		<g>
			
			
		</g>
		<g>
			
			
		</g>
	</g>
	<g>
		<g>
			
			
		</g>
		<g>
			
			
		</g>
	</g>
	<g>
		<g>
			
			
		</g>
		<g>
			
			
		</g>
	</g>
</g>



</svg>
