<?xml version="1.0" encoding="utf-8"?>
<!-- Generator: Adobe Illustrator 26.5.0, SVG Export Plug-In . SVG Version: 6.00 Build 0)  -->
<svg version="1.1" xmlns="http://www.w3.org/2000/svg" xmlns:xlink="http://www.w3.org/1999/xlink" x="0px" y="0px"
	 viewBox="0 0 550 403" style="enable-background:new 0 0 550 443.7;" xml:space="preserve">
<style type="text/css">
	.st0{fill:none;stroke:#646464;stroke-width:14.1732;stroke-miterlimit:10;}
	.st1{fill:none;stroke:#FFD449;stroke-width:2.8346;stroke-miterlimit:10;}
	.st2{fill:none;stroke:#54C6EB;stroke-width:2.8346;stroke-miterlimit:10;}
	.st3{fill:none;stroke:#F4442E;stroke-width:2.8346;stroke-miterlimit:10;}
	.st4{fill:none;stroke:#FFFFFF;stroke-width:2.126;}
	.st5{fill:#646464;}
	.st6{fill:#FFFFFF;}
	.st7{fill:#09BC8A;}
	.st8{fill:none;stroke:#646464;stroke-width:2.8346;stroke-miterlimit:10;}
	.st9{fill:none;stroke:#09BC8A;stroke-width:1.9843;stroke-miterlimit:10;}
	.st10{fill:none;stroke:#09BC8A;stroke-width:2.2097;stroke-miterlimit:10;}
	.st11{fill:#FF3380;}
	.st12{fill:none;stroke:#FF3380;stroke-width:1.9843;stroke-miterlimit:10;}
	.st13{fill:none;stroke:#646464;stroke-width:0.7087;stroke-miterlimit:10;}
	.st14{fill:none;stroke:#F4442E;stroke-width:5.6693;stroke-miterlimit:10;}
	.st15{fill:none;stroke:#54C6EB;stroke-width:5.6693;stroke-miterlimit:10;}
	.st16{fill:none;stroke:#FFD449;stroke-width:5.6693;stroke-miterlimit:10;}
	.st17{fill:none;stroke:#09BC8A;stroke-width:2.8346;stroke-miterlimit:10;}
	.st18{clip-path:url(#SVGID_00000084524135619828616440000008983860963451778445_);}
	.st19{fill:#F4442E;}
	.st20{fill:#54C6EB;}
	.st21{fill:#FFD449;}
</style>
<g id="コース">
	<path class="st0" d="M509.4,232.3c0,0-21.1-155.9-21.9-161.9c-0.9-6-3.7-7.5-8.8-6.9c-5.2,0.6-11.4,0.9-17.2-2.6s-6.2-6-7.7-9
		c-1.5-3-3.5-5.8-8.1-5.8s-7.3,4.5-7.8,8.5s-2,20.8-2,25.5c0,4.7,2.4,12.6,4.3,17.7s13,32,14.5,40.3c1.5,8.3,1.8,24.4,1.8,27.2
		c0,4.5-5.9,11.2-17.8,11.2s-123.8-7-128-7.2s-15.7-3.9-22-7.6c-6.4-3.7-82.9-49.6-85.6-51s-5.7-0.4-7.1,1.4
		c-1.4,1.9-18.9,25.6-21.3,29.6c-2.4,4.1-9.7,18.3-10.9,21c-2,4.4-5.1,6.6-8.9,1.9c-4.5-5.6-11.5-15-16-19
		c-4.5-4-16.9-15.1-20.6-17.1c-3.7-2-7.7-1.6-9.8-0.3c-2.1,1.3-8.7,7.4-10.6,10.8c-2,3.4-44.7,82.1-47,86.2
		c-2.3,4.1-8.7,13.6-10.4,15.6c-1.8,2-2.4,3.7-1.9,6.5c0.5,2.7,4.9,12.7,6.4,14.3s9.7,7.9,11.7,9.1s4.7,2.7,7.5,2.9
		c2.7,0.1,4.7,0.5,6.3,1.9c1.5,1.3,1.3,3.6,1.3,5.9s0.2,11.2,0.4,14c0.2,2.9,2,7,5.2,9.5c3.2,2.5,21.4,17.1,24.4,20
		c4.7,4.6,9.5,10.6,11.6,15.8c2.8,6.6,9.4,3.7,9.7-0.4c0.2-2.7,11.5-64.9,12.7-73.5c1.2-8.7,4.7-24.3,11.6-43.8
		c6.9-19.5,14.6-40.8,15.5-43s3.4-3.8,6.7-1.4c3.3,2.4,49,39.9,53.5,43c6.3,4.5,10.6,8.5,22.8,8.5c8.9,0,10.9,0,12.8,0
		c2,0,5.7,1.2,5.7,6c0,4.8,0,11.1,0,14.2s2.5,12.3,13.2,12.7c13.6,0.5,53.7,2.9,56,3c2.3,0.1,4.8-1.5,5.4-5.5c0.5-4,4-17,4.6-20.2
		s2.9-4,7.4-4s34.5,2,36.8,2.3s4.5,1.8,4.5,6.6c0,3,0,4.9,0,7.4c0,2.4,1.6,6.3,4.7,9.1c3.1,2.9,9,4.2,13.6,4.2
		c6.5,0,72.1,3.7,76.5,4c4.2,0.2,5.8-0.4,8.7-4c2.9-3.5,11.5-18,12.7-19.9c1.2-1.9,1.8-3.8,1.6-5.9
		C509.7,237.6,509.4,232.3,509.4,232.3z"/>
</g>
<g id="セクター">
	<path class="st1" d="M153.3,205.4c4.7-13.2,8.7-24.2,9.3-25.7c0.9-2.2,3.4-3.8,6.7-1.4c3.3,2.4,49,39.9,53.5,43
		c6.3,4.5,10.6,8.5,22.8,8.5c8.9,0,10.9,0,12.8,0c2,0,5.7,1.2,5.7,6c0,4.8,0,11.1,0,14.2s2.5,12.3,13.2,12.7c13.6,0.5,53.7,2.9,56,3
		c2.3,0.1,4.8-1.5,5.4-5.5c0.5-4,4-17,4.6-20.2s2.9-4,7.4-4s34.5,2,36.8,2.3s4.5,1.8,4.5,6.6c0,3,0,4.9,0,7.4c0,2.4,1.6,6.3,4.7,9.1
		c3.1,2.9,9,4.2,13.6,4.2c6.5,0,72.1,3.7,76.5,4c4.2,0.2,5.8-0.4,8.7-4c2.9-3.5,11.5-18,12.7-19.9c1.2-1.9,1.8-3.8,1.6-5.9
		c-0.1-2.1-0.4-7.4-0.4-7.4s-1-7.1-2.5-18.4"/>
	<path class="st2" d="M240.7,133.1c-18.9-11.3-36.5-21.8-37.8-22.5c-2.7-1.4-5.7-0.4-7.1,1.4c-1.4,1.9-18.9,25.6-21.3,29.6
		c-2.4,4.1-9.7,18.3-10.9,21c-2,4.4-5.1,6.6-8.9,1.9c-4.5-5.6-11.5-15-16-19c-4.5-4-16.9-15.1-20.6-17.1c-3.7-2-7.7-1.6-9.8-0.3
		c-2.1,1.3-8.7,7.4-10.6,10.8c-2,3.4-44.7,82.1-47,86.2c-2.3,4.1-8.7,13.6-10.4,15.6c-1.8,2-2.4,3.7-1.9,6.5
		c0.5,2.7,4.9,12.7,6.4,14.3s9.7,7.9,11.7,9.1s4.7,2.7,7.5,2.9c2.7,0.1,4.7,0.5,6.3,1.9c1.5,1.3,1.3,3.6,1.3,5.9s0.2,11.2,0.4,14
		c0.2,2.9,2,7,5.2,9.5c3.2,2.5,21.4,17.1,24.4,20c4.7,4.6,9.5,10.6,11.6,15.8c2.8,6.6,9.4,3.7,9.7-0.4c0.2-2.7,11.5-64.9,12.7-73.5
		c1.2-8.7,4.7-24.3,11.6-43.8c2-5.8,4.2-11.7,6.1-17.3"/>
	<path class="st3" d="M506.9,213.9c-5.6-41.4-18.8-138.7-19.4-143.5c-0.9-6-3.7-7.5-8.8-6.9c-5.2,0.6-11.4,0.9-17.2-2.6
		s-6.2-6-7.7-9c-1.5-3-3.5-5.8-8.1-5.8s-7.3,4.5-7.8,8.5s-2,20.8-2,25.5c0,4.7,2.4,12.6,4.3,17.7s13,32,14.5,40.3
		c1.5,8.3,1.8,24.4,1.8,27.2c0,4.5-5.9,11.2-17.8,11.2s-123.8-7-128-7.2s-15.7-3.9-22-7.6c-3.4-2-26.4-15.8-47.8-28.6"/>
</g>
<g id="コーナー番号">
	<g>
		<g>
			<circle class="st4" cx="504.7" cy="60.1" r="8.5"/>
			<circle class="st5" cx="504.7" cy="60.1" r="8.5"/>
		</g>
		<g>
			<path class="st6" d="M503,64v-1.6h1v-4.5h-0.9v-1.6h2.6v6.1h0.9V64H503z"/>
		</g>
	</g>
	<g>
		<g>
			<circle class="st4" cx="471.8" cy="42.7" r="8.5"/>
			<circle class="st5" cx="471.8" cy="42.7" r="8.5"/>
		</g>
		<g>
			<path class="st6" d="M469.7,46.6V44c0-0.6,0.1-1,0.6-1.2l1.9-0.8v-1.6l-0.1-0.1h-0.5l-0.1,0.1v1.1h-1.7v-1.3
				c0-0.8,0.4-1.1,0.8-1.3h2.5c0.5,0.2,0.8,0.5,0.8,1.3v1.9c0,0.6-0.1,0.9-0.6,1.2l-1.8,0.8V45h2.4v1.6H469.7z"/>
		</g>
	</g>
	<g>
		<g>
			<circle class="st4" cx="436.6" cy="26.4" r="8.5"/>
			<circle class="st5" cx="436.6" cy="26.4" r="8.5"/>
		</g>
		<g>
			<path class="st6" d="M435.4,30.3c-0.5-0.2-0.8-0.5-0.8-1.3v-1h1.7v0.8l0.1,0.1h0.5l0.1-0.1v-1.6l-0.1-0.1h-1v-1.3h1l0.1-0.1v-1.5
				l-0.1-0.1h-0.5l-0.1,0.1V25h-1.7v-1c0-0.8,0.4-1.1,0.8-1.3h2.5c0.5,0.2,0.8,0.5,0.8,1.3v1.3c0,0.6-0.2,0.9-0.6,1.2
				c0.4,0.3,0.6,0.6,0.6,1.2V29c0,0.8-0.4,1.1-0.8,1.3H435.4z"/>
		</g>
	</g>
	<g>
		<g>
			<circle class="st4" cx="416.2" cy="76.8" r="8.5"/>
			<circle class="st5" cx="416.2" cy="76.8" r="8.5"/>
		</g>
		<g>
			<path class="st6" d="M417.8,79.1v1.5h-1.7v-1.5h-2.2v-1.5l1.6-4.7h1.7l-1.6,4.6h0.5v-0.4l0.4-1h1.3v1.4h0.5v1.6H417.8z"/>
		</g>
	</g>
	<g>
		<g>
			<circle class="st4" cx="468" cy="185.2" r="8.5"/>
			<circle class="st5" cx="468" cy="185.2" r="8.5"/>
		</g>
		<g>
			<path class="st6" d="M466.8,189.1c-0.5-0.2-0.8-0.5-0.8-1.3v-1h1.6v0.8l0.1,0.1h0.6l0.1-0.1v-2.1l-0.1-0.1h-0.6l-0.1,0.1v0.4
				h-1.6v-4.5h4v1.5h-2.4v1.6l0.4-0.4h1.3c0.5,0.2,0.8,0.5,0.8,1.3v2.4c0,0.8-0.4,1.1-0.8,1.3H466.8z"/>
		</g>
	</g>
	<g>
		<g>
			<circle class="st4" cx="308.1" cy="147.7" r="8.5"/>
			<circle class="st5" cx="308.1" cy="147.7" r="8.5"/>
		</g>
		<g>
			<path class="st6" d="M309.3,151.6h-2.5c-0.5-0.2-0.8-0.5-0.8-1.3v-5.1c0-0.8,0.4-1.1,0.8-1.3h2.5c0.5,0.2,0.8,0.5,0.8,1.3v1h-1.7
				v-0.8l-0.1-0.1h-0.5l-0.1,0.1v1.8l0.3-0.3h1.3c0.5,0.2,0.8,0.5,0.8,1.3v2.2C310.1,151.1,309.8,151.4,309.3,151.6z M308.3,150.2
				l0.1-0.1v-1.8l-0.1-0.1h-0.5l-0.1,0.1v1.8l0.1,0.1H308.3z"/>
		</g>
	</g>
	<g>
		<g>
			<circle class="st4" cx="193.6" cy="90.9" r="8.5"/>
			<circle class="st5" cx="193.6" cy="90.9" r="8.5"/>
		</g>
		<g>
			<path class="st6" d="M191.7,94.8l2.1-6.2h-2.4v-1.5h4.1v1.2l-2.1,6.5H191.7z"/>
		</g>
	</g>
	<g>
		<g>
			<circle class="st4" cx="156.7" cy="137.5" r="8.5"/>
			<circle class="st5" cx="156.7" cy="137.5" r="8.5"/>
		</g>
		<g>
			<path class="st6" d="M155.4,141.3c-0.5-0.2-0.8-0.5-0.8-1.3v-1.4c0-0.6,0.2-0.9,0.6-1.2c-0.4-0.3-0.6-0.6-0.6-1.2V135
				c0-0.8,0.4-1.1,0.8-1.3h2.5c0.5,0.2,0.8,0.5,0.8,1.3v1.3c0,0.6-0.2,0.9-0.6,1.2c0.4,0.3,0.6,0.6,0.6,1.2v1.4
				c0,0.8-0.4,1.1-0.8,1.3H155.4z M156.3,136.7l0.1,0.1h0.5l0.1-0.1v-1.5l-0.1-0.1h-0.5l-0.1,0.1V136.7z M157.1,139.9v-1.6l-0.1-0.1
				h-0.5l-0.1,0.1v1.6l0.1,0.1h0.5L157.1,139.9z"/>
		</g>
	</g>
	<g>
		<g>
			<circle class="st4" cx="110.1" cy="107.6" r="8.5"/>
			<circle class="st5" cx="110.1" cy="107.6" r="8.5"/>
		</g>
		<g>
			<path class="st6" d="M108.9,111.5c-0.5-0.2-0.8-0.5-0.8-1.3v-1h1.7v0.8l0.1,0.1h0.5l0.1-0.1v-1.8l-0.3,0.3h-1.3
				c-0.5-0.2-0.8-0.5-0.8-1.3v-2.2c0-0.8,0.4-1.1,0.8-1.3h2.5c0.5,0.2,0.8,0.5,0.8,1.3v5.1c0,0.8-0.4,1.1-0.8,1.3H108.9z
				 M110.5,107.2v-1.8l-0.1-0.1h-0.5l-0.1,0.1v1.8l0.1,0.1h0.5L110.5,107.2z"/>
		</g>
	</g>
	<g>
		<g>
			<circle class="st4" cx="57.9" cy="313.6" r="8.5"/>
			<circle class="st5" cx="57.9" cy="313.6" r="8.5"/>
		</g>
		<g>
			<path class="st6" d="M53.9,317.5v-1.6h1v-4.5H54v-1.6h2.6v6.1h0.9v1.6H53.9z"/>
			<path class="st6" d="M58.2,317.5v-2.6c0-0.6,0.1-1,0.6-1.2l1.9-0.8v-1.6l-0.1-0.1H60l-0.1,0.1v1.1h-1.7v-1.3
				c0-0.8,0.4-1.1,0.8-1.3h2.5c0.5,0.2,0.8,0.5,0.8,1.3v1.9c0,0.6-0.1,0.9-0.6,1.2l-1.9,0.8v0.9h2.4v1.6H58.2z"/>
		</g>
	</g>
	<g>
		<g>
			<circle class="st4" cx="118" cy="364.1" r="8.5"/>
			<circle class="st5" cx="118" cy="364.1" r="8.5"/>
		</g>
		<g>
			<path class="st6" d="M114,368v-1.6h1v-4.5h-0.9v-1.6h2.6v6.1h0.9v1.6H114z"/>
			<path class="st6" d="M119.1,368c-0.5-0.2-0.8-0.5-0.8-1.3v-1h1.7v0.8l0.1,0.1h0.5l0.1-0.1v-1.6l-0.1-0.1h-1v-1.3h1l0.1-0.1v-1.5
				l-0.1-0.1h-0.5l-0.1,0.1v0.8h-1.7v-1c0-0.8,0.4-1.1,0.8-1.3h2.5c0.5,0.2,0.8,0.5,0.8,1.3v1.3c0,0.6-0.2,0.9-0.6,1.2
				c0.4,0.3,0.6,0.6,0.6,1.2v1.4c0,0.8-0.4,1.1-0.8,1.3H119.1z"/>
		</g>
	</g>
	<g>
		<g>
			<circle class="st4" cx="184.8" cy="166.5" r="8.5"/>
			<circle class="st5" cx="184.8" cy="166.5" r="8.5"/>
		</g>
		<g>
			<path class="st6" d="M180.7,170.4v-1.6h1v-4.5h-0.9v-1.6h2.6v6.1h0.9v1.6H180.7z"/>
			<path class="st6" d="M188.8,168.9v1.5h-1.7v-1.5h-2.2v-1.5l1.6-4.7h1.7l-1.6,4.6h0.5v-0.4l0.4-1h1.3v1.4h0.5v1.6H188.8z"/>
		</g>
	</g>
	<g>
		<g>
			<circle class="st4" cx="225.4" cy="244.8" r="8.5"/>
			<circle class="st5" cx="225.4" cy="244.8" r="8.5"/>
		</g>
		<g>
			<path class="st6" d="M221.4,248.7v-1.6h1v-4.5h-0.9v-1.6h2.6v6.1h0.9v1.6H221.4z"/>
			<path class="st6" d="M226.5,248.7c-0.5-0.2-0.8-0.5-0.8-1.3v-1h1.6v0.8l0.1,0.1h0.6l0.1-0.1v-2.1L228,245h-0.6l-0.1,0.1v0.4h-1.6
				v-4.5h4v1.5h-2.4v1.6l0.4-0.4h1.3c0.5,0.2,0.8,0.5,0.8,1.3v2.4c0,0.8-0.4,1.1-0.8,1.3H226.5z"/>
		</g>
	</g>
	<g>
		<g>
			<circle class="st4" cx="277.8" cy="218.9" r="8.5"/>
			<circle class="st5" cx="277.8" cy="218.9" r="8.5"/>
		</g>
		<g>
			<path class="st6" d="M273.7,222.7v-1.6h1v-4.5h-0.9v-1.6h2.6v6.1h0.9v1.6H273.7z"/>
			<path class="st6" d="M281.4,222.7h-2.5c-0.5-0.2-0.8-0.5-0.8-1.3v-5.1c0-0.8,0.4-1.1,0.8-1.3h2.5c0.5,0.2,0.8,0.5,0.8,1.3v1h-1.7
				v-0.8l-0.1-0.1h-0.5l-0.1,0.1v1.8l0.3-0.3h1.3c0.5,0.2,0.8,0.5,0.8,1.3v2.2C282.2,222.3,281.8,222.6,281.4,222.7z M280.4,221.3
				l0.1-0.1v-1.8l-0.1-0.1h-0.5l-0.1,0.1v1.8l0.1,0.1H280.4z"/>
		</g>
	</g>
	<g>
		<g>
			<circle class="st4" cx="258.5" cy="275" r="8.5"/>
			<circle class="st5" cx="258.5" cy="275" r="8.5"/>
		</g>
		<g>
			<path class="st6" d="M254.4,278.9v-1.6h1v-4.5h-0.9v-1.6h2.6v6.1h0.9v1.6H254.4z"/>
			<path class="st6" d="M259,278.9l2.1-6.2h-2.4v-1.5h4.1v1.2l-2.1,6.5H259z"/>
		</g>
	</g>
	<g>
		<g>
			<circle class="st4" cx="342.8" cy="282.9" r="8.5"/>
			<circle class="st5" cx="342.8" cy="282.9" r="8.5"/>
		</g>
		<g>
			<path class="st6" d="M338.8,286.7v-1.6h1v-4.5h-0.9v-1.6h2.6v6.1h0.9v1.6H338.8z"/>
			<path class="st6" d="M343.9,286.7c-0.5-0.2-0.8-0.5-0.8-1.3V284c0-0.6,0.2-0.9,0.6-1.2c-0.4-0.3-0.6-0.6-0.6-1.2v-1.3
				c0-0.8,0.4-1.1,0.8-1.3h2.5c0.5,0.2,0.8,0.5,0.8,1.3v1.3c0,0.6-0.2,0.9-0.6,1.2c0.4,0.3,0.6,0.6,0.6,1.2v1.4
				c0,0.8-0.4,1.1-0.8,1.3H343.9z M344.8,282.1l0.1,0.1h0.5l0.1-0.1v-1.5l-0.1-0.1h-0.5l-0.1,0.1V282.1z M345.5,285.3v-1.6l-0.1-0.1
				h-0.5l-0.1,0.1v1.6l0.1,0.1h0.5L345.5,285.3z"/>
		</g>
	</g>
	<g>
		<g>
			<circle class="st4" cx="336.4" cy="220.7" r="8.5"/>
			<circle class="st5" cx="336.4" cy="220.7" r="8.5"/>
		</g>
		<g>
			<path class="st6" d="M332.4,224.6V223h1v-4.5h-0.9v-1.6h2.6v6.1h0.9v1.6H332.4z"/>
			<path class="st6" d="M337.5,224.6c-0.5-0.2-0.8-0.5-0.8-1.3v-1h1.7v0.8l0.1,0.1h0.5l0.1-0.1v-1.8l-0.3,0.3h-1.3
				c-0.5-0.2-0.8-0.5-0.8-1.3v-2.2c0-0.8,0.4-1.1,0.8-1.3h2.5c0.5,0.2,0.8,0.5,0.8,1.3v5.1c0,0.8-0.4,1.1-0.8,1.3H337.5z
				 M339.1,220.3v-1.8l-0.1-0.1h-0.5l-0.1,0.1v1.8l0.1,0.1h0.5L339.1,220.3z"/>
		</g>
	</g>
	<g>
		<g>
			<circle class="st4" cx="405.9" cy="227.3" r="8.5"/>
			<circle class="st5" cx="405.9" cy="227.3" r="8.5"/>
		</g>
		<g>
			<path class="st6" d="M401.5,231.2v-2.6c0-0.6,0.1-1,0.6-1.2l1.9-0.8V225l-0.1-0.1h-0.5l-0.1,0.1v1.1h-1.7v-1.3
				c0-0.8,0.4-1.1,0.8-1.3h2.5c0.5,0.2,0.8,0.5,0.8,1.3v1.9c0,0.6-0.1,0.9-0.6,1.2l-1.9,0.8v0.9h2.4v1.6H401.5z"/>
			<path class="st6" d="M409.5,231.2H407c-0.5-0.2-0.8-0.5-0.8-1.3v-5.1c0-0.8,0.4-1.1,0.8-1.3h2.5c0.5,0.2,0.8,0.5,0.8,1.3v5.1
				C410.3,230.7,409.9,231,409.5,231.2z M408.6,225l-0.1-0.1H408l-0.1,0.1v4.7l0.1,0.1h0.5l0.1-0.1V225z"/>
		</g>
	</g>
	<g>
		<g>
			<circle class="st4" cx="386.1" cy="277" r="8.5"/>
			<circle class="st5" cx="386.1" cy="277" r="8.5"/>
		</g>
		<g>
			<path class="st6" d="M381.7,280.9v-2.6c0-0.6,0.1-1,0.6-1.2l1.9-0.8v-1.6l-0.1-0.1h-0.5l-0.1,0.1v1.1h-1.7v-1.3
				c0-0.8,0.4-1.1,0.8-1.3h2.5c0.5,0.2,0.8,0.5,0.8,1.3v1.9c0,0.6-0.1,0.9-0.6,1.2l-1.9,0.8v0.9h2.4v1.6H381.7z"/>
			<path class="st6" d="M386.8,280.9v-1.6h1v-4.5h-0.9v-1.6h2.6v6.1h0.9v1.6H386.8z"/>
		</g>
	</g>
	<g>
		<g>
			<circle class="st4" cx="496.9" cy="288.7" r="8.5"/>
			<circle class="st5" cx="496.9" cy="288.7" r="8.5"/>
		</g>
		<g>
			<path class="st6" d="M492.4,292.5V290c0-0.6,0.1-1,0.6-1.2l1.9-0.8v-1.6l-0.1-0.1h-0.5l-0.1,0.1v1.1h-1.7v-1.3
				c0-0.8,0.4-1.1,0.8-1.3h2.5c0.5,0.2,0.8,0.5,0.8,1.3v1.9c0,0.6-0.1,0.9-0.6,1.2l-1.8,0.8v0.9h2.4v1.6H492.4z"/>
			<path class="st6" d="M497.1,292.5V290c0-0.6,0.1-1,0.6-1.2l1.9-0.8v-1.6l-0.1-0.1h-0.5l-0.1,0.1v1.1h-1.7v-1.3
				c0-0.8,0.4-1.1,0.8-1.3h2.5c0.5,0.2,0.8,0.5,0.8,1.3v1.9c0,0.6-0.1,0.9-0.6,1.2l-1.9,0.8v0.9h2.4v1.6H497.1z"/>
		</g>
	</g>
	<g>
		<g>
			<circle class="st4" cx="19.4" cy="240.1" r="8.5"/>
			<circle class="st5" cx="19.4" cy="240.1" r="8.5"/>
		</g>
		<g>
			<path class="st6" d="M15.4,244v-1.6h1V238h-0.9v-1.6H18v6.1h0.9v1.6H15.4z"/>
			<path class="st6" d="M23,244h-2.5c-0.5-0.2-0.8-0.5-0.8-1.3v-5.1c0-0.8,0.4-1.1,0.8-1.3H23c0.5,0.2,0.8,0.5,0.8,1.3v5.1
				C23.8,243.6,23.5,243.9,23,244z M22.1,237.9l-0.1-0.1h-0.5l-0.1,0.1v4.7l0.1,0.1H22l0.1-0.1V237.9z"/>
		</g>
	</g>
	<g>
		<g>
			<circle class="st4" cx="84.4" cy="263" r="8.5"/>
			<circle class="st5" cx="84.4" cy="263" r="8.5"/>
		</g>
		<g>
			<path class="st6" d="M80.4,266.9v-1.6h1v-4.5h-0.9v-1.6H83v6.1h0.9v1.6H80.4z"/>
			<path class="st6" d="M85,266.9v-1.6h1v-4.5h-0.9v-1.6h2.6v6.1h0.9v1.6H85z"/>
		</g>
	</g>
	<g>
		<g>
			<circle class="st4" cx="528.5" cy="244.6" r="8.5"/>
			<circle class="st5" cx="528.5" cy="244.6" r="8.5"/>
		</g>
		<g>
			<path class="st6" d="M524.1,248.5v-2.6c0-0.6,0.1-1,0.6-1.2l1.9-0.8v-1.6l-0.1-0.1h-0.5l-0.1,0.1v1.1h-1.7v-1.3
				c0-0.8,0.4-1.1,0.8-1.3h2.5c0.5,0.2,0.8,0.5,0.8,1.3v1.9c0,0.6-0.1,0.9-0.6,1.2l-1.8,0.8v0.9h2.4v1.6H524.1z"/>
			<path class="st6" d="M529.6,248.5c-0.5-0.2-0.8-0.5-0.8-1.3v-1h1.7v0.8l0.1,0.1h0.5l0.1-0.1v-1.6l-0.1-0.1h-1V244h1l0.1-0.1v-1.5
				l-0.1-0.1h-0.5l-0.1,0.1v0.8h-1.7v-1c0-0.8,0.4-1.1,0.8-1.3h2.5c0.5,0.2,0.8,0.5,0.8,1.3v1.3c0,0.6-0.2,0.9-0.6,1.2
				c0.4,0.3,0.6,0.6,0.6,1.2v1.4c0,0.8-0.4,1.1-0.8,1.3H529.6z"/>
		</g>
	</g>
</g>


<g id="アイコン">
	<g>
		
			<rect x="534.6" y="212.6" transform="matrix(-0.9891 0.1476 -0.1476 -0.9891 1097.6924 346.6735)" class="st5" width="2.8" height="2.8"/>
		
			<rect x="529" y="213.5" transform="matrix(-0.9891 0.1476 -0.1476 -0.9891 1086.6627 349.1651)" class="st5" width="2.8" height="2.8"/>
		
			<rect x="531.3" y="210.3" transform="matrix(-0.9891 0.1476 -0.1476 -0.9891 1090.9318 342.4045)" class="st5" width="2.8" height="2.8"/>
		
			<rect x="525.7" y="211.1" transform="matrix(-0.9891 0.1476 -0.1476 -0.9891 1079.9021 344.8961)" class="st5" width="2.8" height="2.8"/>
		
			<rect x="530.5" y="204.6" transform="matrix(-0.9891 0.1476 -0.1476 -0.9891 1088.4401 331.3749)" class="st5" width="2.8" height="2.8"/>
		
			<rect x="524.9" y="205.5" transform="matrix(-0.9891 0.1476 -0.1476 -0.9891 1077.4105 333.8666)" class="st5" width="2.8" height="2.8"/>
		
			<rect x="523.4" y="214.3" transform="matrix(-0.9891 0.1476 -0.1476 -0.9891 1075.6332 351.6568)" class="st5" width="2.8" height="2.8"/>
		
			<rect x="526.2" y="213.9" transform="matrix(-0.9891 0.1476 -0.1476 -0.9891 1081.1479 350.4109)" class="st6" width="2.8" height="2.8"/>
		
			<rect x="531.8" y="213.1" transform="matrix(-0.9891 0.1476 -0.1476 -0.9891 1092.1775 347.9193)" class="st6" width="2.8" height="2.8"/>
		
			<rect x="534.1" y="209.8" transform="matrix(-0.9891 0.1476 -0.1476 -0.9891 1096.4465 341.1587)" class="st6" width="2.8" height="2.8"/>
		
			<rect x="528.5" y="210.7" transform="matrix(-0.9891 0.1476 -0.1476 -0.9891 1085.417 343.6503)" class="st6" width="2.8" height="2.8"/>
		
			<rect x="522.9" y="211.5" transform="matrix(-0.9891 0.1476 -0.1476 -0.9891 1074.3873 346.142)" class="st6" width="2.8" height="2.8"/>
		
			<rect x="525.3" y="208.3" transform="matrix(-0.9891 0.1476 -0.1476 -0.9891 1078.6564 339.3814)" class="st6" width="2.8" height="2.8"/>
		
			<rect x="530.9" y="207.5" transform="matrix(-0.9891 0.1476 -0.1476 -0.9891 1089.6859 336.8897)" class="st6" width="2.8" height="2.8"/>
		
			<rect x="524.5" y="202.7" transform="matrix(-0.9891 0.1476 -0.1476 -0.9891 1076.1647 328.3518)" class="st6" width="2.8" height="2.8"/>
		
			<rect x="530.1" y="201.8" transform="matrix(-0.9891 0.1476 -0.1476 -0.9891 1087.1942 325.8602)" class="st6" width="2.8" height="2.8"/>
		
			<rect x="533.3" y="204.2" transform="matrix(-0.9891 0.1476 -0.1476 -0.9891 1093.9548 330.1291)" class="st6" width="2.8" height="2.8"/>
		
			<rect x="527.7" y="205.1" transform="matrix(-0.9891 0.1476 -0.1476 -0.9891 1082.9253 332.6208)" class="st6" width="2.8" height="2.8"/>
		
			<rect x="522.1" y="205.9" transform="matrix(-0.9891 0.1476 -0.1476 -0.9891 1071.8958 335.1124)" class="st6" width="2.8" height="2.8"/>
		
			<rect x="533.7" y="207" transform="matrix(-0.9891 0.1476 -0.1476 -0.9891 1095.2007 335.6439)" class="st5" width="2.8" height="2.8"/>
		
			<rect x="528.1" y="207.9" transform="matrix(-0.9891 0.1476 -0.1476 -0.9891 1084.1711 338.1356)" class="st5" width="2.8" height="2.8"/>
		
			<rect x="527.3" y="202.3" transform="matrix(-0.9891 0.1476 -0.1476 -0.9891 1081.6794 327.106)" class="st5" width="2.8" height="2.8"/>
		
			<rect x="522.5" y="208.7" transform="matrix(-0.9891 0.1476 -0.1476 -0.9891 1073.1416 340.6272)" class="st5" width="2.8" height="2.8"/>
		
			<rect x="532.9" y="201.4" transform="matrix(-0.9891 0.1476 -0.1476 -0.9891 1092.709 324.6143)" class="st5" width="2.8" height="2.8"/>
		
			<rect x="521.7" y="203.1" transform="matrix(-0.9891 0.1476 -0.1476 -0.9891 1070.6499 329.5976)" class="st5" width="2.8" height="2.8"/>
	</g>
	<g>
		<g>
			<path class="st6" d="M462.8,426.3c0,1.6-1.3,2.8-2.8,2.8H91.1c-1.6,0-2.8-1.3-2.8-2.8v-24.9c0-1.6,1.3-2.8,2.8-2.8h368.8
				c1.6,0,2.8,1.3,2.8,2.8V426.3z"/>
			<path class="st13" d="M462.8,426.3c0,1.6-1.3,2.8-2.8,2.8H91.1c-1.6,0-2.8-1.3-2.8-2.8v-24.9c0-1.6,1.3-2.8,2.8-2.8h368.8
				c1.6,0,2.8,1.3,2.8,2.8V426.3z"/>
		</g>
		<g>
			<path class="st5" d="M133.8,415.3v2.6c0,1.3-0.6,1.7-1.3,2h-3.3c-0.7-0.3-1.3-0.7-1.3-2v-2h1.8v2.1l0.4,0.4h1.6l0.4-0.4v-2.8
				l-0.3-0.4L129,414c-0.8-0.3-1.1-0.8-1.1-1.9v-2.2c0-1.3,0.6-1.7,1.3-2h3.3c0.7,0.3,1.3,0.7,1.3,2v1.9H132v-2.1l-0.4-0.4h-1.6
				l-0.4,0.4v2.4l0.4,0.4l2.6,0.7C133.4,413.6,133.8,414.1,133.8,415.3z"/>
			<path class="st5" d="M135.1,407.9h5.1v1.6h-3.3v3.4h3.1v1.6h-3.1v3.7h3.4v1.6h-5.2V407.9z"/>
			<path class="st5" d="M147.5,417.9c0,1.3-0.6,1.7-1.3,2h-3.3c-0.7-0.3-1.3-0.7-1.3-2v-8c0-1.3,0.6-1.7,1.3-2h3.3
				c0.7,0.3,1.3,0.7,1.3,2v2.7h-1.8v-2.8l-0.4-0.4h-1.6l-0.4,0.4v8.3l0.4,0.4h1.6l0.4-0.4v-2.7h1.8V417.9z"/>
			<path class="st5" d="M152.2,409.5v10.3h-1.8v-10.3h-2.1v-1.6h6.1v1.6H152.2z"/>
			<path class="st5" d="M161.1,417.9c0,1.3-0.6,1.7-1.3,2h-3.3c-0.7-0.3-1.3-0.7-1.3-2v-8c0-1.3,0.6-1.7,1.3-2h3.3
				c0.7,0.3,1.3,0.7,1.3,2V417.9z M159.3,409.7l-0.4-0.4h-1.6l-0.4,0.4v8.3l0.4,0.4h1.6l0.4-0.4V409.7z"/>
			<path class="st5" d="M162.5,419.8v-12h4.6c0.7,0.3,1.3,0.7,1.3,2v2.6c0,1.3-0.6,1.6-1.3,1.9l-0.3,0.1l2.1,4.3v1.1h-1.6l-2.2-5.1
				h-0.8v5.1H162.5z M164.3,409.4v3.9h2l0.4-0.4v-3.1l-0.4-0.4H164.3z"/>
			<path class="st5" d="M172.6,419.8v-1.6h1.8v-8.7h-1.7v-1.6h3.5v10.4h1.7v1.6H172.6z"/>
		</g>
		<line class="st14" x1="102.5" y1="413.9" x2="123.7" y2="413.9"/>
		<g>
			<path class="st5" d="M223.9,415.3v2.6c0,1.3-0.6,1.7-1.3,2h-3.3c-0.7-0.3-1.3-0.7-1.3-2v-2h1.8v2.1l0.4,0.4h1.6l0.4-0.4v-2.8
				l-0.3-0.4l-2.6-0.8c-0.8-0.3-1.1-0.8-1.1-1.9v-2.2c0-1.3,0.6-1.7,1.3-2h3.3c0.7,0.3,1.3,0.7,1.3,2v1.9h-1.8v-2.1l-0.4-0.4h-1.6
				l-0.4,0.4v2.4l0.4,0.4l2.6,0.7C223.5,413.6,223.9,414.1,223.9,415.3z"/>
			<path class="st5" d="M225.2,407.9h5.1v1.6H227v3.4h3.1v1.6H227v3.7h3.4v1.6h-5.2V407.9z"/>
			<path class="st5" d="M237.6,417.9c0,1.3-0.6,1.7-1.3,2h-3.3c-0.7-0.3-1.3-0.7-1.3-2v-8c0-1.3,0.6-1.7,1.3-2h3.3
				c0.7,0.3,1.3,0.7,1.3,2v2.7h-1.8v-2.8l-0.4-0.4h-1.6l-0.4,0.4v8.3l0.4,0.4h1.6l0.4-0.4v-2.7h1.8V417.9z"/>
			<path class="st5" d="M242.3,409.5v10.3h-1.8v-10.3h-2.1v-1.6h6.1v1.6H242.3z"/>
			<path class="st5" d="M251.2,417.9c0,1.3-0.6,1.7-1.3,2h-3.3c-0.7-0.3-1.3-0.7-1.3-2v-8c0-1.3,0.6-1.7,1.3-2h3.3
				c0.7,0.3,1.3,0.7,1.3,2V417.9z M249.4,409.7l-0.4-0.4h-1.6l-0.4,0.4v8.3l0.4,0.4h1.6l0.4-0.4V409.7z"/>
			<path class="st5" d="M252.6,419.8v-12h4.6c0.7,0.3,1.3,0.7,1.3,2v2.6c0,1.3-0.6,1.6-1.3,1.9l-0.3,0.1l2.1,4.3v1.1h-1.6l-2.2-5.1
				h-0.8v5.1H252.6z M254.4,409.4v3.9h2l0.4-0.4v-3.1l-0.4-0.4H254.4z"/>
			<path class="st5" d="M262.3,419.8v-3.6c0-1.1,0.4-1.7,1.2-2.1l3-1.2v-3.2l-0.4-0.4h-1.7l-0.4,0.4v2h-1.8v-1.9
				c0-1.3,0.6-1.7,1.3-2h3.3c0.7,0.3,1.3,0.7,1.3,2v2.5c0,1.1-0.3,1.7-1.1,2.1l-3,1.2v2.5h4.1v1.6H262.3z"/>
		</g>
		<line class="st15" x1="192.6" y1="413.9" x2="213.8" y2="413.9"/>
		<g>
			<path class="st5" d="M313.7,415.3v2.6c0,1.3-0.6,1.7-1.3,2h-3.3c-0.7-0.3-1.3-0.7-1.3-2v-2h1.8v2.1l0.4,0.4h1.6l0.4-0.4v-2.8
				l-0.3-0.4L309,414c-0.8-0.3-1.1-0.8-1.1-1.9v-2.2c0-1.3,0.6-1.7,1.3-2h3.3c0.7,0.3,1.3,0.7,1.3,2v1.9h-1.8v-2.1l-0.4-0.4H310
				l-0.4,0.4v2.4l0.4,0.4l2.6,0.7C313.4,413.6,313.7,414.1,313.7,415.3z"/>
			<path class="st5" d="M315.1,407.9h5.1v1.6h-3.3v3.4h3.1v1.6h-3.1v3.7h3.4v1.6h-5.2V407.9z"/>
			<path class="st5" d="M327.4,417.9c0,1.3-0.6,1.7-1.3,2h-3.3c-0.7-0.3-1.3-0.7-1.3-2v-8c0-1.3,0.6-1.7,1.3-2h3.3
				c0.7,0.3,1.3,0.7,1.3,2v2.7h-1.8v-2.8l-0.4-0.4h-1.6l-0.4,0.4v8.3l0.4,0.4h1.6l0.4-0.4v-2.7h1.8V417.9z"/>
			<path class="st5" d="M332.1,409.5v10.3h-1.8v-10.3h-2.1v-1.6h6.1v1.6H332.1z"/>
			<path class="st5" d="M341,417.9c0,1.3-0.6,1.7-1.3,2h-3.3c-0.7-0.3-1.3-0.7-1.3-2v-8c0-1.3,0.6-1.7,1.3-2h3.3
				c0.7,0.3,1.3,0.7,1.3,2V417.9z M339.2,409.7l-0.4-0.4h-1.6l-0.4,0.4v8.3l0.4,0.4h1.6l0.4-0.4V409.7z"/>
			<path class="st5" d="M342.4,419.8v-12h4.6c0.7,0.3,1.3,0.7,1.3,2v2.6c0,1.3-0.6,1.6-1.3,1.9l-0.3,0.1l2.1,4.3v1.1h-1.6l-2.2-5.1
				h-0.8v5.1H342.4z M344.2,409.4v3.9h2l0.4-0.4v-3.1l-0.4-0.4H344.2z"/>
			<path class="st5" d="M353.4,419.8c-0.7-0.3-1.3-0.7-1.3-2v-1.7h1.8v1.8l0.4,0.4h1.7l0.4-0.4v-3.2l-0.4-0.3h-1.8V413h1.8l0.4-0.4
				v-3l-0.4-0.4h-1.7l-0.4,0.4v1.8h-1.8v-1.7c0-1.3,0.6-1.7,1.3-2h3.3c0.7,0.3,1.3,0.7,1.3,2v1.9c0,1-0.2,1.5-0.9,1.9
				c0.6,0.4,0.9,0.9,0.9,1.9v2.2c0,1.3-0.6,1.7-1.3,2H353.4z"/>
		</g>
		<line class="st16" x1="282.4" y1="413.9" x2="303.7" y2="413.9"/>
		<g>
			<path class="st5" d="M403.6,417.9c0,1.3-0.6,1.7-1.3,2h-4.6v-12h4.6c0.7,0.3,1.3,0.7,1.3,2V417.9z M399.5,409.4v9h2l0.4-0.4v-8.3
				l-0.4-0.4H399.5z"/>
			<path class="st5" d="M405,419.8v-12h4.6c0.7,0.3,1.3,0.7,1.3,2v2.6c0,1.3-0.6,1.6-1.3,1.9l-0.3,0.1l2.1,4.3v1.1h-1.6l-2.2-5.1
				h-0.8v5.1H405z M406.8,409.4v3.9h2l0.4-0.4v-3.1l-0.4-0.4H406.8z"/>
			<path class="st5" d="M418.1,415.3v2.6c0,1.3-0.6,1.7-1.3,2h-3.3c-0.7-0.3-1.3-0.7-1.3-2v-2h1.8v2.1l0.4,0.4h1.6l0.4-0.4v-2.8
				l-0.3-0.4l-2.6-0.8c-0.8-0.3-1.1-0.8-1.1-1.9v-2.2c0-1.3,0.6-1.7,1.3-2h3.3c0.7,0.3,1.3,0.7,1.3,2v1.9h-1.8v-2.1l-0.4-0.4h-1.6
				l-0.4,0.4v2.4l0.4,0.4l2.6,0.7C417.7,413.6,418.1,414.1,418.1,415.3z"/>
			<path class="st5" d="M425.6,409.5h-3.9v-1.6h5.8v1.5l-4,8.9h4v1.6h-5.9v-1.5L425.6,409.5z"/>
			<path class="st5" d="M434.8,417.9c0,1.3-0.6,1.7-1.3,2h-3.3c-0.7-0.3-1.3-0.7-1.3-2v-8c0-1.3,0.6-1.7,1.3-2h3.3
				c0.7,0.3,1.3,0.7,1.3,2V417.9z M433,409.7l-0.4-0.4H431l-0.4,0.4v8.3l0.4,0.4h1.6l0.4-0.4V409.7z"/>
			<path class="st5" d="M440.5,407.9h1.6v12h-1.6l-2.6-7.1h-0.2v7.1h-1.6v-12h1.6l2.6,7.1h0.2V407.9z"/>
			<path class="st5" d="M443.5,407.9h5.1v1.6h-3.3v3.4h3.1v1.6h-3.1v3.7h3.4v1.6h-5.2V407.9z"/>
		</g>
		<g>
			<g>
				<g>
					<g>
						<line class="st17" x1="373.7" y1="406.5" x2="373.7" y2="421.4"/>
					</g>
					<g>
						<path class="st7" d="M381.3,413.9c0,0.8-0.7,1.4-1.5,1.4c-0.8,0-1.5-0.6-1.5-1.4c0-0.8,0.7-1.4,1.5-1.4
							C380.7,412.5,381.3,413.2,381.3,413.9z"/>
					</g>
					<g>
						<ellipse class="st7" cx="385.9" cy="413.9" rx="1.5" ry="1.4"/>
					</g>
					<g>
						<line class="st17" x1="392" y1="406.5" x2="392" y2="421.4"/>
					</g>
				</g>
			</g>
		</g>
	</g>
	<g>
		<defs>
			
				<rect id="SVGID_1_" x="509.8" y="160.8" transform="matrix(0.1195 0.9928 -0.9928 0.1195 622.5812 -371.9353)" width="22.3" height="8.5"/>
		</defs>
		<clipPath id="SVGID_00000062192139951111378610000016057288085692709512_">
			<use xlink:href="#SVGID_1_"  style="overflow:visible;"/>
		</clipPath>
		<g style="clip-path:url(#SVGID_00000062192139951111378610000016057288085692709512_);">
			<polygon class="st19" points="515.1,175.7 514.8,172.9 521.1,166.4 528.9,171.2 529.2,174 521.5,169.2 			"/>
			<polygon class="st20" points="514.4,170.1 514.1,167.3 520.5,160.8 528.2,165.6 528.5,168.4 520.8,163.6 			"/>
			<polygon class="st21" points="513.8,164.5 513.4,161.6 519.8,155.2 527.5,160 527.8,162.8 520.1,158 			"/>
		</g>
	</g>
</g>
</svg>
