<?xml version="1.0" encoding="utf-8"?>
<!-- Generator: Adobe Illustrator 26.5.0, SVG Export Plug-In . SVG Version: 6.00 Build 0)  -->
<svg version="1.1" xmlns="http://www.w3.org/2000/svg" xmlns:xlink="http://www.w3.org/1999/xlink" x="0px" y="0px"
	 viewBox="0.0 0.0 550.0 378.0" style="enable-background:new 0 0 550 443.7;" xml:space="preserve">
<style type="text/css">
	.st0{fill:none;stroke:#646464;stroke-width:5.775;stroke-miterlimit:10;}
	.st1{fill:none;stroke:#FFD449;stroke-width:1.155;stroke-miterlimit:10;}
	.st2{fill:none;stroke:#54C6EB;stroke-width:1.155;stroke-miterlimit:10;}
	.st3{fill:none;stroke:#F4442E;stroke-width:1.155;stroke-miterlimit:10;}
	.st4{fill:none;stroke:#FFFFFF;stroke-width:0.866;}
	.st5{fill:#646464;}
	.st6{fill:#FFFFFF;}
	.st7{fill:#09BC8A;}
	.st8{fill:none;stroke:#646464;stroke-width:1.155;stroke-miterlimit:10;}
	.st9{fill:none;stroke:#09BC8A;stroke-width:0.809;stroke-miterlimit:10;}
	.st10{fill:none;stroke:#09BC8A;stroke-width:0.900;stroke-miterlimit:10;}
	.st11{fill:#FF3380;}
	.st12{fill:none;stroke:#FF3380;stroke-width:0.809;stroke-miterlimit:10;}
	.st13{fill:none;stroke:#646464;stroke-width:0.289;stroke-miterlimit:10;}
	.st14{fill:none;stroke:#F4442E;stroke-width:2.310;stroke-miterlimit:10;}
	.st15{fill:none;stroke:#54C6EB;stroke-width:2.310;stroke-miterlimit:10;}
	.st16{fill:none;stroke:#FFD449;stroke-width:2.310;stroke-miterlimit:10;}
	.st17{fill:none;stroke:#09BC8A;stroke-width:1.155;stroke-miterlimit:10;}
	.st18{clip-path:url(#SVGID_00000084524135619828616440000008983860963451778445_);}
	.st19{fill:#F4442E;}
	.st20{fill:#54C6EB;}
	.st21{fill:#FFD449;}
</style>
<g id="コース">
	<path class="st0" d="M509.4,232.3c0,0-21.1-155.9-21.9-161.9c-0.9-6-3.7-7.5-8.8-6.9c-5.2,0.6-11.4,0.9-17.2-2.6s-6.2-6-7.7-9
		c-1.5-3-3.5-5.8-8.1-5.8s-7.3,4.5-7.8,8.5s-2,20.8-2,25.5c0,4.7,2.4,12.6,4.3,17.7s13,32,14.5,40.3c1.5,8.3,1.8,24.4,1.8,27.2
		c0,4.5-5.9,11.2-17.8,11.2s-123.8-7-128-7.2s-15.7-3.9-22-7.6c-6.4-3.7-82.9-49.6-85.6-51s-5.7-0.4-7.1,1.4
		c-1.4,1.9-18.9,25.6-21.3,29.6c-2.4,4.1-9.7,18.3-10.9,21c-2,4.4-5.1,6.6-8.9,1.9c-4.5-5.6-11.5-15-16-19
		c-4.5-4-16.9-15.1-20.6-17.1c-3.7-2-7.7-1.6-9.8-0.3c-2.1,1.3-8.7,7.4-10.6,10.8c-2,3.4-44.7,82.1-47,86.2
		c-2.3,4.1-8.7,13.6-10.4,15.6c-1.8,2-2.4,3.7-1.9,6.5c0.5,2.7,4.9,12.7,6.4,14.3s9.7,7.9,11.7,9.1s4.7,2.7,7.5,2.9
		c2.7,0.1,4.7,0.5,6.3,1.9c1.5,1.3,1.3,3.6,1.3,5.9s0.2,11.2,0.4,14c0.2,2.9,2,7,5.2,9.5c3.2,2.5,21.4,17.1,24.4,20
		c4.7,4.6,9.5,10.6,11.6,15.8c2.8,6.6,9.4,3.7,9.7-0.4c0.2-2.7,11.5-64.9,12.7-73.5c1.2-8.7,4.7-24.3,11.6-43.8
		c6.9-19.5,14.6-40.8,15.5-43s3.4-3.8,6.7-1.4c3.3,2.4,49,39.9,53.5,43c6.3,4.5,10.6,8.5,22.8,8.5c8.9,0,10.9,0,12.8,0
		c2,0,5.7,1.2,5.7,6c0,4.8,0,11.1,0,14.2s2.5,12.3,13.2,12.7c13.6,0.5,53.7,2.9,56,3c2.3,0.1,4.8-1.5,5.4-5.5c0.5-4,4-17,4.6-20.2
		s2.9-4,7.4-4s34.5,2,36.8,2.3s4.5,1.8,4.5,6.6c0,3,0,4.9,0,7.4c0,2.4,1.6,6.3,4.7,9.1c3.1,2.9,9,4.2,13.6,4.2
		c6.5,0,72.1,3.7,76.5,4c4.2,0.2,5.8-0.4,8.7-4c2.9-3.5,11.5-18,12.7-19.9c1.2-1.9,1.8-3.8,1.6-5.9
		C509.7,237.6,509.4,232.3,509.4,232.3z"/>
</g>
<g id="セクター">
	<path class="st1" d="M153.3,205.4c4.7-13.2,8.7-24.2,9.3-25.7c0.9-2.2,3.4-3.8,6.7-1.4c3.3,2.4,49,39.9,53.5,43
		c6.3,4.5,10.6,8.5,22.8,8.5c8.9,0,10.9,0,12.8,0c2,0,5.7,1.2,5.7,6c0,4.8,0,11.1,0,14.2s2.5,12.3,13.2,12.7c13.6,0.5,53.7,2.9,56,3
		c2.3,0.1,4.8-1.5,5.4-5.5c0.5-4,4-17,4.6-20.2s2.9-4,7.4-4s34.5,2,36.8,2.3s4.5,1.8,4.5,6.6c0,3,0,4.9,0,7.4c0,2.4,1.6,6.3,4.7,9.1
		c3.1,2.9,9,4.2,13.6,4.2c6.5,0,72.1,3.7,76.5,4c4.2,0.2,5.8-0.4,8.7-4c2.9-3.5,11.5-18,12.7-19.9c1.2-1.9,1.8-3.8,1.6-5.9
		c-0.1-2.1-0.4-7.4-0.4-7.4s-1-7.1-2.5-18.4"/>
	<path class="st2" d="M240.7,133.1c-18.9-11.3-36.5-21.8-37.8-22.5c-2.7-1.4-5.7-0.4-7.1,1.4c-1.4,1.9-18.9,25.6-21.3,29.6
		c-2.4,4.1-9.7,18.3-10.9,21c-2,4.4-5.1,6.6-8.9,1.9c-4.5-5.6-11.5-15-16-19c-4.5-4-16.9-15.1-20.6-17.1c-3.7-2-7.7-1.6-9.8-0.3
		c-2.1,1.3-8.7,7.4-10.6,10.8c-2,3.4-44.7,82.1-47,86.2c-2.3,4.1-8.7,13.6-10.4,15.6c-1.8,2-2.4,3.7-1.9,6.5
		c0.5,2.7,4.9,12.7,6.4,14.3s9.7,7.9,11.7,9.1s4.7,2.7,7.5,2.9c2.7,0.1,4.7,0.5,6.3,1.9c1.5,1.3,1.3,3.6,1.3,5.9s0.2,11.2,0.4,14
		c0.2,2.9,2,7,5.2,9.5c3.2,2.5,21.4,17.1,24.4,20c4.7,4.6,9.5,10.6,11.6,15.8c2.8,6.6,9.4,3.7,9.7-0.4c0.2-2.7,11.5-64.9,12.7-73.5
		c1.2-8.7,4.7-24.3,11.6-43.8c2-5.8,4.2-11.7,6.1-17.3"/>
	<path class="st3" d="M506.9,213.9c-5.6-41.4-18.8-138.7-19.4-143.5c-0.9-6-3.7-7.5-8.8-6.9c-5.2,0.6-11.4,0.9-17.2-2.6
		s-6.2-6-7.7-9c-1.5-3-3.5-5.8-8.1-5.8s-7.3,4.5-7.8,8.5s-2,20.8-2,25.5c0,4.7,2.4,12.6,4.3,17.7s13,32,14.5,40.3
		c1.5,8.3,1.8,24.4,1.8,27.2c0,4.5-5.9,11.2-17.8,11.2s-123.8-7-128-7.2s-15.7-3.9-22-7.6c-3.4-2-26.4-15.8-47.8-28.6"/>
</g>
<g id="コーナー番号">
	<g>
		<g>
			
			
		</g>
		<g>
			
		</g>
	</g>
	<g>
		<g>
			
			
		</g>
		<g>
			
		</g>
	</g>
	<g>
		<g>
			
			
		</g>
		<g>
			
		</g>
	</g>
	<g>
		<g>
			
			
		</g>
		<g>
			
		</g>
	</g>
	<g>
		<g>
			
			
		</g>
		<g>
			
		</g>
	</g>
	<g>
		<g>
			
			
		</g>
		<g>
			
		</g>
	</g>
	<g>
		<g>
			
			
		</g>
		<g>
			
		</g>
	</g>
	<g>
		<g>
			
			
		</g>
		<g>
			
		</g>
	</g>
	<g>
		<g>
			
			
		</g>
		<g>
			
		</g>
	</g>
	<g>
		<g>
			
			
		</g>
		<g>
			
			
		</g>
	</g>
	<g>
		<g>
			
			
		</g>
		<g>
			
			
		</g>
	</g>
	<g>
		<g>
			
			
		</g>
		<g>
			
			
		</g>
	</g>
	<g>
		<g>
			
			
		</g>
		<g>
			
			
		</g>
	</g>
	<g>
		<g>
			
			
		</g>
		<g>
			
			
		</g>
	</g>
	<g>
		<g>
			
			
		</g>
		<g>
			
			
		</g>
	</g>
	<g>
		<g>
			
			
		</g>
		<g>
			
			
		</g>
	</g>
	<g>
		<g>
			
			
		</g>
		<g>
			
			
		</g>
	</g>
	<g>
		<g>
			
			
		</g>
		<g>
			
			
		</g>
	</g>
	<g>
		<g>
			
			
		</g>
		<g>
			
			
		</g>
	</g>
	<g>
		<g>
			
			
		</g>
		<g>
			
			
		</g>
	</g>
	<g>
		<g>
			
			
		</g>
		<g>
			
			
		</g>
	</g>
	<g>
		<g>
			
			
		</g>
		<g>
			
			
		</g>
	</g>
	<g>
		<g>
			
			
		</g>
		<g>
			
			
		</g>
	</g>
</g>



</svg>
