<?xml version="1.0" encoding="utf-8"?>
<!-- Generator: Adobe Illustrator 27.2.0, SVG Export Plug-In . SVG Version: 6.00 Build 0)  -->
<svg version="1.1" xmlns="http://www.w3.org/2000/svg" xmlns:xlink="http://www.w3.org/1999/xlink" x="0px" y="0px"
	 viewBox="0.0 0.0 700.0 426.1" style="enable-background:new 0 0 700 480;" xml:space="preserve">
<style type="text/css">
	.st0{fill:none;stroke:#646464;stroke-width:7.350;stroke-linecap:round;stroke-linejoin:round;stroke-miterlimit:10;}
	.st1{fill:none;stroke:#FFD449;stroke-width:1.470;stroke-miterlimit:10;}
	.st2{fill:none;stroke:#54C6EB;stroke-width:1.470;stroke-miterlimit:10;}
	.st3{fill:none;stroke:#F4442E;stroke-width:1.470;stroke-miterlimit:10;}
	.st4{fill:none;stroke:#FFFFFF;stroke-width:1.103;}
	.st5{fill:#646464;}
	.st6{fill:#FFFFFF;}
	.st7{fill:none;stroke:#646464;stroke-width:1.470;stroke-miterlimit:10;}
	.st8{fill:#FF3380;}
	.st9{fill:none;stroke:#FF3380;stroke-width:1.029;stroke-miterlimit:10;}
	.st10{fill:#09BC8A;}
	.st11{fill:none;stroke:#09BC8A;stroke-width:1.029;stroke-miterlimit:10;}
	.st12{fill:none;stroke:#09BC8A;stroke-width:1.470;stroke-miterlimit:10;}
	.st13{fill:none;stroke:#646464;stroke-width:0.368;stroke-miterlimit:10;}
	.st14{fill:none;stroke:#F4442E;stroke-width:2.940;stroke-miterlimit:10;}
	.st15{fill:none;stroke:#54C6EB;stroke-width:2.940;stroke-miterlimit:10;}
	.st16{fill:none;stroke:#FFD449;stroke-width:2.940;stroke-miterlimit:10;}
	.st17{clip-path:url(#SVGID_00000036242425255106921890000009692176625906198433_);}
	.st18{fill:#F4442E;}
	.st19{fill:#54C6EB;}
	.st20{fill:#FFD449;}
</style>
<g id="コース">
	<path class="st0" d="M530.3,135.9c-16.7,15.4-91,76.8-96.6,81.2c-4.1,3.3-11,6.1-1.8,14.5c2.7,2.4,2.5,6.4,0.1,8.6
		c-2.9,2.9-8.8,3.8-12,4c-7.8,0.4-18.3-1.2-25.5,2.8c-11.5,6.3-38.2,22.1-45.7,26.5c-7.5,4.4-14.8,8.3-18.6,9.8
		c-5.4,2.1-5.6,2.2-5.6,7.8c0.1,12.3-3.8,21.4-13.8,26.8c-9.2,5-17.6,4.2-22.8,2.6c-7-2-13-4-22.7,2c-7.5,4.7-12.7,9.7-14.5,11.4
		c-1.8,1.8-3.3,7.2-3.5,11.6c-0.3,6.8-4.7,9.1-10.7,11.9c-4.4,2.1-18.2,8.1-24,8.9c-6.4,0.9-14.3-4.3-18.2-9.1
		c-4-4.8-10.5-11.6-22.2-7.1c-9.2,3.5-15.8,3.3-21.5,3.2c-7.6-0.2-22.5,0.4-30.3,4.3c-2.4,1.2-17.8,7-35,14.4
		c-25.3,10.8-55.1,24.2-58.5,26c-5.7,3.1-15.9,12.5-4.8,26.3c10.5,13.2,33.8-2.2,38.6-10.5c4.8-8.3,18.4-23.7,31.6-29
		s27.7-6.6,41.7-4s22.4-2.2,27.2-3.5c4.8-1.3,13.2-4.4,19.3,7.5c6.1,11.9,25.9,7.9,31.2,5.7c5.3-2.2,24.1-7,39.1-24.6
		s33.5-30.6,44.5-32.6c11.2-2,37.2-13.5,48.6-31.9c10.9-17.6,26-28.4,35.1-33.8c12.7-7.5,33.5-14.1,47.9-14.9
		c10-0.5,12.6-0.4,17.6-12.3c3.9-9.3,5.3-15.5,12-20.5s14-9.1,16.7-10.2c2.6-1.2,9.4-3.5,20.2-1.8c10.8,1.8,44.2,7,60,1.5
		c15.8-5.6,35.8-17.2,50-29.3c22-18.7,40.7-41.3,47.7-65.6c2.6-9,12.3-40.4,13.2-46.8s-0.6-14-7.6-14.9c-7-0.9-13.8,5.3-17.6,7.9
		s-61.2,38.6-67.6,43.6s-19.3,13.5-25.8,18.7C539.5,128.3,530.3,135.9,530.3,135.9z"/>
</g>
<g id="セクター">
	<path class="st1" d="M402.1,257.8c8.7-2.8,17.7-4.7,25-5.1c10-0.5,12.6-0.4,17.6-12.3c3.9-9.3,5.3-15.5,12-20.5s14-9.1,16.7-10.2
		c2.6-1.2,9.4-3.5,20.2-1.8c10.8,1.8,44.2,7,60,1.5c15.8-5.6,35.8-17.2,50-29.3c22-18.7,40.7-41.3,47.7-65.6
		c2.6-9,12.3-40.4,13.2-46.8s-0.6-14-7.6-14.9c-7-0.9-13.8,5.3-17.6,7.9s-61.2,38.6-67.6,43.6s-19.3,13.5-25.8,18.7
		c-5.1,4.2-12,9.9-14.6,12"/>
	<path class="st2" d="M86.6,371.6c-0.3,0.1-0.7,0.3-1,0.4c-25.3,10.8-55.1,24.2-58.5,26c-5.7,3.1-15.9,12.5-4.8,26.3
		c10.5,13.2,33.8-2.2,38.6-10.5c4.8-8.3,18.4-23.7,31.6-29s27.7-6.6,41.7-4s22.4-2.2,27.2-3.5c4.8-1.3,13.2-4.4,19.3,7.5
		c6.1,11.9,25.9,7.9,31.2,5.7c5.3-2.2,24.1-7,39.1-24.6s33.5-30.6,44.5-32.6c11.2-2,37.2-13.5,48.6-31.9
		c10.9-17.6,26-28.4,35.1-33.8c6.2-3.7,14.4-7.1,22.8-9.8"/>
	<path class="st3" d="M531.3,135.1c-0.7,0.5-1,0.9-1,0.9c-16.7,15.4-91,76.8-96.6,81.2c-4.1,3.3-11,6.1-1.8,14.5
		c2.7,2.4,2.5,6.4,0.1,8.6c-2.9,2.9-8.8,3.8-12,4c-7.8,0.4-18.3-1.2-25.5,2.8c-11.5,6.3-38.2,22.1-45.7,26.5
		c-7.5,4.4-14.8,8.3-18.6,9.8c-5.4,2.1-5.6,2.2-5.6,7.8c0.1,12.3-3.8,21.4-13.8,26.8c-9.2,5-17.6,4.2-22.8,2.6c-7-2-13-4-22.7,2
		c-7.5,4.7-12.7,9.7-14.5,11.4c-1.8,1.8-3.3,7.2-3.5,11.6c-0.3,6.8-4.7,9.1-10.7,11.9c-4.4,2.1-18.2,8.1-24,8.9
		c-6.4,0.9-14.3-4.3-18.2-9.1c-4-4.8-10.5-11.6-22.2-7.1c-9.2,3.5-15.8,3.3-21.5,3.2c-7.6-0.2-22.5,0.4-30.3,4.3
		c-2.3,1.1-17.2,6.8-34,14"/>
</g>
<g id="コーナー番号">
	<g>
		<g>
			
			
		</g>
		<g>
			
		</g>
	</g>
	<g>
		<g>
			
			
		</g>
		<g>
			
		</g>
	</g>
	<g>
		<g>
			
			
		</g>
		<g>
			
		</g>
	</g>
	<g>
		<g>
			
			
		</g>
		<g>
			
		</g>
	</g>
	<g>
		<g>
			
			
		</g>
		<g>
			
		</g>
	</g>
	<g>
		<g>
			
			
		</g>
		<g>
			
		</g>
	</g>
	<g>
		<g>
			
			
		</g>
		<g>
			
		</g>
	</g>
	<g>
		<g>
			
			
		</g>
		<g>
			
		</g>
	</g>
	<g>
		<g>
			
			
		</g>
		<g>
			
		</g>
	</g>
	<g>
		<g>
			
			
		</g>
		<g>
			
			
		</g>
	</g>
	<g>
		<g>
			
			
		</g>
		<g>
			
			
		</g>
	</g>
	<g>
		<g>
			
			
		</g>
		<g>
			
			
		</g>
	</g>
	<g>
		<g>
			
			
		</g>
		<g>
			
			
		</g>
	</g>
	<g>
		<g>
			
			
		</g>
		<g>
			
			
		</g>
	</g>
	<g>
		<g>
			
			
		</g>
		<g>
			
			
		</g>
	</g>
	<g>
		<g>
			
			
		</g>
		<g>
			
			
		</g>
	</g>
	<g>
		<g>
			
			
		</g>
		<g>
			
			
		</g>
	</g>
	<g>
		<g>
			
			
		</g>
		<g>
			
			
		</g>
	</g>
	<g>
		<g>
			
			
		</g>
		<g>
			
			
		</g>
	</g>
	<g>
		<g>
			
			
		</g>
		<g>
			
			
		</g>
	</g>
	<g>
		<g>
			
			
		</g>
		<g>
			
			
		</g>
	</g>
	<g>
		<g>
			
			
		</g>
		<g>
			
			
		</g>
	</g>
	<g>
		<g>
			
			
		</g>
		<g>
			
			
		</g>
	</g>
	<g>
		<g>
			
			
		</g>
		<g>
			
			
		</g>
	</g>
	<g>
		<g>
			
			
		</g>
		<g>
			
			
		</g>
	</g>
	<g>
		<g>
			
			
		</g>
		<g>
			
			
		</g>
	</g>
	<g>
		<g>
			
			
		</g>
		<g>
			
			
		</g>
	</g>
</g>



</svg>
