<?xml version="1.0" encoding="utf-8"?>
<!-- Generator: Adobe Illustrator 27.2.0, SVG Export Plug-In . SVG Version: 6.00 Build 0)  -->
<svg version="1.1" xmlns="http://www.w3.org/2000/svg" xmlns:xlink="http://www.w3.org/1999/xlink" x="0px" y="0px"
	 viewBox="0 0 700 437" style="enable-background:new 0 0 700 480;" xml:space="preserve">
<style type="text/css">
	.st0{fill:none;stroke:#646464;stroke-width:14.1732;stroke-linecap:round;stroke-linejoin:round;stroke-miterlimit:10;}
	.st1{fill:none;stroke:#FFD449;stroke-width:2.8346;stroke-miterlimit:10;}
	.st2{fill:none;stroke:#54C6EB;stroke-width:2.8346;stroke-miterlimit:10;}
	.st3{fill:none;stroke:#F4442E;stroke-width:2.8346;stroke-miterlimit:10;}
	.st4{fill:none;stroke:#FFFFFF;stroke-width:2.126;}
	.st5{fill:#646464;}
	.st6{fill:#FFFFFF;}
	.st7{fill:none;stroke:#646464;stroke-width:2.8346;stroke-miterlimit:10;}
	.st8{fill:#FF3380;}
	.st9{fill:none;stroke:#FF3380;stroke-width:1.9843;stroke-miterlimit:10;}
	.st10{fill:#09BC8A;}
	.st11{fill:none;stroke:#09BC8A;stroke-width:1.9843;stroke-miterlimit:10;}
	.st12{fill:none;stroke:#09BC8A;stroke-width:2.8346;stroke-miterlimit:10;}
	.st13{fill:none;stroke:#646464;stroke-width:0.7087;stroke-miterlimit:10;}
	.st14{fill:none;stroke:#F4442E;stroke-width:5.6693;stroke-miterlimit:10;}
	.st15{fill:none;stroke:#54C6EB;stroke-width:5.6693;stroke-miterlimit:10;}
	.st16{fill:none;stroke:#FFD449;stroke-width:5.6693;stroke-miterlimit:10;}
	.st17{clip-path:url(#SVGID_00000036242425255106921890000009692176625906198433_);}
	.st18{fill:#F4442E;}
	.st19{fill:#54C6EB;}
	.st20{fill:#FFD449;}
</style>
<g id="コース">
	<path class="st0" d="M530.3,135.9c-16.7,15.4-91,76.8-96.6,81.2c-4.1,3.3-11,6.1-1.8,14.5c2.7,2.4,2.5,6.4,0.1,8.6
		c-2.9,2.9-8.8,3.8-12,4c-7.8,0.4-18.3-1.2-25.5,2.8c-11.5,6.3-38.2,22.1-45.7,26.5c-7.5,4.4-14.8,8.3-18.6,9.8
		c-5.4,2.1-5.6,2.2-5.6,7.8c0.1,12.3-3.8,21.4-13.8,26.8c-9.2,5-17.6,4.2-22.8,2.6c-7-2-13-4-22.7,2c-7.5,4.7-12.7,9.7-14.5,11.4
		c-1.8,1.8-3.3,7.2-3.5,11.6c-0.3,6.8-4.7,9.1-10.7,11.9c-4.4,2.1-18.2,8.1-24,8.9c-6.4,0.9-14.3-4.3-18.2-9.1
		c-4-4.8-10.5-11.6-22.2-7.1c-9.2,3.5-15.8,3.3-21.5,3.2c-7.6-0.2-22.5,0.4-30.3,4.3c-2.4,1.2-17.8,7-35,14.4
		c-25.3,10.8-55.1,24.2-58.5,26c-5.7,3.1-15.9,12.5-4.8,26.3c10.5,13.2,33.8-2.2,38.6-10.5c4.8-8.3,18.4-23.7,31.6-29
		s27.7-6.6,41.7-4s22.4-2.2,27.2-3.5c4.8-1.3,13.2-4.4,19.3,7.5c6.1,11.9,25.9,7.9,31.2,5.7c5.3-2.2,24.1-7,39.1-24.6
		s33.5-30.6,44.5-32.6c11.2-2,37.2-13.5,48.6-31.9c10.9-17.6,26-28.4,35.1-33.8c12.7-7.5,33.5-14.1,47.9-14.9
		c10-0.5,12.6-0.4,17.6-12.3c3.9-9.3,5.3-15.5,12-20.5s14-9.1,16.7-10.2c2.6-1.2,9.4-3.5,20.2-1.8c10.8,1.8,44.2,7,60,1.5
		c15.8-5.6,35.8-17.2,50-29.3c22-18.7,40.7-41.3,47.7-65.6c2.6-9,12.3-40.4,13.2-46.8s-0.6-14-7.6-14.9c-7-0.9-13.8,5.3-17.6,7.9
		s-61.2,38.6-67.6,43.6s-19.3,13.5-25.8,18.7C539.5,128.3,530.3,135.9,530.3,135.9z"/>
</g>
<g id="セクター">
	<path class="st1" d="M402.1,257.8c8.7-2.8,17.7-4.7,25-5.1c10-0.5,12.6-0.4,17.6-12.3c3.9-9.3,5.3-15.5,12-20.5s14-9.1,16.7-10.2
		c2.6-1.2,9.4-3.5,20.2-1.8c10.8,1.8,44.2,7,60,1.5c15.8-5.6,35.8-17.2,50-29.3c22-18.7,40.7-41.3,47.7-65.6
		c2.6-9,12.3-40.4,13.2-46.8s-0.6-14-7.6-14.9c-7-0.9-13.8,5.3-17.6,7.9s-61.2,38.6-67.6,43.6s-19.3,13.5-25.8,18.7
		c-5.1,4.2-12,9.9-14.6,12"/>
	<path class="st2" d="M86.6,371.6c-0.3,0.1-0.7,0.3-1,0.4c-25.3,10.8-55.1,24.2-58.5,26c-5.7,3.1-15.9,12.5-4.8,26.3
		c10.5,13.2,33.8-2.2,38.6-10.5c4.8-8.3,18.4-23.7,31.6-29s27.7-6.6,41.7-4s22.4-2.2,27.2-3.5c4.8-1.3,13.2-4.4,19.3,7.5
		c6.1,11.9,25.9,7.9,31.2,5.7c5.3-2.2,24.1-7,39.1-24.6s33.5-30.6,44.5-32.6c11.2-2,37.2-13.5,48.6-31.9
		c10.9-17.6,26-28.4,35.1-33.8c6.2-3.7,14.4-7.1,22.8-9.8"/>
	<path class="st3" d="M531.3,135.1c-0.7,0.5-1,0.9-1,0.9c-16.7,15.4-91,76.8-96.6,81.2c-4.1,3.3-11,6.1-1.8,14.5
		c2.7,2.4,2.5,6.4,0.1,8.6c-2.9,2.9-8.8,3.8-12,4c-7.8,0.4-18.3-1.2-25.5,2.8c-11.5,6.3-38.2,22.1-45.7,26.5
		c-7.5,4.4-14.8,8.3-18.6,9.8c-5.4,2.1-5.6,2.2-5.6,7.8c0.1,12.3-3.8,21.4-13.8,26.8c-9.2,5-17.6,4.2-22.8,2.6c-7-2-13-4-22.7,2
		c-7.5,4.7-12.7,9.7-14.5,11.4c-1.8,1.8-3.3,7.2-3.5,11.6c-0.3,6.8-4.7,9.1-10.7,11.9c-4.4,2.1-18.2,8.1-24,8.9
		c-6.4,0.9-14.3-4.3-18.2-9.1c-4-4.8-10.5-11.6-22.2-7.1c-9.2,3.5-15.8,3.3-21.5,3.2c-7.6-0.2-22.5,0.4-30.3,4.3
		c-2.3,1.1-17.2,6.8-34,14"/>
</g>
<g id="コーナー番号">
	<g>
		<g>
			<circle class="st4" cx="417.8" cy="218.7" r="6.4"/>
			<circle class="st5" cx="417.8" cy="218.7" r="6.4"/>
		</g>
		<g>
			<path class="st6" d="M416.5,221.6v-1.2h0.7v-3.3h-0.6v-1.2h1.9v4.5h0.6v1.2H416.5z"/>
		</g>
	</g>
	<g>
		<g>
			<circle class="st4" cx="419.9" cy="234" r="6.4"/>
			<circle class="st5" cx="419.9" cy="234" r="6.4"/>
		</g>
		<g>
			<path class="st6" d="M418.4,236.9V235c0-0.4,0.1-0.7,0.4-0.9l1.4-0.6v-1.2l-0.1-0.1h-0.4l-0.1,0.1v0.8h-1.3v-1
				c0-0.6,0.3-0.8,0.6-1h1.9c0.4,0.1,0.6,0.4,0.6,1v1.4c0,0.4-0.1,0.7-0.4,0.9l-1.4,0.6v0.6h1.8v1.2H418.4z"/>
		</g>
	</g>
	<g>
		<g>
			<circle class="st4" cx="394.7" cy="230.7" r="6.4"/>
			<circle class="st5" cx="394.7" cy="230.7" r="6.4"/>
		</g>
		<g>
			<path class="st6" d="M393.8,233.6c-0.4-0.1-0.6-0.4-0.6-1v-0.8h1.3v0.6l0.1,0.1h0.4l0.1-0.1v-1.2l-0.1-0.1h-0.7v-1h0.7l0.1-0.1
				V229l-0.1-0.1h-0.4l-0.1,0.1v0.6h-1.3v-0.8c0-0.6,0.3-0.8,0.6-1h1.9c0.4,0.1,0.6,0.4,0.6,1v1c0,0.4-0.1,0.7-0.4,0.9
				c0.3,0.2,0.4,0.5,0.4,0.9v1.1c0,0.6-0.3,0.8-0.6,1H393.8z"/>
		</g>
	</g>
	<g>
		<g>
			<circle class="st4" cx="313.3" cy="275.4" r="6.4"/>
			<circle class="st5" cx="313.3" cy="275.4" r="6.4"/>
		</g>
		<g>
			<path class="st6" d="M314.5,277.1v1.1h-1.3v-1.1h-1.7V276l1.2-3.5h1.3l-1.2,3.4h0.4v-0.3l0.3-0.8h1v1.1h0.4v1.2H314.5z"/>
		</g>
	</g>
	<g>
		<g>
			<circle class="st4" cx="303.7" cy="304.2" r="6.4"/>
			<circle class="st5" cx="303.7" cy="304.2" r="6.4"/>
		</g>
		<g>
			<path class="st6" d="M302.8,307.1c-0.4-0.1-0.6-0.4-0.6-1v-0.8h1.2v0.6l0.1,0.1h0.5l0.1-0.1v-1.6l-0.1-0.1h-0.5l-0.1,0.1v0.3
				h-1.2v-3.4h3v1.1h-1.8v1.2l0.3-0.3h1c0.4,0.1,0.6,0.4,0.6,1v1.8c0,0.6-0.3,0.8-0.6,1H302.8z"/>
		</g>
	</g>
	<g>
		<g>
			<circle class="st4" cx="274.6" cy="303.1" r="6.4"/>
			<circle class="st5" cx="274.6" cy="303.1" r="6.4"/>
		</g>
		<g>
			<path class="st6" d="M275.5,306h-1.9c-0.4-0.1-0.6-0.4-0.6-1v-3.8c0-0.6,0.3-0.8,0.6-1h1.9c0.4,0.1,0.6,0.4,0.6,1v0.8h-1.3v-0.6
				l-0.1-0.1h-0.4l-0.1,0.1v1.3l0.2-0.2h1c0.4,0.1,0.6,0.3,0.6,1v1.6C276.1,305.7,275.9,305.9,275.5,306z M274.8,305L274.8,305
				l0.1-1.5l-0.1-0.1h-0.4l-0.1,0.1v1.4l0.1,0.1H274.8z"/>
		</g>
	</g>
	<g>
		<g>
			<circle class="st4" cx="236.3" cy="327.2" r="6.4"/>
			<circle class="st5" cx="236.3" cy="327.2" r="6.4"/>
		</g>
		<g>
			<path class="st6" d="M234.9,330.1l1.6-4.6h-1.8v-1.1h3.1v0.9l-1.6,4.9H234.9z"/>
		</g>
	</g>
	<g>
		<g>
			<circle class="st4" cx="234.6" cy="345.1" r="6.4"/>
			<circle class="st5" cx="234.6" cy="345.1" r="6.4"/>
		</g>
		<g>
			<path class="st6" d="M233.6,348c-0.4-0.1-0.6-0.4-0.6-1V346c0-0.4,0.1-0.7,0.4-0.9c-0.3-0.2-0.4-0.5-0.4-0.9v-1
				c0-0.6,0.3-0.8,0.6-1h1.9c0.4,0.1,0.6,0.4,0.6,1v1c0,0.4-0.1,0.7-0.4,0.9c0.3,0.2,0.4,0.5,0.4,0.9v1.1c0,0.6-0.3,0.8-0.6,1H233.6
				z M234.3,344.6L234.3,344.6l0.5,0.1l0.1-0.1v-1.2l-0.1-0.1h-0.4l-0.1,0.1V344.6z M234.8,346.9v-1.2l-0.1-0.1h-0.4l-0.1,0.1v1.2
				l0.1,0.1L234.8,346.9L234.8,346.9z"/>
		</g>
	</g>
	<g>
		<g>
			<circle class="st4" cx="209.5" cy="350.6" r="6.4"/>
			<circle class="st5" cx="209.5" cy="350.6" r="6.4"/>
		</g>
		<g>
			<path class="st6" d="M208.6,353.5c-0.4-0.1-0.6-0.4-0.6-1v-0.8h1.3v0.6l0.1,0.1h0.4l0.1-0.1v-1.3l-0.2,0.2h-1
				c-0.4-0.1-0.6-0.3-0.6-1v-1.6c0-0.6,0.3-0.8,0.6-1h1.9c0.4,0.1,0.6,0.4,0.6,1v3.8c0,0.6-0.3,0.8-0.6,1H208.6z M209.8,350.3v-1.4
				l-0.1-0.1h-0.4l-0.1,0.1v1.4l0.1,0.1L209.8,350.3L209.8,350.3z"/>
		</g>
	</g>
	<g>
		<g>
			<circle class="st4" cx="186.7" cy="334.2" r="6.4"/>
			<circle class="st5" cx="186.7" cy="334.2" r="6.4"/>
		</g>
		<g>
			<path class="st6" d="M183.7,337.1v-1.2h0.7v-3.3h-0.6v-1.2h1.9v4.5h0.6v1.2H183.7z"/>
			<path class="st6" d="M189.4,337.1h-1.9c-0.4-0.1-0.6-0.4-0.6-1v-3.8c0-0.6,0.3-0.8,0.6-1h1.9c0.4,0.1,0.6,0.4,0.6,1v3.8
				C190,336.8,189.8,337,189.4,337.1z M188.8,332.5L188.8,332.5l-0.5-0.1l-0.1,0.1v3.5l0.1,0.1h0.4l0.1-0.1V332.5z"/>
		</g>
	</g>
	<g>
		<g>
			<circle class="st4" cx="159.3" cy="337.5" r="6.4"/>
			<circle class="st5" cx="159.3" cy="337.5" r="6.4"/>
		</g>
		<g>
			<path class="st6" d="M156.3,340.4v-1.2h0.7v-3.3h-0.6v-1.2h1.9v4.5h0.6v1.2H156.3z"/>
			<path class="st6" d="M159.8,340.4v-1.2h0.7v-3.3h-0.6v-1.2h1.9v4.5h0.6v1.2H159.8z"/>
		</g>
	</g>
	<g>
		<g>
			<circle class="st4" cx="135.2" cy="338.6" r="6.4"/>
			<circle class="st5" cx="135.2" cy="338.6" r="6.4"/>
		</g>
		<g>
			<path class="st6" d="M132.1,341.5v-1.2h0.7v-3.3h-0.6v-1.2h1.9v4.5h0.6v1.2H132.1z"/>
			<path class="st6" d="M135.4,341.5v-1.9c0-0.4,0.1-0.7,0.4-0.9l1.4-0.6v-1.2l-0.1-0.1h-0.4l-0.1,0.1v0.8h-1.3v-1
				c0-0.6,0.3-0.8,0.6-1h1.9c0.4,0.1,0.6,0.4,0.6,1v1.5c0,0.4-0.1,0.7-0.4,0.9l-1.4,0.6v0.6h1.8v1.2H135.4z"/>
		</g>
	</g>
	<g>
		<g>
			<circle class="st4" cx="33.9" cy="413.2" r="6.4"/>
			<circle class="st5" cx="33.9" cy="413.2" r="6.4"/>
		</g>
		<g>
			<path class="st6" d="M30.9,416.1v-1.2h0.7v-3.3h-0.6v-1.2h1.9v4.5h0.6v1.2H30.9z"/>
			<path class="st6" d="M34.7,416.1c-0.4-0.1-0.6-0.4-0.6-1v-0.8h1.3v0.6l0.1,0.1h0.4l0.1-0.1v-1.2l-0.1-0.1h-0.7v-1h0.7l0.1-0.1
				v-1.2l-0.1-0.1h-0.4l-0.1,0.1v0.6h-1.3v-0.8c0-0.6,0.3-0.8,0.6-1h1.9c0.4,0.1,0.6,0.4,0.6,1v1c0,0.4-0.1,0.7-0.4,0.9
				c0.3,0.2,0.4,0.5,0.4,0.9v1.1c0,0.6-0.3,0.8-0.6,1H34.7z"/>
		</g>
	</g>
	<g>
		<g>
			<circle class="st4" cx="99.2" cy="398.9" r="6.4"/>
			<circle class="st5" cx="99.2" cy="398.9" r="6.4"/>
		</g>
		<g>
			<path class="st6" d="M96.1,401.8v-1.2h0.7v-3.3h-0.6v-1.2h1.9v4.5h0.6v1.2H96.1z"/>
			<path class="st6" d="M102.2,400.7v1.1h-1.3v-1.1h-1.7v-1.1l1.2-3.5h1.3l-1.2,3.4h0.4v-0.3l0.3-0.8h1v1.1h0.4v1.2H102.2z"/>
		</g>
	</g>
	<g>
		<g>
			<circle class="st4" cx="143.8" cy="397.2" r="6.4"/>
			<circle class="st5" cx="143.8" cy="397.2" r="6.4"/>
		</g>
		<g>
			<path class="st6" d="M140.8,400.1v-1.2h0.7v-3.3h-0.6v-1.2h1.9v4.5h0.6v1.2H140.8z"/>
			<path class="st6" d="M144.6,400.1c-0.4-0.1-0.6-0.4-0.6-1v-0.8h1.2v0.6l0.1,0.1h0.5l0.1-0.1v-1.6l-0.1-0.1h-0.5l-0.1,0.1v0.3H144
				v-3.4h3v1.1h-1.8v1.2l0.3-0.3h1c0.4,0.1,0.6,0.3,0.6,1v1.8c0,0.6-0.3,0.8-0.6,1H144.6z"/>
		</g>
	</g>
	<g>
		<g>
			<circle class="st4" cx="167.3" cy="392.2" r="6.4"/>
			<circle class="st5" cx="167.3" cy="392.2" r="6.4"/>
		</g>
		<g>
			<path class="st6" d="M164.3,395.1v-1.2h0.7v-3.3h-0.6v-1.2h1.9v4.5h0.6v1.2H164.3z"/>
			<path class="st6" d="M170,395.1h-1.9c-0.4-0.1-0.6-0.4-0.6-1v-3.8c0-0.6,0.3-0.8,0.6-1h1.9c0.4,0.1,0.6,0.4,0.6,1v0.8h-1.3v-0.6
				l-0.1-0.1h-0.4l-0.1,0.1v1.3l0.2-0.2h1c0.4,0.1,0.6,0.4,0.6,1v1.6C170.6,394.8,170.3,395,170,395.1z M169.2,394.1L169.2,394.1
				l0.1-1.5l-0.1-0.1h-0.4l-0.1,0.1v1.4l0.1,0.1H169.2z"/>
		</g>
	</g>
	<g>
		<g>
			<circle class="st4" cx="188.6" cy="407.9" r="6.4"/>
			<circle class="st5" cx="188.6" cy="407.9" r="6.4"/>
		</g>
		<g>
			<path class="st6" d="M185.6,410.8v-1.2h0.7v-3.3h-0.6v-1.2h1.9v4.5h0.6v1.2H185.6z"/>
			<path class="st6" d="M189,410.8l1.6-4.6h-1.8v-1.1h3.1v0.9l-1.6,4.9H189z"/>
		</g>
	</g>
	<g>
		<g>
			<circle class="st4" cx="229.2" cy="400.9" r="6.4"/>
			<circle class="st5" cx="229.2" cy="400.9" r="6.4"/>
		</g>
		<g>
			<path class="st6" d="M226.2,403.8v-1.2h0.7v-3.3h-0.6V398h1.9v4.5h0.6v1.2H226.2z"/>
			<path class="st6" d="M230,403.8c-0.4-0.1-0.6-0.4-0.6-1v-1.1c0-0.4,0.1-0.7,0.4-0.9c-0.3-0.2-0.4-0.5-0.4-0.9v-1
				c0-0.6,0.3-0.8,0.6-1h1.9c0.4,0.1,0.6,0.4,0.6,1v1c0,0.4-0.1,0.7-0.4,0.9c0.3,0.2,0.4,0.5,0.4,0.9v1.1c0,0.6-0.3,0.8-0.6,1H230z
				 M230.7,400.3L230.7,400.3l0.5,0.1l0.1-0.1v-1.2l-0.1-0.1h-0.4l-0.1,0.1V400.3z M231.2,402.7v-1.2l-0.1-0.1h-0.4l-0.1,0.1v1.2
				l0.1,0.1L231.2,402.7L231.2,402.7z"/>
		</g>
	</g>
	<g>
		<g>
			<circle class="st4" cx="284.2" cy="355.8" r="6.4"/>
			<circle class="st5" cx="284.2" cy="355.8" r="6.4"/>
		</g>
		<g>
			<path class="st6" d="M281.2,358.7v-1.2h0.7v-3.3h-0.6V353h1.9v4.5h0.6v1.2H281.2z"/>
			<path class="st6" d="M285,358.7c-0.4-0.1-0.6-0.4-0.6-1V357h1.3v0.6l0.1,0.1h0.4l0.1-0.1v-1.3l-0.2,0.2h-1
				c-0.4-0.1-0.6-0.3-0.6-1v-1.6c0-0.6,0.3-0.8,0.6-1h1.9c0.4,0.1,0.6,0.4,0.6,1v3.8c0,0.6-0.3,0.8-0.6,1H285z M286.2,355.5v-1.4
				l-0.1-0.1h-0.4l-0.1,0.1v1.4l0.1,0.1L286.2,355.5L286.2,355.5z"/>
		</g>
	</g>
	<g>
		<g>
			<circle class="st4" cx="377.7" cy="269" r="6.4"/>
			<circle class="st5" cx="377.7" cy="269" r="6.4"/>
		</g>
		<g>
			<path class="st6" d="M374.4,271.9V270c0-0.4,0.1-0.7,0.4-0.9l1.4-0.6v-1.2l-0.1-0.1h-0.4l-0.1,0.1v0.8h-1.3v-1
				c0-0.6,0.3-0.8,0.6-1h1.9c0.4,0.1,0.6,0.4,0.6,1v1.5c0,0.4-0.1,0.7-0.4,0.9l-1.4,0.6v0.6h1.8v1.2H374.4z"/>
			<path class="st6" d="M378.2,271.9v-1.2h0.7v-3.3h-0.6v-1.2h1.9v4.5h0.6v1.2H378.2z"/>
		</g>
	</g>
	<g>
		<g>
			<circle class="st4" cx="450.8" cy="259.6" r="6.4"/>
			<circle class="st5" cx="450.8" cy="259.6" r="6.4"/>
		</g>
		<g>
			<path class="st6" d="M447.5,262.5v-1.9c0-0.4,0.1-0.7,0.4-0.9l1.4-0.6v-1.2l-0.1-0.1h-0.4l-0.1,0.1v0.8h-1.3v-1
				c0-0.6,0.3-0.8,0.6-1h1.9c0.4,0.1,0.6,0.4,0.6,1v1.5c0,0.4-0.1,0.7-0.4,0.9l-1.4,0.6v0.6h1.8v1.2H447.5z"/>
			<path class="st6" d="M451,262.5v-1.9c0-0.4,0.1-0.7,0.4-0.9l1.4-0.6v-1.2l-0.1-0.1h-0.4l-0.1,0.1v0.8H451v-1c0-0.6,0.3-0.8,0.6-1
				h1.9c0.4,0.1,0.6,0.4,0.6,1v1.5c0,0.4-0.1,0.7-0.4,0.9l-1.4,0.6v0.6h1.8v1.2H451z"/>
		</g>
	</g>
	<g>
		<g>
			<circle class="st4" cx="464" cy="234.9" r="6.4"/>
			<circle class="st5" cx="464" cy="234.9" r="6.4"/>
		</g>
		<g>
			<path class="st6" d="M460.7,237.8v-1.9c0-0.4,0.1-0.7,0.4-0.9l1.4-0.6v-1.2l-0.1-0.1h-0.4l-0.1,0.1v0.8h-1.3v-1
				c0-0.6,0.3-0.8,0.6-1h1.9c0.4,0.1,0.6,0.4,0.6,1v1.4c0,0.4-0.1,0.7-0.4,0.9L462,236v0.6h1.8v1.2H460.7z"/>
			<path class="st6" d="M464.9,237.8c-0.4-0.1-0.6-0.4-0.6-1v-0.8h1.3v0.6l0.1,0.1h0.4l0.1-0.1v-1.2l-0.1-0.1h-0.7v-1h0.7l0.1-0.1
				v-1.2l-0.1-0.1h-0.4l-0.1,0.1v0.6h-1.3v-0.8c0-0.6,0.3-0.8,0.6-1h1.9c0.4,0.1,0.6,0.4,0.6,1v1c0,0.4-0.1,0.7-0.4,0.9
				c0.3,0.2,0.4,0.5,0.4,0.9v1.1c0,0.6-0.3,0.8-0.6,1H464.9z"/>
		</g>
	</g>
	<g>
		<g>
			<circle class="st4" cx="484.5" cy="223.6" r="6.4"/>
			<circle class="st5" cx="484.5" cy="223.6" r="6.4"/>
		</g>
		<g>
			<path class="st6" d="M481.2,226.6v-1.9c0-0.4,0.1-0.7,0.4-0.9l1.4-0.6v-1.2l-0.1-0.1h-0.4l-0.1,0.1v0.8h-1.3v-1
				c0-0.6,0.3-0.8,0.6-1h1.9c0.4,0.1,0.6,0.4,0.6,1v1.4c0,0.4-0.1,0.7-0.4,0.9l-1.4,0.6v0.6h1.8v1.2H481.2z"/>
			<path class="st6" d="M487.5,225.4v1.1h-1.3v-1.1h-1.7v-1.1l1.2-3.5h1.3l-1.2,3.4h0.4v-0.3l0.3-0.8h1v1.1h0.4v1.2H487.5z"/>
		</g>
	</g>
	<g>
		<g>
			<circle class="st4" cx="547.9" cy="195.7" r="6.4"/>
			<circle class="st5" cx="547.9" cy="195.7" r="6.4"/>
		</g>
		<g>
			<path class="st6" d="M544.6,198.6v-1.9c0-0.4,0.1-0.7,0.4-0.9l1.4-0.6V194l-0.1-0.1H546l-0.1,0.1v0.8h-1.3v-1
				c0-0.6,0.3-0.8,0.6-1h1.9c0.4,0.1,0.6,0.4,0.6,1v1.4c0,0.4-0.1,0.7-0.4,0.9l-1.4,0.6v0.6h1.8v1.2H544.6z"/>
			<path class="st6" d="M548.7,198.6c-0.4-0.1-0.6-0.4-0.6-1v-0.8h1.2v0.6l0.1,0.1h0.5l0.1-0.1v-1.6l-0.1-0.1h-0.5l-0.1,0.1v0.3
				h-1.2v-3.4h3v1.1h-1.8v1.2l0.3-0.3h1c0.4,0.1,0.6,0.4,0.6,1v1.8c0,0.6-0.3,0.8-0.6,1H548.7z"/>
		</g>
	</g>
	<g>
		<g>
			<circle class="st4" cx="625.6" cy="131.1" r="6.4"/>
			<circle class="st5" cx="625.6" cy="131.1" r="6.4"/>
		</g>
		<g>
			<path class="st6" d="M622.3,134v-1.9c0-0.4,0.1-0.7,0.4-0.9l1.4-0.6v-1.2l-0.1-0.1h-0.4l-0.1,0.1v0.8h-1.3v-1
				c0-0.6,0.3-0.8,0.6-1h1.9c0.4,0.1,0.6,0.4,0.6,1v1.4c0,0.4-0.1,0.7-0.4,0.9l-1.4,0.6v0.6h1.8v1.2H622.3z"/>
			<path class="st6" d="M628.3,134h-1.9c-0.4-0.1-0.6-0.4-0.6-1v-3.8c0-0.6,0.3-0.8,0.6-1h1.9c0.4,0.1,0.6,0.4,0.6,1v0.8h-1.3v-0.6
				l-0.1-0.1h-0.4l-0.1,0.1v1.3l0.2-0.2h1c0.4,0.1,0.6,0.4,0.6,1v1.6C628.9,133.7,628.6,133.9,628.3,134z M627.5,133L627.5,133
				l0.1-1.5l-0.1-0.1h-0.4l-0.1,0.1v1.4l0.1,0.1H627.5z"/>
		</g>
	</g>
	<g>
		<g>
			<circle class="st4" cx="647.4" cy="73.4" r="6.4"/>
			<circle class="st5" cx="647.4" cy="73.4" r="6.4"/>
		</g>
		<g>
			<path class="st6" d="M644.1,76.3v-1.9c0-0.4,0.1-0.7,0.4-0.9l1.4-0.6v-1.2l-0.1-0.1h-0.4l-0.1,0.1v0.8h-1.3v-1
				c0-0.6,0.3-0.8,0.6-1h1.9c0.4,0.1,0.6,0.4,0.6,1V73c0,0.4-0.1,0.7-0.4,0.9l-1.4,0.6v0.6h1.8v1.2H644.1z"/>
			<path class="st6" d="M647.8,76.3l1.6-4.6h-1.8v-1.1h3.1v0.9l-1.6,4.9H647.8z"/>
		</g>
	</g>
	<g>
		<g>
			<circle class="st4" cx="325.7" cy="319.8" r="6.4"/>
			<circle class="st5" cx="325.7" cy="319.8" r="6.4"/>
		</g>
		<g>
			<path class="st6" d="M322.4,322.7v-1.9c0-0.4,0.1-0.7,0.4-0.9l1.4-0.6v-1.2l-0.1-0.1h-0.4l-0.1,0.1v0.8h-1.3v-1
				c0-0.6,0.3-0.8,0.6-1h1.9c0.4,0.1,0.6,0.4,0.6,1v1.4c0,0.4-0.1,0.7-0.4,0.9l-1.4,0.6v0.6h1.8v1.2H322.4z"/>
			<path class="st6" d="M328.4,322.7h-1.9c-0.4-0.1-0.6-0.4-0.6-1v-3.8c0-0.6,0.3-0.8,0.6-1h1.9c0.4,0.1,0.6,0.4,0.6,1v3.8
				C329,322.4,328.7,322.6,328.4,322.7z M327.7,318.1L327.7,318.1l-0.5-0.1l-0.1,0.1v3.5l0.1,0.1h0.4l0.1-0.1V318.1z"/>
		</g>
	</g>
</g>


<g id="アイコン">
	<g>
		<g>
			<path class="st6" d="M679.8,460.2c0,1.6-1.3,2.8-2.8,2.8H308.2c-1.6,0-2.8-1.3-2.8-2.8v-24.9c0-1.6,1.3-2.8,2.8-2.8H677
				c1.6,0,2.8,1.3,2.8,2.8V460.2z"/>
			<path class="st13" d="M679.8,460.2c0,1.6-1.3,2.8-2.8,2.8H308.2c-1.6,0-2.8-1.3-2.8-2.8v-24.9c0-1.6,1.3-2.8,2.8-2.8H677
				c1.6,0,2.8,1.3,2.8,2.8V460.2z"/>
		</g>
		<g>
			<path class="st5" d="M350.9,449.1v2.6c0,1.3-0.6,1.7-1.3,2h-3.3c-0.7-0.3-1.3-0.7-1.3-2v-2h1.8v2.1l0.4,0.4h1.6l0.4-0.4v-2.8
				l-0.3-0.4l-2.6-0.8c-0.8-0.3-1.1-0.8-1.1-1.9v-2.2c0-1.3,0.6-1.7,1.3-2h3.3c0.7,0.3,1.3,0.7,1.3,2v1.9h-1.8v-2.1l-0.4-0.4h-1.6
				l-0.4,0.4v2.4l0.4,0.4l2.6,0.7C350.5,447.5,350.9,448,350.9,449.1z"/>
			<path class="st5" d="M352.2,441.7h5.1v1.6H354v3.4h3.1v1.6H354v3.7h3.4v1.6h-5.2V441.7z"/>
			<path class="st5" d="M364.5,451.7c0,1.3-0.6,1.7-1.3,2h-3.3c-0.7-0.3-1.3-0.7-1.3-2v-8c0-1.3,0.6-1.7,1.3-2h3.3
				c0.7,0.3,1.3,0.7,1.3,2v2.7h-1.8v-2.8l-0.4-0.4h-1.6l-0.4,0.4v8.3l0.4,0.4h1.6l0.4-0.4v-2.7h1.8V451.7z"/>
			<path class="st5" d="M369.3,443.4v10.3h-1.8v-10.3h-2.1v-1.6h6.1v1.6H369.3z"/>
			<path class="st5" d="M378.1,451.7c0,1.3-0.6,1.7-1.3,2h-3.3c-0.7-0.3-1.3-0.7-1.3-2v-8c0-1.3,0.6-1.7,1.3-2h3.3
				c0.7,0.3,1.3,0.7,1.3,2V451.7z M376.4,443.6l-0.4-0.4h-1.6l-0.4,0.4v8.3l0.4,0.4h1.6l0.4-0.4V443.6z"/>
			<path class="st5" d="M379.5,453.7v-12h4.6c0.7,0.3,1.3,0.7,1.3,2v2.6c0,1.3-0.6,1.6-1.3,1.9l-0.3,0.1l2.1,4.3v1.1h-1.6l-2.2-5.1
				h-0.8v5.1H379.5z M381.3,443.2v3.9h2l0.4-0.4v-3.1l-0.4-0.4H381.3z"/>
			<path class="st5" d="M389.6,453.7v-1.6h1.8v-8.7h-1.7v-1.6h3.5v10.4h1.7v1.6H389.6z"/>
		</g>
		<line class="st14" x1="319.5" y1="447.8" x2="340.8" y2="447.8"/>
		<g>
			<path class="st5" d="M441,449.1v2.6c0,1.3-0.6,1.7-1.3,2h-3.3c-0.7-0.3-1.3-0.7-1.3-2v-2h1.8v2.1l0.4,0.4h1.6l0.4-0.4v-2.8
				l-0.3-0.4l-2.6-0.8c-0.8-0.3-1.1-0.8-1.1-1.9v-2.2c0-1.3,0.6-1.7,1.3-2h3.3c0.7,0.3,1.3,0.7,1.3,2v1.9h-1.8v-2.1l-0.4-0.4h-1.6
				l-0.4,0.4v2.4l0.4,0.4l2.6,0.7C440.6,447.5,441,448,441,449.1z"/>
			<path class="st5" d="M442.3,441.7h5.1v1.6h-3.3v3.4h3.1v1.6h-3.1v3.7h3.4v1.6h-5.2V441.7z"/>
			<path class="st5" d="M454.6,451.7c0,1.3-0.6,1.7-1.3,2H450c-0.7-0.3-1.3-0.7-1.3-2v-8c0-1.3,0.6-1.7,1.3-2h3.3
				c0.7,0.3,1.3,0.7,1.3,2v2.7h-1.8v-2.8l-0.4-0.4h-1.6l-0.4,0.4v8.3l0.4,0.4h1.6l0.4-0.4v-2.7h1.8V451.7z"/>
			<path class="st5" d="M459.4,443.4v10.3h-1.8v-10.3h-2.1v-1.6h6.1v1.6H459.4z"/>
			<path class="st5" d="M468.3,451.7c0,1.3-0.6,1.7-1.3,2h-3.3c-0.7-0.3-1.3-0.7-1.3-2v-8c0-1.3,0.6-1.7,1.3-2h3.3
				c0.7,0.3,1.3,0.7,1.3,2V451.7z M466.5,443.6l-0.4-0.4h-1.6l-0.4,0.4v8.3l0.4,0.4h1.6l0.4-0.4V443.6z"/>
			<path class="st5" d="M469.7,453.7v-12h4.6c0.7,0.3,1.3,0.7,1.3,2v2.6c0,1.3-0.6,1.6-1.3,1.9l-0.3,0.1l2.1,4.3v1.1h-1.6l-2.2-5.1
				h-0.8v5.1H469.7z M471.5,443.2v3.9h2l0.4-0.4v-3.1l-0.4-0.4H471.5z"/>
			<path class="st5" d="M479.4,453.7v-3.6c0-1.1,0.4-1.7,1.2-2.1l3-1.2v-3.2l-0.4-0.4h-1.7l-0.4,0.4v2h-1.8v-1.9
				c0-1.3,0.6-1.7,1.3-2h3.3c0.7,0.3,1.3,0.7,1.3,2v2.5c0,1.1-0.3,1.7-1.1,2.1l-3,1.2v2.5h4.1v1.6H479.4z"/>
		</g>
		<line class="st15" x1="409.6" y1="447.8" x2="430.9" y2="447.8"/>
		<g>
			<path class="st5" d="M530.8,449.1v2.6c0,1.3-0.6,1.7-1.3,2h-3.3c-0.7-0.3-1.3-0.7-1.3-2v-2h1.8v2.1l0.4,0.4h1.6l0.4-0.4v-2.8
				l-0.3-0.4l-2.6-0.8c-0.8-0.3-1.1-0.8-1.1-1.9v-2.2c0-1.3,0.6-1.7,1.3-2h3.3c0.7,0.3,1.3,0.7,1.3,2v1.9H529v-2.1l-0.4-0.4H527
				l-0.4,0.4v2.4l0.4,0.4l2.6,0.7C530.4,447.5,530.8,448,530.8,449.1z"/>
			<path class="st5" d="M532.1,441.7h5.1v1.6h-3.3v3.4h3.1v1.6h-3.1v3.7h3.4v1.6h-5.2V441.7z"/>
			<path class="st5" d="M544.4,451.7c0,1.3-0.6,1.7-1.3,2h-3.3c-0.7-0.3-1.3-0.7-1.3-2v-8c0-1.3,0.6-1.7,1.3-2h3.3
				c0.7,0.3,1.3,0.7,1.3,2v2.7h-1.8v-2.8l-0.4-0.4h-1.6l-0.4,0.4v8.3l0.4,0.4h1.6l0.4-0.4v-2.7h1.8V451.7z"/>
			<path class="st5" d="M549.2,443.4v10.3h-1.8v-10.3h-2.1v-1.6h6.1v1.6H549.2z"/>
			<path class="st5" d="M558.1,451.7c0,1.3-0.6,1.7-1.3,2h-3.3c-0.7-0.3-1.3-0.7-1.3-2v-8c0-1.3,0.6-1.7,1.3-2h3.3
				c0.7,0.3,1.3,0.7,1.3,2V451.7z M556.3,443.6l-0.4-0.4h-1.6l-0.4,0.4v8.3l0.4,0.4h1.6l0.4-0.4V443.6z"/>
			<path class="st5" d="M559.5,453.7v-12h4.6c0.7,0.3,1.3,0.7,1.3,2v2.6c0,1.3-0.6,1.6-1.3,1.9l-0.3,0.1l2.1,4.3v1.1h-1.6l-2.2-5.1
				h-0.8v5.1H559.5z M561.3,443.2v3.9h2l0.4-0.4v-3.1l-0.4-0.4H561.3z"/>
			<path class="st5" d="M570.5,453.7c-0.7-0.3-1.3-0.7-1.3-2v-1.7h1.8v1.8l0.4,0.4h1.7l0.4-0.4v-3.2l-0.4-0.3h-1.8v-1.4h1.8l0.4-0.4
				v-3l-0.4-0.4h-1.7l-0.4,0.4v1.8h-1.8v-1.7c0-1.3,0.6-1.7,1.3-2h3.3c0.7,0.3,1.3,0.7,1.3,2v1.9c0,1-0.2,1.5-0.9,1.9
				c0.6,0.4,0.9,0.9,0.9,1.9v2.2c0,1.3-0.6,1.7-1.3,2H570.5z"/>
		</g>
		<line class="st16" x1="499.5" y1="447.8" x2="520.7" y2="447.8"/>
		<g>
			<path class="st5" d="M620.7,451.7c0,1.3-0.6,1.7-1.3,2h-4.6v-12h4.6c0.7,0.3,1.3,0.7,1.3,2V451.7z M616.6,443.2v9h2l0.4-0.4v-8.3
				l-0.4-0.4H616.6z"/>
			<path class="st5" d="M622.1,453.7v-12h4.6c0.7,0.3,1.3,0.7,1.3,2v2.6c0,1.3-0.6,1.6-1.3,1.9l-0.3,0.1l2.1,4.3v1.1H627l-2.2-5.1
				h-0.8v5.1H622.1z M623.9,443.2v3.9h2l0.4-0.4v-3.1l-0.4-0.4H623.9z"/>
			<path class="st5" d="M635.1,449.1v2.6c0,1.3-0.6,1.7-1.3,2h-3.3c-0.7-0.3-1.3-0.7-1.3-2v-2h1.8v2.1l0.4,0.4h1.6l0.4-0.4v-2.8
				l-0.3-0.4l-2.6-0.8c-0.8-0.3-1.1-0.8-1.1-1.9v-2.2c0-1.3,0.6-1.7,1.3-2h3.3c0.7,0.3,1.3,0.7,1.3,2v1.9h-1.8v-2.1l-0.4-0.4h-1.6
				l-0.4,0.4v2.4l0.4,0.4l2.6,0.7C634.8,447.5,635.1,448,635.1,449.1z"/>
			<path class="st5" d="M642.7,443.4h-3.9v-1.6h5.8v1.5l-4,8.9h4v1.6h-5.9v-1.5L642.7,443.4z"/>
			<path class="st5" d="M651.8,451.7c0,1.3-0.6,1.7-1.3,2h-3.3c-0.7-0.3-1.3-0.7-1.3-2v-8c0-1.3,0.6-1.7,1.3-2h3.3
				c0.7,0.3,1.3,0.7,1.3,2V451.7z M650,443.6l-0.4-0.4h-1.6l-0.4,0.4v8.3l0.4,0.4h1.6l0.4-0.4V443.6z"/>
			<path class="st5" d="M657.5,441.7h1.6v12h-1.6l-2.6-7.1h-0.2v7.1h-1.6v-12h1.6l2.6,7.1h0.2V441.7z"/>
			<path class="st5" d="M660.5,441.7h5.1v1.6h-3.3v3.4h3.1v1.6h-3.1v3.7h3.4v1.6h-5.2V441.7z"/>
		</g>
		<g>
			<g>
				<g>
					<g>
						<line class="st12" x1="590.8" y1="440.4" x2="590.8" y2="455.2"/>
					</g>
					<g>
						<ellipse class="st10" cx="596.9" cy="447.8" rx="1.5" ry="1.4"/>
					</g>
					<g>
						<ellipse class="st10" cx="602.9" cy="447.8" rx="1.5" ry="1.4"/>
					</g>
					<g>
						<line class="st12" x1="609" y1="440.4" x2="609" y2="455.2"/>
					</g>
				</g>
			</g>
		</g>
	</g>
	<g>
		
			<rect x="531.4" y="146.3" transform="matrix(0.7395 -0.6732 0.6732 0.7395 39.3572 397.1788)" class="st5" width="2.8" height="2.8"/>
		
			<rect x="535.6" y="142.5" transform="matrix(0.7395 -0.6732 0.6732 0.7395 43.0183 399.0068)" class="st5" width="2.8" height="2.8"/>
		
			<rect x="535.4" y="146.5" transform="matrix(0.7395 -0.6732 0.6732 0.7395 40.2737 399.9234)" class="st5" width="2.8" height="2.8"/>
		
			<rect x="539.6" y="142.7" transform="matrix(0.7395 -0.6732 0.6732 0.7395 43.9349 401.7514)" class="st5" width="2.8" height="2.8"/>
		
			<rect x="539.2" y="150.7" transform="matrix(0.7395 -0.6732 0.6732 0.7395 38.4458 403.5846)" class="st5" width="2.8" height="2.8"/>
		
			<rect x="543.4" y="146.9" transform="matrix(0.7395 -0.6732 0.6732 0.7395 42.1069 405.4126)" class="st5" width="2.8" height="2.8"/>
		
			<rect x="539.8" y="138.7" transform="matrix(0.7395 -0.6732 0.6732 0.7395 46.6795 400.8348)" class="st5" width="2.8" height="2.8"/>
		
			<rect x="537.7" y="140.6" transform="matrix(0.7395 -0.6732 0.6732 0.7395 44.8489 399.9208)" class="st6" width="2.8" height="2.8"/>
		
			<rect x="533.5" y="144.4" transform="matrix(0.7395 -0.6732 0.6732 0.7395 41.1877 398.0928)" class="st6" width="2.8" height="2.8"/>
		
			<rect x="533.3" y="148.4" transform="matrix(0.7395 -0.6732 0.6732 0.7395 38.4432 399.0094)" class="st6" width="2.8" height="2.8"/>
		
			<rect x="537.5" y="144.6" transform="matrix(0.7395 -0.6732 0.6732 0.7395 42.1043 400.8374)" class="st6" width="2.8" height="2.8"/>
		
			<rect x="541.7" y="140.8" transform="matrix(0.7395 -0.6732 0.6732 0.7395 45.7655 402.6654)" class="st6" width="2.8" height="2.8"/>
		
			<rect x="541.5" y="144.8" transform="matrix(0.7395 -0.6732 0.6732 0.7395 43.0209 403.582)" class="st6" width="2.8" height="2.8"/>
		
			<rect x="537.3" y="148.6" transform="matrix(0.7395 -0.6732 0.6732 0.7395 39.3597 401.754)" class="st6" width="2.8" height="2.8"/>
		
			<rect x="545.3" y="149" transform="matrix(0.7395 -0.6732 0.6732 0.7395 41.1929 407.2432)" class="st6" width="2.8" height="2.8"/>
		
			<rect x="541.2" y="152.8" transform="matrix(0.7395 -0.6732 0.6732 0.7395 37.5318 405.4152)" class="st6" width="2.8" height="2.8"/>
		
			<rect x="537.2" y="152.6" transform="matrix(0.7395 -0.6732 0.6732 0.7395 36.6152 402.6706)" class="st6" width="2.8" height="2.8"/>
		
			<rect x="541.3" y="148.8" transform="matrix(0.7395 -0.6732 0.6732 0.7395 40.2763 404.4986)" class="st6" width="2.8" height="2.8"/>
		
			<rect x="545.5" y="145" transform="matrix(0.7395 -0.6732 0.6732 0.7395 43.9375 406.3266)" class="st6" width="2.8" height="2.8"/>
		
			<rect x="535.2" y="150.5" transform="matrix(0.7395 -0.6732 0.6732 0.7395 37.5292 400.84)" class="st5" width="2.8" height="2.8"/>
		
			<rect x="539.4" y="146.7" transform="matrix(0.7395 -0.6732 0.6732 0.7395 41.1903 402.668)" class="st5" width="2.8" height="2.8"/>
		
			<rect x="543.3" y="150.9" transform="matrix(0.7395 -0.6732 0.6732 0.7395 39.3623 406.3292)" class="st5" width="2.8" height="2.8"/>
		
			<rect x="543.6" y="142.9" transform="matrix(0.7395 -0.6732 0.6732 0.7395 44.8515 404.496)" class="st5" width="2.8" height="2.8"/>
		
			<rect x="539.1" y="154.7" transform="matrix(0.7395 -0.6732 0.6732 0.7395 35.7012 404.5012)" class="st5" width="2.8" height="2.8"/>
		
			<rect x="547.4" y="147.1" transform="matrix(0.7395 -0.6732 0.6732 0.7395 43.0235 408.1572)" class="st5" width="2.8" height="2.8"/>
	</g>
	<g>
		<defs>
			
				<rect id="SVGID_1_" x="485.5" y="178.3" transform="matrix(0.7379 -0.6749 0.6749 0.7379 6.9458 383.0501)" width="22.3" height="8.5"/>
		</defs>
		<clipPath id="SVGID_00000122709189336249212890000006984618270935174071_">
			<use xlink:href="#SVGID_1_"  style="overflow:visible;"/>
		</clipPath>
		<g style="clip-path:url(#SVGID_00000122709189336249212890000006984618270935174071_);">
			<polygon class="st18" points="508.7,181.1 506.6,183 497.7,181.6 497.1,172.6 499.2,170.7 499.8,179.7 			"/>
			<polygon class="st19" points="504.5,184.9 502.4,186.9 493.5,185.5 492.9,176.4 495,174.5 495.6,183.5 			"/>
			<polygon class="st20" points="500.4,188.8 498.3,190.7 489.3,189.3 488.7,180.2 490.8,178.3 491.4,187.4 			"/>
		</g>
	</g>
</g>
</svg>
