<?xml version="1.0" encoding="utf-8"?>
<!-- Generator: Adobe Illustrator 27.0.0, SVG Export Plug-In . SVG Version: 6.00 Build 0)  -->
<svg version="1.1" xmlns="http://www.w3.org/2000/svg" xmlns:xlink="http://www.w3.org/1999/xlink" x="0px" y="0px"
	 viewBox="0 0 550 403" style="enable-background:new 0 0 550 443.7;" xml:space="preserve">
<style type="text/css">
	.st0{fill:none;stroke:#646464;stroke-width:14.1732;stroke-miterlimit:10;}
	.st1{fill:none;stroke:#FFD449;stroke-width:2.8346;stroke-miterlimit:10;}
	.st2{fill:none;stroke:#54C6EB;stroke-width:2.8346;stroke-miterlimit:10;}
	.st3{fill:none;stroke:#F4442E;stroke-width:2.8346;stroke-miterlimit:10;}
	.st4{fill:none;stroke:#FFFFFF;stroke-width:2.126;}
	.st5{fill:#646464;}
	.st6{fill:#FFFFFF;}
	.st7{fill:#09BC8A;}
	.st8{fill:none;stroke:#646464;stroke-width:2.8346;stroke-miterlimit:10;}
	.st9{fill:none;stroke:#09BC8A;stroke-width:2.2097;stroke-miterlimit:10;}
	.st10{fill:none;stroke:#09BC8A;stroke-width:1.9843;stroke-miterlimit:10;}
	.st11{fill:#FF3380;}
	.st12{fill:none;stroke:#FF3380;stroke-width:1.9843;stroke-miterlimit:10;}
	.st13{fill:none;stroke:#646464;stroke-width:0.7087;stroke-miterlimit:10;}
	.st14{fill:none;stroke:#F4442E;stroke-width:5.6693;stroke-miterlimit:10;}
	.st15{fill:none;stroke:#54C6EB;stroke-width:5.6693;stroke-miterlimit:10;}
	.st16{fill:none;stroke:#FFD449;stroke-width:5.6693;stroke-miterlimit:10;}
	.st17{fill:none;stroke:#09BC8A;stroke-width:2.8346;stroke-miterlimit:10;}
	.st18{clip-path:url(#SVGID_00000167395908987059232970000000229543804225665710_);}
	.st19{fill:#F4442E;}
	.st20{fill:#54C6EB;}
	.st21{fill:#FFD449;}
</style>
<g id="コース">
	<path class="st0" d="M164.6,89c-20.8,5.9-78.7,22.2-95.3,26.9s-31,13-29.6,23.7c1.5,10.8,12.7,16.9,16.1,19.3
		c3.4,2.4,7.3,4.6,7.3,12.2c0,13.4-14.2,12.8-14.2,50.7c0,33.7,32.3,52.2,51.3,56.6c31.8,7.3,234.6,56.9,244.6,59.1
		c10,2.2,22.7-0.5,25.4-14.9c2.7-14.4,3.9-21,4.9-31.5c1-10.5,3.9-33.5-19.8-50.8s-105.6-73.6-112.7-78.7
		c-7.1-5.1-14.2-13-14.2-29.8s11-35.4,21.8-38.4s34-7.8,41.8-8.8s18.3-2.7,23.5,5.6c5.1,8.3-4.9,18.3-7.3,21.8s-10,13.7,0,25.7
		s24.4,4.2,30.3-2.2s12.2-13.4,17.6-18.8s12.2-11.2,21.5-13.7c9.3-2.4,21-4.9,25.9-5.9c4.9-1,8.8,2,11,5.9s-1,11-6.1,15.2
		c-5.1,4.2-22.2,20-27.1,24.7c-4.9,4.6-10.8,10.5-10.8,33s22.7,34.2,26.9,36.7s52.5,31,55.5,32.5c2.9,1.5,9.3,1,11.2-0.7
		c2-1.7,4.6-4.4,6.4-8.1c1.7-3.7,10-29.8,11.2-34.2s1.2-12.7,0.5-17.8c-0.7-5.1-11-43.5-18.1-56.7s-18.1-30.8-24.7-34.7
		S420,82,413.4,80.7s-96.5-19.8-105.1-21c-8.6-1.2-28.8-1.7-46.7,2.4S164.6,89,164.6,89z"/>
</g>
<g id="セクター">
	<path class="st1" d="M418.1,224.6c15.1,8.9,33.1,19.5,34.9,20.3c2.9,1.5,9.3,1,11.2-0.7c2-1.7,4.6-4.4,6.4-8.1
		c1.7-3.7,10-29.8,11.2-34.2s1.2-12.7,0.5-17.8c-0.7-5.1-11-43.5-18.1-56.7s-18.1-30.8-24.7-34.7S420,82,413.4,80.7
		s-96.5-19.8-105.1-21c-8.6-1.2-28.8-1.7-46.7,2.4s-97,26.9-97,26.9"/>
	<path class="st2" d="M299.5,326.6c24.9,6,42.7,10.4,45.5,11c10,2.2,22.7-0.5,25.4-14.9c2.7-14.4,3.9-21,4.9-31.5
		c1-10.5,3.9-33.5-19.8-50.8s-105.6-73.6-112.7-78.7c-7.1-5.1-14.2-13-14.2-29.8s11-35.4,21.8-38.4s34-7.8,41.8-8.8
		s18.3-2.7,23.5,5.6c5.1,8.3-4.9,18.3-7.3,21.8s-10,13.7,0,25.7s24.4,4.2,30.3-2.2s12.2-13.4,17.6-18.8s12.2-11.2,21.5-13.7
		c9.3-2.4,21-4.9,25.9-5.9c4.9-1,8.8,2,11,5.9s-1,11-6.1,15.2c-5.1,4.2-22.2,20-27.1,24.7c-4.9,4.6-10.8,10.5-10.8,33
		s22.7,34.2,26.9,36.7c1.7,1,10.5,6.2,20.6,12.2"/>
	<path class="st3" d="M164.6,89c-20.8,5.9-78.7,22.2-95.3,26.9s-31,13-29.6,23.7c1.5,10.8,12.7,16.9,16.1,19.3
		c3.4,2.4,7.3,4.6,7.3,12.2c0,13.4-14.2,12.8-14.2,50.7c0,33.7,32.3,52.2,51.3,56.6c22.9,5.3,134.7,32.6,199.1,48.2"/>
</g>
<g id="コーナー番号">
	<g>
		<g>
			<circle class="st4" cx="19.6" cy="141.5" r="8.5"/>
			<circle class="st5" cx="19.6" cy="141.5" r="8.5"/>
		</g>
		<g>
			<path class="st6" d="M17.9,145.4v-1.6h1v-4.5H18v-1.6h2.6v6.1h0.9v1.6H17.9z"/>
		</g>
	</g>
	<g>
		<g>
			<circle class="st4" cx="81.9" cy="164.2" r="8.5"/>
			<circle class="st5" cx="81.9" cy="164.2" r="8.5"/>
		</g>
		<g>
			<path class="st6" d="M79.8,168.1v-2.6c0-0.6,0.1-1,0.6-1.2l1.9-0.8V162l-0.1-0.1h-0.5l-0.1,0.1v1.1h-1.7v-1.3
				c0-0.8,0.4-1.1,0.8-1.3h2.5c0.5,0.2,0.8,0.5,0.8,1.3v1.9c0,0.6-0.1,0.9-0.6,1.2l-1.9,0.8v0.9H84v1.6H79.8z"/>
		</g>
	</g>
	<g>
		<g>
			<circle class="st4" cx="40" cy="260.2" r="8.5"/>
			<circle class="st5" cx="40" cy="260.2" r="8.5"/>
		</g>
		<g>
			<path class="st6" d="M38.8,264.1c-0.5-0.2-0.8-0.5-0.8-1.3v-1h1.7v0.8l0.1,0.1h0.5l0.1-0.1V261l-0.1-0.1h-1v-1.3h1l0.1-0.1v-1.5
				l-0.1-0.1h-0.5l-0.1,0.1v0.8h-1.7v-1c0-0.8,0.4-1.1,0.8-1.3h2.5c0.5,0.2,0.8,0.5,0.8,1.3v1.3c0,0.6-0.2,0.9-0.6,1.2
				c0.4,0.3,0.6,0.6,0.6,1.2v1.4c0,0.8-0.4,1.1-0.8,1.3H38.8z"/>
		</g>
	</g>
	<g>
		<g>
			<circle class="st4" cx="369.7" cy="354.1" r="8.5"/>
			<circle class="st5" cx="369.7" cy="354.1" r="8.5"/>
		</g>
		<g>
			<path class="st6" d="M371.3,356.5v1.5h-1.7v-1.5h-2.2V355l1.6-4.7h1.7l-1.6,4.6h0.5v-0.4l0.4-1h1.3v1.4h0.5v1.6H371.3z"/>
		</g>
	</g>
	<g>
		<g>
			<circle class="st4" cx="390.2" cy="256.6" r="8.5"/>
			<circle class="st5" cx="390.2" cy="256.6" r="8.5"/>
		</g>
		<g>
			<path class="st6" d="M388.9,260.5c-0.5-0.2-0.8-0.5-0.8-1.3v-1h1.6v0.8l0.1,0.1h0.6l0.1-0.1v-2.1l-0.1-0.1h-0.6l-0.1,0.1v0.4
				h-1.6v-4.5h4v1.5h-2.4v1.6l0.4-0.4h1.3c0.5,0.2,0.8,0.5,0.8,1.3v2.4c0,0.8-0.4,1.1-0.8,1.3H388.9z"/>
		</g>
	</g>
	<g>
		<g>
			<circle class="st4" cx="209.5" cy="150.8" r="8.5"/>
			<circle class="st5" cx="209.5" cy="150.8" r="8.5"/>
		</g>
		<g>
			<path class="st6" d="M210.7,154.7h-2.5c-0.5-0.2-0.8-0.5-0.8-1.3v-5.1c0-0.8,0.4-1.1,0.8-1.3h2.5c0.5,0.2,0.8,0.5,0.8,1.3v1h-1.7
				v-0.8l-0.1-0.1h-0.5l-0.1,0.1v1.8l0.3-0.3h1.3c0.5,0.2,0.8,0.5,0.8,1.3v2.2C211.6,154.2,211.2,154.5,210.7,154.7z M209.7,153.3
				l0.1-0.1v-1.8l-0.1-0.1h-0.5l-0.1,0.1v1.8l0.1,0.1H209.7z"/>
		</g>
	</g>
	<g>
		<g>
			<circle class="st4" cx="258.7" cy="112" r="8.5"/>
			<circle class="st5" cx="258.7" cy="112" r="8.5"/>
		</g>
		<g>
			<path class="st6" d="M256.9,115.9l2.1-6.2h-2.4v-1.5h4.1v1.2l-2.1,6.5H256.9z"/>
		</g>
	</g>
	<g>
		<g>
			<circle class="st4" cx="334.8" cy="90" r="8.5"/>
			<circle class="st5" cx="334.8" cy="90" r="8.5"/>
		</g>
		<g>
			<path class="st6" d="M333.5,93.9c-0.5-0.2-0.8-0.5-0.8-1.3v-1.4c0-0.6,0.2-0.9,0.6-1.2c-0.4-0.3-0.6-0.6-0.6-1.2v-1.3
				c0-0.8,0.4-1.1,0.8-1.3h2.5c0.5,0.2,0.8,0.5,0.8,1.3v1.3c0,0.6-0.2,0.9-0.6,1.2c0.4,0.3,0.6,0.6,0.6,1.2v1.4
				c0,0.8-0.4,1.1-0.8,1.3H333.5z M334.4,89.3l0.1,0.1h0.5l0.1-0.1v-1.5l-0.1-0.1h-0.5l-0.1,0.1V89.3z M335.2,92.4v-1.6l-0.1-0.1
				h-0.5l-0.1,0.1v1.6l0.1,0.1h0.5L335.2,92.4z"/>
		</g>
	</g>
	<g>
		<g>
			<circle class="st4" cx="299.5" cy="154.8" r="8.5"/>
			<circle class="st5" cx="299.5" cy="154.8" r="8.5"/>
		</g>
		<g>
			<path class="st6" d="M298.2,158.7c-0.5-0.2-0.8-0.5-0.8-1.3v-1h1.7v0.8l0.1,0.1h0.5l0.1-0.1v-1.8l-0.3,0.3h-1.3
				c-0.5-0.2-0.8-0.5-0.8-1.3v-2.2c0-0.8,0.4-1.1,0.8-1.3h2.5c0.5,0.2,0.8,0.5,0.8,1.3v5.1c0,0.8-0.4,1.1-0.8,1.3H298.2z
				 M299.9,154.4v-1.8l-0.1-0.1h-0.5l-0.1,0.1v1.8l0.1,0.1h0.5L299.9,154.4z"/>
		</g>
	</g>
	<g>
		<g>
			<circle class="st4" cx="466.9" cy="264.8" r="8.5"/>
			<circle class="st5" cx="466.9" cy="264.8" r="8.5"/>
		</g>
		<g>
			<path class="st6" d="M462.9,268.7v-1.6h1v-4.5H463V261h2.6v6.1h0.9v1.6H462.9z"/>
			<path class="st6" d="M467.2,268.7v-2.6c0-0.6,0.1-1,0.6-1.2l1.9-0.8v-1.6l-0.1-0.1H469l-0.1,0.1v1.1h-1.7v-1.3
				c0-0.8,0.4-1.1,0.8-1.3h2.5c0.5,0.2,0.8,0.5,0.8,1.3v1.9c0,0.6-0.1,0.9-0.6,1.2l-1.9,0.8v0.9h2.4v1.6H467.2z"/>
		</g>
	</g>
	<g>
		<g>
			<circle class="st4" cx="503.8" cy="193.8" r="8.5"/>
			<circle class="st5" cx="503.8" cy="193.8" r="8.5"/>
		</g>
		<g>
			<path class="st6" d="M499.8,197.7v-1.6h1v-4.5h-0.9V190h2.6v6.1h0.9v1.6H499.8z"/>
			<path class="st6" d="M504.9,197.7c-0.5-0.2-0.8-0.5-0.8-1.3v-1h1.7v0.8l0.1,0.1h0.5l0.1-0.1v-1.6l-0.1-0.1h-1v-1.3h1l0.1-0.1
				v-1.5l-0.1-0.1h-0.5l-0.1,0.1v0.8h-1.7v-1c0-0.8,0.4-1.1,0.8-1.3h2.5c0.5,0.2,0.8,0.5,0.8,1.3v1.3c0,0.6-0.2,0.9-0.6,1.2
				c0.4,0.3,0.6,0.6,0.6,1.2v1.4c0,0.8-0.4,1.1-0.8,1.3H504.9z"/>
		</g>
	</g>
	<g>
		<g>
			<circle class="st4" cx="452.7" cy="78.2" r="8.5"/>
			<circle class="st5" cx="452.7" cy="78.2" r="8.5"/>
		</g>
		<g>
			<path class="st6" d="M448.7,82.1v-1.6h1V76h-0.9v-1.6h2.6v6.1h0.9v1.6H448.7z"/>
			<path class="st6" d="M456.7,80.6v1.5H455v-1.5h-2.2v-1.5l1.6-4.7h1.7l-1.6,4.6h0.5v-0.4l0.4-1h1.3V79h0.5v1.6H456.7z"/>
		</g>
	</g>
	<g>
		<g>
			<circle class="st4" cx="288.4" cy="39.2" r="8.5"/>
			<circle class="st5" cx="288.4" cy="39.2" r="8.5"/>
		</g>
		<g>
			<path class="st6" d="M284.4,43.1v-1.6h1V37h-0.9v-1.6h2.6v6.1h0.9v1.6H284.4z"/>
			<path class="st6" d="M289.5,43.1c-0.5-0.2-0.8-0.5-0.8-1.3v-1h1.6v0.8l0.1,0.1h0.6l0.1-0.1v-2.1l-0.1-0.1h-0.6l-0.1,0.1V40h-1.6
				v-4.5h4v1.5h-2.4v1.6l0.4-0.4h1.3c0.5,0.2,0.8,0.5,0.8,1.3v2.4c0,0.8-0.4,1.1-0.8,1.3H289.5z"/>
		</g>
	</g>
	<g>
		<g>
			<circle class="st4" cx="394.1" cy="112.2" r="8.5"/>
			<circle class="st5" cx="394.1" cy="112.2" r="8.5"/>
		</g>
		<g>
			<path class="st6" d="M390.1,116.1v-1.6h1v-4.5h-0.9v-1.6h2.6v6.1h0.9v1.6H390.1z"/>
			<path class="st6" d="M397.7,116.1h-2.5c-0.5-0.2-0.8-0.5-0.8-1.3v-5.1c0-0.8,0.4-1.1,0.8-1.3h2.5c0.5,0.2,0.8,0.5,0.8,1.3v5.1
				C398.5,115.7,398.2,116,397.7,116.1z M396.8,110l-0.1-0.1h-0.5l-0.1,0.1v4.7l0.1,0.1h0.5l0.1-0.1V110z"/>
		</g>
	</g>
	<g>
		<g>
			<circle class="st4" cx="352.6" cy="188.5" r="8.5"/>
			<circle class="st5" cx="352.6" cy="188.5" r="8.5"/>
		</g>
		<g>
			<path class="st6" d="M348.5,192.4v-1.6h1v-4.5h-0.9v-1.6h2.6v6.1h0.9v1.6H348.5z"/>
			<path class="st6" d="M353.2,192.4v-1.6h1v-4.5h-0.9v-1.6h2.6v6.1h0.9v1.6H353.2z"/>
		</g>
	</g>
</g>


<g id="アイコン">
	<g>
		
			<rect x="158.4" y="56.8" transform="matrix(0.2841 0.9588 -0.9588 0.2841 170.2765 -111.5281)" class="st5" width="2.8" height="2.8"/>
		
			<rect x="160" y="62.3" transform="matrix(0.2841 0.9588 -0.9588 0.2841 176.6413 -109.1807)" class="st5" width="2.8" height="2.8"/>
		
			<rect x="156.5" y="60.4" transform="matrix(0.2841 0.9588 -0.9588 0.2841 172.2852 -107.172)" class="st5" width="2.8" height="2.8"/>
		
			<rect x="158.1" y="65.8" transform="matrix(0.2841 0.9588 -0.9588 0.2841 178.65 -104.8247)" class="st5" width="2.8" height="2.8"/>
		
			<rect x="151.1" y="62" transform="matrix(0.2841 0.9588 -0.9588 0.2841 169.9379 -100.8072)" class="st5" width="2.8" height="2.8"/>
		
			<rect x="152.7" y="67.4" transform="matrix(0.2841 0.9588 -0.9588 0.2841 176.3026 -98.4599)" class="st5" width="2.8" height="2.8"/>
		
			<rect x="161.6" y="67.7" transform="matrix(0.2841 0.9588 -0.9588 0.2841 183.006 -106.8334)" class="st5" width="2.8" height="2.8"/>
		
			<rect x="160.8" y="65" transform="matrix(0.2841 0.9588 -0.9588 0.2841 179.8236 -108.007)" class="st6" width="2.8" height="2.8"/>
		
			<rect x="159.2" y="59.6" transform="matrix(0.2841 0.9588 -0.9588 0.2841 173.4589 -110.3544)" class="st6" width="2.8" height="2.8"/>
		
			<rect x="155.7" y="57.6" transform="matrix(0.2841 0.9588 -0.9588 0.2841 169.1028 -108.3457)" class="st6" width="2.8" height="2.8"/>
		
			<rect x="157.3" y="63.1" transform="matrix(0.2841 0.9588 -0.9588 0.2841 175.4676 -105.9983)" class="st6" width="2.8" height="2.8"/>
		
			<rect x="158.9" y="68.5" transform="matrix(0.2841 0.9588 -0.9588 0.2841 181.8324 -103.651)" class="st6" width="2.8" height="2.8"/>
		
			<rect x="155.4" y="66.6" transform="matrix(0.2841 0.9588 -0.9588 0.2841 177.4763 -101.6423)" class="st6" width="2.8" height="2.8"/>
		
			<rect x="153.8" y="61.2" transform="matrix(0.2841 0.9588 -0.9588 0.2841 171.1115 -103.9896)" class="st6" width="2.8" height="2.8"/>
		
			<rect x="149.9" y="68.2" transform="matrix(0.2841 0.9588 -0.9588 0.2841 175.129 -95.2775)" class="st6" width="2.8" height="2.8"/>
		
			<rect x="148.3" y="62.8" transform="matrix(0.2841 0.9588 -0.9588 0.2841 168.7642 -97.6248)" class="st6" width="2.8" height="2.8"/>
		
			<rect x="150.2" y="59.3" transform="matrix(0.2841 0.9588 -0.9588 0.2841 166.7555 -101.9809)" class="st6" width="2.8" height="2.8"/>
		
			<rect x="151.9" y="64.7" transform="matrix(0.2841 0.9588 -0.9588 0.2841 173.1202 -99.6335)" class="st6" width="2.8" height="2.8"/>
		
			<rect x="153.5" y="70.1" transform="matrix(0.2841 0.9588 -0.9588 0.2841 179.485 -97.2862)" class="st6" width="2.8" height="2.8"/>
		
			<rect x="153" y="58.5" transform="matrix(0.2841 0.9588 -0.9588 0.2841 167.9291 -105.1633)" class="st5" width="2.8" height="2.8"/>
		
			<rect x="154.6" y="63.9" transform="matrix(0.2841 0.9588 -0.9588 0.2841 174.2939 -102.8159)" class="st5" width="2.8" height="2.8"/>
		
			<rect x="149.1" y="65.5" transform="matrix(0.2841 0.9588 -0.9588 0.2841 171.9466 -96.4511)" class="st5" width="2.8" height="2.8"/>
		
			<rect x="156.2" y="69.3" transform="matrix(0.2841 0.9588 -0.9588 0.2841 180.6587 -100.4686)" class="st5" width="2.8" height="2.8"/>
		
			<rect x="147.5" y="60.1" transform="matrix(0.2841 0.9588 -0.9588 0.2841 165.5818 -98.7985)" class="st5" width="2.8" height="2.8"/>
		
			<rect x="150.8" y="70.9" transform="matrix(0.2841 0.9588 -0.9588 0.2841 178.3114 -94.1038)" class="st5" width="2.8" height="2.8"/>
	</g>
	<g>
		<g>
			<path class="st6" d="M462.8,426.3c0,1.6-1.3,2.8-2.8,2.8H91.1c-1.6,0-2.8-1.3-2.8-2.8v-24.9c0-1.6,1.3-2.8,2.8-2.8h368.8
				c1.6,0,2.8,1.3,2.8,2.8V426.3z"/>
			<path class="st13" d="M462.8,426.3c0,1.6-1.3,2.8-2.8,2.8H91.1c-1.6,0-2.8-1.3-2.8-2.8v-24.9c0-1.6,1.3-2.8,2.8-2.8h368.8
				c1.6,0,2.8,1.3,2.8,2.8V426.3z"/>
		</g>
		<g>
			<path class="st5" d="M133.8,415.3v2.6c0,1.3-0.6,1.7-1.3,2h-3.3c-0.7-0.3-1.3-0.7-1.3-2v-2h1.8v2.1l0.4,0.4h1.6l0.4-0.4v-2.8
				l-0.3-0.4L129,414c-0.8-0.3-1.1-0.8-1.1-1.9v-2.2c0-1.3,0.6-1.7,1.3-2h3.3c0.7,0.3,1.3,0.7,1.3,2v1.9H132v-2.1l-0.4-0.4h-1.6
				l-0.4,0.4v2.4l0.4,0.4l2.6,0.7C133.4,413.6,133.8,414.1,133.8,415.3z"/>
			<path class="st5" d="M135.1,407.9h5.1v1.6h-3.3v3.4h3.1v1.6h-3.1v3.7h3.4v1.6h-5.2V407.9z"/>
			<path class="st5" d="M147.5,417.9c0,1.3-0.6,1.7-1.3,2h-3.3c-0.7-0.3-1.3-0.7-1.3-2v-8c0-1.3,0.6-1.7,1.3-2h3.3
				c0.7,0.3,1.3,0.7,1.3,2v2.7h-1.8v-2.8l-0.4-0.4h-1.6l-0.4,0.4v8.3l0.4,0.4h1.6l0.4-0.4v-2.7h1.8V417.9z"/>
			<path class="st5" d="M152.2,409.5v10.3h-1.8v-10.3h-2.1v-1.6h6.1v1.6H152.2z"/>
			<path class="st5" d="M161.1,417.9c0,1.3-0.6,1.7-1.3,2h-3.3c-0.7-0.3-1.3-0.7-1.3-2v-8c0-1.3,0.6-1.7,1.3-2h3.3
				c0.7,0.3,1.3,0.7,1.3,2V417.9z M159.3,409.7l-0.4-0.4h-1.6l-0.4,0.4v8.3l0.4,0.4h1.6l0.4-0.4V409.7z"/>
			<path class="st5" d="M162.5,419.8v-12h4.6c0.7,0.3,1.3,0.7,1.3,2v2.6c0,1.3-0.6,1.6-1.3,1.9l-0.3,0.1l2.1,4.3v1.1h-1.6l-2.2-5.1
				h-0.8v5.1H162.5z M164.3,409.4v3.9h2l0.4-0.4v-3.1l-0.4-0.4H164.3z"/>
			<path class="st5" d="M172.6,419.8v-1.6h1.8v-8.7h-1.7v-1.6h3.5v10.4h1.7v1.6H172.6z"/>
		</g>
		<line class="st14" x1="102.5" y1="413.9" x2="123.7" y2="413.9"/>
		<g>
			<path class="st5" d="M223.9,415.3v2.6c0,1.3-0.6,1.7-1.3,2h-3.3c-0.7-0.3-1.3-0.7-1.3-2v-2h1.8v2.1l0.4,0.4h1.6l0.4-0.4v-2.8
				l-0.3-0.4l-2.6-0.8c-0.8-0.3-1.1-0.8-1.1-1.9v-2.2c0-1.3,0.6-1.7,1.3-2h3.3c0.7,0.3,1.3,0.7,1.3,2v1.9h-1.8v-2.1l-0.4-0.4h-1.6
				l-0.4,0.4v2.4l0.4,0.4l2.6,0.7C223.5,413.6,223.9,414.1,223.9,415.3z"/>
			<path class="st5" d="M225.2,407.9h5.1v1.6H227v3.4h3.1v1.6H227v3.7h3.4v1.6h-5.2V407.9z"/>
			<path class="st5" d="M237.6,417.9c0,1.3-0.6,1.7-1.3,2h-3.3c-0.7-0.3-1.3-0.7-1.3-2v-8c0-1.3,0.6-1.7,1.3-2h3.3
				c0.7,0.3,1.3,0.7,1.3,2v2.7h-1.8v-2.8l-0.4-0.4h-1.6l-0.4,0.4v8.3l0.4,0.4h1.6l0.4-0.4v-2.7h1.8V417.9z"/>
			<path class="st5" d="M242.3,409.5v10.3h-1.8v-10.3h-2.1v-1.6h6.1v1.6H242.3z"/>
			<path class="st5" d="M251.2,417.9c0,1.3-0.6,1.7-1.3,2h-3.3c-0.7-0.3-1.3-0.7-1.3-2v-8c0-1.3,0.6-1.7,1.3-2h3.3
				c0.7,0.3,1.3,0.7,1.3,2V417.9z M249.4,409.7l-0.4-0.4h-1.6l-0.4,0.4v8.3l0.4,0.4h1.6l0.4-0.4V409.7z"/>
			<path class="st5" d="M252.6,419.8v-12h4.6c0.7,0.3,1.3,0.7,1.3,2v2.6c0,1.3-0.6,1.6-1.3,1.9l-0.3,0.1l2.1,4.3v1.1h-1.6l-2.2-5.1
				h-0.8v5.1H252.6z M254.4,409.4v3.9h2l0.4-0.4v-3.1l-0.4-0.4H254.4z"/>
			<path class="st5" d="M262.3,419.8v-3.6c0-1.1,0.4-1.7,1.2-2.1l3-1.2v-3.2l-0.4-0.4h-1.7l-0.4,0.4v2h-1.8v-1.9
				c0-1.3,0.6-1.7,1.3-2h3.3c0.7,0.3,1.3,0.7,1.3,2v2.5c0,1.1-0.3,1.7-1.1,2.1l-3,1.2v2.5h4.1v1.6H262.3z"/>
		</g>
		<line class="st15" x1="192.6" y1="413.9" x2="213.8" y2="413.9"/>
		<g>
			<path class="st5" d="M313.7,415.3v2.6c0,1.3-0.6,1.7-1.3,2h-3.3c-0.7-0.3-1.3-0.7-1.3-2v-2h1.8v2.1l0.4,0.4h1.6l0.4-0.4v-2.8
				l-0.3-0.4L309,414c-0.8-0.3-1.1-0.8-1.1-1.9v-2.2c0-1.3,0.6-1.7,1.3-2h3.3c0.7,0.3,1.3,0.7,1.3,2v1.9h-1.8v-2.1l-0.4-0.4H310
				l-0.4,0.4v2.4l0.4,0.4l2.6,0.7C313.4,413.6,313.7,414.1,313.7,415.3z"/>
			<path class="st5" d="M315.1,407.9h5.1v1.6h-3.3v3.4h3.1v1.6h-3.1v3.7h3.4v1.6h-5.2V407.9z"/>
			<path class="st5" d="M327.4,417.9c0,1.3-0.6,1.7-1.3,2h-3.3c-0.7-0.3-1.3-0.7-1.3-2v-8c0-1.3,0.6-1.7,1.3-2h3.3
				c0.7,0.3,1.3,0.7,1.3,2v2.7h-1.8v-2.8l-0.4-0.4h-1.6l-0.4,0.4v8.3l0.4,0.4h1.6l0.4-0.4v-2.7h1.8V417.9z"/>
			<path class="st5" d="M332.1,409.5v10.3h-1.8v-10.3h-2.1v-1.6h6.1v1.6H332.1z"/>
			<path class="st5" d="M341,417.9c0,1.3-0.6,1.7-1.3,2h-3.3c-0.7-0.3-1.3-0.7-1.3-2v-8c0-1.3,0.6-1.7,1.3-2h3.3
				c0.7,0.3,1.3,0.7,1.3,2V417.9z M339.2,409.7l-0.4-0.4h-1.6l-0.4,0.4v8.3l0.4,0.4h1.6l0.4-0.4V409.7z"/>
			<path class="st5" d="M342.4,419.8v-12h4.6c0.7,0.3,1.3,0.7,1.3,2v2.6c0,1.3-0.6,1.6-1.3,1.9l-0.3,0.1l2.1,4.3v1.1h-1.6l-2.2-5.1
				h-0.8v5.1H342.4z M344.2,409.4v3.9h2l0.4-0.4v-3.1l-0.4-0.4H344.2z"/>
			<path class="st5" d="M353.4,419.8c-0.7-0.3-1.3-0.7-1.3-2v-1.7h1.8v1.8l0.4,0.4h1.7l0.4-0.4v-3.2l-0.4-0.3h-1.8V413h1.8l0.4-0.4
				v-3l-0.4-0.4h-1.7l-0.4,0.4v1.8h-1.8v-1.7c0-1.3,0.6-1.7,1.3-2h3.3c0.7,0.3,1.3,0.7,1.3,2v1.9c0,1-0.2,1.5-0.9,1.9
				c0.6,0.4,0.9,0.9,0.9,1.9v2.2c0,1.3-0.6,1.7-1.3,2H353.4z"/>
		</g>
		<line class="st16" x1="282.4" y1="413.9" x2="303.7" y2="413.9"/>
		<g>
			<path class="st5" d="M403.6,417.9c0,1.3-0.6,1.7-1.3,2h-4.6v-12h4.6c0.7,0.3,1.3,0.7,1.3,2V417.9z M399.5,409.4v9h2l0.4-0.4v-8.3
				l-0.4-0.4H399.5z"/>
			<path class="st5" d="M405,419.8v-12h4.6c0.7,0.3,1.3,0.7,1.3,2v2.6c0,1.3-0.6,1.6-1.3,1.9l-0.3,0.1l2.1,4.3v1.1h-1.6l-2.2-5.1
				h-0.8v5.1H405z M406.8,409.4v3.9h2l0.4-0.4v-3.1l-0.4-0.4H406.8z"/>
			<path class="st5" d="M418.1,415.3v2.6c0,1.3-0.6,1.7-1.3,2h-3.3c-0.7-0.3-1.3-0.7-1.3-2v-2h1.8v2.1l0.4,0.4h1.6l0.4-0.4v-2.8
				l-0.3-0.4l-2.6-0.8c-0.8-0.3-1.1-0.8-1.1-1.9v-2.2c0-1.3,0.6-1.7,1.3-2h3.3c0.7,0.3,1.3,0.7,1.3,2v1.9h-1.8v-2.1l-0.4-0.4h-1.6
				l-0.4,0.4v2.4l0.4,0.4l2.6,0.7C417.7,413.6,418.1,414.1,418.1,415.3z"/>
			<path class="st5" d="M425.6,409.5h-3.9v-1.6h5.8v1.5l-4,8.9h4v1.6h-5.9v-1.5L425.6,409.5z"/>
			<path class="st5" d="M434.8,417.9c0,1.3-0.6,1.7-1.3,2h-3.3c-0.7-0.3-1.3-0.7-1.3-2v-8c0-1.3,0.6-1.7,1.3-2h3.3
				c0.7,0.3,1.3,0.7,1.3,2V417.9z M433,409.7l-0.4-0.4H431l-0.4,0.4v8.3l0.4,0.4h1.6l0.4-0.4V409.7z"/>
			<path class="st5" d="M440.5,407.9h1.6v12h-1.6l-2.6-7.1h-0.2v7.1h-1.6v-12h1.6l2.6,7.1h0.2V407.9z"/>
			<path class="st5" d="M443.5,407.9h5.1v1.6h-3.3v3.4h3.1v1.6h-3.1v3.7h3.4v1.6h-5.2V407.9z"/>
		</g>
		<g>
			<g>
				<g>
					<g>
						<line class="st17" x1="373.7" y1="406.5" x2="373.7" y2="421.4"/>
					</g>
					<g>
						<path class="st7" d="M381.3,413.9c0,0.8-0.7,1.4-1.5,1.4c-0.8,0-1.5-0.6-1.5-1.4c0-0.8,0.7-1.4,1.5-1.4
							C380.7,412.5,381.3,413.2,381.3,413.9z"/>
					</g>
					<g>
						<ellipse class="st7" cx="385.9" cy="413.9" rx="1.5" ry="1.4"/>
					</g>
					<g>
						<line class="st17" x1="392" y1="406.5" x2="392" y2="421.4"/>
					</g>
				</g>
			</g>
		</g>
	</g>
	<g>
		<defs>
			
				<rect id="SVGID_1_" x="105.8" y="75.6" transform="matrix(0.9665 -0.2567 0.2567 0.9665 -16.5756 32.6948)" width="22.3" height="8.5"/>
		</defs>
		<clipPath id="SVGID_00000168100518656533549370000000995271999150877876_">
			<use xlink:href="#SVGID_1_"  style="overflow:visible;"/>
		</clipPath>
		<g style="clip-path:url(#SVGID_00000168100518656533549370000000995271999150877876_);">
			<polygon class="st19" points="128.3,84.1 125.6,84.9 118.3,79.5 122,71.2 124.7,70.4 121,78.7 			"/>
			<polygon class="st20" points="122.9,85.6 120.1,86.3 112.8,80.9 116.5,72.6 119.2,71.9 115.6,80.2 			"/>
			<polygon class="st21" points="117.4,87 114.6,87.8 107.3,82.4 111,74.1 113.7,73.3 110.1,81.7 			"/>
		</g>
	</g>
</g>
</svg>
