<?xml version="1.0" encoding="UTF-8"?>
<svg xmlns="http://www.w3.org/2000/svg" xmlns:xlink="http://www.w3.org/1999/xlink" clip-rule="evenodd" stroke-miterlimit="10" viewBox="0 0 690.66 638.50">
    <desc>SVG generated by Lineform</desc>
    <defs/>
    <g>
        <path d="M 269.44 424.27 C 273.10 423.02 276.71 423.04 278.23 424.35 C 279.85 425.76 282.06 428.40 277.94 432.40 " stroke="#999999" stroke-width="5.00" fill="none"/>
        <path d="M 274.52 423.31 C 262.98 425.15 261.73 424.86 261.35 429.40 C 261.04 433.20 258.06 433.02 245.96 435.48 " stroke="#999999" stroke-width="4.00" fill="none"/>
        <path d="M 273.81 408.40 C 276.73 409.02 279.72 416.17 281.10 417.73 C 284.31 421.32 287.31 421.77 290.94 421.40 " stroke="#999999" stroke-width="5.00" fill="none"/>
        <path d="M 207.38 506.56 C 207.99 504.02 209.11 502.77 211.42 503.06 C 214.12 503.41 213.90 511.77 219.06 507.31 " stroke="#999999" stroke-width="4.96" fill="none"/>
        <path d="M 212.12 490.31 C 211.52 493.65 212.74 494.89 214.87 495.69 C 217.37 496.62 219.66 494.65 220.38 492.44 " stroke="#999999" stroke-width="4.89" fill="none"/>
        <path d="M 246.69 465.10 C 236.15 473.02 234.32 475.37 232.44 473.73 C 230.66 472.19 232.06 470.44 233.06 468.35 C 234.09 466.21 236.27 464.98 236.94 462.35 C 237.36 460.68 235.63 458.57 234.06 457.85 C 230.69 456.31 226.19 458.20 223.06 459.10 C 219.90 460.02 217.22 461.64 217.44 464.10 C 217.71 467.11 219.65 468.15 221.81 468.23 C 222.82 468.27 224.40 468.60 224.98 470.15 C 225.51 471.56 226.20 473.48 223.81 480.90 M 203.19 466.48 " stroke="#999999" stroke-width="5.00" fill="none"/>
        <path d="M 537.76 72.41 C 534.87 73.80 533.16 74.38 528.62 76.85 C 523.85 79.44 503.33 92.47 502.34 92.78 " stroke="#999999" stroke-width="5.00" fill="none"/>
        <path d="M 291.96 441.76 L 295.72 445.77 L 286.58 450.67 Z M 291.96 441.76 " fill-rule="non-zero" fill="#FF0000"/>
        <path d="M 287.18 49.92 L 285.68 44.63 L 296.05 44.48 Z M 287.18 49.92 " fill-rule="non-zero" fill="#FF0000"/>
        <path d="M 178.32 392.76 L 174.32 396.53 L 169.39 387.41 Z M 178.32 392.76 " fill-rule="non-zero" fill="#FF0000"/>
        <path d="M 423.87 324.90 L 426.71 329.61 L 416.75 332.49 Z M 423.87 324.90 " fill-rule="non-zero" fill="#FF0000"/>
        <path d="M 277.12 67.12 L 287.12 82.38 " stroke="#000000" stroke-width="4.50" fill="none"/>
        <path d="M 269.88 425.38 C 271.79 424.79 277.79 426.55 274.88 429.62 C 266.04 438.96 256.65 448.10 247.81 457.44 L 240.94 467.81 " stroke="#000000" stroke-width="2.00" fill="none"/>
        <path d="M 246.69 465.19 C 236.15 473.10 234.46 475.31 232.60 473.65 C 225.66 467.41 225.01 476.30 223.94 480.69 C 222.02 488.52 216.71 501.13 218.06 504.81 C 219.51 508.75 226.84 509.41 228.56 511.94 C 231.48 516.23 220.48 519.22 216.19 522.56 C 211.27 526.40 204.69 532.18 201.44 536.94 C 198.69 540.95 195.97 544.12 192.44 541.31 C 189.98 539.36 191.40 536.90 194.44 534.06 C 200.47 528.44 208.06 520.10 208.56 517.19 C 209.07 514.21 206.86 511.01 207.19 507.81 C 207.90 500.86 215.73 482.02 216.19 477.19 C 216.63 472.53 205.23 470.87 203.19 466.56 C 201.68 463.38 221.68 442.60 225.31 440.44 C 228.55 438.50 250.91 434.74 263.77 431.58 C 268.02 430.54 267.61 424.32 270.35 423.98 C 275.44 423.35 279.39 419.49 278.81 414.60 C 278.67 413.41 278.48 412.90 277.73 411.96 C 276.32 410.20 276.62 408.64 273.04 408.40 C 271.37 408.29 269.32 408.43 267.06 412.48 C 265.82 414.71 264.54 416.45 262.67 418.11 C 258.98 421.39 255.07 424.11 250.26 424.10 C 245.25 424.09 243.62 421.55 237.70 419.67 C 233.64 418.38 226.53 418.07 224.27 419.14 C 222.45 420.00 222.74 420.13 221.30 420.31 C 219.46 420.54 217.76 419.50 216.40 418.06 C 214.31 415.83 213.43 414.24 211.41 411.58 C 209.94 409.65 207.51 408.45 206.20 406.19 C 205.32 404.68 205.66 403.87 203.63 402.32 C 202.20 401.23 196.04 401.33 191.90 399.90 C 188.71 398.79 188.99 394.54 186.86 391.26 C 184.77 388.04 174.02 381.67 167.89 376.52 C 160.61 368.87 160.30 368.11 157.37 364.83 C 154.44 361.55 151.90 359.01 149.55 355.75 C 147.93 353.50 146.40 350.17 146.85 346.31 C 147.84 337.77 152.69 330.93 152.78 321.22 C 152.85 314.56 153.32 311.51 151.80 300.54 C 151.18 296.11 149.67 293.09 148.02 288.94 C 144.21 279.38 139.91 269.95 134.89 260.70 C 133.01 257.23 130.28 254.54 127.16 252.70 C 123.65 250.63 119.39 248.91 115.47 246.95 C 113.49 245.96 112.57 243.69 112.95 241.73 C 113.71 237.84 119.22 237.56 125.72 234.54 C 133.61 230.86 137.10 228.73 141.55 224.83 C 147.06 219.99 151.98 216.64 157.37 211.43 C 161.13 207.80 164.36 205.51 167.35 199.56 C 169.03 196.22 170.20 193.46 171.13 189.58 C 172.48 183.91 171.25 178.96 172.12 175.91 C 173.16 172.27 177.29 171.63 177.87 168.90 C 178.41 166.38 175.37 163.41 176.79 159.73 C 177.66 157.47 183.43 154.48 187.58 150.83 C 190.91 147.90 190.46 147.20 193.70 143.72 C 199.89 137.07 200.33 138.04 207.00 130.50 C 209.79 127.36 211.77 124.50 212.58 120.52 C 213.63 115.35 211.23 110.72 209.43 106.59 C 208.85 105.24 207.81 104.43 206.11 103.80 C 204.67 103.27 202.36 103.97 200.80 103.35 C 198.10 102.27 196.49 101.45 193.97 99.48 C 190.86 97.06 189.53 94.89 189.38 93.01 C 189.20 90.67 190.61 89.83 192.35 89.05 C 196.20 87.32 201.81 84.18 205.75 80.15 C 207.96 77.88 206.86 75.02 208.08 71.97 C 208.77 70.25 210.30 67.44 212.31 65.49 C 215.19 62.71 219.30 61.25 224.27 63.52 C 229.39 65.85 233.62 68.46 238.57 73.05 C 239.92 74.31 239.43 78.28 242.25 78.17 C 246.00 78.02 244.09 75.57 248.01 73.68 C 254.18 70.69 262.56 70.36 268.78 71.97 C 271.69 72.69 275.08 74.41 278.04 73.95 C 281.88 73.35 283.29 70.14 283.61 68.64 C 284.36 65.22 283.50 60.22 285.41 57.76 C 287.37 55.25 288.34 53.90 300.61 49.94 C 312.25 46.18 316.44 48.33 322.46 45.98 C 329.33 43.30 334.82 34.67 340.17 35.01 C 342.99 35.19 345.67 36.67 346.20 39.96 C 347.14 45.88 345.70 51.72 345.66 57.13 C 345.57 69.27 349.08 76.07 351.50 78.71 C 356.29 83.92 361.39 87.03 367.24 89.77 C 371.64 91.84 375.15 93.83 381.26 93.91 C 392.82 94.06 401.59 94.00 410.40 95.98 C 416.09 97.25 421.95 98.71 426.76 102.00 C 430.45 104.52 432.47 106.91 436.02 109.10 C 442.59 113.15 447.32 115.02 452.75 114.23 C 457.03 113.60 463.09 109.62 467.67 105.78 C 471.54 102.54 475.09 97.60 480.08 96.52 C 487.55 94.90 491.22 95.85 496.18 93.82 C 500.57 92.02 502.79 91.98 504.00 93.10 C 507.10 95.97 504.82 99.21 502.65 100.83 C 497.62 104.61 489.10 111.47 486.65 112.07 C 480.73 113.53 481.86 118.50 483.18 119.80 C 486.25 122.84 490.88 120.65 491.48 118.43 C 491.92 116.77 493.19 115.73 495.70 113.93 C 498.58 111.87 501.58 110.28 507.03 108.36 C 509.41 107.52 510.99 106.67 517.38 105.93 C 521.99 105.39 526.68 99.39 530.41 94.05 C 535.21 87.17 530.70 86.00 531.79 82.04 C 532.69 78.74 533.57 75.33 537.81 72.42 C 541.49 69.89 560.84 76.39 562.27 77.27 C 565.69 79.39 567.35 83.44 570.54 84.92 C 574.23 86.62 575.74 86.65 578.81 88.06 C 580.97 89.05 587.72 98.74 587.80 101.37 C 587.94 105.70 580.47 117.54 584.93 121.42 C 588.86 124.85 590.02 123.88 594.46 126.10 C 597.51 127.62 597.51 132.58 597.70 135.99 C 597.87 139.32 597.79 143.72 595.09 145.16 C 589.69 148.04 582.39 143.63 576.30 145.34 C 573.05 146.25 574.14 150.47 570.09 155.59 C 565.39 161.54 563.17 168.17 563.17 171.87 C 563.17 177.35 563.71 184.36 563.26 189.31 C 563.02 191.97 561.51 194.95 559.12 196.14 C 555.16 198.12 551.43 197.77 548.15 200.10 C 544.64 202.59 542.58 205.34 539.34 208.91 C 536.19 212.38 535.65 214.46 533.67 218.71 C 531.97 222.40 530.53 223.93 528.55 226.27 C 526.79 228.34 524.07 229.34 521.80 230.85 C 519.65 232.29 517.69 234.66 514.07 235.62 C 504.25 238.20 494.97 242.41 485.57 243.08 C 479.38 243.52 477.30 235.80 471.18 235.89 C 468.62 235.92 466.18 237.30 463.99 238.85 C 460.26 241.49 456.51 243.27 456.79 246.41 C 457.70 256.39 476.31 255.76 481.25 263.49 C 482.87 266.02 485.26 269.62 484.85 275.72 C 484.63 279.05 481.94 281.81 479.45 283.81 C 473.66 288.49 453.38 300.00 440.07 308.00 L 374.43 348.73 C 362.38 356.29 343.26 367.58 338.10 371.48 C 325.70 380.85 314.99 398.52 312.17 402.55 C 310.42 405.05 304.46 409.26 303.80 411.18 C 303.03 413.40 303.26 417.60 301.05 419.18 C 298.38 421.07 296.79 420.35 294.08 420.69 C 286.80 421.58 285.72 424.50 283.06 426.96 Z M 280.56 416.79 " stroke="#000000" stroke-width="5.00" fill="none"/>
        <g>
            <path d="M 268.68 434.56 L 272.21 438.07 L 268.70 441.60 L 265.17 438.09 Z M 268.68 434.56 " fill-rule="non-zero" fill="#000000"/>
            <path d="M 265.17 438.09 L 268.70 441.60 L 265.19 445.13 L 261.66 441.62 Z M 265.17 438.09 " fill-rule="non-zero" fill="#FFFFFF"/>
            <path d="M 261.66 441.62 L 265.19 445.13 L 261.68 448.66 L 258.15 445.15 Z M 261.66 441.62 " fill-rule="non-zero" fill="#000000"/>
            <path d="M 272.18 438.04 L 275.71 441.55 L 272.20 445.08 L 268.67 441.57 Z M 272.18 438.04 " fill-rule="non-zero" fill="#FFFFFF"/>
            <path d="M 265.16 445.10 L 268.69 448.61 L 265.18 452.14 L 261.65 448.63 Z M 265.16 445.10 " fill-rule="non-zero" fill="#FFFFFF"/>
            <path d="M 268.64 441.54 L 272.17 445.05 L 268.66 448.58 L 265.13 445.07 Z M 268.64 441.54 " fill-rule="non-zero" fill="#000000"/>
            <path d="M 275.68 441.51 L 279.21 445.02 L 275.70 448.55 L 272.17 445.05 Z M 275.68 441.51 " fill-rule="non-zero" fill="#000000"/>
            <path d="M 272.17 445.04 L 275.70 448.55 L 272.19 452.08 L 268.66 448.58 Z M 272.17 445.04 " fill-rule="non-zero" fill="#FFFFFF"/>
            <path d="M 268.66 448.58 L 272.19 452.08 L 268.68 455.62 L 265.15 452.11 Z M 268.66 448.58 " fill-rule="non-zero" fill="#000000"/>
            <path d="M 279.18 444.99 L 282.71 448.50 L 279.20 452.03 L 275.67 448.52 Z M 279.18 444.99 " fill-rule="non-zero" fill="#FFFFFF"/>
            <path d="M 272.16 452.05 L 275.69 455.56 L 272.18 459.09 L 268.65 455.58 Z M 272.16 452.05 " fill-rule="non-zero" fill="#FFFFFF"/>
            <path d="M 275.64 448.49 L 279.17 452.00 L 275.66 455.53 L 272.13 452.02 Z M 275.64 448.49 " fill-rule="non-zero" fill="#000000"/>
            <path d="M 282.74 448.28 L 286.27 451.79 L 282.76 455.32 L 279.23 451.82 Z M 282.74 448.28 " fill-rule="non-zero" fill="#000000"/>
            <path d="M 279.23 451.82 L 282.76 455.32 L 279.25 458.85 L 275.72 455.35 Z M 279.23 451.82 " fill-rule="non-zero" fill="#FFFFFF"/>
            <path d="M 275.72 455.35 L 279.25 458.85 L 275.74 462.39 L 272.21 458.88 Z M 275.72 455.35 " fill-rule="non-zero" fill="#000000"/>
        </g>
        <text xml:space="preserve" font-family="Liberation Sans" font-size="9.00" transform="matrix(0.995892, 0, 0, 0.995892, 0, 0)" opacity="0.50">
            <tspan x="271.75" y="396.74">T13</tspan>
        </text>
        <text xml:space="preserve" font-family="Liberation Sans" font-size="9.00" transform="matrix(0.995892, 0, 0, 0.995892, 0, 0)" opacity="0.50">
            <tspan x="446.00" y="315.91">Döttinger Höhe</tspan>
        </text>
        <text xml:space="preserve" font-family="Liberation Sans" font-size="9.00" transform="matrix(0.995892, 0, 0, 0.995892, 0, 0)" opacity="0.50">
            <tspan x="496.00" y="277.24">Galgenkopf</tspan>
        </text>
        <text xml:space="preserve" font-family="Liberation Sans" font-size="9.00" transform="matrix(0.995892, 0, 0, 0.995892, 0, 0)" opacity="0.50">
            <tspan x="354.50" y="374.08">Antoniusbuche</tspan>
        </text>
        <text xml:space="preserve" font-family="Liberation Sans" font-size="9.00" transform="matrix(0.995892, 0, 0, 0.995892, 0, 0)" opacity="0.50">
            <tspan x="220.83" y="401.74">Hatzenbach</tspan>
        </text>
        <text xml:space="preserve" font-family="Liberation Sans" font-size="9.00" transform="matrix(0.995892, 0, 0, 0.995892, 0, 0)" opacity="0.50">
            <tspan x="143.16" y="411.41">Hoheneichen</tspan>
        </text>
        <text xml:space="preserve" font-family="Liberation Sans" font-size="9.00" transform="matrix(0.995892, 0, 0, 0.995892, 0, 0)" opacity="0.50">
            <tspan x="178.33" y="360.91">Quiddelbacher-</tspan>
            <tspan x="178.33" y="370.91">Höhe</tspan>
        </text>
        <text xml:space="preserve" font-family="Liberation Sans" font-size="9.00" transform="matrix(0.995892, 0, 0, 0.995892, 0, 0)" opacity="0.50">
            <tspan x="102.16" y="346.33">Flugplatz</tspan>
        </text>
        <text xml:space="preserve" font-family="Liberation Sans" font-size="9.00" transform="matrix(0.995892, 0, 0, 0.995892, 0, 0)" opacity="0.50">
            <tspan x="145.83" y="263.41">Schwedenkreuz</tspan>
        </text>
        <text xml:space="preserve" font-family="Liberation Sans" font-size="9.00" transform="matrix(0.995892, 0, 0, 0.995892, 0, 0)" opacity="0.50">
            <tspan x="168.33" y="216.41">Fuchsröhre</tspan>
        </text>
        <text xml:space="preserve" font-family="Liberation Sans" font-size="9.00" transform="matrix(0.995892, 0, 0, 0.995892, 0, 0)" opacity="0.50">
            <tspan x="68.08" y="241.00">Aremberg</tspan>
        </text>
        <text xml:space="preserve" font-family="Liberation Sans" font-size="9.00" transform="matrix(0.995892, 0, 0, 0.995892, 0, 0)" opacity="0.50">
            <tspan x="104.33" y="180.74">Adenauer Forst</tspan>
        </text>
        <text xml:space="preserve" font-family="Liberation Sans" font-size="9.00" transform="matrix(0.995892, 0, 0, 0.995892, 0, 0)" opacity="0.50">
            <tspan x="154.00" y="130.74">Metzgesfeld</tspan>
        </text>
        <text xml:space="preserve" font-family="Liberation Sans" font-size="9.00" transform="matrix(0.995892, 0, 0, 0.995892, 0, 0)" opacity="0.50">
            <tspan x="144.50" y="92.49">Kallenhard</tspan>
        </text>
        <text xml:space="preserve" font-family="Liberation Sans" font-size="9.00" transform="matrix(0.995892, 0, 0, 0.995892, 0, 0)" opacity="0.50">
            <tspan x="217.83" y="89.24">Wehrseifen</tspan>
        </text>
        <text xml:space="preserve" font-family="Liberation Sans" font-size="9.00" transform="matrix(0.995892, 0, 0, 0.995892, 0, 0)" opacity="0.50">
            <tspan x="246.25" y="64.49">Exmühle</tspan>
        </text>
        <text xml:space="preserve" font-family="Liberation Sans" font-size="9.00" transform="matrix(0.995892, 0, 0, 0.995892, 0, 0)" opacity="0.50">
            <tspan x="293.25" y="80.67">Ausfahrt</tspan>
            <tspan x="293.25" y="90.67">Breidscheid</tspan>
        </text>
        <text xml:space="preserve" font-family="Liberation Sans" font-size="9.00" transform="matrix(0.995892, 0, 0, 0.995892, 0, 0)" opacity="0.50">
            <tspan x="354.33" y="40.49">Bergwerk</tspan>
        </text>
        <text xml:space="preserve" font-family="Liberation Sans" font-size="9.00" transform="matrix(0.995892, 0, 0, 0.995892, 0, 0)" opacity="0.50">
            <tspan x="379.08" y="84.49">Kesselchen</tspan>
        </text>
        <text xml:space="preserve" font-family="Liberation Sans" font-size="9.00" transform="matrix(0.995892, 0, 0, 0.995892, 0, 0)" opacity="0.50">
            <tspan x="444.08" y="90.74">Klostertal</tspan>
        </text>
        <text xml:space="preserve" font-family="Liberation Sans" font-size="9.00" transform="matrix(0.995892, 0, 0, 0.995892, 0, 0)" opacity="0.50">
            <tspan x="471.00" y="77.99">Steilstrecke</tspan>
        </text>
        <text xml:space="preserve" font-family="Liberation Sans" font-size="9.00" transform="matrix(0.995892, 0, 0, 0.995892, 0, 0)" opacity="0.50">
            <tspan x="466.33" y="133.66">Caracciola-</tspan>
            <tspan x="466.33" y="143.66">Karussell</tspan>
        </text>
        <text xml:space="preserve" font-family="Liberation Sans" font-size="9.00" transform="matrix(0.995892, 0, 0, 0.995892, 0, 0)" opacity="0.50">
            <tspan x="508.58" y="61.99">Hohe Acht</tspan>
        </text>
        <text xml:space="preserve" font-family="Liberation Sans" font-size="9.00" transform="matrix(0.995892, 0, 0, 0.995892, 0, 0)" opacity="0.50">
            <tspan x="567.00" y="69.99">Hedwigshöhe</tspan>
        </text>
        <text xml:space="preserve" font-family="Liberation Sans" font-size="9.00" transform="matrix(0.995892, 0, 0, 0.995892, 0, 0)" opacity="0.50">
            <tspan x="591.33" y="91.99">Wippermann</tspan>
        </text>
        <text xml:space="preserve" font-family="Liberation Sans" font-size="9.00" transform="matrix(0.995892, 0, 0, 0.995892, 0, 0)" opacity="0.50">
            <tspan x="539.75" y="117.24">Eschbach</tspan>
        </text>
        <text xml:space="preserve" font-family="Liberation Sans" font-size="9.00" transform="matrix(0.995892, 0, 0, 0.995892, 0, 0)" opacity="0.50">
            <tspan x="606.08" y="136.99">Brünnchen</tspan>
        </text>
        <text xml:space="preserve" font-family="Liberation Sans" font-size="9.00" transform="matrix(0.995892, 0, 0, 0.995892, 0, 0)" opacity="0.50">
            <tspan x="501.08" y="173.41">Pflanzgarten I</tspan>
        </text>
        <text xml:space="preserve" font-family="Liberation Sans" font-size="9.00" transform="matrix(0.995892, 0, 0, 0.995892, 0, 0)" opacity="0.50">
            <tspan x="331.50" y="392.83">Tiergarten</tspan>
        </text>
        <text xml:space="preserve" font-family="Liberation Sans" font-size="9.00" transform="matrix(0.995892, 0, 0, 0.995892, 0, 0)" opacity="0.50">
            <tspan x="312.25" y="418.08">Hohenrain</tspan>
        </text>
        <text xml:space="preserve" font-family="Liberation Sans" font-size="9.00" transform="matrix(0.995892, 0, 0, 0.995892, 0, 0)" opacity="0.50">
            <tspan x="418.58" y="127.24">Mutkurve</tspan>
        </text>
        <text xml:space="preserve" font-family="Liberation Sans" font-size="9.00" transform="matrix(0.995892, 0, 0, 0.995892, 0, 0)" opacity="0.50">
            <tspan x="485.83" y="207.58">Sprunghügel</tspan>
        </text>
        <text xml:space="preserve" font-family="Liberation Sans" font-size="9.00" transform="matrix(0.995892, 0, 0, 0.995892, 0, 0)" opacity="0.50">
            <tspan x="533.75" y="148.08">Eiskurve</tspan>
        </text>
        <text xml:space="preserve" font-family="Liberation Sans" font-size="9.00" transform="matrix(0.995892, 0, 0, 0.995892, 0, 0)" opacity="0.50">
            <tspan x="163.33" y="304.41">Kottenborn</tspan>
        </text>
        <text xml:space="preserve" font-family="Liberation Sans" font-size="9.00" transform="matrix(0.995892, 0, 0, 0.995892, 0, 0)" opacity="0.50">
            <tspan x="89.75" y="225.24">Poststraße</tspan>
        </text>
        <text xml:space="preserve" font-family="Liberation Sans" font-size="9.00" transform="matrix(0.995892, 0, 0, 0.995892, 0, 0)" opacity="0.50">
            <tspan x="396.50" y="225.74">Schwalbenschwanz</tspan>
        </text>
        <text xml:space="preserve" font-family="Liberation Sans" font-size="9.00" transform="matrix(0.995892, 0, 0, 0.995892, 0, 0)" opacity="0.50">
            <tspan x="377.25" y="244.91">kleines Karussell</tspan>
        </text>
        <text xml:space="preserve" font-family="Liberation Sans" font-size="9.00" transform="matrix(0.995892, 0, 0, 0.995892, 0, 0)" opacity="0.50">
            <tspan x="539.41" y="240.24">Pflanzgarten II</tspan>
        </text>
        <text xml:space="preserve" font-family="Liberation Sans" font-size="9.00" transform="matrix(0.995892, 0, 0, 0.995892, 0, 0)" opacity="0.50">
            <tspan x="311.78" y="338.12">neue Einfahrt</tspan>
            <tspan x="315.78" y="348.12">Nordschleife</tspan>
        </text>
        <text xml:space="preserve" font-family="Liberation Sans" font-size="9.00" transform="matrix(0.948843, 0, 0, 0.948843, 0, 0)" opacity="0.50">
            <tspan x="253.61" y="546.46">Ford-Kurve</tspan>
        </text>
        <text xml:space="preserve" font-family="Liberation Sans" font-size="9.00" transform="matrix(0.948843, 0, 0, 0.948843, 0, 0)" opacity="0.50">
            <tspan x="307.60" y="484.52">Start-und</tspan>
            <tspan x="307.60" y="494.52">Zielgerade</tspan>
        </text>
        <text xml:space="preserve" font-family="Liberation Sans" font-size="9.00" transform="matrix(0.948843, 0, 0, 0.948843, 0, 0)" opacity="0.50">
            <tspan x="161.56" y="485.89">Warsteiner</tspan>
            <tspan x="178.56" y="495.89">-Kurve</tspan>
        </text>
        <text xml:space="preserve" font-family="Liberation Sans" font-size="9.00" transform="matrix(0.948843, 0, 0, 0.948843, 0, 0)" opacity="0.50">
            <tspan x="175.35" y="458.94">ADVAN-Bogen</tspan>
        </text>
        <text xml:space="preserve" font-family="Liberation Sans" font-size="9.00" transform="matrix(0.948843, 0, 0, 0.948843, 0, 0)" opacity="0.50">
            <tspan x="250.12" y="510.51">Mercedes-</tspan>
            <tspan x="250.12" y="520.51">Arena</tspan>
        </text>
        <text xml:space="preserve" font-family="Liberation Sans" font-size="9.00" transform="matrix(0.948843, 0, 0, 0.948843, 0, 0)" opacity="0.50">
            <tspan x="175.70" y="538.94">Michael-</tspan>
            <tspan x="149.70" y="548.94">Schumacher-S</tspan>
        </text>
        <text xml:space="preserve" font-family="Liberation Sans" font-size="9.00" transform="matrix(0.948843, 0, 0, 0.948843, 0, 0)" opacity="0.50">
            <tspan x="177.82" y="588.06">Dunlop-Kehre</tspan>
        </text>
        <text xml:space="preserve" font-family="Liberation Sans" font-size="9.00" transform="matrix(0.948843, 0, 0, 0.948843, 0, 0)" opacity="0.50">
            <tspan x="196.70" y="507.58">RTL-</tspan>
            <tspan x="191.70" y="517.58">Kurve</tspan>
        </text>
    </g>
</svg>