<?xml version="1.0" encoding="utf-8"?>
<!-- Generator: Adobe Illustrator 26.5.0, SVG Export Plug-In . SVG Version: 6.00 Build 0)  -->
<svg version="1.1" xmlns="http://www.w3.org/2000/svg" xmlns:xlink="http://www.w3.org/1999/xlink" x="0px" y="0px"
	 viewBox="0 0 542.6 426" style="enable-background:new 0 0 542.6 426;" xml:space="preserve">
<style type="text/css">
	.st0{fill:none;stroke:#646464;stroke-width:14.1732;stroke-miterlimit:10;}
	.st1{fill:none;stroke:#FFD449;stroke-width:2.8346;stroke-miterlimit:10;}
	.st2{fill:none;stroke:#54C6EB;stroke-width:2.8346;stroke-miterlimit:10;}
	.st3{fill:none;stroke:#F4442E;stroke-width:2.8346;stroke-miterlimit:10;}
	.st4{fill:none;stroke:#FFFFFF;stroke-width:2.126;}
	.st5{fill:#646464;}
	.st6{fill:#FFFFFF;}
	.st7{fill:#09BC8A;}
	.st8{fill:none;stroke:#646464;stroke-width:2.8346;stroke-miterlimit:10;}
	.st9{fill:none;stroke:#09BC8A;stroke-width:1.9843;stroke-miterlimit:10;}
	.st10{fill:none;stroke:#09BC8A;stroke-width:2.2097;stroke-miterlimit:10;}
	.st11{fill:#FF3380;}
	.st12{fill:none;stroke:#FF3380;stroke-width:1.9843;stroke-miterlimit:10;}
	.st13{fill:none;stroke:#F4442E;stroke-width:5.6693;stroke-miterlimit:10;}
	.st14{fill:none;stroke:#54C6EB;stroke-width:5.6693;stroke-miterlimit:10;}
	.st15{fill:none;stroke:#FFD449;stroke-width:5.6693;stroke-miterlimit:10;}
	.st16{fill:none;stroke:#09BC8A;stroke-width:2.8346;stroke-miterlimit:10;}
	.st17{clip-path:url(#SVGID_00000134928329574283131310000010177239999361058203_);}
	.st18{fill:#F4442E;}
	.st19{fill:#54C6EB;}
	.st20{fill:#FFD449;}
</style>
<g id="コース">
	<path class="st0" d="M358.2,311.5c0,0-154.3-140.7-160.5-146c-6.2-5.3-10.1-2.2-12.2-0.9s-12.6,7.4-14.3,8s-5.4,0.8-8.6-0.3
		c-3.2-1-9.5-5.6-14.5-8.9c-5-3.3-8.5-6.4-11.6-10.3c-3-3.9-17.1-18.8-24.5-24.2s-28.4-18.2-34.9-21.5S59.7,95.7,57.2,93.1
		c-2.5-2.5-4-4-2.7-9c1.3-5.1,3.2-9,0.3-13.4s-7.1-6.5-13-6.7c-5.9-0.2-12.8-0.5-14.4-0.4c-1.6,0.1-3.2-1-2.3-3.9
		c0.9-2.9,6.4-15,8.2-19c1.8-4,8.7-6.3,14.4-4.1S63.2,47.4,66,53.9s6.5,17.3,7.4,20.2c0.9,2.9,2.4,7.3,9.1,10.4
		c6.7,3,63.6,30.2,69.9,33.1s108,51.4,112.3,53.4c4.2,1.9,43.8,21.5,46.5,22.7c2.8,1.3,5.2,2.7,9-0.1c3.9-2.8,8.9-6.3,10.6-7.6
		c1.7-1.3,4.1-0.9,6.4-0.1c2.3,0.8,3.5,1.6,4.8,5c1.4,3.4,2.1,7.2,6.5,11c4.4,3.8,17.9,14.5,19.6,16c1.7,1.4,2.7,2.8,5.7,4.9
		c3,2.1,4.9,3.2,9.4,4.8c4.5,1.6,111.3,52.8,118.1,56.2s21.9,17.2,20.7,32.8c-1.2,15.5-3.5,50.8-4.6,59.6c-1,8.8-8.1,23-25.5,23
		c-17.4,0-24.5-16.7-20.3-26.4s23.7-28.4,26.5-31.6s5.2-6.3,6.6-12.8c1.4-6.6-0.2-10.8-3.2-13.9c-3-3-8.4-4.7-13.9-2
		c-5.4,2.7-13.5,6.9-23.7,7.9c-10.1,1-21.5-0.8-29.4-4.2c-7.9-3.4-18.8-10.6-23.1-17.6c-4.4-6.9-11.1-13.5-19.3-12.3
		s-14.5,3.9-16.7,12c-2.2,8.1-1.7,13.3-1.9,16c-0.2,2.7-2.2,7.4-7.1,4.2C361.7,315.3,358.2,311.5,358.2,311.5z"/>
</g>
<g id="セクター">
	<path class="st1" d="M417.5,243.5c33.3,15.8,79.5,38,83.8,40.1c6.8,3.4,21.9,17.2,20.7,32.8c-1.2,15.5-3.5,50.8-4.6,59.6
		c-1,8.8-8.1,23-25.5,23c-17.4,0-24.5-16.7-20.3-26.4s23.7-28.4,26.5-31.6s5.2-6.3,6.6-12.8c1.4-6.6-0.2-10.8-3.2-13.9
		c-3-3-8.4-4.7-13.9-2c-5.4,2.7-13.5,6.9-23.7,7.9c-10.1,1-21.5-0.8-29.4-4.2c-7.9-3.4-18.8-10.6-23.1-17.6
		c-4.4-6.9-11.1-13.5-19.3-12.3s-14.5,3.9-16.7,12c-2.2,8.1-1.7,13.3-1.9,16c-0.2,2.7-2.2,7.4-7.1,4.2c-4.9-3.2-8.5-7-8.5-7
		s-44.5-40.6-86.7-79"/>
	<path class="st2" d="M33.3,40.7c1.8-4,8.7-6.3,14.4-4.1S63.2,47.4,66,53.9s6.5,17.3,7.4,20.2c0.9,2.9,2.4,7.3,9.1,10.4
		c6.7,3,63.6,30.2,69.9,33.1s108,51.4,112.3,53.4c4.2,1.9,43.8,21.5,46.5,22.7c2.8,1.3,5.2,2.7,9-0.1c3.9-2.8,8.9-6.3,10.6-7.6
		c1.7-1.3,4.1-0.9,6.4-0.1c2.3,0.8,3.5,1.6,4.8,5c1.4,3.4,2.1,7.2,6.5,11c4.4,3.8,17.9,14.5,19.6,16c1.7,1.4,2.7,2.8,5.7,4.9
		c3,2.1,4.9,3.2,9.4,4.8c1.6,0.6,16,7.3,34.3,16"/>
	<path class="st3" d="M271.4,232.5c-36.3-33.1-70.9-64.5-73.8-67c-6.2-5.3-10.1-2.2-12.2-0.9s-12.6,7.4-14.3,8s-5.4,0.8-8.6-0.3
		c-3.2-1-9.5-5.6-14.5-8.9c-5-3.3-8.5-6.4-11.6-10.3c-3-3.9-17.1-18.8-24.5-24.2s-28.4-18.2-34.9-21.5S59.7,95.7,57.2,93.1
		c-2.5-2.5-4-4-2.7-9c1.3-5.1,3.2-9,0.3-13.4s-7.1-6.5-13-6.7c-5.9-0.2-12.8-0.5-14.4-0.4c-1.6,0.1-3.2-1-2.3-3.9
		c0.9-2.9,6.4-15,8.2-19"/>
</g>
<g id="コーナー番号">
	<g>
		<g>
			<circle class="st4" cx="188.8" cy="185.3" r="8.5"/>
			<circle class="st5" cx="188.8" cy="185.3" r="8.5"/>
		</g>
		<g>
			<path class="st6" d="M187.1,189.2v-1.6h1v-4.5h-0.9v-1.6h2.6v6.1h0.9v1.6H187.1z"/>
		</g>
	</g>
	<g>
		<g>
			<circle class="st4" cx="124.8" cy="169.4" r="8.5"/>
			<circle class="st5" cx="124.8" cy="169.4" r="8.5"/>
		</g>
		<g>
			<path class="st6" d="M122.7,173.3v-2.6c0-0.6,0.1-1,0.6-1.2l1.9-0.8v-1.6l-0.1-0.1h-0.5l-0.1,0.1v1.1h-1.7v-1.3
				c0-0.8,0.4-1.1,0.8-1.3h2.5c0.5,0.2,0.8,0.5,0.8,1.3v1.9c0,0.6-0.1,0.9-0.6,1.2l-1.9,0.8v0.9h2.4v1.6H122.7z"/>
		</g>
	</g>
	<g>
		<g>
			<circle class="st4" cx="42.4" cy="105.7" r="8.5"/>
			<circle class="st5" cx="42.4" cy="105.7" r="8.5"/>
		</g>
		<g>
			<path class="st6" d="M41.1,109.6c-0.5-0.2-0.8-0.5-0.8-1.3v-1H42v0.8l0.1,0.1h0.5l0.1-0.1v-1.6l-0.1-0.1h-1v-1.3h1l0.1-0.1v-1.5
				l-0.1-0.1h-0.5l-0.1,0.1v0.8h-1.7v-1c0-0.8,0.4-1.1,0.8-1.3h2.5c0.5,0.2,0.8,0.5,0.8,1.3v1.3c0,0.6-0.2,0.9-0.6,1.2
				c0.4,0.3,0.6,0.6,0.6,1.2v1.4c0,0.8-0.4,1.1-0.8,1.3H41.1z"/>
		</g>
	</g>
	<g>
		<g>
			<circle class="st4" cx="35.4" cy="82.2" r="8.5"/>
			<circle class="st5" cx="35.4" cy="82.2" r="8.5"/>
		</g>
		<g>
			<path class="st6" d="M37.1,84.6v1.5h-1.7v-1.5h-2.2v-1.5l1.6-4.7h1.7L34.9,83h0.5v-0.4l0.4-1h1.3V83h0.5v1.6H37.1z"/>
		</g>
	</g>
	<g>
		<g>
			<circle class="st4" cx="9.6" cy="75.7" r="8.5"/>
			<circle class="st5" cx="9.6" cy="75.7" r="8.5"/>
		</g>
		<g>
			<path class="st6" d="M8.3,79.6c-0.5-0.2-0.8-0.5-0.8-1.3v-1h1.6v0.8l0.1,0.1h0.6l0.1-0.1V76l-0.1-0.1H9.2L9.1,76v0.4H7.5v-4.5h4
				v1.5H9.1V75l0.4-0.4h1.3c0.5,0.2,0.8,0.5,0.8,1.3v2.4c0,0.8-0.4,1.1-0.8,1.3H8.3z"/>
		</g>
	</g>
	<g>
		<g>
			<circle class="st4" cx="49.2" cy="17.3" r="8.5"/>
			<circle class="st5" cx="49.2" cy="17.3" r="8.5"/>
		</g>
		<g>
			<path class="st6" d="M50.5,21.2H48c-0.5-0.2-0.8-0.5-0.8-1.3v-5.1c0-0.8,0.4-1.1,0.8-1.3h2.5c0.5,0.2,0.8,0.5,0.8,1.3v1h-1.7V15
				l-0.1-0.1h-0.5L48.8,15v1.8l0.3-0.3h1.3c0.5,0.2,0.8,0.5,0.8,1.3v2.2C51.3,20.7,50.9,21,50.5,21.2z M49.5,19.8l0.1-0.1v-1.8
				l-0.1-0.1h-0.5l-0.1,0.1v1.8l0.1,0.1H49.5z"/>
		</g>
	</g>
	<g>
		<g>
			<circle class="st4" cx="91.7" cy="65.7" r="8.5"/>
			<circle class="st5" cx="91.7" cy="65.7" r="8.5"/>
		</g>
		<g>
			<path class="st6" d="M89.9,69.6l2.1-6.2h-2.4v-1.5h4.1v1.2l-2.1,6.5H89.9z"/>
		</g>
	</g>
	<g>
		<g>
			<circle class="st4" cx="313.5" cy="214.5" r="8.5"/>
			<circle class="st5" cx="313.5" cy="214.5" r="8.5"/>
		</g>
		<g>
			<path class="st6" d="M312.3,218.4c-0.5-0.2-0.8-0.5-0.8-1.3v-1.4c0-0.6,0.2-0.9,0.6-1.2c-0.4-0.3-0.6-0.6-0.6-1.2V212
				c0-0.8,0.4-1.1,0.8-1.3h2.5c0.5,0.2,0.8,0.5,0.8,1.3v1.3c0,0.6-0.2,0.9-0.6,1.2c0.4,0.3,0.6,0.6,0.6,1.2v1.4
				c0,0.8-0.4,1.1-0.8,1.3H312.3z M313.1,213.7l0.1,0.1h0.5l0.1-0.1v-1.5l-0.1-0.1h-0.5l-0.1,0.1V213.7z M313.9,216.9v-1.6l-0.1-0.1
				h-0.5l-0.1,0.1v1.6l0.1,0.1h0.5L313.9,216.9z"/>
		</g>
	</g>
	<g>
		<g>
			<circle class="st4" cx="341.9" cy="166.9" r="8.5"/>
			<circle class="st5" cx="341.9" cy="166.9" r="8.5"/>
		</g>
		<g>
			<path class="st6" d="M340.7,170.8c-0.5-0.2-0.8-0.5-0.8-1.3v-1h1.7v0.8l0.1,0.1h0.5l0.1-0.1v-1.8l-0.3,0.3h-1.3
				c-0.5-0.2-0.8-0.5-0.8-1.3v-2.2c0-0.8,0.4-1.1,0.8-1.3h2.5c0.5,0.2,0.8,0.5,0.8,1.3v5.1c0,0.8-0.4,1.1-0.8,1.3H340.7z
				 M342.3,166.5v-1.8l-0.1-0.1h-0.5l-0.1,0.1v1.8l0.1,0.1h0.5L342.3,166.5z"/>
		</g>
	</g>
	<g>
		<g>
			<circle class="st4" cx="533.1" cy="285.3" r="8.5"/>
			<circle class="st5" cx="533.1" cy="285.3" r="8.5"/>
		</g>
		<g>
			<path class="st6" d="M529,289.2v-1.6h1v-4.5h-0.9v-1.6h2.6v6.1h0.9v1.6H529z"/>
			<path class="st6" d="M536.6,289.2h-2.5c-0.5-0.2-0.8-0.5-0.8-1.3v-5.1c0-0.8,0.4-1.1,0.8-1.3h2.5c0.5,0.2,0.8,0.5,0.8,1.3v5.1
				C537.5,288.7,537.1,289,536.6,289.2z M535.8,283l-0.1-0.1h-0.5L535,283v4.7l0.1,0.1h0.5l0.1-0.1V283z"/>
		</g>
	</g>
	<g>
		<g>
			<circle class="st4" cx="478.1" cy="416.5" r="8.5"/>
			<circle class="st5" cx="478.1" cy="416.5" r="8.5"/>
		</g>
		<g>
			<path class="st6" d="M474.1,420.3v-1.6h1v-4.5h-0.9v-1.6h2.6v6.1h0.9v1.6H474.1z"/>
			<path class="st6" d="M478.8,420.3v-1.6h1v-4.5h-0.9v-1.6h2.6v6.1h0.9v1.6H478.8z"/>
		</g>
	</g>
	<g>
		<g>
			<circle class="st4" cx="476.8" cy="336.1" r="8.5"/>
			<circle class="st5" cx="476.8" cy="336.1" r="8.5"/>
		</g>
		<g>
			<path class="st6" d="M472.8,340v-1.6h1v-4.5h-0.9v-1.6h2.6v6.1h0.9v1.6H472.8z"/>
			<path class="st6" d="M477.1,340v-2.6c0-0.6,0.1-1,0.6-1.2l1.9-0.8v-1.6l-0.1-0.1h-0.5l-0.1,0.1v1.1h-1.7v-1.3
				c0-0.8,0.4-1.1,0.8-1.3h2.5c0.5,0.2,0.8,0.5,0.8,1.3v1.9c0,0.6-0.1,0.9-0.6,1.2l-1.9,0.8v0.9h2.4v1.6H477.1z"/>
		</g>
	</g>
	<g>
		<g>
			<circle class="st4" cx="436.2" cy="337.9" r="8.5"/>
			<circle class="st5" cx="436.2" cy="337.9" r="8.5"/>
		</g>
		<g>
			<path class="st6" d="M432.2,341.8v-1.6h1v-4.5h-0.9v-1.6h2.6v6.1h0.9v1.6H432.2z"/>
			<path class="st6" d="M437.3,341.8c-0.5-0.2-0.8-0.5-0.8-1.3v-1h1.7v0.8l0.1,0.1h0.5l0.1-0.1v-1.6l-0.1-0.1h-1v-1.3h1l0.1-0.1
				v-1.5l-0.1-0.1h-0.5l-0.1,0.1v0.8h-1.7v-1c0-0.8,0.4-1.1,0.8-1.3h2.5c0.5,0.2,0.8,0.5,0.8,1.3v1.3c0,0.6-0.2,0.9-0.6,1.2
				c0.4,0.3,0.6,0.6,0.6,1.2v1.4c0,0.8-0.4,1.1-0.8,1.3H437.3z"/>
		</g>
	</g>
	<g>
		<g>
			<circle class="st4" cx="383.6" cy="267.9" r="8.5"/>
			<circle class="st5" cx="383.6" cy="267.9" r="8.5"/>
		</g>
		<g>
			<path class="st6" d="M379.5,271.8v-1.6h1v-4.5h-0.9v-1.6h2.6v6.1h0.9v1.6H379.5z"/>
			<path class="st6" d="M387.5,270.3v1.5h-1.7v-1.5h-2.2v-1.5l1.6-4.7h1.7l-1.6,4.6h0.5v-0.4l0.4-1h1.3v1.4h0.5v1.6H387.5z"/>
		</g>
	</g>
	<g>
		<g>
			<circle class="st4" cx="370.3" cy="339.4" r="8.5"/>
			<circle class="st5" cx="370.3" cy="339.4" r="8.5"/>
		</g>
		<g>
			<path class="st6" d="M366.2,343.3v-1.6h1v-4.5h-0.9v-1.6h2.6v6.1h0.9v1.6H366.2z"/>
			<path class="st6" d="M371.4,343.3c-0.5-0.2-0.8-0.5-0.8-1.3v-1h1.6v0.8l0.1,0.1h0.6l0.1-0.1v-2.1l-0.1-0.1h-0.6l-0.1,0.1v0.4
				h-1.6v-4.5h4v1.5h-2.4v1.6l0.4-0.4h1.3c0.5,0.2,0.8,0.5,0.8,1.3v2.4c0,0.8-0.4,1.1-0.8,1.3H371.4z"/>
		</g>
	</g>
</g>



</svg>
