<?xml version="1.0" encoding="utf-8"?>
<!-- Generator: Adobe Illustrator 26.5.0, SVG Export Plug-In . SVG Version: 6.00 Build 0)  -->
<svg version="1.1" xmlns="http://www.w3.org/2000/svg" xmlns:xlink="http://www.w3.org/1999/xlink" x="0px" y="0px"
	 viewBox="0 0 542.6 426" style="enable-background:new 0 0 542.6 426;" xml:space="preserve">
<style type="text/css">
	.st0{fill:none;stroke:#646464;stroke-width:14.1732;stroke-miterlimit:10;}
	.st1{fill:none;stroke:#FFD449;stroke-width:2.8346;stroke-miterlimit:10;}
	.st2{fill:none;stroke:#54C6EB;stroke-width:2.8346;stroke-miterlimit:10;}
	.st3{fill:none;stroke:#F4442E;stroke-width:2.8346;stroke-miterlimit:10;}
	.st4{fill:none;stroke:#FFFFFF;stroke-width:2.126;}
	.st5{fill:#646464;}
	.st6{fill:#FFFFFF;}
	.st7{fill:#09BC8A;}
	.st8{fill:none;stroke:#646464;stroke-width:2.8346;stroke-miterlimit:10;}
	.st9{fill:none;stroke:#09BC8A;stroke-width:1.9843;stroke-miterlimit:10;}
	.st10{fill:none;stroke:#09BC8A;stroke-width:2.2097;stroke-miterlimit:10;}
	.st11{fill:#FF3380;}
	.st12{fill:none;stroke:#FF3380;stroke-width:1.9843;stroke-miterlimit:10;}
	.st13{fill:none;stroke:#F4442E;stroke-width:5.6693;stroke-miterlimit:10;}
	.st14{fill:none;stroke:#54C6EB;stroke-width:5.6693;stroke-miterlimit:10;}
	.st15{fill:none;stroke:#FFD449;stroke-width:5.6693;stroke-miterlimit:10;}
	.st16{fill:none;stroke:#09BC8A;stroke-width:2.8346;stroke-miterlimit:10;}
	.st17{clip-path:url(#SVGID_00000134928329574283131310000010177239999361058203_);}
	.st18{fill:#F4442E;}
	.st19{fill:#54C6EB;}
	.st20{fill:#FFD449;}
</style>
<g id="コース">
	<path class="st0" d="M358.2,311.5c0,0-154.3-140.7-160.5-146c-6.2-5.3-10.1-2.2-12.2-0.9s-12.6,7.4-14.3,8s-5.4,0.8-8.6-0.3
		c-3.2-1-9.5-5.6-14.5-8.9c-5-3.3-8.5-6.4-11.6-10.3c-3-3.9-17.1-18.8-24.5-24.2s-28.4-18.2-34.9-21.5S59.7,95.7,57.2,93.1
		c-2.5-2.5-4-4-2.7-9c1.3-5.1,3.2-9,0.3-13.4s-7.1-6.5-13-6.7c-5.9-0.2-12.8-0.5-14.4-0.4c-1.6,0.1-3.2-1-2.3-3.9
		c0.9-2.9,6.4-15,8.2-19c1.8-4,8.7-6.3,14.4-4.1S63.2,47.4,66,53.9s6.5,17.3,7.4,20.2c0.9,2.9,2.4,7.3,9.1,10.4
		c6.7,3,63.6,30.2,69.9,33.1s108,51.4,112.3,53.4c4.2,1.9,43.8,21.5,46.5,22.7c2.8,1.3,5.2,2.7,9-0.1c3.9-2.8,8.9-6.3,10.6-7.6
		c1.7-1.3,4.1-0.9,6.4-0.1c2.3,0.8,3.5,1.6,4.8,5c1.4,3.4,2.1,7.2,6.5,11c4.4,3.8,17.9,14.5,19.6,16c1.7,1.4,2.7,2.8,5.7,4.9
		c3,2.1,4.9,3.2,9.4,4.8c4.5,1.6,111.3,52.8,118.1,56.2s21.9,17.2,20.7,32.8c-1.2,15.5-3.5,50.8-4.6,59.6c-1,8.8-8.1,23-25.5,23
		c-17.4,0-24.5-16.7-20.3-26.4s23.7-28.4,26.5-31.6s5.2-6.3,6.6-12.8c1.4-6.6-0.2-10.8-3.2-13.9c-3-3-8.4-4.7-13.9-2
		c-5.4,2.7-13.5,6.9-23.7,7.9c-10.1,1-21.5-0.8-29.4-4.2c-7.9-3.4-18.8-10.6-23.1-17.6c-4.4-6.9-11.1-13.5-19.3-12.3
		s-14.5,3.9-16.7,12c-2.2,8.1-1.7,13.3-1.9,16c-0.2,2.7-2.2,7.4-7.1,4.2C361.7,315.3,358.2,311.5,358.2,311.5z"/>
</g>
<g id="セクター">
	<path class="st1" d="M417.5,243.5c33.3,15.8,79.5,38,83.8,40.1c6.8,3.4,21.9,17.2,20.7,32.8c-1.2,15.5-3.5,50.8-4.6,59.6
		c-1,8.8-8.1,23-25.5,23c-17.4,0-24.5-16.7-20.3-26.4s23.7-28.4,26.5-31.6s5.2-6.3,6.6-12.8c1.4-6.6-0.2-10.8-3.2-13.9
		c-3-3-8.4-4.7-13.9-2c-5.4,2.7-13.5,6.9-23.7,7.9c-10.1,1-21.5-0.8-29.4-4.2c-7.9-3.4-18.8-10.6-23.1-17.6
		c-4.4-6.9-11.1-13.5-19.3-12.3s-14.5,3.9-16.7,12c-2.2,8.1-1.7,13.3-1.9,16c-0.2,2.7-2.2,7.4-7.1,4.2c-4.9-3.2-8.5-7-8.5-7
		s-44.5-40.6-86.7-79"/>
	<path class="st2" d="M33.3,40.7c1.8-4,8.7-6.3,14.4-4.1S63.2,47.4,66,53.9s6.5,17.3,7.4,20.2c0.9,2.9,2.4,7.3,9.1,10.4
		c6.7,3,63.6,30.2,69.9,33.1s108,51.4,112.3,53.4c4.2,1.9,43.8,21.5,46.5,22.7c2.8,1.3,5.2,2.7,9-0.1c3.9-2.8,8.9-6.3,10.6-7.6
		c1.7-1.3,4.1-0.9,6.4-0.1c2.3,0.8,3.5,1.6,4.8,5c1.4,3.4,2.1,7.2,6.5,11c4.4,3.8,17.9,14.5,19.6,16c1.7,1.4,2.7,2.8,5.7,4.9
		c3,2.1,4.9,3.2,9.4,4.8c1.6,0.6,16,7.3,34.3,16"/>
	<path class="st3" d="M271.4,232.5c-36.3-33.1-70.9-64.5-73.8-67c-6.2-5.3-10.1-2.2-12.2-0.9s-12.6,7.4-14.3,8s-5.4,0.8-8.6-0.3
		c-3.2-1-9.5-5.6-14.5-8.9c-5-3.3-8.5-6.4-11.6-10.3c-3-3.9-17.1-18.8-24.5-24.2s-28.4-18.2-34.9-21.5S59.7,95.7,57.2,93.1
		c-2.5-2.5-4-4-2.7-9c1.3-5.1,3.2-9,0.3-13.4s-7.1-6.5-13-6.7c-5.9-0.2-12.8-0.5-14.4-0.4c-1.6,0.1-3.2-1-2.3-3.9
		c0.9-2.9,6.4-15,8.2-19"/>
</g>
<g id="コーナー番号">
	<g>
		<g>
			<circle class="st4" cx="188.8" cy="185.3" r="8.5"/>
			<circle class="st5" cx="188.8" cy="185.3" r="8.5"/>
		</g>
		<g>
			<path class="st6" d="M187.1,189.2v-1.6h1v-4.5h-0.9v-1.6h2.6v6.1h0.9v1.6H187.1z"/>
		</g>
	</g>
	<g>
		<g>
			<circle class="st4" cx="124.8" cy="169.4" r="8.5"/>
			<circle class="st5" cx="124.8" cy="169.4" r="8.5"/>
		</g>
		<g>
			<path class="st6" d="M122.7,173.3v-2.6c0-0.6,0.1-1,0.6-1.2l1.9-0.8v-1.6l-0.1-0.1h-0.5l-0.1,0.1v1.1h-1.7v-1.3
				c0-0.8,0.4-1.1,0.8-1.3h2.5c0.5,0.2,0.8,0.5,0.8,1.3v1.9c0,0.6-0.1,0.9-0.6,1.2l-1.9,0.8v0.9h2.4v1.6H122.7z"/>
		</g>
	</g>
	<g>
		<g>
			<circle class="st4" cx="42.4" cy="105.7" r="8.5"/>
			<circle class="st5" cx="42.4" cy="105.7" r="8.5"/>
		</g>
		<g>
			<path class="st6" d="M41.1,109.6c-0.5-0.2-0.8-0.5-0.8-1.3v-1H42v0.8l0.1,0.1h0.5l0.1-0.1v-1.6l-0.1-0.1h-1v-1.3h1l0.1-0.1v-1.5
				l-0.1-0.1h-0.5l-0.1,0.1v0.8h-1.7v-1c0-0.8,0.4-1.1,0.8-1.3h2.5c0.5,0.2,0.8,0.5,0.8,1.3v1.3c0,0.6-0.2,0.9-0.6,1.2
				c0.4,0.3,0.6,0.6,0.6,1.2v1.4c0,0.8-0.4,1.1-0.8,1.3H41.1z"/>
		</g>
	</g>
	<g>
		<g>
			<circle class="st4" cx="35.4" cy="82.2" r="8.5"/>
			<circle class="st5" cx="35.4" cy="82.2" r="8.5"/>
		</g>
		<g>
			<path class="st6" d="M37.1,84.6v1.5h-1.7v-1.5h-2.2v-1.5l1.6-4.7h1.7L34.9,83h0.5v-0.4l0.4-1h1.3V83h0.5v1.6H37.1z"/>
		</g>
	</g>
	<g>
		<g>
			<circle class="st4" cx="9.6" cy="75.7" r="8.5"/>
			<circle class="st5" cx="9.6" cy="75.7" r="8.5"/>
		</g>
		<g>
			<path class="st6" d="M8.3,79.6c-0.5-0.2-0.8-0.5-0.8-1.3v-1h1.6v0.8l0.1,0.1h0.6l0.1-0.1V76l-0.1-0.1H9.2L9.1,76v0.4H7.5v-4.5h4
				v1.5H9.1V75l0.4-0.4h1.3c0.5,0.2,0.8,0.5,0.8,1.3v2.4c0,0.8-0.4,1.1-0.8,1.3H8.3z"/>
		</g>
	</g>
	<g>
		<g>
			<circle class="st4" cx="49.2" cy="17.3" r="8.5"/>
			<circle class="st5" cx="49.2" cy="17.3" r="8.5"/>
		</g>
		<g>
			<path class="st6" d="M50.5,21.2H48c-0.5-0.2-0.8-0.5-0.8-1.3v-5.1c0-0.8,0.4-1.1,0.8-1.3h2.5c0.5,0.2,0.8,0.5,0.8,1.3v1h-1.7V15
				l-0.1-0.1h-0.5L48.8,15v1.8l0.3-0.3h1.3c0.5,0.2,0.8,0.5,0.8,1.3v2.2C51.3,20.7,50.9,21,50.5,21.2z M49.5,19.8l0.1-0.1v-1.8
				l-0.1-0.1h-0.5l-0.1,0.1v1.8l0.1,0.1H49.5z"/>
		</g>
	</g>
	<g>
		<g>
			<circle class="st4" cx="91.7" cy="65.7" r="8.5"/>
			<circle class="st5" cx="91.7" cy="65.7" r="8.5"/>
		</g>
		<g>
			<path class="st6" d="M89.9,69.6l2.1-6.2h-2.4v-1.5h4.1v1.2l-2.1,6.5H89.9z"/>
		</g>
	</g>
	<g>
		<g>
			<circle class="st4" cx="313.5" cy="214.5" r="8.5"/>
			<circle class="st5" cx="313.5" cy="214.5" r="8.5"/>
		</g>
		<g>
			<path class="st6" d="M312.3,218.4c-0.5-0.2-0.8-0.5-0.8-1.3v-1.4c0-0.6,0.2-0.9,0.6-1.2c-0.4-0.3-0.6-0.6-0.6-1.2V212
				c0-0.8,0.4-1.1,0.8-1.3h2.5c0.5,0.2,0.8,0.5,0.8,1.3v1.3c0,0.6-0.2,0.9-0.6,1.2c0.4,0.3,0.6,0.6,0.6,1.2v1.4
				c0,0.8-0.4,1.1-0.8,1.3H312.3z M313.1,213.7l0.1,0.1h0.5l0.1-0.1v-1.5l-0.1-0.1h-0.5l-0.1,0.1V213.7z M313.9,216.9v-1.6l-0.1-0.1
				h-0.5l-0.1,0.1v1.6l0.1,0.1h0.5L313.9,216.9z"/>
		</g>
	</g>
	<g>
		<g>
			<circle class="st4" cx="341.9" cy="166.9" r="8.5"/>
			<circle class="st5" cx="341.9" cy="166.9" r="8.5"/>
		</g>
		<g>
			<path class="st6" d="M340.7,170.8c-0.5-0.2-0.8-0.5-0.8-1.3v-1h1.7v0.8l0.1,0.1h0.5l0.1-0.1v-1.8l-0.3,0.3h-1.3
				c-0.5-0.2-0.8-0.5-0.8-1.3v-2.2c0-0.8,0.4-1.1,0.8-1.3h2.5c0.5,0.2,0.8,0.5,0.8,1.3v5.1c0,0.8-0.4,1.1-0.8,1.3H340.7z
				 M342.3,166.5v-1.8l-0.1-0.1h-0.5l-0.1,0.1v1.8l0.1,0.1h0.5L342.3,166.5z"/>
		</g>
	</g>
	<g>
		<g>
			<circle class="st4" cx="533.1" cy="285.3" r="8.5"/>
			<circle class="st5" cx="533.1" cy="285.3" r="8.5"/>
		</g>
		<g>
			<path class="st6" d="M529,289.2v-1.6h1v-4.5h-0.9v-1.6h2.6v6.1h0.9v1.6H529z"/>
			<path class="st6" d="M536.6,289.2h-2.5c-0.5-0.2-0.8-0.5-0.8-1.3v-5.1c0-0.8,0.4-1.1,0.8-1.3h2.5c0.5,0.2,0.8,0.5,0.8,1.3v5.1
				C537.5,288.7,537.1,289,536.6,289.2z M535.8,283l-0.1-0.1h-0.5L535,283v4.7l0.1,0.1h0.5l0.1-0.1V283z"/>
		</g>
	</g>
	<g>
		<g>
			<circle class="st4" cx="478.1" cy="416.5" r="8.5"/>
			<circle class="st5" cx="478.1" cy="416.5" r="8.5"/>
		</g>
		<g>
			<path class="st6" d="M474.1,420.3v-1.6h1v-4.5h-0.9v-1.6h2.6v6.1h0.9v1.6H474.1z"/>
			<path class="st6" d="M478.8,420.3v-1.6h1v-4.5h-0.9v-1.6h2.6v6.1h0.9v1.6H478.8z"/>
		</g>
	</g>
	<g>
		<g>
			<circle class="st4" cx="476.8" cy="336.1" r="8.5"/>
			<circle class="st5" cx="476.8" cy="336.1" r="8.5"/>
		</g>
		<g>
			<path class="st6" d="M472.8,340v-1.6h1v-4.5h-0.9v-1.6h2.6v6.1h0.9v1.6H472.8z"/>
			<path class="st6" d="M477.1,340v-2.6c0-0.6,0.1-1,0.6-1.2l1.9-0.8v-1.6l-0.1-0.1h-0.5l-0.1,0.1v1.1h-1.7v-1.3
				c0-0.8,0.4-1.1,0.8-1.3h2.5c0.5,0.2,0.8,0.5,0.8,1.3v1.9c0,0.6-0.1,0.9-0.6,1.2l-1.9,0.8v0.9h2.4v1.6H477.1z"/>
		</g>
	</g>
	<g>
		<g>
			<circle class="st4" cx="436.2" cy="337.9" r="8.5"/>
			<circle class="st5" cx="436.2" cy="337.9" r="8.5"/>
		</g>
		<g>
			<path class="st6" d="M432.2,341.8v-1.6h1v-4.5h-0.9v-1.6h2.6v6.1h0.9v1.6H432.2z"/>
			<path class="st6" d="M437.3,341.8c-0.5-0.2-0.8-0.5-0.8-1.3v-1h1.7v0.8l0.1,0.1h0.5l0.1-0.1v-1.6l-0.1-0.1h-1v-1.3h1l0.1-0.1
				v-1.5l-0.1-0.1h-0.5l-0.1,0.1v0.8h-1.7v-1c0-0.8,0.4-1.1,0.8-1.3h2.5c0.5,0.2,0.8,0.5,0.8,1.3v1.3c0,0.6-0.2,0.9-0.6,1.2
				c0.4,0.3,0.6,0.6,0.6,1.2v1.4c0,0.8-0.4,1.1-0.8,1.3H437.3z"/>
		</g>
	</g>
	<g>
		<g>
			<circle class="st4" cx="383.6" cy="267.9" r="8.5"/>
			<circle class="st5" cx="383.6" cy="267.9" r="8.5"/>
		</g>
		<g>
			<path class="st6" d="M379.5,271.8v-1.6h1v-4.5h-0.9v-1.6h2.6v6.1h0.9v1.6H379.5z"/>
			<path class="st6" d="M387.5,270.3v1.5h-1.7v-1.5h-2.2v-1.5l1.6-4.7h1.7l-1.6,4.6h0.5v-0.4l0.4-1h1.3v1.4h0.5v1.6H387.5z"/>
		</g>
	</g>
	<g>
		<g>
			<circle class="st4" cx="370.3" cy="339.4" r="8.5"/>
			<circle class="st5" cx="370.3" cy="339.4" r="8.5"/>
		</g>
		<g>
			<path class="st6" d="M366.2,343.3v-1.6h1v-4.5h-0.9v-1.6h2.6v6.1h0.9v1.6H366.2z"/>
			<path class="st6" d="M371.4,343.3c-0.5-0.2-0.8-0.5-0.8-1.3v-1h1.6v0.8l0.1,0.1h0.6l0.1-0.1v-2.1l-0.1-0.1h-0.6l-0.1,0.1v0.4
				h-1.6v-4.5h4v1.5h-2.4v1.6l0.4-0.4h1.3c0.5,0.2,0.8,0.5,0.8,1.3v2.4c0,0.8-0.4,1.1-0.8,1.3H371.4z"/>
		</g>
	</g>
</g>


<g id="アイコン">
	<g>
		<g>
			<path class="st6" d="M16.3,412.4c-1.4,0-2.5-1.1-2.5-2.5V285.3c0-1.4,1.1-2.5,2.5-2.5h90c1.4,0,2.5,1.1,2.5,2.5v124.7
				c0,1.4-1.1,2.5-2.5,2.5H16.3z"/>
			<path class="st5" d="M106.3,283.2c1.2,0,2.1,1,2.1,2.1v124.7c0,1.2-1,2.1-2.1,2.1h-90c-1.2,0-2.1-1-2.1-2.1V285.3
				c0-1.2,1-2.1,2.1-2.1H106.3 M106.3,282.4h-90c-1.6,0-2.8,1.3-2.8,2.8v124.7c0,1.6,1.3,2.8,2.8,2.8h90c1.6,0,2.8-1.3,2.8-2.8
				V285.3C109.1,283.7,107.9,282.4,106.3,282.4L106.3,282.4z"/>
		</g>
		<g>
			<path class="st5" d="M55,304v2.6c0,1.3-0.6,1.7-1.3,2h-3.3c-0.7-0.3-1.3-0.7-1.3-2v-2h1.8v2.1l0.4,0.4h1.6l0.4-0.4v-2.8l-0.3-0.4
				l-2.6-0.8c-0.8-0.3-1.1-0.8-1.1-1.9v-2.2c0-1.3,0.6-1.7,1.3-2h3.3c0.7,0.3,1.3,0.7,1.3,2v1.9h-1.8v-2.1l-0.4-0.4h-1.6l-0.4,0.4
				v2.4l0.4,0.4l2.6,0.7C54.6,302.3,55,302.9,55,304z"/>
			<path class="st5" d="M56.3,296.6h5.1v1.6h-3.3v3.4h3.1v1.6h-3.1v3.7h3.4v1.6h-5.2V296.6z"/>
			<path class="st5" d="M68.6,306.6c0,1.3-0.6,1.7-1.3,2H64c-0.7-0.3-1.3-0.7-1.3-2v-8c0-1.3,0.6-1.7,1.3-2h3.3
				c0.7,0.3,1.3,0.7,1.3,2v2.7h-1.8v-2.8l-0.4-0.4h-1.6l-0.4,0.4v8.3l0.4,0.4h1.6l0.4-0.4V304h1.8V306.6z"/>
			<path class="st5" d="M73.4,298.2v10.3h-1.8v-10.3h-2.1v-1.6h6.1v1.6H73.4z"/>
			<path class="st5" d="M82.3,306.6c0,1.3-0.6,1.7-1.3,2h-3.3c-0.7-0.3-1.3-0.7-1.3-2v-8c0-1.3,0.6-1.7,1.3-2H81
				c0.7,0.3,1.3,0.7,1.3,2V306.6z M80.5,298.5l-0.4-0.4h-1.6l-0.4,0.4v8.3l0.4,0.4h1.6l0.4-0.4V298.5z"/>
			<path class="st5" d="M83.7,308.6v-12h4.6c0.7,0.3,1.3,0.7,1.3,2v2.6c0,1.3-0.6,1.6-1.3,1.9l-0.3,0.1l2.1,4.3v1.1h-1.6l-2.2-5.1
				h-0.8v5.1H83.7z M85.5,298.1v3.9h2l0.4-0.4v-3.1l-0.4-0.4H85.5z"/>
			<path class="st5" d="M93.7,308.6V307h1.8v-8.7h-1.7v-1.6h3.5V307H99v1.6H93.7z"/>
		</g>
		<line class="st13" x1="23.7" y1="302.7" x2="44.9" y2="302.7"/>
		<g>
			<path class="st5" d="M55,334v2.6c0,1.3-0.6,1.7-1.3,2h-3.3c-0.7-0.3-1.3-0.7-1.3-2v-2h1.8v2.1l0.4,0.4h1.6l0.4-0.4v-2.8l-0.3-0.4
				l-2.6-0.8c-0.8-0.3-1.1-0.8-1.1-1.9v-2.2c0-1.3,0.6-1.7,1.3-2h3.3c0.7,0.3,1.3,0.7,1.3,2v1.9h-1.8v-2.1l-0.4-0.4h-1.6l-0.4,0.4
				v2.4l0.4,0.4l2.6,0.7C54.6,332.3,55,332.9,55,334z"/>
			<path class="st5" d="M56.3,326.6h5.1v1.6h-3.3v3.4h3.1v1.6h-3.1v3.7h3.4v1.6h-5.2V326.6z"/>
			<path class="st5" d="M68.6,336.6c0,1.3-0.6,1.7-1.3,2H64c-0.7-0.3-1.3-0.7-1.3-2v-8c0-1.3,0.6-1.7,1.3-2h3.3
				c0.7,0.3,1.3,0.7,1.3,2v2.7h-1.8v-2.8l-0.4-0.4h-1.6l-0.4,0.4v8.3l0.4,0.4h1.6l0.4-0.4V334h1.8V336.6z"/>
			<path class="st5" d="M73.4,328.2v10.3h-1.8v-10.3h-2.1v-1.6h6.1v1.6H73.4z"/>
			<path class="st5" d="M82.3,336.6c0,1.3-0.6,1.7-1.3,2h-3.3c-0.7-0.3-1.3-0.7-1.3-2v-8c0-1.3,0.6-1.7,1.3-2H81
				c0.7,0.3,1.3,0.7,1.3,2V336.6z M80.5,328.5l-0.4-0.4h-1.6l-0.4,0.4v8.3l0.4,0.4h1.6l0.4-0.4V328.5z"/>
			<path class="st5" d="M83.7,338.6v-12h4.6c0.7,0.3,1.3,0.7,1.3,2v2.6c0,1.3-0.6,1.6-1.3,1.9l-0.3,0.1l2.1,4.3v1.1h-1.6l-2.2-5.1
				h-0.8v5.1H83.7z M85.5,328.1v3.9h2l0.4-0.4v-3.1l-0.4-0.4H85.5z"/>
			<path class="st5" d="M93.4,338.6V335c0-1.1,0.4-1.7,1.2-2.1l3-1.2v-3.2l-0.4-0.4h-1.7l-0.4,0.4v2h-1.8v-1.9c0-1.3,0.6-1.7,1.3-2
				H98c0.7,0.3,1.3,0.7,1.3,2v2.5c0,1.1-0.3,1.7-1.1,2.1l-3,1.2v2.5h4.1v1.6H93.4z"/>
		</g>
		<line class="st14" x1="23.7" y1="332.7" x2="44.9" y2="332.7"/>
		<g>
			<path class="st5" d="M55,364v2.6c0,1.3-0.6,1.7-1.3,2h-3.3c-0.7-0.3-1.3-0.7-1.3-2v-2h1.8v2.1l0.4,0.4h1.6l0.4-0.4v-2.8l-0.3-0.4
				l-2.6-0.8c-0.8-0.3-1.1-0.8-1.1-1.9v-2.2c0-1.3,0.6-1.7,1.3-2h3.3c0.7,0.3,1.3,0.7,1.3,2v1.9h-1.8v-2.1l-0.4-0.4h-1.6l-0.4,0.4
				v2.4l0.4,0.4l2.6,0.7C54.6,362.3,55,362.9,55,364z"/>
			<path class="st5" d="M56.3,356.6h5.1v1.6h-3.3v3.4h3.1v1.6h-3.1v3.7h3.4v1.6h-5.2V356.6z"/>
			<path class="st5" d="M68.6,366.6c0,1.3-0.6,1.7-1.3,2H64c-0.7-0.3-1.3-0.7-1.3-2v-8c0-1.3,0.6-1.7,1.3-2h3.3
				c0.7,0.3,1.3,0.7,1.3,2v2.7h-1.8v-2.8l-0.4-0.4h-1.6l-0.4,0.4v8.3l0.4,0.4h1.6l0.4-0.4V364h1.8V366.6z"/>
			<path class="st5" d="M73.4,358.2v10.3h-1.8v-10.3h-2.1v-1.6h6.1v1.6H73.4z"/>
			<path class="st5" d="M82.3,366.6c0,1.3-0.6,1.7-1.3,2h-3.3c-0.7-0.3-1.3-0.7-1.3-2v-8c0-1.3,0.6-1.7,1.3-2H81
				c0.7,0.3,1.3,0.7,1.3,2V366.6z M80.5,358.5l-0.4-0.4h-1.6l-0.4,0.4v8.3l0.4,0.4h1.6l0.4-0.4V358.5z"/>
			<path class="st5" d="M83.7,368.6v-12h4.6c0.7,0.3,1.3,0.7,1.3,2v2.6c0,1.3-0.6,1.6-1.3,1.9l-0.3,0.1l2.1,4.3v1.1h-1.6l-2.2-5.1
				h-0.8v5.1H83.7z M85.5,358.1v3.9h2l0.4-0.4v-3.1l-0.4-0.4H85.5z"/>
			<path class="st5" d="M94.7,368.6c-0.7-0.3-1.3-0.7-1.3-2v-1.7h1.8v1.8l0.4,0.4h1.7l0.4-0.4v-3.2l-0.4-0.3h-1.8v-1.4h1.8l0.4-0.4
				v-3l-0.4-0.4h-1.7l-0.4,0.4v1.8h-1.8v-1.7c0-1.3,0.6-1.7,1.3-2H98c0.7,0.3,1.3,0.7,1.3,2v1.9c0,1-0.2,1.5-0.9,1.9
				c0.6,0.4,0.9,0.9,0.9,1.9v2.2c0,1.3-0.6,1.7-1.3,2H94.7z"/>
		</g>
		<line class="st15" x1="23.7" y1="362.7" x2="44.9" y2="362.7"/>
		<g>
			<path class="st5" d="M55.1,396.6c0,1.3-0.6,1.7-1.3,2h-4.6v-12h4.6c0.7,0.3,1.3,0.7,1.3,2V396.6z M51,388.1v9h2l0.4-0.4v-8.3
				l-0.4-0.4H51z"/>
			<path class="st5" d="M56.5,398.6v-12h4.6c0.7,0.3,1.3,0.7,1.3,2v2.6c0,1.3-0.6,1.6-1.3,1.9l-0.3,0.1l2.1,4.3v1.1h-1.6l-2.2-5.1
				h-0.8v5.1H56.5z M58.3,388.1v3.9h2l0.4-0.4v-3.1l-0.4-0.4H58.3z"/>
			<path class="st5" d="M69.5,394v2.6c0,1.3-0.6,1.7-1.3,2h-3.3c-0.7-0.3-1.3-0.7-1.3-2v-2h1.8v2.1l0.4,0.4h1.6l0.4-0.4v-2.8
				l-0.3-0.4l-2.6-0.8c-0.8-0.3-1.1-0.8-1.1-1.9v-2.2c0-1.3,0.6-1.7,1.3-2h3.3c0.7,0.3,1.3,0.7,1.3,2v1.9h-1.8v-2.1l-0.4-0.4h-1.6
				l-0.4,0.4v2.4l0.4,0.4l2.6,0.7C69.1,392.3,69.5,392.9,69.5,394z"/>
			<path class="st5" d="M77.1,388.2h-3.9v-1.6H79v1.5l-4,8.9h4v1.6h-5.9v-1.5L77.1,388.2z"/>
			<path class="st5" d="M86.2,396.6c0,1.3-0.6,1.7-1.3,2h-3.3c-0.7-0.3-1.3-0.7-1.3-2v-8c0-1.3,0.6-1.7,1.3-2h3.3
				c0.7,0.3,1.3,0.7,1.3,2V396.6z M84.4,388.5l-0.4-0.4h-1.6l-0.4,0.4v8.3l0.4,0.4H84l0.4-0.4V388.5z"/>
			<path class="st5" d="M91.9,386.6h1.6v12h-1.6l-2.6-7.1h-0.2v7.1h-1.6v-12h1.6l2.6,7.1h0.2V386.6z"/>
			<path class="st5" d="M94.9,386.6h5.1v1.6h-3.3v3.4h3.1v1.6h-3.1v3.7h3.4v1.6h-5.2V386.6z"/>
		</g>
		<g>
			<g>
				<g>
					<g>
						<line class="st16" x1="25.2" y1="385.2" x2="25.2" y2="400.1"/>
					</g>
					<g>
						<ellipse class="st7" cx="31.2" cy="392.7" rx="1.5" ry="1.4"/>
					</g>
					<g>
						<ellipse class="st7" cx="37.3" cy="392.7" rx="1.5" ry="1.4"/>
					</g>
					<g>
						<line class="st16" x1="43.4" y1="385.2" x2="43.4" y2="400.1"/>
					</g>
				</g>
			</g>
		</g>
	</g>
	<g>
		
			<rect x="276" y="273" transform="matrix(0.6861 -0.7275 0.7275 0.6861 -112.5957 287.9543)" class="st5" width="2.8" height="2.8"/>
		
			<rect x="279.9" y="268.9" transform="matrix(0.6861 -0.7275 0.7275 0.6861 -108.374 289.4893)" class="st5" width="2.8" height="2.8"/>
		
			<rect x="280" y="272.9" transform="matrix(0.6861 -0.7275 0.7275 0.6861 -111.2524 290.8327)" class="st5" width="2.8" height="2.8"/>
		
			<rect x="283.9" y="268.8" transform="matrix(0.6861 -0.7275 0.7275 0.6861 -107.0307 292.3677)" class="st5" width="2.8" height="2.8"/>
		
			<rect x="284.1" y="276.8" transform="matrix(0.6861 -0.7275 0.7275 0.6861 -112.7874 295.0544)" class="st5" width="2.8" height="2.8"/>
		
			<rect x="288" y="272.7" transform="matrix(0.6861 -0.7275 0.7275 0.6861 -108.5657 296.5894)" class="st5" width="2.8" height="2.8"/>
		
			<rect x="283.7" y="264.8" transform="matrix(0.6861 -0.7275 0.7275 0.6861 -104.1523 291.0244)" class="st5" width="2.8" height="2.8"/>
		
			<rect x="281.8" y="266.8" transform="matrix(0.6861 -0.7275 0.7275 0.6861 -106.2632 290.2568)" class="st6" width="2.8" height="2.8"/>
		
			<rect x="277.9" y="271" transform="matrix(0.6861 -0.7275 0.7275 0.6861 -110.4849 288.7218)" class="st6" width="2.8" height="2.8"/>
		
			<rect x="278" y="275" transform="matrix(0.6861 -0.7275 0.7275 0.6861 -113.3632 290.0652)" class="st6" width="2.8" height="2.8"/>
		
			<rect x="281.9" y="270.9" transform="matrix(0.6861 -0.7275 0.7275 0.6861 -109.1415 291.6002)" class="st6" width="2.8" height="2.8"/>
		
			<rect x="285.8" y="266.7" transform="matrix(0.6861 -0.7275 0.7275 0.6861 -104.9198 293.1352)" class="st6" width="2.8" height="2.8"/>
		
			<rect x="285.9" y="270.7" transform="matrix(0.6861 -0.7275 0.7275 0.6861 -107.7982 294.4785)" class="st6" width="2.8" height="2.8"/>
		
			<rect x="282" y="274.9" transform="matrix(0.6861 -0.7275 0.7275 0.6861 -112.0199 292.9435)" class="st6" width="2.8" height="2.8"/>
		
			<rect x="290" y="274.6" transform="matrix(0.6861 -0.7275 0.7275 0.6861 -109.3332 298.7002)" class="st6" width="2.8" height="2.8"/>
		
			<rect x="286.2" y="278.8" transform="matrix(0.6861 -0.7275 0.7275 0.6861 -113.5549 297.1652)" class="st6" width="2.8" height="2.8"/>
		
			<rect x="282.1" y="278.9" transform="matrix(0.6861 -0.7275 0.7275 0.6861 -114.8982 294.2868)" class="st6" width="2.8" height="2.8"/>
		
			<rect x="286" y="274.7" transform="matrix(0.6861 -0.7275 0.7275 0.6861 -110.6765 295.8219)" class="st6" width="2.8" height="2.8"/>
		
			<rect x="289.9" y="270.6" transform="matrix(0.6861 -0.7275 0.7275 0.6861 -106.4548 297.3569)" class="st6" width="2.8" height="2.8"/>
		
			<rect x="280.1" y="276.9" transform="matrix(0.6861 -0.7275 0.7275 0.6861 -114.1307 292.176)" class="st5" width="2.8" height="2.8"/>
		
			<rect x="284" y="272.8" transform="matrix(0.6861 -0.7275 0.7275 0.6861 -109.909 293.711)" class="st5" width="2.8" height="2.8"/>
		
			<rect x="288.1" y="276.7" transform="matrix(0.6861 -0.7275 0.7275 0.6861 -111.4441 297.9327)" class="st5" width="2.8" height="2.8"/>
		
			<rect x="287.9" y="268.7" transform="matrix(0.6861 -0.7275 0.7275 0.6861 -105.6873 295.246)" class="st5" width="2.8" height="2.8"/>
		
			<rect x="284.2" y="280.8" transform="matrix(0.6861 -0.7275 0.7275 0.6861 -115.6658 296.3977)" class="st5" width="2.8" height="2.8"/>
		
			<rect x="292" y="272.6" transform="matrix(0.6861 -0.7275 0.7275 0.6861 -107.2224 299.4677)" class="st5" width="2.8" height="2.8"/>
	</g>
	<g>
		<defs>
			
				<rect id="SVGID_1_" x="241.8" y="234.8" transform="matrix(0.7315 0.6818 -0.6818 0.7315 230.8875 -108.3106)" width="22.3" height="8.5"/>
		</defs>
		<clipPath id="SVGID_00000183947782949399280380000005165568597934910127_">
			<use xlink:href="#SVGID_1_"  style="overflow:visible;"/>
		</clipPath>
		<g style="clip-path:url(#SVGID_00000183947782949399280380000005165568597934910127_);">
			<polygon class="st18" points="255.4,251 253.3,249 254,240 263,238.7 265.1,240.6 256.1,241.9 			"/>
			<polygon class="st19" points="251.3,247.1 249.2,245.2 249.9,236.1 258.8,234.8 260.9,236.7 251.9,238 			"/>
			<polygon class="st20" points="247.1,243.2 245,241.3 245.7,232.3 254.7,230.9 256.8,232.9 247.8,234.2 			"/>
		</g>
	</g>
</g>
</svg>
