<?xml version="1.0" encoding="utf-8"?>
<!-- Generator: Adobe Illustrator 26.5.0, SVG Export Plug-In . SVG Version: 6.00 Build 0)  -->
<svg version="1.1" xmlns="http://www.w3.org/2000/svg" xmlns:xlink="http://www.w3.org/1999/xlink" x="0px" y="0px"
	 viewBox="0 0 542.6 426" style="enable-background:new 0 0 542.6 426;" xml:space="preserve">
<style type="text/css">
	.st0{fill:none;stroke:#646464;stroke-width:14.1732;stroke-miterlimit:10;}
	.st1{fill:none;stroke:#FFD449;stroke-width:2.8346;stroke-miterlimit:10;}
	.st2{fill:none;stroke:#54C6EB;stroke-width:2.8346;stroke-miterlimit:10;}
	.st3{fill:none;stroke:#F4442E;stroke-width:2.8346;stroke-miterlimit:10;}
	.st4{fill:none;stroke:#FFFFFF;stroke-width:2.126;}
	.st5{fill:#646464;}
	.st6{fill:#FFFFFF;}
	.st7{fill:#09BC8A;}
	.st8{fill:none;stroke:#646464;stroke-width:2.8346;stroke-miterlimit:10;}
	.st9{fill:none;stroke:#09BC8A;stroke-width:1.9843;stroke-miterlimit:10;}
	.st10{fill:none;stroke:#09BC8A;stroke-width:2.2097;stroke-miterlimit:10;}
	.st11{fill:#FF3380;}
	.st12{fill:none;stroke:#FF3380;stroke-width:1.9843;stroke-miterlimit:10;}
	.st13{fill:none;stroke:#F4442E;stroke-width:5.6693;stroke-miterlimit:10;}
	.st14{fill:none;stroke:#54C6EB;stroke-width:5.6693;stroke-miterlimit:10;}
	.st15{fill:none;stroke:#FFD449;stroke-width:5.6693;stroke-miterlimit:10;}
	.st16{fill:none;stroke:#09BC8A;stroke-width:2.8346;stroke-miterlimit:10;}
	.st17{clip-path:url(#SVGID_00000134928329574283131310000010177239999361058203_);}
	.st18{fill:#F4442E;}
	.st19{fill:#54C6EB;}
	.st20{fill:#FFD449;}
</style>
<g id="コース">
	<path class="st0" d="M358.2,311.5c0,0-154.3-140.7-160.5-146c-6.2-5.3-10.1-2.2-12.2-0.9s-12.6,7.4-14.3,8s-5.4,0.8-8.6-0.3
		c-3.2-1-9.5-5.6-14.5-8.9c-5-3.3-8.5-6.4-11.6-10.3c-3-3.9-17.1-18.8-24.5-24.2s-28.4-18.2-34.9-21.5S59.7,95.7,57.2,93.1
		c-2.5-2.5-4-4-2.7-9c1.3-5.1,3.2-9,0.3-13.4s-7.1-6.5-13-6.7c-5.9-0.2-12.8-0.5-14.4-0.4c-1.6,0.1-3.2-1-2.3-3.9
		c0.9-2.9,6.4-15,8.2-19c1.8-4,8.7-6.3,14.4-4.1S63.2,47.4,66,53.9s6.5,17.3,7.4,20.2c0.9,2.9,2.4,7.3,9.1,10.4
		c6.7,3,63.6,30.2,69.9,33.1s108,51.4,112.3,53.4c4.2,1.9,43.8,21.5,46.5,22.7c2.8,1.3,5.2,2.7,9-0.1c3.9-2.8,8.9-6.3,10.6-7.6
		c1.7-1.3,4.1-0.9,6.4-0.1c2.3,0.8,3.5,1.6,4.8,5c1.4,3.4,2.1,7.2,6.5,11c4.4,3.8,17.9,14.5,19.6,16c1.7,1.4,2.7,2.8,5.7,4.9
		c3,2.1,4.9,3.2,9.4,4.8c4.5,1.6,111.3,52.8,118.1,56.2s21.9,17.2,20.7,32.8c-1.2,15.5-3.5,50.8-4.6,59.6c-1,8.8-8.1,23-25.5,23
		c-17.4,0-24.5-16.7-20.3-26.4s23.7-28.4,26.5-31.6s5.2-6.3,6.6-12.8c1.4-6.6-0.2-10.8-3.2-13.9c-3-3-8.4-4.7-13.9-2
		c-5.4,2.7-13.5,6.9-23.7,7.9c-10.1,1-21.5-0.8-29.4-4.2c-7.9-3.4-18.8-10.6-23.1-17.6c-4.4-6.9-11.1-13.5-19.3-12.3
		s-14.5,3.9-16.7,12c-2.2,8.1-1.7,13.3-1.9,16c-0.2,2.7-2.2,7.4-7.1,4.2C361.7,315.3,358.2,311.5,358.2,311.5z"/>
</g>
<g id="セクター">
	<path class="st1" d="M417.5,243.5c33.3,15.8,79.5,38,83.8,40.1c6.8,3.4,21.9,17.2,20.7,32.8c-1.2,15.5-3.5,50.8-4.6,59.6
		c-1,8.8-8.1,23-25.5,23c-17.4,0-24.5-16.7-20.3-26.4s23.7-28.4,26.5-31.6s5.2-6.3,6.6-12.8c1.4-6.6-0.2-10.8-3.2-13.9
		c-3-3-8.4-4.7-13.9-2c-5.4,2.7-13.5,6.9-23.7,7.9c-10.1,1-21.5-0.8-29.4-4.2c-7.9-3.4-18.8-10.6-23.1-17.6
		c-4.4-6.9-11.1-13.5-19.3-12.3s-14.5,3.9-16.7,12c-2.2,8.1-1.7,13.3-1.9,16c-0.2,2.7-2.2,7.4-7.1,4.2c-4.9-3.2-8.5-7-8.5-7
		s-44.5-40.6-86.7-79"/>
	<path class="st2" d="M33.3,40.7c1.8-4,8.7-6.3,14.4-4.1S63.2,47.4,66,53.9s6.5,17.3,7.4,20.2c0.9,2.9,2.4,7.3,9.1,10.4
		c6.7,3,63.6,30.2,69.9,33.1s108,51.4,112.3,53.4c4.2,1.9,43.8,21.5,46.5,22.7c2.8,1.3,5.2,2.7,9-0.1c3.9-2.8,8.9-6.3,10.6-7.6
		c1.7-1.3,4.1-0.9,6.4-0.1c2.3,0.8,3.5,1.6,4.8,5c1.4,3.4,2.1,7.2,6.5,11c4.4,3.8,17.9,14.5,19.6,16c1.7,1.4,2.7,2.8,5.7,4.9
		c3,2.1,4.9,3.2,9.4,4.8c1.6,0.6,16,7.3,34.3,16"/>
	<path class="st3" d="M271.4,232.5c-36.3-33.1-70.9-64.5-73.8-67c-6.2-5.3-10.1-2.2-12.2-0.9s-12.6,7.4-14.3,8s-5.4,0.8-8.6-0.3
		c-3.2-1-9.5-5.6-14.5-8.9c-5-3.3-8.5-6.4-11.6-10.3c-3-3.9-17.1-18.8-24.5-24.2s-28.4-18.2-34.9-21.5S59.7,95.7,57.2,93.1
		c-2.5-2.5-4-4-2.7-9c1.3-5.1,3.2-9,0.3-13.4s-7.1-6.5-13-6.7c-5.9-0.2-12.8-0.5-14.4-0.4c-1.6,0.1-3.2-1-2.3-3.9
		c0.9-2.9,6.4-15,8.2-19"/>
</g>
<g id="コーナー番号">
	<g>
		<g>
			<circle class="st4" cx="188.8" cy="185.3" r="8.5"/>
			<circle class="st5" cx="188.8" cy="185.3" r="8.5"/>
		</g>
		<g>
			<path class="st6" d="M187.1,189.2v-1.6h1v-4.5h-0.9v-1.6h2.6v6.1h0.9v1.6H187.1z"/>
		</g>
	</g>
	<g>
		<g>
			<circle class="st4" cx="124.8" cy="169.4" r="8.5"/>
			<circle class="st5" cx="124.8" cy="169.4" r="8.5"/>
		</g>
		<g>
			<path class="st6" d="M122.7,173.3v-2.6c0-0.6,0.1-1,0.6-1.2l1.9-0.8v-1.6l-0.1-0.1h-0.5l-0.1,0.1v1.1h-1.7v-1.3
				c0-0.8,0.4-1.1,0.8-1.3h2.5c0.5,0.2,0.8,0.5,0.8,1.3v1.9c0,0.6-0.1,0.9-0.6,1.2l-1.9,0.8v0.9h2.4v1.6H122.7z"/>
		</g>
	</g>
	<g>
		<g>
			<circle class="st4" cx="42.4" cy="105.7" r="8.5"/>
			<circle class="st5" cx="42.4" cy="105.7" r="8.5"/>
		</g>
		<g>
			<path class="st6" d="M41.1,109.6c-0.5-0.2-0.8-0.5-0.8-1.3v-1H42v0.8l0.1,0.1h0.5l0.1-0.1v-1.6l-0.1-0.1h-1v-1.3h1l0.1-0.1v-1.5
				l-0.1-0.1h-0.5l-0.1,0.1v0.8h-1.7v-1c0-0.8,0.4-1.1,0.8-1.3h2.5c0.5,0.2,0.8,0.5,0.8,1.3v1.3c0,0.6-0.2,0.9-0.6,1.2
				c0.4,0.3,0.6,0.6,0.6,1.2v1.4c0,0.8-0.4,1.1-0.8,1.3H41.1z"/>
		</g>
	</g>
	<g>
		<g>
			<circle class="st4" cx="35.4" cy="82.2" r="8.5"/>
			<circle class="st5" cx="35.4" cy="82.2" r="8.5"/>
		</g>
		<g>
			<path class="st6" d="M37.1,84.6v1.5h-1.7v-1.5h-2.2v-1.5l1.6-4.7h1.7L34.9,83h0.5v-0.4l0.4-1h1.3V83h0.5v1.6H37.1z"/>
		</g>
	</g>
	<g>
		<g>
			<circle class="st4" cx="9.6" cy="75.7" r="8.5"/>
			<circle class="st5" cx="9.6" cy="75.7" r="8.5"/>
		</g>
		<g>
			<path class="st6" d="M8.3,79.6c-0.5-0.2-0.8-0.5-0.8-1.3v-1h1.6v0.8l0.1,0.1h0.6l0.1-0.1V76l-0.1-0.1H9.2L9.1,76v0.4H7.5v-4.5h4
				v1.5H9.1V75l0.4-0.4h1.3c0.5,0.2,0.8,0.5,0.8,1.3v2.4c0,0.8-0.4,1.1-0.8,1.3H8.3z"/>
		</g>
	</g>
	<g>
		<g>
			<circle class="st4" cx="49.2" cy="17.3" r="8.5"/>
			<circle class="st5" cx="49.2" cy="17.3" r="8.5"/>
		</g>
		<g>
			<path class="st6" d="M50.5,21.2H48c-0.5-0.2-0.8-0.5-0.8-1.3v-5.1c0-0.8,0.4-1.1,0.8-1.3h2.5c0.5,0.2,0.8,0.5,0.8,1.3v1h-1.7V15
				l-0.1-0.1h-0.5L48.8,15v1.8l0.3-0.3h1.3c0.5,0.2,0.8,0.5,0.8,1.3v2.2C51.3,20.7,50.9,21,50.5,21.2z M49.5,19.8l0.1-0.1v-1.8
				l-0.1-0.1h-0.5l-0.1,0.1v1.8l0.1,0.1H49.5z"/>
		</g>
	</g>
	<g>
		<g>
			<circle class="st4" cx="91.7" cy="65.7" r="8.5"/>
			<circle class="st5" cx="91.7" cy="65.7" r="8.5"/>
		</g>
		<g>
			<path class="st6" d="M89.9,69.6l2.1-6.2h-2.4v-1.5h4.1v1.2l-2.1,6.5H89.9z"/>
		</g>
	</g>
	<g>
		<g>
			<circle class="st4" cx="313.5" cy="214.5" r="8.5"/>
			<circle class="st5" cx="313.5" cy="214.5" r="8.5"/>
		</g>
		<g>
			<path class="st6" d="M312.3,218.4c-0.5-0.2-0.8-0.5-0.8-1.3v-1.4c0-0.6,0.2-0.9,0.6-1.2c-0.4-0.3-0.6-0.6-0.6-1.2V212
				c0-0.8,0.4-1.1,0.8-1.3h2.5c0.5,0.2,0.8,0.5,0.8,1.3v1.3c0,0.6-0.2,0.9-0.6,1.2c0.4,0.3,0.6,0.6,0.6,1.2v1.4
				c0,0.8-0.4,1.1-0.8,1.3H312.3z M313.1,213.7l0.1,0.1h0.5l0.1-0.1v-1.5l-0.1-0.1h-0.5l-0.1,0.1V213.7z M313.9,216.9v-1.6l-0.1-0.1
				h-0.5l-0.1,0.1v1.6l0.1,0.1h0.5L313.9,216.9z"/>
		</g>
	</g>
	<g>
		<g>
			<circle class="st4" cx="341.9" cy="166.9" r="8.5"/>
			<circle class="st5" cx="341.9" cy="166.9" r="8.5"/>
		</g>
		<g>
			<path class="st6" d="M340.7,170.8c-0.5-0.2-0.8-0.5-0.8-1.3v-1h1.7v0.8l0.1,0.1h0.5l0.1-0.1v-1.8l-0.3,0.3h-1.3
				c-0.5-0.2-0.8-0.5-0.8-1.3v-2.2c0-0.8,0.4-1.1,0.8-1.3h2.5c0.5,0.2,0.8,0.5,0.8,1.3v5.1c0,0.8-0.4,1.1-0.8,1.3H340.7z
				 M342.3,166.5v-1.8l-0.1-0.1h-0.5l-0.1,0.1v1.8l0.1,0.1h0.5L342.3,166.5z"/>
		</g>
	</g>
	<g>
		<g>
			<circle class="st4" cx="533.1" cy="285.3" r="8.5"/>
			<circle class="st5" cx="533.1" cy="285.3" r="8.5"/>
		</g>
		<g>
			<path class="st6" d="M529,289.2v-1.6h1v-4.5h-0.9v-1.6h2.6v6.1h0.9v1.6H529z"/>
			<path class="st6" d="M536.6,289.2h-2.5c-0.5-0.2-0.8-0.5-0.8-1.3v-5.1c0-0.8,0.4-1.1,0.8-1.3h2.5c0.5,0.2,0.8,0.5,0.8,1.3v5.1
				C537.5,288.7,537.1,289,536.6,289.2z M535.8,283l-0.1-0.1h-0.5L535,283v4.7l0.1,0.1h0.5l0.1-0.1V283z"/>
		</g>
	</g>
	<g>
		<g>
			<circle class="st4" cx="478.1" cy="416.5" r="8.5"/>
			<circle class="st5" cx="478.1" cy="416.5" r="8.5"/>
		</g>
		<g>
			<path class="st6" d="M474.1,420.3v-1.6h1v-4.5h-0.9v-1.6h2.6v6.1h0.9v1.6H474.1z"/>
			<path class="st6" d="M478.8,420.3v-1.6h1v-4.5h-0.9v-1.6h2.6v6.1h0.9v1.6H478.8z"/>
		</g>
	</g>
	<g>
		<g>
			<circle class="st4" cx="476.8" cy="336.1" r="8.5"/>
			<circle class="st5" cx="476.8" cy="336.1" r="8.5"/>
		</g>
		<g>
			<path class="st6" d="M472.8,340v-1.6h1v-4.5h-0.9v-1.6h2.6v6.1h0.9v1.6H472.8z"/>
			<path class="st6" d="M477.1,340v-2.6c0-0.6,0.1-1,0.6-1.2l1.9-0.8v-1.6l-0.1-0.1h-0.5l-0.1,0.1v1.1h-1.7v-1.3
				c0-0.8,0.4-1.1,0.8-1.3h2.5c0.5,0.2,0.8,0.5,0.8,1.3v1.9c0,0.6-0.1,0.9-0.6,1.2l-1.9,0.8v0.9h2.4v1.6H477.1z"/>
		</g>
	</g>
	<g>
		<g>
			<circle class="st4" cx="436.2" cy="337.9" r="8.5"/>
			<circle class="st5" cx="436.2" cy="337.9" r="8.5"/>
		</g>
		<g>
			<path class="st6" d="M432.2,341.8v-1.6h1v-4.5h-0.9v-1.6h2.6v6.1h0.9v1.6H432.2z"/>
			<path class="st6" d="M437.3,341.8c-0.5-0.2-0.8-0.5-0.8-1.3v-1h1.7v0.8l0.1,0.1h0.5l0.1-0.1v-1.6l-0.1-0.1h-1v-1.3h1l0.1-0.1
				v-1.5l-0.1-0.1h-0.5l-0.1,0.1v0.8h-1.7v-1c0-0.8,0.4-1.1,0.8-1.3h2.5c0.5,0.2,0.8,0.5,0.8,1.3v1.3c0,0.6-0.2,0.9-0.6,1.2
				c0.4,0.3,0.6,0.6,0.6,1.2v1.4c0,0.8-0.4,1.1-0.8,1.3H437.3z"/>
		</g>
	</g>
	<g>
		<g>
			<circle class="st4" cx="383.6" cy="267.9" r="8.5"/>
			<circle class="st5" cx="383.6" cy="267.9" r="8.5"/>
		</g>
		<g>
			<path class="st6" d="M379.5,271.8v-1.6h1v-4.5h-0.9v-1.6h2.6v6.1h0.9v1.6H379.5z"/>
			<path class="st6" d="M387.5,270.3v1.5h-1.7v-1.5h-2.2v-1.5l1.6-4.7h1.7l-1.6,4.6h0.5v-0.4l0.4-1h1.3v1.4h0.5v1.6H387.5z"/>
		</g>
	</g>
	<g>
		<g>
			<circle class="st4" cx="370.3" cy="339.4" r="8.5"/>
			<circle class="st5" cx="370.3" cy="339.4" r="8.5"/>
		</g>
		<g>
			<path class="st6" d="M366.2,343.3v-1.6h1v-4.5h-0.9v-1.6h2.6v6.1h0.9v1.6H366.2z"/>
			<path class="st6" d="M371.4,343.3c-0.5-0.2-0.8-0.5-0.8-1.3v-1h1.6v0.8l0.1,0.1h0.6l0.1-0.1v-2.1l-0.1-0.1h-0.6l-0.1,0.1v0.4
				h-1.6v-4.5h4v1.5h-2.4v1.6l0.4-0.4h1.3c0.5,0.2,0.8,0.5,0.8,1.3v2.4c0,0.8-0.4,1.1-0.8,1.3H371.4z"/>
		</g>
	</g>
</g>
<g id="DRS">
	<g>
		<g>
			<path class="st7" d="M187.9,50.2c0,0.8-0.6,1.4-1.4,1.4h-67.6c-0.8,0-1.4-0.6-1.4-1.4V1.4c0-0.8,0.6-1.4,1.4-1.4h67.6
				c0.8,0,1.4,0.6,1.4,1.4V50.2z"/>
		</g>
		<g>
			<path class="st6" d="M148.7,15.7c0,1.3-0.6,1.7-1.3,2h-5.2v-12h5.2c0.7,0.3,1.3,0.7,1.3,2V15.7z M144.9,7.8v7.7h1l0.2-0.2V8
				l-0.2-0.2H144.9z"/>
			<path class="st6" d="M149.6,17.6v-12h5.2c0.7,0.3,1.3,0.7,1.3,2v2.5c0,1.1-0.5,1.6-1.1,1.9l1.4,3.8v1.7H154l-1.5-4.7h-0.3v4.7
				H149.6z M152.2,7.8v3h1l0.2-0.2V8l-0.2-0.2H152.2z"/>
			<path class="st6" d="M163.3,12.9v2.7c0,1.3-0.6,1.7-1.3,2h-3.9c-0.7-0.3-1.3-0.7-1.3-2v-2.4h2.7v2l0.2,0.2h0.8l0.2-0.2v-1.8
				l-0.1-0.2l-2.7-1.2c-0.8-0.4-0.9-0.9-0.9-1.8V7.7c0-1.3,0.6-1.7,1.3-2h3.9c0.7,0.3,1.3,0.7,1.3,2v2.2h-2.7V8l-0.2-0.2h-0.8
				L159.4,8v1.7l0.2,0.3l2.7,1.1C163.1,11.4,163.3,12,163.3,12.9z"/>
			<path class="st6" d="M129.7,29.8c0,1.3-0.6,1.7-1.3,2h-5.2v-12h5.2c0.7,0.3,1.3,0.7,1.3,2V29.8z M125.8,22v7.7h1l0.2-0.2v-7.3
				l-0.2-0.2H125.8z"/>
			<path class="st6" d="M130.5,19.8h5.5v2.5h-2.8v2.2h2.7V27h-2.7v2.3h2.9v2.5h-5.6V19.8z"/>
			<path class="st6" d="M141.1,22.3v9.5h-2.7v-9.5h-1.9v-2.5h6.5v2.5H141.1z"/>
			<path class="st6" d="M143.6,19.8h5.5v2.5h-2.8v2.2h2.7V27h-2.7v2.3h2.9v2.5h-5.6V19.8z"/>
			<path class="st6" d="M156.5,29.8c0,1.3-0.6,1.7-1.3,2h-3.9c-0.7-0.3-1.3-0.7-1.3-2v-8c0-1.3,0.6-1.7,1.3-2h3.9
				c0.7,0.3,1.3,0.7,1.3,2v2.9h-2.7v-2.6l-0.2-0.2h-0.8l-0.2,0.2v7.3l0.2,0.2h0.8l0.2-0.2V27h2.7V29.8z"/>
			<path class="st6" d="M161.5,22.3v9.5h-2.7v-9.5H157v-2.5h6.5v2.5H161.5z"/>
			<path class="st6" d="M163.9,31.8v-2.5h0.5v-7h-0.5v-2.5h3.7v2.5h-0.5v7h0.5v2.5H163.9z"/>
			<path class="st6" d="M174.9,29.8c0,1.3-0.6,1.7-1.3,2h-3.9c-0.7-0.3-1.3-0.7-1.3-2v-8c0-1.3,0.6-1.7,1.3-2h3.9
				c0.7,0.3,1.3,0.7,1.3,2V29.8z M172.3,22.2l-0.2-0.2h-0.8l-0.2,0.2v7.3l0.2,0.2h0.8l0.2-0.2V22.2z"/>
			<path class="st6" d="M179.9,19.8h2.3v12h-2.3l-1.7-5.2h-0.2v5.2h-2.3v-12h2.3l1.7,5.2h0.2V19.8z"/>
			<path class="st6" d="M137.5,36.5H134V34h6.5v2.2l-3.5,7.3h3.5V46H134v-2.2L137.5,36.5z"/>
			<path class="st6" d="M147.8,44c0,1.3-0.6,1.7-1.3,2h-3.9c-0.7-0.3-1.3-0.7-1.3-2v-8c0-1.3,0.6-1.7,1.3-2h3.9
				c0.7,0.3,1.3,0.7,1.3,2V44z M145.2,36.3l-0.2-0.2h-0.8l-0.2,0.2v7.3l0.2,0.2h0.8l0.2-0.2V36.3z"/>
			<path class="st6" d="M152.8,34h2.3v12h-2.3l-1.7-5.2H151V46h-2.3V34h2.3l1.7,5.2h0.2V34z"/>
			<path class="st6" d="M156,34h5.5v2.5h-2.8v2.2h2.7v2.5h-2.7v2.3h2.9V46H156V34z"/>
			<path class="st6" d="M165.5,46v-2.5h1.5v-7h-1.3V34h4v9.5h1.3V46H165.5z"/>
		</g>
	</g>
	<g>
		<circle class="st8" cx="399.7" cy="287" r="4.7"/>
		<circle class="st7" cx="399.7" cy="287" r="4.7"/>
	</g>
	<g>
		<g>
			<path class="st7" d="M360.3,408c0,0.8-0.6,1.4-1.4,1.4h-67.6c-0.8,0-1.4-0.6-1.4-1.4v-48.8c0-0.8,0.6-1.4,1.4-1.4h67.6
				c0.8,0,1.4,0.6,1.4,1.4V408z"/>
		</g>
		<g>
			<path class="st6" d="M321.1,373.4c0,1.3-0.6,1.7-1.3,2h-5.2v-12h5.2c0.7,0.3,1.3,0.7,1.3,2V373.4z M317.3,365.6v7.7h1l0.2-0.2
				v-7.3l-0.2-0.2H317.3z"/>
			<path class="st6" d="M321.9,375.4v-12h5.2c0.7,0.3,1.3,0.7,1.3,2v2.5c0,1.1-0.5,1.6-1.1,1.9l1.4,3.8v1.7h-2.3l-1.5-4.7h-0.3v4.7
				H321.9z M324.6,365.6v3h1l0.2-0.2v-2.7l-0.2-0.2H324.6z"/>
			<path class="st6" d="M335.6,370.6v2.7c0,1.3-0.6,1.7-1.3,2h-3.9c-0.7-0.3-1.3-0.7-1.3-2V371h2.7v2l0.2,0.2h0.8l0.2-0.2v-1.8
				l-0.1-0.2l-2.7-1.2c-0.8-0.4-0.9-0.9-0.9-1.8v-2.5c0-1.3,0.6-1.7,1.3-2h3.9c0.7,0.3,1.3,0.7,1.3,2v2.2H333v-1.9l-0.2-0.2H332
				l-0.2,0.2v1.7l0.2,0.3l2.7,1.1C335.5,369.1,335.6,369.7,335.6,370.6z"/>
			<path class="st6" d="M302,387.5c0,1.3-0.6,1.7-1.3,2h-5.2v-12h5.2c0.7,0.3,1.3,0.7,1.3,2V387.5z M298.2,379.7v7.7h1l0.2-0.2v-7.3
				l-0.2-0.2H298.2z"/>
			<path class="st6" d="M302.9,377.6h5.5v2.5h-2.8v2.2h2.7v2.5h-2.7v2.3h2.9v2.5h-5.6V377.6z"/>
			<path class="st6" d="M313.5,380.1v9.5h-2.7v-9.5h-1.9v-2.5h6.5v2.5H313.5z"/>
			<path class="st6" d="M315.9,377.6h5.5v2.5h-2.8v2.2h2.7v2.5h-2.7v2.3h2.9v2.5h-5.6V377.6z"/>
			<path class="st6" d="M328.8,387.5c0,1.3-0.6,1.7-1.3,2h-3.9c-0.7-0.3-1.3-0.7-1.3-2v-8c0-1.3,0.6-1.7,1.3-2h3.9
				c0.7,0.3,1.3,0.7,1.3,2v2.9h-2.7v-2.6l-0.2-0.2h-0.8l-0.2,0.2v7.3l0.2,0.2h0.8l0.2-0.2v-2.5h2.7V387.5z"/>
			<path class="st6" d="M333.9,380.1v9.5h-2.7v-9.5h-1.9v-2.5h6.5v2.5H333.9z"/>
			<path class="st6" d="M336.3,389.5V387h0.5v-7h-0.5v-2.5h3.7v2.5h-0.5v7h0.5v2.5H336.3z"/>
			<path class="st6" d="M347.3,387.5c0,1.3-0.6,1.7-1.3,2h-3.9c-0.7-0.3-1.3-0.7-1.3-2v-8c0-1.3,0.6-1.7,1.3-2h3.9
				c0.7,0.3,1.3,0.7,1.3,2V387.5z M344.6,379.9l-0.2-0.2h-0.8l-0.2,0.2v7.3l0.2,0.2h0.8l0.2-0.2V379.9z"/>
			<path class="st6" d="M352.3,377.6h2.3v12h-2.3l-1.7-5.2h-0.2v5.2h-2.3v-12h2.3l1.7,5.2h0.2V377.6z"/>
			<path class="st6" d="M309.9,394.2h-3.5v-2.5h6.5v2.2l-3.5,7.3h3.5v2.5h-6.5v-2.2L309.9,394.2z"/>
			<path class="st6" d="M320.2,401.7c0,1.3-0.6,1.7-1.3,2H315c-0.7-0.3-1.3-0.7-1.3-2v-8c0-1.3,0.6-1.7,1.3-2h3.9
				c0.7,0.3,1.3,0.7,1.3,2V401.7z M317.5,394.1l-0.2-0.2h-0.8l-0.2,0.2v7.3l0.2,0.2h0.8l0.2-0.2V394.1z"/>
			<path class="st6" d="M325.2,391.7h2.3v12h-2.3l-1.7-5.2h-0.2v5.2H321v-12h2.3l1.7,5.2h0.2V391.7z"/>
			<path class="st6" d="M328.4,391.7h5.5v2.5H331v2.2h2.7v2.5H331v2.3h2.9v2.5h-5.6V391.7z"/>
			<path class="st6" d="M337.3,403.7v-4c0-0.9,0.2-1.5,0.9-1.8l2.9-1.3v-2.5l-0.2-0.2h-0.8l-0.2,0.2v1.7h-2.7v-2.1
				c0-1.3,0.6-1.7,1.3-2h3.9c0.7,0.3,1.3,0.7,1.3,2v3c0,0.9-0.1,1.5-0.9,1.8l-2.9,1.3v1.3h3.8v2.5H337.3z"/>
		</g>
	</g>
	<g>
		<circle class="st8" cx="67.8" cy="58.3" r="4.7"/>
		<circle class="st7" cx="67.8" cy="58.3" r="4.7"/>
	</g>
	<g>
		<path class="st9" d="M117.5,25.8H76.3c-4.7,0-8.5,3.8-8.5,8.5v23.9"/>
	</g>
	<g>
		<g>
			<g>
				<g>
					<line class="st10" x1="131.8" y1="79.9" x2="126.9" y2="90.4"/>
				</g>
				<g>
					<path class="st7" d="M134.4,87.5c-0.3,0.6-0.9,0.8-1.5,0.5c-0.6-0.3-0.8-0.9-0.5-1.5s0.9-0.8,1.5-0.5
						C134.4,86.3,134.6,87,134.4,87.5z"/>
				</g>
				<g>
					<path class="st7" d="M138.4,89.4c-0.3,0.6-0.9,0.8-1.5,0.5c-0.6-0.3-0.8-0.9-0.5-1.5c0.3-0.6,0.9-0.8,1.5-0.5
						C138.4,88.2,138.6,88.8,138.4,89.4z"/>
				</g>
				<g>
					<path class="st7" d="M142.3,91.3c-0.3,0.6-0.9,0.8-1.5,0.5c-0.6-0.3-0.8-0.9-0.5-1.5c0.3-0.6,0.9-0.8,1.5-0.5
						C142.4,90,142.6,90.7,142.3,91.3z"/>
				</g>
				<g>
					<path class="st7" d="M146.3,93.1c-0.3,0.6-0.9,0.8-1.5,0.5c-0.6-0.3-0.8-0.9-0.5-1.5c0.3-0.6,0.9-0.8,1.5-0.5
						S146.6,92.6,146.3,93.1z"/>
				</g>
				<g>
					<path class="st7" d="M150.3,95c-0.3,0.6-0.9,0.8-1.5,0.5s-0.8-0.9-0.5-1.5c0.3-0.6,0.9-0.8,1.5-0.5
						C150.4,93.8,150.6,94.4,150.3,95z"/>
				</g>
				<g>
					<path class="st7" d="M154.3,96.9c-0.3,0.6-0.9,0.8-1.5,0.5c-0.6-0.3-0.8-0.9-0.5-1.5c0.3-0.6,0.9-0.8,1.5-0.5
						C154.3,95.6,154.6,96.3,154.3,96.9z"/>
				</g>
				<g>
					<path class="st7" d="M158.3,98.7c-0.3,0.6-0.9,0.8-1.5,0.5c-0.6-0.3-0.8-0.9-0.5-1.5c0.3-0.6,0.9-0.8,1.5-0.5
						C158.3,97.5,158.6,98.2,158.3,98.7z"/>
				</g>
				<g>
					<path class="st7" d="M162.3,100.6c-0.3,0.6-0.9,0.8-1.5,0.5s-0.8-0.9-0.5-1.5c0.3-0.6,0.9-0.8,1.5-0.5
						C162.3,99.4,162.6,100,162.3,100.6z"/>
				</g>
				<g>
					<path class="st7" d="M166.3,102.5c-0.3,0.6-0.9,0.8-1.5,0.5c-0.6-0.3-0.8-0.9-0.5-1.5c0.3-0.6,0.9-0.8,1.5-0.5
						C166.3,101.2,166.6,101.9,166.3,102.5z"/>
				</g>
				<g>
					<path class="st7" d="M170.3,104.3c-0.3,0.6-0.9,0.8-1.5,0.5c-0.6-0.3-0.8-0.9-0.5-1.5c0.3-0.6,0.9-0.8,1.5-0.5
						C170.3,103.1,170.6,103.8,170.3,104.3z"/>
				</g>
				<g>
					<path class="st7" d="M174.3,106.2c-0.3,0.6-0.9,0.8-1.5,0.5s-0.8-0.9-0.5-1.5c0.3-0.6,0.9-0.8,1.5-0.5
						C174.3,105,174.5,105.6,174.3,106.2z"/>
				</g>
				<g>
					<path class="st7" d="M178.3,108.1c-0.3,0.6-0.9,0.8-1.5,0.5c-0.6-0.3-0.8-0.9-0.5-1.5c0.3-0.6,0.9-0.8,1.5-0.5
						C178.3,106.8,178.5,107.5,178.3,108.1z"/>
				</g>
				<g>
					<path class="st7" d="M182.3,109.9c-0.3,0.6-0.9,0.8-1.5,0.5c-0.6-0.3-0.8-0.9-0.5-1.5c0.3-0.6,0.9-0.8,1.5-0.5
						C182.3,108.7,182.5,109.4,182.3,109.9z"/>
				</g>
				<g>
					<path class="st7" d="M186.3,111.8c-0.3,0.6-0.9,0.8-1.5,0.5c-0.6-0.3-0.8-0.9-0.5-1.5c0.3-0.6,0.9-0.8,1.5-0.5
						C186.3,110.6,186.5,111.2,186.3,111.8z"/>
				</g>
				<g>
					<path class="st7" d="M190.3,113.7c-0.3,0.6-0.9,0.8-1.5,0.5c-0.6-0.3-0.8-0.9-0.5-1.5c0.3-0.6,0.9-0.8,1.5-0.5
						C190.3,112.4,190.5,113.1,190.3,113.7z"/>
				</g>
				<g>
					<path class="st7" d="M194.3,115.5c-0.3,0.6-0.9,0.8-1.5,0.5c-0.6-0.3-0.8-0.9-0.5-1.5c0.3-0.6,0.9-0.8,1.5-0.5
						C194.3,114.3,194.5,115,194.3,115.5z"/>
				</g>
				<g>
					<path class="st7" d="M198.2,117.4c-0.3,0.6-0.9,0.8-1.5,0.5c-0.6-0.3-0.8-0.9-0.5-1.5c0.3-0.6,0.9-0.8,1.5-0.5
						C198.3,116.2,198.5,116.8,198.2,117.4z"/>
				</g>
				<g>
					<path class="st7" d="M202.2,119.3c-0.3,0.6-0.9,0.8-1.5,0.5c-0.6-0.3-0.8-0.9-0.5-1.5c0.3-0.6,0.9-0.8,1.5-0.5
						S202.5,118.7,202.2,119.3z"/>
				</g>
				<g>
					<path class="st7" d="M206.2,121.1c-0.3,0.6-0.9,0.8-1.5,0.5c-0.6-0.3-0.8-0.9-0.5-1.5c0.3-0.6,0.9-0.8,1.5-0.5
						S206.5,120.6,206.2,121.1z"/>
				</g>
				<g>
					<path class="st7" d="M210.2,123c-0.3,0.6-0.9,0.8-1.5,0.5c-0.6-0.3-0.8-0.9-0.5-1.5c0.3-0.6,0.9-0.8,1.5-0.5
						C210.2,121.8,210.5,122.4,210.2,123z"/>
				</g>
				<g>
					<path class="st7" d="M214.2,124.9c-0.3,0.6-0.9,0.8-1.5,0.5c-0.6-0.3-0.8-0.9-0.5-1.5c0.3-0.6,0.9-0.8,1.5-0.5
						C214.2,123.6,214.5,124.3,214.2,124.9z"/>
				</g>
				<g>
					<path class="st7" d="M218.2,126.7c-0.3,0.6-0.9,0.8-1.5,0.5c-0.6-0.3-0.8-0.9-0.5-1.5c0.3-0.6,0.9-0.8,1.5-0.5
						C218.2,125.5,218.5,126.2,218.2,126.7z"/>
				</g>
				<g>
					<path class="st7" d="M222.2,128.6c-0.3,0.6-0.9,0.8-1.5,0.5c-0.6-0.3-0.8-0.9-0.5-1.5c0.3-0.6,0.9-0.8,1.5-0.5
						C222.2,127.4,222.5,128,222.2,128.6z"/>
				</g>
				<g>
					<path class="st7" d="M226.2,130.5c-0.3,0.6-0.9,0.8-1.5,0.5c-0.6-0.3-0.8-0.9-0.5-1.5c0.3-0.6,0.9-0.8,1.5-0.5
						C226.2,129.2,226.5,129.9,226.2,130.5z"/>
				</g>
				<g>
					<path class="st7" d="M230.2,132.3c-0.3,0.6-0.9,0.8-1.5,0.5c-0.6-0.3-0.8-0.9-0.5-1.5c0.3-0.6,0.9-0.8,1.5-0.5
						C230.2,131.1,230.4,131.8,230.2,132.3z"/>
				</g>
				<g>
					<path class="st7" d="M234.2,134.2c-0.3,0.6-0.9,0.8-1.5,0.5c-0.6-0.3-0.8-0.9-0.5-1.5c0.3-0.6,0.9-0.8,1.5-0.5
						C234.2,133,234.4,133.6,234.2,134.2z"/>
				</g>
				<g>
					
						<ellipse transform="matrix(0.4234 -0.906 0.906 0.4234 13.9226 293.061)" class="st7" cx="237.2" cy="135.6" rx="1.1" ry="1.1"/>
				</g>
				<g>
					<path class="st7" d="M242.2,137.9c-0.3,0.6-0.9,0.8-1.5,0.5c-0.6-0.3-0.8-0.9-0.5-1.5c0.3-0.6,0.9-0.8,1.5-0.5
						C242.2,136.7,242.4,137.4,242.2,137.9z"/>
				</g>
				<g>
					<path class="st7" d="M246.2,139.8c-0.3,0.6-0.9,0.8-1.5,0.5c-0.6-0.3-0.8-0.9-0.5-1.5c0.3-0.6,0.9-0.8,1.5-0.5
						C246.2,138.6,246.4,139.2,246.2,139.8z"/>
				</g>
				<g>
					<path class="st7" d="M250.2,141.7c-0.3,0.6-0.9,0.8-1.5,0.5c-0.6-0.3-0.8-0.9-0.5-1.5c0.3-0.6,0.9-0.8,1.5-0.5
						S250.4,141.1,250.2,141.7z"/>
				</g>
				<g>
					<path class="st7" d="M254.1,143.5c-0.3,0.6-0.9,0.8-1.5,0.5c-0.6-0.3-0.8-0.9-0.5-1.5c0.3-0.6,0.9-0.8,1.5-0.5
						C254.2,142.3,254.4,143,254.1,143.5z"/>
				</g>
				<g>
					<path class="st7" d="M258.1,145.4c-0.3,0.6-0.9,0.8-1.5,0.5c-0.6-0.3-0.8-0.9-0.5-1.5c0.3-0.6,0.9-0.8,1.5-0.5
						S258.4,144.8,258.1,145.4z"/>
				</g>
				<g>
					<path class="st7" d="M262.1,147.3c-0.3,0.6-0.9,0.8-1.5,0.5c-0.6-0.3-0.8-0.9-0.5-1.5c0.3-0.6,0.9-0.8,1.5-0.5
						C262.1,146.1,262.4,146.7,262.1,147.3z"/>
				</g>
				<g>
					<path class="st7" d="M266.1,149.1c-0.3,0.6-0.9,0.8-1.5,0.5c-0.6-0.3-0.8-0.9-0.5-1.5c0.3-0.6,0.9-0.8,1.5-0.5
						C266.1,147.9,266.4,148.6,266.1,149.1z"/>
				</g>
				<g>
					<path class="st7" d="M270.1,151c-0.3,0.6-0.9,0.8-1.5,0.5s-0.8-0.9-0.5-1.5s0.9-0.8,1.5-0.5C270.1,149.8,270.4,150.4,270.1,151
						z"/>
				</g>
				<g>
					<path class="st7" d="M274.1,152.9c-0.3,0.6-0.9,0.8-1.5,0.5s-0.8-0.9-0.5-1.5s0.9-0.8,1.5-0.5
						C274.1,151.7,274.4,152.3,274.1,152.9z"/>
				</g>
				<g>
					<path class="st7" d="M278.1,154.7c-0.3,0.6-0.9,0.8-1.5,0.5c-0.6-0.3-0.8-0.9-0.5-1.5s0.9-0.8,1.5-0.5S278.4,154.2,278.1,154.7
						z"/>
				</g>
				<g>
					<path class="st7" d="M282.1,156.6c-0.3,0.6-0.9,0.8-1.5,0.5c-0.6-0.3-0.8-0.9-0.5-1.5s0.9-0.8,1.5-0.5S282.4,156,282.1,156.6z"
						/>
				</g>
				<g>
					<path class="st7" d="M286.1,158.5c-0.3,0.6-0.9,0.8-1.5,0.5c-0.6-0.3-0.8-0.9-0.5-1.5c0.3-0.6,0.9-0.8,1.5-0.5
						C286.1,157.3,286.3,157.9,286.1,158.5z"/>
				</g>
				<g>
					<path class="st7" d="M290.1,160.3c-0.3,0.6-0.9,0.8-1.5,0.5s-0.8-0.9-0.5-1.5c0.3-0.6,0.9-0.8,1.5-0.5
						C290.1,159.1,290.3,159.8,290.1,160.3z"/>
				</g>
				<g>
					<path class="st7" d="M294.1,162.2c-0.3,0.6-0.9,0.8-1.5,0.5s-0.8-0.9-0.5-1.5c0.3-0.6,0.9-0.8,1.5-0.5
						C294.1,161,294.3,161.6,294.1,162.2z"/>
				</g>
				<g>
					<path class="st7" d="M298.1,164.1c-0.3,0.6-0.9,0.8-1.5,0.5s-0.8-0.9-0.5-1.5c0.3-0.6,0.9-0.8,1.5-0.5S298.3,163.5,298.1,164.1
						z"/>
				</g>
				<g>
					<path class="st7" d="M302.1,165.9c-0.3,0.6-0.9,0.8-1.5,0.5c-0.6-0.3-0.8-0.9-0.5-1.5c0.3-0.6,0.9-0.8,1.5-0.5
						C302.1,164.7,302.3,165.4,302.1,165.9z"/>
				</g>
				<g>
					<path class="st7" d="M306,167.8c-0.3,0.6-0.9,0.8-1.5,0.5c-0.6-0.3-0.8-0.9-0.5-1.5c0.3-0.6,0.9-0.8,1.5-0.5
						C306.1,166.6,306.3,167.2,306,167.8z"/>
				</g>
				<g>
					<path class="st7" d="M310,169.7c-0.3,0.6-0.9,0.8-1.5,0.5c-0.6-0.3-0.8-0.9-0.5-1.5c0.3-0.6,0.9-0.8,1.5-0.5
						C310.1,168.5,310.3,169.1,310,169.7z"/>
				</g>
				<g>
					<path class="st7" d="M314,171.5c-0.3,0.6-0.9,0.8-1.5,0.5s-0.8-0.9-0.5-1.5c0.3-0.6,0.9-0.8,1.5-0.5
						C314.1,170.3,314.3,171,314,171.5z"/>
				</g>
				<g>
					<line class="st10" x1="319.5" y1="167.7" x2="314.6" y2="178.2"/>
				</g>
			</g>
		</g>
	</g>
	<g>
		<path class="st9" d="M360.3,383.6h30.9c4.7,0,8.5-3.8,8.5-8.5v-88"/>
	</g>
	<g>
		<g>
			<g>
				<g>
					<line class="st10" x1="336.2" y1="280.1" x2="344" y2="271.5"/>
				</g>
				<g>
					<path class="st7" d="M336,272.1c0.4-0.5,1.1-0.5,1.6-0.1c0.5,0.4,0.5,1.1,0.1,1.6c-0.4,0.5-1.1,0.5-1.6,0.1
						C335.6,273.3,335.6,272.6,336,272.1z"/>
				</g>
				<g>
					<path class="st7" d="M332.7,269.2c0.4-0.5,1.1-0.5,1.6-0.1s0.5,1.1,0.1,1.6s-1.1,0.5-1.6,0.1
						C332.4,270.3,332.3,269.6,332.7,269.2z"/>
				</g>
				<g>
					<path class="st7" d="M329.5,266.2c0.4-0.5,1.1-0.5,1.6-0.1c0.5,0.4,0.5,1.1,0.1,1.6s-1.1,0.5-1.6,0.1
						C329.1,267.3,329.1,266.6,329.5,266.2z"/>
				</g>
				<g>
					<path class="st7" d="M326.2,263.2c0.4-0.5,1.1-0.5,1.6-0.1s0.5,1.1,0.1,1.6c-0.4,0.5-1.1,0.5-1.6,0.1S325.8,263.7,326.2,263.2z
						"/>
				</g>
				<g>
					<path class="st7" d="M322.9,260.3c0.4-0.5,1.1-0.5,1.6-0.1c0.5,0.4,0.5,1.1,0.1,1.6s-1.1,0.5-1.6,0.1
						C322.6,261.4,322.5,260.7,322.9,260.3z"/>
				</g>
				<g>
					<path class="st7" d="M319.7,257.3c0.4-0.5,1.1-0.5,1.6-0.1c0.5,0.4,0.5,1.1,0.1,1.6c-0.4,0.5-1.1,0.5-1.6,0.1
						S319.2,257.8,319.7,257.3z"/>
				</g>
				<g>
					<path class="st7" d="M316.4,254.3c0.4-0.5,1.1-0.5,1.6-0.1c0.5,0.4,0.5,1.1,0.1,1.6s-1.1,0.5-1.6,0.1S316,254.8,316.4,254.3z"
						/>
				</g>
				<g>
					<path class="st7" d="M313.1,251.4c0.4-0.5,1.1-0.5,1.6-0.1s0.5,1.1,0.1,1.6c-0.4,0.5-1.1,0.5-1.6,0.1
						C312.7,252.5,312.7,251.8,313.1,251.4z"/>
				</g>
				<g>
					<path class="st7" d="M309.8,248.4c0.4-0.5,1.1-0.5,1.6-0.1c0.5,0.4,0.5,1.1,0.1,1.6s-1.1,0.5-1.6,0.1S309.4,248.9,309.8,248.4z
						"/>
				</g>
				<g>
					<path class="st7" d="M306.6,245.4c0.4-0.5,1.1-0.5,1.6-0.1s0.5,1.1,0.1,1.6c-0.4,0.5-1.1,0.5-1.6,0.1S306.2,245.9,306.6,245.4z
						"/>
				</g>
				<g>
					<path class="st7" d="M303.3,242.5c0.4-0.5,1.1-0.5,1.6-0.1s0.5,1.1,0.1,1.6c-0.4,0.5-1.1,0.5-1.6,0.1S302.9,242.9,303.3,242.5z
						"/>
				</g>
				<g>
					<path class="st7" d="M300,239.5c0.4-0.5,1.1-0.5,1.6-0.1s0.5,1.1,0.1,1.6c-0.4,0.5-1.1,0.5-1.6,0.1
						C299.6,240.7,299.6,240,300,239.5z"/>
				</g>
				<g>
					<path class="st7" d="M296.7,236.5c0.4-0.5,1.1-0.5,1.6-0.1c0.5,0.4,0.5,1.1,0.1,1.6s-1.1,0.5-1.6,0.1S296.3,237,296.7,236.5z"
						/>
				</g>
				<g>
					<path class="st7" d="M293.5,233.6c0.4-0.5,1.1-0.5,1.6-0.1s0.5,1.1,0.1,1.6c-0.4,0.5-1.1,0.5-1.6,0.1S293.1,234,293.5,233.6z"
						/>
				</g>
				<g>
					<path class="st7" d="M290.2,230.6c0.4-0.5,1.1-0.5,1.6-0.1s0.5,1.1,0.1,1.6s-1.1,0.5-1.6,0.1
						C289.8,231.8,289.8,231.1,290.2,230.6z"/>
				</g>
				<g>
					<path class="st7" d="M286.9,227.7c0.4-0.5,1.1-0.5,1.6-0.1c0.5,0.4,0.5,1.1,0.1,1.6s-1.1,0.5-1.6,0.1S286.5,228.1,286.9,227.7z
						"/>
				</g>
				<g>
					<path class="st7" d="M283.7,224.7c0.4-0.5,1.1-0.5,1.6-0.1s0.5,1.1,0.1,1.6c-0.4,0.5-1.1,0.5-1.6,0.1S283.2,225.1,283.7,224.7z
						"/>
				</g>
				<g>
					<path class="st7" d="M280.4,221.7c0.4-0.5,1.1-0.5,1.6-0.1s0.5,1.1,0.1,1.6s-1.1,0.5-1.6,0.1C280,222.9,280,222.2,280.4,221.7z
						"/>
				</g>
				<g>
					<path class="st7" d="M277.1,218.8c0.4-0.5,1.1-0.5,1.6-0.1c0.5,0.4,0.5,1.1,0.1,1.6s-1.1,0.5-1.6,0.1S276.7,219.2,277.1,218.8z
						"/>
				</g>
				<g>
					<path class="st7" d="M273.8,215.8c0.4-0.5,1.1-0.5,1.6-0.1c0.5,0.4,0.5,1.1,0.1,1.6c-0.4,0.5-1.1,0.5-1.6,0.1
						C273.5,216.9,273.4,216.2,273.8,215.8z"/>
				</g>
				<g>
					<path class="st7" d="M270.6,212.8c0.4-0.5,1.1-0.5,1.6-0.1s0.5,1.1,0.1,1.6s-1.1,0.5-1.6,0.1
						C270.2,214,270.2,213.3,270.6,212.8z"/>
				</g>
				<g>
					<path class="st7" d="M267.3,209.9c0.4-0.5,1.1-0.5,1.6-0.1c0.5,0.4,0.5,1.1,0.1,1.6s-1.1,0.5-1.6,0.1
						C266.9,211,266.9,210.3,267.3,209.9z"/>
				</g>
				<g>
					<path class="st7" d="M264,206.9c0.4-0.5,1.1-0.5,1.6-0.1s0.5,1.1,0.1,1.6c-0.4,0.5-1.1,0.5-1.6,0.1S263.6,207.3,264,206.9z"/>
				</g>
				<g>
					<path class="st7" d="M260.7,203.9c0.4-0.5,1.1-0.5,1.6-0.1c0.5,0.4,0.5,1.1,0.1,1.6s-1.1,0.5-1.6,0.1
						C260.4,205.1,260.3,204.4,260.7,203.9z"/>
				</g>
				<g>
					<path class="st7" d="M257.5,201c0.4-0.5,1.1-0.5,1.6-0.1c0.5,0.4,0.5,1.1,0.1,1.6s-1.1,0.5-1.6,0.1S257.1,201.4,257.5,201z"/>
				</g>
				<g>
					<path class="st7" d="M254.2,198c0.4-0.5,1.1-0.5,1.6-0.1c0.5,0.4,0.5,1.1,0.1,1.6c-0.4,0.5-1.1,0.5-1.6,0.1
						C253.8,199.2,253.8,198.5,254.2,198z"/>
				</g>
				<g>
					<path class="st7" d="M250.9,195c0.4-0.5,1.1-0.5,1.6-0.1c0.5,0.4,0.5,1.1,0.1,1.6s-1.1,0.5-1.6,0.1
						C250.6,196.2,250.5,195.5,250.9,195z"/>
				</g>
				<g>
					<path class="st7" d="M247.7,192.1c0.4-0.5,1.1-0.5,1.6-0.1c0.5,0.4,0.5,1.1,0.1,1.6s-1.1,0.5-1.6,0.1
						C247.3,193.2,247.2,192.5,247.7,192.1z"/>
				</g>
				<g>
					<path class="st7" d="M244.4,189.1c0.4-0.5,1.1-0.5,1.6-0.1c0.5,0.4,0.5,1.1,0.1,1.6s-1.1,0.5-1.6,0.1
						C244,190.3,244,189.6,244.4,189.1z"/>
				</g>
				<g>
					<path class="st7" d="M241.1,186.1c0.4-0.5,1.1-0.5,1.6-0.1c0.5,0.4,0.5,1.1,0.1,1.6c-0.4,0.5-1.1,0.5-1.6,0.1
						C240.7,187.3,240.7,186.6,241.1,186.1z"/>
				</g>
				<g>
					<path class="st7" d="M237.8,183.2c0.4-0.5,1.1-0.5,1.6-0.1c0.5,0.4,0.5,1.1,0.1,1.6s-1.1,0.5-1.6,0.1
						C237.5,184.3,237.4,183.6,237.8,183.2z"/>
				</g>
				<g>
					<path class="st7" d="M234.6,180.2c0.4-0.5,1.1-0.5,1.6-0.1c0.5,0.4,0.5,1.1,0.1,1.6s-1.1,0.5-1.6,0.1
						C234.2,181.4,234.2,180.7,234.6,180.2z"/>
				</g>
				<g>
					<path class="st7" d="M231.3,177.2c0.4-0.5,1.1-0.5,1.6-0.1c0.5,0.4,0.5,1.1,0.1,1.6c-0.4,0.5-1.1,0.5-1.6,0.1
						C230.9,178.4,230.9,177.7,231.3,177.2z"/>
				</g>
				<g>
					<path class="st7" d="M228,174.3c0.4-0.5,1.1-0.5,1.6-0.1c0.5,0.4,0.5,1.1,0.1,1.6s-1.1,0.5-1.6,0.1
						C227.6,175.4,227.6,174.7,228,174.3z"/>
				</g>
				<g>
					<path class="st7" d="M224.7,171.3c0.4-0.5,1.1-0.5,1.6-0.1c0.5,0.4,0.5,1.1,0.1,1.6s-1.1,0.5-1.6,0.1
						C224.4,172.5,224.3,171.8,224.7,171.3z"/>
				</g>
				<g>
					<path class="st7" d="M221.5,168.4c0.4-0.5,1.1-0.5,1.6-0.1c0.5,0.4,0.5,1.1,0.1,1.6c-0.4,0.5-1.1,0.5-1.6,0.1
						C221.1,169.5,221.1,168.8,221.5,168.4z"/>
				</g>
				<g>
					<path class="st7" d="M218.2,165.4c0.4-0.5,1.1-0.5,1.6-0.1c0.5,0.4,0.5,1.1,0.1,1.6s-1.1,0.5-1.6,0.1
						C217.8,166.5,217.8,165.8,218.2,165.4z"/>
				</g>
				<g>
					<line class="st10" x1="211.9" y1="167.5" x2="219.6" y2="158.9"/>
				</g>
			</g>
		</g>
	</g>
</g>
<g id="SPEED_x5F_TRAP">
	<g>
		<circle class="st8" cx="280.4" cy="178.8" r="4.7"/>
		<circle class="st11" cx="280.4" cy="178.8" r="4.7"/>
	</g>
	<g>
		<g>
			<path class="st11" d="M302.9,126.9c0,0.8-0.6,1.4-1.4,1.4h-42.2c-0.8,0-1.4-0.6-1.4-1.4V92.3c0-0.8,0.6-1.4,1.4-1.4h42.2
				c0.8,0,1.4,0.6,1.4,1.4V126.9z"/>
		</g>
		<g>
			<path class="st6" d="M270,103.8v2.7c0,1.3-0.6,1.7-1.3,2h-3.9c-0.7-0.3-1.3-0.7-1.3-2v-2.4h2.7v2l0.2,0.2h0.8l0.2-0.2v-1.8
				l-0.1-0.2l-2.7-1.2c-0.8-0.4-0.9-0.9-0.9-1.8v-2.5c0-1.3,0.6-1.7,1.3-2h3.9c0.7,0.3,1.3,0.7,1.3,2v2.2h-2.7v-1.9l-0.2-0.2h-0.8
				l-0.2,0.2v1.7l0.2,0.3l2.7,1.1C269.9,102.3,270,102.9,270,103.8z"/>
			<path class="st6" d="M273.5,104.3v4.2h-2.7v-12h5.2c0.7,0.3,1.3,0.7,1.3,2v3.8c0,1.3-0.6,1.7-1.3,2H273.5z M273.5,98.7v3.5h1
				l0.2-0.2v-3.2l-0.2-0.2H273.5z"/>
			<path class="st6" d="M278,96.5h5.5V99h-2.8v2.2h2.7v2.5h-2.7v2.3h2.9v2.5H278V96.5z"/>
			<path class="st6" d="M284.4,96.5h5.5V99H287v2.2h2.7v2.5H287v2.3h2.9v2.5h-5.6V96.5z"/>
			<path class="st6" d="M297.3,106.5c0,1.3-0.6,1.7-1.3,2h-5.2v-12h5.2c0.7,0.3,1.3,0.7,1.3,2V106.5z M293.4,98.7v7.7h1l0.2-0.2
				v-7.3l-0.2-0.2H293.4z"/>
			<path class="st6" d="M271,113.2v9.5h-2.7v-9.5h-1.9v-2.5h6.5v2.5H271z"/>
			<path class="st6" d="M273.4,122.7v-12h5.2c0.7,0.3,1.3,0.7,1.3,2v2.5c0,1.1-0.5,1.6-1.1,1.9l1.4,3.8v1.7h-2.3l-1.5-4.7h-0.3v4.7
				H273.4z M276.1,112.9v3h1l0.2-0.2V113l-0.2-0.2H276.1z"/>
			<path class="st6" d="M284.5,120.3h-1.3l-0.2,2.3h-2.5v-2l1.5-10h3.6l1.5,10v2h-2.5L284.5,120.3z M283.4,117.8h0.8l-0.3-3.8h-0.2
				L283.4,117.8z"/>
			<path class="st6" d="M290.5,118.5v4.2h-2.7v-12h5.2c0.7,0.3,1.3,0.7,1.3,2v3.8c0,1.3-0.6,1.7-1.3,2H290.5z M290.5,112.9v3.5h1
				l0.2-0.2V113l-0.2-0.2H290.5z"/>
		</g>
	</g>
	<g>
		<line class="st12" x1="280.4" y1="178.8" x2="280.4" y2="128.3"/>
	</g>
</g>
<g id="アイコン">
	<g>
		<g>
			<path class="st6" d="M16.3,412.4c-1.4,0-2.5-1.1-2.5-2.5V285.3c0-1.4,1.1-2.5,2.5-2.5h90c1.4,0,2.5,1.1,2.5,2.5v124.7
				c0,1.4-1.1,2.5-2.5,2.5H16.3z"/>
			<path class="st5" d="M106.3,283.2c1.2,0,2.1,1,2.1,2.1v124.7c0,1.2-1,2.1-2.1,2.1h-90c-1.2,0-2.1-1-2.1-2.1V285.3
				c0-1.2,1-2.1,2.1-2.1H106.3 M106.3,282.4h-90c-1.6,0-2.8,1.3-2.8,2.8v124.7c0,1.6,1.3,2.8,2.8,2.8h90c1.6,0,2.8-1.3,2.8-2.8
				V285.3C109.1,283.7,107.9,282.4,106.3,282.4L106.3,282.4z"/>
		</g>
		<g>
			<path class="st5" d="M55,304v2.6c0,1.3-0.6,1.7-1.3,2h-3.3c-0.7-0.3-1.3-0.7-1.3-2v-2h1.8v2.1l0.4,0.4h1.6l0.4-0.4v-2.8l-0.3-0.4
				l-2.6-0.8c-0.8-0.3-1.1-0.8-1.1-1.9v-2.2c0-1.3,0.6-1.7,1.3-2h3.3c0.7,0.3,1.3,0.7,1.3,2v1.9h-1.8v-2.1l-0.4-0.4h-1.6l-0.4,0.4
				v2.4l0.4,0.4l2.6,0.7C54.6,302.3,55,302.9,55,304z"/>
			<path class="st5" d="M56.3,296.6h5.1v1.6h-3.3v3.4h3.1v1.6h-3.1v3.7h3.4v1.6h-5.2V296.6z"/>
			<path class="st5" d="M68.6,306.6c0,1.3-0.6,1.7-1.3,2H64c-0.7-0.3-1.3-0.7-1.3-2v-8c0-1.3,0.6-1.7,1.3-2h3.3
				c0.7,0.3,1.3,0.7,1.3,2v2.7h-1.8v-2.8l-0.4-0.4h-1.6l-0.4,0.4v8.3l0.4,0.4h1.6l0.4-0.4V304h1.8V306.6z"/>
			<path class="st5" d="M73.4,298.2v10.3h-1.8v-10.3h-2.1v-1.6h6.1v1.6H73.4z"/>
			<path class="st5" d="M82.3,306.6c0,1.3-0.6,1.7-1.3,2h-3.3c-0.7-0.3-1.3-0.7-1.3-2v-8c0-1.3,0.6-1.7,1.3-2H81
				c0.7,0.3,1.3,0.7,1.3,2V306.6z M80.5,298.5l-0.4-0.4h-1.6l-0.4,0.4v8.3l0.4,0.4h1.6l0.4-0.4V298.5z"/>
			<path class="st5" d="M83.7,308.6v-12h4.6c0.7,0.3,1.3,0.7,1.3,2v2.6c0,1.3-0.6,1.6-1.3,1.9l-0.3,0.1l2.1,4.3v1.1h-1.6l-2.2-5.1
				h-0.8v5.1H83.7z M85.5,298.1v3.9h2l0.4-0.4v-3.1l-0.4-0.4H85.5z"/>
			<path class="st5" d="M93.7,308.6V307h1.8v-8.7h-1.7v-1.6h3.5V307H99v1.6H93.7z"/>
		</g>
		<line class="st13" x1="23.7" y1="302.7" x2="44.9" y2="302.7"/>
		<g>
			<path class="st5" d="M55,334v2.6c0,1.3-0.6,1.7-1.3,2h-3.3c-0.7-0.3-1.3-0.7-1.3-2v-2h1.8v2.1l0.4,0.4h1.6l0.4-0.4v-2.8l-0.3-0.4
				l-2.6-0.8c-0.8-0.3-1.1-0.8-1.1-1.9v-2.2c0-1.3,0.6-1.7,1.3-2h3.3c0.7,0.3,1.3,0.7,1.3,2v1.9h-1.8v-2.1l-0.4-0.4h-1.6l-0.4,0.4
				v2.4l0.4,0.4l2.6,0.7C54.6,332.3,55,332.9,55,334z"/>
			<path class="st5" d="M56.3,326.6h5.1v1.6h-3.3v3.4h3.1v1.6h-3.1v3.7h3.4v1.6h-5.2V326.6z"/>
			<path class="st5" d="M68.6,336.6c0,1.3-0.6,1.7-1.3,2H64c-0.7-0.3-1.3-0.7-1.3-2v-8c0-1.3,0.6-1.7,1.3-2h3.3
				c0.7,0.3,1.3,0.7,1.3,2v2.7h-1.8v-2.8l-0.4-0.4h-1.6l-0.4,0.4v8.3l0.4,0.4h1.6l0.4-0.4V334h1.8V336.6z"/>
			<path class="st5" d="M73.4,328.2v10.3h-1.8v-10.3h-2.1v-1.6h6.1v1.6H73.4z"/>
			<path class="st5" d="M82.3,336.6c0,1.3-0.6,1.7-1.3,2h-3.3c-0.7-0.3-1.3-0.7-1.3-2v-8c0-1.3,0.6-1.7,1.3-2H81
				c0.7,0.3,1.3,0.7,1.3,2V336.6z M80.5,328.5l-0.4-0.4h-1.6l-0.4,0.4v8.3l0.4,0.4h1.6l0.4-0.4V328.5z"/>
			<path class="st5" d="M83.7,338.6v-12h4.6c0.7,0.3,1.3,0.7,1.3,2v2.6c0,1.3-0.6,1.6-1.3,1.9l-0.3,0.1l2.1,4.3v1.1h-1.6l-2.2-5.1
				h-0.8v5.1H83.7z M85.5,328.1v3.9h2l0.4-0.4v-3.1l-0.4-0.4H85.5z"/>
			<path class="st5" d="M93.4,338.6V335c0-1.1,0.4-1.7,1.2-2.1l3-1.2v-3.2l-0.4-0.4h-1.7l-0.4,0.4v2h-1.8v-1.9c0-1.3,0.6-1.7,1.3-2
				H98c0.7,0.3,1.3,0.7,1.3,2v2.5c0,1.1-0.3,1.7-1.1,2.1l-3,1.2v2.5h4.1v1.6H93.4z"/>
		</g>
		<line class="st14" x1="23.7" y1="332.7" x2="44.9" y2="332.7"/>
		<g>
			<path class="st5" d="M55,364v2.6c0,1.3-0.6,1.7-1.3,2h-3.3c-0.7-0.3-1.3-0.7-1.3-2v-2h1.8v2.1l0.4,0.4h1.6l0.4-0.4v-2.8l-0.3-0.4
				l-2.6-0.8c-0.8-0.3-1.1-0.8-1.1-1.9v-2.2c0-1.3,0.6-1.7,1.3-2h3.3c0.7,0.3,1.3,0.7,1.3,2v1.9h-1.8v-2.1l-0.4-0.4h-1.6l-0.4,0.4
				v2.4l0.4,0.4l2.6,0.7C54.6,362.3,55,362.9,55,364z"/>
			<path class="st5" d="M56.3,356.6h5.1v1.6h-3.3v3.4h3.1v1.6h-3.1v3.7h3.4v1.6h-5.2V356.6z"/>
			<path class="st5" d="M68.6,366.6c0,1.3-0.6,1.7-1.3,2H64c-0.7-0.3-1.3-0.7-1.3-2v-8c0-1.3,0.6-1.7,1.3-2h3.3
				c0.7,0.3,1.3,0.7,1.3,2v2.7h-1.8v-2.8l-0.4-0.4h-1.6l-0.4,0.4v8.3l0.4,0.4h1.6l0.4-0.4V364h1.8V366.6z"/>
			<path class="st5" d="M73.4,358.2v10.3h-1.8v-10.3h-2.1v-1.6h6.1v1.6H73.4z"/>
			<path class="st5" d="M82.3,366.6c0,1.3-0.6,1.7-1.3,2h-3.3c-0.7-0.3-1.3-0.7-1.3-2v-8c0-1.3,0.6-1.7,1.3-2H81
				c0.7,0.3,1.3,0.7,1.3,2V366.6z M80.5,358.5l-0.4-0.4h-1.6l-0.4,0.4v8.3l0.4,0.4h1.6l0.4-0.4V358.5z"/>
			<path class="st5" d="M83.7,368.6v-12h4.6c0.7,0.3,1.3,0.7,1.3,2v2.6c0,1.3-0.6,1.6-1.3,1.9l-0.3,0.1l2.1,4.3v1.1h-1.6l-2.2-5.1
				h-0.8v5.1H83.7z M85.5,358.1v3.9h2l0.4-0.4v-3.1l-0.4-0.4H85.5z"/>
			<path class="st5" d="M94.7,368.6c-0.7-0.3-1.3-0.7-1.3-2v-1.7h1.8v1.8l0.4,0.4h1.7l0.4-0.4v-3.2l-0.4-0.3h-1.8v-1.4h1.8l0.4-0.4
				v-3l-0.4-0.4h-1.7l-0.4,0.4v1.8h-1.8v-1.7c0-1.3,0.6-1.7,1.3-2H98c0.7,0.3,1.3,0.7,1.3,2v1.9c0,1-0.2,1.5-0.9,1.9
				c0.6,0.4,0.9,0.9,0.9,1.9v2.2c0,1.3-0.6,1.7-1.3,2H94.7z"/>
		</g>
		<line class="st15" x1="23.7" y1="362.7" x2="44.9" y2="362.7"/>
		<g>
			<path class="st5" d="M55.1,396.6c0,1.3-0.6,1.7-1.3,2h-4.6v-12h4.6c0.7,0.3,1.3,0.7,1.3,2V396.6z M51,388.1v9h2l0.4-0.4v-8.3
				l-0.4-0.4H51z"/>
			<path class="st5" d="M56.5,398.6v-12h4.6c0.7,0.3,1.3,0.7,1.3,2v2.6c0,1.3-0.6,1.6-1.3,1.9l-0.3,0.1l2.1,4.3v1.1h-1.6l-2.2-5.1
				h-0.8v5.1H56.5z M58.3,388.1v3.9h2l0.4-0.4v-3.1l-0.4-0.4H58.3z"/>
			<path class="st5" d="M69.5,394v2.6c0,1.3-0.6,1.7-1.3,2h-3.3c-0.7-0.3-1.3-0.7-1.3-2v-2h1.8v2.1l0.4,0.4h1.6l0.4-0.4v-2.8
				l-0.3-0.4l-2.6-0.8c-0.8-0.3-1.1-0.8-1.1-1.9v-2.2c0-1.3,0.6-1.7,1.3-2h3.3c0.7,0.3,1.3,0.7,1.3,2v1.9h-1.8v-2.1l-0.4-0.4h-1.6
				l-0.4,0.4v2.4l0.4,0.4l2.6,0.7C69.1,392.3,69.5,392.9,69.5,394z"/>
			<path class="st5" d="M77.1,388.2h-3.9v-1.6H79v1.5l-4,8.9h4v1.6h-5.9v-1.5L77.1,388.2z"/>
			<path class="st5" d="M86.2,396.6c0,1.3-0.6,1.7-1.3,2h-3.3c-0.7-0.3-1.3-0.7-1.3-2v-8c0-1.3,0.6-1.7,1.3-2h3.3
				c0.7,0.3,1.3,0.7,1.3,2V396.6z M84.4,388.5l-0.4-0.4h-1.6l-0.4,0.4v8.3l0.4,0.4H84l0.4-0.4V388.5z"/>
			<path class="st5" d="M91.9,386.6h1.6v12h-1.6l-2.6-7.1h-0.2v7.1h-1.6v-12h1.6l2.6,7.1h0.2V386.6z"/>
			<path class="st5" d="M94.9,386.6h5.1v1.6h-3.3v3.4h3.1v1.6h-3.1v3.7h3.4v1.6h-5.2V386.6z"/>
		</g>
		<g>
			<g>
				<g>
					<g>
						<line class="st16" x1="25.2" y1="385.2" x2="25.2" y2="400.1"/>
					</g>
					<g>
						<ellipse class="st7" cx="31.2" cy="392.7" rx="1.5" ry="1.4"/>
					</g>
					<g>
						<ellipse class="st7" cx="37.3" cy="392.7" rx="1.5" ry="1.4"/>
					</g>
					<g>
						<line class="st16" x1="43.4" y1="385.2" x2="43.4" y2="400.1"/>
					</g>
				</g>
			</g>
		</g>
	</g>
	<g>
		
			<rect x="276" y="273" transform="matrix(0.6861 -0.7275 0.7275 0.6861 -112.5957 287.9543)" class="st5" width="2.8" height="2.8"/>
		
			<rect x="279.9" y="268.9" transform="matrix(0.6861 -0.7275 0.7275 0.6861 -108.374 289.4893)" class="st5" width="2.8" height="2.8"/>
		
			<rect x="280" y="272.9" transform="matrix(0.6861 -0.7275 0.7275 0.6861 -111.2524 290.8327)" class="st5" width="2.8" height="2.8"/>
		
			<rect x="283.9" y="268.8" transform="matrix(0.6861 -0.7275 0.7275 0.6861 -107.0307 292.3677)" class="st5" width="2.8" height="2.8"/>
		
			<rect x="284.1" y="276.8" transform="matrix(0.6861 -0.7275 0.7275 0.6861 -112.7874 295.0544)" class="st5" width="2.8" height="2.8"/>
		
			<rect x="288" y="272.7" transform="matrix(0.6861 -0.7275 0.7275 0.6861 -108.5657 296.5894)" class="st5" width="2.8" height="2.8"/>
		
			<rect x="283.7" y="264.8" transform="matrix(0.6861 -0.7275 0.7275 0.6861 -104.1523 291.0244)" class="st5" width="2.8" height="2.8"/>
		
			<rect x="281.8" y="266.8" transform="matrix(0.6861 -0.7275 0.7275 0.6861 -106.2632 290.2568)" class="st6" width="2.8" height="2.8"/>
		
			<rect x="277.9" y="271" transform="matrix(0.6861 -0.7275 0.7275 0.6861 -110.4849 288.7218)" class="st6" width="2.8" height="2.8"/>
		
			<rect x="278" y="275" transform="matrix(0.6861 -0.7275 0.7275 0.6861 -113.3632 290.0652)" class="st6" width="2.8" height="2.8"/>
		
			<rect x="281.9" y="270.9" transform="matrix(0.6861 -0.7275 0.7275 0.6861 -109.1415 291.6002)" class="st6" width="2.8" height="2.8"/>
		
			<rect x="285.8" y="266.7" transform="matrix(0.6861 -0.7275 0.7275 0.6861 -104.9198 293.1352)" class="st6" width="2.8" height="2.8"/>
		
			<rect x="285.9" y="270.7" transform="matrix(0.6861 -0.7275 0.7275 0.6861 -107.7982 294.4785)" class="st6" width="2.8" height="2.8"/>
		
			<rect x="282" y="274.9" transform="matrix(0.6861 -0.7275 0.7275 0.6861 -112.0199 292.9435)" class="st6" width="2.8" height="2.8"/>
		
			<rect x="290" y="274.6" transform="matrix(0.6861 -0.7275 0.7275 0.6861 -109.3332 298.7002)" class="st6" width="2.8" height="2.8"/>
		
			<rect x="286.2" y="278.8" transform="matrix(0.6861 -0.7275 0.7275 0.6861 -113.5549 297.1652)" class="st6" width="2.8" height="2.8"/>
		
			<rect x="282.1" y="278.9" transform="matrix(0.6861 -0.7275 0.7275 0.6861 -114.8982 294.2868)" class="st6" width="2.8" height="2.8"/>
		
			<rect x="286" y="274.7" transform="matrix(0.6861 -0.7275 0.7275 0.6861 -110.6765 295.8219)" class="st6" width="2.8" height="2.8"/>
		
			<rect x="289.9" y="270.6" transform="matrix(0.6861 -0.7275 0.7275 0.6861 -106.4548 297.3569)" class="st6" width="2.8" height="2.8"/>
		
			<rect x="280.1" y="276.9" transform="matrix(0.6861 -0.7275 0.7275 0.6861 -114.1307 292.176)" class="st5" width="2.8" height="2.8"/>
		
			<rect x="284" y="272.8" transform="matrix(0.6861 -0.7275 0.7275 0.6861 -109.909 293.711)" class="st5" width="2.8" height="2.8"/>
		
			<rect x="288.1" y="276.7" transform="matrix(0.6861 -0.7275 0.7275 0.6861 -111.4441 297.9327)" class="st5" width="2.8" height="2.8"/>
		
			<rect x="287.9" y="268.7" transform="matrix(0.6861 -0.7275 0.7275 0.6861 -105.6873 295.246)" class="st5" width="2.8" height="2.8"/>
		
			<rect x="284.2" y="280.8" transform="matrix(0.6861 -0.7275 0.7275 0.6861 -115.6658 296.3977)" class="st5" width="2.8" height="2.8"/>
		
			<rect x="292" y="272.6" transform="matrix(0.6861 -0.7275 0.7275 0.6861 -107.2224 299.4677)" class="st5" width="2.8" height="2.8"/>
	</g>
	<g>
		<defs>
			
				<rect id="SVGID_1_" x="241.8" y="234.8" transform="matrix(0.7315 0.6818 -0.6818 0.7315 230.8875 -108.3106)" width="22.3" height="8.5"/>
		</defs>
		<clipPath id="SVGID_00000183947782949399280380000005165568597934910127_">
			<use xlink:href="#SVGID_1_"  style="overflow:visible;"/>
		</clipPath>
		<g style="clip-path:url(#SVGID_00000183947782949399280380000005165568597934910127_);">
			<polygon class="st18" points="255.4,251 253.3,249 254,240 263,238.7 265.1,240.6 256.1,241.9 			"/>
			<polygon class="st19" points="251.3,247.1 249.2,245.2 249.9,236.1 258.8,234.8 260.9,236.7 251.9,238 			"/>
			<polygon class="st20" points="247.1,243.2 245,241.3 245.7,232.3 254.7,230.9 256.8,232.9 247.8,234.2 			"/>
		</g>
	</g>
</g>
</svg>
