<?xml version="1.0" encoding="UTF-8"?>
<svg xmlns="http://www.w3.org/2000/svg" version="1.1" viewBox="0 0 3000 1572.9">
  <defs>
    <style>
      .cls-1 {
        fill: #010101;
      }

      .cls-2 {
        fill: #ee302d;
      }

      .cls-3 {
        fill: none;
        stroke: #ee302d;
        stroke-width: 6.3px;
      }

      .cls-3, .cls-4 {
        stroke-miterlimit: 10;
      }

      .cls-5 {
        isolation: isolate;
      }

      .cls-6 {
        fill: #c4c4c4;
      }

      .cls-7, .cls-4 {
        fill: #fff;
      }

      .cls-8 {
        opacity: .6;
      }

      .cls-4 {
        stroke: #010101;
        stroke-width: 5px;
      }
    </style>
  </defs>
  <!-- Generator: Adobe Illustrator 28.7.1, SVG Export Plug-In . SVG Version: 1.2.0 Build 142)  -->
  <g>
    <g id="Layer_1">
      <g class="cls-8">
        <path class="cls-6" d="M1530.9,670.4l929-166.6c3.6-.7,36.2-6.7,53.4-14.8,1.9-.9,3.6-1.7,5.3-2.4,13.8-6.3,22.8-10.8,45.1-29.9l-7.9-11c-6.6,5.7-16.7,9.8-24.1,14.4-23.1,14.4-48.3,22.1-74.9,26.9-1.8.3-929,166.6-929,166.6l3,16.8h0Z"/>
        <path class="cls-6" d="M2031.5,101.2h288.5l-82.6,59.7-4-7s12-5.8,12-17.8-10.8-18.4-17.9-18.4h-113.4c-5.8,0-11.8,1.5-15.3,6.5-2.2,3.2-3.1,7.5-2.3,11.3.4,1.8,1.3,4,3.1,4.8h-14.4c0,0-37-30.7-37-30.7l-16.6-8.4h0Z"/>
      </g>
      <g class="cls-5">
        <g class="cls-5">
        </g>
        <g class="cls-5">
        </g>
        <g class="cls-5">
        </g>
        <g class="cls-5">
        </g>
        <g class="cls-5">
        </g>
        <g class="cls-5">
        </g>
      </g>
      <g>
        
        <g class="cls-5">
          <g class="cls-5">
          </g>
        </g>
      </g>
      <g>
        
        <g class="cls-5">
          <g class="cls-5">
          </g>
        </g>
      </g>
      <g>
        
        <g class="cls-5">
          <g class="cls-5">
          </g>
        </g>
      </g>
      <g>
        
        <g class="cls-5">
          <g class="cls-5">
          </g>
        </g>
      </g>
      <g>
        
        <g class="cls-5">
          <g class="cls-5">
          </g>
        </g>
      </g>
      <g>
        
        <g class="cls-5">
          <g class="cls-5">
          </g>
        </g>
      </g>
      <g>
        
        <g class="cls-5">
          <g class="cls-5">
          </g>
        </g>
      </g>
      <g>
        
        <g class="cls-5">
          <g class="cls-5">
          </g>
        </g>
      </g>
      <g>
        
        <g class="cls-5">
          <g class="cls-5">
          </g>
        </g>
      </g>
      <g>
        
        <g class="cls-5">
          <g class="cls-5">
          </g>
          <g class="cls-5">
          </g>
        </g>
      </g>
      <g>
        
        <g class="cls-5">
          <g class="cls-5">
          </g>
          <g class="cls-5">
          </g>
        </g>
      </g>
      <g>
      </g>
      <polygon points="1072 1139 1130.2 1122.8 1114.4 1143.9 1124.9 1168.2 1072 1139"/>
      <g class="cls-5">
        <g class="cls-5">
        </g>
        <g class="cls-5">
        </g>
      </g>
      <g class="cls-5">
        <g class="cls-5">
        </g>
      </g>
      <g class="cls-5">
        <g class="cls-5">
        </g>
      </g>
      <g class="cls-5">
        <g class="cls-5">
        </g>
        <g class="cls-5">
        </g>
      </g>
      <g class="cls-5">
        <g class="cls-5">
        </g>
      </g>
      <g class="cls-5">
        <g class="cls-5">
        </g>
        <g class="cls-5">
        </g>
      </g>
      <g class="cls-5">
        <g class="cls-5">
        </g>
      </g>
      <g class="cls-5">
        <g class="cls-5">
        </g>
      </g>
      <g class="cls-5">
        <g class="cls-5">
        </g>
        <g class="cls-5">
        </g>
      </g>
      <path class="cls-1" d="M2899.1,996.1c-2-25.6-11.8-50.6-29.4-69.6-17.4-18.8-42.6-31.8-68.1-34.4-13.6-1.3-27.4-.6-40.9-.4-9.8.1-19.5.2-29.3.4-12.3.2-24.6.3-36.9.5-14.2.2-28.4.4-42.6.5-15.5.2-31,.4-46.5.6-16.2.2-32.4.4-48.6.6-16.2.2-32.5.4-48.7.6-15.7.2-31.4.4-47.1.6-14.5.2-29,.4-43.5.6-12.7.2-25.4.3-38.1.5-10.3.1-20.6.3-30.9.4-7.3,0-14.5.2-21.8.3-8.1.1-16.1.3-24.1-.2-24.9-1.8-49.1-11.9-67.9-28.1-19.6-16.9-31.8-41.5-35.3-67.1-3.7-26.7,2.3-54.7,17.8-76.9,9.6-13.8,22.8-24.8,36.2-34.8.7-.5,1.3-1,2-1.5,4.8-3.5,9.5-7,14.2-10.6,8.5-6.3,17.1-12.7,25.6-19,11.4-8.4,22.8-16.9,34.1-25.3,13.3-9.8,26.6-19.7,39.8-29.5,14.2-10.5,28.4-21.1,42.7-31.7,14.2-10.5,28.4-21.1,42.7-31.7,13.3-9.8,26.5-19.7,39.8-29.5,11.4-8.4,22.8-16.9,34.1-25.3,6.1-4.5,12.2-9.1,18.2-13.6,10.8-8.1,21.9-15.7,32-24.8,9.8-8.9,19-18.7,26.8-29.3,15.8-21.4,27.7-46.3,33.8-72.2,6.6-28.1,7.2-58.4,2.4-86.8-4.7-28-15.6-54.5-32.4-77.5-12.1-16.7-26.5-31.7-43-44.1-16.5-12.5-34.9-22.3-54.9-28-14.5-4.1-29.4-6.1-44.3-7.3-7.6-.6-15.2-1-22.9-1.1-4.3,0-8.6-.1-12.9-.1h-119.8c-5.8,0-11.5.7-17.1,2.7-9.2,3.3-16.4,10-23.3,16.7-.6.6-1.1,1.1-1.7,1.7-8.1,7.8-16.2,15.5-24.6,23-2.3,2.1-4.5,4.3-7,6.1-6.9,5-15.6,5.8-23.9,5.8h-73.7c-14.4,0-27.2-5.1-37.9-14.6-.2-.1-.3-.3-.5-.4-7.8-6.9-15.4-14.3-22.9-21.6-6.6-6.7-13.8-12.5-22.4-16.3-7.8-3.5-16.4-3.1-24.8-3.1h-812.8c-14.5,0-29.1,0-43.6,0-30.6.1-61.3,2.1-91.5,7.3-29.7,5.1-58.7,13.6-87,24-27.4,10.1-54,22.2-79.5,36.3-25.3,13.9-49,30.6-71.1,49.2-22.1,18.6-42,39.4-61.5,60.8-20.4,22.3-39.5,45.7-60.3,67.6-19.2,20.1-40.5,38.1-63.5,53.6-23.4,15.8-48.9,27.8-76,35.6-28.4,8.1-58,12.1-87.4,14.2-30,2.1-60.3,5.5-89.5,12.6-28,6.9-55.1,18.5-80.4,32.3-24.4,13.3-46.8,30.5-66.2,50.3-19.2,19.6-35.1,41.8-46.9,66.6-12.4,26.2-19.9,54.6-27.4,82.5-3.1,11.5-6.2,22.9-9.3,34.4-4,14.8-8,29.7-12,44.5-4.4,16.3-8.8,32.7-13.2,49-4.3,16-8.6,32-12.9,48-3.7,13.7-7.4,27.5-11.1,41.2-2.6,9.6-5.2,19.2-7.8,28.9-1,3.6-1.9,7.3-2.9,10.9,0,0-18.7,64.2-14.4,97.9.4,3.3,1,6.5,1.8,9.7,4.7,18.8,16.2,36.8,33.1,46.8,8.4,5,18.1,7.6,27.7,8.8,61.2,7.4,122.4,15.1,183.7,22.3,56.9,6.8,113.7,13.2,170.6,19.6,28.4,3.1,56.7,6.2,85.1,9.3,34.3,3.8,68.7,7.5,103,11.3,37.3,4.1,74.6,8.2,111.9,12.2,37.3,4.1,74.5,8.2,111.8,12.2,34.2,3.7,68.4,7.5,102.6,11.2,28.2,3.1,56.3,6.2,84.5,9.2,19.1,2.1,38.2,4.2,57.3,6.3,7,.8,14.1,1.6,21.1,2.2,9,.8,18.1,1.3,27.1,1,27.8-1.1,54.7-12.6,76.7-29.2,21.3-16,37.9-36.5,44.4-62.7,4.6-18.6,5.1-37.8,7.2-56.8,5-46.7,9.9-93.4,14.7-140.2,3.1-30.7,6.2-61.4,8.8-92.2,3.8-45.7,5.9-89.5,37.5-126.2,4.9-5.7,10.3-11,16.1-15.8,21-17.6,46.5-27.8,73.3-32.6,7.6-1.3,15.1-2.8,22.6-4.1,0,0,387.5-69.5,387.6-69.5,19.7-3.5,41.6-2.9,59.9,5.8,16.2,7.7,30,20.3,39,35.8,1,1.7,1.9,3.5,2.8,5.3,1.9,3.9,3.5,8,4.9,12.1,4.2,13.2,5.4,27.4,2.5,41-3,13.7-9.5,26.2-16.1,38.4-5.4,10.1-10.9,20.2-16.3,30.3-7.6,14.2-15.3,28.3-22.9,42.5-8.7,16.2-17.4,32.4-26.2,48.6-8.7,16.2-17.4,32.4-26.1,48.5-7.6,14.1-15.2,28.3-22.8,42.4-8.2,15.2-16.7,30.4-24.2,46-12.4,25.7-21.1,54.5-18,83.3,2.6,23.7,12.3,47.3,32.3,61.4,14.3,10.1,32.7,17.2,50.5,16.4,0,0,736.3-35.1,762.9-36.2,10.9-.5,21.8-.9,32.7-1.6,28.8-1.6,58.7-1.9,86.2-11.5,10.5-3.6,20.5-8.6,29.8-14.7,10.7-7,20.4-15.5,28.7-25.1,8.8-10.1,17-21.3,21.7-34,4.7-12.8,5.4-26.8,4.3-40.3h0ZM1034.5,1189c-8.3-.8-16.7-1.8-25-2.6-15-1.6-30.1-3.2-45.1-4.8-20.3-2.2-40.6-4.4-60.9-6.6-24.1-2.6-48.3-5.2-72.4-7.8-26.5-2.9-53.1-5.7-79.6-8.6-27.5-3-55-5.9-82.5-8.9-27-2.9-54.1-5.8-81.1-8.8-25.2-2.7-50.3-5.4-75.5-8.2-21.8-2.4-43.6-4.7-65.5-7.1-17.1-1.8-34.1-3.7-51.2-5.6-32-3.5-63.9-7.3-95.8-11.6-23.9-3.2-47.8-6.2-71.7-9.4-12-1.6-23.9-3.3-35.8-5.2-18.1-2.9-35.1-3.2-49-16.7-10.8-10.6-16.9-25.4-18.5-40.2-1-8.9-.3-17.8,1.1-26.6,2-12.2,5.5-24.3,8.4-36.4,1.4-5.7,2.8-11.5,4.2-17.2,0,25.3,5.2,47.6,15.4,66.2,13.4,24.4,34.7,43.4,60.1,53.4,22.8,9,47.7,14,71.2,20,36.1,9.3,72.9,16.3,110,20.3.1,0,.3,0,.5,0,17.1,1.8,34.1,3.7,51.2,5.6,21.8,2.4,43.6,4.7,65.5,7.1,25.2,2.7,50.3,5.4,75.5,8.2,27,2.9,54.1,5.8,81.1,8.8,27.5,3,55,5.9,82.5,8.9,26.5,2.9,53.1,5.7,79.6,8.6,24.1,2.6,48.3,5.2,72.4,7.8,20.3,2.2,40.6,4.4,60.9,6.6,15,1.6,30.1,3.2,45.1,4.8,8.3.9,16.7,1.8,25,2.6,0,0,0,0,.1,0,22.1,2.2,43.9,6.2,65.9,9.8,2.8.4,5.5.9,8.3,1.4-29.4-4-38.2-4.4-74.2-8,0,0,0,0-.1,0h0ZM2850.2,1064.8c-5.4,5.2-11.2,9.8-17.4,13.9-14.1,9.3-29.5,15.2-46,18.6-29.2,6.1-59.6,7.2-89.4,8.6-10.6.5-21.2,1-31.9,1.5-13.5.7-27.1,1.3-40.6,1.9-16,.8-32.1,1.5-48.1,2.3-18.1.9-36.3,1.8-54.4,2.6-19.8.9-39.6,1.9-59.5,2.9-21.1,1-42.2,2-63.3,3.1-22,1.1-44,2.1-66,3.2-22.5,1.1-44.9,2.2-67.4,3.2-22.5,1.1-45.1,2.2-67.6,3.2-22.2,1.1-44.4,2.1-66.6,3.2-21.4,1-42.9,2.1-64.4,3.1-20.3,1-40.6,1.9-60.9,2.9-18.8.9-37.5,1.8-56.3,2.7-.3,0-.7,0-1,0-10.2.5-20.1.6-30.1-1.9-9.7-2.4-18.9-6.7-27.1-12.5-3.7-2.6-7.1-5.8-9.9-9.3-19.5-24.3-17.3-57.8-8.8-86,5.9-19.4,15.4-37.4,24.6-55.3,10.2-20,21.1-39.9,31.6-59.5,8.7-16.2,17.4-32.4,26.1-48.5,3.6-6.7,7.2-13.4,10.8-20.1,12.7-23.5,25.3-47,38-70.5,5.9-11,11.8-22,18.1-32.7,10.4-17.6,17.7-37.3,18.8-57.8.2-4.3.2-8.7-.2-13-3.1-39.8-29.4-73.3-66.8-86.9-19.7-7.2-42.2-5.8-62.7-3l-412.1,73.9c-31.8,5.7-63,18.3-84.8,36.6-6.5,5.4-12.5,11.3-18,17.7-33.5,38.8-37.2,84.4-40.8,128.5l-.6,6.9c-2.5,30.3-2.5,61.2-5.5,91.1v.8c-4.4,42.8-9.2,88.6-14.8,140.1-3.5,32.4-6.5,65.5-31.2,89.8-19.1,18.8-45.6,32.1-72.3,34.6-18.1,1.7-37,.6-54.8-3.3-7.7-1.7-15.3-3.4-23-5.2-18.9-4.3-38-8.2-57.1-11.8-37.2-6.9-74.7-12.8-88.8-15-3.7-.6-6.8-2.8-8.7-6-1.9-3.4-5.3-5.6-9.2-6l-672.8-72.5c-29.7-3.2-60.1-6.1-88.8-14.8-3.7-1.1-7.4-2.4-11-3.8-23.1-9.1-42.6-26.7-54.4-48.4-11.3-20.7-14.8-44.5-14-67.9.2-5.5.6-11,1.2-16.5,0-.2,0-.5,0-.7s0-.4,0-.7c2.2-22.3,4.4-44.8,10-66.6,5.7-22.2,11.2-44.6,16.7-66.8.2-.7.3-1.3.5-2,5.7-22.5,12.4-44.7,18.2-67.1,5.8-22,9.9-44.6,16.1-66.4,4.2-17.5,11.8-34.5,20-50.5,19.1-37.3,46.3-68,81.5-90.8,3.8-2.5,7.7-4.9,11.7-7.2,37.9-22.1,79.7-37,123-43.9,21.7-3.4,44-3.8,65.8-5.6,22.3-1.9,44.7-4.6,66.3-10.5,20.3-5.5,40-13.5,58.7-23.2,36-18.7,67.2-45.5,95-74.6,12.4-13,24.3-26.6,35.8-39.8,8.1-9.3,16.4-18.9,24.8-28,7.1-7.8,14.4-15.4,21.9-22.9,20.5-20.4,42.2-39.5,65.8-56.2,23.9-16.9,49.9-31,76.4-43.4,26.7-12.6,54.4-22.9,82.9-30.7,20.6-5.7,41.6-10,62.8-13.1,30.1-4.3,60.6-4.9,90.9-5,7.3,0,14.5,0,21.8,0h803.2s16.2-1.2,29.6,11.4c13.4,12.6,40,38.1,40,38.1,0,0,8.3,8.3,22.3,8.3h113.4c6.4,0,13.4-.6,19.2-3.6,5.5-2.8,9.8-7.5,14.2-11.8,4.4-4.4,9.3-8.4,14.3-12.2,10.9-8.3,22.8-15.6,35.5-20.8,12.5-5.2,25.1-7.2,38.5-8.2,23.1-1.6,71.5-.3,72.6-.2,6.4.1,12.7.2,19.1.4.7,0,1.4,0,2.1,0,28.2.9,57.5,4.1,83.2,16.3,24.5,11.7,45.9,29.1,62.7,50.4,17.3,21.9,28.7,48.1,33.4,75.6,4.6,27.3,3.8,55.1-2.2,80.4-5.5,23.3-16.3,46.3-31.1,66.4-14.1,19-32.1,33.1-50.5,47.7-36,28.6-72.6,56.1-109.5,83.4-16.7,12.4-33.4,24.8-50,37.1-16.6,12.3-33.1,24.6-49.7,36.9-8.6,6.4-17.2,12.8-25.8,19.1-18.4,13.7-36.6,27.5-55.6,40.5-8.6,5.9-17.2,12-25,19-7.7,7-14.8,14.6-20.8,23.1-17.3,24.9-24.8,57.1-20.5,88.3,4.2,30.3,19,58.4,40.8,77.1,21.5,18.5,47.5,30.7,75.8,32.8,7.7.6,20.8.4,28,.3l435.1-6.5c17.6-.2,34.1-.2,51.1,5.2,16.4,5.2,31.6,14.2,43,27.2,5.7,6.5,10.5,13.8,14.1,21.6,15.7,34,9.6,77.3-17.7,103.6h0Z"/>
      <g>
        <rect class="cls-1" x="671.6" y="1199.9" width="6.4" height="6.4" transform="translate(-595 1742) rotate(-83.7)"/>
        <rect class="cls-7" x="665.3" y="1199.2" width="6.4" height="6.4" transform="translate(-599.9 1735.1) rotate(-83.7)"/>
        <rect class="cls-7" x="672.3" y="1193.6" width="6.4" height="6.4" transform="translate(-588.1 1737.1) rotate(-83.7)"/>
        <rect class="cls-7" x="666.7" y="1186.6" width="6.4" height="6.4" transform="translate(-586.1 1725.2) rotate(-83.7)"/>
        <rect class="cls-7" x="673.7" y="1181" width="6.4" height="6.4" transform="translate(-574.3 1727.2) rotate(-83.7)"/>
        <rect class="cls-7" x="668.1" y="1174" width="6.4" height="6.4" transform="translate(-572.3 1715.4) rotate(-83.7)"/>
        <rect class="cls-7" x="675.1" y="1168.3" width="6.4" height="6.4" transform="translate(-560.5 1717.3) rotate(-83.7)"/>
        <rect class="cls-7" x="669.5" y="1161.3" width="6.4" height="6.4" transform="translate(-558.5 1705.5) rotate(-83.7)"/>
        <rect class="cls-7" x="676.5" y="1155.7" width="6.4" height="6.4" transform="translate(-546.7 1707.5) rotate(-83.7)"/>
        <rect class="cls-7" x="670.9" y="1148.7" width="6.4" height="6.4" transform="translate(-544.7 1695.6) rotate(-83.7)"/>
        <rect class="cls-7" x="677.9" y="1143.1" width="6.4" height="6.4" transform="translate(-532.9 1697.6) rotate(-83.7)"/>
        <rect class="cls-7" x="672.3" y="1136" width="6.4" height="6.4" transform="translate(-530.9 1685.8) rotate(-83.7)"/>
        <rect class="cls-7" x="679.3" y="1130.4" width="6.4" height="6.4" transform="translate(-519.1 1687.8) rotate(-83.7)"/>
        <rect class="cls-7" x="673.7" y="1123.4" width="6.4" height="6.4" transform="translate(-517.1 1675.9) rotate(-83.7)"/>
        <rect class="cls-7" x="680.7" y="1117.8" width="6.4" height="6.4" transform="translate(-505.3 1677.9) rotate(-83.7)"/>
        <rect class="cls-1" x="666" y="1192.9" width="6.4" height="6.4" transform="translate(-593 1730.2) rotate(-83.7)"/>
        <rect class="cls-1" x="673" y="1187.3" width="6.4" height="6.4" transform="translate(-581.2 1732.1) rotate(-83.7)"/>
        <rect class="cls-1" x="667.4" y="1180.3" width="6.4" height="6.4" transform="translate(-579.2 1720.3) rotate(-83.7)"/>
        <rect class="cls-1" x="674.4" y="1174.7" width="6.4" height="6.4" transform="translate(-567.4 1722.3) rotate(-83.7)"/>
        <rect class="cls-1" x="668.8" y="1167.6" width="6.4" height="6.4" transform="translate(-565.4 1710.4) rotate(-83.7)"/>
        <rect class="cls-1" x="675.8" y="1162" width="6.4" height="6.4" transform="translate(-553.6 1712.4) rotate(-83.7)"/>
        <rect class="cls-1" x="670.2" y="1155" width="6.4" height="6.4" transform="translate(-551.6 1700.6) rotate(-83.7)"/>
        <rect class="cls-1" x="677.2" y="1149.4" width="6.4" height="6.4" transform="translate(-539.8 1702.5) rotate(-83.7)"/>
        <rect class="cls-1" x="671.6" y="1142.4" width="6.4" height="6.4" transform="translate(-537.8 1690.7) rotate(-83.7)"/>
        <rect class="cls-1" x="678.6" y="1136.7" width="6.4" height="6.4" transform="translate(-526 1692.7) rotate(-83.7)"/>
        <rect class="cls-1" x="673" y="1129.7" width="6.4" height="6.4" transform="translate(-524 1680.8) rotate(-83.7)"/>
        <rect class="cls-1" x="680" y="1124.1" width="6.4" height="6.4" transform="translate(-512.2 1682.8) rotate(-83.7)"/>
        <rect class="cls-1" x="674.3" y="1117.1" width="6.4" height="6.4" transform="translate(-510.2 1671) rotate(-83.7)"/>
      </g>
    </g>
  </g>
</svg>