<svg xmlns="http://www.w3.org/2000/svg" viewBox="0 0 200 70">
  
  <g fill="#F5C518" transform="translate(12, 10)">
    <!-- D -->
    <path d="M0,4 L0,46 L22,46 C38,46 46,37 46,25 C46,13 38,4 22,4 Z M14,16 L20,16 C28,16 32,19 32,25 C32,31 28,34 20,34 L14,34 Z"/>
    <!-- T -->
    <path d="M52,4 L52,16 L66,16 L66,46 L80,46 L80,16 L108,16 L108,4 Z" transform="translate(0,0) skewX(-8)"/>
    <!-- M -->
    <path d="M104,4 L104,46 L118,46 L118,22 L132,42 L146,22 L146,46 L160,46 L160,4 L148,4 L132,28 L116,4 Z"/>
  </g>
</svg>
