<?xml version="1.0" encoding="UTF-8"?>
<!-- Created with Inkscape by Vulphere (http://www.inkscape.org/) -->
<svg width="368.7106" height="85.34054" version="1.1" viewBox="0 0 368.7106 85.34054" xmlns="http://www.w3.org/2000/svg">
<title>IMSA GTP class logo (2023)</title>
<desc>A successor class to Daytona Prototype International (DPi) from 2023</desc>
 <defs>
  <clipPath id="vlpa">
   <path d="m0 216h684.1v-216h-684.1z"/>
  </clipPath>
 </defs>
 <g transform="translate(-15.50563 -69.42271)">
  <path d="m22.44179 150.4675c0-0.61811 8.486745-17.24911 23.52674-46.10405 4.655139-8.931105 10.23014-19.6557 12.3889-23.83243l3.925008-7.594058 157.3942 0.11346c86.56682 0.0624 157.4993 0.218586 157.6278 0.347074 0.37597 0.376033-22.0138 44.86985-34.90895 69.37243l-4.36897 8.30164h-157.7924c-146.6001 0-157.7924-0.0429-157.7924-0.60407z" fill="#fff" stroke-width="1.79707"/>
  <path d="m15.50563 154.4808c0-0.21158 0.187093-0.5899 0.415762-0.8407 14.08657-26.80804 28.81049-55.83528 43.50424-83.976l324.7906-0.241406c-14.54462 28.4106-28.88735 56.92751-43.69661 85.20141l-162.507 0.1207c-89.37884 0.0664-162.507-0.0524-162.507-0.264zm362.4-81.22638c0-0.306144-55.11878-0.470323-157.8998-0.470323h-157.8998c-14.35225 28.09659-27.23056 51.86158-40.36047 78.2224 0 0.34462 48.95228 0.46169 158.2015 0.37832l158.2015-0.12072c13.21725-24.7694 27.6026-53.30342 39.757-78.00968zm-241.6118 56.65868c7.35361-17.16923 9.10938-21.37565 19.14856-42.1374h55.04599l0.99484 1.26473c1.36217 1.731711 0.72807 3.878996-0.66642 6.78881l-1.66126 3.46646h-43.71365c-3.48312 7.9652-7.66191 15.39182-11.52384 23.51616 9.68223 0.39873 16.14774 0.48384 26.86929 0.48384 1.28714-2.56 2.57428-5.12 3.86143-7.68h-18.25102c1.9991-3.84 3.99822-7.68 5.99733-11.52h14.9271c16.93212 0 16.51588-0.0953 16.51588 3.78195 0 1.62419-0.97646 3.93603-4.92 11.64841-5.2169 10.20268-7.11931 12.78011-10.59934 14.36017-18.68451 0.48439-34.76405-0.0641-49.99975-0.3054 0 0-3.00158-1.12057-2.02514-3.66773zm100.6642-30.3184c-8.42448-0.2738-12.80156-0.29448-21.12-0.53371 1.83614-4.0379 3.38783-7.04068 5.50068-11.28529h59.82731c-2.01599 3.8348-4.03199 7.66959-6.04799 11.50439-7.22328 5e-3 -14.44656 0.0107-21.66984 0.016l-18.17016 35.51298-16.13366 6e-3c5.9317-12.32928 12.08076-22.53218 17.81366-35.22037zm50.33049-11.579c18.39791-0.0826 55.19372-0.24777 55.19372-0.24777l0.9979 1.26862c0.54884 0.69773 0.99789 1.88616 0.99789 2.64094 0 1.91672-9.76039 20.82874-11.94186 23.13888-3.57255 3.7833-2.86682 3.67933-24.97571 3.67933h-19.67582c-2.76965 5.44-5.53929 10.88-8.30894 16.32h-16.25843c8.00882-15.59058 15.99594-31.19227 23.97125-46.8zm37.50951 11.60399c-11.54788-0.15177-16.83175-0.18071-27.12-0.084-1.22796 2.33763-2.54638 4.66566-3.58483 7.08 9.62042 0.18118 16.27263 0.175 27.10483 0.35594 1.24399-2.56612 2.65206-5.09678 3.6-7.35194z" stroke-width=".48"/>
  <g transform="matrix(.8634702 0 0 -.9093305 -77.90621 192.4953)">
   <g clip-path="url(#vlpa)">
    <g transform="matrix(.6520807 0 0 .6520807 88.30193 17.51426)">
     <g transform="translate(253.8,165.66)">
      <path d="m0 0h-133.58l-59.576-115.32h132.58z"/>
     </g>
     <g transform="translate(191.41,53.341)">
      <path d="m0 0h-125.84l56.476 109.32h126.78z" fill="#fff"/>
     </g>
     <g transform="translate(182.76,138.98)">
      <path d="m0 0h-8.936l-34.86-83.635h-13.603l35.131 83.383h-9.78l26.036 20.258z" fill="#e31a23" fill-rule="evenodd"/>
     </g>
     <g transform="translate(160.83,160.66)">
      <path d="m0 0s-19.195-10.596-26.33-46.186c-3.925-19.584-6.75-37.944-28.079-59.132h-37.564l54.41 105.32z"/>
     </g>
     <g transform="translate(152.72,55.34)">
      <path d="m0 0s15.894 9.187 24.153 51.82c7.56 39.024 31.167 53.498 31.167 53.498h37.486l-55.32-105.32z"/>
     </g>
    </g>
   </g>
  </g>
 </g>
</svg>
