<?xml version="1.0" encoding="UTF-8"?>
<svg xmlns="http://www.w3.org/2000/svg" viewBox="0 0.35 268.68 57.31"><path d="M51.125 57.129L46.34 21.042l-9.042 29.651H25.127L16.34 21.389l-4.6 35.74H0l7.824-52.6C8.171 2.094 9.913.876 12.95.876h5.048c2.868 0 4.347 1.041 5.126 3.568l8.348 32.172 8.694-32.172c.7-2.528 2.266-3.568 5.133-3.568h5.041c2.959 0 4.786 1.218 5.133 3.653l7.654 52.6zm15.35-15.477V28.78c0-10.344 6.259-16.086 17.389-16.086 11.215 0 17.389 5.657 17.389 16.086v12.872c0 10.344-6.174 16-17.389 16-11.13.001-17.389-5.741-17.389-16zm21.736 5.3c.955-.956 1.48-3.214 1.48-6.174V29.566c0-3.129-.432-5.133-1.48-6.174a5.748 5.748 0 0 0-4.348-1.65 6.3 6.3 0 0 0-4.432 1.65c-.956 1.041-1.395 3.045-1.395 6.174v11.215c0 2.96.524 5.133 1.395 6.174 1.041 1.133 2.435 1.564 4.432 1.564s3.392-.432 4.348-1.564zm21.679-.344V21.129h-6.693v-7.911h6.69V2.959h11.484v10.259h9.126l-1.738 7.911h-7.384v23.47c0 2.789.956 3.83 3.3 3.83h5.65l-1.734 9.218h-6.783c-8.434.006-11.918-3.218-11.918-11.039zm23.946-4.956V28.78c0-10.344 6.259-16.086 17.389-16.086 11.215 0 17.389 5.657 17.389 16.086v12.872c0 10.344-6.174 16-17.389 16-11.13.001-17.389-5.741-17.389-16zm21.736 5.3c.956-.956 1.48-3.214 1.48-6.174V29.566c0-3.129-.432-5.133-1.48-6.174a5.747 5.747 0 0 0-4.347-1.65 6.3 6.3 0 0 0-4.432 1.65c-.956 1.041-1.395 3.045-1.395 6.174v11.215c0 2.96.524 5.133 1.395 6.174 1.041 1.133 2.435 1.564 4.432 1.564s3.391-.432 4.347-1.564zm58.298-19.127v10.782c0 12.525-6.953 19.046-20.171 19.046-6.7 0-12.171-1.919-15.654-5.218-3.391-3.476-5.041-8.086-5.041-14.351V19.916c0-7.484 2.351-12.787 7.214-16.086 3.306-2.266 7.831-3.483 13.481-3.483 13.042 0 19.742 6.351 19.742 18.96v1.041h-12.089v-.776c0-6.351-2.174-8.786-7.654-8.786a8.649 8.649 0 0 0-6.174 2c-1.564 1.218-2.435 3.823-2.435 7.038v18.348c0 3.044.786 5.473 2.258 6.783 1.395 1.564 3.391 2.258 6.351 2.258 5.565 0 8.085-2.612 8.085-8.694v-.956h-7.822l1.735-9.742zm4.349 8.871c0-5.912 3.3-9.041 9.388-9.041h7.82c7.222 0 9.4-2 9.4-8.524 0-6.868-3.221-8.171-10-8.171h-4.609v9.388h-11.999V.871h17.042c15.038 0 21.736 5.565 21.736 18.436 0 13.212-6.174 18.344-22.082 18.344h-2.436c-1.48 0-2.266 1.041-2.266 2.7v16.778h-11.994zm42.754-34.612h-1.5v5.463h-1.419V2.084h-1.688V.89h4.815zm6.278 5.463l-.566-4.27-1.07 3.508h-1.441l-1.039-3.467-.545 4.228h-1.389l.926-6.224c.041-.288.247-.433.607-.433h.6a.545.545 0 0 1 .607.422l.988 3.807 1.028-3.807a.538.538 0 0 1 .607-.422h.6c.35 0 .565.144.607.433l.906 6.224z" fill="#ffffff"/></svg>