<?xml version="1.0" encoding="UTF-8"?>
<svg version="1.1" viewBox="0 0 185 68" xmlns="http://www.w3.org/2000/svg" xmlns:xlink="http://www.w3.org/1999/xlink">
 <defs>
  <linearGradient id="a" x1="140.87" x2="179.25" y1="8.03" y2="8.03" gradientUnits="userSpaceOnUse">
   <stop stop-color="#52100a" offset="0"/>
   <stop stop-color="#67120c" offset=".05"/>
   <stop stop-color="#9c1612" offset=".21"/>
   <stop stop-color="#c31916" offset=".34"/>
   <stop stop-color="#da1b18" offset=".44"/>
   <stop stop-color="#e31c19" offset=".51"/>
  </linearGradient>
  <linearGradient id="b" x1="175.4" x2="175.4" y1="36.28" y2="4.64" xlink:href="#a"/>
 </defs>
 <title>SRO Motorsports Group logo</title>
 <desc>International motorsport organisation</desc>
 <path d="m7.38 67.68v-3.68-2.21c-0.15 0.37-0.45 1.09-0.7 1.66l-2 4.46-2-4.46c-0.26-0.57-0.56-1.29-0.71-1.66v2.21 3.68h-1.97v-10h1.93l2.07 4.51c0.25 0.56 0.55 1.32 0.68 1.68 0.13-0.37 0.42-1.1 0.68-1.68l2-4.54h2v10zm9.7 0.16c-2.74 0-4.35-2.12-4.35-5.17s1.61-5.18 4.35-5.18 4.36 2.12 4.36 5.18-1.62 5.17-4.36 5.17zm0-8.36c-1.62 0-2.29 1.4-2.29 3.19s0.67 3.18 2.29 3.18 2.29-1.39 2.29-3.18-0.67-3.19-2.29-3.19zm11.7 0.15v8.05h-2v-8.05h-2.89v-2h7.77v2zm9.68 8.21c-2.73 0-4.35-2.12-4.35-5.17s1.62-5.18 4.35-5.18 4.36 2.12 4.36 5.18-1.62 5.17-4.36 5.17zm0-8.36c-1.62 0-2.29 1.4-2.29 3.19s0.67 3.18 2.29 3.18 2.3-1.39 2.3-3.18-0.68-3.19-2.3-3.19zm13.54 8.2-1.79-3.61h-2v3.61h-2v-10h4.67c1.89 0 3.46 1.05 3.46 3.18a2.85 2.85 0 0 1-1.93 3l1.93 3.9zm-1.22-8.08h-2.62v2.58h2.62c0.93 0 1.43-0.43 1.43-1.3s-0.54-1.28-1.43-1.28zm10 8.24a4.64 4.64 0 0 1-3.85-1.84l1.44-1.29a3.26 3.26 0 0 0 2.57 1.15c1.19 0 1.75-0.33 1.75-1.09s-0.35-0.93-2.24-1.36-3.14-1-3.14-3c0-1.82 1.61-2.94 3.58-2.94a4.8 4.8 0 0 1 3.66 1.58l-1.45 1.4a3.08 3.08 0 0 0-2.28-1c-1.07 0-1.43 0.46-1.43 0.91 0 0.63 0.43 0.83 2 1.2s3.35 0.92 3.35 3.09c0.02 1.9-1.18 3.19-3.92 3.19zm11.46-3.71h-2.17v3.55h-2v-10h4.38c1.89 0 3.46 1.05 3.46 3.18 0 2.29-1.55 3.27-3.63 3.27zm0.1-4.53h-2.27v2.58h2.34c0.93 0 1.43-0.43 1.43-1.3s-0.57-1.28-1.46-1.28zm10.66 8.24c-2.74 0-4.36-2.12-4.36-5.17s1.62-5.18 4.36-5.18 4.35 2.12 4.35 5.18-1.65 5.17-4.35 5.17zm0-8.36c-1.62 0-2.3 1.4-2.3 3.19s0.68 3.18 2.3 3.18 2.29-1.39 2.29-3.18-0.7-3.19-2.29-3.19zm13.5 8.2-1.79-3.61h-2v3.61h-2v-10h4.67c1.9 0 3.46 1.05 3.46 3.18a2.86 2.86 0 0 1-1.92 3l1.92 3.9zm-1.22-8.08h-2.62v2.58h2.62c0.93 0 1.43-0.43 1.43-1.3s-0.54-1.28-1.43-1.28zm11.1 0v8.05h-2v-8.02h-2.88v-2h7.76v2zm9.32 8.21a4.63 4.63 0 0 1-3.89-1.81l1.44-1.29a3.25 3.25 0 0 0 2.57 1.15c1.19 0 1.75-0.33 1.75-1.09s-0.35-0.93-2.24-1.36-3.14-1-3.14-3c0-1.82 1.61-2.94 3.58-2.94a4.8 4.8 0 0 1 3.66 1.58l-1.43 1.42a3.08 3.08 0 0 0-2.28-1c-1.07 0-1.43 0.46-1.43 0.91 0 0.63 0.43 0.83 2 1.2s3.35 0.92 3.35 3.09c0 1.88-1.2 3.17-3.94 3.17zm18.64 0c-2.63 0-4.39-2-4.39-5.17s1.84-5.18 4.46-5.18a3.72 3.72 0 0 1 3.79 2.54l-1.9 0.79a1.94 1.94 0 0 0-1.92-1.31c-1.5 0-2.36 1.32-2.36 3.19s0.87 3.21 2.37 3.21 1.85-0.65 2-1.52h-1.59v-1.88h3.59v1.32a3.77 3.77 0 0 1-4.05 4.04zm13.4-0.16-1.74-3.58h-2v3.61h-2v-10h4.67c1.89 0 3.45 1.05 3.45 3.18a2.85 2.85 0 0 1-1.92 3l1.92 3.9zm-1.19-8.08h-2.62v2.58h2.62c0.94 0 1.44-0.43 1.44-1.3s-0.55-1.25-1.44-1.25zm10.82 8.24c-2.73 0-4.35-2.12-4.35-5.17s1.62-5.18 4.35-5.18 4.36 2.12 4.36 5.18-1.62 5.2-4.36 5.2zm0-8.36c-1.62 0-2.29 1.4-2.29 3.19s0.67 3.18 2.29 3.18 2.3-1.39 2.3-3.18-0.67-3.16-2.3-3.16zm11.8 8.36c-2.43 0-4.06-1.63-4.06-4.56v-5.6h2v5.6c0 1.61 0.77 2.63 2 2.63s2.06-1 2.06-2.6v-5.63h2v5.6c0.06 2.91-1.45 4.59-4 4.59zm12.2-3.71h-2.2v3.55h-2v-10h4.39c1.89 0 3.45 1.05 3.45 3.18-0.01 2.32-1.56 3.3-3.64 3.3zm0.1-4.53h-2.3v2.58h2.33c0.94 0 1.44-0.43 1.44-1.3s-0.58-1.25-1.47-1.25z" fill="#b1b3b4"/>
 <path d="M173.27,1.37A22.26,22.26,0,0,0,165.8.13H148.39A8.13,8.13,0,0,0,146,.68a10.17,10.17,0,0,0-2.59,1.53,8.33,8.33,0,0,0-1.87,2.14A5.16,5.16,0,0,0,140.87,7v8.94a5.16,5.16,0,0,1,.69-2.65,8.27,8.27,0,0,1,1.86-2.13A9.68,9.68,0,0,1,146,9.63a8.38,8.38,0,0,1,3.21-.58H165.8a9.14,9.14,0,0,1,3.17.54A8.67,8.67,0,0,1,171.49,11l7.76-6.39A20.25,20.25,0,0,0,173.27,1.37Z" fill="url(#a)"/>
 <path d="m183.49 9.79a15.87 15.87 0 0 0-3.41-4.41c-0.23-0.21-0.45-0.43-0.69-0.63l-0.14-0.11-7.76 6.36 0.08 0.06a7.81 7.81 0 0 1 1.74 2.2 5.9 5.9 0 0 1 0.62 2.65v13.67a5.94 5.94 0 0 1-2.33 4.78 8.78 8.78 0 0 1-5.8 1.92h11.07a8.81 8.81 0 0 0 5.81-1.92 6 6 0 0 0 2.31-4.3v-0.48-13.64a13.07 13.07 0 0 0-1.5-6.15z" fill="url(#b)"/>
 <g fill="#e31c19">
  <path d="m176.87 36.28h-28.06a10.2 10.2 0 0 1-2.79-0.5 8.58 8.58 0 0 1-2.67-1.44 6.79 6.79 0 0 1-1.82-2.13 5.35 5.35 0 0 1-0.65-2.27v-0.35-22.59a5.16 5.16 0 0 1 0.69-2.65 8.33 8.33 0 0 1 1.87-2.14 10.17 10.17 0 0 1 2.56-1.53 8.13 8.13 0 0 1 2.37-0.54 22.12 22.12 0 0 0-6.63 1.23 20.1 20.1 0 0 0-6.12 3.38 16 16 0 0 0-4.1 5 13.07 13.07 0 0 0-1.52 6.19v13.64a13.07 13.07 0 0 0 1.51 6.15 16 16 0 0 0 4.1 5 20.1 20.1 0 0 0 6.12 3.38 22.26 22.26 0 0 0 7.47 1.24h16.6a22.26 22.26 0 0 0 7.47-1.24 20.1 20.1 0 0 0 6.12-3.38 15.9 15.9 0 0 0 4.1-5 13.16 13.16 0 0 0 1.5-5.67 6 6 0 0 1-2.31 4.3 8.81 8.81 0 0 1-5.81 1.92z"/>
  <path d="M16.57,0a19.37,19.37,0,0,0-6.31,1A17.57,17.57,0,0,0,5,3.86a14.13,14.13,0,0,0-3.64,4.3A11.07,11.07,0,0,0,.07,12.4,10.19,10.19,0,0,0,0,13.64a9.76,9.76,0,0,0,.07,1.22,11,11,0,0,0,1.28,4.2A14.48,14.48,0,0,0,5,23.37a17.28,17.28,0,0,0,5.26,2.86,19.19,19.19,0,0,0,6.35,1.06h22.3a6,6,0,0,1,3.91,1.34,4,4,0,0,1,1.66,3.18A3.44,3.44,0,0,1,44,33.53,5.52,5.52,0,0,1,42.74,35,6.54,6.54,0,0,1,41,36.12a5.79,5.79,0,0,1-2.12.48H.07v8.79H39a18.3,18.3,0,0,0,6.28-1,17.14,17.14,0,0,0,5.27-2.87,13.87,13.87,0,0,0,3.56-4.3,11.37,11.37,0,0,0,1.31-5.42,11.59,11.59,0,0,0-1.23-5.26,14,14,0,0,0-3.45-4.33,16.63,16.63,0,0,0-5.26-3,19.77,19.77,0,0,0-6.62-1.08H16.57a6.41,6.41,0,0,1-3.76-1.24,3.86,3.86,0,0,1-1.74-3.29,3.48,3.48,0,0,1,.54-1.88A5.57,5.57,0,0,1,13,10.3a5.93,5.93,0,0,1,1.78-.93,13.87,13.87,0,0,1,4.46-.58h36V0Z"/>
  <path d="M112.07,29.07a17.19,17.19,0,0,0,6.19-5.45A13.86,13.86,0,0,0,120,20.05a11.67,11.67,0,0,0,.62-3.73V15.05a11.6,11.6,0,0,0-1.28-5.3,16.34,16.34,0,0,0-3.48-4.62,18.29,18.29,0,0,0-5.26-3.41A22.2,22.2,0,0,0,104.09,0H65.52V8.8h35.86a8.82,8.82,0,0,1,3.14.57,9.21,9.21,0,0,1,2.67,1.53,7.76,7.76,0,0,1,1.86,2.2,5.27,5.27,0,0,1,.7,2.58,5.51,5.51,0,0,1-.66,2.68,7.09,7.09,0,0,1-1.82,2.14,9,9,0,0,1-2.67,1.43,10,10,0,0,1-3.22.51H76.69c-6.16,0-11.15,4.1-11.15,9.17V45.39H76.69V35.15c0-1.94,1.94-3.53,4.31-3.53h20.38l7.36,13.77h12.15Z"/>
 </g>
</svg>
